<svg width="1075" height="1085" viewBox="0 0 1075 1085" fill="none" xmlns="http://www.w3.org/2000/svg">
<path d="M210.493 820.36L219.271 739.426L219.384 738.389L218.505 738.951L140.373 788.945L178.303 702.866L178.893 701.528L177.607 702.225L84.3491 752.816L162.212 621.011C162.319 621.15 162.445 621.312 162.589 621.496C163.137 622.2 163.956 623.23 165.037 624.543C167.199 627.168 170.412 630.922 174.618 635.442C183.03 644.481 195.418 656.585 211.328 668.851C243.027 693.291 288.732 718.394 344.829 721.135L334.649 761.192C334.453 761.218 334.174 761.256 333.816 761.306C333.052 761.413 331.93 761.577 330.495 761.802C327.625 762.253 323.501 762.951 318.483 763.94C308.45 765.918 294.838 769.061 280.53 773.723C266.223 778.384 251.205 784.569 238.366 792.635C226.434 800.13 216.352 809.273 210.493 820.36Z" fill="#E0E1E9" stroke="#E0E1E9"/>
<path d="M643.148 761.192L632.968 721.135C689.065 718.394 734.77 693.291 766.469 668.851C782.379 656.585 794.767 644.481 803.179 635.442C807.385 630.922 810.598 627.168 812.76 624.543C813.841 623.23 814.66 622.2 815.208 621.496C815.352 621.312 815.478 621.15 815.585 621.011L893.448 752.816L800.19 702.225L798.904 701.528L799.494 702.866L837.424 788.945L759.292 738.951L758.413 738.389L758.526 739.426L767.304 820.36C761.446 809.273 751.363 800.13 739.431 792.635C726.593 784.569 711.574 778.384 697.268 773.723C682.959 769.061 669.347 765.918 659.314 763.94C654.296 762.951 650.172 762.253 647.302 761.802C645.867 761.577 644.745 761.413 643.981 761.306C643.623 761.256 643.344 761.218 643.148 761.192Z" fill="#E0E1E9" stroke="#E0E1E9"/>
<path d="M222.46 174.548C222.777 210.827 233.429 236.828 249.323 255.394C265.454 274.237 286.949 285.382 308.408 291.874C329.868 298.365 351.318 300.21 367.396 300.434C375.437 300.546 382.138 300.253 386.831 299.931C389.177 299.771 391.022 299.603 392.281 299.475C392.869 299.415 393.329 299.364 393.653 299.327V379.623C393.584 379.622 393.509 379.621 393.427 379.619C392.944 379.608 392.224 379.586 391.282 379.543C389.398 379.456 386.623 379.28 383.067 378.928C375.954 378.224 365.718 376.812 353.237 373.981C328.273 368.321 294.331 356.988 258.429 334.299C232.931 318.184 218.018 300.061 209.968 281.961C201.917 263.858 200.716 245.742 202.699 229.622C204.682 213.498 209.85 199.379 214.525 189.288C216.862 184.243 219.075 180.208 220.702 177.436C221.413 176.225 222.012 175.256 222.46 174.548Z" fill="#E0E1E9" stroke="#E0E1E9"/>
<path d="M584.143 299.327C584.467 299.364 584.927 299.415 585.515 299.475C586.774 299.603 588.618 299.771 590.965 299.931C595.657 300.253 602.359 300.546 610.399 300.434C626.478 300.21 647.928 298.365 669.387 291.874C690.847 285.382 712.341 274.237 728.472 255.394C744.367 236.828 755.018 210.827 755.335 174.548C755.784 175.256 756.382 176.225 757.093 177.436C758.72 180.208 760.933 184.243 763.27 189.288C767.946 199.379 773.113 213.498 775.096 229.622C777.079 245.742 775.878 263.858 767.827 281.961C759.778 300.061 744.865 318.184 719.366 334.299C683.465 356.988 649.522 368.321 624.559 373.981C612.077 376.812 601.841 378.224 594.729 378.928C591.172 379.28 588.397 379.456 586.513 379.543C585.571 379.586 584.852 379.608 584.369 379.619C584.286 379.621 584.211 379.622 584.143 379.623V299.327Z" fill="#E0E1E9" stroke="#E0E1E9"/>
<path d="M444.886 1024.59C444.403 1024.92 444.02 1025.21 443.742 1025.41L399.112 910.259L451.735 780.591L520.75 785.446L561.454 917.867L522.205 1025.44C501.112 1010.78 481.433 1010.8 466.992 1014.53C459.717 1016.41 453.775 1019.23 449.652 1021.59C447.59 1022.76 445.981 1023.82 444.886 1024.59Z" fill="#E0E1E9" stroke="#E0E1E9"/>
<mask id="path-6-inside-1_2130_24619" fill="white">
<path d="M645.902 1032.62C725.953 1040.56 726.144 1026.04 729.267 1019C732.397 1011.97 711.558 1001.06 711.558 1001.06C746.942 982.363 760.629 961.466 760.629 919.987C760.629 878.509 719.551 847.013 713.248 845.515C706.946 844.016 707.104 836.715 707.104 836.715C703.099 761.634 641.173 710.931 641.173 710.931C709.077 677.537 784.64 628.974 784.64 531.831C784.64 434.687 654.311 365.485 654.311 365.485C620.884 291.379 580.829 241.083 537.919 241.083C495.009 241.083 493.493 280.497 490.113 291.12C489.53 292.944 488.889 292.902 488.889 292.902C488.889 292.902 488.248 292.944 487.666 291.12C484.285 280.497 482.762 241.083 439.86 241.083C396.958 241.083 356.895 291.379 323.468 365.485C323.468 365.485 193.139 434.687 193.139 531.831C193.139 628.974 268.702 677.529 336.606 710.931C336.606 710.931 274.68 761.634 270.675 836.715C270.675 836.715 270.833 844.008 264.531 845.515C258.228 847.013 217.15 878.509 217.15 919.987C217.15 961.466 230.837 982.371 266.221 1001.06C266.221 1001.06 245.39 1011.97 248.512 1019C251.643 1026.04 251.826 1040.56 331.877 1032.62C331.877 1032.62 334.732 1031.71 334.641 1035.35C334.541 1038.98 332.41 1050.92 349.211 1059.67C366.012 1068.42 408.797 1067.56 449.409 1026.23C449.409 1026.23 458.118 1017.91 450.691 1007.84C443.265 997.765 426.764 960.125 430.127 899.515C433.491 838.904 458.901 789.084 488.873 789.084C518.845 789.084 544.255 838.904 547.618 899.515C550.982 960.125 534.481 997.765 527.054 1007.84C519.628 1017.91 528.336 1026.23 528.336 1026.23"/>
</mask>
<path d="M645.902 1032.62C725.953 1040.56 726.144 1026.04 729.267 1019C732.397 1011.97 711.558 1001.06 711.558 1001.06C746.942 982.363 760.629 961.466 760.629 919.987C760.629 878.509 719.551 847.013 713.248 845.515C706.946 844.016 707.104 836.715 707.104 836.715C703.099 761.634 641.173 710.931 641.173 710.931C709.077 677.537 784.64 628.974 784.64 531.831C784.64 434.687 654.311 365.485 654.311 365.485C620.884 291.379 580.829 241.083 537.919 241.083C495.009 241.083 493.493 280.497 490.113 291.12C489.53 292.944 488.889 292.902 488.889 292.902C488.889 292.902 488.248 292.944 487.666 291.12C484.285 280.497 482.762 241.083 439.86 241.083C396.958 241.083 356.895 291.379 323.468 365.485C323.468 365.485 193.139 434.687 193.139 531.831C193.139 628.974 268.702 677.529 336.606 710.931C336.606 710.931 274.68 761.634 270.675 836.715C270.675 836.715 270.833 844.008 264.531 845.515C258.228 847.013 217.15 878.509 217.15 919.987C217.15 961.466 230.837 982.371 266.221 1001.06C266.221 1001.06 245.39 1011.97 248.512 1019C251.643 1026.04 251.826 1040.56 331.877 1032.62C331.877 1032.62 334.732 1031.71 334.641 1035.35C334.541 1038.98 332.41 1050.92 349.211 1059.67C366.012 1068.42 408.797 1067.56 449.409 1026.23C449.409 1026.23 458.118 1017.91 450.691 1007.84C443.265 997.765 426.764 960.125 430.127 899.515C433.491 838.904 458.901 789.084 488.873 789.084C518.845 789.084 544.255 838.904 547.618 899.515C550.982 960.125 534.481 997.765 527.054 1007.84C519.628 1017.91 528.336 1026.23 528.336 1026.23" fill="#E0E1E9"/>
<path d="M729.267 1019L728.353 1018.6L728.352 1018.6L729.267 1019ZM711.558 1001.06L711.091 1000.18L709.41 1001.07L711.094 1001.95L711.558 1001.06ZM707.104 836.715L708.104 836.736L708.104 836.699L708.102 836.661L707.104 836.715ZM641.173 710.931L640.732 710.034L639.337 710.72L640.54 711.705L641.173 710.931ZM654.311 365.485L653.399 365.896L653.54 366.208L653.842 366.368L654.311 365.485ZM490.113 291.12L491.066 291.425L491.066 291.424L490.113 291.12ZM488.889 292.902L488.954 291.904L488.889 291.9L488.825 291.904L488.889 292.902ZM487.666 291.12L486.713 291.424L486.713 291.425L487.666 291.12ZM323.468 365.485L323.937 366.368L324.239 366.208L324.379 365.896L323.468 365.485ZM336.606 710.931L337.239 711.705L338.442 710.72L337.047 710.034L336.606 710.931ZM270.675 836.715L269.677 836.661L269.675 836.699L269.675 836.736L270.675 836.715ZM264.531 845.515L264.762 846.487L264.763 846.487L264.531 845.515ZM266.221 1001.06L266.685 1001.95L268.369 1001.07L266.688 1000.18L266.221 1001.06ZM248.512 1019L247.598 1019.41L247.599 1019.41L248.512 1019ZM331.877 1032.62L331.975 1033.62L332.081 1033.61L332.182 1033.58L331.877 1032.62ZM334.641 1035.35L335.64 1035.37L335.64 1035.37L334.641 1035.35ZM449.409 1026.23L448.719 1025.51L448.707 1025.52L448.696 1025.53L449.409 1026.23ZM645.804 1033.62C685.838 1037.59 706.088 1035.97 716.752 1032.38C722.122 1030.57 725.122 1028.24 726.974 1025.82C728.778 1023.47 729.471 1021.01 730.181 1019.41L728.352 1018.6C727.501 1020.52 726.999 1022.51 725.387 1024.61C723.824 1026.65 721.188 1028.77 716.113 1030.48C705.889 1033.92 686.017 1035.6 646.001 1031.63L645.804 1033.62ZM730.18 1019.41C731.196 1017.13 730.185 1014.71 728.619 1012.63C727.021 1010.51 724.62 1008.42 722.185 1006.59C719.738 1004.76 717.199 1003.16 715.276 1002.02C714.314 1001.44 713.503 1000.99 712.931 1000.67C712.646 1000.51 712.42 1000.39 712.265 1000.31C712.187 1000.26 712.127 1000.23 712.086 1000.21C712.065 1000.2 712.05 1000.19 712.039 1000.19C712.034 1000.18 712.029 1000.18 712.027 1000.18C712.025 1000.18 712.024 1000.18 712.023 1000.18C712.023 1000.18 712.022 1000.18 712.022 1000.18C712.022 1000.18 712.022 1000.18 711.558 1001.06C711.094 1001.95 711.094 1001.95 711.094 1001.95C711.094 1001.95 711.094 1001.95 711.095 1001.95C711.095 1001.95 711.096 1001.95 711.097 1001.95C711.099 1001.95 711.102 1001.95 711.107 1001.95C711.116 1001.96 711.13 1001.97 711.149 1001.98C711.187 1002 711.244 1002.03 711.318 1002.07C711.466 1002.15 711.685 1002.27 711.963 1002.42C712.519 1002.73 713.312 1003.18 714.254 1003.74C716.141 1004.86 718.616 1006.42 720.987 1008.2C723.37 1009.98 725.593 1011.93 727.021 1013.83C728.482 1015.78 728.902 1017.36 728.353 1018.6L730.18 1019.41ZM712.025 1001.95C729.8 992.553 742.239 982.549 750.214 969.591C758.191 956.631 761.629 940.832 761.629 919.987H759.629C759.629 940.621 756.224 956.01 748.511 968.543C740.796 981.078 728.7 990.872 711.091 1000.18L712.025 1001.95ZM761.629 919.987C761.629 898.92 751.204 880.455 740.07 867.118C734.496 860.441 728.722 855.021 723.937 851.171C721.545 849.246 719.391 847.707 717.626 846.597C715.897 845.51 714.443 844.771 713.479 844.542L713.017 846.487C713.629 846.633 714.837 847.206 716.561 848.29C718.248 849.351 720.338 850.843 722.683 852.729C727.373 856.503 733.051 861.831 738.534 868.399C749.516 881.554 759.629 899.576 759.629 919.987H761.629ZM713.479 844.542C710.755 843.894 709.424 842.017 708.75 840.204C708.411 839.292 708.248 838.414 708.171 837.761C708.132 837.437 708.116 837.172 708.109 836.992C708.105 836.902 708.104 836.834 708.104 836.79C708.103 836.768 708.104 836.752 708.104 836.743C708.104 836.739 708.104 836.736 708.104 836.735C708.104 836.734 708.104 836.734 708.104 836.734C708.104 836.734 708.104 836.734 708.104 836.735C708.104 836.735 708.104 836.735 708.104 836.735C708.104 836.736 708.104 836.736 707.104 836.715C706.104 836.693 706.104 836.693 706.104 836.694C706.104 836.694 706.104 836.695 706.104 836.695C706.104 836.696 706.104 836.697 706.104 836.698C706.104 836.7 706.104 836.702 706.104 836.705C706.104 836.711 706.104 836.719 706.104 836.728C706.103 836.746 706.103 836.772 706.104 836.804C706.104 836.868 706.106 836.958 706.11 837.071C706.119 837.296 706.139 837.613 706.185 837.996C706.275 838.759 706.466 839.8 706.875 840.901C707.698 843.114 709.439 845.637 713.017 846.487L713.479 844.542ZM708.102 836.661C706.086 798.861 689.494 767.231 673.447 745.081C665.42 734.001 657.519 725.278 651.622 719.323C648.674 716.345 646.225 714.058 644.511 712.514C643.654 711.741 642.981 711.155 642.52 710.76C642.29 710.562 642.113 710.413 641.993 710.312C641.933 710.262 641.887 710.224 641.856 710.198C641.84 710.185 641.828 710.175 641.82 710.168C641.816 710.165 641.813 710.162 641.811 710.161C641.809 710.16 641.808 710.159 641.808 710.158C641.807 710.158 641.807 710.157 641.173 710.931C640.54 711.705 640.54 711.705 640.54 711.705C640.54 711.705 640.541 711.706 640.541 711.706C640.543 711.708 640.545 711.71 640.549 711.712C640.556 711.718 640.566 711.727 640.58 711.738C640.609 711.762 640.652 711.798 640.709 711.846C640.823 711.941 640.994 712.086 641.219 712.278C641.667 712.663 642.328 713.238 643.172 713.999C644.861 715.521 647.282 717.782 650.201 720.73C656.041 726.628 663.872 735.273 671.827 746.254C687.744 768.226 704.117 799.488 706.105 836.768L708.102 836.661ZM641.614 711.828C709.518 678.434 785.64 629.626 785.64 531.831H783.64C783.64 628.322 708.636 676.64 640.732 710.034L641.614 711.828ZM785.64 531.831C785.64 482.818 752.781 440.978 720.146 411.487C703.806 396.722 687.471 385.004 675.223 376.979C669.098 372.966 663.992 369.874 660.416 367.785C658.627 366.74 657.221 365.946 656.26 365.412C655.78 365.145 655.411 364.943 655.162 364.808C655.037 364.74 654.943 364.689 654.879 364.654C654.846 364.637 654.822 364.624 654.806 364.615C654.798 364.611 654.791 364.608 654.787 364.605C654.785 364.604 654.783 364.603 654.782 364.603C654.781 364.602 654.78 364.602 654.311 365.485C653.842 366.368 653.842 366.368 653.843 366.369C653.844 366.369 653.845 366.37 653.847 366.371C653.851 366.373 653.856 366.376 653.864 366.38C653.879 366.388 653.902 366.4 653.932 366.416C653.994 366.449 654.086 366.499 654.208 366.565C654.451 366.698 654.815 366.896 655.289 367.16C656.238 367.687 657.631 368.474 659.407 369.512C662.957 371.586 668.034 374.66 674.127 378.652C686.315 386.638 702.562 398.293 718.805 412.971C751.335 442.367 783.64 483.7 783.64 531.831H785.64ZM655.223 365.074C638.488 327.974 620.068 296.771 600.416 274.827C580.776 252.896 559.785 240.083 537.919 240.083V242.083C558.963 242.083 579.455 254.419 598.926 276.161C618.386 297.891 636.707 328.889 653.399 365.896L655.223 365.074ZM537.919 240.083C527.032 240.083 518.704 242.585 512.295 246.558C505.889 250.528 501.463 255.93 498.317 261.635C495.174 267.334 493.302 273.352 492.004 278.579C491.355 281.193 490.848 283.622 490.4 285.711C489.949 287.817 489.565 289.544 489.16 290.817L491.066 291.424C491.506 290.04 491.91 288.212 492.356 286.13C492.806 284.029 493.306 281.636 493.945 279.061C495.223 273.911 497.045 268.083 500.068 262.601C503.087 257.125 507.296 252.009 513.349 248.258C519.398 244.508 527.35 242.083 537.919 242.083V240.083ZM489.161 290.816C488.897 291.64 488.661 291.907 488.601 291.964C488.576 291.987 488.593 291.963 488.664 291.938C488.698 291.926 488.74 291.915 488.789 291.909C488.814 291.905 488.84 291.903 488.868 291.903C488.882 291.902 488.896 291.902 488.91 291.902C488.917 291.902 488.925 291.903 488.932 291.903C488.936 291.903 488.939 291.903 488.943 291.904C488.945 291.904 488.947 291.904 488.949 291.904C488.95 291.904 488.951 291.904 488.951 291.904C488.953 291.904 488.954 291.904 488.889 292.902C488.825 293.9 488.826 293.9 488.827 293.9C488.828 293.9 488.829 293.9 488.83 293.9C488.832 293.9 488.834 293.901 488.836 293.901C488.84 293.901 488.844 293.901 488.848 293.901C488.856 293.902 488.864 293.902 488.873 293.902C488.889 293.902 488.907 293.902 488.926 293.902C488.963 293.901 489.004 293.898 489.047 293.892C489.134 293.881 489.23 293.859 489.333 293.822C489.542 293.748 489.757 293.62 489.965 293.426C490.371 293.048 490.746 292.424 491.066 291.425L489.161 290.816ZM488.889 292.902C488.825 291.904 488.826 291.904 488.827 291.904C488.828 291.904 488.829 291.904 488.83 291.904C488.832 291.904 488.834 291.904 488.836 291.904C488.84 291.903 488.843 291.903 488.847 291.903C488.854 291.903 488.862 291.902 488.869 291.902C488.883 291.902 488.897 291.902 488.911 291.903C488.939 291.903 488.965 291.905 488.989 291.909C489.039 291.915 489.081 291.926 489.115 291.938C489.185 291.963 489.203 291.987 489.178 291.964C489.118 291.907 488.882 291.64 488.618 290.816L486.713 291.425C487.032 292.424 487.408 293.048 487.814 293.426C488.022 293.62 488.236 293.748 488.445 293.822C488.548 293.859 488.645 293.881 488.732 293.892C488.775 293.898 488.816 293.901 488.853 293.902C488.872 293.902 488.889 293.902 488.906 293.902C488.915 293.902 488.923 293.902 488.931 293.901C488.935 293.901 488.939 293.901 488.943 293.901C488.945 293.901 488.947 293.9 488.949 293.9C488.949 293.9 488.951 293.9 488.951 293.9C488.953 293.9 488.954 293.9 488.889 292.902ZM488.619 290.817C488.214 289.544 487.83 287.817 487.378 285.711C486.931 283.622 486.423 281.193 485.774 278.579C484.475 273.351 482.602 267.334 479.459 261.635C476.313 255.93 471.886 250.528 465.48 246.558C459.072 242.585 450.744 240.083 439.86 240.083V242.083C450.426 242.083 458.378 244.508 464.427 248.258C470.479 252.009 474.688 257.125 477.708 262.601C480.731 268.083 482.554 273.911 483.832 279.061C484.472 281.637 484.973 284.029 485.423 286.13C485.869 288.212 486.273 290.041 486.713 291.424L488.619 290.817ZM439.86 240.083C417.998 240.083 397.007 252.896 377.366 274.827C357.713 296.771 339.291 327.974 322.556 365.074L324.379 365.896C341.072 328.889 359.395 297.891 378.856 276.161C398.328 254.419 418.82 242.083 439.86 242.083V240.083ZM323.468 365.485C322.999 364.602 322.998 364.602 322.997 364.603C322.996 364.603 322.994 364.604 322.992 364.605C322.988 364.608 322.981 364.611 322.973 364.615C322.957 364.624 322.932 364.637 322.9 364.654C322.836 364.689 322.742 364.74 322.617 364.808C322.367 364.943 321.999 365.145 321.518 365.412C320.558 365.946 319.152 366.74 317.363 367.785C313.787 369.874 308.681 372.966 302.556 376.979C290.308 385.004 273.972 396.722 257.633 411.487C224.998 440.978 192.139 482.818 192.139 531.831H194.139C194.139 483.7 226.444 442.367 258.974 412.971C275.216 398.293 291.464 386.638 303.652 378.652C309.745 374.66 314.821 371.586 318.372 369.512C320.148 368.474 321.541 367.687 322.49 367.16C322.964 366.896 323.327 366.698 323.571 366.565C323.693 366.499 323.785 366.449 323.846 366.416C323.877 366.4 323.9 366.388 323.915 366.38C323.923 366.376 323.928 366.373 323.932 366.371C323.934 366.37 323.935 366.369 323.936 366.369C323.937 366.368 323.937 366.368 323.468 365.485ZM192.139 531.831C192.139 629.626 268.261 678.426 336.164 711.828L337.047 710.034C269.143 676.631 194.139 628.322 194.139 531.831H192.139ZM336.606 710.931C335.972 710.157 335.972 710.158 335.971 710.158C335.97 710.159 335.969 710.16 335.968 710.161C335.966 710.162 335.963 710.165 335.959 710.168C335.951 710.175 335.939 710.185 335.923 710.198C335.892 710.224 335.846 710.262 335.786 710.312C335.666 710.413 335.489 710.562 335.258 710.76C334.798 711.155 334.124 711.741 333.268 712.514C331.554 714.058 329.105 716.345 326.157 719.323C320.26 725.278 312.359 734.001 304.332 745.081C288.285 767.231 271.693 798.861 269.677 836.661L271.674 836.768C273.662 799.488 290.035 768.226 305.952 746.254C313.907 735.273 321.738 726.628 327.578 720.73C330.497 717.782 332.918 715.521 334.606 713.999C335.451 713.238 336.112 712.663 336.56 712.278C336.784 712.086 336.956 711.941 337.07 711.846C337.127 711.798 337.17 711.762 337.199 711.738C337.213 711.727 337.223 711.718 337.23 711.712C337.233 711.71 337.236 711.708 337.237 711.706C337.238 711.706 337.239 711.705 337.239 711.705C337.239 711.705 337.239 711.705 336.606 710.931ZM270.675 836.715C269.675 836.736 269.675 836.736 269.675 836.735C269.675 836.735 269.675 836.735 269.675 836.735C269.675 836.734 269.675 836.734 269.675 836.734C269.675 836.734 269.675 836.734 269.675 836.735C269.675 836.736 269.675 836.739 269.675 836.743C269.675 836.752 269.676 836.768 269.675 836.79C269.675 836.833 269.674 836.902 269.67 836.991C269.663 837.171 269.647 837.436 269.608 837.76C269.531 838.412 269.368 839.289 269.029 840.201C268.355 842.013 267.024 843.89 264.298 844.542L264.763 846.487C268.34 845.632 270.081 843.11 270.904 840.898C271.313 839.798 271.504 838.757 271.594 837.995C271.64 837.612 271.66 837.295 271.669 837.07C271.673 836.958 271.675 836.868 271.675 836.804C271.676 836.772 271.675 836.746 271.675 836.728C271.675 836.718 271.675 836.711 271.675 836.705C271.675 836.702 271.675 836.7 271.675 836.698C271.675 836.697 271.675 836.696 271.675 836.695C271.675 836.695 271.675 836.694 271.675 836.694C271.675 836.693 271.675 836.693 270.675 836.715ZM264.299 844.542C263.336 844.771 261.882 845.51 260.153 846.597C258.387 847.707 256.234 849.246 253.842 851.171C249.057 855.021 243.283 860.441 237.709 867.118C226.575 880.455 216.15 898.92 216.15 919.987H218.15C218.15 899.576 228.263 881.554 239.245 868.399C244.728 861.831 250.406 856.503 255.096 852.729C257.441 850.843 259.531 849.351 261.218 848.29C262.942 847.206 264.15 846.633 264.762 846.487L264.299 844.542ZM216.15 919.987C216.15 940.832 219.588 956.633 227.565 969.594C235.54 982.553 247.979 992.557 265.754 1001.95L266.688 1000.18C249.079 990.876 236.983 981.082 229.268 968.546C221.555 956.012 218.15 940.621 218.15 919.987H216.15ZM266.221 1001.06C265.757 1000.18 265.757 1000.18 265.757 1000.18C265.756 1000.18 265.756 1000.18 265.756 1000.18C265.755 1000.18 265.754 1000.18 265.752 1000.18C265.749 1000.18 265.745 1000.18 265.74 1000.19C265.729 1000.19 265.713 1000.2 265.693 1000.21C265.652 1000.23 265.592 1000.26 265.514 1000.31C265.359 1000.39 265.133 1000.51 264.848 1000.67C264.277 1000.99 263.466 1001.44 262.504 1002.02C260.582 1003.16 258.043 1004.76 255.597 1006.59C253.162 1008.42 250.762 1010.51 249.163 1012.63C247.597 1014.71 246.585 1017.13 247.598 1019.41L249.426 1018.6C248.878 1017.36 249.299 1015.78 250.761 1013.83C252.19 1011.93 254.412 1009.98 256.795 1008.2C259.166 1006.42 261.64 1004.86 263.526 1003.74C264.468 1003.18 265.26 1002.73 265.816 1002.42C266.094 1002.27 266.313 1002.15 266.461 1002.07C266.535 1002.03 266.592 1002 266.63 1001.98C266.649 1001.97 266.663 1001.96 266.672 1001.95C266.677 1001.95 266.68 1001.95 266.682 1001.95C266.683 1001.95 266.684 1001.95 266.684 1001.95C266.685 1001.95 266.685 1001.95 266.685 1001.95C266.685 1001.95 266.685 1001.95 266.221 1001.06ZM247.599 1019.41C248.31 1021.01 249.004 1023.47 250.808 1025.82C252.661 1028.24 255.661 1030.57 261.03 1032.38C271.693 1035.97 291.941 1037.59 331.975 1033.62L331.778 1031.63C291.762 1035.6 271.892 1033.92 261.669 1030.48C256.595 1028.77 253.959 1026.65 252.395 1024.61C250.783 1022.51 250.28 1020.52 249.426 1018.6L247.599 1019.41ZM331.877 1032.62C332.182 1033.58 332.182 1033.58 332.181 1033.58C332.181 1033.58 332.18 1033.58 332.18 1033.58C332.18 1033.58 332.179 1033.58 332.178 1033.58C332.177 1033.58 332.176 1033.58 332.176 1033.58C332.174 1033.58 332.173 1033.58 332.173 1033.58C332.172 1033.58 332.173 1033.58 332.177 1033.58C332.185 1033.58 332.201 1033.57 332.224 1033.57C332.27 1033.56 332.342 1033.54 332.43 1033.53C332.615 1033.51 332.816 1033.52 332.987 1033.57C333.136 1033.62 333.274 1033.71 333.389 1033.9C333.517 1034.11 333.661 1034.53 333.641 1035.32L335.64 1035.37C335.666 1034.34 335.488 1033.51 335.106 1032.87C334.711 1032.21 334.153 1031.85 333.599 1031.67C333.068 1031.5 332.561 1031.51 332.213 1031.54C332.034 1031.56 331.884 1031.59 331.775 1031.62C331.72 1031.63 331.675 1031.64 331.64 1031.65C331.623 1031.66 331.609 1031.66 331.597 1031.66C331.591 1031.67 331.586 1031.67 331.582 1031.67C331.58 1031.67 331.578 1031.67 331.576 1031.67C331.575 1031.67 331.574 1031.67 331.574 1031.67C331.573 1031.67 331.573 1031.67 331.572 1031.67C331.572 1031.67 331.571 1031.67 331.877 1032.62ZM333.641 1035.32C333.594 1037.03 333.013 1041.16 334.642 1045.91C336.289 1050.72 340.148 1056.08 348.749 1060.56L349.673 1058.79C341.472 1054.52 337.996 1049.53 336.534 1045.27C335.053 1040.95 335.588 1037.29 335.64 1035.37L333.641 1035.32ZM348.749 1060.56C366.049 1069.57 409.298 1068.48 450.123 1026.93L448.696 1025.53C408.296 1066.64 365.974 1067.28 349.673 1058.79L348.749 1060.56ZM449.409 1026.23C450.1 1026.95 450.1 1026.95 450.101 1026.95C450.101 1026.95 450.102 1026.95 450.102 1026.95C450.103 1026.95 450.104 1026.95 450.105 1026.95C450.107 1026.95 450.109 1026.94 450.112 1026.94C450.118 1026.94 450.127 1026.93 450.137 1026.92C450.157 1026.9 450.185 1026.87 450.22 1026.83C450.291 1026.76 450.39 1026.66 450.511 1026.52C450.752 1026.26 451.084 1025.87 451.455 1025.37C452.196 1024.38 453.106 1022.94 453.772 1021.16C455.12 1017.56 455.441 1012.6 451.496 1007.25L449.887 1008.43C453.369 1013.16 453.048 1017.39 451.899 1020.46C451.316 1022.02 450.513 1023.29 449.853 1024.17C449.524 1024.62 449.233 1024.96 449.028 1025.18C448.925 1025.3 448.844 1025.38 448.79 1025.44C448.764 1025.46 448.744 1025.48 448.732 1025.49C448.726 1025.5 448.721 1025.5 448.719 1025.51C448.718 1025.51 448.717 1025.51 448.717 1025.51C448.717 1025.51 448.717 1025.51 448.718 1025.51C448.718 1025.51 448.718 1025.51 448.718 1025.51C448.718 1025.51 448.719 1025.51 449.409 1026.23ZM451.496 1007.25C444.241 997.403 427.772 960.01 431.126 899.57L429.129 899.459C425.756 960.24 442.289 998.127 449.887 1008.43L451.496 1007.25ZM431.126 899.57C432.801 869.375 439.968 841.914 450.407 822.035C460.883 802.088 474.471 790.084 488.873 790.084V788.084C473.302 788.084 459.2 800.99 448.636 821.105C438.037 841.29 430.817 869.044 429.129 899.459L431.126 899.57ZM488.873 790.084C503.274 790.084 516.863 802.088 527.338 822.035C537.778 841.914 544.944 869.375 546.62 899.57L548.617 899.459C546.929 869.044 539.709 841.29 529.109 821.105C518.546 800.99 504.443 788.084 488.873 788.084V790.084ZM546.62 899.57C549.974 960.01 533.505 997.403 526.249 1007.25L527.859 1008.43C535.456 998.127 551.99 960.24 548.617 899.459L546.62 899.57ZM526.249 1007.25C522.305 1012.6 522.626 1017.56 523.974 1021.16C524.64 1022.94 525.55 1024.38 526.291 1025.37C526.662 1025.87 526.993 1026.26 527.235 1026.52C527.356 1026.66 527.455 1026.76 527.525 1026.83C527.56 1026.87 527.589 1026.9 527.609 1026.92C527.619 1026.93 527.627 1026.94 527.633 1026.94C527.636 1026.94 527.639 1026.95 527.641 1026.95C527.642 1026.95 527.643 1026.95 527.644 1026.95C527.644 1026.95 527.645 1026.95 527.645 1026.95C527.645 1026.95 527.646 1026.95 528.336 1026.23C529.027 1025.51 529.027 1025.51 529.027 1025.51C529.028 1025.51 529.028 1025.51 529.028 1025.51C529.028 1025.51 529.028 1025.51 529.028 1025.51C529.028 1025.51 529.028 1025.51 529.026 1025.51C529.024 1025.5 529.02 1025.5 529.014 1025.49C529.002 1025.48 528.982 1025.46 528.955 1025.44C528.902 1025.38 528.821 1025.3 528.718 1025.18C528.512 1024.96 528.222 1024.62 527.893 1024.17C527.232 1023.29 526.43 1022.02 525.847 1020.46C524.697 1017.39 524.377 1013.16 527.859 1008.43L526.249 1007.25Z" fill="#E0E1E9" mask="url(#path-6-inside-1_2130_24619)"/>
<path d="M411.601 323.12C397.262 309.799 402.225 288.459 419.517 281.022C430.025 276.507 440.281 282.704 444.351 292.428C448.876 303.265 445.128 315.472 435.85 322.874L435.85 322.874C430.144 327.43 419.38 328.922 411.626 323.139L411.601 323.12Z" fill="#E0E1E9" stroke="#E0E1E9"/>
<path d="M429.774 302.953C427.697 301.433 426.509 299.566 426.174 297.652C425.836 295.72 426.355 293.682 427.806 291.819C430.188 288.773 434.439 288.334 437.634 290.855C439.387 292.241 440.495 294.41 440.823 296.647C441.152 298.888 440.689 301.127 439.4 302.672L439.4 302.672C438.426 303.841 437.236 304.449 435.708 304.514C434.153 304.58 432.215 304.083 429.774 302.953Z" fill="#E0E1E9" stroke="#E0E1E9"/>
<path d="M521.776 312.017C518.856 306.486 518.969 300.492 520.086 294.264L520.086 294.264C521.189 288.103 524.019 283.33 529.229 280.011L529.229 280.011C534.409 276.709 539.884 275.985 545.531 278.53C550.708 280.866 555.517 283.618 558.716 288.724C562.503 295.807 564.382 302.809 561.008 310.237L561.008 310.237C557.343 318.308 550.752 322.479 542.136 323.108L542.136 323.108C537.623 323.44 533.604 322.681 530.185 320.845C526.768 319.009 523.921 316.079 521.776 312.017ZM521.776 312.017L521.334 312.251L521.776 312.017Z" fill="#E0E1E9" stroke="#E0E1E9"/>
<path d="M549.005 286.369L549.005 286.369C551.411 286.961 553.078 288.648 553.809 290.903C554.537 293.146 554.34 295.973 552.953 298.829C551.225 300.469 549.643 301.328 548.14 301.523C546.632 301.718 545.118 301.257 543.509 300.083C540.568 297.927 539.513 293.633 541.106 290.067C541.853 288.399 542.927 287.265 544.238 286.649C545.551 286.033 547.155 285.911 549.005 286.369Z" fill="#E0E1E9" stroke="#E0E1E9"/>
<path d="M417.44 381.717L451.15 391.672L418.313 436.658L417.44 381.717Z" fill="#E0E1E9" stroke="#E0E1E9"/>
<path d="M529.401 390.407L563.118 380.452L562.237 435.385L529.401 390.407Z" fill="#E0E1E9" stroke="#E0E1E9"/>
<path d="M561.803 368.157C561.99 368.042 562.18 367.923 562.373 367.802C564.82 366.268 567.722 364.448 570.145 367.25C572.676 370.172 570.945 373.561 568.655 376L561.803 368.157ZM561.803 368.157L562.065 368.583C562.065 368.583 562.065 368.583 562.066 368.583L561.803 368.157ZM442.899 382.427C432.562 381.951 421.946 379.374 416.871 367.851L442.899 382.427ZM442.899 382.427C459.66 383.206 475.907 379.791 490.734 371.314M442.899 382.427L490.734 371.314M490.734 371.314C493.556 369.702 496.213 369.69 499.089 371.049M490.734 371.314L499.089 371.049M499.089 371.049C510.333 376.373 522.147 379.199 534.661 379.006L499.089 371.049ZM543.816 377.549C543.818 377.548 543.82 377.548 543.822 377.547L543.687 377.066L543.81 377.55C543.812 377.55 543.814 377.549 543.816 377.549ZM492.181 381.679L492.181 381.679L539.257 390.062L539.208 389.564C524.98 390.961 511.478 387.84 498.701 381.48C497.549 380.906 496.483 380.641 495.405 380.687C494.331 380.733 493.288 381.086 492.181 381.679ZM442.788 394.566L442.808 394.066C442.807 394.066 442.807 394.066 442.807 394.066L442.788 394.566ZM411.004 379.959C408.173 376.861 405.833 373.688 407.401 369.257C407.758 368.25 408.2 367.461 408.795 366.912C409.378 366.373 410.143 366.034 411.216 365.984L411.217 365.984C411.326 365.979 411.435 365.973 411.543 365.968C412.636 365.911 413.69 365.857 414.617 366.057C415.592 366.267 416.386 366.752 416.871 367.851L411.004 379.959Z" fill="#E0E1E9" stroke="#E0E1E9"/>
<path d="M648.377 1069.62L842.614 466.308L753.654 352.497L856.342 184.469L805.931 344.746L856.342 419.709L842.614 466.308" fill="#E0E1E9"/>
<path d="M648.377 1069.62L842.614 466.308L753.654 352.497L856.342 184.469L805.931 344.746L856.342 419.709L842.614 466.308" stroke="#E0E1E9" stroke-width="30" stroke-miterlimit="10" stroke-linecap="round"/>
<path d="M754.582 352.462L854.953 188.213L805.766 344.596L805.693 344.825L805.828 345.025L856.108 419.794L842.729 465.234L754.582 352.462Z" fill="#E0E1E9" stroke="#E0E1E9"/>
<path d="M648.373 1069.62L839.271 465.244L977.693 423.949L991.238 227.489L939.553 387.358L855.056 419.303L839.271 465.244" fill="#E0E1E9"/>
<path d="M648.373 1069.63L839.271 465.244L977.693 423.949L991.239 227.489L939.553 387.358L855.056 419.303L839.271 465.244" stroke="#E0E1E9" stroke-width="30" stroke-miterlimit="10" stroke-linecap="round"/>
<path d="M939.472 387.642L939.697 387.557L939.771 387.329L990.202 231.343L976.96 423.377L839.802 464.304L855.187 419.505L939.472 387.642Z" fill="#E0E1E9" stroke="#E0E1E9"/>
<path d="M883.519 416.682L839.678 403.503L961.47 94.9608L883.519 416.682Z" fill="#E0E1E9" stroke="#E0E1E9"/>
<path d="M797.387 782.747L797.387 782.752L797.884 782.799C797.387 782.752 797.387 782.752 797.387 782.752L797.386 782.754L797.386 782.762L797.382 782.795C797.379 782.824 797.375 782.869 797.368 782.929C797.355 783.048 797.335 783.225 797.307 783.459C797.249 783.925 797.158 784.613 797.021 785.494C796.748 787.256 796.295 789.791 795.576 792.877C794.139 799.05 791.639 807.417 787.393 816.197C778.902 833.756 763.448 852.931 735.551 859.566C728.611 861.217 722.645 860.852 717.509 858.977C712.371 857.101 708.027 853.699 704.356 849.22C697.001 840.248 692.38 827.003 689.5 813.271C686.622 799.551 685.493 785.407 685.085 774.686C684.881 769.327 684.857 764.827 684.884 761.667C684.898 760.088 684.924 758.843 684.947 757.994C684.958 757.57 684.969 757.244 684.976 757.025C684.98 756.929 684.983 756.853 684.985 756.798C684.991 756.785 684.998 756.771 685.006 756.755C685.052 756.664 685.12 756.528 685.212 756.351C685.395 755.996 685.671 755.474 686.039 754.811C686.777 753.484 687.885 751.591 689.366 749.335C692.328 744.82 696.778 738.855 702.724 733.047C714.618 721.43 732.466 710.476 756.388 712.961C768.323 714.201 776.829 719.165 782.894 725.903C788.969 732.651 792.613 741.203 794.767 749.635C796.92 758.064 797.576 766.345 797.692 772.523C797.75 775.611 797.674 778.171 797.583 779.957C797.537 780.85 797.488 781.549 797.45 782.025C797.432 782.262 797.416 782.444 797.405 782.565C797.399 782.626 797.395 782.672 797.392 782.703L797.388 782.737L797.387 782.745L797.387 782.747C797.387 782.747 797.387 782.747 797.791 782.789L797.387 782.747Z" fill="#E0E1E9" stroke="#E0E1E9"/>
<path d="M751.061 750.313C751.716 750.321 752.255 750.32 752.669 750.316L691.764 836.295L623.438 810.624C623.432 810.584 623.426 810.54 623.418 810.491C623.376 810.212 623.315 809.8 623.237 809.263C623.08 808.189 622.857 806.62 622.59 804.638C622.055 800.674 621.345 795.061 620.643 788.465C619.237 775.269 617.862 758.152 617.98 742.44C618.039 734.584 618.471 727.09 619.456 720.618C620.442 714.136 621.977 708.726 624.214 705.005C626.44 701.303 629.315 699.335 633.022 699.55C636.793 699.768 641.558 702.245 647.515 707.817C671.521 730.274 698.054 740.893 718.581 745.897C728.845 748.4 737.61 749.5 743.812 749.974C746.913 750.211 749.374 750.291 751.061 750.313Z" fill="#E0E1E9" stroke="#E0E1E9"/>
<path d="M419.512 726.116C417.702 725.074 416.245 724.187 415.187 723.524C415.452 723.566 415.739 723.611 416.047 723.658C418.162 723.984 421.273 724.436 425.257 724.937C433.226 725.94 444.688 727.143 458.668 727.945C486.137 729.521 523.339 729.549 562.872 723.463C561.89 724.133 560.51 725.045 558.77 726.125C555.002 728.463 549.55 731.582 542.824 734.702C529.366 740.943 510.831 747.173 490.473 747.173C470.112 747.173 450.789 740.942 436.542 734.698C429.422 731.577 423.576 728.456 419.512 726.116Z" fill="#E0E1E9" stroke="#E0E1E9"/>
<path d="M437.179 415.812C448.731 404.157 462.489 397.341 478.104 394.31C498.9 390.258 519.43 391.246 539.106 399.602C564.283 410.286 578.042 429.761 581.368 456.739C583.675 475.528 579.73 492.793 568.429 508.199C563.999 514.227 558.984 519.737 553.45 524.744C547.565 530.069 541.58 535.294 535.646 540.569C532.001 543.801 528.591 547.25 525.632 551.135C521.335 556.762 519.079 562.958 519.848 570.159C520.232 573.726 520.082 573.809 516.22 573.809C502.461 573.843 488.686 573.843 474.927 573.809C470.648 573.809 470.631 573.759 470.363 569.623C469.243 552.291 474.559 537.086 485.526 523.739C492.347 515.433 500.455 508.45 508.563 501.467C512.993 497.666 517.307 493.731 521.269 489.444C527.788 482.394 531.784 474.406 530.915 464.425C529.878 452.569 522.673 443.175 511.338 439.775C504.551 437.732 497.613 437.565 490.709 439.256C476.95 442.622 468.24 453.323 467.622 467.506C467.321 474.171 468.357 480.736 469.427 487.183C468.558 488.489 467.338 488.104 466.284 488.104C451.874 488.137 437.463 488.087 423.036 488.154C420.712 488.171 419.224 487.97 418.706 485.073C414.058 459.217 418.489 435.807 437.179 415.812Z" fill="white"/>
<path d="M514.279 593.066C528.271 601.523 531.799 618.285 527.368 631.581C523.022 644.643 510.5 652.664 495.989 651.894C490.422 651.593 485.123 650.454 480.241 647.641C469.007 641.21 463.256 627.428 466.082 613.663C470.863 590.269 494.151 584.542 510.049 590.989C511.386 591.542 512.657 592.262 514.279 593.066Z" fill="white"/>
</svg>
