<svg width="1075" height="1075" viewBox="0 0 1075 1075" fill="none" xmlns="http://www.w3.org/2000/svg">
<path d="M166.748 1029.27C166.748 1029.27 213.155 958.192 276.264 1006.69C339.364 1055.18 745.078 989.756 745.078 989.756L827.343 1029.27C827.343 1029.27 857.662 949.692 911.99 1006.25L872.96 846.221L166.748 790.664V1029.27Z" fill="#E0E1E9"/>
<path d="M166.748 718.325C166.748 718.325 197.379 687.453 268.653 712.892C339.919 738.34 297.161 755.634 297.161 755.634L166.748 718.316V718.325Z" fill="#E0E1E9"/>
<path d="M901.4 829.048C901.4 829.048 916.603 782.892 690.881 736.693L695.249 777.009L901.4 829.048Z" fill="#E0E1E9"/>
<path d="M879.826 876.338C879.826 876.338 886.786 1008.21 861.26 1029.27C861.26 1029.27 897.751 992.33 912 1006.24L901.408 829.039L879.835 876.33L879.826 876.338Z" fill="#E0E1E9"/>
<path d="M147.143 778.802C147.143 778.802 135.165 926.072 100 951.182C100 951.182 157.761 958.711 165.302 1021.48C172.843 1084.24 175.348 747.272 175.348 747.272L147.143 778.802Z" fill="#E0E1E9"/>
<path d="M402.552 693.579C402.552 693.579 300.5 737.023 229.858 706.108C159.217 675.193 148.738 751.527 148.738 751.527C148.738 751.527 131.221 802.006 209.533 825.53C287.836 849.054 402.05 833.216 402.05 833.216L402.561 693.588L402.552 693.579Z" fill="#E0E1E9"/>
<path d="M683.548 733.185C683.548 733.185 769.608 803.141 846.039 792.961C922.471 782.78 911.437 859.027 911.437 859.027C911.437 859.027 914.306 912.374 832.544 913.336C750.782 914.298 645.41 867.51 645.41 867.51L683.539 733.185H683.548Z" fill="#E0E1E9"/>
<path d="M166.748 582.985C166.748 582.985 525.588 338.188 901.399 582.985C901.399 582.985 840.786 780.18 663.793 741.649C486.8 703.118 404.362 746.64 404.362 746.64C404.362 746.64 195.845 766.577 166.757 582.985H166.748Z" fill="#E0E1E9"/>
<path d="M730.415 149.962L677.43 174.24L654.148 143.697L620.214 168.356L596.335 145.785L575.611 163.946L555.355 138.949L535.159 166.883L532.342 170.479L529.525 166.883L509.338 138.949L489.073 163.946L467.482 146.487L444.47 168.356L406.185 138.949L387.255 174.24L334.27 155.533V387.091V406.56L381.612 417.494L532.342 314.266L683.072 417.494L730.415 406.56V387.091V149.962Z" fill="#E0E1E9"/>
<path d="M491.245 1064.82C491.245 1064.82 529.374 1033.72 573.423 1064.82L614.577 952.066L572.045 813.747L499.462 808.643L444.457 944.129L491.245 1064.81V1064.82Z" fill="#E0E1E9"/>
<path d="M491.247 1064.82C491.247 1064.82 500.313 1056.16 492.582 1045.68C484.85 1035.19 467.671 996.021 471.173 932.943C474.675 869.866 501.128 818.018 532.331 818.018C563.535 818.018 589.988 869.866 593.49 932.943C596.992 996.021 579.813 1035.19 572.081 1045.68C564.35 1056.16 573.416 1064.82 573.416 1064.82C630.05 1069.24 616.824 1067.5 642.488 1068.97C682.836 1071.26 671.039 1070.34 690.316 1072.01C697.606 1072.64 703.101 1072.73 703.101 1072.73C786.44 1080.98 779.307 1064.63 782.566 1057.31C785.825 1049.99 764.13 1038.64 764.13 1038.64C800.967 1019.18 815.217 997.433 815.217 954.267C815.217 911.1 772.451 878.323 765.89 876.763C759.328 875.203 759.492 867.605 759.492 867.605C755.323 789.468 690.854 736.702 690.854 736.702C761.547 701.949 840.214 651.409 840.214 550.312C840.214 449.215 704.531 377.196 704.531 377.196C669.731 300.073 628.031 247.731 583.358 247.731C538.685 247.731 537.107 288.749 533.588 299.805C532.982 301.702 532.314 301.659 532.314 301.659C532.314 301.659 531.647 301.702 531.04 299.805C527.521 288.749 525.935 247.731 481.271 247.731C436.606 247.731 394.898 300.073 360.097 377.196C360.097 377.196 224.414 449.215 224.414 550.312C224.414 651.409 303.081 701.94 373.775 736.702C373.775 736.702 309.305 789.468 305.136 867.605C305.136 867.605 305.3 875.195 298.739 876.763C292.178 878.323 249.412 911.1 249.412 954.267C249.412 997.433 263.661 1019.19 300.499 1038.64C300.499 1038.64 278.812 1049.99 282.062 1057.31C285.321 1064.63 285.512 1079.75 368.851 1071.49" fill="#E0E1E9"/>
<path d="M457.737 333.545C442.422 319.405 447.717 296.695 466.058 288.81C477.334 283.967 488.282 290.647 492.598 300.958C497.409 312.473 493.413 325.418 483.592 333.251C477.49 338.12 466.024 339.714 457.737 333.537V333.545Z" fill="#E0E1E9"/>
<path d="M476.711 312.586C472.117 309.276 471.303 304.286 474.484 300.205C477.153 296.791 481.912 296.323 485.448 299.113C489.34 302.189 490.285 308.652 487.364 312.153C485.153 314.804 481.868 314.969 476.711 312.577V312.586Z" fill="#E0E1E9"/>
<path d="M611.632 297.042C615.61 304.476 617.656 311.953 614.041 319.907C610.141 328.494 603.103 332.938 593.958 333.606C584.398 334.307 576.814 330.4 572.264 321.787C569.143 315.878 569.282 309.501 570.452 302.977C571.622 296.444 574.639 291.341 580.203 287.797C585.724 284.279 591.61 283.49 597.668 286.22C603.086 288.663 608.217 291.583 611.632 297.042Z" fill="#E0E1E9"/>
<path d="M605.607 308.132C601.871 311.711 598.543 312.101 595.041 309.544C591.765 307.144 590.62 302.405 592.371 298.489C594.009 294.832 597.165 293.351 601.195 294.347C606.578 295.673 608.666 301.929 605.607 308.132Z" fill="#E0E1E9"/>
<path d="M448.768 387.09C448.768 387.09 501.51 380.843 531.691 380.843C561.871 380.843 615.923 387.09 615.923 387.09C615.923 387.09 595.692 467.349 532.349 467.349C469.006 467.349 448.776 387.09 448.776 387.09H448.768Z" fill="#E0E1E9"/>
<path d="M334.27 390.782L358.461 485.718L360.125 374.848L334.27 390.782Z" fill="#E0E1E9"/>
<path d="M730.414 390.782L706.223 485.718L704.559 374.848L730.414 390.782Z" fill="#E0E1E9"/>
<path d="M166.748 582.986C166.748 582.986 506.06 989.219 901.399 582.986C901.399 582.986 834.788 786.982 659.243 741.65C483.862 696.352 399.812 746.64 399.812 746.64C399.812 746.64 195.845 766.577 166.748 582.986Z" fill="#E0E1E9"/>
<path d="M463.988 385.428L478.073 413.908L489.072 383.071L463.988 385.428Z" fill="#E0E1E9"/>
<path d="M599.289 385.428L585.204 413.908L574.205 383.071L599.289 385.428Z" fill="#E0E1E9"/>
<path d="M479.179 418.474C490.731 406.984 504.489 400.265 520.104 397.277C540.9 393.282 561.43 394.256 581.106 402.494C606.283 413.026 620.042 432.225 623.368 458.82C625.675 477.342 621.73 494.362 610.429 509.55C605.999 515.493 600.984 520.924 595.45 525.86C589.565 531.11 583.58 536.26 577.646 541.46C574.001 544.646 570.591 548.047 567.632 551.877C563.335 557.424 561.079 563.532 561.848 570.63C562.232 574.147 562.082 574.229 558.22 574.229C544.461 574.262 530.686 574.262 516.927 574.229C512.648 574.229 512.631 574.18 512.363 570.102C511.243 553.016 516.559 538.027 527.526 524.87C534.347 516.681 542.455 509.798 550.563 502.914C554.993 499.166 559.307 495.287 563.269 491.061C569.788 484.111 573.784 476.236 572.915 466.397C571.878 454.71 564.673 445.448 553.338 442.097C546.551 440.083 539.613 439.918 532.709 441.586C518.95 444.904 510.24 455.452 509.622 469.435C509.321 476.005 510.357 482.476 511.427 488.832C510.558 490.12 509.338 489.74 508.284 489.74C493.874 489.773 479.463 489.724 465.036 489.79C462.712 489.806 461.224 489.608 460.706 486.752C456.058 461.263 460.489 438.185 479.179 418.474Z" fill="white"/>
<path d="M556.279 593.213C570.271 601.549 573.799 618.074 569.368 631.182C565.022 644.058 552.5 651.965 537.989 651.206C532.422 650.909 527.123 649.786 522.241 647.013C511.007 640.674 505.256 627.087 508.082 613.518C512.863 590.456 536.151 584.81 552.049 591.166C553.386 591.71 554.657 592.42 556.279 593.213Z" fill="white"/>
</svg>
