<svg width="1075" height="1075" viewBox="0 0 1075 1075" fill="none" xmlns="http://www.w3.org/2000/svg">
<path d="M800.442 350.504H651.777V408.754H800.442V350.504Z" fill="#E0E1E9"/>
<path d="M903.182 278.856H800.451V346.038H903.182V278.856Z" fill="#E0E1E9"/>
<path d="M903.182 346.038H800.451V413.22H903.182V346.038Z" fill="#E0E1E9"/>
<path d="M903.182 413.22H800.451V480.402H903.182V413.22Z" fill="#E0E1E9"/>
<path d="M290.732 408.754H439.396V350.504H290.732V408.754Z" fill="#E0E1E9"/>
<path d="M187.999 346.038H290.73V278.856H187.999V346.038Z" fill="#E0E1E9"/>
<path d="M187.999 413.22H290.73V346.038H187.999V413.22Z" fill="#E0E1E9"/>
<path d="M187.999 480.394H290.73V413.212H187.999V480.394Z" fill="#E0E1E9"/>
<path d="M506.306 1037.28C506.306 1037.28 542.759 1007.54 584.873 1037.28L624.218 929.456L583.555 797.18L514.162 792.3L461.574 921.867L506.306 1037.27V1037.28Z" fill="#E0E1E9"/>
<path d="M594.393 255.904C551.683 255.904 550.175 295.129 546.81 305.702C546.23 307.516 545.592 307.475 545.592 307.475C545.592 307.475 544.954 307.516 544.374 305.702C541.01 295.129 539.493 255.904 496.792 255.904C470.075 255.904 444.461 275.5 420.885 308.229H670.3C646.724 275.5 621.11 255.904 594.393 255.904Z" fill="#E0E1E9"/>
<path d="M768.895 857.436C762.622 855.944 762.78 848.677 762.78 848.677C758.794 773.955 697.157 723.494 697.157 723.494C764.744 690.259 839.954 641.928 839.954 545.248C839.954 448.568 710.233 379.695 710.233 379.695C700.074 357.174 689.301 336.865 678.014 319.515H413.153C401.866 336.865 391.094 357.174 380.934 379.695C380.934 379.695 251.213 448.568 251.213 545.248C251.213 641.928 326.424 690.251 394.01 723.494C394.01 723.494 332.373 773.955 328.387 848.677C328.387 848.677 328.545 855.936 322.272 857.436C315.999 858.927 275.112 890.273 275.112 931.553C275.112 972.833 288.735 993.639 323.954 1012.24C323.954 1012.24 303.221 1023.1 306.328 1030.1C309.444 1037.1 309.626 1051.55 389.303 1043.65C389.303 1043.65 392.146 1042.74 392.055 1046.36C391.955 1049.98 389.834 1061.87 406.557 1070.57C423.279 1079.28 465.865 1078.42 506.288 1037.29C506.288 1037.29 514.956 1029.01 507.564 1018.99C500.172 1008.96 483.748 971.499 487.096 911.178C490.443 850.856 515.735 801.274 545.567 801.274C575.399 801.274 600.691 850.856 604.039 911.178C607.386 971.499 590.962 1008.96 583.57 1018.99C576.178 1029.01 584.846 1037.29 584.846 1037.29C625.269 1078.42 667.855 1079.28 684.578 1070.57C701.3 1061.87 699.179 1049.98 699.079 1046.36C698.98 1042.75 701.831 1043.65 701.831 1043.65C781.508 1051.55 781.698 1037.1 784.806 1030.1C787.914 1023.1 767.18 1012.24 767.18 1012.24C802.399 993.631 816.022 972.833 816.022 931.553C816.022 890.273 775.135 858.927 768.862 857.436H768.895Z" fill="#E0E1E9"/>
<path d="M670.291 308.221H420.876C418.274 311.833 415.696 315.603 413.152 319.531H678.014C675.462 315.612 672.893 311.833 670.291 308.221Z" fill="#E0E1E9"/>
<path d="M474.781 338.34C474.433 338.1 474.102 337.827 473.795 337.528C459.724 323.981 464.862 302.645 482.223 295.187C493.004 290.556 503.47 296.944 507.597 306.804C512.196 317.816 508.376 330.195 498.987 337.686C493.277 342.243 482.662 343.801 474.781 338.332V338.34Z" fill="#E0E1E9"/>
<path d="M493.642 318.455C492.772 318.106 491.951 317.618 491.263 316.98C487.899 313.856 487.518 309.613 490.277 306.075C492.83 302.811 497.379 302.363 500.76 305.031C504.481 307.973 505.384 314.154 502.592 317.502C500.661 319.813 497.868 320.145 493.642 318.446V318.455Z" fill="#E0E1E9"/>
<path d="M621.166 302.694C621.324 302.926 621.464 303.175 621.597 303.424C625.268 310.409 627.091 317.443 623.702 324.917C619.973 333.129 613.244 337.379 604.502 338.017C595.361 338.688 588.11 334.952 583.76 326.715C580.777 321.064 580.909 314.966 582.028 308.727C583.146 302.479 586.03 297.599 591.35 294.21C596.629 290.846 602.256 290.092 608.048 292.702C613.111 294.98 617.909 297.698 621.166 302.694Z" fill="#E0E1E9"/>
<path d="M616.89 309.663C616.508 312.464 614.776 314.982 612.174 316.076C609.929 317.021 607.766 316.648 605.528 315.007C602.396 312.712 601.302 308.18 602.976 304.434C604.542 300.938 607.559 299.521 611.412 300.474C615.381 301.452 617.486 305.246 616.881 309.655L616.89 309.663Z" fill="#E0E1E9"/>
<path d="M601.966 247.974C552.627 247.974 550.886 293.132 546.992 305.313C546.329 307.401 545.591 307.351 545.591 307.351C545.591 307.351 544.854 307.392 544.191 305.313C540.304 293.141 538.556 247.974 489.216 247.974C462.268 247.974 436.297 265.167 412.017 294.607C407.542 300.034 411.354 308.213 418.381 308.213H672.793C679.829 308.213 683.64 300.026 679.157 294.607C654.877 265.167 628.906 247.974 601.958 247.974H601.966Z" fill="#E0E1E9"/>
<path d="M581.382 387.235C585.898 386.083 589.52 383.689 593.216 381.419C594.881 380.391 596.961 378.85 598.668 380.822C600.326 382.728 599.19 384.948 597.699 386.539C592.511 392.074 585.932 394.991 578.49 395.728C569.126 396.648 560.243 394.593 551.848 390.417C550.423 389.704 549.279 389.796 547.887 390.541C537.769 395.977 526.988 399.117 515.461 398.678C507.365 398.372 500.081 395.505 494.454 389.356C492.606 387.335 490.94 385.123 492.034 382.04C492.515 380.673 493.286 379.753 494.819 379.687C496.36 379.612 498.092 379.438 498.83 381.104C502.07 388.453 508.832 390.119 515.552 390.434C526.441 390.939 536.998 388.719 546.628 383.217C548.567 382.106 550.415 382.098 552.387 383.034C559.696 386.498 567.361 388.321 575.482 388.197C577.421 388.163 579.294 387.848 581.382 387.26V387.235Z" fill="#E0E1E9"/>
<path d="M583.595 1018.53C590.987 1008.5 607.411 971.043 604.063 910.722C600.715 850.401 575.424 800.818 545.592 800.818C515.759 800.818 490.468 850.401 487.12 910.722C483.772 971.043 500.197 1008.5 507.589 1018.53C514.98 1028.56 506.313 1036.83 506.313 1036.83C506.313 1036.83 542.766 1007.1 584.879 1036.83C584.879 1036.83 576.211 1028.56 583.603 1018.53H583.595Z" fill="#E0E1E9"/>
<path d="M470.588 744.871C470.588 744.871 541.722 757.632 621.896 744.871C621.896 744.871 588.525 769.787 547.804 769.787C507.083 769.787 470.588 744.871 470.588 744.871Z" fill="#E0E1E9"/>
<path d="M485.179 418.812C496.731 407.157 510.489 400.341 526.104 397.31C546.9 393.258 567.43 394.246 587.106 402.602C612.283 413.286 626.042 432.761 629.368 459.739C631.675 478.528 627.73 495.793 616.429 511.199C611.999 517.227 606.984 522.737 601.45 527.744C595.565 533.069 589.58 538.294 583.646 543.569C580.001 546.801 576.591 550.25 573.632 554.135C569.335 559.762 567.079 565.958 567.848 573.159C568.232 576.726 568.082 576.809 564.22 576.809C550.461 576.843 536.686 576.843 522.927 576.809C518.648 576.809 518.631 576.759 518.363 572.623C517.243 555.291 522.559 540.086 533.526 526.739C540.347 518.433 548.455 511.45 556.563 504.467C560.993 500.666 565.307 496.731 569.269 492.444C575.788 485.394 579.784 477.406 578.915 467.425C577.878 455.569 570.673 446.175 559.338 442.775C552.551 440.732 545.613 440.565 538.709 442.256C524.95 445.622 516.24 456.323 515.622 470.506C515.321 477.171 516.357 483.736 517.427 490.183C516.558 491.489 515.338 491.104 514.284 491.104C499.874 491.137 485.463 491.087 471.036 491.154C468.712 491.171 467.224 490.97 466.706 488.073C462.058 462.217 466.489 438.807 485.179 418.812Z" fill="white"/>
<path d="M562.279 596.066C576.271 604.522 579.799 621.285 575.368 634.581C571.022 647.643 558.5 655.664 543.989 654.894C538.422 654.592 533.123 653.454 528.241 650.64C517.007 644.21 511.256 630.428 514.082 616.663C518.863 593.269 542.151 587.542 558.049 593.989C559.386 594.542 560.657 595.262 562.279 596.066Z" fill="white"/>
</svg>
