<svg width="1075" height="1076" viewBox="0 0 1075 1076" fill="none" xmlns="http://www.w3.org/2000/svg">
<path d="M700.42 799.385C689.332 820.801 705.698 850.566 735.529 868.831C765.361 887.087 801.5 898.194 812.588 876.778C823.676 855.362 809.881 832.76 778.639 804.94C744.098 774.181 711.508 777.969 700.42 799.385Z" fill="#E0E1E9" stroke="#E0E1E9" stroke-miterlimit="10"/>
<path d="M577.281 1036.61C577.281 1036.61 541.74 1006.25 500.681 1036.61L462.321 926.547L501.965 791.528L569.621 786.546L620.893 918.8L577.281 1036.6V1036.61Z" fill="#E0E1E9"/>
<path d="M577.279 1036.61C577.279 1036.61 568.828 1028.16 576.035 1017.92C583.242 1007.69 599.255 969.453 595.991 907.88C592.727 846.308 568.069 795.697 538.984 795.697C509.898 795.697 485.24 846.308 481.976 907.88C478.712 969.453 494.725 1007.69 501.932 1017.92C509.138 1028.16 500.687 1036.61 500.687 1036.61C461.277 1078.59 419.758 1079.47 403.454 1070.58C387.15 1061.69 389.218 1049.56 389.315 1045.87C389.412 1042.18 386.632 1043.1 386.632 1043.1C308.95 1051.16 308.764 1036.41 305.735 1029.27C302.697 1022.12 322.919 1011.04 322.919 1011.04C288.582 992.043 275.3 970.814 275.3 928.678C275.3 886.541 315.163 854.546 321.279 853.023C327.395 851.501 327.242 844.084 327.242 844.084C331.128 767.812 391.221 716.304 391.221 716.304C325.327 682.38 251.999 633.046 251.999 534.361C251.999 435.676 378.472 365.376 378.472 365.376C410.91 290.093 449.78 239 491.421 239C533.061 239 534.532 279.039 537.812 289.831C538.377 291.683 539 291.641 539 291.641C539 291.641 539.622 291.683 540.187 289.831C543.467 279.039 544.946 239 586.578 239C628.211 239 667.089 290.093 699.527 365.376C699.527 365.376 826 435.676 826 534.361C826 633.046 752.672 682.372 686.778 716.304C686.778 716.304 746.871 767.812 750.757 844.084C750.757 844.084 750.604 851.493 756.72 853.023C762.836 854.546 802.699 886.541 802.699 928.678C802.699 970.814 789.417 992.052 755.08 1011.04C755.08 1011.04 775.294 1022.12 772.264 1029.27C769.227 1036.41 769.049 1051.16 691.367 1043.1" fill="#E0E1E9"/>
<path d="M763.5 806.6C763.5 806.6 733.784 738.777 687.345 693.3C640.913 647.831 663.212 798.48 663.212 798.48L730.132 824.801L763.5 806.6Z" fill="#E0E1E9"/>
<path d="M477.179 418.912C488.731 407.257 502.489 400.441 518.104 397.41C538.9 393.358 559.43 394.346 579.106 402.702C604.283 413.386 618.042 432.861 621.368 459.839C623.675 478.628 619.73 495.893 608.429 511.299C603.999 517.328 598.984 522.837 593.45 527.844C587.565 533.169 581.58 538.394 575.646 543.669C572.001 546.901 568.591 550.35 565.632 554.236C561.335 559.862 559.079 566.058 559.848 573.259C560.232 576.826 560.082 576.909 556.22 576.909C542.461 576.943 528.686 576.943 514.927 576.909C510.648 576.909 510.631 576.859 510.363 572.723C509.243 555.391 514.559 540.186 525.526 526.839C532.347 518.533 540.455 511.55 548.563 504.567C552.993 500.766 557.307 496.831 561.269 492.544C567.788 485.494 571.784 477.506 570.915 467.525C569.878 455.669 562.673 446.275 551.338 442.875C544.551 440.832 537.613 440.665 530.709 442.356C516.95 445.722 508.24 456.423 507.622 470.607C507.321 477.271 508.357 483.836 509.427 490.283C508.558 491.589 507.338 491.204 506.284 491.204C491.874 491.238 477.463 491.187 463.036 491.254C460.712 491.271 459.224 491.07 458.706 488.173C454.058 462.317 458.489 438.907 477.179 418.912Z" fill="white"/>
<path d="M554.279 596.166C568.271 604.622 571.799 621.385 567.368 634.681C563.022 647.743 550.5 655.764 535.989 654.994C530.422 654.693 525.123 653.554 520.241 650.741C509.007 644.31 503.256 630.528 506.082 616.763C510.863 593.369 534.151 587.642 550.049 594.089C551.386 594.642 552.657 595.362 554.279 596.166Z" fill="white"/>
<path d="M294.51 497.479L951.884 1027.1" stroke="#E0E1E9" stroke-width="28" stroke-linecap="round"/>
<path d="M332.036 553.831L234.513 471.182C81.496 691.579 99.868 909.889 128.181 991.495C172.476 765.587 282.54 605.591 332.036 553.831Z" fill="#E0E1E9"/>
<mask id="mask0_2407_25837" style="mask-type:alpha" maskUnits="userSpaceOnUse" x="109" y="469" width="224" height="522">
<path d="M332.036 552.578L234.513 469.929C81.496 690.327 99.868 908.637 128.181 990.242C172.476 764.335 282.54 604.338 332.036 552.578Z" fill="#CECECE"/>
</mask>
<g mask="url(#mask0_2407_25837)">
<path d="M295.236 496.227C151.783 650.505 124.728 889.018 129.133 988.99L119.696 1012.78C110.468 990.869 91.7599 945.036 90.7532 937.021C89.7465 929.007 73.5556 781.324 65.5859 708.484L148.638 460.538C257.276 408.151 438.69 341.949 295.236 496.227Z" fill="#E0E1E9"/>
</g>
<rect width="49.6863" height="167.041" rx="9" transform="matrix(0.63141 -0.775449 0.778444 0.627714 213.443 464.629)" fill="#E0E1E9"/>
</svg>
