<svg width="22" height="22" viewBox="0 0 22 22" fill="none" xmlns="http://www.w3.org/2000/svg">
<path fill-rule="evenodd" clip-rule="evenodd" d="M15.492 12H11.992V15.5C11.992 15.7652 11.8866 16.0196 11.6991 16.2071C11.5116 16.3946 11.2572 16.5 10.992 16.5C10.7268 16.5 10.4724 16.3946 10.2849 16.2071C10.0974 16.0196 9.992 15.7652 9.992 15.5V12H6.492C6.22678 12 5.97243 11.8946 5.78489 11.7071C5.59736 11.5196 5.492 11.2652 5.492 11C5.492 10.7348 5.59736 10.4804 5.78489 10.2929C5.97243 10.1054 6.22678 10 6.492 10H9.992V6.5C9.992 6.23478 10.0974 5.98043 10.2849 5.79289C10.4724 5.60536 10.7268 5.5 10.992 5.5C11.2572 5.5 11.5116 5.60536 11.6991 5.79289C11.8866 5.98043 11.992 6.23478 11.992 6.5V10H15.492C15.7572 10 16.0116 10.1054 16.1991 10.2929C16.3866 10.4804 16.492 10.7348 16.492 11C16.492 11.2652 16.3866 11.5196 16.1991 11.7071C16.0116 11.8946 15.7572 12 15.492 12ZM11 0C4.925 0 0 4.925 0 11C0 17.075 4.925 22 11 22C17.075 22 22 17.075 22 11C22 4.925 17.075 0 11 0Z" fill="current"/>
</svg>
