<svg width="44" height="44" viewBox="0 0 44 44" fill="none" xmlns="http://www.w3.org/2000/svg">
<g id="icon-plus-circle">
<rect id="Rectangle 2672" x="9.16675" y="9.16602" width="25.6667" height="25.6667" fill="white"/>
<path id="Vector" fill-rule="evenodd" clip-rule="evenodd" d="M30.2353 23.834H23.8186V30.2507C23.8186 30.7369 23.6254 31.2032 23.2816 31.547C22.9378 31.8908 22.4715 32.084 21.9853 32.084C21.499 32.084 21.0327 31.8908 20.6889 31.547C20.3451 31.2032 20.1519 30.7369 20.1519 30.2507V23.834H13.7353C13.249 23.834 12.7827 23.6408 12.4389 23.297C12.0951 22.9532 11.9019 22.4869 11.9019 22.0007C11.9019 21.5144 12.0951 21.0481 12.4389 20.7043C12.7827 20.3605 13.249 20.1673 13.7353 20.1673H20.1519V13.7507C20.1519 13.2644 20.3451 12.7981 20.6889 12.4543C21.0327 12.1105 21.499 11.9173 21.9853 11.9173C22.4715 11.9173 22.9378 12.1105 23.2816 12.4543C23.6254 12.7981 23.8186 13.2644 23.8186 13.7507V20.1673H30.2353C30.7215 20.1673 31.1878 20.3605 31.5316 20.7043C31.8754 21.0481 32.0686 21.5144 32.0686 22.0007C32.0686 22.4869 31.8754 22.9532 31.5316 23.297C31.1878 23.6408 30.7215 23.834 30.2353 23.834ZM21.9999 1.83398C10.8624 1.83398 1.83325 10.8632 1.83325 22.0007C1.83325 33.1382 10.8624 42.1673 21.9999 42.1673C33.1374 42.1673 42.1666 33.1382 42.1666 22.0007C42.1666 10.8632 33.1374 1.83398 21.9999 1.83398Z" fill="#313239"/>
</g>
</svg>
