<svg width="24" height="24" viewBox="0 0 24 24" fill="none" xmlns="http://www.w3.org/2000/svg">
<path fill-rule="evenodd" clip-rule="evenodd" d="M5.23047 14.001C4.96776 14.0009 4.70764 13.9491 4.46495 13.8485C4.22226 13.7479 4.00177 13.6005 3.81605 13.4147C3.63033 13.2289 3.48303 13.0083 3.38256 12.7656C3.28208 12.5229 3.2304 12.2627 3.23047 12C3.23053 11.7373 3.28234 11.4772 3.38294 11.2345C3.48353 10.9918 3.63095 10.7713 3.81676 10.5856C4.00257 10.3999 4.22314 10.2526 4.46587 10.1521C4.70861 10.0516 4.96876 9.99993 5.23147 10C5.76203 10.0001 6.27082 10.211 6.64589 10.5863C7.02096 10.9615 7.2316 11.4704 7.23147 12.001C7.23134 12.5316 7.02044 13.0403 6.64518 13.4154C6.26992 13.7905 5.76103 14.0011 5.23047 14.001ZM12.0015 14.001C11.471 14.001 10.9623 13.7903 10.5873 13.4152C10.2122 13.0401 10.0015 12.5314 10.0015 12.001C10.0015 11.4706 10.2122 10.9619 10.5873 10.5868C10.9623 10.2117 11.471 10.001 12.0015 10.001C12.5319 10.001 13.0406 10.2117 13.4157 10.5868C13.7908 10.9619 14.0015 11.4706 14.0015 12.001C14.0015 12.5314 13.7908 13.0401 13.4157 13.4152C13.0406 13.7903 12.5319 14.001 12.0015 14.001ZM18.7715 14.001C18.5088 14.0009 18.2486 13.9491 18.0059 13.8485C17.7633 13.7479 17.5428 13.6005 17.357 13.4147C17.1713 13.2289 17.024 13.0083 16.9236 12.7656C16.8231 12.5229 16.7714 12.2627 16.7715 12C16.7715 11.7373 16.8233 11.4772 16.9239 11.2345C17.0245 10.9918 17.1719 10.7713 17.3578 10.5856C17.5436 10.3999 17.7641 10.2526 18.0069 10.1521C18.2496 10.0516 18.5098 9.99993 18.7725 10C19.303 10.0001 19.8118 10.211 20.1869 10.5863C20.562 10.9615 20.7726 11.4704 20.7725 12.001C20.7723 12.5316 20.5614 13.0403 20.1862 13.4154C19.8109 13.7905 19.302 14.0011 18.7715 14.001Z" fill="#727384"/>
</svg>
