<svg width="44" height="44" fill="none" xmlns="http://www.w3.org/2000/svg"><path fill="#fff" d="M9.167 34.833V9.166h25.667v25.667z"/><path d="M22 42.167A20.109 20.109 0 0 0 42.167 22 20.109 20.109 0 0 0 22 1.834 20.109 20.109 0 0 0 1.833 22 20.109 20.109 0 0 0 22 42.167Zm0-10.083c-1.1 0-1.833-.734-1.833-1.834v-12.1l-4.217 4.217c-.733.733-1.833.733-2.567 0-.733-.733-.733-1.833 0-2.567l7.334-7.333c.733-.733 1.833-.733 2.566 0l7.334 7.333c.366.367.55.734.55 1.284s-.184.916-.55 1.283c-.734.733-1.834.733-2.567 0l-4.217-4.217v12.1c0 .917-.733 1.834-1.833 1.834Z" fill="#313239"/></svg>