<svg width="126" height="186" fill="none" xmlns="http://www.w3.org/2000/svg"><path fill="#EDEFF4" d="M0 0h126v186H0z"/><mask id="a" style="mask-type:alpha" maskUnits="userSpaceOnUse" x="0" y="0" width="126" height="186"><path fill="#EDEFF4" d="M0 0h126v186H0z"/></mask><g mask="url(#a)"><path d="M61.725 73.754c7.018 2.397 10.76-5.281 10.76-5.281 2.564.689 8.17.663 10.088-4.951" stroke="#B3B6C5" stroke-width="3" stroke-linecap="round"/><g stroke="#B3B6C5" stroke-width="6" stroke-miterlimit="10"><path d="M157.693 127.68C148.643 113.368 132 106.499 132 106.499c8.586-8.726 19.195-35.21 8.5-57-12.761-26-44.602-17.98-44.602-17.98C75.445 16.22 69.401 11.27 60 14.5c-8.304 2.85-5.84 17.577-5.5 19.5-1.672-1.747-12.014-10.596-19-6-8.305 5.46-7.315 11.757-7.721 37.293 0 0-19.913 27.877-9.218 49.668 10.695 21.79 35.614 25.35 47.77 23.896 0 0-15.831 16.143-6.33 34.643 0 0-30.001 23.5 6.33 37.429 0 0 7.465 11.85 33.679-3.035 0 0 3.628 5.782 8.845 3.035 5.218-2.745 10.276-3.049 14.626-19.61l6.895-3.614 6.669-3.382c15.765 6.688 19.096 2.872 24.46.426 5.363-2.449 3.01-8.854 3.01-8.854 27.811-11.631 11.259-15.025 11.259-15.025 12.796-28.696-18.081-33.189-18.081-33.189Z" stroke-linejoin="round"/><path d="M137.871 184.66s6.625-12.653-2.993-32.393c-11.358-23.307-25.275-17.563-25.275-17.563s-12.418 4.709-7.222 28.714c4.36 20.151 19.295 27.726 19.295 27.726l16.198-6.485-.003.001Z"/></g><ellipse cx="49.5" cy="56.79" rx="7.636" ry="8.273" transform="rotate(-26.142 49.5 56.79)" fill="#B3B6C5"/><circle cx="50.944" cy="53.956" r="2.545" transform="rotate(-26.142 50.944 53.956)" fill="#EDEFF4"/><ellipse cx="75.5" cy="42.79" rx="7.636" ry="8.273" transform="rotate(-26.142 75.5 42.79)" fill="#B3B6C5"/><circle cx="76.944" cy="39.956" r="2.545" transform="rotate(-26.142 76.944 39.956)" fill="#EDEFF4"/></g></svg>