<svg width="390" height="200" viewbox='0 0 390 200' fill="none" xmlns="http://www.w3.org/2000/svg"><mask id="a" style="mask-type:luminance" maskUnits="userSpaceOnUse" x="0" y="0" width="390" height="200"><path d="M390 0H0v200h390V0z" fill="#fff"/></mask><g mask="url(#a)"><path d="M194.604 200.42c200.319 0 362.71-162.39 362.71-362.71 0-200.319-162.391-362.71-362.71-362.71-200.32 0-362.71 162.391-362.71 362.71 0 200.32 162.39 362.71 362.71 362.71z" fill="#313239"/><mask id="b" style="mask-type:luminance" maskUnits="userSpaceOnUse" x="-169" y="-525" width="727" height="726"><path d="M556.815-162.288c0 200.043-162.167 362.21-362.211 362.21-200.043 0-362.21-162.167-362.21-362.21 0-200.043 162.167-362.21 362.21-362.21 200.044 0 362.211 162.167 362.211 362.21z" fill="#fff" stroke="#fff"/></mask><g mask="url(#b)" stroke="#727384" stroke-width=".5" stroke-miterlimit="10"><path d="M194.605-162.289v557.51M194.605-162.289l9.765 557.435M194.605-162.289l19.491 557.172M194.605-162.289l29.181 556.759M194.605-162.289l38.908 556.158M194.605-162.289l48.597 555.407M194.605-162.289l58.286 554.468M194.605-162.289l67.976 553.341M194.605-162.289l77.59 552.102M194.605-162.289l87.241 550.638M194.605-162.289l96.818 549.06M194.605-162.289 301 384.968M194.605-162.289l115.934 545.342M194.605-162.289 320.04 380.95M194.605-162.289l134.899 540.948M194.605-162.289l144.326 538.507M194.605-162.289l153.677 535.916M194.605-162.289l163.028 533.137M194.605-162.289l172.304 530.245M194.605-162.289l181.506 527.128M194.605-162.289l190.707 523.898M194.605-162.289 394.4 358.191M194.605-162.289l208.846 516.913M194.605-162.289l217.859 513.195M194.605-162.289l226.76 509.327M194.605-162.289l235.623 505.271M194.605-162.289l244.411 501.102M194.605-162.289l253.124 496.745M194.605-162.289 456.367 329.95M194.605-162.289l270.287 487.62M194.605-162.289l278.774 482.812M194.605-162.289l287.149 477.893M194.605-162.289l295.449 472.785M194.605-162.289l303.673 467.565M194.605-162.289 506.39 299.905M194.605-162.289 514.39 294.385M194.605-162.289l327.709 451.041M194.605-162.289l335.52 445.257M194.605-162.289l343.257 439.323M194.605-162.289l350.881 433.277M194.605-162.289l358.392 427.08M194.605-162.289l365.79 420.771M194.605-162.289l373.076 414.311M194.605-162.289 574.854 245.45M194.605-162.289l387.309 401.054M194.605-162.289 588.824 231.93M194.605-162.289 595.66 224.982M194.605-162.289l407.739 380.211M194.605-162.289l414.312 373.038M194.605-162.289l420.771 365.752M194.605-162.289l427.08 358.354M194.605-162.289l433.277 350.843M194.605-162.289l439.324 343.256M194.605-162.289l445.257 335.52M194.605-162.289 645.646 165.42M194.605-162.289l456.712 319.784M194.604-162.289-283.251 124.86M194.602-162.289l-472.785 295.448M194.605-162.289-272.96 141.346M194.604-162.289l-462.195 311.747M194.603-162.289l-456.674 319.784M194.605-162.289-256.398 165.42M194.605-162.289l-445.219 335.52M194.604-162.289-244.72 180.967M194.604-162.289l-433.239 350.843M194.605-162.289l-427.042 358.354M194.604-162.289l-420.733 365.752M194.602-162.289l-414.274 373.038M194.603-162.289l-407.702 380.211M194.604-162.289l-401.017 387.271M194.604-162.289-199.577 231.93M194.604-162.289l-387.271 401.054M194.604-162.289-185.607 245.45M194.605-162.289l-373.038 414.311M194.602-162.289-171.15 258.482M194.605-162.289l-358.353 427.08M194.606-162.289l-350.843 433.277M194.602-162.289l-343.219 439.323M194.605-162.289l-335.483 445.257M194.605-162.289l-327.671 451.041M194.602-162.289l-319.747 456.674M194.606-162.289l-311.747 462.194M194.603-162.289l-303.635 467.565M194.604-162.289l-295.411 472.785M194.605-162.289-92.506 315.604M194.602-162.289-84.134 320.523M194.602-162.289l-270.286 487.62M194.603-162.289-67.121 329.95M194.602-162.289-58.484 334.456M194.604-162.289-49.769 338.813M194.603-162.289-40.982 342.982M194.605-162.289l-226.76 509.327M194.604-162.289-23.217 350.906M194.603-162.289-14.242 354.624M194.603-162.289-5.154 358.191M194.603-162.289 3.934 361.609M194.605-162.289 13.1 364.839M194.604-162.289 22.338 367.956M194.603-162.289 31.613 370.848M194.604-162.289 40.965 373.627M194.605-162.289 50.317 376.218M194.604-162.289 59.742 378.659M194.602-162.289 69.205 380.95M194.604-162.289 78.708 383.053M194.603-162.289 88.246 384.968M194.603-162.289l-96.78 549.06M194.602-162.289l-87.203 550.638M194.604-162.289l-77.589 552.102M194.605-162.289l-67.938 553.341M194.606-162.289l-58.248 554.468M194.603-162.289l-48.559 555.407M194.603-162.289l-38.87 556.158M194.605-162.289 165.462 394.47M194.602-162.289l-19.453 557.172M194.605-162.289l-9.727 557.435"/></g><path d="M194.5 173C379.792 173 530 22.791 530-162.5 530-347.792 379.792-498 194.5-498S-141-347.792-141-162.5C-141 22.791 9.208 173 194.5 173z" fill="url(#c)"/></g><defs><radialGradient id="c" cx="0" cy="0" r="1" gradientUnits="userSpaceOnUse" gradientTransform="rotate(-90 242.5 48) scale(275.5)"><stop stop-color="#727384"/><stop offset="1" stop-color="#0E0E0E"/></radialGradient></defs></svg>