<svg xmlns="http://www.w3.org/2000/svg" width="190" height="70" fill="none"><mask id="a" width="124" height="56" x="33" y="0" maskUnits="userSpaceOnUse" style="mask-type:alpha"><path fill="#D9D9D9" d="M33 0h124v56H33z"/></mask><g mask="url(#a)"><path fill="#FF6464" d="M33.309 49.384c.003-.36.022-.72.046-1.077.881-5.85 3.967-10.933 8.558-15.461 4.932-4.869 11.057-8.532 18.008-11.341.445-.179.764-.414.989-.768 1.033-1.615 2.061-3.235 3.131-4.837 2.098-3.15 4.059-6.367 6.871-9.172 2.36-2.355 4.981-4.47 8.404-5.824 2.834-1.121 5.763-1.55 8.772-.416 2.531.958 4.074 2.653 5.149 4.654 1.173 2.18 1.644 4.481 1.787 6.835.009.161-.094.419.228.438.338.02.24-.243.262-.404.034-.22.03-.441.059-.657.325-2.774 1.03-5.468 2.989-7.83 2.044-2.472 4.864-3.789 8.657-3.448 2.284.205 4.304.984 6.159 2.038 4.207 2.39 7.23 5.599 9.706 9.167 2.257 3.253 4.244 6.622 6.347 9.937.219.345.459.63.922.821a59.115 59.115 0 0 1 7.563 3.758c6.455 3.8 11.767 8.4 15.274 14.235 1.727 2.88 2.851 5.835 3.315 8.866.033.496.055.992.051 1.492-.171 19.192-27.897 34.528-61.93 34.251-34.033-.276-61.483-16.06-61.312-35.253l-.005-.004Z"/><path fill="#0E0E0E" d="M95.391 36.143c1.805-.92 3.686-1.487 5.693-1.501 1.716-.015 3.265.495 4.386 1.825.285.34.448.731.088 1.121-.33.358-.783.336-1.048-.084-.746-1.194-1.992-1.47-3.279-1.521-1.714-.067-3.425.276-4.907 1.028-1.112.564-1.986.472-3.076.117-1.545-.501-3.158-.629-4.759-.088-.636.214-1.164.595-1.724.93-.345.207-.764.489-1.072.151-.334-.361.027-.755.318-1.034 1.246-1.196 2.798-1.693 4.546-1.662a9.772 9.772 0 0 1 3.751.833c.39.172.725.198 1.083-.115Z"/><path fill="#fff" d="M82.214 36.392c0 2.121-1.799 3.842-4.018 3.842-2.218 0-4.017-1.72-4.017-3.843 0-2.122 4.017-8.165 4.017-8.165s4.018 6.043 4.018 8.166Z"/><path fill="#0E0E0E" d="M84.688 9.73c3.725 2.083 4.84 5.884 2.894 9.403-1.267 2.283-3.706 3.608-6.158 3.34-2.302-.26-4.172-2.074-4.875-4.649-1.363-5.035 4.13-9.839 8.139-8.095ZM106.368 9.668c4.159.394 6.731 3.296 6.482 7.127-.165 2.487-1.766 4.585-4.042 5.292-2.142.657-4.55-.214-6.246-2.2-3.306-3.888-.462-10.207 3.806-10.22Z"/><path fill="#fff" d="M83.23 15.53c-.537-1.093-.37-1.954.546-2.623.606-.432 1.279-.454 1.946-.098.84.448 1.236 1.141 1.231 2.038-.004.63-.243 1.18-.885 1.442-1.052.424-1.94.015-2.823-.759h-.015ZM107.317 15.671c-1.05-.852-1.292-1.78-.697-2.84.397-.692 1.055-1.005 1.885-.94 1.048.082 1.768.599 2.187 1.492.294.628.316 1.277-.197 1.814-.845.877-1.92.855-3.163.469l-.015.005Z"/></g><path fill="#FF6464" d="M151.366 55.643c-.068 7.69 3.542 13.959 8.058 13.995 1.895.016 3.649-1.065 5.049-2.894.25-.322.772-.318 1.012.008 1.372 1.852 3.107 2.96 4.996 2.976 1.889.015 3.649-1.065 5.049-2.894.25-.322.772-.318 1.012.008 1.372 1.852 3.106 2.96 4.996 2.975 4.522.037 8.238-6.171 8.306-13.862.005-.56-.017-1.11-.05-1.65h-.01c-.159-8.802-8.601-15.948-19.066-16.033-10.464-.085-19.282 7.118-19.362 16.095-.002.181.008.353.012.53-.013.25-.021.495-.023.75l.021-.004ZM.146 55.643c-.07 7.69 3.541 13.959 8.058 13.995 1.894.016 3.648-1.065 5.048-2.894.25-.322.773-.318 1.012.008 1.373 1.852 3.107 2.96 4.996 2.976 1.89.015 3.649-1.065 5.049-2.894.25-.322.772-.318 1.012.008 1.372 1.852 3.107 2.96 4.996 2.975 4.522.037 8.238-6.171 8.306-13.862.006-.56-.017-1.11-.05-1.65h-.01c-.159-8.802-8.6-15.948-19.065-16.033C9.033 38.187.215 45.39.135 54.367c-.001.181.008.353.012.53-.013.25-.02.495-.023.75l.022-.004Z"/></svg>