<svg width="190" height="70" fill="none" xmlns="http://www.w3.org/2000/svg"><mask id="a" style="mask-type:alpha" maskUnits="userSpaceOnUse" x="33" y="0" width="124" height="56"><path fill="#D9D9D9" d="M33 0h124v56H33z"/></mask><g mask="url(#a)"><path d="M33.309 49.384c.003-.36.022-.72.046-1.077.881-5.85 3.967-10.933 8.558-15.461 4.932-4.869 11.057-8.532 18.008-11.341.445-.18.764-.414.989-.768 1.033-1.615 2.061-3.235 3.131-4.837 2.098-3.15 4.059-6.367 6.871-9.172 2.36-2.355 4.981-4.47 8.404-5.824 2.834-1.121 5.763-1.55 8.772-.416 2.531.958 4.074 2.653 5.149 4.654 1.173 2.18 1.644 4.481 1.787 6.835.009.161-.094.419.228.438.338.02.24-.244.262-.404.034-.22.03-.441.059-.657.325-2.774 1.03-5.468 2.989-7.83 2.044-2.472 4.864-3.789 8.657-3.448 2.284.205 4.304.984 6.159 2.038 4.207 2.39 7.23 5.599 9.706 9.167 2.257 3.252 4.244 6.622 6.347 9.937.219.345.459.63.922.821a59.116 59.116 0 0 1 7.563 3.758c6.455 3.8 11.767 8.4 15.274 14.235 1.727 2.88 2.851 5.835 3.315 8.866.033.496.055.992.051 1.492-.171 19.192-27.897 34.528-61.93 34.251-34.033-.276-61.483-16.06-61.312-35.253l-.005-.004Z" fill="#00CE4C"/><path d="M84.688 8.73c3.725 2.083 4.84 5.884 2.894 9.403-1.267 2.283-3.706 3.608-6.158 3.34-2.302-.26-4.172-2.074-4.875-4.648-1.363-5.036 4.13-9.84 8.139-8.096ZM106.368 8.668c4.159.394 6.731 3.296 6.482 7.127-.165 2.487-1.766 4.585-4.042 5.292-2.142.657-4.55-.214-6.246-2.2C99.256 15 102.1 8.68 106.368 8.667Z" fill="#0E0E0E"/><path d="M83.23 14.53c-.537-1.093-.37-1.954.546-2.623.606-.432 1.279-.454 1.946-.098.84.448 1.236 1.141 1.231 2.038-.004.63-.243 1.18-.885 1.442-1.052.424-1.94.015-2.823-.758l-.015-.001ZM107.317 14.671c-1.05-.852-1.292-1.78-.697-2.84.397-.692 1.055-1.005 1.885-.94 1.048.082 1.768.599 2.187 1.492.294.628.316 1.277-.197 1.815-.845.876-1.92.854-3.163.468l-.015.005Z" fill="#fff"/><path d="M96.11 37.054c-1.73 1.056-3.561 1.764-5.561 1.932-1.71.146-3.293-.245-4.513-1.485-.31-.318-.503-.695-.173-1.112.302-.382.755-.395 1.051.005.835 1.133 2.098 1.313 3.386 1.266 1.714-.065 3.394-.537 4.814-1.4 1.065-.647 1.944-.622 3.058-.351 1.579.382 3.197.386 4.751-.275.619-.262 1.116-.682 1.649-1.06.328-.232.724-.545 1.057-.232.361.335.031.756-.238 1.056-1.151 1.287-2.661 1.901-4.406 2.004a9.772 9.772 0 0 1-3.804-.545c-.402-.142-.737-.142-1.07.197Z" fill="#0E0E0E"/></g><path d="M151.366 55.643c-.068 7.69 3.542 13.959 8.058 13.995 1.895.016 3.649-1.065 5.049-2.894.25-.322.772-.318 1.012.008 1.372 1.852 3.107 2.96 4.996 2.976 1.889.015 3.649-1.065 5.049-2.894.25-.322.772-.318 1.012.008 1.372 1.852 3.106 2.96 4.996 2.975 4.522.037 8.238-6.171 8.306-13.862.005-.56-.017-1.11-.05-1.65h-.01c-.159-8.802-8.601-15.948-19.066-16.033-10.464-.085-19.282 7.118-19.362 16.095-.002.181.008.353.012.53-.013.25-.021.495-.023.75l.021-.004ZM.146 55.643c-.07 7.69 3.541 13.959 8.058 13.995 1.894.016 3.648-1.065 5.048-2.894.25-.322.773-.318 1.012.008 1.373 1.852 3.107 2.96 4.996 2.976 1.89.015 3.649-1.065 5.049-2.894.25-.322.772-.318 1.012.008 1.372 1.852 3.107 2.96 4.996 2.975 4.522.037 8.238-6.171 8.306-13.862.006-.56-.017-1.11-.05-1.65h-.01c-.159-8.802-8.6-15.948-19.065-16.033C9.033 38.187.215 45.39.135 54.367c-.001.181.008.353.012.53-.013.25-.02.495-.023.75l.022-.004Z" fill="#00CE4C"/></svg>