<svg width="187" height="71" fill="none" xmlns="http://www.w3.org/2000/svg"><path d="M26.31 52.025c.003-.375.022-.75.047-1.12.881-6.091 3.97-11.383 8.565-16.096 4.936-5.069 11.066-8.882 18.024-11.807.445-.186.764-.43.99-.799 1.034-1.681 2.063-3.367 3.133-5.035 2.1-3.278 4.062-6.629 6.877-9.548 2.362-2.452 4.986-4.654 8.411-6.063 2.837-1.168 5.768-1.615 8.78-.433 2.534.996 4.077 2.761 5.153 4.844 1.175 2.27 1.646 4.665 1.789 7.116.009.168-.094.436.228.456.338.02.24-.254.263-.421.034-.23.03-.459.059-.684.325-2.887 1.03-5.692 2.991-8.151C93.666 1.71 96.49.34 100.285.694c2.286.214 4.308 1.025 6.164 2.122 4.211 2.49 7.236 5.829 9.715 9.543 2.259 3.386 4.247 6.894 6.352 10.345.219.359.46.657.923.855a58.362 58.362 0 0 1 7.57 3.912c6.46 3.955 11.777 8.744 15.287 14.82 1.728 2.997 2.854 6.073 3.318 9.228.05 5.48 0 9.408 0 5.48H28.001l-1.691-4.974Z" fill="#00CE4C"/><path d="M77.945 12.997c4.62 2.687 6.003 7.59 3.589 12.129-1.571 2.945-4.596 4.653-7.636 4.308-2.855-.336-5.174-2.675-6.045-5.996-1.69-6.494 5.121-12.69 10.092-10.44ZM99.607 12.222c5.323.525 8.615 4.388 8.295 9.487-.211 3.311-2.259 6.103-5.172 7.044-2.741.875-5.823-.284-7.994-2.928-4.23-5.175-.59-13.587 4.87-13.603Z" fill="#0E0E0E"/><path d="M76.137 20.48c-.666-1.41-.46-2.52.678-3.383.751-.558 1.585-.587 2.412-.128 1.043.58 1.533 1.473 1.527 2.63-.005.813-.302 1.521-1.097 1.86-1.306.546-2.407.019-3.501-.979h-.019ZM100.822 20.212c-1.343-1.135-1.653-2.369-.892-3.781.508-.92 1.35-1.338 2.413-1.251 1.34.109 2.262.797 2.799 1.986.376.836.404 1.7-.252 2.415-1.082 1.167-2.458 1.138-4.048.624l-.02.007Z" fill="#fff"/><path d="M89.17 39.192c-1.725 1.1-3.554 1.836-5.555 2.01-1.71.152-3.299-.254-4.528-1.545-.313-.33-.509-.724-.182-1.157.3-.397.753-.41 1.053.005.844 1.179 2.11 1.366 3.398 1.317 1.716-.067 3.395-.558 4.81-1.456 1.062-.674 1.943-.648 3.059-.366 1.583.397 3.203.402 4.755-.286.617-.272 1.112-.71 1.643-1.103.326-.241.721-.567 1.057-.241.363.348.036.786-.231 1.098-1.144 1.34-2.65 1.979-4.397 2.086a9.47 9.47 0 0 1-3.812-.567c-.404-.147-.74-.147-1.07.205Z" fill="#0C200F"/><path d="M122.504 10a1 1 0 0 1 .92-.997l36.191-2.914a1 1 0 0 1 1.08.997V56a1 1 0 0 1-1 1h-36.191a1 1 0 0 1-1-1V10Z" fill="#FB7A35"/><path fill-rule="evenodd" clip-rule="evenodd" d="m158.448 7.12-35.944 3.072V57h35.944V10.192h8.987l-8.987-3.073Z" fill="#E0E1E9"/><path d="M122.504 9.913h2.527V57h-2.527V9.913Z" fill="#FB7A35"/><path d="M124.509 10.002a1 1 0 0 0-1 1V56a1 1 0 0 0 1 1h44.241a1 1 0 0 0 1-1V11.002a1 1 0 0 0-1-1h-44.241Z" fill="#FB7A35"/><rect x="127.53" y="27.002" width="12" height="38.199" rx="1" transform="rotate(-90 127.53 27.002)" fill="#fff"/><path d="M167.424 35.023c-8.151 0-14.763 3.685-14.763 8.224 0 1.904 1.16 3.657 3.111 5.047a.631.631 0 0 1 0 1.017c-1.951 1.396-3.111 3.149-3.111 5.048 0 2.641-.5 2.637.839 2.637s3 .004 5 .004H176c.593 0 11.827-.01 3 0l3-.005c4.5.005 4 .277 4-2.636 0-10.517-7.709-19.357-17.223-19.357-.193 0-.375.01-.562.016-.265-.01-.525-.016-.796-.016l.005.021ZM.146 55.481c-.069 8.108 3.56 14.717 8.098 14.755 1.905.016 3.667-1.123 5.074-3.051a.633.633 0 0 1 1.017.008c1.38 1.953 3.122 3.122 5.021 3.138 1.899.016 3.667-1.123 5.074-3.052a.633.633 0 0 1 1.017.009c1.38 1.952 3.122 3.121 5.021 3.137 4.544.039 8.279-6.507 8.348-14.615a26.1 26.1 0 0 0-.05-1.74h-.011c-.16-9.28-8.644-16.814-19.16-16.903C9.078 37.077.217 44.67.136 54.135c-.002.192.008.373.012.56-.014.263-.021.522-.023.791l.021-.005Z" fill="#00CE4C"/></svg>