<svg width="191" height="71" fill="none" xmlns="http://www.w3.org/2000/svg"><path d="M34.073 55.5c.004-.376-.024-4.225 0-4.596.877-6.09 3.95-11.382 8.521-16.096 4.91-5.068 11.009-8.882 17.93-11.806.443-.186.76-.43.984-.8 1.03-1.68 2.053-3.366 3.118-5.034 2.088-3.279 4.04-6.63 6.841-9.549 2.35-2.451 4.96-4.653 8.367-6.062 2.822-1.168 5.738-1.615 8.735-.434 2.52.997 4.055 2.762 5.125 4.845 1.17 2.27 1.638 4.665 1.78 7.115.009.168-.093.436.227.457.336.02.239-.254.261-.422.034-.229.03-.458.059-.683.324-2.888 1.026-5.693 2.976-8.152 2.035-2.573 4.843-3.943 8.619-3.59 2.274.214 4.286 1.026 6.132 2.123 4.189 2.489 7.199 5.828 9.664 9.543 2.247 3.386 4.225 6.893 6.32 10.344.217.36.457.657.918.855a57.921 57.921 0 0 1 7.53 3.912c6.427 3.956 11.716 8.745 15.207 14.82 1.72 2.998 2.839 6.074 3.301 9.229.033.516-1.503 6.96-1.507 7.481h-119.5l-1.608-3.5Z" fill="#00CE4C"/><path d="M152.174 54.9c-.069 8.11 3.559 14.718 8.098 14.756 1.904.016 3.667-1.123 5.073-3.051a.633.633 0 0 1 1.017.008c1.38 1.953 3.123 3.121 5.022 3.138 1.898.016 3.666-1.123 5.073-3.052a.633.633 0 0 1 1.017.009c1.379 1.952 3.122 3.121 5.021 3.137 4.545.039 8.279-6.507 8.348-14.615.005-.59-.017-1.17-.05-1.74h-.011c-.159-9.28-8.643-16.814-19.16-16.904-10.517-.089-19.378 7.505-19.459 16.97-.001.19.008.372.012.558-.013.264-.021.523-.023.792l.022-.005ZM.146 55.146c-.069 8.109 3.56 14.717 8.098 14.755 1.905.017 3.667-1.123 5.074-3.051a.633.633 0 0 1 1.017.009c1.38 1.952 3.122 3.12 5.021 3.137 1.899.016 3.667-1.123 5.074-3.052a.633.633 0 0 1 1.017.009c1.38 1.952 3.122 3.121 5.021 3.137 4.544.039 8.279-6.507 8.348-14.615.005-.59-.017-1.17-.05-1.74h-.011c-.16-9.28-8.644-16.814-19.16-16.903C9.078 36.742.217 44.336.136 53.8c-.002.192.008.373.012.56-.014.263-.021.522-.023.791l.021-.005Z" fill="#00CE4C"/><path d="M84.764 6.995c4.615 2.687 5.998 7.59 3.585 12.129-1.57 2.945-4.592 4.653-7.629 4.308-2.852-.336-5.17-2.675-6.04-5.996-1.688-6.494 5.117-12.69 10.084-10.44ZM106.407 6.22c5.318.525 8.607 4.388 8.288 9.487-.211 3.311-2.258 6.103-5.168 7.044-2.738.875-5.818-.284-7.986-2.928-4.227-5.175-.591-13.587 4.866-13.603Z" fill="#0E0E0E"/><path d="M82.958 14.477c-.666-1.409-.46-2.52.677-3.382.75-.558 1.584-.587 2.41-.128 1.042.58 1.531 1.473 1.526 2.63-.006.813-.302 1.521-1.096 1.86-1.305.546-2.405.019-3.499-.979h-.018ZM107.621 14.21c-1.342-1.135-1.651-2.369-.891-3.781.508-.92 1.348-1.337 2.411-1.251 1.339.109 2.259.798 2.796 1.986.375.836.404 1.7-.252 2.415-1.081 1.167-2.456 1.138-4.044.624l-.02.007Z" fill="#fff"/><path d="M95.925 33.23c-1.835.9-3.733 1.43-5.74 1.382-1.715-.039-3.246-.618-4.323-2.037-.274-.363-.424-.776-.052-1.17.342-.362.794-.325 1.045.121.707 1.265 1.943 1.592 3.228 1.686 1.71.123 3.432-.18 4.938-.915 1.13-.552 2-.428 3.078-.025 1.528.57 3.136.754 4.754.242.643-.202 1.183-.582 1.754-.914.351-.204.779-.484 1.076-.123.322.386-.051.785-.352 1.066-1.285 1.205-2.852 1.673-4.599 1.586a9.452 9.452 0 0 1-3.721-.985c-.385-.191-.718-.229-1.086.085Z" fill="#0C200F"/></svg>