<svg width="191" height="70" viewBox="0 0 191 70" fill="none" xmlns="http://www.w3.org/2000/svg">
<path d="M34.0379 52.0259C34.0411 51.6508 34.0845 56.5005 34.0845 50.9054C34.9653 44.8144 38.0514 39.523 42.6424 34.8093C47.5743 29.741 53.6991 25.9272 60.6506 23.0029C61.0956 22.8169 61.4144 22.5725 61.6393 22.2038C62.6726 20.5224 63.7006 18.8366 64.7707 17.1687C66.8682 13.8901 68.829 10.5397 71.6414 7.62018C74.001 5.16898 76.6225 2.9671 80.045 1.55749C82.8794 0.390012 85.808 -0.0573743 88.8176 1.12426C91.3485 2.12091 92.8908 3.88585 93.9658 5.96898C95.1396 8.23828 95.6101 10.634 95.7528 13.0843C95.762 13.2521 95.6594 13.5204 95.9812 13.5408C96.3189 13.5613 96.221 13.2869 96.2435 13.1194C96.2771 12.8902 96.2738 12.6607 96.3021 12.4359C96.6277 9.54824 97.3327 6.74324 99.2912 4.28422C101.335 1.71119 104.155 0.340614 107.948 0.694849C110.232 0.908345 112.253 1.71975 114.107 2.81658C118.314 5.30572 121.337 8.64533 123.813 12.3598C126.07 15.7459 128.057 19.2533 130.16 22.7042C130.379 23.0635 130.619 23.3612 131.082 23.5593C133.728 24.6937 136.251 25.9992 138.646 27.4713C145.1 31.4269 150.413 36.2156 153.919 42.2908C155.646 45.2885 156.771 48.365 157.235 51.5196C157.267 52.0362 152.249 56.5 151.729 56.5C143.229 56.5 127.281 56.5005 93.9658 56.5005C60.6502 56.5005 44.7285 56.5005 37.7285 56.5L34.0379 52.0259Z" fill="#FF6464"/>
<path d="M85.628 12.9952C90.2435 15.6823 91.6258 20.585 89.2134 25.1238C87.6436 28.0687 84.6216 29.7768 81.5847 29.4318C78.7317 29.0963 76.4148 26.7571 75.5439 23.4361C73.8558 16.9419 80.6613 10.7457 85.628 12.9952Z" fill="#0E0E0E"/>
<path d="M107.271 12.2201C112.589 12.745 115.879 16.6076 115.559 21.7074C115.348 25.0182 113.302 27.8101 110.391 28.7515C107.653 29.6257 104.573 28.4667 102.405 25.8232C98.178 20.6476 101.814 12.236 107.271 12.2201Z" fill="#0E0E0E"/>
<path d="M83.8215 20.4772C83.156 19.0682 83.3624 17.9578 84.4987 17.0948C85.2492 16.5373 86.0828 16.5084 86.9091 16.9675C87.9511 17.5462 88.4402 18.4398 88.4348 19.5968C88.429 20.4103 88.1329 21.1181 87.3385 21.4564C86.0339 22.0032 84.9338 21.4756 83.8399 20.4782L83.8215 20.4772Z" fill="white"/>
<path d="M108.485 20.2103C107.143 19.0753 106.834 17.8413 107.594 16.4287C108.101 15.5085 108.942 15.0915 110.005 15.178C111.344 15.287 112.264 15.9755 112.801 17.164C113.176 18.0004 113.205 18.8636 112.549 19.5795C111.468 20.7462 110.093 20.7167 108.505 20.2027L108.485 20.2103Z" fill="white"/>
<path d="M96.1199 38.2414C97.9252 37.283 99.8054 36.6935 101.812 36.6786C103.528 36.6629 105.077 37.194 106.199 38.5782C106.484 38.9325 106.647 39.3397 106.287 39.7457C105.957 40.1181 105.504 40.0955 105.239 39.6577C104.493 38.4154 103.247 38.128 101.959 38.0748C100.246 38.0055 98.5344 38.362 97.0525 39.1446C95.941 39.7327 95.0664 39.6361 93.9772 39.2671C92.4318 38.7452 90.8188 38.6123 89.2182 39.1748C88.5817 39.3974 88.0541 39.7945 87.4939 40.1442C87.1492 40.3587 86.7299 40.6524 86.4216 40.3007C86.088 39.9247 86.4484 39.5143 86.7401 39.2239C87.9862 37.979 89.5377 37.4618 91.2862 37.4935C92.5942 37.5171 93.8476 37.823 95.0369 38.3613C95.4273 38.5402 95.7617 38.5669 96.1199 38.2414Z" fill="#0C200F"/>
<path d="M82.9423 38.5C82.9423 40.7091 81.1436 42.5 78.9248 42.5C76.706 42.5 74.9073 40.7091 74.9073 38.5C74.9073 36.2909 78.9248 30 78.9248 30C78.9248 30 82.9423 36.2909 82.9423 38.5Z" fill="white"/>
<path d="M152.173 54.4961C152.104 62.4272 155.732 68.8908 160.271 68.9285C162.175 68.9443 163.938 67.8302 165.345 65.9438C165.596 65.6118 166.121 65.6162 166.362 65.9523C167.741 67.8619 169.484 69.0051 171.383 69.0209C173.282 69.0367 175.05 67.9226 176.456 66.0362C176.708 65.7042 177.233 65.7086 177.474 66.0446C178.853 67.9542 180.596 69.0975 182.495 69.1133C187.039 69.1511 190.773 62.7487 190.842 54.8176C190.847 54.2407 190.825 53.6736 190.792 53.1165L190.781 53.1164C190.622 44.0395 182.138 36.67 171.621 36.5826C161.105 36.4951 152.243 43.9229 152.163 53.18C152.161 53.3673 152.17 53.5445 152.174 53.7268C152.161 53.9848 152.154 54.2378 152.151 54.501L152.173 54.4961Z" fill="#FF6464"/>
<path d="M0.146529 54.7364C0.0776047 62.6674 3.7058 69.131 8.24464 69.1687C10.1489 69.1846 11.9115 68.0705 13.3183 66.184C13.5701 65.8521 14.0948 65.8564 14.3354 66.1925C15.7146 68.1021 17.4576 69.2453 19.3564 69.2611C21.2553 69.2769 23.0233 68.1629 24.4301 66.2764C24.6819 65.9444 25.2066 65.9488 25.4472 66.2849C26.8264 68.1945 28.5694 69.3377 30.4682 69.3535C35.0125 69.3913 38.7471 62.9889 38.816 55.0579C38.821 54.4809 38.7989 53.9138 38.7659 53.3567L38.755 53.3566C38.5959 44.2797 30.1118 36.9103 19.5951 36.8228C9.07835 36.7354 0.216778 44.1631 0.136329 53.4202C0.134702 53.6075 0.143984 53.7848 0.14781 53.967C0.134748 54.225 0.127136 54.4781 0.124849 54.7412L0.146529 54.7364Z" fill="#FF6464"/>
</svg>
