<svg width="191" height="70" fill="none" xmlns="http://www.w3.org/2000/svg"><path d="M34.038 52.026c.003-.375.047 4.474.047-1.12.88-6.092 3.966-11.383 8.557-16.097 4.932-5.068 11.057-8.882 18.009-11.806.445-.186.763-.43.988-.8 1.034-1.68 2.062-3.366 3.132-5.034 2.097-3.279 4.058-6.63 6.87-9.549 2.36-2.451 4.982-4.653 8.404-6.063C82.88.39 85.808-.057 88.818 1.124c2.53.997 4.073 2.762 5.148 4.845 1.174 2.27 1.644 4.665 1.787 7.115.01.168-.094.436.228.457.338.02.24-.254.263-.422.033-.229.03-.458.058-.683.326-2.888 1.03-5.693 2.99-8.152 2.043-2.573 4.864-3.943 8.656-3.59 2.284.214 4.305 1.026 6.159 2.123 4.207 2.489 7.23 5.828 9.706 9.543 2.257 3.386 4.244 6.893 6.347 10.344.219.36.459.657.922.855a58.286 58.286 0 0 1 7.564 3.912c6.454 3.956 11.767 8.745 15.273 14.82 1.727 2.998 2.852 6.074 3.316 9.229.032.516-4.214 6.48-4.735 6.48h-115l-3.462-5.974Z" fill="#FF6464"/><path d="M85.628 12.995c4.616 2.687 5.998 7.59 3.586 12.129-1.57 2.945-4.592 4.653-7.63 4.308-2.852-.336-5.169-2.675-6.04-5.996-1.688-6.494 5.118-12.69 10.084-10.44ZM107.271 12.22c5.318.525 8.608 4.388 8.288 9.487-.211 3.311-2.257 6.103-5.168 7.044-2.738.875-5.818-.284-7.986-2.928-4.227-5.175-.591-13.587 4.866-13.603Z" fill="#0E0E0E"/><path d="M83.822 20.477c-.666-1.409-.46-2.52.677-3.382.75-.558 1.584-.587 2.41-.127 1.042.578 1.532 1.472 1.526 2.629-.006.813-.302 1.521-1.096 1.86-1.305.546-2.405.019-3.499-.979h-.018ZM108.486 20.21c-1.343-1.135-1.652-2.369-.892-3.781.508-.92 1.349-1.337 2.411-1.251 1.339.109 2.259.797 2.796 1.986.376.836.404 1.7-.252 2.415-1.08 1.167-2.455 1.138-4.044.624l-.019.007Z" fill="#fff"/><path d="M96.12 38.241c1.805-.958 3.685-1.547 5.692-1.562 1.716-.016 3.265.515 4.387 1.9.285.353.448.76.088 1.167-.33.372-.783.35-1.048-.088-.746-1.243-1.992-1.53-3.28-1.583-1.713-.07-3.425.287-4.907 1.07-1.111.588-1.986.491-3.075.122-1.545-.522-3.158-.655-4.759-.092-.636.222-1.164.62-1.724.97-.345.214-.764.507-1.072.156-.334-.376.026-.787.318-1.077 1.246-1.245 2.798-1.762 4.546-1.73a9.452 9.452 0 0 1 3.75.867c.391.18.726.206 1.084-.12Z" fill="#0C200F"/><path d="M82.942 38.5c0 2.21-1.798 4-4.017 4a4.009 4.009 0 0 1-4.018-4c0-2.21 4.018-8.5 4.018-8.5s4.017 6.29 4.017 8.5Z" fill="#fff"/><path d="M152.173 54.496c-.069 7.931 3.559 14.395 8.098 14.432 1.904.016 3.667-1.098 5.073-2.984.252-.332.777-.328 1.017.008 1.38 1.91 3.123 3.053 5.022 3.069 1.898.016 3.666-1.098 5.073-2.985.252-.332.777-.327 1.017.009 1.38 1.91 3.122 3.052 5.021 3.068 4.545.038 8.279-6.364 8.348-14.295a25.039 25.039 0 0 0-.05-1.701h-.011c-.159-9.078-8.643-16.447-19.16-16.534-10.517-.088-19.378 7.34-19.459 16.597-.001.187.008.364.012.547-.013.258-.021.51-.023.774l.022-.005ZM.146 54.736c-.069 7.931 3.56 14.395 8.098 14.433 1.905.016 3.667-1.099 5.074-2.985a.641.641 0 0 1 1.017.008c1.38 1.91 3.122 3.053 5.021 3.07 1.899.015 3.667-1.1 5.074-2.986a.641.641 0 0 1 1.017.009c1.38 1.91 3.122 3.053 5.021 3.069 4.544.037 8.279-6.365 8.348-14.296a24.974 24.974 0 0 0-.05-1.701h-.011c-.16-9.077-8.644-16.447-19.16-16.534C9.078 36.735.217 44.163.136 53.42c-.002.188.008.365.012.547-.013.258-.021.511-.023.774l.021-.005Z" fill="#FF6464"/></svg>