<svg xmlns="http://www.w3.org/2000/svg" width="194" height="70" fill="none"><mask id="a" width="194" height="56" x="0" y="0" maskUnits="userSpaceOnUse" style="mask-type:alpha"><path fill="#D9D9D9" d="M0 0h194v56H0z"/></mask><g mask="url(#a)"><path fill="#00CE4C" d="M32.31 52.026c.002-.376.021-.75.046-1.121.881-6.091 3.97-11.382 8.565-16.096 4.936-5.068 11.066-8.882 18.024-11.806.445-.186.764-.43.99-.8 1.034-1.681 2.063-3.367 3.134-5.035 2.099-3.278 4.062-6.629 6.876-9.548 2.362-2.451 4.986-4.653 8.411-6.063 2.837-1.167 5.768-1.615 8.78-.433 2.534.996 4.077 2.761 5.153 4.845 1.175 2.269 1.646 4.665 1.789 7.115.009.168-.094.436.228.456.338.02.24-.253.263-.421.034-.23.03-.459.059-.684.326-2.887 1.031-5.692 2.991-8.151 2.046-2.573 4.869-3.944 8.665-3.59 2.286.214 4.308 1.025 6.164 2.122 4.211 2.49 7.237 5.829 9.715 9.543 2.259 3.386 4.247 6.894 6.352 10.345.219.36.46.657.923.855a58.362 58.362 0 0 1 7.57 3.912c6.46 3.955 11.777 8.744 15.287 14.82 1.728 2.997 2.854 6.074 3.318 9.228.033.517.055 1.033.051 1.554-.171 19.98-27.921 35.945-61.984 35.657-34.063-.288-61.536-16.72-61.366-36.7l-.005-.005Z"/><path fill="#0E0E0E" d="M83.688 9.73c3.725 2.083 4.84 5.884 2.894 9.403-1.267 2.283-3.706 3.608-6.158 3.34-2.302-.26-4.172-2.074-4.875-4.649-1.363-5.035 4.13-9.839 8.139-8.095ZM105.368 9.668c4.159.394 6.731 3.296 6.482 7.127-.165 2.487-1.766 4.585-4.042 5.292-2.142.657-4.55-.214-6.246-2.2-3.306-3.888-.462-10.207 3.806-10.22Z"/><path fill="#fff" d="M82.23 15.53c-.537-1.093-.37-1.954.546-2.623.606-.432 1.279-.454 1.946-.098.84.448 1.236 1.141 1.231 2.038-.004.63-.243 1.18-.885 1.442-1.052.424-1.94.015-2.823-.759h-.015ZM106.317 15.671c-1.05-.852-1.292-1.78-.697-2.84.397-.692 1.055-1.005 1.885-.94 1.048.082 1.768.599 2.187 1.492.294.628.316 1.277-.197 1.814-.845.877-1.92.855-3.163.469l-.015.005Z"/><path fill="#0E0E0E" d="M95.169 39.19c-1.724 1.1-3.553 1.836-5.554 2.01-1.71.152-3.299-.254-4.529-1.545-.313-.33-.508-.724-.181-1.157.3-.397.753-.41 1.053.005.844 1.179 2.11 1.366 3.398 1.317 1.716-.067 3.394-.558 4.81-1.456 1.062-.674 1.942-.647 3.059-.366 1.583.398 3.203.402 4.755-.286.617-.272 1.112-.71 1.642-1.103.327-.241.722-.567 1.058-.241.363.348.036.786-.232 1.099-1.143 1.34-2.65 1.978-4.397 2.085a9.469 9.469 0 0 1-3.811-.567c-.404-.147-.74-.147-1.071.206Z"/><path fill="#FE2F2F" d="M128.504 9.999a1 1 0 0 1 .92-.997l36.191-2.914a1 1 0 0 1 1.08.997v64.122a1 1 0 0 1-1 1h-36.191a1 1 0 0 1-1-1V10Z"/><path fill="#E0E1E9" fill-rule="evenodd" d="m164.449 7.118-35.945 3.073v63.087h35.945V10.191h8.986l-8.986-3.073Z" clip-rule="evenodd"/><path fill="#FE2F2F" d="M128.504 9.912h2.527V75l-2.527-1.676V9.912Z"/><rect width="65" height="46.241" fill="#FE2F2F" rx="1" transform="matrix(0 1 1 0 129.509 10.001)"/><rect width="12" height="38.199" x="133.53" y="27.001" fill="#fff" rx="1" transform="rotate(-90 133.53 27.001)"/><path fill="#00CE4C" d="M173.425 35.022c-8.152 0-14.763 3.684-14.763 8.223 0 1.904 1.16 3.657 3.11 5.047a.63.63 0 0 1 0 1.017c-1.95 1.396-3.11 3.15-3.11 5.048 0 1.899 1.16 3.657 3.11 5.048a.63.63 0 0 1 0 1.017c-1.95 1.396-3.11 3.148-3.11 5.047 0 4.545 6.611 8.224 14.763 8.224.593 0 1.175-.028 1.747-.065v-.011C184.499 73.379 192 64.83 192 54.314 192 43.797 184.291 35 174.777 35c-.192 0-.375.01-.562.016a19.35 19.35 0 0 0-.796-.016l.006.022Z"/></g><path fill="#00CE4C" d="M2.146 55.643c-.07 7.69 3.541 13.959 8.058 13.995 1.894.016 3.648-1.065 5.048-2.894.25-.322.773-.318 1.012.008 1.373 1.852 3.107 2.96 4.996 2.976 1.89.015 3.649-1.065 5.049-2.894.25-.322.772-.318 1.012.008 1.372 1.852 3.107 2.96 4.996 2.975 4.522.037 8.238-6.171 8.306-13.862.006-.56-.017-1.11-.05-1.65h-.01c-.159-8.802-8.6-15.948-19.065-16.033-10.465-.085-19.283 7.118-19.363 16.095-.001.181.008.353.012.53-.013.25-.02.495-.023.75l.022-.004Z"/></svg>