<svg viewBox="0 0 390 101" fill="none" xmlns="http://www.w3.org/2000/svg">
  <path d="M594 367c0 178.043-175.829 327-399 327-223.17 0-399-148.957-399-327S-28.17 40 195 40c223.171 0 399 148.957 399 327Z" fill="#0E0E0E" stroke="#313239" stroke-width="30"/>
  <path d="M260.36 25.787c.056-.186.12-.37.187-.551 1.359-2.913 3.82-5.146 7.028-6.9 3.447-1.886 7.372-2.997 11.626-3.56.272-.035.483-.115.66-.27.811-.703 1.62-1.408 2.449-2.1 1.627-1.36 3.189-2.773 5.159-3.863 1.653-.916 3.415-1.674 5.504-1.936 1.731-.217 3.411-.064 4.901.908 1.253.819 1.851 1.893 2.145 3.066.322 1.277.238 2.527-.035 3.763.019.084.114.204-.061.256.183.053.169-.096.205-.176.051-.11.082-.224.13-.332.594-1.393 1.385-2.696 2.818-3.667 1.496-1.016 3.248-1.336 5.29-.674 1.229.398 2.227 1.06 3.092 1.842 1.964 1.775 3.152 3.821 3.985 5.983.76 1.971 1.353 3.968 2.018 5.951.069.207.159.386.386.543a32.187 32.187 0 0 1 3.61 2.912c2.993 2.791 5.237 5.85 6.299 9.317.523 1.71.702 3.382.506 5.009-.056.26-.807 1.435-.884 1.693-8-2.5-23-6-34-8s-20-4-32-5.5l-1.14-3.715Z" fill="#00CE4C"/>
  <path d="M325.441 45.162c-1.201 4.019-.139 7.768 2.37 8.37 1.053.254 2.193-.086 3.248-.863.189-.136.479-.066.563.135.484 1.147 1.282 1.952 2.331 2.204 1.05.252 2.193-.086 3.249-.863.188-.136.478-.067.562.135.484 1.147 1.282 1.952 2.331 2.204 2.512.604 5.52-2.168 6.721-6.187.087-.292.158-.583.221-.87l-.006-.002c1.243-4.63-2.377-9.463-8.19-10.86-5.813-1.397-11.811 1.236-13.213 5.927-.028.095-.049.186-.073.28-.046.129-.087.256-.127.39h.013ZM241.187 25.736c-1.201 4.019-.139 7.768 2.37 8.37 1.053.254 2.193-.085 3.249-.863.188-.136.478-.066.562.136.484 1.147 1.282 1.951 2.331 2.204 1.05.252 2.193-.087 3.249-.864.188-.136.478-.066.562.135.484 1.147 1.282 1.952 2.331 2.204 2.512.604 5.52-2.167 6.721-6.186.087-.293.158-.584.221-.87l-.006-.002c1.243-4.63-2.377-9.464-8.19-10.86-5.813-1.398-11.811 1.235-13.213 5.926-.028.095-.049.186-.073.28-.045.129-.087.256-.127.39h.013Z" fill="#00CE4C"/>
  <path d="M293.844 26.251c1.887 1.064 2.614 3.288 1.861 5.496-.49 1.433-1.589 2.349-2.775 2.31-1.114-.04-2.1-1.035-2.567-2.545-.907-2.952 1.476-6.107 3.481-5.26Z" fill="#FF5D5D"/>
  <path d="M293.226 14.174c1.896 2.064 1.828 4.737-.087 6.637-1.244 1.233-3.024 1.62-4.493.975-1.378-.612-2.176-2.144-2.097-3.944.163-3.518 4.537-5.567 6.677-3.668ZM304.196 17.147c2.584 1.09 3.633 3.537 2.681 6.043-.62 1.627-2.08 2.709-3.685 2.729-1.508.012-2.872-1.047-3.548-2.709-1.315-3.25 1.814-6.902 4.552-6.063Z" fill="#0E0E0E"/>
  <path d="M291.159 17.644c-.115-.81.161-1.334.864-1.59.463-.163.886-.048 1.228.31.433.453.539.976.357 1.556-.129.406-.388.715-.839.761-.738.072-1.208-.363-1.601-1.033l-.009-.004ZM303.564 21.342c-.497-.778-.46-1.444.14-2.034.398-.383.884-.461 1.403-.253.654.263 1.009.75 1.093 1.43.058.478-.061.915-.501 1.172-.723.417-1.408.188-2.124-.316h-.011Z" fill="#fff"/>
</svg>
