<svg width="190" height="70" fill="none" xmlns="http://www.w3.org/2000/svg"><mask id="a" style="mask-type:alpha" maskUnits="userSpaceOnUse" x="33" y="0" width="124" height="56"><path fill="#D9D9D9" d="M33 0h124v56H33z"/></mask><g mask="url(#a)"><path d="M33.309 49.384c.003-.36.022-.72.046-1.077.881-5.85 3.967-10.933 8.558-15.461 4.932-4.869 11.057-8.532 18.008-11.341.445-.18.764-.414.989-.768 1.033-1.615 2.061-3.235 3.131-4.837 2.098-3.15 4.059-6.367 6.871-9.172 2.36-2.355 4.981-4.47 8.404-5.824 2.834-1.121 5.763-1.55 8.772-.416 2.531.958 4.074 2.653 5.149 4.654 1.173 2.18 1.644 4.481 1.787 6.835.009.161-.094.419.228.438.338.02.24-.244.262-.404.034-.22.03-.441.059-.657.325-2.774 1.03-5.468 2.989-7.83 2.044-2.472 4.864-3.789 8.657-3.448 2.284.205 4.304.984 6.159 2.038 4.207 2.39 7.23 5.599 9.706 9.167 2.257 3.252 4.244 6.622 6.347 9.937.219.345.459.63.922.821a59.116 59.116 0 0 1 7.563 3.758c6.455 3.8 11.767 8.4 15.274 14.235 1.727 2.88 2.851 5.835 3.315 8.866.033.496.055.992.051 1.492-.171 19.192-27.897 34.528-61.93 34.251-34.033-.276-61.483-16.06-61.312-35.253l-.005-.004Z" fill="#00CE4C"/><path d="M84.815 9.691c3.78 2.114 4.912 5.971 2.937 9.542-1.286 2.316-3.76 3.66-6.248 3.389-2.336-.264-4.234-2.105-4.947-4.717-1.383-5.109 4.19-9.983 8.258-8.214Z" fill="#0E0E0E"/><path d="M83.336 15.578c-.545-1.108-.376-1.982.555-2.66.614-.44 1.297-.462 1.974-.101.853.455 1.253 1.158 1.249 2.069-.005.64-.247 1.196-.898 1.463-1.068.43-1.97.015-2.865-.77h-.015Z" fill="#fff"/><path d="M75.3 43.89c-3.388-3.227.64-8.604 3.078-10.89 1.848 2.904 7.185 5.781 9.622 6.857-2.822 2.689-9.314 7.26-12.7 4.033Z" fill="#FFA7AE"/><path d="m113.662 15.798-10.33 2.634 7.222 6.87" stroke="#0E0E0E" stroke-width="3" stroke-linecap="round"/><path d="M77 30c2.29 5.144 11.295 14.301 29 9.785" stroke="#0E0E0E" stroke-width="2" stroke-linecap="round"/></g><path d="M151.366 55.643c-.068 7.69 3.542 13.959 8.058 13.995 1.895.016 3.649-1.065 5.049-2.894.25-.322.772-.318 1.012.008 1.372 1.852 3.107 2.96 4.996 2.976 1.889.015 3.649-1.065 5.049-2.894.25-.322.772-.318 1.012.008 1.372 1.852 3.106 2.96 4.996 2.975 4.522.037 8.238-6.171 8.306-13.862.005-.56-.017-1.11-.05-1.65h-.01c-.159-8.802-8.601-15.948-19.066-16.033-10.464-.085-19.282 7.118-19.362 16.095-.002.181.008.353.012.53-.013.25-.021.495-.023.75l.021-.004ZM.146 55.643c-.07 7.69 3.541 13.959 8.058 13.995 1.894.016 3.648-1.065 5.048-2.894.25-.322.773-.318 1.012.008 1.373 1.852 3.107 2.96 4.996 2.976 1.89.015 3.649-1.065 5.049-2.894.25-.322.772-.318 1.012.008 1.372 1.852 3.107 2.96 4.996 2.975 4.522.037 8.238-6.171 8.306-13.862.006-.56-.017-1.11-.05-1.65h-.01c-.159-8.802-8.6-15.948-19.065-16.033C9.033 38.187.215 45.39.135 54.367c-.001.181.008.353.012.53-.013.25-.02.495-.023.75l.022-.004Z" fill="#00CE4C"/></svg>