<svg width="191" height="72" fill="none" xmlns="http://www.w3.org/2000/svg"><path d="M35.403 58.5c.003-.376-1.358-7.225-1.334-7.596.877-6.09 3.95-11.382 8.52-16.096C47.5 29.74 53.6 25.926 60.52 23.002c.444-.186.761-.43.985-.8 1.029-1.68 2.052-3.366 3.118-5.034 2.088-3.279 4.04-6.63 6.84-9.549 2.35-2.451 4.96-4.653 8.368-6.062 2.822-1.168 5.737-1.615 8.734-.434 2.52.997 4.056 2.762 5.126 4.845 1.169 2.27 1.637 4.665 1.78 7.115.008.168-.094.436.227.457.336.02.238-.254.26-.422.034-.229.03-.458.06-.683.323-2.888 1.025-5.693 2.975-8.152 2.035-2.573 4.843-3.943 8.62-3.59 2.274.214 4.285 1.026 6.131 2.123 4.19 2.489 7.199 5.828 9.665 9.543 2.247 3.386 4.225 6.893 6.319 10.344.218.36.457.657.918.855a57.998 57.998 0 0 1 7.531 3.912c6.426 3.956 11.715 8.745 15.207 14.82 1.719 2.998 2.839 6.074 3.301 9.229.032.516-2.508 5.48-3.301 7.48L93.176 59h-57.5l-.273-.5Z" fill="#00CE4C"/><path d="M85.764 9.995c4.615 2.687 5.998 7.59 3.585 12.129-1.57 2.945-4.592 4.653-7.629 4.308-2.852-.336-5.17-2.675-6.04-5.996-1.688-6.494 5.117-12.69 10.084-10.44Z" fill="#0E0E0E"/><path d="M83.958 17.477c-.666-1.409-.46-2.52.677-3.382.75-.558 1.584-.587 2.41-.128 1.042.58 1.531 1.473 1.526 2.63-.006.813-.302 1.521-1.096 1.86-1.305.546-2.405.019-3.499-.979h-.018Z" fill="#fff"/><path d="M152.174 55.9c-.069 8.11 3.559 14.718 8.098 14.756 1.904.016 3.667-1.123 5.073-3.051a.633.633 0 0 1 1.017.008c1.38 1.953 3.123 3.121 5.022 3.138 1.898.016 3.666-1.123 5.073-3.052a.633.633 0 0 1 1.017.009c1.379 1.952 3.122 3.121 5.021 3.137 4.545.039 8.279-6.507 8.348-14.615.005-.59-.017-1.17-.05-1.74h-.011c-.159-9.28-8.643-16.814-19.16-16.904-10.517-.089-19.378 7.505-19.459 16.97-.001.19.008.372.012.558-.013.264-.021.523-.023.792l.022-.005ZM.146 56.146c-.069 8.109 3.56 14.717 8.098 14.755 1.905.017 3.667-1.123 5.074-3.051a.633.633 0 0 1 1.017.009c1.38 1.952 3.122 3.12 5.021 3.137 1.899.016 3.667-1.123 5.074-3.052a.633.633 0 0 1 1.017.009c1.38 1.952 3.122 3.121 5.021 3.137 4.544.039 8.279-6.507 8.348-14.615.005-.59-.017-1.17-.05-1.74h-.011c-.16-9.28-8.644-16.814-19.16-16.903C9.078 37.742.217 45.336.136 54.8c-.002.192.008.373.012.56-.014.263-.021.522-.023.791l.021-.005Z" fill="#00CE4C"/><path d="M68 46.5c-4.4-4 .834-10.667 4-13.5 2.4 3.6 9.334 7.167 12.5 8.5-3.667 3.333-12.1 9-16.5 5Z" fill="#FFA7AE"/><path d="m115 11-11 6.857L115 23" stroke="#000" stroke-width="3" stroke-linecap="round"/><path d="M70 28.5c3 6.833 14.8 19 38 13" stroke="#000" stroke-width="2" stroke-linecap="round"/></svg>