<svg width="390" height="301" viewBox="0 0 390 301" fill="none" xmlns="http://www.w3.org/2000/svg">
<path fill-rule="evenodd" clip-rule="evenodd" d="M240.17 130C251.627 128.404 258.999 125.46 258.999 125.46C258.999 125.46 290.209 113.001 323.999 125.46C330.117 127.715 336.152 129.155 341.933 130H370.171C381.628 128.404 388.999 125.46 388.999 125.46V130H389V185H-1V131V130V125.46C-1 125.46 30.21 113.001 64 125.46C70.1179 127.715 76.1532 129.155 81.9342 130H110.17C121.627 128.404 128.999 125.46 128.999 125.46C128.999 125.46 160.209 113.001 193.999 125.46C200.117 127.715 206.152 129.155 211.933 130H240.17Z" fill="#75F3C9"/>
<path fill-rule="evenodd" clip-rule="evenodd" d="M240.17 185C251.627 183.404 258.999 180.46 258.999 180.46C258.999 180.46 290.209 168.001 323.999 180.46C330.117 182.715 336.152 184.155 341.933 185H370.171C381.628 183.404 388.999 180.46 388.999 180.46V185H389V240H-1V186V185V180.46C-1 180.46 30.21 168.001 64 180.46C70.1179 182.715 76.1532 184.155 81.9342 185H110.17C121.627 183.404 128.999 180.46 128.999 180.46C128.999 180.46 160.209 168.001 193.999 180.46C200.117 182.715 206.152 184.155 211.933 185H240.17Z" fill="#FF8BCA"/>
<path fill-rule="evenodd" clip-rule="evenodd" d="M240.17 240C251.627 238.404 258.999 235.46 258.999 235.46C258.999 235.46 290.209 223.001 323.999 235.46C330.117 237.715 336.152 239.155 341.933 240H370.171C381.628 238.404 388.999 235.46 388.999 235.46V240H389V295H-1V241V240V235.46C-1 235.46 30.21 223.001 64 235.46C70.1179 237.715 76.1532 239.155 81.9342 240H110.17C121.627 238.404 128.999 235.46 128.999 235.46C128.999 235.46 160.209 223.001 193.999 235.46C200.117 237.715 206.152 239.155 211.933 240H240.17Z" fill="#FFDA4A"/>
<path d="M388.999 124.538C388.999 124.538 375.129 130.077 355.869 130.077" stroke="#B0FFE5" stroke-width="2"/>
<path d="M355.869 130.077C346.239 130.077 335.259 128.688 323.999 124.537C290.209 112.078 258.999 124.537 258.999 124.537C258.999 124.537 245.129 130.077 225.869 130.077" stroke="#B0FFE5" stroke-width="2"/>
<path d="M225.869 130.077C216.239 130.077 205.259 128.688 193.999 124.537C160.209 112.078 128.999 124.537 128.999 124.537C128.999 124.537 115.129 130.077 95.8691 130.077" stroke="#B0FFE5" stroke-width="2"/>
<path d="M95.87 130.077C86.24 130.077 75.26 128.688 64 124.537C30.21 112.078 -1 124.537 -1 124.537" stroke="#B0FFE5" stroke-width="2"/>
<path d="M388.999 179.538C388.999 179.538 375.129 185.077 355.869 185.077" stroke="#FFADDA" stroke-width="2"/>
<path d="M355.869 185.077C346.239 185.077 335.259 183.688 323.999 179.537C290.209 167.078 258.999 179.537 258.999 179.537C258.999 179.537 245.129 185.077 225.869 185.077" stroke="#FFADDA" stroke-width="2"/>
<path d="M225.869 185.077C216.239 185.077 205.259 183.688 193.999 179.537C160.209 167.078 128.999 179.537 128.999 179.537C128.999 179.537 115.129 185.077 95.8691 185.077" stroke="#FFADDA" stroke-width="2"/>
<path d="M95.87 185.077C86.24 185.077 75.26 183.688 64 179.537C30.21 167.078 -1 179.537 -1 179.537" stroke="#FFADDA" stroke-width="2"/>
<path d="M388.999 234.538C388.999 234.538 375.129 240.077 355.869 240.077" stroke="#FFE88C" stroke-width="2"/>
<path d="M355.869 240.077C346.239 240.077 335.259 238.688 323.999 234.537C290.209 222.078 258.999 234.537 258.999 234.537C258.999 234.537 245.129 240.077 225.869 240.077" stroke="#FFE88C" stroke-width="2"/>
<path d="M225.869 240.077C216.239 240.077 205.259 238.688 193.999 234.537C160.209 222.078 128.999 234.537 128.999 234.537C128.999 234.537 115.129 240.077 95.8691 240.077" stroke="#FFE88C" stroke-width="2"/>
<path d="M95.87 240.077C86.24 240.077 75.26 238.688 64 234.537C30.21 222.078 -1 234.537 -1 234.537" stroke="#FFE88C" stroke-width="2"/>
<path d="M225.869 296H95.8691C115.129 296 128.999 292.999 128.999 292.999C128.999 292.999 160.209 286.251 193.999 292.999C205.259 295.248 216.239 296 225.869 296Z" fill="#0E0E0E"/>
<path d="M95.87 296H-1V292.999C-1 292.999 30.21 286.251 64 292.999C75.26 295.248 86.24 296 95.87 296Z" fill="#0E0E0E"/>
<path d="M388.999 293V296H355.869C375.129 296 388.999 293 388.999 293Z" fill="#0E0E0E"/>
<path d="M389 292C389 292 379 295 355.869 294.538" stroke="#FFE88C" stroke-width="2"/>
<path d="M355.869 294.538C346.239 294.538 335.259 293.844 323.999 291.769C290.209 285.539 258.999 291.769 258.999 291.769C258.999 291.769 245.129 294.538 225.869 294.538" stroke="#FFE88C" stroke-width="2"/>
<path d="M225.869 294.539C216.239 294.539 207.001 294.805 194.5 292.5C160.71 286.271 129 292 129 292C129 292 114.76 295 95.5 295" stroke="#FFE88C" stroke-width="2"/>
<path d="M95.5 295C85.87 295 70.2971 293.661 64 292.5C30.21 286.27 -1 292 -1 292" stroke="#FFE88C" stroke-width="2"/>
<path d="M355.869 295.461H225.869C245.129 295.461 258.999 292.692 258.999 292.692C258.999 292.692 290.209 286.462 323.999 292.692C335.259 294.767 346.239 295.461 355.869 295.461Z" fill="#0E0E0E"/>
<rect x="-1" y="295.461" width="390" height="5.53846" fill="#0E0E0E"/>
<circle cx="31.5" cy="256.5" r="8.5" fill="#FFE88C"/>
<circle cx="55.5" cy="265.5" r="5.5" fill="#FFE88C"/>
<circle cx="46.5" cy="282.5" r="3.5" fill="#FFE88C"/>
<circle cx="31.5" cy="144.5" r="8.5" fill="#B0FFE5"/>
<circle cx="55.5" cy="153.5" r="5.5" fill="#B0FFE5"/>
<circle cx="46.5" cy="170.5" r="3.5" fill="#B0FFE5"/>
<circle cx="287.868" cy="75.8684" r="13.8684" fill="#313239"/>
<circle cx="327.026" cy="90.5528" r="8.97368" fill="#313239"/>
<circle cx="312.342" cy="118.29" r="5.71053" fill="#313239"/>
<circle cx="99.1316" cy="120.132" r="13.8684" transform="rotate(180 99.1316 120.132)" fill="#313239"/>
<circle cx="59.9737" cy="105.447" r="8.97368" transform="rotate(180 59.9737 105.447)" fill="#313239"/>
<circle cx="74.6579" cy="77.7104" r="5.71053" transform="rotate(180 74.6579 77.7104)" fill="#313239"/>
<path d="M194.241 110C123.656 110 103.67 118.333 102.5 122.5C105.708 127.7 127.232 130.333 137.592 131L169.175 125L162.157 133C166.168 133.8 186.555 134 196.247 134C265.629 134 289.325 126.333 292.5 122.5C289.158 118.333 264.827 110 194.241 110Z" fill="#00722A"/>
<mask id="mask0_2181_24867" style="mask-type:alpha" maskUnits="userSpaceOnUse" x="137" y="0" width="120" height="120">
<rect x="137" width="120" height="120" fill="#D9D9D9"/>
</mask>
<g mask="url(#mask0_2181_24867)">
<path d="M206.605 119.906H189.342L197.223 114.089L206.605 119.906Z" fill="#DBFF9E"/>
<path d="M207.04 119.719C205.997 119.637 204.963 119.545 203.924 119.458C202.989 119.381 202.06 119.294 201.125 119.245C198.605 119.115 196.08 119.173 193.56 119.265C192.064 119.318 190.563 119.381 189.042 119.704C188.426 118.666 187.968 117.583 187.506 116.501C186.288 113.65 185.607 110.654 185.135 107.62C184.837 105.701 184.723 103.764 184.668 101.821C184.514 96.3177 185.384 90.959 186.999 85.7018C187.496 84.0879 188.277 82.5803 189.082 81.0389C189.112 80.9954 189.107 80.9906 189.112 80.9906C189.271 80.8408 189.355 80.6475 189.464 80.4252C189.494 80.3963 189.489 80.3866 189.494 80.3866C189.584 80.2948 189.638 80.1885 189.718 80.058C189.743 80.0338 189.743 80.0242 189.748 80.0242C189.832 79.942 189.887 79.8406 189.971 79.7101C190.001 79.6811 190.001 79.6618 190.011 79.6618C190.031 79.6376 190.046 79.6135 190.091 79.5652C190.121 79.541 190.121 79.5313 190.121 79.5313C190.21 79.454 190.26 79.3574 190.349 79.2317C190.384 79.2028 190.384 79.1786 190.394 79.1738C190.414 79.1448 190.424 79.1206 190.464 79.082C190.498 79.0626 190.493 79.0481 190.503 79.0481C190.528 79.024 190.538 79.0046 190.588 78.9563C190.618 78.9322 190.618 78.9225 190.623 78.9225C190.647 78.9032 190.662 78.879 190.712 78.8307C190.742 78.8017 190.742 78.7969 190.742 78.7969C190.866 78.6857 190.98 78.5649 191.1 78.3958C191.135 78.3716 191.154 78.333 191.199 78.2992C191.244 78.2653 191.269 78.217 191.318 78.1832C191.368 78.1445 191.393 78.0962 191.443 78.0624C191.492 78.0286 191.522 77.9754 191.567 77.9513C191.671 77.8643 191.731 77.8015 191.835 77.7242C191.96 77.613 192.099 77.5985 192.213 77.4874C192.238 77.4632 192.238 77.4584 192.243 77.4584C192.268 77.4391 192.288 77.4197 192.337 77.3666C192.367 77.3376 192.367 77.3328 192.367 77.3328C192.387 77.3134 192.412 77.2941 192.462 77.2458C192.492 77.2168 192.492 77.212 192.492 77.212C192.511 77.1926 192.531 77.1733 192.586 77.1298C192.621 77.1057 192.621 77.096 192.631 77.096C192.651 77.0767 192.661 77.0525 192.715 77.0235C193.764 76.2794 194.967 76.1296 196.165 75.9653C197.701 75.7575 199.237 75.7334 200.763 76.0426C203.029 76.5017 204.57 77.9513 205.907 79.657C206.538 80.4639 207.06 81.3385 207.532 82.2952C207.562 82.3532 207.582 82.3677 207.607 82.416C207.627 82.4692 207.637 82.4933 207.662 82.5465C207.691 82.5948 207.706 82.6093 207.731 82.6576C207.746 82.7108 207.761 82.7349 207.786 82.7929C207.816 82.8412 207.836 82.8557 207.856 82.8992C207.87 82.9572 207.88 82.9814 207.905 83.0442C207.94 83.0925 207.96 83.1022 207.97 83.1457C207.975 83.2036 207.99 83.2278 208.02 83.3003C208.079 83.3727 208.104 83.4114 208.119 83.5032C208.139 83.566 208.149 83.5854 208.169 83.6434C208.198 83.6917 208.213 83.7062 208.233 83.7545C208.248 83.8125 208.258 83.8366 208.278 83.9043C208.333 83.9767 208.358 84.0202 208.367 84.1121C208.387 84.1749 208.397 84.1942 208.417 84.257C208.447 84.3053 208.462 84.3198 208.477 84.3681C208.487 84.4261 208.502 84.4551 208.522 84.5179C208.576 84.5904 208.606 84.6291 208.611 84.7209C208.626 84.7837 208.636 84.8078 208.656 84.8707C208.705 84.948 208.73 84.9915 208.74 85.0833C208.755 85.1461 208.765 85.1702 208.785 85.2331C208.835 85.3104 208.855 85.3587 208.869 85.4505C208.889 85.5133 208.894 85.5375 208.914 85.6003C208.964 85.6776 208.984 85.7211 208.994 85.8177C209.009 85.8806 209.019 85.9047 209.038 85.9724C209.178 86.4652 209.307 86.9194 209.466 87.4123C209.501 87.5041 209.516 87.5573 209.536 87.6539C209.7 88.485 209.918 89.263 210.102 90.0892C210.132 90.181 210.147 90.239 210.162 90.3308C210.356 91.3504 210.569 92.3264 210.748 93.3556C210.768 93.4571 210.778 93.5151 210.788 93.6166C210.783 93.8388 210.833 94.008 210.873 94.2206C210.893 94.3124 210.897 94.3704 210.907 94.4718C210.972 95.1676 211.047 95.8248 211.126 96.5254C211.146 96.6656 211.156 96.7622 211.161 96.9072C211.151 97.487 211.255 98.0185 211.25 98.5984C211.27 98.8158 211.28 98.9946 211.28 99.2217C211.31 100.164 211.29 101.058 211.285 102C211.28 102.227 211.275 102.401 211.27 102.628C211.226 103.252 211.161 103.822 211.161 104.44C211.156 104.547 211.156 104.605 211.146 104.706C211.101 105.083 211.037 105.411 211.037 105.784C211.032 105.885 211.027 105.943 211.017 106.044C210.883 106.615 210.883 107.156 210.783 107.731C210.773 107.832 210.768 107.89 210.758 107.992C210.629 108.402 210.639 108.789 210.54 109.2C210.53 109.296 210.525 109.354 210.51 109.451C210.356 109.983 210.291 110.485 210.162 111.021C210.147 111.118 210.142 111.171 210.122 111.263C209.978 111.674 209.898 112.06 209.789 112.481C209.774 112.577 209.769 112.63 209.744 112.722C209.541 113.346 209.342 113.925 209.163 114.549C209.148 114.645 209.133 114.703 209.098 114.8C209.088 114.863 209.093 114.882 209.068 114.921C209.034 114.964 209.029 114.984 209.009 115.046C208.8 115.438 208.691 115.82 208.561 116.24C208.527 116.298 208.522 116.322 208.497 116.38C208.407 116.544 208.348 116.68 208.308 116.854C208.273 116.907 208.263 116.931 208.238 116.994C208.218 117.052 208.218 117.076 208.189 117.115C208.154 117.158 208.149 117.182 208.124 117.235C207.985 117.472 207.86 117.675 207.801 117.946C207.766 117.999 207.756 118.028 207.726 118.091C207.706 118.149 207.706 118.173 207.682 118.211C207.642 118.255 207.637 118.279 207.607 118.337C207.587 118.395 207.587 118.414 207.557 118.458C207.522 118.501 207.518 118.525 207.493 118.579C207.398 118.738 207.339 118.873 207.299 119.052C207.269 119.105 207.259 119.129 207.239 119.187C207.145 119.352 207.085 119.487 207.05 119.666C207.05 119.695 207.045 119.714 207.04 119.719Z" fill="#DBFF9E"/>
<path d="M173.918 73.0094C174.151 73.2571 173.918 73.3659 173.794 73.4785C172.203 74.9797 170.769 76.6197 169.471 78.3799C169.426 78.4024 169.411 78.53 169.366 78.56C169.283 78.6238 169.272 78.7964 169.174 78.8377C169.163 78.8565 169.103 78.9315 169.088 78.9428C168.998 79.0179 168.983 79.1642 168.897 79.228C168.852 79.2843 168.852 79.3857 168.795 79.4119C168.777 79.4307 168.728 79.502 168.709 79.5132C168.574 79.6409 168.551 79.8773 168.42 79.9824C168.401 80.0049 168.349 80.0687 168.334 80.0874C168.289 80.1137 168.277 80.2413 168.232 80.2714C168.191 80.3201 168.187 80.4327 168.131 80.4552C168.086 80.5641 168.034 80.6879 167.947 80.7442C167.906 80.793 167.902 80.9056 167.846 80.9281C167.835 80.9431 167.778 81.0182 167.76 81.0332C167.673 81.127 167.677 81.3447 167.564 81.4047C167.546 81.4273 167.489 81.4873 167.482 81.5098C167.433 81.5323 167.422 81.6637 167.384 81.6975C167.298 81.8701 167.245 82.1291 167.095 82.2604C167.054 82.3092 167.05 82.418 167.001 82.4481C166.96 82.4931 166.956 82.6094 166.908 82.6357C166.866 82.6807 166.863 82.7971 166.814 82.8233C166.743 82.9172 166.694 83.1086 166.626 83.2024C166.589 83.2474 166.581 83.3638 166.532 83.3938C166.446 83.6828 166.3 83.9117 166.161 84.1556C166.041 84.3358 166.048 84.6698 165.876 84.8162C165.782 84.94 165.819 85.1915 165.684 85.289C165.598 85.4166 165.632 85.6643 165.497 85.7619C165.388 85.9946 165.395 86.3286 165.215 86.52C165.14 86.5763 165.193 86.7489 165.118 86.8015C165.046 86.8578 165.099 87.0304 165.02 87.0829C164.949 87.143 165.001 87.3156 164.926 87.3682C164.296 89.3197 163.954 91.4664 163.507 93.4217C163.305 93.5493 163.016 93.6468 162.839 93.7932C162.794 93.8345 162.693 93.857 162.652 93.8945C162.565 93.9583 162.434 94.0109 162.363 94.0784C162.055 94.2435 161.759 94.4312 161.515 94.6489C161.38 94.7314 161.237 94.8365 161.136 94.9341C160.937 95.0692 160.734 95.2531 160.565 95.407C160.55 95.4257 160.498 95.497 160.468 95.4933C160.029 95.8123 159.649 96.2138 159.334 96.6342C153.345 102.815 154.692 114.63 163.102 117.91C161.927 118.506 161.019 119.253 160.621 120H191.332C191.287 119.647 191.152 119.287 190.911 118.927C190.517 117.868 189.947 116.881 189.628 115.793C187.879 110.783 187.478 105.349 188.048 100.102C188.851 94.9679 189.774 88.1037 194.976 85.593C200.834 83.5176 204.88 87.9761 206.227 93.2903C208.366 100.612 208.498 108.614 205.998 115.857C205.691 116.821 205.24 117.726 204.827 118.649C204.606 119.084 204.4 119.546 204.317 120H235.02C234.72 119.291 233.961 118.593 232.697 118.086C240.563 114.119 242.616 103.532 236.311 96.6342C235.992 96.1801 235.59 95.8198 235.177 95.4933C235.155 95.482 235.084 95.4295 235.076 95.4032C234.915 95.2231 234.678 95.0767 234.506 94.9303C234.416 94.8065 234.228 94.7427 234.127 94.6451C233.879 94.3937 233.545 94.2586 233.278 94.0747C233.203 93.9884 233.05 93.9658 232.989 93.8908C232.941 93.8495 232.828 93.8457 232.806 93.7932C232.22 93.5718 231.972 93.1852 231.942 92.5885C231.443 88.8618 230.186 85.259 228.403 81.9527C226.564 78.4737 224.027 75.4413 221.134 72.788C220.781 72.5403 221.066 72.3414 221.344 72.2213C247.705 59.7578 247.956 33.8625 222.631 19.9391C220.301 18.1939 219.903 14.805 218.263 12.4482C216.837 9.70853 215.238 7.04769 213.166 4.73964C207.301 -1.97438 198.309 -2.09072 196.653 7.86583C195.588 -1.17501 186.821 -2.22207 181.139 3.80516C176.981 7.93715 174.511 13.3977 172.083 18.6518C170.972 20.3631 168.645 20.8998 167.073 22.1645C143.486 38.0057 148.957 62.61 173.926 73.0132L173.918 73.0094Z" fill="#00CE4C"/>
<path d="M190.362 6.02274C192.661 7.25506 193.35 9.50336 192.148 11.5848C191.366 12.9353 189.861 13.7186 188.348 13.5604C186.927 13.4066 185.772 12.3338 185.339 10.8108C184.498 7.83267 187.888 4.99119 190.362 6.02274Z" fill="#0E0E0E"/>
<path d="M203.743 5.98688C206.31 6.22012 207.898 7.93652 207.744 10.2027C207.642 11.6739 206.654 12.9144 205.249 13.3328C203.927 13.7212 202.441 13.2062 201.394 12.0315C199.354 9.73173 201.109 5.99395 203.743 5.98688Z" fill="#0E0E0E"/>
<path d="M189.48 9.75396C188.76 9.49521 188.495 9.0419 188.693 8.35653C188.827 7.90814 189.163 7.61371 189.65 7.48996C190.264 7.33392 190.749 7.47507 191.112 7.87589C191.366 8.15836 191.467 8.50351 191.245 8.89127C190.878 9.52504 190.256 9.71859 189.488 9.748L189.48 9.75396Z" fill="white"/>
<path d="M204.329 9.53791C203.681 9.03356 203.532 8.48522 203.899 7.85753C204.144 7.4486 204.55 7.26333 205.062 7.30175C205.709 7.35019 206.153 7.65614 206.412 8.18424C206.593 8.55592 206.607 8.93948 206.291 9.2576C205.769 9.77602 205.105 9.76291 204.338 9.53453L204.329 9.53791Z" fill="white"/>
<path d="M201.626 22.9791C202.73 22.919 203.514 22.2773 204.426 21.8044C205.815 21.6318 204.392 23.2681 203.78 23.4445C201.836 24.5628 199.585 24.1988 197.663 23.2643C195.738 23.512 193.933 24.9156 191.726 24.514C190.578 24.5778 187.23 22.9753 188.72 21.6993C189.069 21.5943 189.264 21.7932 189.429 22.0859C190.934 24.195 194.192 23.4032 196.207 22.57C198.05 21.6506 199.648 23.4332 201.63 22.9791H201.626Z" fill="#0E0E0E"/>
<path d="M197.169 74.6836H182.398C194.215 81.4805 206.337 77.5157 210.921 74.6836H197.169Z" fill="#00CE4C"/>
</g>
<path d="M168.623 155.742H167.135V153.223H165.471V152.016H167.135V149.414H168.623V155.742ZM164.979 155.977C165.736 155.98 166.389 156.064 166.936 156.229C167.486 156.389 167.91 156.623 168.207 156.932C168.504 157.24 168.654 157.609 168.658 158.039C168.654 158.465 168.504 158.832 168.207 159.141C167.91 159.449 167.486 159.684 166.936 159.844C166.385 160.008 165.732 160.09 164.979 160.09C164.225 160.09 163.572 160.008 163.021 159.844C162.471 159.684 162.047 159.449 161.75 159.141C161.457 158.832 161.311 158.465 161.311 158.039C161.311 157.609 161.457 157.24 161.75 156.932C162.047 156.623 162.469 156.389 163.016 156.229C163.566 156.064 164.221 155.98 164.979 155.977ZM164.979 157.125C163.525 157.125 162.799 157.43 162.799 158.039C162.799 158.344 162.982 158.572 163.35 158.725C163.721 158.877 164.264 158.953 164.979 158.953C165.693 158.953 166.236 158.877 166.607 158.725C166.982 158.568 167.17 158.34 167.17 158.039C167.17 157.43 166.439 157.125 164.979 157.125ZM165.787 151.254H163.666C163.678 151.684 163.773 152.098 163.953 152.496C164.137 152.891 164.408 153.246 164.768 153.562C165.131 153.879 165.58 154.125 166.115 154.301L165.377 155.473C164.807 155.289 164.314 155.016 163.9 154.652C163.49 154.285 163.166 153.854 162.928 153.357C162.682 153.92 162.342 154.408 161.908 154.822C161.475 155.232 160.951 155.543 160.338 155.754L159.564 154.57C160.127 154.383 160.598 154.117 160.977 153.773C161.359 153.426 161.645 153.035 161.832 152.602C162.023 152.168 162.127 151.719 162.143 151.254H159.998V150.059H165.787V151.254ZM173.463 150.129C174.018 150.125 174.52 150.236 174.969 150.463C175.422 150.686 175.775 150.996 176.029 151.395C176.287 151.793 176.416 152.242 176.416 152.742C176.416 153.246 176.287 153.697 176.029 154.096C175.775 154.494 175.424 154.807 174.975 155.033C174.525 155.256 174.021 155.367 173.463 155.367C172.904 155.367 172.398 155.256 171.945 155.033C171.496 154.807 171.143 154.494 170.885 154.096C170.627 153.697 170.498 153.246 170.498 152.742C170.498 152.242 170.627 151.793 170.885 151.395C171.143 150.996 171.498 150.686 171.951 150.463C172.404 150.236 172.908 150.125 173.463 150.129ZM173.463 151.418C173.182 151.418 172.928 151.471 172.701 151.576C172.475 151.682 172.297 151.836 172.168 152.039C172.043 152.238 171.982 152.473 171.986 152.742C171.982 153.016 172.043 153.252 172.168 153.451C172.297 153.65 172.473 153.803 172.695 153.908C172.922 154.014 173.178 154.066 173.463 154.066C173.748 154.066 174.002 154.014 174.225 153.908C174.451 153.803 174.629 153.65 174.758 153.451C174.891 153.252 174.959 153.016 174.963 152.742C174.959 152.469 174.893 152.232 174.764 152.033C174.635 151.834 174.457 151.682 174.23 151.576C174.004 151.471 173.748 151.418 173.463 151.418ZM178.971 160.102H177.482V149.414H178.971V160.102ZM170.639 156.703C173.143 156.703 175.221 156.59 176.873 156.363L176.99 157.441C175.943 157.645 174.875 157.775 173.785 157.834C172.695 157.893 171.51 157.922 170.229 157.922L170.053 156.703H170.639ZM188.838 152.484H190.279V153.738H188.838V157.277H187.338V149.426H188.838V152.484ZM189.248 159.891H181.959V156.645H183.471V158.695H189.248V159.891ZM185.65 153.41H182.252V154.535C183.162 154.531 183.943 154.506 184.596 154.459C185.248 154.412 185.904 154.328 186.564 154.207L186.729 155.414C186.006 155.547 185.273 155.635 184.531 155.678C183.793 155.721 182.838 155.742 181.666 155.742H180.764V152.285H184.197V151.266H180.752V150.07H185.65V153.41ZM203.264 156.574H199.092V160.066H197.615V156.574H193.502V155.379H203.264V156.574ZM202.092 154.23H194.65V149.93H202.092V154.23ZM196.127 153.059H200.604V151.113H196.127V153.059ZM212.873 156.574H211.385V153.363H209.598C209.5 153.754 209.32 154.102 209.059 154.406C208.801 154.707 208.482 154.941 208.104 155.109C207.725 155.273 207.311 155.355 206.861 155.355C206.33 155.355 205.848 155.242 205.414 155.016C204.98 154.785 204.639 154.471 204.389 154.072C204.143 153.67 204.021 153.219 204.025 152.719C204.021 152.211 204.143 151.758 204.389 151.359C204.635 150.961 204.975 150.65 205.408 150.428C205.842 150.205 206.326 150.094 206.861 150.094C207.322 150.094 207.746 150.18 208.133 150.352C208.52 150.523 208.842 150.766 209.1 151.078C209.357 151.387 209.529 151.746 209.615 152.156H211.385V149.414H212.873V156.574ZM206.861 151.348C206.584 151.348 206.338 151.404 206.123 151.518C205.908 151.631 205.74 151.791 205.619 151.998C205.498 152.205 205.439 152.445 205.443 152.719C205.439 152.996 205.496 153.238 205.613 153.445C205.734 153.648 205.902 153.805 206.117 153.914C206.336 154.023 206.584 154.078 206.861 154.078C207.123 154.078 207.359 154.023 207.57 153.914C207.785 153.805 207.953 153.648 208.074 153.445C208.195 153.238 208.256 152.996 208.256 152.719C208.256 152.449 208.193 152.211 208.068 152.004C207.947 151.793 207.781 151.631 207.57 151.518C207.359 151.404 207.123 151.348 206.861 151.348ZM210.061 156.223C210.057 156.609 210.184 156.986 210.441 157.354C210.699 157.721 211.086 158.039 211.602 158.309C212.121 158.574 212.748 158.754 213.482 158.848L212.896 160.02C212.049 159.898 211.314 159.658 210.693 159.299C210.076 158.939 209.604 158.494 209.275 157.963C208.936 158.49 208.455 158.934 207.834 159.293C207.217 159.656 206.486 159.898 205.643 160.02L205.115 158.848C205.822 158.746 206.432 158.557 206.943 158.279C207.459 158.002 207.85 157.682 208.115 157.318C208.385 156.951 208.521 156.586 208.525 156.223V155.918H210.061V156.223ZM223.186 157.09H221.686V149.426H223.186V157.09ZM223.467 159.891H216.037V156.316H217.549V158.695H223.467V159.891ZM217.338 150.105C217.881 150.105 218.373 150.221 218.814 150.451C219.26 150.682 219.611 151.002 219.869 151.412C220.127 151.818 220.256 152.277 220.256 152.789C220.256 153.309 220.127 153.775 219.869 154.189C219.615 154.6 219.266 154.92 218.82 155.15C218.375 155.381 217.881 155.496 217.338 155.496C216.795 155.496 216.301 155.381 215.855 155.15C215.41 154.92 215.059 154.6 214.801 154.189C214.547 153.775 214.42 153.309 214.42 152.789C214.42 152.277 214.549 151.818 214.807 151.412C215.064 151.002 215.414 150.682 215.855 150.451C216.301 150.221 216.795 150.105 217.338 150.105ZM217.338 151.406C217.061 151.402 216.811 151.457 216.588 151.57C216.365 151.68 216.191 151.84 216.066 152.051C215.941 152.262 215.881 152.508 215.885 152.789C215.881 153.078 215.941 153.33 216.066 153.545C216.191 153.756 216.363 153.918 216.582 154.031C216.805 154.141 217.057 154.195 217.338 154.195C217.611 154.195 217.855 154.141 218.07 154.031C218.289 153.918 218.461 153.756 218.586 153.545C218.715 153.33 218.779 153.078 218.779 152.789C218.779 152.508 218.715 152.262 218.586 152.051C218.461 151.84 218.289 151.68 218.07 151.57C217.852 151.457 217.607 151.402 217.338 151.406ZM233.041 153.504H234.553V154.734H233.041V160.055H231.541V149.414H233.041V153.504ZM230.193 150.504C230.186 152.203 229.803 153.705 229.045 155.01C228.291 156.311 227.061 157.379 225.354 158.215L224.51 157.066C225.779 156.43 226.754 155.676 227.434 154.805C228.117 153.934 228.529 152.906 228.67 151.723H225.119V150.504H230.193Z" fill="#00754E"/>
<path d="M141.523 217.078H140.082V211.652H139.109V216.609H137.715V206.695H139.109V210.457H140.082V206.414H141.523V217.078ZM136.965 207.727C136.961 208.773 136.838 209.727 136.596 210.586C136.354 211.441 135.945 212.232 135.371 212.959C134.801 213.682 134.031 214.324 133.062 214.887L132.195 213.855C133.258 213.23 134.049 212.521 134.568 211.729C135.088 210.932 135.4 209.996 135.506 208.922H132.734V207.727H136.965ZM151.285 207.996C151.285 208.676 151.27 209.277 151.238 209.801C151.207 210.32 151.131 210.91 151.01 211.57H152.422V212.777H148.262V217.09H146.762V212.777H142.695V211.57H149.498C149.623 210.953 149.703 210.389 149.738 209.877C149.777 209.361 149.797 208.812 149.797 208.23H143.809V207.035H151.285V207.996ZM162.008 217.102H160.52V206.414H162.008V217.102ZM158.703 211.418H155.188V213.375C156.023 213.371 156.803 213.342 157.525 213.287C158.252 213.232 158.996 213.145 159.758 213.023L159.887 214.23C159.059 214.375 158.234 214.475 157.414 214.529C156.594 214.58 155.656 214.605 154.602 214.605H153.641V210.234H157.18V208.512H153.629V207.305H158.703V211.418ZM166.613 207.047C167.156 207.047 167.65 207.158 168.096 207.381C168.541 207.604 168.893 207.914 169.15 208.312C169.408 208.707 169.539 209.156 169.543 209.66C169.539 210.082 169.445 210.469 169.262 210.82C169.078 211.168 168.822 211.461 168.494 211.699C168.17 211.934 167.797 212.098 167.375 212.191V213.65C168.262 213.607 169.086 213.535 169.848 213.434L169.953 214.535C169.129 214.691 168.271 214.799 167.381 214.857C166.49 214.916 165.566 214.945 164.609 214.945C164.352 214.945 164.16 214.941 164.035 214.934H163.508L163.309 213.727H163.965L165.887 213.703V212.203C165.453 212.117 165.068 211.957 164.732 211.723C164.4 211.484 164.143 211.189 163.959 210.838C163.775 210.482 163.684 210.09 163.684 209.66C163.684 209.156 163.809 208.707 164.059 208.312C164.312 207.914 164.662 207.604 165.107 207.381C165.553 207.158 166.055 207.047 166.613 207.047ZM166.613 208.312C166.328 208.312 166.074 208.367 165.852 208.477C165.629 208.582 165.455 208.736 165.33 208.939C165.205 209.143 165.145 209.383 165.148 209.66C165.145 209.934 165.205 210.174 165.33 210.381C165.455 210.584 165.629 210.74 165.852 210.85C166.078 210.955 166.332 211.008 166.613 211.008C166.887 211.008 167.133 210.953 167.352 210.844C167.574 210.734 167.748 210.578 167.873 210.375C168.002 210.172 168.066 209.934 168.066 209.66C168.066 209.383 168.002 209.143 167.873 208.939C167.748 208.736 167.576 208.582 167.357 208.477C167.139 208.367 166.891 208.312 166.613 208.312ZM171.91 210.598H173.363V211.852H171.91V217.078H170.41V206.414H171.91V210.598ZM185.176 211.383H177.805V206.977H185.07V208.172H179.34V210.211H185.176V211.383ZM186.324 213.645H182.152V217.066H180.676V213.645H176.562V212.461H186.324V213.645ZM195.863 217.078H194.375V211.57H192.734C192.582 212.305 192.357 212.998 192.061 213.65C191.768 214.303 191.383 214.922 190.906 215.508L189.734 214.676C190.203 214.102 190.572 213.508 190.842 212.895C191.111 212.281 191.305 211.643 191.422 210.979C191.543 210.314 191.619 209.562 191.65 208.723H190.461V207.504H193.062C193.062 208.633 193.018 209.586 192.928 210.363H194.375V206.414H195.863V217.078ZM190.133 207.504C190.129 208.594 190.07 209.547 189.957 210.363C189.844 211.176 189.625 211.953 189.301 212.695C188.98 213.438 188.516 214.145 187.906 214.816L186.734 213.984C187.207 213.473 187.582 212.951 187.859 212.42C188.137 211.885 188.338 211.322 188.463 210.732C188.592 210.143 188.672 209.473 188.703 208.723H187.203V207.504H190.133ZM206.246 217.102H204.734V206.414H206.246V217.102ZM199.344 209.859H201.641V207.258H203.117V214.605H197.844V207.258H199.344V209.859ZM201.641 213.398V211.02H199.344V213.398H201.641ZM211.145 207.129C211.699 207.125 212.201 207.236 212.65 207.463C213.104 207.686 213.457 207.996 213.711 208.395C213.969 208.793 214.098 209.242 214.098 209.742C214.098 210.246 213.969 210.697 213.711 211.096C213.457 211.494 213.105 211.807 212.656 212.033C212.207 212.256 211.703 212.367 211.145 212.367C210.586 212.367 210.08 212.256 209.627 212.033C209.178 211.807 208.824 211.494 208.566 211.096C208.309 210.697 208.18 210.246 208.18 209.742C208.18 209.242 208.309 208.793 208.566 208.395C208.824 207.996 209.18 207.686 209.633 207.463C210.086 207.236 210.59 207.125 211.145 207.129ZM211.145 208.418C210.863 208.418 210.609 208.471 210.383 208.576C210.156 208.682 209.979 208.836 209.85 209.039C209.725 209.238 209.664 209.473 209.668 209.742C209.664 210.016 209.725 210.252 209.85 210.451C209.979 210.65 210.154 210.803 210.377 210.908C210.604 211.014 210.859 211.066 211.145 211.066C211.43 211.066 211.684 211.014 211.906 210.908C212.133 210.803 212.311 210.65 212.439 210.451C212.572 210.252 212.641 210.016 212.645 209.742C212.641 209.469 212.574 209.232 212.445 209.033C212.316 208.834 212.139 208.682 211.912 208.576C211.686 208.471 211.43 208.418 211.145 208.418ZM216.652 217.102H215.164V206.414H216.652V217.102ZM208.32 213.703C210.824 213.703 212.902 213.59 214.555 213.363L214.672 214.441C213.625 214.645 212.557 214.775 211.467 214.834C210.377 214.893 209.191 214.922 207.91 214.922L207.734 213.703H208.32ZM229.238 210.586H230.809V211.816H229.238V217.078H227.762V206.414H229.238V210.586ZM227.035 209.203H220.766V208.008H223.18V206.578H224.68V208.008H227.035V209.203ZM223.93 209.801C224.445 209.801 224.908 209.91 225.318 210.129C225.732 210.344 226.057 210.645 226.291 211.031C226.529 211.418 226.648 211.855 226.648 212.344C226.648 212.832 226.529 213.27 226.291 213.656C226.057 214.043 225.732 214.346 225.318 214.564C224.908 214.779 224.445 214.887 223.93 214.887C223.41 214.887 222.943 214.779 222.529 214.564C222.115 214.346 221.789 214.043 221.551 213.656C221.316 213.27 221.199 212.832 221.199 212.344C221.199 211.855 221.316 211.418 221.551 211.031C221.789 210.645 222.115 210.344 222.529 210.129C222.943 209.91 223.41 209.801 223.93 209.801ZM223.93 211.008C223.68 211.012 223.455 211.068 223.256 211.178C223.061 211.287 222.906 211.441 222.793 211.641C222.684 211.84 222.629 212.074 222.629 212.344C222.629 212.617 222.684 212.854 222.793 213.053C222.906 213.252 223.061 213.404 223.256 213.51C223.455 213.611 223.68 213.66 223.93 213.656C224.18 213.66 224.402 213.611 224.598 213.51C224.793 213.404 224.945 213.252 225.055 213.053C225.164 212.854 225.219 212.617 225.219 212.344C225.219 212.074 225.164 211.84 225.055 211.641C224.945 211.441 224.793 211.287 224.598 211.178C224.402 211.068 224.18 211.012 223.93 211.008ZM239.82 209.918H233.855V210.809H240.066V212.004H232.344V208.793H238.285V207.949H232.309V206.742H239.82V209.918ZM240.945 213.996H236.797V217.102H235.297V213.996H231.184V212.801H240.945V213.996ZM249.98 210.586H251.551V211.816H249.98V217.078H248.504V206.414H249.98V210.586ZM247.777 209.203H241.508V208.008H243.922V206.578H245.422V208.008H247.777V209.203ZM244.672 209.801C245.188 209.801 245.65 209.91 246.061 210.129C246.475 210.344 246.799 210.645 247.033 211.031C247.271 211.418 247.391 211.855 247.391 212.344C247.391 212.832 247.271 213.27 247.033 213.656C246.799 214.043 246.475 214.346 246.061 214.564C245.65 214.779 245.188 214.887 244.672 214.887C244.152 214.887 243.686 214.779 243.271 214.564C242.857 214.346 242.531 214.043 242.293 213.656C242.059 213.27 241.941 212.832 241.941 212.344C241.941 211.855 242.059 211.418 242.293 211.031C242.531 210.645 242.857 210.344 243.271 210.129C243.686 209.91 244.152 209.801 244.672 209.801ZM244.672 211.008C244.422 211.012 244.197 211.068 243.998 211.178C243.803 211.287 243.648 211.441 243.535 211.641C243.426 211.84 243.371 212.074 243.371 212.344C243.371 212.617 243.426 212.854 243.535 213.053C243.648 213.252 243.803 213.404 243.998 213.51C244.197 213.611 244.422 213.66 244.672 213.656C244.922 213.66 245.145 213.611 245.34 213.51C245.535 213.404 245.688 213.252 245.797 213.053C245.906 212.854 245.961 212.617 245.961 212.344C245.961 212.074 245.906 211.84 245.797 211.641C245.688 211.441 245.535 211.287 245.34 211.178C245.145 211.068 244.922 211.012 244.672 211.008ZM260.562 209.918H254.598V210.809H260.809V212.004H253.086V208.793H259.027V207.949H253.051V206.742H260.562V209.918ZM261.688 213.996H257.539V217.102H256.039V213.996H251.926V212.801H261.688V213.996Z" fill="#AE4039"/>
<path d="M173.516 265.215H170.445V267.664H174.582V268.859H164.82V267.664H168.934V265.215H165.91V260.234H167.445V264.008H173.516V265.215ZM184.953 268.859H175.191V267.641H184.953V268.859ZM183.828 263.68H177.816V264.898H184.074V266.07H176.316V262.484H182.352V261.324H176.305V260.129H183.828V263.68ZM188.246 260.012C188.695 260.012 189.098 260.1 189.453 260.275C189.812 260.447 190.094 260.688 190.297 260.996C190.504 261.301 190.609 261.648 190.613 262.039C190.609 262.43 190.504 262.777 190.297 263.082C190.094 263.387 189.812 263.625 189.453 263.797C189.098 263.969 188.695 264.055 188.246 264.055C187.789 264.055 187.379 263.969 187.016 263.797C186.652 263.625 186.367 263.387 186.16 263.082C185.957 262.777 185.855 262.43 185.855 262.039C185.855 261.648 185.957 261.301 186.16 260.996C186.367 260.688 186.652 260.447 187.016 260.275C187.379 260.1 187.789 260.012 188.246 260.012ZM188.246 261.113C187.922 261.113 187.662 261.197 187.467 261.365C187.275 261.529 187.18 261.754 187.18 262.039C187.18 262.32 187.275 262.541 187.467 262.701C187.658 262.861 187.918 262.945 188.246 262.953C188.559 262.945 188.809 262.861 188.996 262.701C189.188 262.541 189.285 262.32 189.289 262.039C189.285 261.754 189.188 261.529 188.996 261.365C188.805 261.197 188.555 261.113 188.246 261.113ZM194.938 270.078H193.531V259.414H194.938V270.078ZM192.781 269.586H191.375V267.406H189.676V266.27H191.375V259.59H192.781V269.586ZM186.09 264.617C188.141 264.617 189.723 264.531 190.836 264.359L190.953 265.473C190.387 265.582 189.707 265.67 188.914 265.736V269.234H187.508V265.812C187.141 265.828 186.633 265.836 185.984 265.836H185.574L185.41 264.617H186.09ZM204.863 270.102H203.352V259.414H204.863V270.102ZM199.074 260.164C199.609 260.164 200.088 260.32 200.51 260.633C200.936 260.945 201.27 261.389 201.512 261.963C201.754 262.537 201.875 263.203 201.875 263.961C201.875 264.727 201.754 265.398 201.512 265.977C201.27 266.551 200.936 266.994 200.51 267.307C200.088 267.615 199.609 267.77 199.074 267.77C198.527 267.77 198.039 267.615 197.609 267.307C197.18 266.994 196.844 266.551 196.602 265.977C196.363 265.398 196.246 264.727 196.25 263.961C196.246 263.203 196.363 262.537 196.602 261.963C196.844 261.389 197.18 260.945 197.609 260.633C198.039 260.32 198.527 260.164 199.074 260.164ZM199.074 261.512C198.797 261.512 198.553 261.607 198.342 261.799C198.135 261.986 197.975 262.264 197.861 262.631C197.748 262.998 197.691 263.441 197.691 263.961C197.691 264.484 197.748 264.93 197.861 265.297C197.975 265.664 198.135 265.941 198.342 266.129C198.553 266.316 198.797 266.41 199.074 266.41C199.348 266.41 199.586 266.316 199.789 266.129C199.992 265.938 200.15 265.658 200.264 265.291C200.377 264.924 200.434 264.48 200.434 263.961C200.434 263.445 200.377 263.004 200.264 262.637C200.15 262.266 199.99 261.986 199.783 261.799C199.58 261.607 199.344 261.512 199.074 261.512ZM209.762 260.129C210.316 260.125 210.818 260.236 211.268 260.463C211.721 260.686 212.074 260.996 212.328 261.395C212.586 261.793 212.715 262.242 212.715 262.742C212.715 263.246 212.586 263.697 212.328 264.096C212.074 264.494 211.723 264.807 211.273 265.033C210.824 265.256 210.32 265.367 209.762 265.367C209.203 265.367 208.697 265.256 208.244 265.033C207.795 264.807 207.441 264.494 207.184 264.096C206.926 263.697 206.797 263.246 206.797 262.742C206.797 262.242 206.926 261.793 207.184 261.395C207.441 260.996 207.797 260.686 208.25 260.463C208.703 260.236 209.207 260.125 209.762 260.129ZM209.762 261.418C209.48 261.418 209.227 261.471 209 261.576C208.773 261.682 208.596 261.836 208.467 262.039C208.342 262.238 208.281 262.473 208.285 262.742C208.281 263.016 208.342 263.252 208.467 263.451C208.596 263.65 208.771 263.803 208.994 263.908C209.221 264.014 209.477 264.066 209.762 264.066C210.047 264.066 210.301 264.014 210.523 263.908C210.75 263.803 210.928 263.65 211.057 263.451C211.189 263.252 211.258 263.016 211.262 262.742C211.258 262.469 211.191 262.232 211.062 262.033C210.934 261.834 210.756 261.682 210.529 261.576C210.303 261.471 210.047 261.418 209.762 261.418ZM215.27 270.102H213.781V259.414H215.27V270.102ZM206.938 266.703C209.441 266.703 211.52 266.59 213.172 266.363L213.289 267.441C212.242 267.645 211.174 267.775 210.084 267.834C208.994 267.893 207.809 267.922 206.527 267.922L206.352 266.703H206.938ZM228.125 267.395H226.695V268.719H228.242V269.914H220.391V268.719H221.938V267.395H220.484V266.223H223.555V265.344H219.441V264.148H229.168V265.344H225.043V266.223H228.125V267.395ZM225.078 259.871C225.078 260.25 225.217 260.623 225.494 260.99C225.775 261.354 226.188 261.668 226.73 261.934C227.277 262.199 227.93 262.375 228.688 262.461L228.16 263.621C227.258 263.508 226.477 263.273 225.816 262.918C225.16 262.562 224.656 262.119 224.305 261.588C223.953 262.115 223.447 262.559 222.787 262.918C222.131 263.273 221.355 263.508 220.461 263.621L219.922 262.461C220.684 262.371 221.336 262.195 221.879 261.934C222.426 261.668 222.838 261.355 223.115 260.996C223.396 260.633 223.539 260.258 223.543 259.871V259.52H225.078V259.871ZM225.23 268.719V267.395H223.414V268.719H225.23Z" fill="#A78500"/>
</svg>
