<svg viewBox="0 0 390 302" fill="none" xmlns="http://www.w3.org/2000/svg">
<circle cx="284.868" cy="75.8684" r="13.8684" fill="#313239"/>
<circle cx="324.026" cy="90.5525" r="8.97368" fill="#313239"/>
<circle cx="309.342" cy="118.289" r="5.71053" fill="#313239"/>
<circle cx="96.1316" cy="120.132" r="13.8684" transform="rotate(180 96.1316 120.132)" fill="#313239"/>
<circle cx="56.9736" cy="105.447" r="8.97368" transform="rotate(180 56.9736 105.447)" fill="#313239"/>
<circle cx="71.6576" cy="77.7106" r="5.71053" transform="rotate(180 71.6576 77.7106)" fill="#313239"/>
<path d="M390 134H0V189H390V134Z" fill="#75F3C9"/>
<path d="M166.623 149.414V155.742H165.135V153.223H163.471V152.016H165.135V149.414H166.623ZM162.979 155.977C165.252 155.988 166.646 156.738 166.658 158.039C166.646 159.328 165.252 160.09 162.979 160.09C160.705 160.09 159.311 159.328 159.311 158.039C159.311 156.738 160.705 155.988 162.979 155.977ZM162.979 157.125C161.561 157.125 160.799 157.418 160.799 158.039C160.799 158.648 161.561 158.953 162.979 158.953C164.396 158.953 165.17 158.648 165.17 158.039C165.17 157.418 164.396 157.125 162.979 157.125ZM163.787 150.059V151.254H161.666C161.701 152.496 162.451 153.75 164.115 154.301L163.377 155.473C162.199 155.092 161.391 154.318 160.928 153.352C160.453 154.441 159.604 155.32 158.338 155.754L157.564 154.57C159.316 153.984 160.102 152.59 160.143 151.254H157.998V150.059H163.787ZM171.463 150.129C173.15 150.117 174.416 151.219 174.416 152.742C174.416 154.277 173.15 155.367 171.463 155.367C169.775 155.367 168.498 154.277 168.498 152.742C168.498 151.219 169.775 150.117 171.463 150.129ZM171.463 151.418C170.619 151.418 169.975 151.91 169.986 152.742C169.975 153.586 170.619 154.066 171.463 154.066C172.307 154.066 172.951 153.586 172.963 152.742C172.951 151.91 172.318 151.418 171.463 151.418ZM176.971 149.414V160.102H175.482V149.414H176.971ZM168.053 156.703C169.951 156.715 172.588 156.68 174.873 156.363L174.99 157.441C172.623 157.898 170.092 157.922 168.229 157.922L168.053 156.703ZM186.838 149.426V152.484H188.279V153.738H186.838V157.277H185.338V149.426H186.838ZM187.248 158.695V159.891H179.959V156.645H181.471V158.695H187.248ZM183.65 150.07V153.41H180.252V154.535C182.016 154.529 183.211 154.453 184.564 154.207L184.729 155.414C183.193 155.695 181.822 155.742 179.666 155.742H178.764V152.285H182.197V151.266H178.752V150.07H183.65ZM201.264 155.379V156.574H197.092V160.066H195.615V156.574H191.502V155.379H201.264ZM200.092 149.93V154.23H192.65V149.93H200.092ZM194.127 151.113V153.059H198.604V151.113H194.127ZM210.873 149.414V156.574H209.385V153.363H207.604C207.305 154.547 206.221 155.355 204.861 155.355C203.244 155.355 202.014 154.242 202.025 152.719C202.014 151.172 203.244 150.094 204.861 150.094C206.256 150.094 207.357 150.914 207.615 152.156H209.385V149.414H210.873ZM204.861 151.348C204.029 151.348 203.432 151.887 203.443 152.719C203.432 153.574 204.029 154.078 204.861 154.078C205.646 154.078 206.256 153.574 206.256 152.719C206.256 151.887 205.646 151.348 204.861 151.348ZM208.061 156.223C208.049 157.348 209.186 158.555 211.482 158.848L210.896 160.02C209.156 159.773 207.914 158.994 207.275 157.957C206.619 158.982 205.377 159.773 203.643 160.02L203.115 158.848C205.33 158.531 206.514 157.277 206.525 156.223V155.918H208.061V156.223ZM221.186 149.426V157.09H219.686V149.426H221.186ZM221.467 158.695V159.891H214.037V156.316H215.549V158.695H221.467ZM215.338 150.105C216.979 150.105 218.256 151.23 218.256 152.789C218.256 154.383 216.979 155.496 215.338 155.496C213.697 155.496 212.42 154.383 212.42 152.789C212.42 151.23 213.697 150.105 215.338 150.105ZM215.338 151.406C214.506 151.395 213.873 151.922 213.885 152.789C213.873 153.68 214.506 154.195 215.338 154.195C216.146 154.195 216.779 153.68 216.779 152.789C216.779 151.922 216.146 151.395 215.338 151.406ZM231.041 149.414V153.504H232.553V154.734H231.041V160.055H229.541V149.414H231.041ZM228.193 150.504C228.182 153.691 226.939 156.457 223.354 158.215L222.51 157.066C225.035 155.801 226.389 154.102 226.67 151.723H223.119V150.504H228.193Z" fill="#00754E"/>
<circle cx="32.5" cy="144.5" r="8.5" fill="#B0FFE5"/>
<circle cx="56.5" cy="153.5" r="5.5" fill="#B0FFE5"/>
<circle cx="47.5" cy="170.5" r="3.5" fill="#B0FFE5"/>
<path d="M226.869 129H96.8691C116.129 129 129.999 125.999 129.999 125.999C129.999 125.999 161.209 119.251 194.999 125.999C206.259 128.248 217.239 129 226.869 129Z" fill="#75F3C9"/>
<path d="M96.87 129H0V125.999C0 125.999 31.21 119.251 65 125.999C76.26 128.248 87.24 129 96.87 129Z" fill="#75F3C9"/>
<path d="M389.999 126V129H356.869C376.129 129 389.999 126 389.999 126Z" fill="#75F3C9"/>
<path d="M390 125C390 125 380 128 356.869 127.539" stroke="#B0FFE5" stroke-width="2"/>
<path d="M356.869 127.538C347.239 127.538 336.259 126.844 324.999 124.769C291.209 118.539 259.999 124.769 259.999 124.769C259.999 124.769 246.129 127.538 226.869 127.538" stroke="#B0FFE5" stroke-width="2"/>
<path d="M226.869 127.538C217.239 127.538 208.001 127.805 195.5 125.5C161.71 119.27 130 125 130 125C130 125 115.76 128 96.5 128" stroke="#B0FFE5" stroke-width="2"/>
<path d="M96.5 128C86.87 128 71.2971 126.661 65 125.5C31.21 119.27 0 125 0 125" stroke="#B0FFE5" stroke-width="2"/>
<path d="M356.869 128.462H226.869C246.129 128.462 259.999 125.692 259.999 125.692C259.999 125.692 291.209 119.462 324.999 125.692C336.259 127.767 347.239 128.462 356.869 128.462Z" fill="#75F3C9"/>
<rect y="128.461" width="390" height="5.53846" fill="#75F3C9"/>
<path d="M390 190H0V245H390V190Z" fill="#FF8BCA"/>
<path d="M139.523 205.414V216.078H138.082V210.652H137.109V215.609H135.715V205.695H137.109V209.457H138.082V205.414H139.523ZM134.965 206.727C134.953 209.703 134.062 212.141 131.062 213.887L130.195 212.855C132.369 211.578 133.301 210.014 133.512 207.922H130.734V206.727H134.965ZM149.285 206.035V206.996C149.285 207.992 149.285 209.082 149.016 210.57H150.422V211.777H146.262V216.09H144.762V211.777H140.695V210.57H147.504C147.773 209.193 147.797 208.15 147.797 207.23H141.809V206.035H149.285ZM160.008 205.414V216.102H158.52V205.414H160.008ZM156.703 206.305V210.418H153.188V212.375C154.811 212.369 156.193 212.275 157.758 212.023L157.887 213.23C156.129 213.535 154.547 213.605 152.602 213.605H151.641V209.234H155.18V207.512H151.629V206.305H156.703ZM164.613 206.047C166.254 206.047 167.531 207.125 167.543 208.66C167.531 209.949 166.635 210.916 165.375 211.191V212.645C166.219 212.609 167.057 212.539 167.848 212.434L167.953 213.535C165.727 213.957 163.324 213.957 161.508 213.934L161.309 212.727C162.076 212.721 162.961 212.721 163.887 212.703V211.203C162.58 210.939 161.684 209.967 161.684 208.66C161.684 207.125 162.926 206.047 164.613 206.047ZM164.613 207.312C163.77 207.312 163.137 207.805 163.148 208.66C163.137 209.504 163.77 210.008 164.613 210.008C165.434 210.008 166.066 209.504 166.066 208.66C166.066 207.805 165.434 207.312 164.613 207.312ZM169.91 205.414V209.598H171.363V210.852H169.91V216.078H168.41V205.414H169.91ZM183.176 209.211V210.383H175.805V205.977H183.07V207.172H177.34V209.211H183.176ZM184.324 211.461V212.645H180.152V216.066H178.676V212.645H174.562V211.461H184.324ZM193.863 205.414V216.078H192.375V210.57H190.734C190.441 211.977 189.896 213.289 188.906 214.508L187.734 213.676C189.182 211.895 189.568 210.066 189.656 207.723H188.461V206.504H191.062C191.062 207.5 191.033 208.449 190.934 209.363H192.375V205.414H193.863ZM188.133 206.504C188.121 209.434 187.816 211.719 185.906 213.816L184.734 212.984C186.188 211.414 186.609 209.85 186.703 207.723H185.203V206.504H188.133ZM204.246 205.414V216.102H202.734V205.414H204.246ZM197.344 206.258V208.859H199.641V206.258H201.117V213.605H195.844V206.258H197.344ZM197.344 212.398H199.641V210.02H197.344V212.398ZM209.145 206.129C210.832 206.117 212.098 207.219 212.098 208.742C212.098 210.277 210.832 211.367 209.145 211.367C207.457 211.367 206.18 210.277 206.18 208.742C206.18 207.219 207.457 206.117 209.145 206.129ZM209.145 207.418C208.301 207.418 207.656 207.91 207.668 208.742C207.656 209.586 208.301 210.066 209.145 210.066C209.988 210.066 210.633 209.586 210.645 208.742C210.633 207.91 210 207.418 209.145 207.418ZM214.652 205.414V216.102H213.164V205.414H214.652ZM205.734 212.703C207.633 212.715 210.27 212.68 212.555 212.363L212.672 213.441C210.305 213.898 207.773 213.922 205.91 213.922L205.734 212.703ZM227.238 205.414V209.586H228.809V210.816H227.238V216.078H225.762V205.414H227.238ZM225.035 207.008V208.203H218.766V207.008H221.18V205.578H222.68V207.008H225.035ZM221.93 208.801C223.488 208.801 224.648 209.855 224.648 211.344C224.648 212.832 223.488 213.887 221.93 213.887C220.359 213.887 219.199 212.832 219.199 211.344C219.199 209.855 220.359 208.801 221.93 208.801ZM221.93 210.008C221.18 210.02 220.629 210.523 220.629 211.344C220.629 212.176 221.18 212.668 221.93 212.656C222.68 212.668 223.219 212.176 223.219 211.344C223.219 210.523 222.68 210.02 221.93 210.008ZM237.82 205.742V208.918H231.855V209.809H238.066V211.004H230.344V207.793H236.285V206.949H230.309V205.742H237.82ZM238.945 211.801V212.996H234.797V216.102H233.297V212.996H229.184V211.801H238.945ZM247.98 205.414V209.586H249.551V210.816H247.98V216.078H246.504V205.414H247.98ZM245.777 207.008V208.203H239.508V207.008H241.922V205.578H243.422V207.008H245.777ZM242.672 208.801C244.23 208.801 245.391 209.855 245.391 211.344C245.391 212.832 244.23 213.887 242.672 213.887C241.102 213.887 239.941 212.832 239.941 211.344C239.941 209.855 241.102 208.801 242.672 208.801ZM242.672 210.008C241.922 210.02 241.371 210.523 241.371 211.344C241.371 212.176 241.922 212.668 242.672 212.656C243.422 212.668 243.961 212.176 243.961 211.344C243.961 210.523 243.422 210.02 242.672 210.008ZM258.562 205.742V208.918H252.598V209.809H258.809V211.004H251.086V207.793H257.027V206.949H251.051V205.742H258.562ZM259.688 211.801V212.996H255.539V216.102H254.039V212.996H249.926V211.801H259.688Z" fill="#AE4039"/>
<path d="M226.869 185H96.8691C116.129 185 129.999 181.999 129.999 181.999C129.999 181.999 161.209 175.251 194.999 181.999C206.259 184.248 217.239 185 226.869 185Z" fill="#FF8BCA"/>
<path d="M96.87 185H0V181.999C0 181.999 31.21 175.251 65 181.999C76.26 184.248 87.24 185 96.87 185Z" fill="#FF8BCA"/>
<path d="M389.999 182V185H356.869C376.129 185 389.999 182 389.999 182Z" fill="#FF8BCA"/>
<path d="M390 181C390 181 380 184 356.869 183.539" stroke="#FFADDA" stroke-width="2"/>
<path d="M356.869 183.538C347.239 183.538 336.259 182.844 324.999 180.769C291.209 174.539 259.999 180.769 259.999 180.769C259.999 180.769 246.129 183.538 226.869 183.538" stroke="#FFADDA" stroke-width="2"/>
<path d="M226.869 183.538C217.239 183.538 208.001 183.805 195.5 181.5C161.71 175.27 130 181 130 181C130 181 115.76 184 96.5 184" stroke="#FFADDA" stroke-width="2"/>
<path d="M96.5 184C86.87 184 71.2971 182.661 65 181.5C31.21 175.27 0 181 0 181" stroke="#FFADDA" stroke-width="2"/>
<path d="M356.869 184.462H226.869C246.129 184.462 259.999 181.692 259.999 181.692C259.999 181.692 291.209 175.462 324.999 181.692C336.259 183.767 347.239 184.462 356.869 184.462Z" fill="#FF8BCA"/>
<rect y="184.461" width="390" height="5.53846" fill="#FF8BCA"/>
<path d="M390 246H0V301H390V246Z" fill="#FFDA4A"/>
<path d="M171.516 266.008V267.215H168.445V269.664H172.582V270.859H162.82V269.664H166.934V267.215H163.91V262.234H165.445V266.008H171.516ZM182.953 269.641V270.859H173.191V269.641H182.953ZM181.828 262.129V265.68H175.816V266.898H182.074V268.07H174.316V264.484H180.352V263.324H174.305V262.129H181.828ZM186.246 262.012C187.605 262.012 188.602 262.855 188.613 264.039C188.602 265.223 187.605 266.055 186.246 266.055C184.863 266.055 183.855 265.223 183.855 264.039C183.855 262.855 184.863 262.012 186.246 262.012ZM186.246 263.113C185.602 263.113 185.18 263.465 185.18 264.039C185.18 264.613 185.602 264.941 186.246 264.953C186.855 264.941 187.277 264.613 187.289 264.039C187.277 263.465 186.855 263.113 186.246 263.113ZM192.938 261.414V272.078H191.531V261.414H192.938ZM190.781 261.59V271.586H189.375V269.406H187.676V268.27H189.375V261.59H190.781ZM183.41 266.617C184.84 266.629 187.148 266.617 188.836 266.359L188.953 267.473C188.314 267.596 187.611 267.678 186.914 267.73V271.234H185.508V267.812C184.793 267.836 184.119 267.842 183.574 267.836L183.41 266.617ZM202.863 261.414V272.102H201.352V261.414H202.863ZM197.074 262.164C198.68 262.164 199.875 263.641 199.875 265.961C199.875 268.305 198.68 269.77 197.074 269.77C195.434 269.77 194.238 268.305 194.25 265.961C194.238 263.641 195.434 262.164 197.074 262.164ZM197.074 263.512C196.242 263.512 195.691 264.379 195.691 265.961C195.691 267.555 196.242 268.41 197.074 268.41C197.883 268.41 198.434 267.555 198.434 265.961C198.434 264.379 197.883 263.512 197.074 263.512ZM207.762 262.129C209.449 262.117 210.715 263.219 210.715 264.742C210.715 266.277 209.449 267.367 207.762 267.367C206.074 267.367 204.797 266.277 204.797 264.742C204.797 263.219 206.074 262.117 207.762 262.129ZM207.762 263.418C206.918 263.418 206.273 263.91 206.285 264.742C206.273 265.586 206.918 266.066 207.762 266.066C208.605 266.066 209.25 265.586 209.262 264.742C209.25 263.91 208.617 263.418 207.762 263.418ZM213.27 261.414V272.102H211.781V261.414H213.27ZM204.352 268.703C206.25 268.715 208.887 268.68 211.172 268.363L211.289 269.441C208.922 269.898 206.391 269.922 204.527 269.922L204.352 268.703ZM226.125 268.223V269.395H224.695V270.719H226.242V271.914H218.391V270.719H219.938V269.395H218.484V268.223H221.555V267.344H217.441V266.148H227.168V267.344H223.043V268.223H226.125ZM223.078 261.871C223.078 262.973 224.309 264.191 226.688 264.461L226.16 265.621C224.32 265.387 222.99 264.625 222.305 263.582C221.619 264.625 220.283 265.387 218.461 265.621L217.922 264.461C220.301 264.18 221.531 262.996 221.543 261.871V261.52H223.078V261.871ZM221.414 270.719H223.23V269.395H221.414V270.719Z" fill="#A78500"/>
<circle cx="32.5" cy="256.5" r="8.5" fill="#FFE88C"/>
<circle cx="56.5" cy="265.5" r="5.5" fill="#FFE88C"/>
<circle cx="47.5" cy="282.5" r="3.5" fill="#FFE88C"/>
<path d="M226.869 241H96.8691C116.129 241 129.999 237.999 129.999 237.999C129.999 237.999 161.209 231.251 194.999 237.999C206.259 240.248 217.239 241 226.869 241Z" fill="#FFDA4A"/>
<path d="M96.87 241H0V237.999C0 237.999 31.21 231.251 65 237.999C76.26 240.248 87.24 241 96.87 241Z" fill="#FFDA4A"/>
<path d="M389.999 238V241H356.869C376.129 241 389.999 238 389.999 238Z" fill="#FFDA4A"/>
<path d="M390 237C390 237 380 240 356.869 239.539" stroke="#FFE88C" stroke-width="2"/>
<path d="M356.869 239.538C347.239 239.538 336.259 238.844 324.999 236.769C291.209 230.539 259.999 236.769 259.999 236.769C259.999 236.769 246.129 239.538 226.869 239.538" stroke="#FFE88C" stroke-width="2"/>
<path d="M226.869 239.538C217.239 239.538 208.001 239.805 195.5 237.5C161.71 231.27 130 237 130 237C130 237 115.76 240 96.5 240" stroke="#FFE88C" stroke-width="2"/>
<path d="M96.5 240C86.87 240 71.2971 238.661 65 237.5C31.21 231.27 0 237 0 237" stroke="#FFE88C" stroke-width="2"/>
<path d="M356.869 240.462H226.869C246.129 240.462 259.999 237.692 259.999 237.692C259.999 237.692 291.209 231.462 324.999 237.692C336.259 239.767 347.239 240.462 356.869 240.462Z" fill="#FFDA4A"/>
<rect y="240.461" width="390" height="5.53846" fill="#FFDA4A"/>
<path d="M226.869 297H96.8691C116.129 297 129.999 293.999 129.999 293.999C129.999 293.999 161.209 287.251 194.999 293.999C206.259 296.248 217.239 297 226.869 297Z" fill="#0E0E0E"/>
<path d="M96.87 297H0V293.999C0 293.999 31.21 287.251 65 293.999C76.26 296.248 87.24 297 96.87 297Z" fill="#0E0E0E"/>
<path d="M389.999 294V297H356.869C376.129 297 389.999 294 389.999 294Z" fill="#0E0E0E"/>
<path d="M390 293C390 293 380 296 356.869 295.539" stroke="#FFE88C" stroke-width="2"/>
<path d="M356.869 295.538C347.239 295.538 336.259 294.844 324.999 292.769C291.209 286.539 259.999 292.769 259.999 292.769C259.999 292.769 246.129 295.538 226.869 295.538" stroke="#FFE88C" stroke-width="2"/>
<path d="M226.869 295.538C217.239 295.538 208.001 295.805 195.5 293.5C161.71 287.27 130 293 130 293C130 293 115.76 296 96.5 296" stroke="#FFE88C" stroke-width="2"/>
<path d="M96.5 296C86.87 296 71.2971 294.661 65 293.5C31.21 287.27 0 293 0 293" stroke="#FFE88C" stroke-width="2"/>
<path d="M356.869 296.462H226.869C246.129 296.462 259.999 293.692 259.999 293.692C259.999 293.692 291.209 287.462 324.999 293.692C336.259 295.767 347.239 296.462 356.869 296.462Z" fill="#0E0E0E"/>
<rect y="296.461" width="390" height="5.53846" fill="#0E0E0E"/>
<path d="M191.241 110C120.656 110 100.67 118.333 99.5 122.5C102.708 127.7 124.232 130.333 134.592 131L166.175 125L159.157 133C163.168 133.8 183.555 134 193.247 134C262.629 134 286.325 126.333 289.5 122.5C286.158 118.333 261.827 110 191.241 110Z" fill="#00722A"/>
<mask id="mask0_4152_15205" style="mask-type:alpha" maskUnits="userSpaceOnUse" x="134" y="0" width="120" height="120">
<rect x="134" width="120" height="120" fill="#D9D9D9"/>
</mask>
<g mask="url(#mask0_4152_15205)">
<path d="M203.605 119.906H186.342L194.223 114.089L203.605 119.906Z" fill="#DBFF9E"/>
<path d="M204.04 119.719C202.997 119.637 201.963 119.545 200.924 119.458C199.989 119.381 199.06 119.294 198.125 119.245C195.605 119.115 193.08 119.173 190.56 119.265C189.064 119.318 187.563 119.38 186.042 119.704C185.426 118.665 184.968 117.583 184.506 116.501C183.288 113.65 182.607 110.654 182.135 107.619C181.837 105.701 181.723 103.764 181.668 101.821C181.514 96.3174 182.384 90.9587 183.999 85.7015C184.496 84.0876 185.277 82.5801 186.082 81.0387C186.112 80.9952 186.107 80.9903 186.112 80.9903C186.271 80.8405 186.355 80.6473 186.464 80.425C186.494 80.396 186.489 80.3863 186.494 80.3863C186.584 80.2945 186.638 80.1882 186.718 80.0578C186.743 80.0336 186.743 80.0239 186.748 80.0239C186.832 79.9418 186.887 79.8403 186.971 79.7099C187.001 79.6809 187.001 79.6615 187.011 79.6615C187.031 79.6374 187.046 79.6132 187.091 79.5649C187.121 79.5407 187.121 79.5311 187.121 79.5311C187.21 79.4538 187.26 79.3571 187.349 79.2315C187.384 79.2025 187.384 79.1783 187.394 79.1735C187.414 79.1445 187.424 79.1204 187.464 79.0817C187.498 79.0624 187.493 79.0479 187.503 79.0479C187.528 79.0237 187.538 79.0044 187.588 78.9561C187.618 78.9319 187.618 78.9222 187.623 78.9222C187.647 78.9029 187.662 78.8788 187.712 78.8304C187.742 78.8014 187.742 78.7966 187.742 78.7966C187.866 78.6855 187.98 78.5647 188.1 78.3956C188.135 78.3714 188.154 78.3328 188.199 78.2989C188.244 78.2651 188.269 78.2168 188.318 78.1829C188.368 78.1443 188.393 78.096 188.443 78.0621C188.492 78.0283 188.522 77.9752 188.567 77.951C188.671 77.864 188.731 77.8012 188.835 77.7239C188.96 77.6128 189.099 77.5983 189.213 77.4871C189.238 77.463 189.238 77.4582 189.243 77.4582C189.268 77.4388 189.288 77.4195 189.337 77.3663C189.367 77.3374 189.367 77.3325 189.367 77.3325C189.387 77.3132 189.412 77.2939 189.462 77.2455C189.492 77.2166 189.492 77.2117 189.492 77.2117C189.511 77.1924 189.531 77.1731 189.586 77.1296C189.621 77.1054 189.621 77.0958 189.631 77.0958C189.651 77.0764 189.661 77.0523 189.715 77.0233C190.764 76.2791 191.967 76.1294 193.165 75.9651C194.701 75.7573 196.237 75.7331 197.763 76.0424C200.029 76.5014 201.57 77.951 202.907 79.6567C203.538 80.4637 204.06 81.3382 204.532 82.295C204.562 82.353 204.582 82.3675 204.607 82.4158C204.627 82.4689 204.637 82.4931 204.662 82.5462C204.691 82.5946 204.706 82.6091 204.731 82.6574C204.746 82.7105 204.761 82.7347 204.786 82.7927C204.816 82.841 204.836 82.8555 204.856 82.899C204.87 82.957 204.88 82.9811 204.905 83.0439C204.94 83.0923 204.96 83.1019 204.97 83.1454C204.975 83.2034 204.99 83.2275 205.02 83.3C205.079 83.3725 205.104 83.4112 205.119 83.503C205.139 83.5658 205.149 83.5851 205.169 83.6431C205.198 83.6914 205.213 83.7059 205.233 83.7542C205.248 83.8122 205.258 83.8364 205.278 83.904C205.333 83.9765 205.358 84.02 205.367 84.1118C205.387 84.1746 205.397 84.1939 205.417 84.2568C205.447 84.3051 205.462 84.3196 205.477 84.3679C205.487 84.4259 205.502 84.4549 205.522 84.5177C205.576 84.5902 205.606 84.6288 205.611 84.7206C205.626 84.7834 205.636 84.8076 205.656 84.8704C205.705 84.9477 205.73 84.9912 205.74 85.083C205.755 85.1458 205.765 85.17 205.785 85.2328C205.835 85.3101 205.855 85.3585 205.869 85.4503C205.889 85.5131 205.894 85.5372 205.914 85.6001C205.964 85.6774 205.984 85.7209 205.994 85.8175C206.009 85.8803 206.019 85.9045 206.038 85.9721C206.178 86.465 206.307 86.9192 206.466 87.4121C206.501 87.5039 206.516 87.557 206.536 87.6537C206.7 88.4848 206.918 89.2627 207.102 90.089C207.132 90.1808 207.147 90.2388 207.162 90.3306C207.356 91.3501 207.569 92.3262 207.748 93.3554C207.768 93.4569 207.778 93.5149 207.788 93.6163C207.783 93.8386 207.833 94.0077 207.873 94.2203C207.893 94.3121 207.897 94.3701 207.907 94.4716C207.972 95.1674 208.047 95.8246 208.126 96.5252C208.146 96.6653 208.156 96.762 208.161 96.9069C208.151 97.4868 208.255 98.0183 208.25 98.5981C208.27 98.8155 208.28 98.9943 208.28 99.2214C208.31 100.164 208.29 101.058 208.285 102C208.28 102.227 208.275 102.401 208.27 102.628C208.226 103.251 208.161 103.821 208.161 104.44C208.156 104.546 208.156 104.604 208.146 104.706C208.101 105.083 208.037 105.411 208.037 105.783C208.032 105.885 208.027 105.943 208.017 106.044C207.883 106.614 207.883 107.156 207.783 107.731C207.773 107.832 207.768 107.89 207.758 107.991C207.629 108.402 207.639 108.789 207.54 109.199C207.53 109.296 207.525 109.354 207.51 109.451C207.356 109.982 207.291 110.485 207.162 111.021C207.147 111.118 207.142 111.171 207.122 111.263C206.978 111.673 206.898 112.06 206.789 112.48C206.774 112.577 206.769 112.63 206.744 112.722C206.541 113.345 206.342 113.925 206.163 114.549C206.148 114.645 206.133 114.703 206.098 114.8C206.088 114.863 206.093 114.882 206.068 114.921C206.034 114.964 206.029 114.983 206.009 115.046C205.8 115.438 205.691 115.819 205.561 116.24C205.527 116.298 205.522 116.322 205.497 116.38C205.407 116.544 205.348 116.679 205.308 116.853C205.273 116.907 205.263 116.931 205.238 116.993C205.218 117.051 205.218 117.076 205.189 117.114C205.154 117.158 205.149 117.182 205.124 117.235C204.985 117.472 204.86 117.675 204.801 117.945C204.766 117.999 204.756 118.028 204.726 118.09C204.706 118.148 204.706 118.172 204.682 118.211C204.642 118.255 204.637 118.279 204.607 118.337C204.587 118.395 204.587 118.414 204.557 118.458C204.522 118.501 204.518 118.525 204.493 118.578C204.398 118.738 204.339 118.873 204.299 119.052C204.269 119.105 204.259 119.129 204.239 119.187C204.145 119.352 204.085 119.487 204.05 119.666C204.05 119.695 204.045 119.714 204.04 119.719Z" fill="#DBFF9E"/>
<path d="M170.918 73.0094C171.151 73.2571 170.918 73.3659 170.794 73.4785C169.203 74.9797 167.769 76.6197 166.471 78.3799C166.426 78.4024 166.411 78.53 166.366 78.56C166.283 78.6238 166.272 78.7964 166.174 78.8377C166.163 78.8565 166.103 78.9315 166.088 78.9428C165.998 79.0179 165.983 79.1642 165.897 79.228C165.852 79.2843 165.852 79.3857 165.795 79.4119C165.777 79.4307 165.728 79.502 165.709 79.5132C165.574 79.6409 165.551 79.8773 165.42 79.9824C165.401 80.0049 165.349 80.0687 165.334 80.0874C165.289 80.1137 165.277 80.2413 165.232 80.2714C165.191 80.3201 165.187 80.4327 165.131 80.4552C165.086 80.5641 165.034 80.6879 164.947 80.7442C164.906 80.793 164.902 80.9056 164.846 80.9281C164.835 80.9431 164.778 81.0182 164.76 81.0332C164.673 81.127 164.677 81.3447 164.564 81.4047C164.546 81.4273 164.489 81.4873 164.482 81.5098C164.433 81.5323 164.422 81.6637 164.384 81.6975C164.298 81.8701 164.245 82.1291 164.095 82.2604C164.054 82.3092 164.05 82.418 164.001 82.4481C163.96 82.4931 163.956 82.6094 163.908 82.6357C163.866 82.6807 163.863 82.7971 163.814 82.8233C163.743 82.9172 163.694 83.1086 163.626 83.2024C163.589 83.2474 163.581 83.3638 163.532 83.3938C163.446 83.6828 163.3 83.9117 163.161 84.1556C163.041 84.3358 163.048 84.6698 162.876 84.8162C162.782 84.94 162.819 85.1915 162.684 85.289C162.598 85.4166 162.632 85.6643 162.497 85.7619C162.388 85.9946 162.395 86.3286 162.215 86.52C162.14 86.5763 162.193 86.7489 162.118 86.8015C162.046 86.8578 162.099 87.0304 162.02 87.0829C161.949 87.143 162.001 87.3156 161.926 87.3682C161.296 89.3197 160.954 91.4664 160.507 93.4217C160.305 93.5493 160.016 93.6468 159.839 93.7932C159.794 93.8345 159.693 93.857 159.652 93.8945C159.565 93.9583 159.434 94.0109 159.363 94.0784C159.055 94.2435 158.759 94.4312 158.515 94.6489C158.38 94.7314 158.237 94.8365 158.136 94.9341C157.937 95.0692 157.734 95.2531 157.565 95.407C157.55 95.4257 157.498 95.497 157.468 95.4933C157.029 95.8123 156.649 96.2138 156.334 96.6342C150.345 102.815 151.692 114.63 160.102 117.91C158.927 118.506 158.019 119.253 157.621 120H188.332C188.287 119.647 188.152 119.287 187.911 118.927C187.517 117.868 186.947 116.881 186.628 115.793C184.879 110.783 184.478 105.349 185.048 100.102C185.851 94.9679 186.774 88.1037 191.976 85.593C197.834 83.5176 201.88 87.9761 203.227 93.2903C205.366 100.612 205.498 108.614 202.998 115.857C202.691 116.821 202.24 117.726 201.827 118.649C201.606 119.084 201.4 119.546 201.317 120H232.02C231.72 119.291 230.961 118.593 229.697 118.086C237.563 114.119 239.616 103.532 233.311 96.6342C232.992 96.1801 232.59 95.8198 232.177 95.4933C232.155 95.482 232.084 95.4295 232.076 95.4032C231.915 95.2231 231.678 95.0767 231.506 94.9303C231.416 94.8065 231.228 94.7427 231.127 94.6451C230.879 94.3937 230.545 94.2586 230.278 94.0747C230.203 93.9884 230.05 93.9658 229.989 93.8908C229.941 93.8495 229.828 93.8457 229.806 93.7932C229.22 93.5718 228.972 93.1852 228.942 92.5885C228.443 88.8618 227.186 85.259 225.403 81.9527C223.564 78.4737 221.027 75.4413 218.134 72.788C217.781 72.5403 218.066 72.3414 218.344 72.2213C244.705 59.7578 244.956 33.8625 219.631 19.9391C217.301 18.1939 216.903 14.805 215.263 12.4482C213.837 9.70853 212.238 7.04769 210.166 4.73964C204.301 -1.97438 195.309 -2.09072 193.653 7.86583C192.588 -1.17501 183.821 -2.22207 178.139 3.80516C173.981 7.93715 171.511 13.3977 169.083 18.6518C167.972 20.3631 165.645 20.8998 164.073 22.1645C140.486 38.0057 145.957 62.61 170.926 73.0132L170.918 73.0094Z" fill="#00CE4C"/>
<path d="M187.362 6.02274C189.662 7.25506 190.35 9.50336 189.148 11.5848C188.366 12.9353 186.861 13.7186 185.348 13.5604C183.927 13.4066 182.773 12.3338 182.339 10.8108C181.498 7.83267 184.888 4.99119 187.362 6.02274Z" fill="#0E0E0E"/>
<path d="M200.742 5.98688C203.31 6.22012 204.897 7.93652 204.743 10.2027C204.641 11.6739 203.653 12.9144 202.249 13.3328C200.927 13.7212 199.44 13.2062 198.394 12.0315C196.353 9.73173 198.108 5.99395 200.742 5.98688Z" fill="#0E0E0E"/>
<path d="M186.481 9.75396C185.76 9.49521 185.495 9.0419 185.693 8.35653C185.828 7.90814 186.164 7.61371 186.651 7.48996C187.265 7.33392 187.749 7.47507 188.112 7.87589C188.366 8.15836 188.467 8.50351 188.245 8.89127C187.878 9.52504 187.256 9.71859 186.489 9.748L186.481 9.75396Z" fill="white"/>
<path d="M201.329 9.53791C200.681 9.03356 200.531 8.48522 200.898 7.85753C201.143 7.4486 201.549 7.26333 202.062 7.30175C202.709 7.35019 203.153 7.65614 203.412 8.18424C203.593 8.55592 203.607 8.93948 203.29 9.2576C202.769 9.77602 202.105 9.76291 201.338 9.53453L201.329 9.53791Z" fill="white"/>
<path d="M198.627 22.9788C199.73 22.9188 200.514 22.277 201.426 21.8042C202.815 21.6315 201.393 23.2678 200.781 23.4442C198.837 24.5626 196.585 24.1985 194.663 23.2641C192.738 23.5118 190.933 24.9154 188.726 24.5138C187.578 24.5776 184.23 22.9751 185.72 21.6991C186.069 21.594 186.264 21.7929 186.43 22.0856C187.934 24.1948 191.192 23.4029 193.207 22.5698C195.05 21.6503 196.649 23.433 198.63 22.9788H198.627Z" fill="#0E0E0E"/>
<path d="M194.169 74.6836H179.398C191.215 81.4805 203.337 77.5157 207.921 74.6836H194.169Z" fill="#00CE4C"/>
</g>
</svg>
