<svg width="392" height="298" viewBox="0 0 392 298" fill="none" xmlns="http://www.w3.org/2000/svg">
<path d="M391 125.24V132H304.311V129.544C310.021 129.544 316.85 128.815 324.5 126.628C347.46 120.067 353.59 125.448 355.63 126.298C357.67 127.149 361.74 130.282 375.26 125.24C388.77 120.189 391 125.24 391 125.24Z" fill="#FF8BCA"/>
<path d="M304.31 129.544V132H194.9C199.18 131.991 204.51 130.62 210.95 126.628C210.95 126.628 231.66 113.792 285.99 126.628C285.99 126.628 292.9 129.544 304.31 129.544Z" fill="#FF8BCA"/>
<path d="M194.9 131.992L94.3496 132V129.544C100.06 129.544 106.89 128.815 114.55 126.628C137.51 120.067 143.64 125.448 145.68 126.298C147.72 127.149 151.79 130.282 165.31 125.24C178.82 120.189 181.04 125.24 181.04 125.24C181.04 125.24 185.4 131.992 194.9 131.992Z" fill="#FF8BCA"/>
<path d="M94.3501 129.544V132H1V126.628C1 126.628 21.71 113.792 76.03 126.628C76.03 126.628 82.9401 129.544 94.3501 129.544Z" fill="#FF8BCA"/>
<path d="M391 124.316C391 124.316 388.77 119.265 375.26 124.316C361.74 129.358 357.67 126.225 355.63 125.375C353.59 124.524 347.46 119.144 324.5 125.705C316.85 127.892 310.021 128.621 304.311 128.621" stroke="#FFADDA" stroke-width="2"/>
<path d="M304.31 128.621C292.9 128.621 285.99 125.705 285.99 125.705C231.66 112.869 210.95 125.705 210.95 125.705C204.51 129.697 199.18 131.068 194.9 131.077" stroke="#FFADDA" stroke-width="2"/>
<path d="M194.9 131.068C185.4 131.068 181.04 124.316 181.04 124.316C181.04 124.316 178.82 119.265 165.31 124.316C151.79 129.358 147.72 126.225 145.68 125.375C143.64 124.524 137.51 119.144 114.55 125.705C106.89 127.892 100.06 128.621 94.3496 128.621" stroke="#FFADDA" stroke-width="2"/>
<path d="M94.3501 128.621C82.9401 128.621 76.03 125.705 76.03 125.705C21.71 112.869 1 125.705 1 125.705" stroke="#FFADDA" stroke-width="2"/>
<rect width="390" height="55" transform="translate(1 132)" fill="#FF8BCA"/>
<g clip-path="url(#clip0_708_2135)">
<circle cx="32.5004" cy="149" r="8.5" fill="#FFADDA"/>
<circle cx="56.5004" cy="158" r="5.5" fill="#FFADDA"/>
<circle cx="47.5004" cy="175" r="3.5" fill="#FFADDA"/>
</g>
<path d="M112.262 160.66H122.318V161.944H112.262V160.66ZM116.45 161.5H118.046V165.568H116.45V161.5ZM117.266 154.828C118.058 154.828 118.754 154.932 119.354 155.14C119.962 155.34 120.434 155.628 120.77 156.004C121.106 156.38 121.274 156.82 121.274 157.324C121.274 157.836 121.106 158.28 120.77 158.656C120.434 159.024 119.962 159.312 119.354 159.52C118.754 159.72 118.058 159.82 117.266 159.82C116.474 159.82 115.774 159.72 115.166 159.52C114.566 159.312 114.094 159.024 113.75 158.656C113.414 158.28 113.246 157.836 113.246 157.324C113.246 156.82 113.414 156.38 113.75 156.004C114.094 155.628 114.566 155.34 115.166 155.14C115.774 154.932 116.474 154.828 117.266 154.828ZM117.254 156.088C116.774 156.088 116.354 156.136 115.994 156.232C115.642 156.328 115.37 156.468 115.178 156.652C114.986 156.828 114.89 157.052 114.89 157.324C114.89 157.588 114.986 157.812 115.178 157.996C115.37 158.18 115.642 158.32 115.994 158.416C116.354 158.504 116.774 158.548 117.254 158.548C117.75 158.548 118.174 158.504 118.526 158.416C118.878 158.32 119.15 158.18 119.342 157.996C119.542 157.812 119.642 157.588 119.642 157.324C119.642 157.052 119.542 156.828 119.342 156.652C119.15 156.468 118.878 156.328 118.526 156.232C118.174 156.136 117.75 156.088 117.254 156.088ZM130.945 154.432H132.553V165.58H130.945V154.432ZM123.901 161.692H124.885C125.541 161.692 126.161 161.684 126.745 161.668C127.329 161.644 127.901 161.608 128.461 161.56C129.021 161.504 129.593 161.424 130.177 161.32L130.345 162.604C129.449 162.764 128.565 162.872 127.693 162.928C126.829 162.976 125.893 163 124.885 163H123.901V161.692ZM123.877 155.38H129.121V159.688H125.521V162.184H123.901V158.428H127.501V156.664H123.877V155.38ZM141.432 154.432H143.04V165.544H141.432V154.432ZM142.632 158.692H144.588V160H142.632V158.692ZM138.516 155.584H140.088C140.088 156.696 139.928 157.748 139.608 158.74C139.296 159.732 138.776 160.644 138.048 161.476C137.328 162.3 136.352 163.02 135.12 163.636L134.22 162.424C135.196 161.92 136 161.352 136.632 160.72C137.272 160.088 137.744 159.372 138.048 158.572C138.36 157.764 138.516 156.864 138.516 155.872V155.584ZM134.832 155.584H139.344V156.868H134.832V155.584ZM153.666 157.372H156.474V158.644H153.666V157.372ZM155.79 154.456H157.398V162.568H155.79V154.456ZM150.054 164.092H157.65V165.376H150.054V164.092ZM150.054 161.776H151.65V164.752H150.054V161.776ZM151.158 155.116C151.71 155.116 152.206 155.24 152.646 155.488C153.094 155.728 153.446 156.064 153.702 156.496C153.966 156.928 154.098 157.42 154.098 157.972C154.098 158.516 153.966 159.004 153.702 159.436C153.446 159.86 153.094 160.196 152.646 160.444C152.206 160.692 151.71 160.816 151.158 160.816C150.614 160.816 150.118 160.692 149.67 160.444C149.23 160.196 148.878 159.86 148.614 159.436C148.358 159.004 148.23 158.516 148.23 157.972C148.23 157.42 148.358 156.928 148.614 156.496C148.878 156.064 149.23 155.728 149.67 155.488C150.118 155.24 150.614 155.116 151.158 155.116ZM151.158 156.508C150.894 156.508 150.654 156.568 150.438 156.688C150.23 156.8 150.062 156.964 149.934 157.18C149.814 157.396 149.754 157.656 149.754 157.96C149.754 158.272 149.814 158.536 149.934 158.752C150.062 158.968 150.23 159.132 150.438 159.244C150.654 159.356 150.898 159.412 151.17 159.412C151.434 159.412 151.67 159.356 151.878 159.244C152.086 159.132 152.25 158.968 152.37 158.752C152.498 158.536 152.562 158.272 152.562 157.96C152.562 157.656 152.498 157.396 152.37 157.18C152.25 156.964 152.086 156.8 151.878 156.688C151.67 156.568 151.43 156.508 151.158 156.508ZM167.081 154.456H168.605V162.724H167.081V154.456ZM163.733 157.408H165.461V158.692H163.733V157.408ZM164.909 154.66H166.409V162.472H164.909V154.66ZM161.117 164.092H168.881V165.376H161.117V164.092ZM161.117 161.824H162.725V164.932H161.117V161.824ZM161.081 156.352H162.329V157.06C162.329 157.684 162.241 158.284 162.065 158.86C161.897 159.428 161.625 159.932 161.249 160.372C160.881 160.804 160.397 161.14 159.797 161.38L158.981 160.156C159.485 159.956 159.889 159.692 160.193 159.364C160.505 159.036 160.729 158.672 160.865 158.272C161.009 157.872 161.081 157.468 161.081 157.06V156.352ZM161.393 156.352H162.629V157.06C162.629 157.452 162.693 157.836 162.821 158.212C162.957 158.588 163.169 158.924 163.457 159.22C163.753 159.516 164.133 159.76 164.597 159.952L163.817 161.188C163.233 160.956 162.761 160.632 162.401 160.216C162.049 159.8 161.793 159.32 161.633 158.776C161.473 158.232 161.393 157.66 161.393 157.06V156.352ZM159.329 155.404H164.249V156.676H159.329V155.404ZM177.268 154.432H178.876V165.544H177.268V154.432ZM178.468 158.692H180.424V160H178.468V158.692ZM174.352 155.584H175.924C175.924 156.696 175.764 157.748 175.444 158.74C175.132 159.732 174.612 160.644 173.884 161.476C173.164 162.3 172.188 163.02 170.956 163.636L170.056 162.424C171.032 161.92 171.836 161.352 172.468 160.72C173.108 160.088 173.58 159.372 173.884 158.572C174.196 157.764 174.352 156.864 174.352 155.872V155.584ZM170.668 155.584H175.18V156.868H170.668V155.584ZM191.074 154.444H192.67V160.264H191.074V154.444ZM192.238 156.724H194.146V158.032H192.238V156.724ZM187.906 155.188H189.682C189.682 156.172 189.486 157.02 189.094 157.732C188.702 158.444 188.122 159.024 187.354 159.472C186.594 159.92 185.65 160.252 184.522 160.468L183.898 159.196C184.866 159.036 185.642 158.804 186.226 158.5C186.818 158.196 187.246 157.844 187.51 157.444C187.774 157.036 187.906 156.612 187.906 156.172V155.188ZM184.414 155.188H188.914V156.46H184.414V155.188ZM185.398 160.708H192.718V161.872H186.994V164.848H185.398V160.708ZM185.398 164.284H192.958V165.448H185.398V164.284ZM186.49 162.496H192.61V163.624H186.49V162.496ZM194.961 160.12H205.017V161.38H194.961V160.12ZM196.185 164.092H203.889V165.376H196.185V164.092ZM196.185 162.124H197.781V164.5H196.185V162.124ZM199.989 154.78C200.797 154.78 201.501 154.872 202.101 155.056C202.709 155.24 203.181 155.504 203.517 155.848C203.853 156.192 204.021 156.596 204.021 157.06C204.021 157.532 203.853 157.94 203.517 158.284C203.181 158.628 202.709 158.892 202.101 159.076C201.501 159.26 200.797 159.352 199.989 159.352C199.189 159.352 198.485 159.26 197.877 159.076C197.277 158.892 196.809 158.628 196.473 158.284C196.137 157.94 195.969 157.532 195.969 157.06C195.969 156.596 196.137 156.192 196.473 155.848C196.809 155.504 197.277 155.24 197.877 155.056C198.485 154.872 199.189 154.78 199.989 154.78ZM199.989 156.04C199.501 156.04 199.077 156.08 198.717 156.16C198.357 156.24 198.085 156.356 197.901 156.508C197.717 156.652 197.625 156.836 197.625 157.06C197.625 157.284 197.717 157.472 197.901 157.624C198.085 157.776 198.357 157.892 198.717 157.972C199.077 158.052 199.501 158.092 199.989 158.092C200.493 158.092 200.921 158.052 201.273 157.972C201.625 157.892 201.893 157.776 202.077 157.624C202.269 157.472 202.365 157.284 202.365 157.06C202.365 156.836 202.269 156.652 202.077 156.508C201.893 156.356 201.625 156.24 201.273 156.16C200.921 156.08 200.493 156.04 199.989 156.04ZM214.083 155.836H216.783V157.048H214.083V155.836ZM214.083 157.876H216.783V159.076H214.083V157.876ZM216.423 154.456H218.019V160.156H216.423V154.456ZM210.675 160.576H218.019V163.552H212.271V164.956H210.699V162.4H216.447V161.812H210.675V160.576ZM210.699 164.2H218.343V165.448H210.699V164.2ZM209.187 154.912H210.771V156.196H212.883V154.912H214.455V159.844H209.187V154.912ZM210.771 157.396V158.608H212.883V157.396H210.771ZM224.798 154.6C226.062 154.6 227.046 154.764 227.75 155.092C228.462 155.42 228.818 155.892 228.818 156.508C228.818 157.116 228.462 157.584 227.75 157.912C227.046 158.24 226.062 158.404 224.798 158.404C223.526 158.404 222.534 158.24 221.822 157.912C221.118 157.584 220.766 157.116 220.766 156.508C220.766 155.892 221.118 155.42 221.822 155.092C222.534 154.764 223.526 154.6 224.798 154.6ZM224.786 155.776C224.258 155.776 223.818 155.804 223.466 155.86C223.114 155.908 222.85 155.988 222.674 156.1C222.506 156.204 222.422 156.34 222.422 156.508C222.422 156.676 222.506 156.816 222.674 156.928C222.85 157.032 223.114 157.108 223.466 157.156C223.818 157.204 224.258 157.228 224.786 157.228C225.322 157.228 225.766 157.204 226.118 157.156C226.47 157.108 226.73 157.032 226.898 156.928C227.066 156.816 227.15 156.676 227.15 156.508C227.15 156.34 227.066 156.204 226.898 156.1C226.73 155.988 226.47 155.908 226.118 155.86C225.766 155.804 225.322 155.776 224.786 155.776ZM219.758 158.92H229.814V160.18H219.758V158.92ZM220.91 160.804H228.59V163.648H222.506V164.632H220.922V162.544H227.018V161.98H220.91V160.804ZM220.922 164.284H228.89V165.496H220.922V164.284ZM240.62 154.456H242.228V165.568H240.62V154.456ZM241.88 158.584H243.836V159.904H241.88V158.584ZM233.864 155.32H235.448V158.032H237.68V155.32H239.264V162.988H233.864V155.32ZM235.448 159.268V161.716H237.68V159.268H235.448ZM251.683 154.432H253.279V165.58H251.683V154.432ZM252.919 158.644H254.875V159.952H252.919V158.644ZM245.023 161.692H245.947C246.579 161.692 247.171 161.684 247.723 161.668C248.275 161.652 248.811 161.62 249.331 161.572C249.859 161.516 250.395 161.444 250.939 161.356L251.083 162.64C250.523 162.736 249.971 162.812 249.427 162.868C248.891 162.916 248.339 162.952 247.771 162.976C247.203 163 246.595 163.012 245.947 163.012H245.023V161.692ZM244.999 155.38H250.111V159.688H246.595V162.196H245.023V158.428H248.527V156.664H244.999V155.38ZM256.878 154.852H258.45V155.932H262.794V154.852H264.378V159.376H256.878V154.852ZM258.45 157.168V158.128H262.794V157.168H258.45ZM255.594 160.324H265.65V161.584H255.594V160.324ZM259.818 158.716H261.402V160.852H259.818V158.716ZM256.818 164.092H264.522V165.376H256.818V164.092ZM256.818 162.244H258.414V164.572H256.818V162.244ZM273.737 154.432H275.345V165.58H273.737V154.432ZM274.997 158.548H276.953V159.868H274.997V158.548ZM267.065 161.596H268.001C268.633 161.596 269.225 161.588 269.777 161.572C270.329 161.548 270.865 161.512 271.385 161.464C271.905 161.408 272.437 161.332 272.981 161.236L273.137 162.556C272.577 162.652 272.025 162.728 271.481 162.784C270.945 162.84 270.393 162.876 269.825 162.892C269.257 162.908 268.649 162.916 268.001 162.916H267.065V161.596ZM267.065 155.464H272.249V156.748H268.661V162.22H267.065V155.464ZM283.048 156.196H285.844V157.468H283.048V156.196ZM283.048 158.584H285.892V159.856H283.048V158.584ZM278.128 155.344H283.384V160.78H278.128V155.344ZM281.824 156.592H279.7V159.52H281.824V156.592ZM285.376 154.456H286.984V162.544H285.376V154.456ZM279.628 164.092H287.224V165.376H279.628V164.092ZM279.628 161.788H281.224V164.764H279.628V161.788Z" fill="#AE4039"/>
<g clip-path="url(#clip1_708_2135)">
<path fill-rule="evenodd" clip-rule="evenodd" d="M353.272 159.024C353.917 159.376 354.154 160.24 353.803 160.954C350.861 166.927 346.227 169.763 344.094 170.466C343.384 170.7 342.657 170.272 342.47 169.511C342.284 168.75 342.708 167.944 343.419 167.71C344.914 167.218 348.911 164.873 351.468 159.68C351.82 158.965 352.627 158.672 353.272 159.024Z" fill="#AE4039"/>
<path d="M354.563 157.919C354.191 150.596 360.078 150.309 364.053 151.305C364.77 151.484 365.139 152.32 364.858 153.066C361.726 161.364 357.273 160.583 355.014 158.841C354.741 158.631 354.582 158.285 354.563 157.919Z" fill="#AE4039"/>
<path fill-rule="evenodd" clip-rule="evenodd" d="M363.938 152.67C363.998 152.509 363.911 152.385 363.815 152.361C361.902 151.882 359.681 151.759 358.045 152.493C357.255 152.848 356.619 153.393 356.187 154.193C355.75 155.003 355.472 156.166 355.557 157.842C355.559 157.876 355.567 157.904 355.577 157.925C355.587 157.945 355.595 157.953 355.599 157.956C356.562 158.698 357.919 159.178 359.318 158.689C360.709 158.203 362.432 156.659 363.938 152.67ZM364.292 150.251C365.629 150.585 366.281 152.132 365.778 153.464C364.152 157.773 362.082 159.987 359.899 160.75C357.724 161.509 355.725 160.728 354.429 159.729C353.889 159.313 353.602 158.654 353.569 157.997L354.563 157.92L353.569 157.997C353.468 156.012 353.787 154.394 354.474 153.121C355.165 151.839 356.179 151.002 357.311 150.494C359.52 149.503 362.23 149.734 364.292 150.251L364.053 151.306L364.292 150.251Z" fill="#AE4039"/>
<path d="M355.157 160.093C359.678 163.155 357.806 168.266 355.643 171.419C355.14 172.152 354.122 172.086 353.675 171.314C349.974 164.917 352.034 161.364 354.016 160.062C354.367 159.832 354.809 159.858 355.157 160.093Z" fill="#AE4039"/>
<path fill-rule="evenodd" clip-rule="evenodd" d="M354.761 170.852C354.778 170.843 354.801 170.827 354.826 170.792C355.856 169.291 356.751 167.41 356.901 165.627C356.975 164.752 356.868 163.923 356.531 163.165C356.195 162.411 355.603 161.663 354.612 160.992C354.587 160.975 354.565 160.97 354.553 160.97C354.55 160.97 354.549 160.97 354.547 160.97C353.77 161.482 352.955 162.447 352.71 163.957C352.464 165.476 352.77 167.702 354.538 170.757C354.583 170.835 354.642 170.862 354.693 170.865C354.719 170.866 354.742 170.861 354.761 170.852ZM356.461 172.045C355.514 173.425 353.618 173.261 352.814 171.871C350.88 168.529 350.365 165.779 350.719 163.597C351.074 161.407 352.28 159.945 353.484 159.155C354.202 158.683 355.065 158.763 355.702 159.194C356.972 160.054 357.842 161.093 358.359 162.257C358.875 163.417 359.013 164.637 358.914 165.816C358.717 168.143 357.595 170.394 356.461 172.045Z" fill="#AE4039"/>
<path d="M353.055 159.179C346.593 163.759 342.871 157.337 341.475 152.446C341.252 151.663 341.736 150.877 342.479 150.775C351.956 149.473 353.845 154.84 353.571 158.27C353.542 158.644 353.342 158.976 353.055 159.179Z" fill="#AE4039"/>
<path fill-rule="evenodd" clip-rule="evenodd" d="M342.619 151.849C342.455 151.872 342.393 152.026 342.426 152.14C343.1 154.504 344.3 157.079 345.975 158.519C346.79 159.219 347.698 159.637 348.724 159.664C349.757 159.692 351.008 159.327 352.502 158.269C352.53 158.249 352.55 158.225 352.563 158.203C352.576 158.181 352.579 158.166 352.579 158.158L353.571 158.27L352.579 158.158C352.698 156.674 352.341 154.854 351.018 153.542C349.698 152.235 347.202 151.219 342.619 151.849ZM340.525 152.751C340.11 151.298 341.016 149.882 342.338 149.701C347.233 149.028 350.419 150.044 352.345 151.953C354.267 153.857 354.719 156.435 354.563 158.381C354.505 159.114 354.121 159.726 353.608 160.089C351.871 161.32 350.234 161.87 348.708 161.829C347.174 161.788 345.854 161.152 344.756 160.209C342.605 158.36 341.246 155.278 340.525 152.751Z" fill="#AE4039"/>
<path fill-rule="evenodd" clip-rule="evenodd" d="M343.889 153.347C343.913 153.152 344.081 153.014 344.266 153.04C346.489 153.342 348.245 153.871 349.79 154.683C351.336 155.495 352.655 156.584 354.015 157.985C354.148 158.122 354.151 158.347 354.021 158.488C353.891 158.629 353.678 158.632 353.545 158.494C352.217 157.126 350.954 156.09 349.49 155.32C348.027 154.551 346.348 154.041 344.18 153.745C343.995 153.72 343.865 153.542 343.889 153.347Z" fill="#FF8BCA"/>
<path fill-rule="evenodd" clip-rule="evenodd" d="M363.077 153.392C363.077 153.196 362.927 153.037 362.741 153.037C360.977 153.037 358.987 153.925 357.307 154.964C355.621 156.007 354.188 157.239 353.532 158C353.406 158.145 353.416 158.37 353.554 158.503C353.691 158.635 353.904 158.625 354.029 158.479C354.628 157.786 356.002 156.595 357.647 155.578C359.297 154.557 361.16 153.748 362.741 153.748C362.927 153.748 363.077 153.589 363.077 153.392Z" fill="#FF8BCA"/>
<path fill-rule="evenodd" clip-rule="evenodd" d="M354.769 170.145C354.943 170.203 355.116 170.092 355.154 169.897C355.606 167.605 355.29 163.377 354.092 158.17C354.046 157.97 353.869 157.838 353.697 157.876C353.524 157.914 353.422 158.108 353.468 158.308C354.66 163.488 354.941 167.57 354.523 169.684C354.485 169.88 354.595 170.086 354.769 170.145Z" fill="#FF8BCA"/>
</g>
<path d="M192.741 110C122.156 110 102.17 118.333 101 122.5C104.208 127.7 125.732 130.333 136.092 131L167.675 125L160.657 133C164.668 133.8 185.055 134 194.747 134C264.129 134 287.825 126.333 291 122.5C287.658 118.333 263.327 110 192.741 110Z" fill="#00722A"/>
<mask id="mask0_708_2135" style="mask-type:alpha" maskUnits="userSpaceOnUse" x="135" y="0" width="121" height="120">
<rect x="135.5" width="120" height="120" fill="#D9D9D9"/>
</mask>
<g mask="url(#mask0_708_2135)">
<path d="M205.105 119.906H187.842L195.723 114.089L205.105 119.906Z" fill="#DBFF9E"/>
<path d="M205.54 119.719C204.497 119.637 203.463 119.545 202.424 119.458C201.489 119.381 200.56 119.294 199.625 119.245C197.105 119.115 194.58 119.173 192.06 119.265C190.564 119.318 189.063 119.381 187.542 119.704C186.926 118.666 186.468 117.583 186.006 116.501C184.788 113.65 184.107 110.654 183.635 107.62C183.337 105.701 183.223 103.764 183.168 101.821C183.014 96.3177 183.884 90.959 185.499 85.7018C185.996 84.0879 186.777 82.5803 187.582 81.0389C187.612 80.9954 187.607 80.9906 187.612 80.9906C187.771 80.8408 187.855 80.6475 187.964 80.4252C187.994 80.3963 187.989 80.3866 187.994 80.3866C188.084 80.2948 188.138 80.1885 188.218 80.058C188.243 80.0338 188.243 80.0242 188.248 80.0242C188.332 79.942 188.387 79.8406 188.471 79.7101C188.501 79.6811 188.501 79.6618 188.511 79.6618C188.531 79.6376 188.546 79.6135 188.591 79.5652C188.621 79.541 188.621 79.5313 188.621 79.5313C188.71 79.454 188.76 79.3574 188.849 79.2317C188.884 79.2028 188.884 79.1786 188.894 79.1738C188.914 79.1448 188.924 79.1206 188.964 79.082C188.998 79.0626 188.993 79.0481 189.003 79.0481C189.028 79.024 189.038 79.0046 189.088 78.9563C189.118 78.9322 189.118 78.9225 189.123 78.9225C189.147 78.9032 189.162 78.879 189.212 78.8307C189.242 78.8017 189.242 78.7969 189.242 78.7969C189.366 78.6857 189.48 78.5649 189.6 78.3958C189.635 78.3716 189.654 78.333 189.699 78.2992C189.744 78.2653 189.769 78.217 189.818 78.1832C189.868 78.1445 189.893 78.0962 189.943 78.0624C189.992 78.0286 190.022 77.9754 190.067 77.9513C190.171 77.8643 190.231 77.8015 190.335 77.7242C190.46 77.613 190.599 77.5985 190.713 77.4874C190.738 77.4632 190.738 77.4584 190.743 77.4584C190.768 77.4391 190.788 77.4197 190.837 77.3666C190.867 77.3376 190.867 77.3328 190.867 77.3328C190.887 77.3134 190.912 77.2941 190.962 77.2458C190.992 77.2168 190.992 77.212 190.992 77.212C191.011 77.1926 191.031 77.1733 191.086 77.1298C191.121 77.1057 191.121 77.096 191.131 77.096C191.151 77.0767 191.161 77.0525 191.215 77.0235C192.264 76.2794 193.467 76.1296 194.665 75.9653C196.201 75.7575 197.737 75.7334 199.263 76.0426C201.529 76.5017 203.07 77.9513 204.407 79.657C205.038 80.4639 205.56 81.3385 206.032 82.2952C206.062 82.3532 206.082 82.3677 206.107 82.416C206.127 82.4692 206.137 82.4933 206.162 82.5465C206.191 82.5948 206.206 82.6093 206.231 82.6576C206.246 82.7108 206.261 82.7349 206.286 82.7929C206.316 82.8412 206.336 82.8557 206.356 82.8992C206.37 82.9572 206.38 82.9814 206.405 83.0442C206.44 83.0925 206.46 83.1022 206.47 83.1457C206.475 83.2036 206.49 83.2278 206.52 83.3003C206.579 83.3727 206.604 83.4114 206.619 83.5032C206.639 83.566 206.649 83.5854 206.669 83.6434C206.698 83.6917 206.713 83.7062 206.733 83.7545C206.748 83.8125 206.758 83.8366 206.778 83.9043C206.833 83.9767 206.858 84.0202 206.867 84.1121C206.887 84.1749 206.897 84.1942 206.917 84.257C206.947 84.3053 206.962 84.3198 206.977 84.3681C206.987 84.4261 207.002 84.4551 207.022 84.5179C207.076 84.5904 207.106 84.6291 207.111 84.7209C207.126 84.7837 207.136 84.8078 207.156 84.8707C207.205 84.948 207.23 84.9915 207.24 85.0833C207.255 85.1461 207.265 85.1702 207.285 85.2331C207.335 85.3104 207.355 85.3587 207.369 85.4505C207.389 85.5133 207.394 85.5375 207.414 85.6003C207.464 85.6776 207.484 85.7211 207.494 85.8177C207.509 85.8806 207.519 85.9047 207.538 85.9724C207.678 86.4652 207.807 86.9194 207.966 87.4123C208.001 87.5041 208.016 87.5573 208.036 87.6539C208.2 88.485 208.418 89.263 208.602 90.0892C208.632 90.181 208.647 90.239 208.662 90.3308C208.856 91.3504 209.069 92.3264 209.248 93.3556C209.268 93.4571 209.278 93.5151 209.288 93.6166C209.283 93.8388 209.333 94.008 209.373 94.2206C209.393 94.3124 209.397 94.3704 209.407 94.4718C209.472 95.1676 209.547 95.8248 209.626 96.5254C209.646 96.6656 209.656 96.7622 209.661 96.9072C209.651 97.487 209.755 98.0185 209.75 98.5984C209.77 98.8158 209.78 98.9946 209.78 99.2217C209.81 100.164 209.79 101.058 209.785 102C209.78 102.227 209.775 102.401 209.77 102.628C209.726 103.252 209.661 103.822 209.661 104.44C209.656 104.547 209.656 104.605 209.646 104.706C209.601 105.083 209.537 105.411 209.537 105.784C209.532 105.885 209.527 105.943 209.517 106.044C209.383 106.615 209.383 107.156 209.283 107.731C209.273 107.832 209.268 107.89 209.258 107.992C209.129 108.402 209.139 108.789 209.04 109.2C209.03 109.296 209.025 109.354 209.01 109.451C208.856 109.983 208.791 110.485 208.662 111.021C208.647 111.118 208.642 111.171 208.622 111.263C208.478 111.674 208.398 112.06 208.289 112.481C208.274 112.577 208.269 112.63 208.244 112.722C208.041 113.346 207.842 113.925 207.663 114.549C207.648 114.645 207.633 114.703 207.598 114.8C207.588 114.863 207.593 114.882 207.568 114.921C207.534 114.964 207.529 114.984 207.509 115.046C207.3 115.438 207.191 115.82 207.061 116.24C207.027 116.298 207.022 116.322 206.997 116.38C206.907 116.544 206.848 116.68 206.808 116.854C206.773 116.907 206.763 116.931 206.738 116.994C206.718 117.052 206.718 117.076 206.689 117.115C206.654 117.158 206.649 117.182 206.624 117.235C206.485 117.472 206.36 117.675 206.301 117.946C206.266 117.999 206.256 118.028 206.226 118.091C206.206 118.149 206.206 118.173 206.182 118.211C206.142 118.255 206.137 118.279 206.107 118.337C206.087 118.395 206.087 118.414 206.057 118.458C206.022 118.501 206.018 118.525 205.993 118.579C205.898 118.738 205.839 118.873 205.799 119.052C205.769 119.105 205.759 119.129 205.739 119.187C205.645 119.352 205.585 119.487 205.55 119.666C205.55 119.695 205.545 119.714 205.54 119.719Z" fill="#DBFF9E"/>
<path d="M172.418 73.0094C172.651 73.2571 172.418 73.3659 172.294 73.4785C170.703 74.9797 169.269 76.6197 167.971 78.3799C167.926 78.4024 167.911 78.53 167.866 78.56C167.783 78.6238 167.772 78.7964 167.674 78.8377C167.663 78.8565 167.603 78.9315 167.588 78.9428C167.498 79.0179 167.483 79.1642 167.397 79.228C167.352 79.2843 167.352 79.3857 167.295 79.4119C167.277 79.4307 167.228 79.502 167.209 79.5132C167.074 79.6409 167.051 79.8773 166.92 79.9824C166.901 80.0049 166.849 80.0687 166.834 80.0874C166.789 80.1137 166.777 80.2413 166.732 80.2714C166.691 80.3201 166.687 80.4327 166.631 80.4552C166.586 80.5641 166.534 80.6879 166.447 80.7442C166.406 80.793 166.402 80.9056 166.346 80.9281C166.335 80.9431 166.278 81.0182 166.26 81.0332C166.173 81.127 166.177 81.3447 166.064 81.4047C166.046 81.4273 165.989 81.4873 165.982 81.5098C165.933 81.5323 165.922 81.6637 165.884 81.6975C165.798 81.8701 165.745 82.1291 165.595 82.2604C165.554 82.3092 165.55 82.418 165.501 82.4481C165.46 82.4931 165.456 82.6094 165.408 82.6357C165.366 82.6807 165.363 82.7971 165.314 82.8233C165.243 82.9172 165.194 83.1086 165.126 83.2024C165.089 83.2474 165.081 83.3638 165.032 83.3938C164.946 83.6828 164.8 83.9117 164.661 84.1556C164.541 84.3358 164.548 84.6698 164.376 84.8162C164.282 84.94 164.319 85.1915 164.184 85.289C164.098 85.4166 164.132 85.6643 163.997 85.7619C163.888 85.9946 163.895 86.3286 163.715 86.52C163.64 86.5763 163.693 86.7489 163.618 86.8015C163.546 86.8578 163.599 87.0304 163.52 87.0829C163.449 87.143 163.501 87.3156 163.426 87.3682C162.796 89.3197 162.454 91.4664 162.007 93.4217C161.805 93.5493 161.516 93.6468 161.339 93.7932C161.294 93.8345 161.193 93.857 161.152 93.8945C161.065 93.9583 160.934 94.0109 160.863 94.0784C160.555 94.2435 160.259 94.4312 160.015 94.6489C159.88 94.7314 159.737 94.8365 159.636 94.9341C159.437 95.0692 159.234 95.2531 159.065 95.407C159.05 95.4257 158.998 95.497 158.968 95.4933C158.529 95.8123 158.149 96.2138 157.834 96.6342C151.845 102.815 153.192 114.63 161.602 117.91C160.427 118.506 159.519 119.253 159.121 120H189.832C189.787 119.647 189.652 119.287 189.411 118.927C189.017 117.868 188.447 116.881 188.128 115.793C186.379 110.783 185.978 105.349 186.548 100.102C187.351 94.9679 188.274 88.1037 193.476 85.593C199.334 83.5176 203.38 87.9761 204.727 93.2903C206.866 100.612 206.998 108.614 204.498 115.857C204.191 116.821 203.74 117.726 203.327 118.649C203.106 119.084 202.9 119.546 202.817 120H233.52C233.22 119.291 232.461 118.593 231.197 118.086C239.063 114.119 241.116 103.532 234.811 96.6342C234.492 96.1801 234.09 95.8198 233.677 95.4933C233.655 95.482 233.584 95.4295 233.576 95.4032C233.415 95.2231 233.178 95.0767 233.006 94.9303C232.916 94.8065 232.728 94.7427 232.627 94.6451C232.379 94.3937 232.045 94.2586 231.778 94.0747C231.703 93.9884 231.55 93.9658 231.489 93.8908C231.441 93.8495 231.328 93.8457 231.306 93.7932C230.72 93.5718 230.472 93.1852 230.442 92.5885C229.943 88.8618 228.686 85.259 226.903 81.9527C225.064 78.4737 222.527 75.4413 219.634 72.788C219.281 72.5403 219.566 72.3414 219.844 72.2213C246.205 59.7578 246.456 33.8625 221.131 19.9391C218.801 18.1939 218.403 14.805 216.763 12.4482C215.337 9.70853 213.738 7.04769 211.666 4.73964C205.801 -1.97438 196.809 -2.09072 195.153 7.86583C194.088 -1.17501 185.321 -2.22207 179.639 3.80516C175.481 7.93715 173.011 13.3977 170.583 18.6518C169.472 20.3631 167.145 20.8998 165.573 22.1645C141.986 38.0057 147.457 62.61 172.426 73.0132L172.418 73.0094Z" fill="#00CE4C"/>
<path d="M188.862 6.02274C191.161 7.25506 191.85 9.50336 190.648 11.5848C189.866 12.9353 188.361 13.7186 186.848 13.5604C185.427 13.4066 184.273 12.3338 183.839 10.8108C182.998 7.83267 186.388 4.99119 188.862 6.02274Z" fill="#0E0E0E"/>
<path d="M202.243 5.98688C204.81 6.22012 206.398 7.93652 206.244 10.2027C206.142 11.6739 205.154 12.9144 203.749 13.3328C202.427 13.7212 200.941 13.2062 199.894 12.0315C197.854 9.73173 199.609 5.99395 202.243 5.98688Z" fill="#0E0E0E"/>
<path d="M187.98 9.75396C187.26 9.49521 186.995 9.0419 187.193 8.35653C187.327 7.90814 187.663 7.61371 188.15 7.48996C188.764 7.33392 189.249 7.47507 189.612 7.87589C189.866 8.15836 189.967 8.50351 189.745 8.89127C189.378 9.52504 188.756 9.71859 187.988 9.748L187.98 9.75396Z" fill="white"/>
<path d="M202.829 9.53791C202.181 9.03356 202.032 8.48522 202.399 7.85753C202.644 7.4486 203.05 7.26333 203.563 7.30175C204.209 7.35019 204.653 7.65614 204.912 8.18424C205.094 8.55592 205.107 8.93948 204.791 9.2576C204.269 9.77602 203.605 9.76291 202.838 9.53453L202.829 9.53791Z" fill="white"/>
<path d="M200.126 22.9791C201.23 22.919 202.014 22.2773 202.926 21.8044C204.315 21.6318 202.892 23.2681 202.281 23.4445C200.337 24.5628 198.085 24.1988 196.163 23.2643C194.238 23.512 192.433 24.9156 190.226 24.514C189.078 24.5778 185.73 22.9753 187.22 21.6993C187.569 21.5943 187.764 21.7932 187.929 22.0859C189.434 24.195 192.692 23.4032 194.707 22.57C196.55 21.6506 198.149 23.4332 200.13 22.9791H200.126Z" fill="#0E0E0E"/>
<path d="M195.669 74.6836H180.898C192.715 81.4805 204.837 77.5157 209.421 74.6836H195.669Z" fill="#00CE4C"/>
</g>
<path d="M0.999939 181.46V187H26.7C7.43995 187 0.999939 181.46 0.999939 181.46Z" fill="#85DCFF"/>
<path d="M26.7 187H156.7C137.44 187 131 181.46 131 181.46C131 181.46 116.5 169.001 66 181.46C49.17 185.611 36.33 187 26.7 187Z" fill="#85DCFF"/>
<path d="M156.7 187H286.7C267.44 187 261 181.46 261 181.46C261 181.46 246.5 169.001 196 181.46C179.17 185.611 166.33 187 156.7 187Z" fill="#85DCFF"/>
<path d="M286.701 187H391.001V181.46C391.001 181.46 376.501 169.001 326.001 181.46C309.171 185.611 296.331 187 286.701 187Z" fill="#85DCFF"/>
<path d="M0.999939 180.538C0.999939 180.538 7.43995 186.077 26.7 186.077" stroke="#9DE3FF" stroke-width="2"/>
<path d="M26.7 186.077C36.33 186.077 49.17 184.688 66 180.537C116.5 168.078 131 180.537 131 180.537C131 180.537 137.44 186.077 156.7 186.077" stroke="#9DE3FF" stroke-width="2"/>
<path d="M156.7 186.077C166.33 186.077 179.17 184.688 196 180.537C246.5 168.078 261 180.537 261 180.537C261 180.537 267.44 186.077 286.7 186.077" stroke="#9DE3FF" stroke-width="2"/>
<path d="M286.701 186.077C296.331 186.077 309.171 184.688 326.001 180.537C376.501 168.078 391.001 180.537 391.001 180.537" stroke="#9DE3FF" stroke-width="2"/>
<rect width="390" height="55" transform="translate(1 187)" fill="#85DCFF"/>
<path d="M139.531 209.444H141.043V220.556H139.531V209.444ZM138.115 213.632H139.963V214.916H138.115V213.632ZM134.803 210.812H136.339C136.339 211.596 136.271 212.34 136.135 213.044C136.007 213.748 135.791 214.416 135.487 215.048C135.183 215.672 134.771 216.256 134.251 216.8C133.739 217.336 133.095 217.832 132.319 218.288L131.395 217.172C132.235 216.676 132.903 216.132 133.399 215.54C133.903 214.94 134.263 214.28 134.479 213.56C134.695 212.832 134.803 212.024 134.803 211.136V210.812ZM131.947 210.812H135.271V212.084H131.947V210.812ZM137.059 209.732H138.559V220.076H137.059V209.732ZM143.73 210.092H150.69V211.352H143.73V210.092ZM142.578 214.82H152.634V216.116H142.578V214.82ZM146.742 215.732H148.35V220.568H146.742V215.732ZM149.874 210.092H151.446V211.076C151.446 211.476 151.438 211.9 151.422 212.348C151.414 212.796 151.382 213.288 151.326 213.824C151.27 214.352 151.166 214.944 151.014 215.6L149.454 215.408C149.662 214.488 149.782 213.684 149.814 212.996C149.854 212.3 149.874 211.66 149.874 211.076V210.092ZM161.261 209.432H162.869V220.58H161.261V209.432ZM154.217 216.692H155.201C155.857 216.692 156.477 216.684 157.061 216.668C157.645 216.644 158.217 216.608 158.777 216.56C159.337 216.504 159.909 216.424 160.493 216.32L160.661 217.604C159.765 217.764 158.881 217.872 158.009 217.928C157.145 217.976 156.209 218 155.201 218H154.217V216.692ZM154.193 210.38H159.437V214.688H155.837V217.184H154.217V213.428H157.817V211.664H154.193V210.38ZM167.152 215.084H168.736V217.712H167.152V215.084ZM167.932 210.104C168.5 210.104 169.012 210.22 169.468 210.452C169.924 210.684 170.284 211.008 170.548 211.424C170.812 211.832 170.944 212.3 170.944 212.828C170.944 213.356 170.812 213.828 170.548 214.244C170.284 214.66 169.924 214.984 169.468 215.216C169.012 215.448 168.5 215.564 167.932 215.564C167.356 215.564 166.84 215.448 166.384 215.216C165.928 214.984 165.568 214.66 165.304 214.244C165.04 213.828 164.908 213.356 164.908 212.828C164.908 212.3 165.04 211.832 165.304 211.424C165.568 211.008 165.928 210.684 166.384 210.452C166.84 210.22 167.356 210.104 167.932 210.104ZM167.932 211.46C167.644 211.46 167.388 211.516 167.164 211.628C166.948 211.732 166.776 211.888 166.648 212.096C166.52 212.296 166.456 212.54 166.456 212.828C166.456 213.124 166.52 213.376 166.648 213.584C166.776 213.784 166.948 213.94 167.164 214.052C167.388 214.156 167.644 214.208 167.932 214.208C168.212 214.208 168.46 214.156 168.676 214.052C168.9 213.94 169.076 213.784 169.204 213.584C169.332 213.376 169.396 213.124 169.396 212.828C169.396 212.54 169.332 212.296 169.204 212.096C169.076 211.888 168.9 211.732 168.676 211.628C168.46 211.516 168.212 211.46 167.932 211.46ZM171.832 209.444H173.428V220.556H171.832V209.444ZM172.936 213.8H174.892V215.12H172.936V213.8ZM164.728 218.348L164.536 217.064C165.176 217.064 165.876 217.06 166.636 217.052C167.396 217.044 168.172 217.02 168.964 216.98C169.756 216.94 170.52 216.872 171.256 216.776L171.376 217.928C170.608 218.072 169.828 218.176 169.036 218.24C168.252 218.296 167.492 218.328 166.756 218.336C166.028 218.344 165.352 218.348 164.728 218.348ZM179.686 213.38H187.318V214.652H179.686V213.38ZM178.414 215.744H188.47V217.028H178.414V215.744ZM182.602 216.476H184.198V220.556H182.602V216.476ZM179.686 210.032H187.198V211.304H181.318V213.992H179.686V210.032ZM197.085 209.444H198.681V220.556H197.085V209.444ZM194.949 213.56H197.469V214.832H194.949V213.56ZM191.229 210.584H192.717C192.717 211.352 192.689 212.08 192.633 212.768C192.585 213.456 192.485 214.112 192.333 214.736C192.181 215.36 191.953 215.964 191.649 216.548C191.353 217.124 190.961 217.688 190.473 218.24L189.225 217.328C189.649 216.856 189.993 216.38 190.257 215.9C190.521 215.42 190.725 214.92 190.869 214.4C191.013 213.88 191.109 213.324 191.157 212.732C191.205 212.132 191.229 211.476 191.229 210.764V210.584ZM189.717 210.584H191.853V211.868H189.717V210.584ZM194.265 210.584H195.765C195.765 211.384 195.737 212.16 195.681 212.912C195.633 213.656 195.533 214.376 195.381 215.072C195.229 215.76 195.009 216.428 194.721 217.076C194.433 217.716 194.045 218.336 193.557 218.936L192.309 218.06C192.733 217.524 193.073 216.984 193.329 216.44C193.585 215.896 193.781 215.332 193.917 214.748C194.053 214.164 194.145 213.544 194.193 212.888C194.241 212.232 194.265 211.52 194.265 210.752V210.584ZM193.077 210.584H194.925V211.868H193.077V210.584ZM208.112 209.432H209.708V220.58H208.112V209.432ZM201.032 210.32H202.616V213.032H204.92V210.32H206.504V217.988H201.032V210.32ZM202.616 214.268V216.716H204.92V214.268H202.616ZM215.107 210.188C215.683 210.188 216.203 210.304 216.667 210.536C217.131 210.768 217.495 211.092 217.759 211.508C218.023 211.916 218.155 212.388 218.155 212.924C218.155 213.452 218.023 213.924 217.759 214.34C217.495 214.756 217.131 215.08 216.667 215.312C216.203 215.544 215.683 215.66 215.107 215.66C214.523 215.66 213.999 215.544 213.535 215.312C213.071 215.08 212.703 214.756 212.431 214.34C212.167 213.924 212.035 213.452 212.035 212.924C212.035 212.388 212.167 211.916 212.431 211.508C212.703 211.092 213.071 210.768 213.535 210.536C213.999 210.304 214.523 210.188 215.107 210.188ZM215.107 211.556C214.819 211.556 214.559 211.612 214.327 211.724C214.103 211.828 213.923 211.984 213.787 212.192C213.659 212.392 213.595 212.636 213.595 212.924C213.595 213.212 213.659 213.46 213.787 213.668C213.923 213.876 214.103 214.036 214.327 214.148C214.559 214.252 214.819 214.304 215.107 214.304C215.387 214.304 215.639 214.252 215.863 214.148C216.087 214.036 216.263 213.876 216.391 213.668C216.527 213.46 216.595 213.212 216.595 212.924C216.595 212.636 216.527 212.392 216.391 212.192C216.263 211.984 216.087 211.828 215.863 211.724C215.639 211.612 215.387 211.556 215.107 211.556ZM219.199 209.432H220.795V220.58H219.199V209.432ZM211.759 218.336L211.579 217.04C212.227 217.04 212.943 217.036 213.727 217.028C214.519 217.012 215.331 216.98 216.163 216.932C217.003 216.876 217.815 216.792 218.599 216.68L218.707 217.832C217.907 217.992 217.095 218.108 216.271 218.18C215.447 218.244 214.651 218.288 213.883 218.312C213.115 218.328 212.407 218.336 211.759 218.336ZM232.405 209.456H234.001V220.568H232.405V209.456ZM233.641 213.788H235.597V215.108H233.641V213.788ZM225.229 211.088H231.709V212.36H225.229V211.088ZM228.493 212.996C229.029 212.996 229.509 213.112 229.933 213.344C230.357 213.568 230.689 213.876 230.929 214.268C231.177 214.66 231.301 215.116 231.301 215.636C231.301 216.156 231.177 216.616 230.929 217.016C230.689 217.408 230.357 217.72 229.933 217.952C229.517 218.176 229.037 218.288 228.493 218.288C227.957 218.288 227.473 218.176 227.041 217.952C226.617 217.72 226.281 217.408 226.033 217.016C225.793 216.616 225.673 216.156 225.673 215.636C225.673 215.116 225.793 214.66 226.033 214.268C226.281 213.876 226.617 213.568 227.041 213.344C227.473 213.112 227.957 212.996 228.493 212.996ZM228.493 214.292C228.237 214.292 228.013 214.344 227.821 214.448C227.629 214.552 227.477 214.704 227.365 214.904C227.253 215.104 227.197 215.348 227.197 215.636C227.197 215.916 227.253 216.16 227.365 216.368C227.477 216.568 227.629 216.724 227.821 216.836C228.013 216.94 228.237 216.992 228.493 216.992C228.741 216.992 228.961 216.94 229.153 216.836C229.345 216.724 229.497 216.568 229.609 216.368C229.721 216.16 229.777 215.916 229.777 215.636C229.777 215.348 229.721 215.104 229.609 214.904C229.497 214.704 229.345 214.552 229.153 214.448C228.961 214.344 228.741 214.292 228.493 214.292ZM227.677 209.636H229.285V211.58H227.677V209.636ZM237.48 209.804H245.232V213.116H239.112V214.796H237.492V211.916H243.612V211.064H237.48V209.804ZM237.492 214.028H245.496V215.288H237.492V214.028ZM236.328 216.104H246.384V217.376H236.328V216.104ZM240.54 216.572H242.124V220.58H240.54V216.572ZM254.483 209.456H256.079V220.568H254.483V209.456ZM255.719 213.788H257.675V215.108H255.719V213.788ZM247.307 211.088H253.787V212.36H247.307V211.088ZM250.571 212.996C251.107 212.996 251.587 213.112 252.011 213.344C252.435 213.568 252.767 213.876 253.007 214.268C253.255 214.66 253.379 215.116 253.379 215.636C253.379 216.156 253.255 216.616 253.007 217.016C252.767 217.408 252.435 217.72 252.011 217.952C251.595 218.176 251.115 218.288 250.571 218.288C250.035 218.288 249.551 218.176 249.119 217.952C248.695 217.72 248.359 217.408 248.111 217.016C247.871 216.616 247.751 216.156 247.751 215.636C247.751 215.116 247.871 214.66 248.111 214.268C248.359 213.876 248.695 213.568 249.119 213.344C249.551 213.112 250.035 212.996 250.571 212.996ZM250.571 214.292C250.315 214.292 250.091 214.344 249.899 214.448C249.707 214.552 249.555 214.704 249.443 214.904C249.331 215.104 249.275 215.348 249.275 215.636C249.275 215.916 249.331 216.16 249.443 216.368C249.555 216.568 249.707 216.724 249.899 216.836C250.091 216.94 250.315 216.992 250.571 216.992C250.819 216.992 251.039 216.94 251.231 216.836C251.423 216.724 251.575 216.568 251.687 216.368C251.799 216.16 251.855 215.916 251.855 215.636C251.855 215.348 251.799 215.104 251.687 214.904C251.575 214.704 251.423 214.552 251.231 214.448C251.039 214.344 250.819 214.292 250.571 214.292ZM249.755 209.636H251.363V211.58H249.755V209.636ZM259.558 209.804H267.31V213.116H261.19V214.796H259.57V211.916H265.69V211.064H259.558V209.804ZM259.57 214.028H267.574V215.288H259.57V214.028ZM258.406 216.104H268.462V217.376H258.406V216.104ZM262.618 216.572H264.202V220.58H262.618V216.572Z" fill="#0073A0"/>
<path d="M0.999878 235.574V242H27.5698V240.914C17.5798 240.914 8.21988 238.943 0.999878 235.574Z" fill="#FFDA4A"/>
<path d="M27.5698 240.915V242H105.57V240.915C95.5798 240.915 86.2199 238.944 78.9999 235.574C78.9999 235.574 69.5198 229.747 55.3398 235.574C46.3198 239.274 36.6798 240.915 27.5698 240.915Z" fill="#FFDA4A"/>
<path d="M105.57 240.915V242H183.57V240.915C173.58 240.915 164.22 238.944 157 235.574C157 235.574 147.52 229.747 133.34 235.574C124.32 239.274 114.68 240.915 105.57 240.915Z" fill="#FFDA4A"/>
<path d="M183.569 240.915V242H263.429V241.818C252.759 241.818 242.619 239.135 234.999 235.574C234.999 235.574 225.519 229.747 211.339 235.574C202.319 239.274 192.679 240.915 183.569 240.915Z" fill="#FFDA4A"/>
<path d="M263.429 241.818V242H341.75C330.97 242 320.69 239.16 313 235.574C313 235.574 300.399 229.582 289.339 235.574C281.059 240.055 272.079 241.818 263.429 241.818Z" fill="#FFDA4A"/>
<path d="M341.75 242H391V235.574C391 235.574 385.739 225.109 367.339 235.574C359.199 240.211 350.31 242 341.75 242Z" fill="#FFDA4A"/>
<path d="M0.999878 234.65C8.21988 238.02 17.5798 239.991 27.5698 239.991V241.077" stroke="#FFE88C" stroke-width="2"/>
<path d="M27.5698 241.077V239.991C36.6798 239.991 46.3198 238.35 55.3398 234.651C69.5198 228.824 78.9999 234.651 78.9999 234.651C86.2199 238.02 95.5798 239.991 105.57 239.991V241.077" stroke="#FFE88C" stroke-width="2"/>
<path d="M105.57 241.077V239.991C114.68 239.991 124.32 238.35 133.34 234.651C147.52 228.824 157 234.651 157 234.651C164.22 238.02 173.58 239.991 183.57 239.991V241.077" stroke="#FFE88C" stroke-width="2"/>
<path d="M183.569 241.077V239.991C192.679 239.991 202.319 238.35 211.339 234.651C225.519 228.824 234.999 234.651 234.999 234.651C242.619 238.211 252.759 240.895 263.429 240.895V241.077" stroke="#FFE88C" stroke-width="2"/>
<path d="M263.429 241.077V240.895C272.079 240.895 281.059 239.132 289.339 234.651C300.399 228.659 313 234.651 313 234.651C320.69 238.237 330.97 241.077 341.75 241.077" stroke="#FFE88C" stroke-width="2"/>
<path d="M341.75 241.077C350.31 241.077 359.199 239.288 367.339 234.651C385.739 224.187 391 234.651 391 234.651" stroke="#FFE88C" stroke-width="2"/>
<rect width="390" height="55" transform="translate(1 242)" fill="#FFDA4A"/>
<g clip-path="url(#clip2_708_2135)">
<circle cx="32.5004" cy="259" r="8.5" fill="#FFE88C"/>
<circle cx="56.5004" cy="268" r="5.5" fill="#FFE88C"/>
<circle cx="47.5004" cy="285" r="3.5" fill="#FFE88C"/>
</g>
<path d="M121.625 266.208H122.885V267.456C122.885 268.072 122.817 268.688 122.681 269.304C122.553 269.92 122.361 270.5 122.105 271.044C121.849 271.58 121.525 272.06 121.133 272.484C120.749 272.908 120.301 273.24 119.789 273.48L118.889 272.22C119.353 272.004 119.753 271.72 120.089 271.368C120.433 271.016 120.717 270.624 120.941 270.192C121.173 269.76 121.345 269.312 121.457 268.848C121.569 268.376 121.625 267.912 121.625 267.456V266.208ZM121.961 266.208H123.221V267.456C123.221 267.872 123.277 268.3 123.389 268.74C123.501 269.18 123.665 269.604 123.881 270.012C124.105 270.42 124.385 270.792 124.721 271.128C125.065 271.456 125.465 271.724 125.921 271.932L125.033 273.204C124.521 272.964 124.073 272.644 123.689 272.244C123.313 271.836 122.993 271.376 122.729 270.864C122.473 270.344 122.281 269.796 122.153 269.22C122.025 268.636 121.961 268.048 121.961 267.456V266.208ZM119.321 265.512H125.429V266.832H119.321V265.512ZM126.233 264.456H127.841V275.568H126.233V264.456ZM127.493 268.692H129.449V270H127.493V268.692ZM134.284 265.68H135.676V266.016C135.676 266.4 135.612 266.772 135.484 267.132C135.364 267.492 135.18 267.828 134.932 268.14C134.684 268.444 134.38 268.72 134.02 268.968C133.668 269.208 133.26 269.412 132.796 269.58C132.332 269.748 131.816 269.868 131.248 269.94L130.66 268.704C131.156 268.64 131.596 268.544 131.98 268.416C132.372 268.28 132.712 268.124 133 267.948C133.288 267.764 133.528 267.568 133.72 267.36C133.912 267.152 134.052 266.932 134.14 266.7C134.236 266.468 134.284 266.24 134.284 266.016V265.68ZM134.752 265.68H136.132V266.016C136.132 266.24 136.176 266.468 136.264 266.7C136.36 266.932 136.504 267.152 136.696 267.36C136.888 267.568 137.128 267.764 137.416 267.948C137.712 268.124 138.052 268.28 138.436 268.416C138.82 268.544 139.26 268.64 139.756 268.704L139.168 269.94C138.6 269.868 138.084 269.748 137.62 269.58C137.156 269.412 136.744 269.208 136.384 268.968C136.032 268.72 135.732 268.444 135.484 268.14C135.244 267.828 135.06 267.492 134.932 267.132C134.812 266.772 134.752 266.4 134.752 266.016V265.68ZM134.368 271.5H135.964V275.568H134.368V271.5ZM130.18 270.576H140.236V271.86H130.18V270.576ZM131.068 265.02H139.312V266.28H131.068V265.02ZM141.711 265.26H146.463V266.532H141.711V265.26ZM143.079 267.852H144.651V270.624H143.079V267.852ZM145.839 265.26H147.411V265.956C147.411 266.348 147.399 266.816 147.375 267.36C147.359 267.896 147.283 268.516 147.147 269.22L145.599 269.04C145.719 268.36 145.787 267.772 145.803 267.276C145.827 266.78 145.839 266.34 145.839 265.956V265.26ZM148.479 264.444H150.087V272.76H148.479V264.444ZM149.451 267.84H151.419V269.148H149.451V267.84ZM142.671 274.092H150.447V275.376H142.671V274.092ZM142.671 272.028H144.279V274.488H142.671V272.028ZM141.195 271.284L141.051 270.012C141.691 270.012 142.399 270.008 143.175 270C143.951 269.984 144.743 269.952 145.551 269.904C146.359 269.848 147.135 269.768 147.879 269.664L147.987 270.804C147.219 270.94 146.435 271.044 145.635 271.116C144.835 271.18 144.055 271.224 143.295 271.248C142.535 271.264 141.835 271.276 141.195 271.284ZM157.274 265.008C158.058 265.008 158.762 265.14 159.386 265.404C160.018 265.668 160.514 266.04 160.874 266.52C161.242 267 161.426 267.564 161.426 268.212C161.426 268.86 161.242 269.428 160.874 269.916C160.514 270.396 160.018 270.768 159.386 271.032C158.762 271.296 158.058 271.428 157.274 271.428C156.498 271.428 155.794 271.296 155.162 271.032C154.538 270.768 154.042 270.396 153.674 269.916C153.306 269.428 153.122 268.86 153.122 268.212C153.122 267.564 153.306 267 153.674 266.52C154.042 266.04 154.538 265.668 155.162 265.404C155.794 265.14 156.498 265.008 157.274 265.008ZM157.274 266.304C156.778 266.304 156.334 266.38 155.942 266.532C155.55 266.684 155.242 266.904 155.018 267.192C154.802 267.472 154.694 267.812 154.694 268.212C154.694 268.612 154.802 268.956 155.018 269.244C155.242 269.524 155.55 269.74 155.942 269.892C156.334 270.044 156.778 270.12 157.274 270.12C157.786 270.12 158.234 270.044 158.618 269.892C159.01 269.74 159.314 269.524 159.53 269.244C159.754 268.956 159.866 268.612 159.866 268.212C159.866 267.812 159.754 267.472 159.53 267.192C159.314 266.904 159.01 266.684 158.618 266.532C158.234 266.38 157.786 266.304 157.274 266.304ZM152.258 272.916H162.326V274.224H152.258V272.916ZM163.297 273.048H173.365V274.344H163.297V273.048ZM167.521 270.936H169.105V273.564H167.521V270.936ZM164.437 265.164H172.225V268.872H166.033V270.732H164.449V267.624H170.641V266.436H164.437V265.164ZM164.449 270.108H172.477V271.38H164.449V270.108ZM185.347 268.644H187.303V269.964H185.347V268.644ZM184.147 264.432H185.755V275.544H184.147V264.432ZM177.391 265.5H178.975V272.412H177.391V265.5ZM177.391 271.512H178.339C179.131 271.512 179.955 271.48 180.811 271.416C181.667 271.352 182.543 271.232 183.439 271.056L183.607 272.352C182.679 272.544 181.775 272.676 180.895 272.748C180.015 272.812 179.163 272.844 178.339 272.844H177.391V271.512ZM191.67 265.188C192.246 265.188 192.766 265.304 193.23 265.536C193.694 265.768 194.058 266.092 194.322 266.508C194.586 266.916 194.718 267.388 194.718 267.924C194.718 268.452 194.586 268.924 194.322 269.34C194.058 269.756 193.694 270.08 193.23 270.312C192.766 270.544 192.246 270.66 191.67 270.66C191.086 270.66 190.562 270.544 190.098 270.312C189.634 270.08 189.266 269.756 188.994 269.34C188.73 268.924 188.598 268.452 188.598 267.924C188.598 267.388 188.73 266.916 188.994 266.508C189.266 266.092 189.634 265.768 190.098 265.536C190.562 265.304 191.086 265.188 191.67 265.188ZM191.67 266.556C191.382 266.556 191.122 266.612 190.89 266.724C190.666 266.828 190.486 266.984 190.35 267.192C190.222 267.392 190.158 267.636 190.158 267.924C190.158 268.212 190.222 268.46 190.35 268.668C190.486 268.876 190.666 269.036 190.89 269.148C191.122 269.252 191.382 269.304 191.67 269.304C191.95 269.304 192.202 269.252 192.426 269.148C192.65 269.036 192.826 268.876 192.954 268.668C193.09 268.46 193.158 268.212 193.158 267.924C193.158 267.636 193.09 267.392 192.954 267.192C192.826 266.984 192.65 266.828 192.426 266.724C192.202 266.612 191.95 266.556 191.67 266.556ZM195.762 264.432H197.358V275.58H195.762V264.432ZM188.322 273.336L188.142 272.04C188.79 272.04 189.506 272.036 190.29 272.028C191.082 272.012 191.894 271.98 192.726 271.932C193.566 271.876 194.378 271.792 195.162 271.68L195.27 272.832C194.47 272.992 193.658 273.108 192.834 273.18C192.01 273.244 191.214 273.288 190.446 273.312C189.678 273.328 188.97 273.336 188.322 273.336ZM207.42 267.372H210.228V268.644H207.42V267.372ZM209.544 264.456H211.152V272.568H209.544V264.456ZM203.808 274.092H211.404V275.376H203.808V274.092ZM203.808 271.776H205.404V274.752H203.808V271.776ZM204.912 265.116C205.464 265.116 205.96 265.24 206.4 265.488C206.848 265.728 207.2 266.064 207.456 266.496C207.72 266.928 207.852 267.42 207.852 267.972C207.852 268.516 207.72 269.004 207.456 269.436C207.2 269.86 206.848 270.196 206.4 270.444C205.96 270.692 205.464 270.816 204.912 270.816C204.368 270.816 203.872 270.692 203.424 270.444C202.984 270.196 202.632 269.86 202.368 269.436C202.112 269.004 201.984 268.516 201.984 267.972C201.984 267.42 202.112 266.928 202.368 266.496C202.632 266.064 202.984 265.728 203.424 265.488C203.872 265.24 204.368 265.116 204.912 265.116ZM204.912 266.508C204.648 266.508 204.408 266.568 204.192 266.688C203.984 266.8 203.816 266.964 203.688 267.18C203.568 267.396 203.508 267.656 203.508 267.96C203.508 268.272 203.568 268.536 203.688 268.752C203.816 268.968 203.984 269.132 204.192 269.244C204.408 269.356 204.652 269.412 204.924 269.412C205.188 269.412 205.424 269.356 205.632 269.244C205.84 269.132 206.004 268.968 206.124 268.752C206.252 268.536 206.316 268.272 206.316 267.96C206.316 267.656 206.252 267.396 206.124 267.18C206.004 266.964 205.84 266.8 205.632 266.688C205.424 266.568 205.184 266.508 204.912 266.508ZM215.927 265.212C216.479 265.212 216.971 265.376 217.403 265.704C217.843 266.024 218.183 266.484 218.423 267.084C218.671 267.676 218.795 268.376 218.795 269.184C218.795 270 218.671 270.708 218.423 271.308C218.183 271.9 217.843 272.36 217.403 272.688C216.971 273.008 216.479 273.168 215.927 273.168C215.375 273.168 214.883 273.008 214.451 272.688C214.019 272.36 213.679 271.9 213.431 271.308C213.183 270.708 213.059 270 213.059 269.184C213.059 268.376 213.183 267.676 213.431 267.084C213.679 266.484 214.019 266.024 214.451 265.704C214.883 265.376 215.375 265.212 215.927 265.212ZM215.927 266.664C215.663 266.664 215.427 266.76 215.219 266.952C215.019 267.144 214.863 267.428 214.751 267.804C214.639 268.172 214.583 268.632 214.583 269.184C214.583 269.728 214.639 270.192 214.751 270.576C214.863 270.952 215.019 271.236 215.219 271.428C215.427 271.62 215.663 271.716 215.927 271.716C216.207 271.716 216.447 271.62 216.647 271.428C216.847 271.236 217.003 270.952 217.115 270.576C217.227 270.192 217.283 269.728 217.283 269.184C217.283 268.632 217.227 268.172 217.115 267.804C217.003 267.428 216.847 267.144 216.647 266.952C216.447 266.76 216.207 266.664 215.927 266.664ZM220.619 264.432H222.215V275.58H220.619V264.432ZM218.327 268.452H221.291V269.724H218.327V268.452ZM223.93 269.436H233.986V270.588H223.93V269.436ZM225.058 271.152H232.798V273.792H226.654V274.74H225.07V272.784H231.226V272.232H225.058V271.152ZM225.07 274.392H233.11V275.472H225.07V274.392ZM225.154 264.636H232.762V267.264H226.75V268.164H225.178V266.256H231.19V265.716H225.154V264.636ZM225.178 267.84H232.966V268.92H225.178V267.84ZM238 265.356H243.304V270.732H238V265.356ZM241.732 266.628H239.572V269.472H241.732V266.628ZM244.828 264.456H246.424V272.556H244.828V264.456ZM245.98 267.66H247.9V268.968H245.98V267.66ZM239.26 274.092H246.82V275.376H239.26V274.092ZM239.26 271.764H240.868V274.74H239.26V271.764ZM248.739 268.752H258.783V270.012H248.739V268.752ZM249.975 266.904H257.595V268.164H249.975V266.904ZM249.975 264.66H257.499V265.92H251.559V267.996H249.975V264.66ZM249.867 270.636H257.547V273.588H251.463V274.536H249.879V272.46H255.975V271.848H249.867V270.636ZM249.879 274.248H257.847V275.472H249.879V274.248ZM262.802 265.212C263.354 265.212 263.846 265.376 264.278 265.704C264.718 266.024 265.058 266.484 265.298 267.084C265.546 267.676 265.67 268.376 265.67 269.184C265.67 270 265.546 270.708 265.298 271.308C265.058 271.9 264.718 272.36 264.278 272.688C263.846 273.008 263.354 273.168 262.802 273.168C262.25 273.168 261.758 273.008 261.326 272.688C260.894 272.36 260.554 271.9 260.306 271.308C260.058 270.708 259.934 270 259.934 269.184C259.934 268.376 260.058 267.676 260.306 267.084C260.554 266.484 260.894 266.024 261.326 265.704C261.758 265.376 262.25 265.212 262.802 265.212ZM262.802 266.664C262.538 266.664 262.302 266.76 262.094 266.952C261.894 267.144 261.738 267.428 261.626 267.804C261.514 268.172 261.458 268.632 261.458 269.184C261.458 269.728 261.514 270.192 261.626 270.576C261.738 270.952 261.894 271.236 262.094 271.428C262.302 271.62 262.538 271.716 262.802 271.716C263.082 271.716 263.322 271.62 263.522 271.428C263.722 271.236 263.878 270.952 263.99 270.576C264.102 270.192 264.158 269.728 264.158 269.184C264.158 268.632 264.102 268.172 263.99 267.804C263.878 267.428 263.722 267.144 263.522 266.952C263.322 266.76 263.082 266.664 262.802 266.664ZM267.494 264.432H269.09V275.58H267.494V264.432ZM265.202 268.452H268.166V269.724H265.202V268.452ZM277.921 264.432H279.517V275.58H277.921V264.432ZM279.157 268.644H281.113V269.952H279.157V268.644ZM271.261 271.692H272.185C272.817 271.692 273.409 271.684 273.961 271.668C274.513 271.652 275.049 271.62 275.569 271.572C276.097 271.516 276.633 271.444 277.177 271.356L277.321 272.64C276.761 272.736 276.209 272.812 275.665 272.868C275.129 272.916 274.577 272.952 274.009 272.976C273.441 273 272.833 273.012 272.185 273.012H271.261V271.692ZM271.237 265.38H276.349V269.688H272.833V272.196H271.261V268.428H274.765V266.664H271.237V265.38Z" fill="#A78500"/>
<path d="M0.999878 291.46V297H25.6499C10.9699 297 0.999878 291.46 0.999878 291.46Z" fill="#4E72FF"/>
<path d="M25.6499 297H123.15C108.47 297 98.4999 291.46 98.4999 291.46C98.4999 291.46 77.6499 279.001 50.5399 291.46C41.5099 295.611 32.9899 297 25.6499 297Z" fill="#4E72FF"/>
<path d="M123.15 297H220.65C205.97 297 196 291.46 196 291.46C196 291.46 175.15 279.001 148.04 291.46C139.01 295.611 130.49 297 123.15 297Z" fill="#4E72FF"/>
<path d="M220.65 297H318.15C303.47 297 293.5 291.46 293.5 291.46C293.5 291.46 272.65 279.001 245.54 291.46C236.51 295.611 227.99 297 220.65 297Z" fill="#4E72FF"/>
<path d="M318.15 297H391V291.46C391 291.46 370.15 279.001 343.04 291.46C334.01 295.611 325.49 297 318.15 297Z" fill="#4E72FF"/>
<path d="M0.999878 290.538C0.999878 290.538 10.9699 296.077 25.6499 296.077" stroke="#9BACF1" stroke-width="2"/>
<path d="M25.6499 296.077C32.9899 296.077 41.5099 294.688 50.5399 290.537C77.6499 278.078 98.4999 290.537 98.4999 290.537C98.4999 290.537 108.47 296.077 123.15 296.077" stroke="#9BACF1" stroke-width="2"/>
<path d="M123.15 296.077C130.49 296.077 139.01 294.688 148.04 290.537C175.15 278.078 196 290.537 196 290.537C196 290.537 205.97 296.077 220.65 296.077" stroke="#9BACF1" stroke-width="2"/>
<path d="M220.65 296.077C227.99 296.077 236.51 294.688 245.54 290.537C272.65 278.078 293.5 290.537 293.5 290.537C293.5 290.537 303.47 296.077 318.15 296.077" stroke="#9BACF1" stroke-width="2"/>
<path d="M318.15 296.077C325.49 296.077 334.01 294.688 343.04 290.537C370.15 278.078 391 290.537 391 290.537" stroke="#9BACF1" stroke-width="2"/>
<defs>
<clipPath id="clip0_708_2135">
<rect width="38" height="38" fill="white" transform="translate(24.0004 140.5)"/>
</clipPath>
<clipPath id="clip1_708_2135">
<rect width="29.9993" height="27" fill="white" transform="translate(338 146)"/>
</clipPath>
<clipPath id="clip2_708_2135">
<rect width="38" height="38" fill="white" transform="translate(24.0004 250.5)"/>
</clipPath>
</defs>
</svg>
