<svg viewBox="0 0 392 295" fill="none" xmlns="http://www.w3.org/2000/svg">
<path d="M391 121.24V128H304.311V125.544C310.021 125.544 316.85 124.815 324.5 122.628C347.46 116.067 353.59 121.448 355.63 122.298C357.67 123.149 361.74 126.282 375.26 121.24C388.771 116.189 391 121.24 391 121.24Z" fill="#FF8BCA"/>
<path d="M304.31 125.544V128H194.9C199.18 127.991 204.51 126.62 210.95 122.628C210.95 122.628 231.66 109.792 285.99 122.628C285.99 122.628 292.9 125.544 304.31 125.544Z" fill="#FF8BCA"/>
<path d="M194.9 127.992L94.3496 128V125.544C100.06 125.544 106.89 124.815 114.55 122.628C137.51 116.067 143.64 121.448 145.68 122.298C147.72 123.149 151.79 126.282 165.31 121.24C178.82 116.189 181.04 121.24 181.04 121.24C181.04 121.24 185.4 127.992 194.9 127.992Z" fill="#FF8BCA"/>
<path d="M94.3501 125.544V128H1V122.628C1 122.628 21.71 109.792 76.03 122.628C76.03 122.628 82.9401 125.544 94.3501 125.544Z" fill="#FF8BCA"/>
<path d="M391 120.316C391 120.316 388.77 115.265 375.26 120.316C361.74 125.358 357.67 122.225 355.63 121.375C353.59 120.524 347.46 115.144 324.5 121.705C316.85 123.892 310.021 124.621 304.311 124.621" stroke="#FFADDA" stroke-width="2"/>
<path d="M304.31 124.621C292.9 124.621 285.99 121.705 285.99 121.705C231.66 108.869 210.95 121.705 210.95 121.705C204.51 125.697 199.18 127.068 194.9 127.077" stroke="#FFADDA" stroke-width="2"/>
<path d="M194.9 127.068C185.4 127.068 181.04 120.316 181.04 120.316C181.04 120.316 178.82 115.265 165.31 120.316C151.79 125.358 147.72 122.225 145.68 121.375C143.64 120.524 137.51 115.144 114.55 121.705C106.89 123.892 100.06 124.621 94.3496 124.621" stroke="#FFADDA" stroke-width="2"/>
<path d="M94.3501 124.621C82.9401 124.621 76.03 121.705 76.03 121.705C21.71 108.869 1 121.705 1 121.705" stroke="#FFADDA" stroke-width="2"/>
<rect width="391" height="55" transform="translate(1 128)" fill="#FF8BCA"/>
<g clip-path="url(#clip0_669_1855)">
<circle cx="32.5004" cy="145" r="8.5" fill="#FFADDA"/>
<circle cx="56.5004" cy="154" r="5.5" fill="#FFADDA"/>
<circle cx="47.5004" cy="171" r="3.5" fill="#FFADDA"/>
</g>
<path d="M112.262 156.66H122.318V157.944H112.262V156.66ZM116.45 157.5H118.046V161.568H116.45V157.5ZM117.266 150.828C118.058 150.828 118.754 150.932 119.354 151.14C119.962 151.34 120.434 151.628 120.77 152.004C121.106 152.38 121.274 152.82 121.274 153.324C121.274 153.836 121.106 154.28 120.77 154.656C120.434 155.024 119.962 155.312 119.354 155.52C118.754 155.72 118.058 155.82 117.266 155.82C116.474 155.82 115.774 155.72 115.166 155.52C114.566 155.312 114.094 155.024 113.75 154.656C113.414 154.28 113.246 153.836 113.246 153.324C113.246 152.82 113.414 152.38 113.75 152.004C114.094 151.628 114.566 151.34 115.166 151.14C115.774 150.932 116.474 150.828 117.266 150.828ZM117.254 152.088C116.774 152.088 116.354 152.136 115.994 152.232C115.642 152.328 115.37 152.468 115.178 152.652C114.986 152.828 114.89 153.052 114.89 153.324C114.89 153.588 114.986 153.812 115.178 153.996C115.37 154.18 115.642 154.32 115.994 154.416C116.354 154.504 116.774 154.548 117.254 154.548C117.75 154.548 118.174 154.504 118.526 154.416C118.878 154.32 119.15 154.18 119.342 153.996C119.542 153.812 119.642 153.588 119.642 153.324C119.642 153.052 119.542 152.828 119.342 152.652C119.15 152.468 118.878 152.328 118.526 152.232C118.174 152.136 117.75 152.088 117.254 152.088ZM130.945 150.432H132.553V161.58H130.945V150.432ZM123.901 157.692H124.885C125.541 157.692 126.161 157.684 126.745 157.668C127.329 157.644 127.901 157.608 128.461 157.56C129.021 157.504 129.593 157.424 130.177 157.32L130.345 158.604C129.449 158.764 128.565 158.872 127.693 158.928C126.829 158.976 125.893 159 124.885 159H123.901V157.692ZM123.877 151.38H129.121V155.688H125.521V158.184H123.901V154.428H127.501V152.664H123.877V151.38ZM141.432 150.432H143.04V161.544H141.432V150.432ZM142.632 154.692H144.588V156H142.632V154.692ZM138.516 151.584H140.088C140.088 152.696 139.928 153.748 139.608 154.74C139.296 155.732 138.776 156.644 138.048 157.476C137.328 158.3 136.352 159.02 135.12 159.636L134.22 158.424C135.196 157.92 136 157.352 136.632 156.72C137.272 156.088 137.744 155.372 138.048 154.572C138.36 153.764 138.516 152.864 138.516 151.872V151.584ZM134.832 151.584H139.344V152.868H134.832V151.584ZM153.666 153.372H156.474V154.644H153.666V153.372ZM155.79 150.456H157.398V158.568H155.79V150.456ZM150.054 160.092H157.65V161.376H150.054V160.092ZM150.054 157.776H151.65V160.752H150.054V157.776ZM151.158 151.116C151.71 151.116 152.206 151.24 152.646 151.488C153.094 151.728 153.446 152.064 153.702 152.496C153.966 152.928 154.098 153.42 154.098 153.972C154.098 154.516 153.966 155.004 153.702 155.436C153.446 155.86 153.094 156.196 152.646 156.444C152.206 156.692 151.71 156.816 151.158 156.816C150.614 156.816 150.118 156.692 149.67 156.444C149.23 156.196 148.878 155.86 148.614 155.436C148.358 155.004 148.23 154.516 148.23 153.972C148.23 153.42 148.358 152.928 148.614 152.496C148.878 152.064 149.23 151.728 149.67 151.488C150.118 151.24 150.614 151.116 151.158 151.116ZM151.158 152.508C150.894 152.508 150.654 152.568 150.438 152.688C150.23 152.8 150.062 152.964 149.934 153.18C149.814 153.396 149.754 153.656 149.754 153.96C149.754 154.272 149.814 154.536 149.934 154.752C150.062 154.968 150.23 155.132 150.438 155.244C150.654 155.356 150.898 155.412 151.17 155.412C151.434 155.412 151.67 155.356 151.878 155.244C152.086 155.132 152.25 154.968 152.37 154.752C152.498 154.536 152.562 154.272 152.562 153.96C152.562 153.656 152.498 153.396 152.37 153.18C152.25 152.964 152.086 152.8 151.878 152.688C151.67 152.568 151.43 152.508 151.158 152.508ZM167.081 150.456H168.605V158.724H167.081V150.456ZM163.733 153.408H165.461V154.692H163.733V153.408ZM164.909 150.66H166.409V158.472H164.909V150.66ZM161.117 160.092H168.881V161.376H161.117V160.092ZM161.117 157.824H162.725V160.932H161.117V157.824ZM161.081 152.352H162.329V153.06C162.329 153.684 162.241 154.284 162.065 154.86C161.897 155.428 161.625 155.932 161.249 156.372C160.881 156.804 160.397 157.14 159.797 157.38L158.981 156.156C159.485 155.956 159.889 155.692 160.193 155.364C160.505 155.036 160.729 154.672 160.865 154.272C161.009 153.872 161.081 153.468 161.081 153.06V152.352ZM161.393 152.352H162.629V153.06C162.629 153.452 162.693 153.836 162.821 154.212C162.957 154.588 163.169 154.924 163.457 155.22C163.753 155.516 164.133 155.76 164.597 155.952L163.817 157.188C163.233 156.956 162.761 156.632 162.401 156.216C162.049 155.8 161.793 155.32 161.633 154.776C161.473 154.232 161.393 153.66 161.393 153.06V152.352ZM159.329 151.404H164.249V152.676H159.329V151.404ZM177.268 150.432H178.876V161.544H177.268V150.432ZM178.468 154.692H180.424V156H178.468V154.692ZM174.352 151.584H175.924C175.924 152.696 175.764 153.748 175.444 154.74C175.132 155.732 174.612 156.644 173.884 157.476C173.164 158.3 172.188 159.02 170.956 159.636L170.056 158.424C171.032 157.92 171.836 157.352 172.468 156.72C173.108 156.088 173.58 155.372 173.884 154.572C174.196 153.764 174.352 152.864 174.352 151.872V151.584ZM170.668 151.584H175.18V152.868H170.668V151.584ZM191.074 150.444H192.67V156.264H191.074V150.444ZM192.238 152.724H194.146V154.032H192.238V152.724ZM187.906 151.188H189.682C189.682 152.172 189.486 153.02 189.094 153.732C188.702 154.444 188.122 155.024 187.354 155.472C186.594 155.92 185.65 156.252 184.522 156.468L183.898 155.196C184.866 155.036 185.642 154.804 186.226 154.5C186.818 154.196 187.246 153.844 187.51 153.444C187.774 153.036 187.906 152.612 187.906 152.172V151.188ZM184.414 151.188H188.914V152.46H184.414V151.188ZM185.398 156.708H192.718V157.872H186.994V160.848H185.398V156.708ZM185.398 160.284H192.958V161.448H185.398V160.284ZM186.49 158.496H192.61V159.624H186.49V158.496ZM194.961 156.12H205.017V157.38H194.961V156.12ZM196.185 160.092H203.889V161.376H196.185V160.092ZM196.185 158.124H197.781V160.5H196.185V158.124ZM199.989 150.78C200.797 150.78 201.501 150.872 202.101 151.056C202.709 151.24 203.181 151.504 203.517 151.848C203.853 152.192 204.021 152.596 204.021 153.06C204.021 153.532 203.853 153.94 203.517 154.284C203.181 154.628 202.709 154.892 202.101 155.076C201.501 155.26 200.797 155.352 199.989 155.352C199.189 155.352 198.485 155.26 197.877 155.076C197.277 154.892 196.809 154.628 196.473 154.284C196.137 153.94 195.969 153.532 195.969 153.06C195.969 152.596 196.137 152.192 196.473 151.848C196.809 151.504 197.277 151.24 197.877 151.056C198.485 150.872 199.189 150.78 199.989 150.78ZM199.989 152.04C199.501 152.04 199.077 152.08 198.717 152.16C198.357 152.24 198.085 152.356 197.901 152.508C197.717 152.652 197.625 152.836 197.625 153.06C197.625 153.284 197.717 153.472 197.901 153.624C198.085 153.776 198.357 153.892 198.717 153.972C199.077 154.052 199.501 154.092 199.989 154.092C200.493 154.092 200.921 154.052 201.273 153.972C201.625 153.892 201.893 153.776 202.077 153.624C202.269 153.472 202.365 153.284 202.365 153.06C202.365 152.836 202.269 152.652 202.077 152.508C201.893 152.356 201.625 152.24 201.273 152.16C200.921 152.08 200.493 152.04 199.989 152.04ZM214.083 151.836H216.783V153.048H214.083V151.836ZM214.083 153.876H216.783V155.076H214.083V153.876ZM216.423 150.456H218.019V156.156H216.423V150.456ZM210.675 156.576H218.019V159.552H212.271V160.956H210.699V158.4H216.447V157.812H210.675V156.576ZM210.699 160.2H218.343V161.448H210.699V160.2ZM209.187 150.912H210.771V152.196H212.883V150.912H214.455V155.844H209.187V150.912ZM210.771 153.396V154.608H212.883V153.396H210.771ZM224.798 150.6C226.062 150.6 227.046 150.764 227.75 151.092C228.462 151.42 228.818 151.892 228.818 152.508C228.818 153.116 228.462 153.584 227.75 153.912C227.046 154.24 226.062 154.404 224.798 154.404C223.526 154.404 222.534 154.24 221.822 153.912C221.118 153.584 220.766 153.116 220.766 152.508C220.766 151.892 221.118 151.42 221.822 151.092C222.534 150.764 223.526 150.6 224.798 150.6ZM224.786 151.776C224.258 151.776 223.818 151.804 223.466 151.86C223.114 151.908 222.85 151.988 222.674 152.1C222.506 152.204 222.422 152.34 222.422 152.508C222.422 152.676 222.506 152.816 222.674 152.928C222.85 153.032 223.114 153.108 223.466 153.156C223.818 153.204 224.258 153.228 224.786 153.228C225.322 153.228 225.766 153.204 226.118 153.156C226.47 153.108 226.73 153.032 226.898 152.928C227.066 152.816 227.15 152.676 227.15 152.508C227.15 152.34 227.066 152.204 226.898 152.1C226.73 151.988 226.47 151.908 226.118 151.86C225.766 151.804 225.322 151.776 224.786 151.776ZM219.758 154.92H229.814V156.18H219.758V154.92ZM220.91 156.804H228.59V159.648H222.506V160.632H220.922V158.544H227.018V157.98H220.91V156.804ZM220.922 160.284H228.89V161.496H220.922V160.284ZM240.62 150.456H242.228V161.568H240.62V150.456ZM241.88 154.584H243.836V155.904H241.88V154.584ZM233.864 151.32H235.448V154.032H237.68V151.32H239.264V158.988H233.864V151.32ZM235.448 155.268V157.716H237.68V155.268H235.448ZM251.683 150.432H253.279V161.58H251.683V150.432ZM252.919 154.644H254.875V155.952H252.919V154.644ZM245.023 157.692H245.947C246.579 157.692 247.171 157.684 247.723 157.668C248.275 157.652 248.811 157.62 249.331 157.572C249.859 157.516 250.395 157.444 250.939 157.356L251.083 158.64C250.523 158.736 249.971 158.812 249.427 158.868C248.891 158.916 248.339 158.952 247.771 158.976C247.203 159 246.595 159.012 245.947 159.012H245.023V157.692ZM244.999 151.38H250.111V155.688H246.595V158.196H245.023V154.428H248.527V152.664H244.999V151.38ZM256.878 150.852H258.45V151.932H262.794V150.852H264.378V155.376H256.878V150.852ZM258.45 153.168V154.128H262.794V153.168H258.45ZM255.594 156.324H265.65V157.584H255.594V156.324ZM259.818 154.716H261.402V156.852H259.818V154.716ZM256.818 160.092H264.522V161.376H256.818V160.092ZM256.818 158.244H258.414V160.572H256.818V158.244ZM273.737 150.432H275.345V161.58H273.737V150.432ZM274.997 154.548H276.953V155.868H274.997V154.548ZM267.065 157.596H268.001C268.633 157.596 269.225 157.588 269.777 157.572C270.329 157.548 270.865 157.512 271.385 157.464C271.905 157.408 272.437 157.332 272.981 157.236L273.137 158.556C272.577 158.652 272.025 158.728 271.481 158.784C270.945 158.84 270.393 158.876 269.825 158.892C269.257 158.908 268.649 158.916 268.001 158.916H267.065V157.596ZM267.065 151.464H272.249V152.748H268.661V158.22H267.065V151.464ZM283.048 152.196H285.844V153.468H283.048V152.196ZM283.048 154.584H285.892V155.856H283.048V154.584ZM278.128 151.344H283.384V156.78H278.128V151.344ZM281.824 152.592H279.7V155.52H281.824V152.592ZM285.376 150.456H286.984V158.544H285.376V150.456ZM279.628 160.092H287.224V161.376H279.628V160.092ZM279.628 157.788H281.224V160.764H279.628V157.788Z" fill="#AE4039"/>
<g clip-path="url(#clip1_669_1855)">
<path fill-rule="evenodd" clip-rule="evenodd" d="M353.272 155.024C353.917 155.376 354.154 156.24 353.803 156.954C350.861 162.927 346.227 165.763 344.094 166.466C343.384 166.7 342.657 166.272 342.47 165.511C342.284 164.75 342.708 163.944 343.419 163.71C344.914 163.218 348.911 160.873 351.468 155.68C351.82 154.965 352.627 154.672 353.272 155.024Z" fill="#AE4039"/>
<path d="M354.563 153.919C354.192 146.596 360.078 146.309 364.053 147.305C364.77 147.484 365.14 148.32 364.858 149.066C361.726 157.364 357.273 156.583 355.014 154.841C354.741 154.631 354.582 154.285 354.563 153.919Z" fill="#AE4039"/>
<path fill-rule="evenodd" clip-rule="evenodd" d="M363.938 148.67C363.998 148.509 363.911 148.385 363.815 148.361C361.902 147.882 359.681 147.759 358.045 148.493C357.255 148.848 356.619 149.393 356.187 150.193C355.75 151.003 355.472 152.166 355.557 153.842C355.559 153.876 355.567 153.904 355.577 153.925C355.587 153.945 355.596 153.953 355.599 153.956C356.562 154.698 357.919 155.178 359.318 154.689C360.709 154.203 362.432 152.659 363.938 148.67ZM364.292 146.251C365.629 146.585 366.281 148.132 365.778 149.464C364.152 153.773 362.082 155.987 359.899 156.75C357.724 157.509 355.725 156.728 354.429 155.729C353.89 155.313 353.602 154.654 353.569 153.997L354.563 153.92L353.569 153.997C353.468 152.012 353.787 150.394 354.474 149.121C355.165 147.839 356.18 147.002 357.312 146.494C359.52 145.503 362.23 145.734 364.292 146.251L364.054 147.306L364.292 146.251Z" fill="#AE4039"/>
<path d="M355.157 156.093C359.679 159.155 357.806 164.266 355.643 167.419C355.14 168.152 354.122 168.086 353.675 167.314C349.974 160.917 352.034 157.364 354.016 156.062C354.367 155.832 354.809 155.858 355.157 156.093Z" fill="#AE4039"/>
<path fill-rule="evenodd" clip-rule="evenodd" d="M354.762 166.852C354.778 166.843 354.801 166.827 354.826 166.792C355.856 165.291 356.751 163.41 356.901 161.627C356.975 160.752 356.868 159.923 356.531 159.165C356.195 158.411 355.604 157.663 354.612 156.992C354.587 156.975 354.565 156.97 354.553 156.97C354.551 156.97 354.549 156.97 354.548 156.97C353.77 157.482 352.955 158.447 352.711 159.957C352.464 161.476 352.77 163.702 354.538 166.757C354.583 166.835 354.643 166.862 354.693 166.865C354.719 166.866 354.743 166.861 354.762 166.852ZM356.461 168.045C355.515 169.425 353.618 169.261 352.814 167.871C350.88 164.529 350.365 161.779 350.719 159.597C351.074 157.407 352.28 155.945 353.484 155.155C354.202 154.683 355.066 154.763 355.702 155.194C356.972 156.054 357.842 157.093 358.359 158.257C358.875 159.417 359.013 160.637 358.914 161.816C358.717 164.143 357.595 166.394 356.461 168.045Z" fill="#AE4039"/>
<path d="M353.055 155.179C346.593 159.759 342.872 153.337 341.476 148.446C341.252 147.663 341.736 146.877 342.479 146.775C351.956 145.473 353.845 150.84 353.571 154.27C353.542 154.644 353.343 154.976 353.055 155.179Z" fill="#AE4039"/>
<path fill-rule="evenodd" clip-rule="evenodd" d="M342.62 147.849C342.455 147.872 342.394 148.026 342.426 148.14C343.101 150.504 344.3 153.079 345.975 154.519C346.79 155.219 347.699 155.637 348.724 155.664C349.757 155.692 351.009 155.327 352.502 154.269C352.53 154.249 352.551 154.225 352.564 154.203C352.576 154.181 352.579 154.166 352.579 154.158L353.571 154.27L352.579 154.158C352.698 152.674 352.341 150.854 351.018 149.542C349.699 148.235 347.202 147.219 342.62 147.849ZM340.525 148.751C340.11 147.298 341.016 145.882 342.338 145.701C347.233 145.028 350.419 146.044 352.346 147.953C354.267 149.857 354.719 152.435 354.563 154.381C354.505 155.114 354.121 155.726 353.609 156.089C351.871 157.32 350.234 157.87 348.708 157.829C347.174 157.788 345.854 157.152 344.756 156.209C342.605 154.36 341.246 151.278 340.525 148.751Z" fill="#AE4039"/>
<path fill-rule="evenodd" clip-rule="evenodd" d="M343.889 149.347C343.913 149.152 344.081 149.014 344.266 149.04C346.489 149.342 348.245 149.871 349.79 150.683C351.336 151.495 352.655 152.584 354.015 153.985C354.148 154.122 354.151 154.347 354.021 154.488C353.892 154.629 353.678 154.632 353.545 154.494C352.217 153.126 350.954 152.09 349.49 151.32C348.027 150.551 346.348 150.041 344.18 149.745C343.995 149.72 343.865 149.542 343.889 149.347Z" fill="#FF8BCA"/>
<path fill-rule="evenodd" clip-rule="evenodd" d="M363.078 149.392C363.078 149.196 362.927 149.037 362.741 149.037C360.977 149.037 358.987 149.925 357.307 150.964C355.621 152.007 354.188 153.239 353.532 154C353.407 154.145 353.416 154.37 353.554 154.503C353.691 154.635 353.904 154.625 354.03 154.479C354.628 153.786 356.002 152.595 357.647 151.578C359.297 150.557 361.16 149.748 362.741 149.748C362.927 149.748 363.078 149.589 363.078 149.392Z" fill="#FF8BCA"/>
<path fill-rule="evenodd" clip-rule="evenodd" d="M354.769 166.145C354.943 166.203 355.116 166.092 355.154 165.897C355.606 163.605 355.29 159.377 354.092 154.17C354.046 153.97 353.869 153.838 353.697 153.876C353.524 153.914 353.422 154.108 353.468 154.308C354.66 159.488 354.941 163.57 354.524 165.684C354.485 165.88 354.595 166.086 354.769 166.145Z" fill="#FF8BCA"/>
</g>
<path d="M0.999939 178.46V184H26.7C7.43995 184 0.999939 178.46 0.999939 178.46Z" fill="#85DCFF"/>
<path d="M26.7 184H156.7C137.44 184 131 178.46 131 178.46C131 178.46 116.5 166.001 66 178.46C49.17 182.611 36.33 184 26.7 184Z" fill="#85DCFF"/>
<path d="M156.7 184H286.7C267.44 184 261 178.46 261 178.46C261 178.46 246.5 166.001 196 178.46C179.17 182.611 166.33 184 156.7 184Z" fill="#85DCFF"/>
<path d="M286.701 184H391.001V178.46C391.001 178.46 376.501 166.001 326.001 178.46C309.171 182.611 296.331 184 286.701 184Z" fill="#85DCFF"/>
<path d="M0.999939 177.538C0.999939 177.538 7.43995 183.077 26.7 183.077" stroke="#9DE3FF" stroke-width="2"/>
<path d="M26.7 183.077C36.33 183.077 49.17 181.688 66 177.537C116.5 165.078 131 177.537 131 177.537C131 177.537 137.44 183.077 156.7 183.077" stroke="#9DE3FF" stroke-width="2"/>
<path d="M156.7 183.077C166.33 183.077 179.17 181.688 196 177.537C246.5 165.078 261 177.537 261 177.537C261 177.537 267.44 183.077 286.7 183.077" stroke="#9DE3FF" stroke-width="2"/>
<path d="M286.701 183.077C296.331 183.077 309.171 181.688 326.001 177.537C376.501 165.078 391.001 177.537 391.001 177.537" stroke="#9DE3FF" stroke-width="2"/>
<rect width="391" height="55" transform="translate(1 184)" fill="#85DCFF"/>
<path d="M139.531 206.444H141.043V217.556H139.531V206.444ZM138.115 210.632H139.963V211.916H138.115V210.632ZM134.803 207.812H136.339C136.339 208.596 136.271 209.34 136.135 210.044C136.007 210.748 135.791 211.416 135.487 212.048C135.183 212.672 134.771 213.256 134.251 213.8C133.739 214.336 133.095 214.832 132.319 215.288L131.395 214.172C132.235 213.676 132.903 213.132 133.399 212.54C133.903 211.94 134.263 211.28 134.479 210.56C134.695 209.832 134.803 209.024 134.803 208.136V207.812ZM131.947 207.812H135.271V209.084H131.947V207.812ZM137.059 206.732H138.559V217.076H137.059V206.732ZM143.73 207.092H150.69V208.352H143.73V207.092ZM142.578 211.82H152.634V213.116H142.578V211.82ZM146.742 212.732H148.35V217.568H146.742V212.732ZM149.874 207.092H151.446V208.076C151.446 208.476 151.438 208.9 151.422 209.348C151.414 209.796 151.382 210.288 151.326 210.824C151.27 211.352 151.166 211.944 151.014 212.6L149.454 212.408C149.662 211.488 149.782 210.684 149.814 209.996C149.854 209.3 149.874 208.66 149.874 208.076V207.092ZM161.261 206.432H162.869V217.58H161.261V206.432ZM154.217 213.692H155.201C155.857 213.692 156.477 213.684 157.061 213.668C157.645 213.644 158.217 213.608 158.777 213.56C159.337 213.504 159.909 213.424 160.493 213.32L160.661 214.604C159.765 214.764 158.881 214.872 158.009 214.928C157.145 214.976 156.209 215 155.201 215H154.217V213.692ZM154.193 207.38H159.437V211.688H155.837V214.184H154.217V210.428H157.817V208.664H154.193V207.38ZM167.152 212.084H168.736V214.712H167.152V212.084ZM167.932 207.104C168.5 207.104 169.012 207.22 169.468 207.452C169.924 207.684 170.284 208.008 170.548 208.424C170.812 208.832 170.944 209.3 170.944 209.828C170.944 210.356 170.812 210.828 170.548 211.244C170.284 211.66 169.924 211.984 169.468 212.216C169.012 212.448 168.5 212.564 167.932 212.564C167.356 212.564 166.84 212.448 166.384 212.216C165.928 211.984 165.568 211.66 165.304 211.244C165.04 210.828 164.908 210.356 164.908 209.828C164.908 209.3 165.04 208.832 165.304 208.424C165.568 208.008 165.928 207.684 166.384 207.452C166.84 207.22 167.356 207.104 167.932 207.104ZM167.932 208.46C167.644 208.46 167.388 208.516 167.164 208.628C166.948 208.732 166.776 208.888 166.648 209.096C166.52 209.296 166.456 209.54 166.456 209.828C166.456 210.124 166.52 210.376 166.648 210.584C166.776 210.784 166.948 210.94 167.164 211.052C167.388 211.156 167.644 211.208 167.932 211.208C168.212 211.208 168.46 211.156 168.676 211.052C168.9 210.94 169.076 210.784 169.204 210.584C169.332 210.376 169.396 210.124 169.396 209.828C169.396 209.54 169.332 209.296 169.204 209.096C169.076 208.888 168.9 208.732 168.676 208.628C168.46 208.516 168.212 208.46 167.932 208.46ZM171.832 206.444H173.428V217.556H171.832V206.444ZM172.936 210.8H174.892V212.12H172.936V210.8ZM164.728 215.348L164.536 214.064C165.176 214.064 165.876 214.06 166.636 214.052C167.396 214.044 168.172 214.02 168.964 213.98C169.756 213.94 170.52 213.872 171.256 213.776L171.376 214.928C170.608 215.072 169.828 215.176 169.036 215.24C168.252 215.296 167.492 215.328 166.756 215.336C166.028 215.344 165.352 215.348 164.728 215.348ZM179.686 210.38H187.318V211.652H179.686V210.38ZM178.414 212.744H188.47V214.028H178.414V212.744ZM182.602 213.476H184.198V217.556H182.602V213.476ZM179.686 207.032H187.198V208.304H181.318V210.992H179.686V207.032ZM197.085 206.444H198.681V217.556H197.085V206.444ZM194.949 210.56H197.469V211.832H194.949V210.56ZM191.229 207.584H192.717C192.717 208.352 192.689 209.08 192.633 209.768C192.585 210.456 192.485 211.112 192.333 211.736C192.181 212.36 191.953 212.964 191.649 213.548C191.353 214.124 190.961 214.688 190.473 215.24L189.225 214.328C189.649 213.856 189.993 213.38 190.257 212.9C190.521 212.42 190.725 211.92 190.869 211.4C191.013 210.88 191.109 210.324 191.157 209.732C191.205 209.132 191.229 208.476 191.229 207.764V207.584ZM189.717 207.584H191.853V208.868H189.717V207.584ZM194.265 207.584H195.765C195.765 208.384 195.737 209.16 195.681 209.912C195.633 210.656 195.533 211.376 195.381 212.072C195.229 212.76 195.009 213.428 194.721 214.076C194.433 214.716 194.045 215.336 193.557 215.936L192.309 215.06C192.733 214.524 193.073 213.984 193.329 213.44C193.585 212.896 193.781 212.332 193.917 211.748C194.053 211.164 194.145 210.544 194.193 209.888C194.241 209.232 194.265 208.52 194.265 207.752V207.584ZM193.077 207.584H194.925V208.868H193.077V207.584ZM208.112 206.432H209.708V217.58H208.112V206.432ZM201.032 207.32H202.616V210.032H204.92V207.32H206.504V214.988H201.032V207.32ZM202.616 211.268V213.716H204.92V211.268H202.616ZM215.107 207.188C215.683 207.188 216.203 207.304 216.667 207.536C217.131 207.768 217.495 208.092 217.759 208.508C218.023 208.916 218.155 209.388 218.155 209.924C218.155 210.452 218.023 210.924 217.759 211.34C217.495 211.756 217.131 212.08 216.667 212.312C216.203 212.544 215.683 212.66 215.107 212.66C214.523 212.66 213.999 212.544 213.535 212.312C213.071 212.08 212.703 211.756 212.431 211.34C212.167 210.924 212.035 210.452 212.035 209.924C212.035 209.388 212.167 208.916 212.431 208.508C212.703 208.092 213.071 207.768 213.535 207.536C213.999 207.304 214.523 207.188 215.107 207.188ZM215.107 208.556C214.819 208.556 214.559 208.612 214.327 208.724C214.103 208.828 213.923 208.984 213.787 209.192C213.659 209.392 213.595 209.636 213.595 209.924C213.595 210.212 213.659 210.46 213.787 210.668C213.923 210.876 214.103 211.036 214.327 211.148C214.559 211.252 214.819 211.304 215.107 211.304C215.387 211.304 215.639 211.252 215.863 211.148C216.087 211.036 216.263 210.876 216.391 210.668C216.527 210.46 216.595 210.212 216.595 209.924C216.595 209.636 216.527 209.392 216.391 209.192C216.263 208.984 216.087 208.828 215.863 208.724C215.639 208.612 215.387 208.556 215.107 208.556ZM219.199 206.432H220.795V217.58H219.199V206.432ZM211.759 215.336L211.579 214.04C212.227 214.04 212.943 214.036 213.727 214.028C214.519 214.012 215.331 213.98 216.163 213.932C217.003 213.876 217.815 213.792 218.599 213.68L218.707 214.832C217.907 214.992 217.095 215.108 216.271 215.18C215.447 215.244 214.651 215.288 213.883 215.312C213.115 215.328 212.407 215.336 211.759 215.336ZM232.405 206.456H234.001V217.568H232.405V206.456ZM233.641 210.788H235.597V212.108H233.641V210.788ZM225.229 208.088H231.709V209.36H225.229V208.088ZM228.493 209.996C229.029 209.996 229.509 210.112 229.933 210.344C230.357 210.568 230.689 210.876 230.929 211.268C231.177 211.66 231.301 212.116 231.301 212.636C231.301 213.156 231.177 213.616 230.929 214.016C230.689 214.408 230.357 214.72 229.933 214.952C229.517 215.176 229.037 215.288 228.493 215.288C227.957 215.288 227.473 215.176 227.041 214.952C226.617 214.72 226.281 214.408 226.033 214.016C225.793 213.616 225.673 213.156 225.673 212.636C225.673 212.116 225.793 211.66 226.033 211.268C226.281 210.876 226.617 210.568 227.041 210.344C227.473 210.112 227.957 209.996 228.493 209.996ZM228.493 211.292C228.237 211.292 228.013 211.344 227.821 211.448C227.629 211.552 227.477 211.704 227.365 211.904C227.253 212.104 227.197 212.348 227.197 212.636C227.197 212.916 227.253 213.16 227.365 213.368C227.477 213.568 227.629 213.724 227.821 213.836C228.013 213.94 228.237 213.992 228.493 213.992C228.741 213.992 228.961 213.94 229.153 213.836C229.345 213.724 229.497 213.568 229.609 213.368C229.721 213.16 229.777 212.916 229.777 212.636C229.777 212.348 229.721 212.104 229.609 211.904C229.497 211.704 229.345 211.552 229.153 211.448C228.961 211.344 228.741 211.292 228.493 211.292ZM227.677 206.636H229.285V208.58H227.677V206.636ZM237.48 206.804H245.232V210.116H239.112V211.796H237.492V208.916H243.612V208.064H237.48V206.804ZM237.492 211.028H245.496V212.288H237.492V211.028ZM236.328 213.104H246.384V214.376H236.328V213.104ZM240.54 213.572H242.124V217.58H240.54V213.572ZM254.483 206.456H256.079V217.568H254.483V206.456ZM255.719 210.788H257.675V212.108H255.719V210.788ZM247.307 208.088H253.787V209.36H247.307V208.088ZM250.571 209.996C251.107 209.996 251.587 210.112 252.011 210.344C252.435 210.568 252.767 210.876 253.007 211.268C253.255 211.66 253.379 212.116 253.379 212.636C253.379 213.156 253.255 213.616 253.007 214.016C252.767 214.408 252.435 214.72 252.011 214.952C251.595 215.176 251.115 215.288 250.571 215.288C250.035 215.288 249.551 215.176 249.119 214.952C248.695 214.72 248.359 214.408 248.111 214.016C247.871 213.616 247.751 213.156 247.751 212.636C247.751 212.116 247.871 211.66 248.111 211.268C248.359 210.876 248.695 210.568 249.119 210.344C249.551 210.112 250.035 209.996 250.571 209.996ZM250.571 211.292C250.315 211.292 250.091 211.344 249.899 211.448C249.707 211.552 249.555 211.704 249.443 211.904C249.331 212.104 249.275 212.348 249.275 212.636C249.275 212.916 249.331 213.16 249.443 213.368C249.555 213.568 249.707 213.724 249.899 213.836C250.091 213.94 250.315 213.992 250.571 213.992C250.819 213.992 251.039 213.94 251.231 213.836C251.423 213.724 251.575 213.568 251.687 213.368C251.799 213.16 251.855 212.916 251.855 212.636C251.855 212.348 251.799 212.104 251.687 211.904C251.575 211.704 251.423 211.552 251.231 211.448C251.039 211.344 250.819 211.292 250.571 211.292ZM249.755 206.636H251.363V208.58H249.755V206.636ZM259.558 206.804H267.31V210.116H261.19V211.796H259.57V208.916H265.69V208.064H259.558V206.804ZM259.57 211.028H267.574V212.288H259.57V211.028ZM258.406 213.104H268.462V214.376H258.406V213.104ZM262.618 213.572H264.202V217.58H262.618V213.572Z" fill="#0073A0"/>
<path d="M1 232.574V239H27.5699V237.914C17.5799 237.914 8.22 235.943 1 232.574Z" fill="#FFDA4A"/>
<path d="M27.5699 237.915V239H105.57V237.915C95.5799 237.915 86.22 235.944 79 232.574C79 232.574 69.52 226.747 55.34 232.574C46.32 236.274 36.6799 237.915 27.5699 237.915Z" fill="#FFDA4A"/>
<path d="M105.57 237.915V239H183.57V237.915C173.58 237.915 164.22 235.944 157 232.574C157 232.574 147.52 226.747 133.34 232.574C124.32 236.274 114.68 237.915 105.57 237.915Z" fill="#FFDA4A"/>
<path d="M183.569 237.915V239H263.429V238.818C252.759 238.818 242.619 236.135 234.999 232.574C234.999 232.574 225.519 226.747 211.339 232.574C202.319 236.274 192.679 237.915 183.569 237.915Z" fill="#FFDA4A"/>
<path d="M263.43 238.818V239H341.75C330.97 239 320.69 236.16 313 232.574C313 232.574 300.4 226.582 289.34 232.574C281.06 237.055 272.08 238.818 263.43 238.818Z" fill="#FFDA4A"/>
<path d="M341.75 239H391V232.574C391 232.574 385.74 222.109 367.34 232.574C359.2 237.211 350.31 239 341.75 239Z" fill="#FFDA4A"/>
<path d="M1 231.65C8.22 235.02 17.5799 236.991 27.5699 236.991V238.077" stroke="#FFE88C" stroke-width="2"/>
<path d="M27.5699 238.077V236.991C36.6799 236.991 46.32 235.35 55.34 231.651C69.52 225.824 79 231.651 79 231.651C86.22 235.02 95.5799 236.991 105.57 236.991V238.077" stroke="#FFE88C" stroke-width="2"/>
<path d="M105.57 238.077V236.991C114.68 236.991 124.32 235.35 133.34 231.651C147.52 225.824 157 231.651 157 231.651C164.22 235.02 173.58 236.991 183.57 236.991V238.077" stroke="#FFE88C" stroke-width="2"/>
<path d="M183.569 238.077V236.991C192.679 236.991 202.319 235.35 211.339 231.651C225.519 225.824 234.999 231.651 234.999 231.651C242.619 235.211 252.759 237.895 263.429 237.895V238.077" stroke="#FFE88C" stroke-width="2"/>
<path d="M263.43 238.077V237.895C272.08 237.895 281.06 236.132 289.34 231.651C300.4 225.659 313 231.651 313 231.651C320.69 235.237 330.97 238.077 341.75 238.077" stroke="#FFE88C" stroke-width="2"/>
<path d="M341.75 238.077C350.31 238.077 359.2 236.288 367.34 231.651C385.74 221.187 391 231.651 391 231.651" stroke="#FFE88C" stroke-width="2"/>
<rect width="391" height="55" transform="translate(1 239)" fill="#FFDA4A"/>
<g clip-path="url(#clip2_669_1855)">
<circle cx="32.5004" cy="256" r="8.5" fill="#FFE88C"/>
<circle cx="56.5004" cy="265" r="5.5" fill="#FFE88C"/>
<circle cx="47.5004" cy="282" r="3.5" fill="#FFE88C"/>
</g>
<path d="M116.105 263.208H117.365V264.456C117.365 265.072 117.297 265.688 117.161 266.304C117.033 266.92 116.841 267.5 116.585 268.044C116.329 268.58 116.005 269.06 115.613 269.484C115.229 269.908 114.781 270.24 114.269 270.48L113.369 269.22C113.833 269.004 114.233 268.72 114.569 268.368C114.913 268.016 115.197 267.624 115.421 267.192C115.653 266.76 115.825 266.312 115.937 265.848C116.049 265.376 116.105 264.912 116.105 264.456V263.208ZM116.441 263.208H117.701V264.456C117.701 264.872 117.757 265.3 117.869 265.74C117.981 266.18 118.145 266.604 118.361 267.012C118.585 267.42 118.865 267.792 119.201 268.128C119.545 268.456 119.945 268.724 120.401 268.932L119.513 270.204C119.001 269.964 118.553 269.644 118.169 269.244C117.793 268.836 117.473 268.376 117.209 267.864C116.953 267.344 116.761 266.796 116.633 266.22C116.505 265.636 116.441 265.048 116.441 264.456V263.208ZM113.801 262.512H119.909V263.832H113.801V262.512ZM120.713 261.456H122.321V272.568H120.713V261.456ZM121.973 265.692H123.929V267H121.973V265.692ZM132.316 261.444H133.912V272.556H132.316V261.444ZM129.04 262.596H130.612C130.612 263.444 130.528 264.256 130.36 265.032C130.2 265.8 129.928 266.524 129.544 267.204C129.168 267.884 128.648 268.516 127.984 269.1C127.328 269.676 126.508 270.204 125.524 270.684L124.684 269.424C125.756 268.904 126.608 268.332 127.24 267.708C127.88 267.076 128.34 266.364 128.62 265.572C128.9 264.772 129.04 263.876 129.04 262.884V262.596ZM125.284 262.596H129.784V263.868H125.284V262.596ZM139.803 262.68H141.195V263.016C141.195 263.4 141.131 263.772 141.003 264.132C140.883 264.492 140.699 264.828 140.451 265.14C140.203 265.444 139.899 265.72 139.539 265.968C139.187 266.208 138.779 266.412 138.315 266.58C137.851 266.748 137.335 266.868 136.767 266.94L136.179 265.704C136.675 265.64 137.115 265.544 137.499 265.416C137.891 265.28 138.231 265.124 138.519 264.948C138.807 264.764 139.047 264.568 139.239 264.36C139.431 264.152 139.571 263.932 139.659 263.7C139.755 263.468 139.803 263.24 139.803 263.016V262.68ZM140.271 262.68H141.651V263.016C141.651 263.24 141.695 263.468 141.783 263.7C141.879 263.932 142.023 264.152 142.215 264.36C142.407 264.568 142.647 264.764 142.935 264.948C143.231 265.124 143.571 265.28 143.955 265.416C144.339 265.544 144.779 265.64 145.275 265.704L144.687 266.94C144.119 266.868 143.603 266.748 143.139 266.58C142.675 266.412 142.263 266.208 141.903 265.968C141.551 265.72 141.251 265.444 141.003 265.14C140.763 264.828 140.579 264.492 140.451 264.132C140.331 263.772 140.271 263.4 140.271 263.016V262.68ZM139.887 268.5H141.483V272.568H139.887V268.5ZM135.699 267.576H145.755V268.86H135.699V267.576ZM136.587 262.02H144.831V263.28H136.587V262.02ZM147.23 262.26H151.982V263.532H147.23V262.26ZM148.598 264.852H150.17V267.624H148.598V264.852ZM151.358 262.26H152.93V262.956C152.93 263.348 152.918 263.816 152.894 264.36C152.878 264.896 152.802 265.516 152.666 266.22L151.118 266.04C151.238 265.36 151.306 264.772 151.322 264.276C151.346 263.78 151.358 263.34 151.358 262.956V262.26ZM153.998 261.444H155.606V269.76H153.998V261.444ZM154.97 264.84H156.938V266.148H154.97V264.84ZM148.19 271.092H155.966V272.376H148.19V271.092ZM148.19 269.028H149.798V271.488H148.19V269.028ZM146.714 268.284L146.57 267.012C147.21 267.012 147.918 267.008 148.694 267C149.47 266.984 150.262 266.952 151.07 266.904C151.878 266.848 152.654 266.768 153.398 266.664L153.506 267.804C152.738 267.94 151.954 268.044 151.154 268.116C150.354 268.18 149.574 268.224 148.814 268.248C148.054 268.264 147.354 268.276 146.714 268.284ZM162.794 262.008C163.578 262.008 164.282 262.14 164.906 262.404C165.538 262.668 166.034 263.04 166.394 263.52C166.762 264 166.946 264.564 166.946 265.212C166.946 265.86 166.762 266.428 166.394 266.916C166.034 267.396 165.538 267.768 164.906 268.032C164.282 268.296 163.578 268.428 162.794 268.428C162.018 268.428 161.314 268.296 160.682 268.032C160.058 267.768 159.562 267.396 159.194 266.916C158.826 266.428 158.642 265.86 158.642 265.212C158.642 264.564 158.826 264 159.194 263.52C159.562 263.04 160.058 262.668 160.682 262.404C161.314 262.14 162.018 262.008 162.794 262.008ZM162.794 263.304C162.298 263.304 161.854 263.38 161.462 263.532C161.07 263.684 160.762 263.904 160.538 264.192C160.322 264.472 160.214 264.812 160.214 265.212C160.214 265.612 160.322 265.956 160.538 266.244C160.762 266.524 161.07 266.74 161.462 266.892C161.854 267.044 162.298 267.12 162.794 267.12C163.306 267.12 163.754 267.044 164.138 266.892C164.53 266.74 164.834 266.524 165.05 266.244C165.274 265.956 165.386 265.612 165.386 265.212C165.386 264.812 165.274 264.472 165.05 264.192C164.834 263.904 164.53 263.684 164.138 263.532C163.754 263.38 163.306 263.304 162.794 263.304ZM157.778 269.916H167.846V271.224H157.778V269.916ZM168.817 270.048H178.885V271.344H168.817V270.048ZM173.041 267.936H174.625V270.564H173.041V267.936ZM169.957 262.164H177.745V265.872H171.553V267.732H169.969V264.624H176.161V263.436H169.957V262.164ZM169.969 267.108H177.997V268.38H169.969V267.108ZM190.866 265.644H192.822V266.964H190.866V265.644ZM189.666 261.432H191.274V272.544H189.666V261.432ZM182.91 262.5H184.494V269.412H182.91V262.5ZM182.91 268.512H183.858C184.65 268.512 185.474 268.48 186.33 268.416C187.186 268.352 188.062 268.232 188.958 268.056L189.126 269.352C188.198 269.544 187.294 269.676 186.414 269.748C185.534 269.812 184.682 269.844 183.858 269.844H182.91V268.512ZM197.189 262.188C197.765 262.188 198.285 262.304 198.749 262.536C199.213 262.768 199.577 263.092 199.841 263.508C200.105 263.916 200.237 264.388 200.237 264.924C200.237 265.452 200.105 265.924 199.841 266.34C199.577 266.756 199.213 267.08 198.749 267.312C198.285 267.544 197.765 267.66 197.189 267.66C196.605 267.66 196.081 267.544 195.617 267.312C195.153 267.08 194.785 266.756 194.513 266.34C194.249 265.924 194.117 265.452 194.117 264.924C194.117 264.388 194.249 263.916 194.513 263.508C194.785 263.092 195.153 262.768 195.617 262.536C196.081 262.304 196.605 262.188 197.189 262.188ZM197.189 263.556C196.901 263.556 196.641 263.612 196.409 263.724C196.185 263.828 196.005 263.984 195.869 264.192C195.741 264.392 195.677 264.636 195.677 264.924C195.677 265.212 195.741 265.46 195.869 265.668C196.005 265.876 196.185 266.036 196.409 266.148C196.641 266.252 196.901 266.304 197.189 266.304C197.469 266.304 197.721 266.252 197.945 266.148C198.169 266.036 198.345 265.876 198.473 265.668C198.609 265.46 198.677 265.212 198.677 264.924C198.677 264.636 198.609 264.392 198.473 264.192C198.345 263.984 198.169 263.828 197.945 263.724C197.721 263.612 197.469 263.556 197.189 263.556ZM201.281 261.432H202.877V272.58H201.281V261.432ZM193.841 270.336L193.661 269.04C194.309 269.04 195.025 269.036 195.809 269.028C196.601 269.012 197.413 268.98 198.245 268.932C199.085 268.876 199.897 268.792 200.681 268.68L200.789 269.832C199.989 269.992 199.177 270.108 198.353 270.18C197.529 270.244 196.733 270.288 195.965 270.312C195.197 270.328 194.489 270.336 193.841 270.336ZM212.939 264.372H215.747V265.644H212.939V264.372ZM215.063 261.456H216.671V269.568H215.063V261.456ZM209.327 271.092H216.923V272.376H209.327V271.092ZM209.327 268.776H210.923V271.752H209.327V268.776ZM210.431 262.116C210.983 262.116 211.479 262.24 211.919 262.488C212.367 262.728 212.719 263.064 212.975 263.496C213.239 263.928 213.371 264.42 213.371 264.972C213.371 265.516 213.239 266.004 212.975 266.436C212.719 266.86 212.367 267.196 211.919 267.444C211.479 267.692 210.983 267.816 210.431 267.816C209.887 267.816 209.391 267.692 208.943 267.444C208.503 267.196 208.151 266.86 207.887 266.436C207.631 266.004 207.503 265.516 207.503 264.972C207.503 264.42 207.631 263.928 207.887 263.496C208.151 263.064 208.503 262.728 208.943 262.488C209.391 262.24 209.887 262.116 210.431 262.116ZM210.431 263.508C210.167 263.508 209.927 263.568 209.711 263.688C209.503 263.8 209.335 263.964 209.207 264.18C209.087 264.396 209.027 264.656 209.027 264.96C209.027 265.272 209.087 265.536 209.207 265.752C209.335 265.968 209.503 266.132 209.711 266.244C209.927 266.356 210.171 266.412 210.443 266.412C210.707 266.412 210.943 266.356 211.151 266.244C211.359 266.132 211.523 265.968 211.643 265.752C211.771 265.536 211.835 265.272 211.835 264.96C211.835 264.656 211.771 264.396 211.643 264.18C211.523 263.964 211.359 263.8 211.151 263.688C210.943 263.568 210.703 263.508 210.431 263.508ZM221.446 262.212C221.998 262.212 222.49 262.376 222.922 262.704C223.362 263.024 223.702 263.484 223.942 264.084C224.19 264.676 224.314 265.376 224.314 266.184C224.314 267 224.19 267.708 223.942 268.308C223.702 268.9 223.362 269.36 222.922 269.688C222.49 270.008 221.998 270.168 221.446 270.168C220.894 270.168 220.402 270.008 219.97 269.688C219.538 269.36 219.198 268.9 218.95 268.308C218.702 267.708 218.578 267 218.578 266.184C218.578 265.376 218.702 264.676 218.95 264.084C219.198 263.484 219.538 263.024 219.97 262.704C220.402 262.376 220.894 262.212 221.446 262.212ZM221.446 263.664C221.182 263.664 220.946 263.76 220.738 263.952C220.538 264.144 220.382 264.428 220.27 264.804C220.158 265.172 220.102 265.632 220.102 266.184C220.102 266.728 220.158 267.192 220.27 267.576C220.382 267.952 220.538 268.236 220.738 268.428C220.946 268.62 221.182 268.716 221.446 268.716C221.726 268.716 221.966 268.62 222.166 268.428C222.366 268.236 222.522 267.952 222.634 267.576C222.746 267.192 222.802 266.728 222.802 266.184C222.802 265.632 222.746 265.172 222.634 264.804C222.522 264.428 222.366 264.144 222.166 263.952C221.966 263.76 221.726 263.664 221.446 263.664ZM226.138 261.432H227.734V272.58H226.138V261.432ZM223.846 265.452H226.81V266.724H223.846V265.452ZM229.449 266.436H239.505V267.588H229.449V266.436ZM230.577 268.152H238.317V270.792H232.173V271.74H230.589V269.784H236.745V269.232H230.577V268.152ZM230.589 271.392H238.629V272.472H230.589V271.392ZM230.673 261.636H238.281V264.264H232.269V265.164H230.697V263.256H236.709V262.716H230.673V261.636ZM230.697 264.84H238.485V265.92H230.697V264.84ZM243.519 262.356H248.823V267.732H243.519V262.356ZM247.251 263.628H245.091V266.472H247.251V263.628ZM250.347 261.456H251.943V269.556H250.347V261.456ZM251.499 264.66H253.419V265.968H251.499V264.66ZM244.779 271.092H252.339V272.376H244.779V271.092ZM244.779 268.764H246.387V271.74H244.779V268.764ZM254.258 265.752H264.302V267.012H254.258V265.752ZM255.494 263.904H263.114V265.164H255.494V263.904ZM255.494 261.66H263.018V262.92H257.078V264.996H255.494V261.66ZM255.386 267.636H263.066V270.588H256.982V271.536H255.398V269.46H261.494V268.848H255.386V267.636ZM255.398 271.248H263.366V272.472H255.398V271.248ZM268.321 262.212C268.873 262.212 269.365 262.376 269.797 262.704C270.237 263.024 270.577 263.484 270.817 264.084C271.065 264.676 271.189 265.376 271.189 266.184C271.189 267 271.065 267.708 270.817 268.308C270.577 268.9 270.237 269.36 269.797 269.688C269.365 270.008 268.873 270.168 268.321 270.168C267.769 270.168 267.277 270.008 266.845 269.688C266.413 269.36 266.073 268.9 265.825 268.308C265.577 267.708 265.453 267 265.453 266.184C265.453 265.376 265.577 264.676 265.825 264.084C266.073 263.484 266.413 263.024 266.845 262.704C267.277 262.376 267.769 262.212 268.321 262.212ZM268.321 263.664C268.057 263.664 267.821 263.76 267.613 263.952C267.413 264.144 267.257 264.428 267.145 264.804C267.033 265.172 266.977 265.632 266.977 266.184C266.977 266.728 267.033 267.192 267.145 267.576C267.257 267.952 267.413 268.236 267.613 268.428C267.821 268.62 268.057 268.716 268.321 268.716C268.601 268.716 268.841 268.62 269.041 268.428C269.241 268.236 269.397 267.952 269.509 267.576C269.621 267.192 269.677 266.728 269.677 266.184C269.677 265.632 269.621 265.172 269.509 264.804C269.397 264.428 269.241 264.144 269.041 263.952C268.841 263.76 268.601 263.664 268.321 263.664ZM273.013 261.432H274.609V272.58H273.013V261.432ZM270.721 265.452H273.685V266.724H270.721V265.452ZM283.44 261.432H285.036V272.58H283.44V261.432ZM284.676 265.644H286.632V266.952H284.676V265.644ZM276.78 268.692H277.704C278.336 268.692 278.928 268.684 279.48 268.668C280.032 268.652 280.568 268.62 281.088 268.572C281.616 268.516 282.152 268.444 282.696 268.356L282.84 269.64C282.28 269.736 281.728 269.812 281.184 269.868C280.648 269.916 280.096 269.952 279.528 269.976C278.96 270 278.352 270.012 277.704 270.012H276.78V268.692ZM276.756 262.38H281.868V266.688H278.352V269.196H276.78V265.428H280.284V263.664H276.756V262.38Z" fill="#A78500"/>
<path d="M1 290.46V296H25.65C10.97 296 1 290.46 1 290.46Z" fill="#4E72FF"/>
<path d="M25.65 296H123.15C108.47 296 98.5 290.46 98.5 290.46C98.5 290.46 77.65 278.001 50.54 290.46C41.51 294.611 32.99 296 25.65 296Z" fill="#4E72FF"/>
<path d="M123.15 296H220.65C205.97 296 196 290.46 196 290.46C196 290.46 175.15 278.001 148.04 290.46C139.01 294.611 130.49 296 123.15 296Z" fill="#4E72FF"/>
<path d="M220.65 296H318.15C303.47 296 293.5 290.46 293.5 290.46C293.5 290.46 272.65 278.001 245.54 290.46C236.51 294.611 227.99 296 220.65 296Z" fill="#4E72FF"/>
<path d="M318.15 296H391V290.46C391 290.46 370.15 278.001 343.04 290.46C334.01 294.611 325.49 296 318.15 296Z" fill="#4E72FF"/>
<path d="M1 289.538C1 289.538 10.97 295.077 25.65 295.077" stroke="#9BACF1" stroke-width="2"/>
<path d="M25.65 295.077C32.99 295.077 41.51 293.688 50.54 289.537C77.65 277.078 98.5 289.537 98.5 289.537C98.5 289.537 108.47 295.077 123.15 295.077" stroke="#9BACF1" stroke-width="2"/>
<path d="M123.15 295.077C130.49 295.077 139.01 293.688 148.04 289.537C175.15 277.078 196 289.537 196 289.537C196 289.537 205.97 295.077 220.65 295.077" stroke="#9BACF1" stroke-width="2"/>
<path d="M220.65 295.077C227.99 295.077 236.51 293.688 245.54 289.537C272.65 277.078 293.5 289.537 293.5 289.537C293.5 289.537 303.47 295.077 318.15 295.077" stroke="#9BACF1" stroke-width="2"/>
<path d="M318.15 295.077C325.49 295.077 334.01 293.688 343.04 289.537C370.15 277.078 391 289.537 391 289.537" stroke="#9BACF1" stroke-width="2"/>
<path d="M196.742 110C125.975 110 105.938 118.333 104.765 122.5C107.982 127.7 129.561 130.333 139.948 131L171.612 125L164.575 133C168.596 133.8 189.035 134 198.752 134C268.313 134 292.069 126.333 295.253 122.5C291.902 118.333 267.509 110 196.742 110Z" fill="#00722A"/>
<mask id="mask0_669_1855" style="mask-type:alpha" maskUnits="userSpaceOnUse" x="139" y="0" width="121" height="120">
<rect x="139.354" width="120.308" height="120" fill="#D9D9D9"/>
</mask>
<g mask="url(#mask0_669_1855)">
<path d="M209.137 119.906H191.83L199.731 114.089L209.137 119.906Z" fill="#DBFF9E"/>
<path d="M209.574 119.719C208.527 119.637 207.491 119.545 206.449 119.458C205.512 119.381 204.58 119.294 203.644 119.245C201.117 119.115 198.586 119.173 196.059 119.265C194.559 119.318 193.054 119.381 191.529 119.704C190.911 118.666 190.453 117.583 189.989 116.501C188.768 113.65 188.086 110.654 187.612 107.62C187.313 105.701 187.199 103.764 187.144 101.821C186.989 96.3177 187.861 90.959 189.481 85.7018C189.979 84.0879 190.762 82.5803 191.569 81.0389C191.599 80.9954 191.594 80.9906 191.599 80.9906C191.758 80.8408 191.843 80.6475 191.953 80.4252C191.983 80.3963 191.978 80.3866 191.983 80.3866C192.072 80.2948 192.127 80.1885 192.207 80.058C192.232 80.0338 192.232 80.0242 192.237 80.0242C192.322 79.942 192.376 79.8406 192.461 79.7101C192.491 79.6811 192.491 79.6618 192.501 79.6618C192.521 79.6376 192.536 79.6135 192.581 79.5652C192.611 79.541 192.611 79.5313 192.611 79.5313C192.7 79.454 192.75 79.3574 192.84 79.2317C192.875 79.2028 192.875 79.1786 192.885 79.1738C192.905 79.1448 192.915 79.1206 192.954 79.082C192.989 79.0626 192.984 79.0481 192.994 79.0481C193.019 79.024 193.029 79.0046 193.079 78.9563C193.109 78.9322 193.109 78.9225 193.114 78.9225C193.139 78.9032 193.154 78.879 193.204 78.8307C193.233 78.8017 193.233 78.7969 193.233 78.7969C193.358 78.6857 193.473 78.5649 193.592 78.3958C193.627 78.3716 193.647 78.333 193.692 78.2992C193.737 78.2653 193.762 78.217 193.812 78.1832C193.861 78.1445 193.886 78.0962 193.936 78.0624C193.986 78.0286 194.016 77.9754 194.061 77.9513C194.165 77.8643 194.225 77.8015 194.33 77.7242C194.454 77.613 194.594 77.5985 194.709 77.4874C194.733 77.4632 194.733 77.4584 194.738 77.4584C194.763 77.4391 194.783 77.4197 194.833 77.3666C194.863 77.3376 194.863 77.3328 194.863 77.3328C194.883 77.3134 194.908 77.2941 194.958 77.2458C194.988 77.2168 194.988 77.212 194.988 77.212C195.008 77.1926 195.027 77.1733 195.082 77.1298C195.117 77.1057 195.117 77.096 195.127 77.096C195.147 77.0767 195.157 77.0525 195.212 77.0235C196.263 76.2794 197.469 76.1296 198.67 75.9653C200.21 75.7575 201.75 75.7334 203.28 76.0426C205.552 76.5017 207.097 77.9513 208.438 79.657C209.07 80.4639 209.594 81.3385 210.067 82.2952C210.097 82.3532 210.117 82.3677 210.142 82.416C210.162 82.4692 210.172 82.4933 210.197 82.5465C210.227 82.5948 210.241 82.6093 210.266 82.6576C210.281 82.7108 210.296 82.7349 210.321 82.7929C210.351 82.8412 210.371 82.8557 210.391 82.8992C210.406 82.9572 210.416 82.9814 210.441 83.0442C210.476 83.0925 210.496 83.1022 210.506 83.1457C210.511 83.2036 210.526 83.2278 210.555 83.3003C210.615 83.3728 210.64 83.4114 210.655 83.5032C210.675 83.566 210.685 83.5854 210.705 83.6434C210.735 83.6917 210.75 83.7062 210.77 83.7545C210.785 83.8125 210.795 83.8366 210.815 83.9043C210.869 83.9767 210.894 84.0202 210.904 84.1121C210.924 84.1749 210.934 84.1942 210.954 84.257C210.984 84.3053 210.999 84.3198 211.014 84.3682C211.024 84.4261 211.039 84.4551 211.059 84.5179C211.114 84.5904 211.143 84.6291 211.148 84.7209C211.163 84.7837 211.173 84.8079 211.193 84.8707C211.243 84.948 211.268 84.9915 211.278 85.0833C211.293 85.1461 211.303 85.1703 211.323 85.2331C211.373 85.3104 211.393 85.3587 211.408 85.4505C211.427 85.5133 211.432 85.5375 211.452 85.6003C211.502 85.6776 211.522 85.7211 211.532 85.8177C211.547 85.8806 211.557 85.9047 211.577 85.9724C211.717 86.4652 211.846 86.9194 212.006 87.4123C212.04 87.5041 212.055 87.5573 212.075 87.6539C212.24 88.485 212.459 89.263 212.643 90.0892C212.673 90.181 212.688 90.239 212.703 90.3308C212.898 91.3504 213.112 92.3264 213.291 93.3556C213.311 93.4571 213.321 93.5151 213.331 93.6166C213.326 93.8388 213.376 94.008 213.416 94.2206C213.436 94.3124 213.441 94.3704 213.451 94.4718C213.515 95.1677 213.59 95.8248 213.67 96.5254C213.69 96.6656 213.7 96.7622 213.705 96.9072C213.695 97.487 213.8 98.0185 213.795 98.5984C213.814 98.8158 213.824 98.9946 213.824 99.2217C213.854 100.164 213.834 101.058 213.829 102C213.824 102.227 213.819 102.401 213.814 102.628C213.77 103.252 213.705 103.822 213.705 104.44C213.7 104.547 213.7 104.605 213.69 104.706C213.645 105.083 213.58 105.411 213.58 105.784C213.575 105.885 213.57 105.943 213.56 106.044C213.426 106.615 213.426 107.156 213.326 107.731C213.316 107.832 213.311 107.89 213.301 107.992C213.172 108.402 213.182 108.789 213.082 109.2C213.072 109.296 213.067 109.354 213.052 109.451C212.898 109.983 212.833 110.485 212.703 111.021C212.688 111.118 212.683 111.171 212.663 111.263C212.519 111.674 212.439 112.06 212.329 112.481C212.315 112.577 212.31 112.63 212.285 112.722C212.08 113.346 211.881 113.925 211.702 114.549C211.687 114.645 211.672 114.703 211.637 114.8C211.627 114.863 211.632 114.882 211.607 114.921C211.572 114.964 211.567 114.984 211.547 115.046C211.338 115.438 211.228 115.82 211.099 116.24C211.064 116.298 211.059 116.322 211.034 116.38C210.944 116.544 210.884 116.68 210.844 116.854C210.81 116.907 210.8 116.931 210.775 116.994C210.755 117.052 210.755 117.076 210.725 117.115C210.69 117.158 210.685 117.182 210.66 117.235C210.521 117.472 210.396 117.675 210.336 117.946C210.301 117.999 210.291 118.028 210.261 118.091C210.241 118.149 210.241 118.173 210.217 118.211C210.177 118.255 210.172 118.279 210.142 118.337C210.122 118.395 210.122 118.414 210.092 118.458C210.057 118.501 210.052 118.525 210.027 118.579C209.932 118.738 209.873 118.873 209.833 119.052C209.803 119.105 209.793 119.129 209.773 119.187C209.678 119.352 209.619 119.487 209.584 119.666C209.584 119.695 209.579 119.714 209.574 119.719Z" fill="#DBFF9E"/>
<path d="M176.367 73.0094C176.6 73.2571 176.367 73.3659 176.242 73.4785C174.647 74.9797 173.21 76.6197 171.908 78.3799C171.863 78.4024 171.848 78.53 171.803 78.56C171.72 78.6238 171.709 78.7964 171.611 78.8377C171.599 78.8565 171.539 78.9315 171.524 78.9428C171.434 79.0179 171.419 79.1642 171.332 79.228C171.287 79.2843 171.287 79.3857 171.231 79.4119C171.212 79.4307 171.163 79.502 171.144 79.5132C171.009 79.6409 170.986 79.8773 170.854 79.9824C170.836 80.0049 170.783 80.0687 170.768 80.0874C170.723 80.1137 170.711 80.2413 170.666 80.2714C170.625 80.3201 170.621 80.4327 170.565 80.4552C170.52 80.5641 170.467 80.6879 170.38 80.7442C170.339 80.793 170.335 80.9056 170.279 80.9281C170.267 80.9431 170.211 81.0182 170.192 81.0332C170.106 81.127 170.109 81.3447 169.997 81.4047C169.978 81.4273 169.921 81.4873 169.914 81.5098C169.865 81.5323 169.854 81.6637 169.816 81.6975C169.729 81.8701 169.677 82.1291 169.526 82.2604C169.485 82.3092 169.481 82.418 169.432 82.4481C169.391 82.4931 169.387 82.6094 169.338 82.6357C169.297 82.6807 169.293 82.7971 169.244 82.8233C169.173 82.9172 169.124 83.1086 169.056 83.2024C169.018 83.2474 169.011 83.3638 168.962 83.3938C168.875 83.6828 168.729 83.9117 168.589 84.1556C168.469 84.3358 168.476 84.6698 168.303 84.8162C168.209 84.94 168.247 85.1915 168.111 85.289C168.025 85.4166 168.059 85.6643 167.923 85.7619C167.814 85.9946 167.822 86.3286 167.641 86.52C167.566 86.5763 167.619 86.7489 167.543 86.8015C167.472 86.8578 167.525 87.0304 167.446 87.0829C167.374 87.143 167.427 87.3156 167.351 87.3682C166.719 89.3197 166.377 91.4664 165.929 93.4217C165.726 93.5493 165.436 93.6468 165.259 93.7932C165.214 93.8345 165.113 93.857 165.071 93.8945C164.985 93.9583 164.853 94.0109 164.782 94.0784C164.473 94.2435 164.176 94.4312 163.931 94.6489C163.796 94.7314 163.653 94.8365 163.551 94.9341C163.352 95.0692 163.149 95.2531 162.979 95.407C162.964 95.4257 162.912 95.497 162.882 95.4933C162.441 95.8123 162.061 96.2138 161.745 96.6342C155.74 102.815 157.091 114.63 165.523 117.91C164.345 118.506 163.435 119.253 163.036 120H193.825C193.78 119.647 193.644 119.287 193.403 118.927C193.008 117.868 192.436 116.881 192.117 115.793C190.363 110.783 189.961 105.349 190.533 100.102C191.338 94.9679 192.263 88.1037 197.478 85.593C203.352 83.5176 207.408 87.9761 208.758 93.2903C210.903 100.612 211.035 108.614 208.529 115.857C208.22 116.821 207.769 117.726 207.355 118.649C207.133 119.084 206.926 119.546 206.843 120H237.625C237.324 119.291 236.564 118.593 235.296 118.086C243.182 114.119 245.24 103.532 238.919 96.6342C238.599 96.1801 238.197 95.8198 237.783 95.4933C237.76 95.482 237.689 95.4295 237.681 95.4032C237.52 95.2231 237.282 95.0767 237.109 94.9303C237.019 94.8065 236.831 94.7427 236.729 94.6451C236.481 94.3937 236.146 94.2586 235.879 94.0747C235.804 93.9884 235.65 93.9658 235.589 93.8908C235.54 93.8495 235.428 93.8457 235.405 93.7932C234.818 93.5718 234.57 93.1852 234.54 92.5885C234.039 88.8618 232.779 85.259 230.991 81.9527C229.148 78.4737 226.604 75.4413 223.703 72.788C223.35 72.5403 223.636 72.3414 223.914 72.2213C250.342 59.7578 250.594 33.8625 225.205 19.9391C222.868 18.1939 222.469 14.805 220.825 12.4482C219.395 9.70853 217.792 7.04769 215.715 4.73964C209.835 -1.97438 200.819 -2.09072 199.16 7.86583C198.092 -1.17501 189.302 -2.22207 183.606 3.80516C179.437 7.93715 176.961 13.3977 174.527 18.6518C173.413 20.3631 171.08 20.8998 169.504 22.1645C145.856 38.0057 151.342 62.61 176.374 73.0132L176.367 73.0094Z" fill="#00CE4C"/>
<path d="M192.853 6.02274C195.158 7.25506 195.848 9.50336 194.644 11.5848C193.86 12.9353 192.35 13.7186 190.833 13.5604C189.409 13.4066 188.251 12.3338 187.816 10.8108C186.973 7.83267 190.372 4.99119 192.853 6.02274Z" fill="#0E0E0E"/>
<path d="M206.268 5.98688C208.842 6.22012 210.433 7.93652 210.279 10.2027C210.177 11.6739 209.186 12.9144 207.778 13.3328C206.453 13.7212 204.962 13.2062 203.913 12.0315C201.867 9.73173 203.627 5.99395 206.268 5.98688Z" fill="#0E0E0E"/>
<path d="M191.969 9.75396C191.246 9.49521 190.981 9.0419 191.179 8.35653C191.314 7.90814 191.651 7.61371 192.139 7.48996C192.754 7.33392 193.24 7.47507 193.604 7.87589C193.859 8.15836 193.96 8.50351 193.738 8.89127C193.37 9.52504 192.746 9.71859 191.976 9.748L191.969 9.75396Z" fill="white"/>
<path d="M206.856 9.5379C206.206 9.03356 206.056 8.48522 206.424 7.85753C206.67 7.4486 207.077 7.26333 207.591 7.30175C208.239 7.35019 208.684 7.65614 208.944 8.18424C209.126 8.55592 209.139 8.93948 208.822 9.2576C208.299 9.77602 207.634 9.76291 206.865 9.53453L206.856 9.5379Z" fill="white"/>
<path d="M204.146 22.9791C205.252 22.919 206.038 22.2773 206.953 21.8044C208.345 21.6318 206.919 23.2681 206.305 23.4445C204.356 24.5628 202.099 24.1988 200.172 23.2643C198.242 23.512 196.432 24.9156 194.22 24.514C193.069 24.5778 189.712 22.9753 191.206 21.6993C191.556 21.5943 191.752 21.7932 191.917 22.0859C193.426 24.195 196.692 23.4032 198.712 22.57C200.56 21.6506 202.163 23.4332 204.149 22.9791H204.146Z" fill="#0E0E0E"/>
<path d="M199.677 74.6836H184.868C196.715 81.4805 208.868 77.5157 213.464 74.6836H199.677Z" fill="#00CE4C"/>
</g>
<defs>
<clipPath id="clip0_669_1855">
<rect width="38" height="38" fill="white" transform="translate(24.0004 136.5)"/>
</clipPath>
<clipPath id="clip1_669_1855">
<rect width="29.9993" height="27" fill="white" transform="translate(338 142)"/>
</clipPath>
<clipPath id="clip2_669_1855">
<rect width="38" height="38" fill="white" transform="translate(24.0004 247.5)"/>
</clipPath>
</defs>
</svg>
