<svg viewBox="0 0 390 420" fill="none" xmlns="http://www.w3.org/2000/svg">
<mask id="mask0_3827_20551" style="mask-type:alpha" maskUnits="userSpaceOnUse" x="0" y="0" width="390" height="420">
<rect width="390" height="420" fill="#D9D9D9"/>
</mask>
<g mask="url(#mask0_3827_20551)">
<path d="M306.112 242H39.8878C38.8452 242 38 242.682 38 243.523V272.477C38 273.318 38.8452 274 39.8878 274H306.112C307.155 274 308 273.318 308 272.477V243.523C308 242.682 307.155 242 306.112 242Z" fill="#CAA2FF"/>
<path d="M145.874 254.495C148.174 254.495 149.893 255.659 149.893 257.412C149.893 259.024 148.53 260.105 146.611 260.321V262.144H150.772V263.362H141.017V262.144H145.132V260.317C143.226 260.101 141.871 259.02 141.875 257.412C141.871 255.659 143.587 254.495 145.874 254.495ZM143.346 257.412C143.346 258.539 144.386 259.169 145.874 259.173C147.378 259.169 148.414 258.539 148.418 257.412C148.414 256.347 147.378 255.688 145.874 255.688C144.386 255.688 143.346 256.347 143.346 257.412ZM161.143 262.107V263.321H151.389V262.107H161.143ZM151.782 259.355C154.115 258.999 155.458 257.545 155.458 256.049V256.045H152.201V254.855H160.289V256.045H157.032V256.049C157.028 257.545 158.375 258.949 160.786 259.31L160.194 260.495C158.329 260.168 156.941 259.252 156.257 257.988C155.578 259.277 154.215 260.23 152.371 260.557L151.782 259.355ZM165.207 254.657C166.906 254.657 168.162 255.746 168.17 257.275C168.162 258.808 166.906 259.894 165.207 259.894C163.529 259.894 162.244 258.808 162.249 257.275C162.244 255.746 163.529 254.657 165.207 254.657ZM161.805 261.241C163.707 261.241 166.343 261.216 168.626 260.897L168.738 261.974C166.376 262.434 163.844 262.455 161.975 262.455L161.805 261.241ZM163.732 257.275C163.732 258.121 164.37 258.601 165.207 258.601C166.061 258.601 166.707 258.121 166.711 257.275C166.707 256.442 166.065 255.949 165.207 255.949C164.366 255.949 163.732 256.442 163.732 257.275ZM169.231 264.639V253.94H170.718V264.639H169.231ZM180.358 254.955V262.007H175.232V254.955H180.358ZM176.707 260.822H178.87V256.128H176.707V260.822ZM181.812 264.614V253.94H183.308V257.967H184.883V259.215H183.308V264.614H181.812ZM187.219 254.491V255.854H189.32V254.491H190.799V256.38H192.763V253.94H194.255V259.782H192.763V257.607H190.799V259.476H185.719V254.491H187.219ZM187.14 264.473V260.226H188.62V261.212H192.763V260.226H194.251V264.473H187.14ZM187.219 258.278H189.32V257.002H187.219V258.278ZM188.62 263.275H192.763V262.355H188.62V263.275ZM199.563 256.36C199.554 258.27 200.371 260.197 202.082 261.025L201.179 262.215C200.039 261.651 199.264 260.599 198.821 259.314C198.357 260.694 197.532 261.821 196.322 262.422L195.407 261.208C197.209 260.379 198.063 258.34 198.067 256.36V254.764H199.563V256.36ZM202.554 264.614V253.94H204.05V258.054H205.625V259.318H204.05V264.614H202.554Z" fill="#6C5A84"/>
<rect x="56.9512" y="242" width="11.4231" height="32" fill="#D9BBFF"/>
<path d="M324.255 274H58.8818C57.8425 274 57 274.853 57 275.904V312.096C57 313.147 57.8425 314 58.8818 314H324.255C325.294 314 326.137 313.147 326.137 312.096V275.904C326.137 274.853 325.294 274 324.255 274Z" fill="#FF7B35"/>
<path d="M115.783 288.407V295.099H114.366V292.273H113.509V294.751H112.112V288.61H113.509V291.055H114.366V288.407H115.783ZM106.564 290.67V289.51H108.445V288.507H109.928V289.51H111.801V290.67H106.564ZM106.887 292.895C106.887 291.772 107.861 291.03 109.195 291.03C110.554 291.03 111.524 291.772 111.528 292.895C111.524 293.997 110.554 294.739 109.195 294.739C107.861 294.739 106.887 293.997 106.887 292.895ZM108.221 292.895C108.221 293.384 108.615 293.682 109.195 293.678C109.779 293.682 110.173 293.384 110.177 292.895C110.173 292.394 109.779 292.099 109.195 292.108C108.615 292.099 108.221 292.394 108.221 292.895ZM108.449 297.142C108.441 295.907 109.841 295.203 112.137 295.203C114.445 295.203 115.833 295.907 115.837 297.142C115.833 298.377 114.445 299.081 112.137 299.077C109.841 299.081 108.441 298.377 108.449 297.142ZM109.941 297.142C109.937 297.681 110.691 297.954 112.137 297.95C113.591 297.954 114.329 297.681 114.333 297.142C114.329 296.583 113.591 296.318 112.137 296.322C110.691 296.318 109.937 296.583 109.941 297.142ZM126.722 293.703V294.901H116.993V293.703H121.091V292.804H118.236V288.673H119.707V289.646H123.992V288.673H125.471V292.804H122.591V293.703H126.722ZM118.07 296.815V295.638H125.537V299.081H124.041V296.815H118.07ZM119.707 291.619H123.992V290.753H119.707V291.619ZM135.825 288.395V290.707H137.267V291.905H135.825V294.171H134.325V288.395H135.825ZM127.36 290.347V289.207H129.784V288.337H131.276V289.207H133.691V290.347H127.36ZM127.882 292.352C127.878 291.287 128.934 290.608 130.53 290.608C132.121 290.608 133.153 291.287 133.153 292.352C133.153 293.442 132.121 294.093 130.53 294.097C128.934 294.093 127.878 293.442 127.882 292.352ZM128.748 295.675V294.602H135.825V297.291H130.24V297.905H136.132V299.007H128.765V296.276H134.334V295.675H128.748ZM129.336 292.352C129.336 292.808 129.788 293.023 130.53 293.028C131.267 293.023 131.731 292.808 131.736 292.352C131.731 291.905 131.267 291.656 130.53 291.656C129.788 291.656 129.336 291.905 129.336 292.352ZM149.484 288.407V299.081H147.997V293.736H145.879V292.514H147.997V288.407H149.484ZM140.397 296.052C143.09 294.727 144.205 293.036 144.425 290.703H140.894V289.53H145.937C145.929 292.746 144.889 295.377 141.16 297.221L140.397 296.052ZM153.739 289.162C155.368 289.162 156.544 290.637 156.553 292.957C156.544 295.302 155.368 296.769 153.739 296.769C152.107 296.769 150.917 295.302 150.926 292.957C150.917 290.637 152.107 289.162 153.739 289.162ZM152.372 292.957C152.368 294.552 152.923 295.414 153.739 295.414C154.576 295.414 155.115 294.552 155.119 292.957C155.115 291.378 154.576 290.512 153.739 290.512C152.923 290.512 152.368 291.378 152.372 292.957ZM157.788 299.081V288.407H159.283V290.894H160.792V292.141H159.283V294.039H160.792V295.253H159.283V299.081H157.788ZM172.934 288.407V299.106H171.421V288.407H172.934ZM164.319 292.957C164.315 290.637 165.509 289.162 167.141 289.162C168.753 289.162 169.946 290.637 169.951 292.957C169.946 295.302 168.753 296.769 167.141 296.769C165.509 296.769 164.315 295.302 164.319 292.957ZM165.765 292.957C165.757 294.552 166.312 295.414 167.141 295.414C167.953 295.414 168.504 294.552 168.504 292.957C168.504 291.378 167.953 290.512 167.141 290.512C166.312 290.512 165.757 291.378 165.765 292.957ZM178.726 289.452V293.554H176.116V295.468C177.127 295.46 178.092 295.419 179.186 295.244L179.29 296.438C177.889 296.674 176.737 296.711 175.42 296.715H174.678V292.365H177.28V290.657H174.666V289.452H178.726ZM179.783 298.559V288.594H181.154V292.448H182.182V288.407H183.595V299.081H182.182V293.645H181.154V298.559H179.783ZM193.44 293.189V294.37H190.345V296.645H194.505V297.863H184.751V296.645H188.865V294.37H185.898V289.166H193.365V290.355H187.394V293.189H193.44ZM204.231 292.746V293.948H202.164V295.7C203.042 295.663 203.921 295.605 204.753 295.518L204.865 296.604C202.537 296.964 200.113 296.981 198.103 296.981L197.933 295.762C198.782 295.767 199.711 295.762 200.668 295.746V293.948H198.633V289.36H204.182V290.546H200.117V292.746H204.231ZM205.358 299.106V288.407H206.846V299.106H205.358ZM218.178 292.456V293.678H216.67V299.057H215.174V288.407H216.67V292.456H218.178ZM208.594 296.45V289.431H210.086V295.215C211.449 295.191 212.912 295.066 214.453 294.756L214.611 296.003C212.821 296.359 211.093 296.454 209.518 296.45H208.594ZM230.321 288.424V294.333H228.821V288.424H230.321ZM221.354 293.003C223.14 292.472 223.923 291.138 223.927 289.816V288.785H225.477V289.816C225.468 291.084 226.247 292.34 227.996 292.816L227.279 294.001C226.044 293.641 225.195 292.899 224.71 291.946C224.225 292.978 223.351 293.794 222.075 294.184L221.354 293.003ZM222.966 298.961V297.764H224.341V295.99H223.061V294.814H230.379V295.99H229.107V297.764H230.474V298.961H222.966ZM225.825 297.764H227.627V295.99H225.825V297.764ZM236.623 288.565C239.08 288.565 240.497 289.207 240.501 290.38C240.497 291.573 239.08 292.211 236.623 292.211C234.161 292.211 232.736 291.573 232.74 290.38C232.736 289.207 234.161 288.565 236.623 288.565ZM231.766 293.902V292.717H241.496V293.902H231.766ZM232.889 295.613V294.515H240.306V297.238H234.364V297.88H240.584V299.007H232.898V296.193H238.831V295.613H232.889ZM234.306 290.38C234.298 290.906 235.061 291.109 236.623 291.113C238.206 291.109 238.96 290.906 238.96 290.38C238.96 289.912 238.206 289.655 236.623 289.659C235.061 289.655 234.298 289.912 234.306 290.38ZM253.891 288.407V294.747H252.399V292.228H250.733V291.01H252.399V288.407H253.891ZM244.833 293.566C246.573 292.986 247.373 291.598 247.406 290.26H245.268V289.058H251.052V290.26H248.927C248.964 291.499 249.726 292.75 251.38 293.297L250.642 294.474C249.465 294.088 248.657 293.318 248.189 292.36C247.725 293.446 246.871 294.316 245.607 294.751L244.833 293.566ZM246.581 297.039C246.577 295.746 247.973 294.983 250.244 294.983C252.523 294.983 253.915 295.746 253.92 297.039C253.915 298.331 252.523 299.09 250.244 299.094C247.973 299.09 246.577 298.331 246.581 297.039ZM248.069 297.039C248.065 297.648 248.831 297.954 250.244 297.95C251.661 297.954 252.432 297.648 252.436 297.039C252.432 296.425 251.661 296.119 250.244 296.119C248.831 296.119 248.065 296.425 248.069 297.039ZM263.963 293.189V294.37H260.868V296.645H265.028V297.863H255.274V296.645H259.389V294.37H256.422V289.166H263.889V290.355H257.918V293.189H263.963ZM275.399 296.666V297.888H265.645V296.666H269.76V295.054H266.768V291.465H272.797V290.305H266.752V289.104H274.276V292.638H268.26V293.84H274.525V295.054H271.239V296.666H275.399Z" fill="#FFD2BB"/>
<rect x="75.7451" y="274" width="11.2925" height="40" fill="#FFA474"/>
<path d="M360 203.119H337.379V218.377H360L349.632 210.553L360 203.119Z" fill="#2BA830"/>
<path d="M336.159 180H69.8882C68.8454 180 68 181.321 68 182.951V239.048C68 240.679 68.8454 242 69.8882 242H336.159C337.202 242 338.047 240.679 338.047 239.048V182.951C338.047 181.321 337.202 180 336.159 180Z" fill="#75F3C9"/>
<path d="M125.543 208.195C125.534 209.824 126.4 211.701 128.153 212.509L127.32 213.681C126.131 213.134 125.286 212.049 124.813 210.768C124.333 212.181 123.454 213.375 122.228 213.955L121.358 212.774C123.135 211.945 124.03 209.96 124.039 208.195V207.541H121.78V206.318H127.689V207.541H125.543V208.195ZM128.522 215.96V205.286H130.018V209.364H131.592V210.611H130.018V215.96H128.522ZM140.936 205.286V215.96H139.423V205.286H140.936ZM132.011 212.94C134.762 211.634 135.976 209.952 136.216 207.582H132.582V206.409H137.741C137.737 209.641 136.602 212.331 132.79 214.129L132.011 212.94ZM152.078 211.174V212.372H147.922V215.96H146.442V212.372H142.348V211.174H152.078ZM142.825 209.384C144.996 209.123 146.181 208.067 146.339 207.023H143.227V205.854H151.203V207.023H148.096C148.237 208.067 149.418 209.123 151.614 209.384L151.071 210.557C149.198 210.304 147.859 209.505 147.213 208.411C146.567 209.505 145.232 210.304 143.376 210.557L142.825 209.384ZM158.699 206.065V206.732C158.691 207.474 158.691 208.535 158.454 209.861L156.983 209.724C157.174 208.705 157.22 207.926 157.232 207.284H153.204V206.065H158.699ZM152.579 210.64C153.175 210.64 153.847 210.636 154.555 210.623V208.531H156.043V210.574C157.108 210.528 158.197 210.445 159.2 210.3L159.275 211.378C157.058 211.784 154.559 211.825 152.707 211.829L152.579 210.64ZM154.145 215.774V212.563H155.645V214.568H161.641V215.774H154.145ZM159.776 213.275V205.286H161.305V208.543H162.602V209.791H161.305V213.275H159.776ZM167.947 205.837C170.205 205.837 171.966 207.056 171.966 208.904C171.966 210.764 170.205 211.978 167.947 211.978C165.697 211.978 163.944 210.764 163.948 208.904C163.944 207.056 165.697 205.837 167.947 205.837ZM163.091 214.659V213.449H172.845V214.659H163.091ZM165.399 208.904C165.395 210.064 166.468 210.752 167.947 210.752C169.422 210.752 170.487 210.064 170.491 208.904C170.487 207.76 169.422 207.039 167.947 207.047C166.468 207.039 165.395 207.76 165.399 208.904ZM183.216 213.545V214.767H173.462V213.545H177.576V211.933H174.585V208.344H180.614V207.184H174.568V205.982H182.093V209.517H176.076V210.719H182.342V211.933H179.056V213.545H183.216ZM196.518 209.335V210.557H195.01V215.936H193.514V205.286H195.01V209.335H196.518ZM186.934 213.329V206.31H188.426V212.094C189.789 212.07 191.252 211.945 192.793 211.634L192.951 212.882C191.161 213.238 189.433 213.333 187.858 213.329H186.934ZM200.417 206.003C202.116 206.003 203.371 207.093 203.38 208.622C203.371 210.155 202.116 211.241 200.417 211.241C198.739 211.241 197.454 210.155 197.458 208.622C197.454 207.093 198.739 206.003 200.417 206.003ZM197.015 212.587C198.917 212.587 201.552 212.563 203.836 212.244L203.947 213.321C201.586 213.781 199.054 213.802 197.185 213.802L197.015 212.587ZM198.942 208.622C198.942 209.467 199.58 209.948 200.417 209.948C201.271 209.948 201.917 209.467 201.921 208.622C201.917 207.789 201.275 207.296 200.417 207.296C199.576 207.296 198.942 207.789 198.942 208.622ZM204.441 215.985V205.286H205.928V215.985H204.441ZM219.094 205.303V213.101H217.602V209.318H215.82C215.518 210.545 214.416 211.382 213.077 211.382C211.461 211.382 210.231 210.234 210.239 208.655C210.231 207.068 211.461 205.945 213.077 205.945C214.457 205.945 215.588 206.815 215.845 208.104H217.602V205.303H219.094ZM211.656 208.655C211.656 209.538 212.273 210.089 213.077 210.089C213.865 210.089 214.47 209.538 214.478 208.655C214.47 207.764 213.865 207.25 213.077 207.25C212.273 207.25 211.656 207.764 211.656 208.655ZM212.016 215.774V212.318H213.508V214.568H219.347V215.774H212.016ZM223.415 206.041C224.853 206.041 225.93 207.226 226.138 209.144H227.994V205.286H229.473V215.985H227.994V210.342H226.154C226.001 212.389 224.899 213.648 223.415 213.648C221.795 213.648 220.639 212.181 220.643 209.836C220.639 207.516 221.795 206.041 223.415 206.041ZM222.077 209.836C222.073 211.431 222.62 212.293 223.415 212.293C224.219 212.293 224.754 211.431 224.758 209.836C224.754 208.257 224.219 207.391 223.415 207.391C222.62 207.391 222.073 208.257 222.077 209.836ZM240.59 210.072V211.183H230.836V210.072H240.59ZM231.951 212.749V211.713H239.426V214.232H233.447V214.842H239.737V215.861H231.959V213.284H237.942V212.749H231.951ZM232.034 206.5V205.485H239.413V207.988H233.538V208.56H239.596V209.571H232.05V207.039H237.913V206.5H232.034ZM249.422 206.177V211.299H244.3V206.177H249.422ZM245.527 215.774V212.306H247.018V214.568H252.828V215.774H245.527ZM245.779 210.122H247.946V207.366H245.779V210.122ZM250.946 213.076V205.295H252.446V208.365H253.88V209.6H252.446V213.076H250.946ZM264.102 209.459V210.632H254.356V209.459H264.102ZM255.479 212.384V211.253H262.896V214.042H256.954V214.709H263.174V215.865H255.487V212.977H261.421V212.384H255.479ZM255.57 208.866V205.51H262.859V206.695H257.062V207.69H262.942V208.866H255.57ZM267.665 206.041C269.103 206.041 270.18 207.226 270.388 209.144H272.244V205.286H273.723V215.985H272.244V210.342H270.404C270.251 212.389 269.149 213.648 267.665 213.648C266.045 213.648 264.889 212.181 264.893 209.836C264.889 207.516 266.045 206.041 267.665 206.041ZM266.327 209.836C266.323 211.431 266.87 212.293 267.665 212.293C268.469 212.293 269.004 211.431 269.008 209.836C269.004 208.257 268.469 207.391 267.665 207.391C266.87 207.391 266.323 208.257 266.327 209.836ZM283.51 205.286V209.318H285.085V210.557H283.51V215.985H282.031V205.286H283.51ZM275.529 207.391V206.186H280.46V210.317H277.029V212.256C278.587 212.248 279.864 212.177 281.281 211.937L281.413 213.13C279.785 213.429 278.318 213.495 276.437 213.499H275.542V209.136H278.969V207.391H275.529Z" fill="#00754E"/>
<rect x="87.0264" y="180" width="11.4251" height="62" fill="#B0FFE5"/>
<path d="M38 334C38 322.954 46.9543 314 58 314H307.741V354H58C46.9543 354 38 345.046 38 334Z" fill="#85DCFF"/>
<path d="M45.8037 333.999C45.8037 327.161 51.3469 321.618 58.1847 321.618H308V346.38H58.1847C51.3469 346.38 45.8037 340.837 45.8037 333.999Z" fill="white"/>
<path d="M149.045 329.009C149.894 329.005 150.64 329.32 151.154 329.842H153.57V328.429H155.062V334.686H153.57V333.41H151.133C150.624 333.923 149.886 334.23 149.045 334.226C147.429 334.23 146.198 333.128 146.207 331.62C146.198 330.099 147.429 329.005 149.045 329.009ZM147.624 331.62C147.624 332.44 148.212 332.966 149.045 332.962C149.853 332.966 150.437 332.44 150.446 331.62C150.437 330.774 149.853 330.281 149.045 330.289C148.212 330.281 147.624 330.774 147.624 331.62ZM147.752 337.002C147.748 335.676 149.161 334.897 151.415 334.901C153.669 334.897 155.086 335.676 155.091 337.002C155.086 338.324 153.669 339.103 151.415 339.099C149.161 339.103 147.748 338.324 147.752 337.002ZM149.219 337.002C149.211 337.624 150.002 337.939 151.415 337.934C152.857 337.939 153.624 337.624 153.628 337.002C153.624 336.364 152.857 336.045 151.415 336.045C150.002 336.045 149.211 336.364 149.219 337.002ZM151.796 332.216H153.57V331.027H151.8C151.842 331.218 151.867 331.412 151.867 331.62C151.867 331.827 151.842 332.026 151.796 332.216ZM165.478 328.446V336.505H163.978V335.651H161.94V334.632H163.978V328.446H165.478ZM156.399 333.173C158.359 333.157 160.995 333.132 163.249 332.846L163.336 333.919C162.495 334.06 161.62 334.155 160.759 334.222V336.248H159.259V337.711H165.714V338.917H157.763V335.73H159.259V334.309C158.301 334.346 157.39 334.354 156.578 334.354L156.399 333.173ZM157.191 330.72C157.191 329.585 158.289 328.802 159.872 328.806C161.426 328.802 162.532 329.585 162.536 330.72C162.532 331.864 161.426 332.602 159.872 332.602C158.289 332.602 157.191 331.864 157.191 330.72ZM158.608 330.72C158.604 331.238 159.114 331.52 159.872 331.52C160.593 331.52 161.111 331.238 161.115 330.72C161.111 330.19 160.593 329.9 159.872 329.9C159.114 329.9 158.604 330.19 158.608 330.72ZM175.277 328.446V331.715H176.711V332.941H175.277V336.41H173.777V328.446H175.277ZM166.812 330.741V329.564H169.236V328.429H170.728V329.564H173.144V330.741H166.812ZM167.334 333.186C167.33 331.947 168.424 331.118 169.982 331.118C171.523 331.118 172.605 331.947 172.605 333.186C172.605 334.412 171.523 335.225 169.982 335.22C168.424 335.225 167.33 334.412 167.334 333.186ZM168.358 338.917V335.792H169.849V337.711H175.659V338.917H168.358ZM168.789 333.186C168.789 333.77 169.265 334.085 169.982 334.085C170.695 334.085 171.184 333.77 171.188 333.186C171.184 332.589 170.695 332.262 169.982 332.258C169.265 332.262 168.789 332.589 168.789 333.186ZM183.881 330.944C183.881 332.142 184.66 333.372 186.396 333.899L185.679 335.059C184.486 334.715 183.641 333.981 183.156 333.057C182.684 334.056 181.838 334.847 180.603 335.229L179.878 334.064C181.61 333.538 182.389 332.245 182.389 330.944V330.865H180.243V329.689H182.389V328.504H183.898V329.689H186.027V330.865H183.881V330.944ZM181.863 338.917V335.676H183.355V337.711H189.193V338.917H181.863ZM185.679 332.755V331.557H187.449V328.446H188.94V336.352H187.449V332.755H185.679ZM198.926 328.897V329.738C198.926 330.526 198.926 331.429 198.707 332.577H200.078V333.774H195.93V335.303H198.93V339.103H197.43V336.476H191.302V335.303H194.43V333.774H190.324V332.577H197.202C197.397 331.574 197.426 330.795 197.43 330.091H191.517V328.897H198.926Z" fill="#4F505C"/>
<path d="M296.678 354H32.8707C31.8376 354 31 354.853 31 355.904V392.096C31 393.147 31.8376 394 32.8707 394H296.678C297.711 394 298.548 393.147 298.548 392.096V355.904C298.548 354.853 297.711 354 296.678 354Z" fill="#FFDA4A"/>
<path d="M73.5323 369.357V370.368C73.5282 371.702 73.5282 373.202 73.1055 375.473L71.5972 375.316C72.0033 373.298 72.024 371.798 72.0323 370.546H65.7506V369.357H73.5323ZM64.7478 377.794V376.579H68.2285V372.912H69.7119V376.579H74.4771V377.794H64.7478ZM84.1065 368.446V376.231H82.6147V372.411H80.8703V371.205H82.6147V368.446H84.1065ZM75.0567 373.832C76.8178 373.277 77.6175 371.885 77.6217 370.521V370.36H75.4835V369.162H81.2681V370.36H79.1424V370.53C79.1424 371.769 79.9007 373.091 81.5954 373.642L80.8578 374.827C79.6769 374.441 78.8647 373.662 78.4007 372.701C77.9283 373.766 77.0788 374.624 75.8233 375.042L75.0567 373.832ZM77.0291 378.917V375.552H78.5208V377.711H84.3592V378.917H77.0291ZM94.4154 368.429V379.128H92.903V368.429H94.4154ZM85.8008 372.979C85.7966 370.658 86.99 369.183 88.6226 369.183C90.2345 369.183 91.4278 370.658 91.432 372.979C91.4278 375.324 90.2345 376.791 88.6226 376.791C86.99 376.791 85.7966 375.324 85.8008 372.979ZM87.2469 372.979C87.2386 374.574 87.7938 375.436 88.6226 375.436C89.4347 375.436 89.9858 374.574 89.9858 372.979C89.9858 371.4 89.4347 370.534 88.6226 370.534C87.7938 370.534 87.2386 371.4 87.2469 372.979ZM107.088 368.429V370.741H108.522V371.968H107.088V374.143H105.588V368.429H107.088ZM99.0411 373.894V369.075H103.798V370.269H100.529V372.684C102.464 372.676 103.524 372.614 104.714 372.353L104.871 373.555C103.529 373.836 102.298 373.89 99.9319 373.894H99.0411ZM100.081 378.97V374.653H101.573V375.647H105.588V374.653H107.088V378.97H100.081ZM101.573 377.777H105.588V376.82H101.573V377.777ZM118.159 368.446V375.013H116.742V372.386H115.905V374.893H114.513V368.591H115.905V371.18H116.742V368.446H118.159ZM108.94 370.642V369.461H110.821V368.495H112.304V369.461H114.177V370.642H108.94ZM109.263 372.842C109.263 371.723 110.237 370.977 111.571 370.973C112.93 370.977 113.9 371.723 113.904 372.842C113.9 373.936 112.93 374.698 111.571 374.702C110.237 374.698 109.263 373.936 109.263 372.842ZM109.59 377.86C110.974 377.458 111.596 376.501 111.6 375.556V375.345H113.079V375.556C113.071 376.339 113.419 377.143 114.26 377.669C115.114 377.114 115.487 376.273 115.495 375.556V375.345H116.983V375.556C116.978 376.55 117.575 377.499 118.988 377.86L118.296 378.97C117.264 378.66 116.589 378.038 116.22 377.255C115.872 378.038 115.255 378.726 114.285 379.078C113.295 378.734 112.673 378.079 112.329 377.3C111.944 378.05 111.273 378.655 110.291 378.97L109.59 377.86ZM110.597 372.842C110.597 373.339 110.991 373.629 111.571 373.625C112.155 373.629 112.549 373.339 112.553 372.842C112.549 372.32 112.155 372.046 111.571 372.046C110.991 372.046 110.597 372.32 110.597 372.842ZM127.78 368.429V372.394H129.355V373.617H127.78V379.128H126.285V368.429H127.78ZM119.792 376.534V369.423H124.793V370.629H121.279V375.303C122.825 375.291 124.105 375.208 125.514 374.963L125.68 376.215C124.026 376.497 122.572 376.538 120.687 376.534H119.792ZM137.967 369.444V376.497H132.841V369.444H137.967ZM134.316 375.312H136.479V370.617H134.316V375.312ZM139.421 379.103V368.429H140.917V372.457H142.492V373.704H140.917V379.103H139.421ZM151.57 368.446V371.023H152.772V372.245H151.57V374.806H150.066V368.446H151.57ZM143.134 374.16V369.212H145.902V370.389H144.551V372.925C145.031 372.904 145.491 372.854 145.997 372.747L146.125 373.986C145.251 374.147 144.555 374.164 143.668 374.16H143.134ZM144.215 377.015C144.215 375.713 145.632 374.939 147.936 374.939C150.232 374.939 151.649 375.713 151.653 377.015C151.649 378.332 150.232 379.091 147.936 379.086C145.632 379.091 144.215 378.332 144.215 377.015ZM145.723 377.015C145.715 377.632 146.494 377.926 147.936 377.93C149.378 377.926 150.149 377.632 150.149 377.015C150.149 376.397 149.378 376.107 147.936 376.107C146.494 376.107 145.715 376.397 145.723 377.015ZM146.432 374.155V369.212H149.299V370.389H147.866V372.904C148.558 372.892 149.001 372.854 149.523 372.73L149.664 373.957C148.906 374.126 148.321 374.155 147.024 374.155H146.432ZM162.173 368.429V379.103H160.661V368.429H162.173ZM153.472 371.238V370.041H155.9V368.574H157.416V370.041H159.844V371.238H153.472ZM153.927 374.363C153.923 372.875 155.096 371.818 156.679 371.818C158.253 371.818 159.422 372.875 159.422 374.363C159.422 375.854 158.253 376.903 156.679 376.907C155.096 376.903 153.923 375.854 153.927 374.363ZM155.353 374.363C155.349 375.191 155.9 375.684 156.679 375.68C157.449 375.684 157.992 375.191 157.992 374.363C157.992 373.546 157.449 373.041 156.679 373.033C155.9 373.041 155.349 373.546 155.353 374.363ZM170.296 369.481C170.288 370.787 171.042 371.992 172.745 372.481L171.983 373.638C170.818 373.285 170.023 372.577 169.563 371.661C169.09 372.701 168.233 373.509 166.973 373.911L166.244 372.722C168.001 372.183 168.784 370.89 168.792 369.49V368.81H170.296V369.481ZM167.768 375.481V374.325H174.846V377.18H169.26V377.852H175.152V379.028H167.785V376.107H173.354V375.481H167.768ZM173.346 373.923V368.429H174.846V370.517H176.28V371.744H174.846V373.923H173.346ZM179.623 369.183C181.251 369.183 182.428 370.658 182.437 372.979C182.428 375.324 181.251 376.791 179.623 376.791C177.99 376.791 176.801 375.324 176.809 372.979C176.801 370.658 177.99 369.183 179.623 369.183ZM178.256 372.979C178.251 374.574 178.807 375.436 179.623 375.436C180.46 375.436 180.999 374.574 181.003 372.979C180.999 371.4 180.46 370.534 179.623 370.534C178.807 370.534 178.251 371.4 178.256 372.979ZM183.671 379.103V368.429H185.167V372.457H186.742V373.704H185.167V379.103H183.671ZM189.994 369.183C191.623 369.183 192.799 370.658 192.808 372.979C192.799 375.324 191.623 376.791 189.994 376.791C188.362 376.791 187.172 375.324 187.181 372.979C187.172 370.658 188.362 369.183 189.994 369.183ZM188.627 372.979C188.623 374.574 189.178 375.436 189.994 375.436C190.831 375.436 191.37 374.574 191.374 372.979C191.37 371.4 190.831 370.534 189.994 370.534C189.178 370.534 188.623 371.4 188.627 372.979ZM194.042 379.103V368.429H195.538V370.915H197.047V372.162H195.538V374.06H197.047V375.274H195.538V379.103H194.042ZM208.725 368.417V370.729H210.167V371.926H208.725V374.193H207.225V368.417H208.725ZM200.259 370.368V369.229H202.683V368.359H204.175V369.229H206.591V370.368H200.259ZM200.781 372.374C200.777 371.309 201.834 370.629 203.429 370.629C205.02 370.629 206.052 371.309 206.052 372.374C206.052 373.463 205.02 374.114 203.429 374.118C201.834 374.114 200.777 373.463 200.781 372.374ZM201.647 375.697V374.624H208.725V377.313H203.139V377.926H209.031V379.028H201.664V376.298H207.233V375.697H201.647ZM202.236 372.374C202.236 372.829 202.687 373.045 203.429 373.049C204.167 373.045 204.631 372.829 204.635 372.374C204.631 371.926 204.167 371.678 203.429 371.678C202.687 371.678 202.236 371.926 202.236 372.374ZM217.312 369.527C217.303 370.882 218.045 372.1 219.786 372.622L218.99 373.783C217.842 373.414 217.047 372.693 216.587 371.76C216.114 372.834 215.252 373.671 213.98 374.085L213.218 372.883C215.016 372.341 215.799 370.973 215.808 369.564V368.843H217.312V369.527ZM214.225 375.618V374.524H217.747V377.238H215.704V377.918C216.599 377.91 217.196 377.872 217.908 377.736L218.037 378.842C217.1 379.033 216.334 379.049 214.879 379.041H214.241V376.198H216.301V375.618H214.225ZM218.306 379.041V374.524H221.861V379.041H218.306ZM219.603 377.959H220.569V375.614H219.603V377.959ZM220.361 374.093V368.429H221.861V370.559H223.295V371.769H221.861V374.093H220.361ZM233.012 368.429V379.103H231.582V368.429H233.012ZM223.862 373.049C223.858 370.667 224.774 369.196 226.179 369.196C227.463 369.196 228.346 370.393 228.507 372.378H229.378V368.595H230.791V378.61H229.378V373.571H228.52C228.391 375.664 227.496 376.932 226.179 376.928C224.774 376.932 223.858 375.452 223.862 373.049ZM225.238 373.049C225.23 374.694 225.582 375.498 226.179 375.494C226.796 375.498 227.161 374.694 227.161 373.049C227.161 371.421 226.796 370.604 226.179 370.609C225.582 370.604 225.23 371.421 225.238 373.049ZM246.123 368.429V379.103H244.71V373.749H243.683V378.581H242.311V368.615H243.683V372.552H244.71V368.429H246.123ZM237.206 376.683V369.668H241.188V370.87H238.706V375.432C239.738 375.415 240.654 375.357 241.681 375.171L241.793 376.389C240.492 376.642 239.357 376.679 237.952 376.683H237.206ZM255.691 368.429V372.61H257.265V373.841H255.691V379.103H254.211V368.429H255.691ZM247.221 371.222V370.024H249.637V368.599H251.128V370.024H253.49V371.222H247.221ZM247.652 374.363C247.648 372.875 248.808 371.818 250.383 371.818C251.937 371.818 253.101 372.875 253.105 374.363C253.101 375.854 251.937 376.903 250.383 376.907C248.808 376.903 247.648 375.854 247.652 374.363ZM249.086 374.363C249.082 375.191 249.628 375.684 250.383 375.68C251.128 375.684 251.667 375.191 251.675 374.363C251.667 373.546 251.128 373.041 250.383 373.033C249.628 373.041 249.082 373.546 249.086 374.363ZM260.588 369.183C261.545 369.183 262.341 369.709 262.83 370.625H265.167V368.429H266.646V379.128H265.167V375.129H262.937C262.465 376.186 261.62 376.791 260.588 376.791C258.968 376.791 257.812 375.324 257.816 372.979C257.812 370.658 258.968 369.183 260.588 369.183ZM259.25 372.979C259.245 374.574 259.792 375.436 260.588 375.436C261.392 375.436 261.926 374.574 261.931 372.979C261.926 371.4 261.392 370.534 260.588 370.534C259.792 370.534 259.245 371.4 259.25 372.979ZM263.244 371.831C263.31 372.183 263.348 372.568 263.348 372.979C263.348 373.314 263.323 373.633 263.277 373.932H265.167V371.831H263.244Z" fill="#A78500"/>
<rect x="49.71" y="354" width="11.2258" height="40" fill="#FFE88C"/>
<path d="M321 366.382H298.549V381.62H321L310.71 373.806L321 366.382Z" fill="#2BA830"/>
<path d="M309.678 421H45.8707C44.8376 421 44 420.425 44 419.715V395.285C44 394.576 44.8376 394 45.8707 394H309.678C310.711 394 311.548 394.576 311.548 395.285V419.715C311.548 420.425 310.711 421 309.678 421Z" fill="#A0FF56"/>
<path d="M169.78 406.757V407.95H160.051V406.757H164.157V405.729H165.64V406.757H169.78ZM160.457 405.108C162.736 404.971 163.821 404.283 164.028 403.546H160.983V402.369H164.157V401.445H165.64V402.369H168.835V403.546H165.765C165.968 404.283 167.057 404.971 169.341 405.108L168.889 406.235C166.925 406.098 165.566 405.53 164.899 404.669C164.227 405.53 162.864 406.098 160.908 406.235L160.457 405.108ZM161.161 410.267C161.161 409.094 162.549 408.452 164.894 408.452C167.236 408.452 168.603 409.094 168.611 410.267C168.603 411.439 167.236 412.081 164.894 412.077C162.549 412.081 161.161 411.439 161.161 410.267ZM162.686 410.267C162.678 410.756 163.407 410.975 164.894 410.971C166.357 410.975 167.107 410.756 167.111 410.267C167.107 409.778 166.357 409.558 164.894 409.558C163.407 409.558 162.678 409.778 162.686 410.267ZM181.789 401.921V402.829C181.789 403.682 181.789 404.635 181.574 405.854H182.941V407.047H180.492V409.376H179.042V407.047H177.882V409.376H176.415V407.047H173.187V405.854H180.07C180.273 404.743 180.294 403.885 180.298 403.094H174.356V401.921H181.789ZM174.231 411.895V408.419H175.723V410.689H182.071V411.895H174.231ZM190.542 406.691V408.667C191.437 408.613 192.341 408.535 193.19 408.406L193.302 409.488C190.94 409.939 188.408 409.964 186.539 409.985L186.37 408.754C187.153 408.754 188.068 408.75 189.042 408.725V406.691H190.542ZM186.428 406.015C188.213 405.485 189.026 404.213 189.03 402.858V402.153H190.567V402.841C190.563 404.084 191.358 405.302 193.124 405.787L192.411 406.977C191.18 406.62 190.318 405.887 189.825 404.954C189.341 405.994 188.454 406.798 187.157 407.184L186.428 406.015ZM193.795 412.106V401.407H195.283V412.106H193.795Z" fill="#419400"/>
<rect width="11.2258" height="27" transform="matrix(1 0 0 -1 62.71 421)" fill="#CAFFA0"/>
<path d="M334 412.643H311.549V402.357H334L323.71 407.632L334 412.643Z" fill="#2BA830"/>
<mask id="mask1_3827_20551" style="mask-type:alpha" maskUnits="userSpaceOnUse" x="120" y="29" width="150" height="151">
<rect x="120" y="29" width="149.966" height="151" fill="#D9D9D9"/>
</mask>
<g mask="url(#mask1_3827_20551)">
<path d="M206.987 179.882H185.412L195.261 172.562L206.987 179.882Z" fill="#DBFF9E"/>
<path d="M207.531 179.646C206.226 179.543 204.934 179.427 203.636 179.318C202.468 179.221 201.307 179.111 200.139 179.05C196.989 178.886 193.834 178.959 190.685 179.075C188.815 179.142 186.939 179.221 185.038 179.628C184.268 178.321 183.696 176.959 183.119 175.597C181.597 172.009 180.746 168.24 180.156 164.421C179.783 162.007 179.64 159.569 179.572 157.125C179.379 150.2 180.466 143.457 182.485 136.841C183.106 134.81 184.081 132.913 185.088 130.974C185.125 130.919 185.119 130.913 185.125 130.913C185.324 130.725 185.429 130.481 185.566 130.202C185.603 130.165 185.597 130.153 185.603 130.153C185.715 130.037 185.783 129.904 185.883 129.74C185.914 129.709 185.914 129.697 185.92 129.697C186.026 129.594 186.094 129.466 186.2 129.302C186.237 129.265 186.237 129.241 186.249 129.241C186.274 129.211 186.293 129.18 186.349 129.119C186.386 129.089 186.386 129.077 186.386 129.077C186.498 128.979 186.56 128.858 186.672 128.7C186.715 128.663 186.715 128.633 186.728 128.627C186.752 128.59 186.765 128.56 186.815 128.511C186.858 128.487 186.852 128.469 186.864 128.469C186.895 128.438 186.908 128.414 186.97 128.353C187.007 128.323 187.007 128.311 187.013 128.311C187.044 128.286 187.063 128.256 187.125 128.195C187.162 128.159 187.162 128.153 187.162 128.153C187.318 128.013 187.461 127.861 187.61 127.648C187.653 127.617 187.678 127.569 187.734 127.526C187.79 127.484 187.821 127.423 187.883 127.38C187.945 127.332 187.976 127.271 188.038 127.228C188.1 127.186 188.138 127.119 188.194 127.089C188.324 126.979 188.399 126.9 188.529 126.803C188.684 126.663 188.858 126.645 189.001 126.505C189.032 126.474 189.032 126.468 189.038 126.468C189.069 126.444 189.094 126.42 189.156 126.353C189.194 126.316 189.194 126.31 189.194 126.31C189.219 126.286 189.25 126.262 189.312 126.201C189.349 126.164 189.349 126.158 189.349 126.158C189.374 126.134 189.399 126.11 189.467 126.055C189.511 126.024 189.511 126.012 189.523 126.012C189.548 125.988 189.56 125.958 189.629 125.921C190.939 124.985 192.442 124.796 193.94 124.59C195.859 124.328 197.778 124.298 199.685 124.687C202.518 125.264 204.444 127.089 206.115 129.235C206.903 130.25 207.556 131.351 208.146 132.555C208.183 132.628 208.208 132.646 208.239 132.707C208.264 132.774 208.276 132.804 208.307 132.871C208.345 132.932 208.363 132.95 208.394 133.011C208.413 133.078 208.432 133.108 208.463 133.181C208.5 133.242 208.525 133.26 208.55 133.315C208.568 133.388 208.581 133.418 208.612 133.497C208.655 133.558 208.68 133.57 208.692 133.625C208.699 133.698 208.717 133.728 208.755 133.819C208.829 133.911 208.86 133.959 208.879 134.075C208.904 134.154 208.916 134.178 208.941 134.251C208.978 134.312 208.997 134.33 209.022 134.391C209.04 134.464 209.053 134.494 209.078 134.579C209.146 134.671 209.177 134.725 209.189 134.841C209.214 134.92 209.227 134.944 209.251 135.023C209.289 135.084 209.307 135.102 209.326 135.163C209.338 135.236 209.357 135.273 209.382 135.352C209.45 135.443 209.488 135.491 209.494 135.607C209.512 135.686 209.525 135.716 209.55 135.795C209.612 135.893 209.643 135.947 209.655 136.063C209.674 136.142 209.686 136.172 209.711 136.251C209.773 136.349 209.798 136.41 209.817 136.525C209.842 136.604 209.848 136.635 209.873 136.714C209.935 136.811 209.96 136.866 209.972 136.987C209.991 137.066 210.003 137.097 210.028 137.182C210.202 137.802 210.363 138.373 210.562 138.994C210.606 139.109 210.624 139.176 210.649 139.298C210.854 140.343 211.127 141.322 211.357 142.362C211.395 142.478 211.413 142.551 211.432 142.666C211.674 143.949 211.941 145.177 212.165 146.472C212.19 146.6 212.202 146.673 212.215 146.801C212.208 147.08 212.27 147.293 212.32 147.561C212.345 147.676 212.351 147.749 212.364 147.877C212.444 148.752 212.538 149.579 212.637 150.461C212.662 150.637 212.674 150.759 212.68 150.941C212.668 151.671 212.798 152.34 212.792 153.069C212.817 153.343 212.829 153.568 212.829 153.854C212.867 155.039 212.842 156.164 212.836 157.35C212.829 157.636 212.823 157.855 212.817 158.14C212.761 158.925 212.68 159.642 212.68 160.42C212.674 160.554 212.674 160.627 212.662 160.755C212.606 161.229 212.525 161.643 212.525 162.111C212.519 162.238 212.513 162.311 212.5 162.439C212.333 163.157 212.333 163.838 212.208 164.561C212.196 164.689 212.19 164.762 212.177 164.889C212.016 165.406 212.028 165.893 211.904 166.41C211.892 166.531 211.885 166.604 211.867 166.726C211.674 167.395 211.593 168.027 211.432 168.702C211.413 168.823 211.407 168.89 211.382 169.006C211.202 169.523 211.103 170.009 210.966 170.538C210.947 170.66 210.941 170.727 210.91 170.842C210.655 171.626 210.407 172.356 210.183 173.14C210.165 173.262 210.146 173.335 210.103 173.457C210.09 173.536 210.096 173.56 210.065 173.609C210.022 173.663 210.016 173.688 209.991 173.767C209.73 174.259 209.593 174.739 209.432 175.268C209.388 175.341 209.382 175.372 209.351 175.445C209.239 175.652 209.165 175.822 209.115 176.041C209.071 176.108 209.059 176.138 209.028 176.217C209.003 176.29 209.003 176.32 208.966 176.369C208.922 176.424 208.916 176.454 208.885 176.521C208.711 176.819 208.556 177.074 208.481 177.415C208.438 177.482 208.425 177.518 208.388 177.597C208.363 177.67 208.363 177.701 208.332 177.749C208.282 177.804 208.276 177.834 208.239 177.907C208.214 177.98 208.214 178.005 208.177 178.059C208.133 178.114 208.127 178.144 208.096 178.211C207.978 178.412 207.904 178.582 207.854 178.807C207.817 178.874 207.804 178.904 207.779 178.977C207.661 179.184 207.587 179.354 207.543 179.579C207.543 179.616 207.537 179.64 207.531 179.646Z" fill="#DBFF9E"/>
<path d="M166.138 120.87C166.428 121.182 166.138 121.319 165.983 121.46C163.994 123.349 162.203 125.413 160.58 127.628C160.523 127.656 160.505 127.817 160.448 127.855C160.345 127.935 160.331 128.152 160.209 128.204C160.195 128.228 160.12 128.322 160.101 128.336C159.989 128.431 159.97 128.615 159.862 128.695C159.806 128.766 159.806 128.894 159.736 128.927C159.712 128.95 159.651 129.04 159.628 129.054C159.459 129.215 159.431 129.512 159.267 129.644C159.243 129.673 159.177 129.753 159.159 129.777C159.102 129.81 159.088 129.97 159.032 130.008C158.98 130.07 158.976 130.211 158.905 130.24C158.849 130.376 158.783 130.532 158.676 130.603C158.624 130.665 158.619 130.806 158.549 130.835C158.535 130.853 158.465 130.948 158.441 130.967C158.333 131.085 158.338 131.359 158.197 131.434C158.174 131.463 158.103 131.538 158.094 131.567C158.033 131.595 158.019 131.76 157.972 131.803C157.864 132.02 157.799 132.346 157.611 132.511C157.559 132.572 157.555 132.709 157.494 132.747C157.442 132.804 157.437 132.95 157.376 132.983C157.325 133.04 157.32 133.186 157.259 133.219C157.17 133.337 157.109 133.578 157.025 133.696C156.978 133.753 156.968 133.899 156.907 133.937C156.8 134.301 156.617 134.589 156.443 134.896C156.293 135.123 156.302 135.543 156.087 135.727C155.969 135.883 156.016 136.199 155.847 136.322C155.74 136.483 155.782 136.794 155.613 136.917C155.477 137.21 155.486 137.63 155.261 137.871C155.167 137.942 155.233 138.159 155.139 138.225C155.05 138.296 155.116 138.513 155.017 138.579C154.928 138.655 154.994 138.872 154.9 138.938C154.112 141.394 153.685 144.095 153.127 146.556C152.874 146.716 152.513 146.839 152.292 147.023C152.236 147.075 152.109 147.103 152.058 147.151C151.95 147.231 151.786 147.297 151.697 147.382C151.312 147.59 150.942 147.826 150.637 148.1C150.468 148.204 150.29 148.336 150.163 148.459C149.914 148.629 149.661 148.86 149.45 149.054C149.431 149.077 149.366 149.167 149.328 149.162C148.779 149.564 148.306 150.069 147.912 150.598C140.426 158.376 142.11 173.242 152.621 177.37C151.153 178.12 150.018 179.06 149.52 180H187.9C187.843 179.556 187.674 179.103 187.374 178.649C186.882 177.318 186.169 176.076 185.77 174.706C183.585 168.402 183.083 161.564 183.796 154.962C184.799 148.501 185.953 139.864 192.454 136.705C199.775 134.093 204.831 139.703 206.515 146.39C209.188 155.604 209.352 165.672 206.229 174.786C205.844 176 205.281 177.138 204.765 178.3C204.489 178.848 204.231 179.429 204.127 180H242.497C242.122 179.107 241.175 178.229 239.594 177.592C249.424 172.6 251.99 159.278 244.111 150.598C243.712 150.027 243.21 149.573 242.694 149.162C242.666 149.148 242.577 149.082 242.567 149.049C242.366 148.822 242.07 148.638 241.855 148.454C241.742 148.298 241.508 148.218 241.381 148.095C241.071 147.779 240.654 147.609 240.321 147.377C240.227 147.269 240.035 147.24 239.96 147.146C239.899 147.094 239.758 147.089 239.73 147.023C238.998 146.744 238.689 146.258 238.651 145.507C238.027 140.818 236.456 136.284 234.228 132.124C231.93 127.746 228.76 123.93 225.144 120.592C224.703 120.28 225.059 120.03 225.406 119.878C258.35 104.195 258.664 71.6103 227.015 54.09C224.103 51.894 223.605 47.6297 221.556 44.664C219.774 41.2166 217.776 37.8684 215.187 34.964C207.856 26.5156 196.619 26.3692 194.55 38.8978C193.218 27.5215 182.262 26.2039 175.161 33.7882C169.965 38.9876 166.879 45.8587 163.844 52.4702C162.456 54.6236 159.548 55.2989 157.583 56.8904C128.105 76.8239 134.944 107.784 166.147 120.875L166.138 120.87Z" fill="#00CE4C"/>
<path d="M186.688 36.5784C189.561 38.1291 190.422 40.9582 188.92 43.5773C187.943 45.2767 186.061 46.2624 184.171 46.0633C182.394 45.8697 180.952 44.5199 180.41 42.6034C179.359 38.8559 183.596 35.2804 186.688 36.5784Z" fill="#0E0E0E"/>
<path d="M203.409 36.5335C206.618 36.827 208.602 38.9868 208.409 41.8383C208.282 43.6896 207.047 45.2506 205.292 45.7771C203.64 46.2658 201.782 45.6178 200.474 44.1397C197.924 41.2457 200.118 36.5424 203.409 36.5335Z" fill="#0E0E0E"/>
<path d="M185.585 41.2736C184.685 40.948 184.354 40.3776 184.601 39.5152C184.769 38.951 185.189 38.5805 185.798 38.4248C186.565 38.2284 187.17 38.406 187.624 38.9104C187.942 39.2658 188.068 39.7001 187.791 40.1881C187.332 40.9856 186.554 41.2291 185.595 41.2661L185.585 41.2736Z" fill="white"/>
<path d="M204.142 41.0019C203.332 40.3672 203.146 39.6772 203.604 38.8874C203.911 38.3728 204.418 38.1397 205.059 38.188C205.867 38.249 206.422 38.634 206.746 39.2985C206.972 39.7662 206.989 40.2488 206.594 40.6492C205.942 41.3015 205.112 41.285 204.154 40.9976L204.142 41.0019Z" fill="white"/>
<path d="M200.765 57.9152C202.143 57.8396 203.124 57.0321 204.263 56.4371C205.999 56.2198 204.221 58.2788 203.457 58.5008C201.027 59.9081 198.213 59.45 195.812 58.2741C193.406 58.5858 191.15 60.352 188.392 59.8467C186.957 59.927 182.773 57.9105 184.635 56.3048C185.071 56.1726 185.315 56.4229 185.522 56.7912C187.402 59.4453 191.473 58.4488 193.992 57.4004C196.295 56.2434 198.293 58.4866 200.769 57.9152H200.765Z" fill="#0E0E0E"/>
<path d="M195.194 122.977H176.735C191.502 131.53 206.652 126.54 212.38 122.977H195.194Z" fill="#00C62E"/>
</g>
</g>
</svg>
