<svg viewBox="0 0 390 420" fill="none" xmlns="http://www.w3.org/2000/svg">
<mask id="mask0_3827_20725" style="mask-type:alpha" maskUnits="userSpaceOnUse" x="0" y="0" width="390" height="420">
<rect width="390" height="420" fill="#D9D9D9"/>
</mask>
<g mask="url(#mask0_3827_20725)">
<path fill-rule="evenodd" clip-rule="evenodd" d="M146.585 188.912H86.1956V232.028L55.7928 201.794L13.0913 244.259L43.6311 274.629H2.63969e-06L0 334.683H44.1511L13.0419 365.62L55.7435 408.085L86.1956 377.802V420.403H146.585V377.012L177.693 407.948L220.394 365.483L189.423 334.683H232.782V274.629H189.943L220.345 244.396L177.643 201.931L146.585 232.818V188.912Z" fill="#FFA144"/>
<mask id="mask1_3827_20725" style="mask-type:alpha" maskUnits="userSpaceOnUse" x="0" y="188" width="233" height="233">
<path fill-rule="evenodd" clip-rule="evenodd" d="M146.585 188.913H86.1956V232.029L55.7928 201.795L13.0913 244.26L43.6311 274.63H2.63969e-06L0 334.684H44.1511L13.0419 365.621L55.7435 408.086L86.1956 377.803V420.404H146.585V377.013L177.693 407.949L220.394 365.484L189.423 334.684H232.782V274.63H189.943L220.345 244.397L177.643 201.932L146.585 232.819V188.913Z" fill="#FFA144"/>
</mask>
<g mask="url(#mask1_3827_20725)">
<path d="M109.602 420.873C109.429 420.961 109.284 421.015 109.134 421.034C105.392 421.484 101.749 422.386 98.1219 423.377C94.7358 424.303 91.2962 424.86 87.776 424.891C86.2018 424.906 84.6313 425.006 83.057 424.979C81.9998 424.96 80.9695 424.802 79.9697 424.457C79.5331 424.307 79.1117 424.126 78.744 423.842C77.9282 423.208 77.7902 422.317 78.3763 421.468C78.7593 420.915 79.2841 420.524 79.851 420.189C80.2225 419.971 80.6132 419.775 80.9848 419.571C80.9695 419.364 80.8086 419.367 80.6975 419.325C76.7522 417.777 74.4617 414.827 73.6764 410.741C72.738 405.859 74.0518 401.511 77.1276 397.658C78.2116 396.302 79.5178 395.227 81.1227 394.551C81.4138 394.428 81.4904 394.24 81.5287 393.956C82.2909 387.887 84.6275 382.452 88.1782 377.52C89.2124 376.084 90.3462 374.72 91.8324 373.633C91.6217 373.41 91.3536 373.376 91.1276 373.291C85.6808 371.221 80.935 368.11 77.0127 363.777C74.1284 360.593 71.8723 357.025 70.5968 352.892C68.9268 347.476 69.0378 342.106 71.1522 336.813C71.7574 335.3 72.5618 333.894 73.5807 332.623C74.7413 331.175 75.9249 329.734 77.1544 328.344C80.1804 324.918 83.7618 322.175 87.6918 319.875C88.2395 319.556 88.7911 319.241 89.3427 318.93C89.7372 318.707 90.0015 318.381 90.1892 317.962C91.5873 314.82 93.1194 311.747 94.8507 308.778C96.4365 306.059 98.2866 303.547 100.757 301.553C102.148 300.432 103.668 299.541 105.415 299.087C107.173 298.63 108.927 298.596 110.62 299.326C112.796 300.267 114.075 301.999 114.723 304.234C114.933 304.968 115.102 305.713 115.297 306.481C115.619 306.378 115.6 306.113 115.646 305.897C115.826 305.018 116.037 304.146 116.374 303.312C117.71 299.99 120.836 298.335 124.272 298.865C126.792 299.256 128.857 300.497 130.726 302.133C132.503 303.689 133.928 305.544 135.177 307.534C137.207 310.764 138.912 314.167 140.459 317.651C140.762 318.331 141.191 318.811 141.83 319.16C144.102 320.393 146.27 321.788 148.307 323.382C152.149 326.393 155.436 329.896 157.845 334.179C159.239 336.656 160.228 339.287 160.775 342.079C160.986 343.155 161.07 344.246 161.151 345.402C161.446 345.924 161.193 346.362 161.074 346.785C160.235 349.723 159.381 352.654 158.527 355.584C158.217 356.652 157.929 357.728 157.546 358.83C157.512 358.907 157.497 358.937 157.454 359.014C157.412 359.087 157.393 359.114 157.343 359.179C155.911 361.315 154.283 363.212 152.463 364.952C152.1 365.302 151.732 365.64 151.245 365.909C150.809 366.032 150.468 365.874 150.127 365.728C148.384 364.972 146.626 364.246 144.879 363.493C144.102 363.159 143.979 363.22 144.06 364.057C144.274 366.285 144.171 368.521 144.155 370.752C144.151 371.593 144.523 371.962 145.224 372.246C148.024 373.372 150.786 374.586 153.559 375.765C153.839 375.884 154.133 375.98 154.352 376.287C154.459 376.779 154.222 377.14 154.053 377.512C151.023 384.188 147.99 390.86 145.19 397.635C144.703 398.807 144.799 399.095 145.936 399.636C147.633 400.447 149.357 401.196 151.111 401.876C152.287 402.333 152.597 402.194 153.042 401.015C153.482 399.848 153.957 398.695 154.444 397.547C154.566 397.263 154.643 396.879 155.149 397.013C156.156 398.031 157.018 399.106 157.68 400.324C160.036 404.645 160.266 409.085 158.228 413.571C157.025 416.222 155.03 418.135 152.326 419.268C152.188 419.325 152.027 419.344 151.912 419.529C152 419.702 152.199 419.748 152.36 419.828C152.946 420.128 153.517 420.451 154.003 420.9C155.08 421.899 154.972 423.116 153.743 423.908C153.41 424.123 153.049 424.276 152.674 424.395C152.069 424.587 151.445 424.714 150.813 424.768C146.906 425.102 143.045 424.91 139.264 423.765C137.173 423.132 135.062 422.582 132.936 422.075C130.76 421.561 128.554 421.28 126.336 421.077C125.402 420.992 124.463 420.927 123.475 420.831C123.303 420.55 123.448 420.343 123.552 420.128C125.421 416.318 126.244 412.262 126.547 408.044C126.842 403.934 126.344 399.924 125.409 395.945C124.931 393.917 124.268 391.951 123.207 390.138C122.602 389.104 121.817 388.236 120.939 387.434C119.986 386.566 118.825 386.228 117.58 386.132C116.642 386.059 115.707 386.151 114.773 386.274C113.011 386.504 111.777 387.553 110.762 388.882C109.096 391.063 108.215 393.598 107.614 396.245C107.012 398.895 106.602 401.561 106.518 404.292C106.353 409.592 107.066 414.712 109.28 419.575C109.46 419.97 109.69 420.358 109.602 420.873Z" fill="#00CE4C"/>
<path d="M107.71 306.049C110.525 307.614 111.368 310.471 109.897 313.115C108.94 314.831 107.097 315.826 105.244 315.625C103.504 315.43 102.091 314.067 101.56 312.132C100.53 308.348 104.681 304.738 107.71 306.049Z" fill="#0E0E0E"/>
<path d="M124.093 306.002C127.236 306.298 129.179 308.479 128.991 311.358C128.866 313.227 127.657 314.803 125.937 315.335C124.318 315.828 122.498 315.174 121.217 313.682C118.719 310.76 120.868 306.011 124.093 306.002Z" fill="#0E0E0E"/>
<path d="M106.608 310.408C106.202 309.587 106.328 308.94 107.021 308.437C107.479 308.112 107.987 308.095 108.491 308.363C109.127 308.7 109.425 309.221 109.422 309.895C109.418 310.369 109.237 310.781 108.753 310.978C107.957 311.297 107.286 310.989 106.619 310.408L106.608 310.408Z" fill="white"/>
<path d="M124.81 310.514C124.016 309.873 123.834 309.176 124.283 308.379C124.583 307.859 125.08 307.624 125.708 307.673C126.499 307.734 127.043 308.123 127.36 308.794C127.582 309.266 127.599 309.753 127.211 310.158C126.573 310.816 125.76 310.8 124.821 310.509L124.81 310.514Z" fill="white"/>
<path d="M117.271 373.897H102.322C114.281 380.86 126.549 376.798 131.188 373.897H117.271Z" fill="#00C62E"/>
<path d="M191.162 301.6C191.438 301.319 191.733 301.154 192.077 301.023C192.231 301.262 192.235 301.511 192.284 301.738C193.866 309.339 195.437 316.944 197.03 324.542C197.172 325.21 197.08 325.709 196.693 326.293C194.927 328.955 193.357 331.736 191.748 334.494C184.788 346.412 177.691 358.242 170.467 370.003C169.827 371.048 169.153 372.07 168.467 373.142C168.21 373.349 167.981 373.261 167.758 373.168C165.79 372.362 163.836 371.521 161.883 370.687C161.722 370.618 161.572 370.53 161.446 370.334C161.366 369.892 161.569 369.566 161.714 369.228C164.713 362.302 167.732 355.381 170.746 348.459C173.745 341.58 176.714 334.69 179.713 327.807C183.436 319.26 187.144 310.71 190.879 302.172C190.955 301.988 191.062 301.826 191.162 301.6Z" fill="#CECDCD"/>
<path d="M191.132 301.565C191.365 301.853 191.151 302.107 191.047 302.349C190.036 304.672 189.002 306.988 187.987 309.312C186.907 311.797 185.849 314.29 184.769 316.775C183.758 319.099 182.72 321.411 181.709 323.735C180.629 326.22 179.568 328.713 178.491 331.198C177.656 333.122 176.794 335.035 175.959 336.96C175.186 338.742 174.431 340.535 173.657 342.322C172.96 343.923 172.244 345.521 171.543 347.123C170.781 348.867 170.03 350.61 169.272 352.354C168.594 353.917 167.919 355.481 167.241 357.048C166.406 358.972 165.575 360.9 164.74 362.821C163.947 364.645 163.147 366.466 162.354 368.286C162.082 368.909 161.814 369.527 161.53 370.192C161.266 370.449 161.013 370.33 160.78 370.23C159.041 369.473 157.282 368.763 155.544 368.006C155.321 367.91 155.111 367.795 154.954 367.534C154.862 367.223 154.915 366.961 154.977 366.708C155.505 364.515 156.126 362.348 156.739 360.178C156.827 359.863 156.98 359.567 157.152 359.229C157.194 359.157 157.206 359.126 157.229 359.064C157.777 357.528 158.167 355.98 158.615 354.451C159.351 351.959 160.071 349.458 160.791 346.961C160.925 346.5 161.029 346.032 161.151 345.513C161.638 344.169 161.959 342.829 162.358 341.511C164.679 333.825 167 326.139 169.318 318.454C169.678 317.259 170.03 316.065 170.34 314.855C170.455 314.413 170.693 314.144 171.064 313.914C174.826 311.605 178.579 309.285 182.341 306.973C185.168 305.233 187.998 303.501 190.829 301.761C190.917 301.711 190.997 301.642 191.132 301.565Z" fill="#F3F3F3"/>
<path d="M109.633 420.927C109.426 420.532 109.308 420.129 109.128 419.756C107.607 416.579 106.829 413.203 106.462 409.719C105.906 404.469 106.442 399.318 107.917 394.263C108.503 392.255 109.331 390.357 110.618 388.682C111.169 387.964 111.843 387.38 112.552 386.827C112.793 386.639 113.065 386.493 113.36 386.401C115.103 385.871 116.873 385.721 118.669 386.059C120.316 386.366 121.477 387.411 122.476 388.671C123.687 390.203 124.48 391.955 125.047 393.806C126.617 398.953 127.207 404.204 126.655 409.57C126.353 412.523 125.767 415.408 124.664 418.173C124.315 419.045 123.955 419.913 123.438 420.758C122.752 420.762 122.074 420.732 121.4 420.674C118.301 420.417 115.203 420.47 112.108 420.747C111.303 420.828 110.499 420.877 109.633 420.927Z" fill="#DBFF9E"/>
<path d="M154.948 367.437C155.297 367.702 155.676 367.821 156.036 367.975C157.825 368.735 159.617 369.484 161.456 370.237C162.184 370.633 162.923 370.886 163.643 371.19C165.206 371.85 166.773 372.496 168.389 373.16C169.557 373.767 170.748 374.193 171.909 374.693C174.215 375.68 176.528 376.648 178.838 377.627C179.014 377.7 179.217 377.743 179.332 377.927C179.313 378.134 179.133 378.2 178.999 378.307C178.172 378.949 177.348 379.594 176.509 380.224C175.322 381.119 174.249 382.144 173.127 383.112C172.192 383.919 172.212 383.923 171.093 383.45C168.32 382.275 165.543 381.115 162.77 379.947C162.567 379.863 162.364 379.782 162.092 379.771C161.812 379.794 161.609 379.717 161.406 379.628C159.238 378.699 157.059 377.796 154.891 376.867C154.692 376.782 154.481 376.709 154.32 376.475C154.144 376.225 153.902 376.16 153.684 376.068C150.731 374.816 147.774 373.567 144.817 372.319C144.694 372.269 144.575 372.212 144.457 372.165C144.081 372.023 143.936 371.758 143.94 371.355C143.947 370.064 143.932 368.774 143.913 367.483C143.898 366.216 143.867 364.948 143.84 363.681C143.836 363.527 143.829 363.373 143.84 363.22C143.863 362.874 143.905 362.836 144.246 362.978C145.353 363.439 146.456 363.915 147.559 364.387C148.525 364.798 149.486 365.213 150.447 365.624C150.689 365.728 150.93 365.839 151.259 365.789C152.535 366.3 153.784 366.73 154.948 367.437Z" fill="#3F291E"/>
<path d="M154.275 376.476C155.221 376.687 156.064 377.144 156.945 377.501C158.588 378.173 160.22 378.88 161.856 379.575C161.913 379.598 161.959 379.648 162.024 379.725C161.683 380.912 161.162 381.995 160.707 383.101C159.423 386.205 158.117 389.297 156.823 392.396C156.309 393.622 155.8 394.851 155.298 396.084C155.187 396.353 154.976 396.625 155.175 396.994C154.842 396.963 154.789 397.232 154.701 397.451C154.18 398.749 153.662 400.051 153.145 401.35C153.08 401.511 153.03 401.684 152.946 401.834C152.701 402.272 152.349 402.425 151.847 402.333C151.372 402.245 150.928 402.06 150.483 401.872C148.832 401.177 147.181 400.482 145.561 399.717C145.343 399.614 145.128 399.51 144.956 399.337C144.692 399.068 144.565 398.761 144.68 398.385C144.745 398.177 144.807 397.966 144.891 397.766C147.319 391.882 149.928 386.078 152.555 380.282C153.126 379.03 153.689 377.77 154.275 376.476Z" fill="#9F613E"/>
<path d="M118.534 321.18C119.32 321.157 120.028 321.273 120.741 321.392C121.764 321.561 122.357 322.417 122.311 323.389C122.204 325.74 121.817 328.04 120.879 330.222C120.454 331.213 119.917 332.135 119.136 332.895C117.531 334.455 115.52 334.405 113.999 332.757C113.386 332.089 112.946 331.309 112.609 330.472C111.797 328.451 111.506 326.335 111.521 324.176C111.525 323.462 111.782 322.824 112.494 322.456C112.942 322.221 113.402 322.025 113.888 321.903C115.397 321.522 116.914 321.234 118.534 321.18Z" fill="#FF5D5D"/>
<path d="M102.967 309.124C102.982 307.473 103.675 306.259 105.024 305.422C106.483 304.515 108.199 304.88 109.168 306.297C110.601 308.387 109.609 311.483 107.226 312.335C105.545 312.938 103.756 311.997 103.197 310.2C103.093 309.869 103.043 309.52 102.967 309.124Z" fill="#070D07"/>
<path d="M157.224 359.029C157.227 359.033 157.246 359.026 157.242 359.022C157.239 359.018 157.224 359.022 157.224 359.029Z" fill="#FB2812"/>
<path d="M106.717 308.352C106.552 308.098 106.533 307.864 106.545 307.618C106.575 307.015 106.951 306.527 107.472 306.412C107.996 306.293 108.567 306.558 108.847 307.069C109.019 307.38 109.092 307.722 109.031 308.079C108.916 308.759 108.425 309.105 107.755 308.955C107.368 308.866 107.02 308.694 106.717 308.352Z" fill="#E8E7E6"/>
<path d="M91.6181 383.994C73.2674 377.553 62.8177 365.72 59.8867 360.609L88.9419 355.241C97.4801 367.509 109.969 390.434 91.6181 383.994Z" fill="#00CE4C"/>
<path d="M155.693 399.963C155.486 399.934 155.342 399.898 155.195 399.869C153.162 399.452 151.861 398.132 151.723 396.379C151.641 395.358 151.906 394.392 152.202 393.428C153.323 389.788 154.843 386.293 157.1 383.063C157.831 382.015 158.654 381.025 159.714 380.191C160.143 379.852 160.617 379.564 161.153 379.356C162.145 378.975 163.154 378.983 164.184 379.367C164.625 379.531 165.014 379.772 165.458 380.008C168.504 382.323 169.305 385.251 169.193 388.423C169.164 389.277 169.039 390.128 168.807 390.96C167.983 393.903 166.183 396.266 163.183 397.932C161.933 398.625 160.651 399.258 159.204 399.643C158.089 399.938 156.946 400.083 155.693 399.963Z" fill="#00CE4C"/>
<path d="M94.1942 304.107C94.1306 304.07 94.1003 304.054 94.0731 304.033C93.6824 303.758 93.6794 303.733 94.0528 303.45C95.3463 302.471 96.6397 301.495 97.9362 300.516C98.2429 300.286 98.5556 300.062 98.8532 299.82C99.0536 299.655 99.2204 299.621 99.4567 299.764C101.486 301.017 103.522 302.258 105.551 303.504C105.936 303.742 105.93 303.751 105.708 304.162C104.85 305.765 103.992 307.368 103.134 308.967C103.092 309.045 103.046 309.12 103.009 309.201C102.906 309.444 102.754 309.446 102.554 309.318C101.909 308.906 101.258 308.5 100.61 308.097C98.4804 306.779 96.3539 305.454 94.1942 304.107Z" fill="#060605"/>
<path d="M65.791 354.374C61.1239 349.26 57.5163 343.528 55.9028 336.628C53.9884 328.443 54.7692 320.541 58.3179 312.946C58.4884 312.579 58.4949 312.329 58.262 311.983C57.7448 311.216 57.6371 310.343 57.7904 309.384C57.7005 308.752 58.0044 308.338 58.4115 307.943C58.542 307.853 58.6452 307.788 58.7303 307.7C59.5291 306.907 60.4879 306.585 61.5762 306.746C61.943 306.799 62.1403 306.688 62.3591 306.411C66.5347 301.1 71.784 297.343 78.0224 295.039C82.1763 293.507 86.4713 292.792 90.8802 292.843C94.5796 292.884 98.2022 293.463 101.772 294.625C101.92 294.978 101.65 295.083 101.468 295.217C99.707 296.5 97.9521 297.79 96.1912 299.074C92.8241 301.526 89.4601 303.981 86.087 306.424C81.4174 309.808 76.7751 313.236 72.1328 316.658C71.8839 316.842 71.6925 317.053 71.607 317.399C71.5641 317.633 71.5243 317.832 71.4906 318.065C71.4661 318.196 71.4144 318.283 71.4051 318.414C71.4019 318.517 71.3987 318.589 71.3804 318.688C71.3589 318.807 71.3436 318.894 71.3495 319.012C71.3492 319.159 71.3187 319.265 71.276 319.405C71.2455 319.498 71.2121 319.557 71.1967 319.657C71.1905 319.76 71.1783 319.825 71.1599 319.928C71.1324 320.049 71.0868 320.133 71.0896 320.261C71.0954 320.389 71.0831 320.479 71.0678 320.604C71.0494 320.725 71.034 320.809 71.046 320.934C71.0519 321.034 71.0426 321.102 71.0212 321.199C70.9725 321.326 70.9026 321.413 70.9296 321.563C70.9324 321.712 70.9019 321.821 70.8592 321.962C70.8196 322.077 70.774 322.155 70.7707 322.279C70.7706 322.379 70.7614 322.444 70.746 322.541C70.7276 322.659 70.7154 322.743 70.7182 322.865C70.7179 323.011 70.6844 323.12 70.6417 323.263C70.5808 323.397 70.5533 323.503 70.5591 323.653C70.559 323.752 70.5528 323.821 70.5375 323.921C70.5191 324.039 70.5037 324.126 70.5066 324.248C70.5063 324.397 70.4728 324.506 70.4301 324.646C70.3874 324.765 70.3448 324.845 70.3476 324.976C70.3505 325.082 70.3382 325.154 70.3198 325.26C70.2771 325.409 70.2345 325.521 70.2433 325.677C70.2431 325.783 70.24 325.855 70.2216 325.961C70.191 326.104 70.1484 326.21 70.1967 326.359C70.2086 326.462 70.2024 326.531 70.181 326.633C70.1353 326.764 70.0594 326.854 70.0985 327.007C70.1074 327.107 70.1013 327.175 70.0768 327.275C70.0311 327.406 69.9552 327.493 69.9822 327.646C69.985 327.795 69.9544 327.907 69.9117 328.047C69.8691 328.162 69.8235 328.243 69.8233 328.371C69.8231 328.474 69.8139 328.539 69.7955 328.639C69.7619 328.779 69.7284 328.885 69.7645 329.028C69.7733 329.181 69.7428 329.293 69.7001 329.436C69.6575 329.555 69.6118 329.639 69.6146 329.77C69.6175 329.879 69.6052 329.947 69.5869 330.053C69.5442 330.202 69.5015 330.315 69.5073 330.47C69.5071 330.576 69.504 330.648 69.4856 330.751C69.455 330.894 69.4094 331 69.4485 331.149C69.4574 331.302 69.4268 331.414 69.3841 331.56C69.3415 331.679 69.2959 331.763 69.2987 331.894C69.2985 332 69.2893 332.071 69.2709 332.177C69.2403 332.305 69.1947 332.392 69.1975 332.529C69.2094 332.666 69.1941 332.766 69.1726 332.9C69.1451 333.034 69.0964 333.121 69.0931 333.261C69.096 333.373 69.0868 333.448 69.0684 333.56C69.0226 333.713 68.98 333.828 68.9857 333.993C68.9886 334.105 68.9824 334.18 68.964 334.289C68.9365 334.42 68.8878 334.507 68.8846 334.644C68.8874 334.753 68.8782 334.824 68.8598 334.93C68.811 335.095 68.7653 335.229 68.8347 335.401C68.8497 335.507 68.8466 335.575 68.8252 335.678C68.7825 335.815 68.7005 335.902 68.7305 336.058C68.7333 336.21 68.7028 336.323 68.657 336.466C68.6144 336.584 68.5687 336.665 68.5685 336.799C68.5683 336.905 68.5591 336.977 68.5407 337.082C68.5132 337.21 68.4646 337.294 68.4674 337.428C68.4762 337.559 68.4639 337.656 68.4455 337.783C68.418 337.93 68.3723 338.039 68.4206 338.188C68.4325 338.294 68.4263 338.366 68.4019 338.469C68.3349 338.624 68.2438 338.733 68.3041 338.92C68.31 339.001 68.3039 339.048 68.2855 339.129C68.1882 339.303 68.1334 339.449 68.1451 339.655C68.142 339.739 68.1388 339.786 68.1235 339.87C68.0748 340.019 68.0382 340.135 68.047 340.293C68.0498 340.406 68.0437 340.477 68.0253 340.589C67.9947 340.72 67.9491 340.807 67.9458 340.944C67.9547 341.078 67.9424 341.172 67.924 341.303C67.8934 341.449 67.8508 341.558 67.899 341.711C67.911 341.817 67.9048 341.888 67.8803 341.991C67.8103 342.147 67.7192 342.259 67.734 342.443C67.7369 342.552 67.7276 342.62 67.7093 342.729C67.6787 342.86 67.6331 342.947 67.6328 343.084C67.6447 343.221 67.6294 343.321 67.6079 343.455C67.5804 343.589 67.5317 343.676 67.5254 343.813C67.5283 343.925 67.5191 343.997 67.4976 344.109C67.4671 344.24 67.4184 344.327 67.4182 344.464C67.421 344.576 67.4118 344.651 67.3934 344.76C67.3477 344.912 67.305 345.027 67.3138 345.193C67.3167 345.305 67.3105 345.38 67.2921 345.492C67.2615 345.626 67.2129 345.713 67.2126 345.853C67.2245 345.99 67.2092 346.09 67.1877 346.227C67.1602 346.361 67.1085 346.451 67.1052 346.588C67.1081 346.7 67.0989 346.775 67.0805 346.887C67.0347 347.04 66.9921 347.155 66.9978 347.32C67.0007 347.432 66.9945 347.507 66.9761 347.616C66.9486 347.747 66.8969 347.834 66.8967 347.971C66.8995 348.08 66.8903 348.155 66.8689 348.264C66.8414 348.391 66.7927 348.478 66.7894 348.612C66.7923 348.721 66.783 348.793 66.7647 348.899C66.7128 349.067 66.6732 349.198 66.7426 349.372C66.7576 349.478 66.7514 349.55 66.73 349.656C66.6661 349.812 66.5658 349.917 66.5807 350.104C66.5835 350.207 66.5743 350.276 66.5559 350.378C66.5223 350.522 66.4888 350.627 66.534 350.774C66.546 350.88 66.5398 350.948 66.5153 351.051C66.4453 351.207 66.3542 351.316 66.369 351.5C66.3719 351.605 66.3627 351.677 66.3443 351.783C66.3168 351.911 66.2681 351.998 66.2679 352.132C66.2707 352.241 66.2615 352.316 66.2401 352.425C66.2095 352.555 66.1609 352.642 66.1637 352.78C66.1665 352.892 66.1573 352.966 66.1389 353.075C66.0931 353.228 66.0505 353.346 66.0593 353.511C66.0621 353.627 66.0559 353.701 66.0345 353.814C65.9827 353.972 65.9461 354.094 65.8943 354.253C65.8608 354.315 65.8426 354.337 65.791 354.374Z" fill="#CECDCD"/>
<path d="M71.4885 317.432C71.4498 317.042 71.6382 316.793 71.9084 316.61C73.6115 315.46 75.2057 314.158 76.8755 312.958C78.5302 311.768 80.1607 310.546 81.8062 309.343C83.9558 307.768 86.1085 306.195 88.2641 304.629C89.7275 303.563 91.2 302.506 92.6634 301.44C95.1561 299.625 97.6427 297.801 100.132 295.982C100.57 295.665 101.013 295.355 101.45 295.041C101.574 294.951 101.732 294.895 101.796 294.686C102.033 294.606 102.23 294.506 102.415 294.366C102.722 294.136 103.044 293.925 103.354 293.701C103.533 293.571 103.724 293.528 103.942 293.556C106.816 293.925 109.422 294.98 111.73 296.794C112.238 297.193 112.292 297.465 112.037 298.068C111.863 298.473 111.611 298.843 111.507 299.323C111.509 299.61 111.388 299.809 111.281 300.008C109.669 303.064 108.038 306.115 106.387 309.149C104.087 313.379 101.763 317.593 99.4813 321.832C97.9025 324.767 96.2873 327.683 94.7115 330.619C94.529 330.958 94.3313 331.297 94.0033 331.571C93.6516 331.598 93.4123 331.398 93.167 331.242C90.038 329.258 86.906 327.281 83.7771 325.297C80.4876 323.207 77.2011 321.118 73.9146 319.025C73.112 318.509 72.3184 317.975 71.4885 317.432Z" fill="#939393"/>
<path d="M71.4517 317.442C71.6611 317.383 71.8247 317.442 71.9974 317.555C74.3751 319.092 76.7528 320.629 79.1396 322.15C81.2054 323.465 83.2833 324.758 85.3491 326.07C87.3119 327.317 89.2686 328.579 91.2314 329.828C92.1098 330.387 92.9943 330.934 93.9091 331.503C94.1149 331.752 93.9387 331.923 93.8292 332.088C90.859 336.513 87.9343 340.972 84.9762 345.406C84.128 346.679 83.2889 347.961 82.4467 349.24C79.823 353.223 77.1962 357.2 74.4937 361.127C74.3934 361.27 74.3082 361.429 74.12 361.534C73.7284 361.814 73.5003 362.2 73.2571 362.558C72.8892 363.099 72.495 363.099 72.0558 362.861C70.8621 362.223 69.7019 361.527 68.6816 360.615C67.5311 359.588 66.5659 358.39 65.6887 357.112C65.5586 356.921 65.556 356.713 65.5806 356.501C65.636 356.027 65.7035 355.554 65.765 355.081C65.7926 354.869 65.8354 354.66 65.7601 354.42C65.7692 354.37 65.7784 354.355 65.8118 354.32C65.909 354.19 65.9002 354.056 65.9217 353.897C65.934 353.791 65.9432 353.716 65.9586 353.604C66.0104 353.442 66.0015 353.311 66.0291 353.153C66.0444 353.047 66.0506 352.972 66.066 352.86C66.0995 352.732 66.1118 352.642 66.1302 352.514C66.1426 352.405 66.1488 352.33 66.1641 352.218C66.2037 352.094 66.2191 352 66.2314 351.873C66.2437 351.764 66.2499 351.689 66.2653 351.577C66.3353 351.409 66.3113 351.259 66.3632 351.088C66.3785 350.982 66.3877 350.913 66.4 350.807C66.4245 350.689 66.4277 350.602 66.44 350.483C66.4523 350.378 66.4585 350.303 66.4739 350.191C66.5439 350.023 66.5199 349.873 66.5717 349.702C66.5901 349.596 66.5993 349.527 66.6116 349.421C66.6422 349.269 66.6333 349.15 66.6609 348.998C66.6762 348.889 66.6794 348.814 66.6978 348.702C66.7344 348.577 66.7467 348.484 66.7621 348.356C66.7744 348.247 66.7806 348.173 66.799 348.06C66.8386 347.936 66.8509 347.842 66.8632 347.715C66.8725 347.606 66.8787 347.531 66.8941 347.419C66.9611 347.26 66.9552 347.129 66.9737 346.967C66.986 346.861 66.9922 346.787 67.0075 346.674C67.0472 346.55 67.0625 346.456 67.0718 346.329C67.0872 346.185 67.0965 346.08 67.118 345.93C67.1546 345.802 67.1669 345.709 67.1823 345.581C67.1946 345.472 67.2008 345.397 67.2161 345.285C67.2771 345.127 67.2682 344.993 67.2927 344.834C67.305 344.728 67.3143 344.653 67.3296 344.541C67.3662 344.416 67.3785 344.323 67.3909 344.195C67.4032 344.086 67.4094 344.012 67.4247 343.899C67.4674 343.775 67.4827 343.685 67.492 343.554C67.5074 343.41 67.5167 343.305 67.5382 343.155C67.5778 343.027 67.5901 342.934 67.6025 342.806C67.6148 342.697 67.621 342.622 67.6363 342.51C67.7064 342.342 67.6793 342.193 67.7372 342.025C67.7556 341.919 67.7648 341.85 67.7772 341.741C67.7986 341.623 67.8018 341.536 67.8141 341.417C67.8295 341.277 67.8388 341.168 67.8603 341.022C67.8969 340.894 67.9061 340.801 67.9245 340.673C67.9369 340.564 67.9431 340.489 67.9584 340.377C68.0163 340.218 68.0105 340.084 68.035 339.925C68.0473 339.851 68.0504 339.807 68.0596 339.732C68.1479 339.536 68.0936 339.349 68.1667 339.147C68.182 339.072 68.1882 339.031 68.1943 338.963C68.231 338.807 68.213 338.67 68.2649 338.508C68.2832 338.399 68.2925 338.328 68.3048 338.222C68.3262 338.103 68.3264 338.016 68.3417 337.898C68.3571 337.758 68.3664 337.649 68.3879 337.502C68.4245 337.375 68.4338 337.281 68.4522 337.153C68.4645 337.044 68.4707 336.97 68.486 336.858C68.5257 336.733 68.538 336.64 68.5503 336.512C68.5748 336.359 68.5963 336.241 68.6208 336.085C68.6422 335.954 68.6424 335.855 68.6821 335.727C68.7004 335.621 68.7096 335.549 68.722 335.447C68.7556 335.294 68.7467 335.176 68.7682 335.023C68.7835 334.914 68.7897 334.839 68.8051 334.727C68.8417 334.603 68.854 334.509 68.8633 334.381C68.8756 334.272 68.8818 334.198 68.8971 334.086C68.9581 333.927 68.9522 333.796 68.9737 333.634C68.986 333.528 68.9922 333.453 69.0076 333.341C69.0472 333.217 69.0595 333.123 69.0719 332.996C69.0873 332.852 69.0965 332.746 69.118 332.597C69.1546 332.469 69.1639 332.376 69.1823 332.248C69.1946 332.139 69.2008 332.064 69.2162 331.952C69.2558 331.828 69.2711 331.734 69.2805 331.606C69.305 331.454 69.3264 331.336 69.3509 331.18C69.3724 331.058 69.3725 330.974 69.3879 330.856C69.4002 330.75 69.4064 330.675 69.4217 330.563C69.4827 330.404 69.4768 330.273 69.5014 330.111C69.5167 330.006 69.5229 329.931 69.5413 329.819C69.5779 329.694 69.5871 329.601 69.5995 329.473C69.627 329.32 69.6454 329.202 69.673 329.046C69.6914 328.925 69.6915 328.841 69.7099 328.726C69.7222 328.62 69.7315 328.545 69.7468 328.433C69.7834 328.308 69.7957 328.215 69.8081 328.087C69.8356 327.934 69.854 327.816 69.8816 327.66C69.9 327.53 69.9002 327.43 69.9428 327.302C69.9612 327.196 69.9704 327.125 69.9828 327.019C70.0042 326.888 70.0074 326.788 70.044 326.661C70.0624 326.555 70.0716 326.483 70.0839 326.38C70.1084 326.262 70.1116 326.175 70.1209 326.056C70.1301 325.951 70.1363 325.876 70.1517 325.764C70.2187 325.605 70.2128 325.474 70.2313 325.312C70.2436 325.206 70.2498 325.131 70.2652 325.019C70.3048 324.895 70.3201 324.801 70.3325 324.674C70.357 324.521 70.3784 324.403 70.403 324.247C70.4152 324.163 70.4214 324.116 70.4306 324.032C70.4429 323.92 70.4491 323.845 70.4645 323.733C70.5315 323.574 70.5256 323.443 70.5441 323.281C70.5717 323.132 70.5901 323.01 70.6176 322.858C70.6269 322.774 70.633 322.727 70.6453 322.646C70.6576 322.537 70.6668 322.462 70.6822 322.35C70.7218 322.226 70.7371 322.135 70.7464 322.004C70.771 321.852 70.7954 321.734 70.823 321.578C70.8414 321.447 70.8416 321.347 70.8842 321.22C70.9026 321.114 70.9118 321.042 70.9242 320.936C70.9364 320.852 70.9426 320.805 70.9518 320.724C70.9672 320.581 70.9795 320.472 71.001 320.326C71.0376 320.198 71.0499 320.105 71.0653 319.977C71.0806 319.868 71.0899 319.793 71.1052 319.681C71.1266 319.585 71.1449 319.528 71.1602 319.438C71.1847 319.289 71.2062 319.17 71.2337 319.018C71.249 318.934 71.2552 318.887 71.2644 318.806C71.2767 318.697 71.286 318.622 71.3013 318.51C71.344 318.385 71.3623 318.295 71.3716 318.167C71.3963 317.928 71.4179 317.703 71.4517 317.442Z" fill="#5B5B5B"/>
<path d="M58.4157 307.908C58.239 308.378 57.9533 308.789 57.8129 309.309C56.5051 309.839 55.3394 310.573 54.2403 311.409C50.3052 314.411 47.6179 318.323 46.2814 323.177C45.5033 326.004 45.4408 328.855 46.2606 331.697C46.3119 331.875 46.3934 332.059 46.296 332.308C46.0628 332.136 45.8933 331.949 45.7329 331.746C44.5832 330.274 44.01 328.56 43.7615 326.718C43.513 324.886 43.6313 323.067 44.0195 321.264C44.0501 321.117 44.1353 320.971 44.0295 320.793C43.8595 320.88 43.7713 321.036 43.677 321.176C41.7983 323.942 40.4043 326.94 39.6557 330.237C39.063 332.856 38.9219 335.504 39.1326 338.181C39.2217 339.308 39.2682 340.436 39.3388 341.698C39.027 341.402 38.8789 341.14 38.749 340.859C37.6492 338.521 36.9105 336.074 36.5663 333.497C36.0902 329.97 36.363 326.515 37.4483 323.131C38.0215 321.35 38.8158 319.678 39.807 318.104C39.9013 317.954 39.9774 317.795 40.0565 317.605C40.0505 317.568 40.0809 317.528 40.0597 317.54C39.902 317.546 39.82 317.646 39.7258 317.72C35.3867 321.189 31.9589 325.426 29.5152 330.497C27.7958 334.067 26.8311 337.832 26.8242 341.832C26.8241 341.919 26.8148 342.01 26.8056 342.097C26.8056 342.106 26.7843 342.116 26.7722 342.131C26.6297 342.09 26.6269 341.95 26.5847 341.844C25.6729 339.54 25.1251 337.147 24.9596 334.664C24.5872 329.04 25.9091 323.84 28.7223 319.038C31.4747 314.335 35.2561 310.756 40.0815 308.384C43.7568 306.577 47.6335 305.777 51.7023 306.083C54.0338 306.262 56.2737 306.83 58.4157 307.908Z" fill="#F7D463"/>
<path d="M74.1145 361.568C74.1454 361.235 74.3611 361.017 74.5313 360.775C76.3279 358.189 78.0638 355.563 79.8028 352.936C82.1925 349.327 84.573 345.714 86.9656 342.104C89.0634 338.937 91.1702 335.775 93.271 332.607C93.493 332.271 93.7603 331.963 93.9339 331.552C95.0437 329.819 95.9171 327.989 96.8966 326.215C98.2076 323.837 99.4974 321.45 100.796 319.066C101.897 317.036 102.993 315.001 104.097 312.975C105.353 310.668 106.625 308.368 107.872 306.059C108.818 304.307 109.737 302.536 110.677 300.78C110.926 300.316 111.139 299.828 111.474 299.377C112.443 299.979 113.333 300.682 114.227 301.378C114.684 301.734 114.729 301.878 114.413 302.388C113.838 303.318 113.251 304.24 112.658 305.158C111.366 307.155 110.153 309.203 108.915 311.235C104.18 319.006 99.4518 326.777 94.7202 334.551C90.4385 341.584 86.163 348.623 81.8632 355.644C80.6377 357.642 79.3335 359.59 77.893 361.438C77.6438 361.755 77.4279 362.101 77.209 362.44C76.9232 362.882 76.7138 362.956 76.2594 362.731C75.5413 362.384 74.8233 362.031 74.1145 361.568Z" fill="#CECDCD"/>
<path d="M68.1373 339.14C68.2098 339.306 68.2489 339.493 68.0848 339.685C68.0032 339.52 67.9823 339.333 68.1373 339.14Z" fill="#868280"/>
<path d="M68.7353 335.017C68.8563 335.123 68.85 335.251 68.7377 335.4C68.6229 335.294 68.6291 335.166 68.7353 335.017Z" fill="#868280"/>
<path d="M68.9411 333.637C69.0711 333.753 69.0648 333.893 68.9223 334.039C68.8438 333.924 68.841 333.793 68.9411 333.637Z" fill="#868280"/>
<path d="M66.6388 348.982C66.7567 349.088 66.7534 349.216 66.6412 349.365C66.5263 349.259 66.5296 349.131 66.6388 348.982Z" fill="#868280"/>
<path d="M69.468 330.117C69.595 330.236 69.5917 330.373 69.4462 330.523C69.3707 330.404 69.3648 330.273 69.468 330.117Z" fill="#868280"/>
<path d="M70.199 325.321C70.332 325.44 70.3287 325.577 70.1771 325.723C70.1077 325.608 70.0988 325.474 70.199 325.321Z" fill="#868280"/>
<path d="M70.5148 323.298C70.6448 323.416 70.6445 323.554 70.4929 323.7C70.4174 323.581 70.4146 323.45 70.5148 323.298Z" fill="#868280"/>
<path d="M66.5549 349.694C66.6394 349.825 66.6634 349.974 66.5148 350.132C66.4272 350.001 66.4244 349.855 66.5549 349.694Z" fill="#868280"/>
<path d="M66.3461 351.078C66.4307 351.209 66.4516 351.358 66.306 351.517C66.2155 351.386 66.2157 351.24 66.3461 351.078Z" fill="#868280"/>
<path d="M66.0082 353.147C66.1352 353.262 66.1258 353.399 65.9924 353.552C65.9108 353.436 65.905 353.302 66.0082 353.147Z" fill="#868280"/>
<path d="M65.9017 353.89C66.0286 354.012 66.0314 354.152 65.8677 354.289C65.8013 354.171 65.8015 354.04 65.9017 353.89Z" fill="#868280"/>
<path d="M66.9464 346.964C67.0794 347.083 67.0732 347.22 66.9246 347.366C66.8491 347.247 66.8463 347.117 66.9464 346.964Z" fill="#868280"/>
<path d="M67.2622 344.83C67.3922 344.949 67.3859 345.086 67.2434 345.235C67.1679 345.117 67.1621 344.986 67.2622 344.83Z" fill="#868280"/>
<path d="M67.7109 342.02C67.7925 342.151 67.8134 342.3 67.6678 342.458C67.5802 342.328 67.5775 342.178 67.7109 342.02Z" fill="#868280"/>
<path d="M68.2383 338.495C68.3138 338.614 68.3257 338.751 68.2164 338.913C68.0895 338.791 68.1049 338.648 68.2383 338.495Z" fill="#868280"/>
<path d="M67.9979 339.929C68.1279 340.044 68.1216 340.184 67.979 340.334C67.9005 340.215 67.8947 340.084 67.9979 339.929Z" fill="#868280"/>
<path d="M67.7849 341.41C67.8938 341.482 67.8997 341.575 67.7966 341.694C67.6938 341.619 67.6939 341.525 67.7849 341.41Z" fill="#868280"/>
<path d="M70.7163 322.014C70.8433 322.095 70.831 322.201 70.7067 322.316C70.6372 322.232 70.6313 322.135 70.7163 322.014Z" fill="#868280"/>
<path d="M70.8601 321.223C70.9296 321.308 70.9385 321.411 70.8475 321.535C70.7266 321.451 70.7449 321.342 70.8601 321.223Z" fill="#868280"/>
<path d="M71.0397 319.989C71.1637 320.074 71.1484 320.177 71.0301 320.292C70.9576 320.208 70.9547 320.111 71.0397 319.989Z" fill="#868280"/>
<path d="M71.3474 318.177C71.4744 318.262 71.4621 318.368 71.3317 318.48C71.2622 318.392 71.2624 318.296 71.3474 318.177Z" fill="#868280"/>
<path d="M67.5723 342.802C67.6993 342.884 67.684 342.99 67.5658 343.105C67.4933 343.024 67.4874 342.924 67.5723 342.802Z" fill="#868280"/>
<path d="M66.4195 350.472C66.5314 350.543 66.5373 350.637 66.4311 350.755C66.3283 350.683 66.3315 350.587 66.4195 350.472Z" fill="#868280"/>
<path d="M67.4613 343.549C67.5913 343.633 67.582 343.736 67.4517 343.851C67.3822 343.77 67.3793 343.67 67.4613 343.549Z" fill="#868280"/>
<path d="M66.2075 351.863C66.3345 351.947 66.3222 352.05 66.1979 352.165C66.1284 352.084 66.1225 351.984 66.2075 351.863Z" fill="#868280"/>
<path d="M66.1094 352.505C66.2303 352.589 66.218 352.692 66.0998 352.807C66.0242 352.726 66.0214 352.626 66.1094 352.505Z" fill="#868280"/>
<path d="M67.3634 344.189C67.4873 344.27 67.4781 344.373 67.3568 344.491C67.2843 344.41 67.2784 344.313 67.3634 344.189Z" fill="#868280"/>
<path d="M67.1549 345.575C67.2789 345.656 67.2696 345.762 67.1483 345.877C67.0667 345.796 67.0699 345.696 67.1549 345.575Z" fill="#868280"/>
<path d="M67.0462 346.322C67.1763 346.404 67.164 346.509 67.0366 346.625C66.9671 346.54 66.9643 346.444 67.0462 346.322Z" fill="#868280"/>
<path d="M66.8381 347.709C66.9651 347.79 66.9559 347.896 66.8316 348.011C66.759 347.927 66.7501 347.83 66.8381 347.709Z" fill="#868280"/>
<path d="M66.7382 348.347C66.8622 348.431 66.8469 348.534 66.7286 348.649C66.6561 348.568 66.6472 348.468 66.7382 348.347Z" fill="#868280"/>
<path d="M68.309 337.891C68.4179 337.963 68.4208 338.056 68.3207 338.175C68.2209 338.1 68.221 338.006 68.309 337.891Z" fill="#868280"/>
<path d="M69.0418 332.996C69.1688 333.077 69.1565 333.183 69.0322 333.298C68.9597 333.214 68.9538 333.117 69.0418 332.996Z" fill="#868280"/>
<path d="M69.1492 332.248C69.2702 332.332 69.2579 332.435 69.1396 332.55C69.0671 332.469 69.0612 332.369 69.1492 332.248Z" fill="#868280"/>
<path d="M69.2466 331.61C69.3736 331.692 69.3643 331.798 69.237 331.913C69.1675 331.828 69.1616 331.732 69.2466 331.61Z" fill="#868280"/>
<path d="M69.3584 330.855C69.4672 330.927 69.4701 331.021 69.373 331.136C69.2733 331.067 69.2704 330.97 69.3584 330.855Z" fill="#868280"/>
<path d="M69.5671 329.477C69.6911 329.558 69.6818 329.661 69.5635 329.779C69.488 329.698 69.4821 329.601 69.5671 329.477Z" fill="#868280"/>
<path d="M69.6808 328.722C69.7866 328.794 69.7864 328.887 69.6924 329.002C69.5865 328.934 69.5867 328.84 69.6808 328.722Z" fill="#868280"/>
<path d="M69.7787 328.09C69.9027 328.171 69.8904 328.274 69.7721 328.392C69.6966 328.311 69.6907 328.214 69.7787 328.09Z" fill="#868280"/>
<path d="M69.916 327.3C69.9855 327.384 69.9944 327.487 69.9034 327.611C69.7794 327.527 69.8008 327.421 69.916 327.3Z" fill="#868280"/>
<path d="M70.018 326.657C70.0905 326.742 70.0964 326.845 70.0023 326.972C69.8814 326.885 69.9058 326.779 70.018 326.657Z" fill="#868280"/>
<path d="M68.8304 334.382C68.9574 334.463 68.9482 334.566 68.8269 334.684C68.7544 334.603 68.7485 334.503 68.8304 334.382Z" fill="#868280"/>
<path d="M70.088 326.06C70.1999 326.132 70.2058 326.225 70.0996 326.343C70.0029 326.268 70.0031 326.175 70.088 326.06Z" fill="#868280"/>
<path d="M68.416 337.153C68.5369 337.237 68.5246 337.34 68.4064 337.455C68.3339 337.374 68.3249 337.274 68.416 337.153Z" fill="#868280"/>
<path d="M67.891 340.673C68.012 340.754 68.0027 340.86 67.8844 340.975C67.8089 340.891 67.803 340.794 67.891 340.673Z" fill="#868280"/>
<path d="M70.2997 324.678C70.4237 324.763 70.4144 324.866 70.2871 324.981C70.2206 324.897 70.2147 324.8 70.2997 324.678Z" fill="#868280"/>
<path d="M68.6525 335.721C68.725 335.805 68.7339 335.908 68.6429 336.036C68.5189 335.948 68.5433 335.842 68.6525 335.721Z" fill="#868280"/>
<path d="M68.5141 336.512C68.6381 336.593 68.6288 336.699 68.5045 336.814C68.435 336.733 68.4292 336.636 68.5141 336.512Z" fill="#868280"/>
<path d="M70.4052 324.028C70.4901 324.069 70.5021 324.131 70.4231 324.213C70.3382 324.169 70.3323 324.109 70.4052 324.028Z" fill="#868280"/>
<path d="M70.6193 322.642C70.7042 322.683 70.7162 322.745 70.6372 322.827C70.5553 322.786 70.5433 322.723 70.6193 322.642Z" fill="#868280"/>
<path d="M70.929 320.724C71.0138 320.765 71.0228 320.828 70.9438 320.909C70.862 320.865 70.856 320.802 70.929 320.724Z" fill="#868280"/>
<path d="M71.1374 319.45C71.2468 319.5 71.2284 319.572 71.134 319.654C71.0762 319.603 71.0733 319.537 71.1374 319.45Z" fill="#868280"/>
<path d="M71.2446 318.802C71.3295 318.846 71.3415 318.906 71.2595 318.987C71.1776 318.946 71.1686 318.883 71.2446 318.802Z" fill="#868280"/>
<path d="M86.1036 316.024C84.6982 315.143 83.329 314.284 81.9569 313.422C81.8842 313.375 81.8054 313.334 81.7327 313.287C81.3662 313.047 81.3632 313.022 81.7276 312.742C83.3125 311.539 84.9065 310.349 86.4854 309.137C86.7526 308.931 86.9558 308.954 87.2253 309.119C89.476 310.509 91.7387 311.884 93.9924 313.268C95.5494 314.224 97.1063 315.183 98.6633 316.142C99.1328 316.433 99.1388 316.436 98.8833 316.921C98.0254 318.543 97.1614 320.165 96.2974 321.786C96.0723 322.21 96.0511 322.213 95.627 321.95C93.7793 320.801 91.9315 319.651 90.0838 318.501C88.7692 317.68 87.4516 316.861 86.1036 316.024Z" fill="#060605"/>
<path d="M83.3193 343.049C80.372 341.227 77.4611 339.422 74.5471 337.619C73.6747 337.078 72.8084 336.529 71.93 335.998C71.6967 335.857 71.6455 335.698 71.6853 335.43C71.995 333.452 72.2926 331.475 72.5901 329.497C72.5932 329.478 72.5932 329.463 72.5963 329.444C72.6728 329.005 72.7699 328.952 73.1395 329.171C73.5727 329.427 74.0028 329.693 74.433 329.955C77.7408 331.976 81.0516 333.998 84.3594 336.022C85.1318 336.494 85.9043 336.963 86.6737 337.437C87.0674 337.678 87.0825 337.74 86.8271 338.142C85.8207 339.713 84.8052 341.279 83.7988 342.847C83.6894 343.012 83.595 343.189 83.3193 343.049Z" fill="#060505"/>
<path d="M76.8512 353.622C76.5623 354.067 76.2978 354.484 76.0211 354.892C75.8023 355.216 75.7113 355.237 75.3841 355.037C73.4909 353.869 71.6069 352.685 69.7046 351.532C69.3259 351.304 69.2931 351.014 69.3513 350.641C69.4954 349.712 69.6305 348.784 69.7746 347.856C69.931 346.841 70.0904 345.829 70.2589 344.813C70.3386 344.334 70.3538 344.328 70.7506 344.568C72.7559 345.787 74.7581 347.011 76.7604 348.233C77.4722 348.667 78.1871 349.098 78.8989 349.536C79.3109 349.789 79.3109 349.798 79.0433 350.215C78.3167 351.341 77.5961 352.465 76.8512 353.622Z" fill="#060605"/>
<path d="M105.212 305.511C105.475 305.049 105.724 304.622 105.959 304.188C106.146 303.844 106.126 303.75 105.807 303.536C103.955 302.3 102.094 301.078 100.252 299.827C99.8863 299.577 99.6184 299.674 99.3169 299.891C98.5679 300.431 97.815 300.962 97.066 301.502C96.2461 302.091 95.4303 302.682 94.6158 303.282C94.231 303.566 94.2322 303.583 94.6166 303.844C96.5613 305.162 98.5101 306.474 100.456 307.788C101.148 308.255 101.839 308.727 102.533 309.192C102.935 309.462 102.943 309.458 103.191 309.028C103.858 307.863 104.525 306.706 105.212 305.511Z" fill="#060605"/>
<path d="M40.0401 317.561C40.0556 317.536 40.0805 317.491 40.0867 317.494C40.1239 317.51 40.1269 317.539 40.071 317.571C40.0493 317.571 40.0432 317.565 40.0401 317.561Z" fill="#FB2912"/>
<path d="M51.7409 339.867C51.8978 339.705 52.0225 339.604 52.1429 339.495C53.816 338.001 55.9812 337.866 57.8894 339.108C59.0017 339.831 59.8445 340.82 60.6671 341.836C63.7701 345.675 66.4796 349.759 68.4632 354.294C69.1081 355.764 69.6365 357.272 69.8574 358.87C69.9482 359.519 69.9599 360.167 69.8486 360.809C69.6399 361.993 69.0168 362.889 67.99 363.512C67.5502 363.778 67.0627 363.939 66.5466 364.152C62.2816 365.073 58.7478 363.508 55.516 360.936C54.6449 360.244 53.8363 359.469 53.112 358.613C50.5524 355.583 49.1914 352.132 49.2881 348.15C49.329 346.492 49.452 344.852 49.9339 343.258C50.3063 342.03 50.8523 340.895 51.7409 339.867Z" fill="#00CE4C"/>
<path d="M86.6367 246.519V251.53H82.7748V252.884H88.2831V254.481H75.3107V252.884H80.7748V251.53H76.9129V246.519H86.6367ZM76.7471 257.099V255.536H86.7029V260.182H84.7085V257.099H76.7471ZM78.8632 249.967H84.6753V248.072H78.8632V249.967ZM102.144 257.005V258.602H89.1388V257.005H92.3653V254.304H90.2162V252.696H92.1222V248.696H90.1554V247.094H101.061V248.696H99.0559V252.696H100.995V254.304H98.8515V257.005H102.144ZM94.1112 252.696H97.0891V248.696H94.1112V252.696ZM94.3653 257.005H96.8515V254.304H94.3653V257.005ZM115.956 252.331V253.812H102.95V252.331H115.956ZM104.437 255.9V254.519H114.403V257.878H106.431V258.691H114.818V260.05H104.448V256.613H112.425V255.9H104.437ZM104.547 247.569V246.215H114.387V249.552H106.553V250.315H114.63V251.663H104.569V248.287H112.387V247.569H104.547ZM133.604 248.033V249.652H131.764V251.105H133.604V252.724H131.764V254.989H129.764V245.95H131.764V248.033H133.604ZM120.477 248.873V247.315H123.709V245.873H125.698V247.315H128.919V248.873H120.477ZM121.173 251.912C121.168 250.392 122.604 249.359 124.704 249.353C126.764 249.359 128.201 250.392 128.201 251.912C128.201 253.442 126.764 254.458 124.704 254.458C122.61 254.458 121.168 253.442 121.173 251.912ZM122.3 257.657C122.289 256.061 124.129 255.121 127.112 255.121C130.046 255.121 131.913 256.061 131.919 257.657C131.913 259.226 130.046 260.182 127.112 260.177C124.129 260.182 122.289 259.226 122.3 257.657ZM123.112 251.912C123.112 252.613 123.748 252.983 124.704 252.978C125.654 252.983 126.306 252.613 126.311 251.912C126.306 251.199 125.654 250.812 124.704 250.807C123.748 250.812 123.112 251.199 123.112 251.912ZM124.273 257.657C124.267 258.326 125.256 258.691 127.112 258.691C128.936 258.691 129.913 258.326 129.913 257.657C129.913 256.956 128.936 256.635 127.112 256.635C125.256 256.635 124.267 256.956 124.273 257.657ZM145.592 245.972V250.331H147.504V251.967H145.592V256.591H143.592V245.972H145.592ZM134.305 249.033V247.464H137.537V245.95H139.526V247.464H142.747V249.033H134.305ZM135.001 252.293C134.996 250.641 136.454 249.536 138.532 249.536C140.587 249.536 142.029 250.641 142.029 252.293C142.029 253.928 140.587 255.011 138.532 255.005C136.454 255.011 134.996 253.928 135.001 252.293ZM136.366 259.934V255.768H138.355V258.326H146.101V259.934H136.366ZM136.941 252.293C136.941 253.072 137.576 253.492 138.532 253.492C139.482 253.492 140.134 253.072 140.139 252.293C140.134 251.497 139.482 251.061 138.532 251.055C137.576 251.061 136.941 251.497 136.941 252.293ZM79.272 270.359C80.4267 270.359 81.4322 270.751 82.1118 271.42H85.3052V269.95H87.2886V277.088H85.3052V275.845H82.1228C81.4433 276.525 80.4378 276.923 79.272 276.923C77.1063 276.923 75.4764 275.574 75.4875 273.63C75.4764 271.707 77.1063 270.359 79.272 270.359ZM77.377 273.63C77.377 274.696 78.1615 275.315 79.272 275.32C80.3494 275.315 81.1284 274.696 81.1394 273.63C81.1284 272.591 80.3494 271.972 79.272 271.967C78.1615 271.972 77.377 272.591 77.377 273.63ZM77.8245 279.221V277.691H87.2886V281.53H79.8411V282.453H87.7085V284.022H77.8411V280.072H85.3052V279.221H77.8245ZM82.9626 272.956C83.0068 273.171 83.0344 273.398 83.0344 273.63C83.0344 273.862 83.0068 274.083 82.9626 274.298H85.3052V272.956H82.9626ZM101.122 269.95V278.403H99.1333V275.044H96.9123V273.42H99.1333V269.95H101.122ZM89.0449 276.829C91.3653 276.055 92.4316 274.204 92.4758 272.42H89.625V270.818H97.3377V272.42H94.5034C94.5532 274.072 95.5697 275.74 97.7742 276.47L96.7907 278.039C95.2217 277.525 94.1443 276.497 93.52 275.221C92.9012 276.668 91.7631 277.829 90.078 278.409L89.0449 276.829ZM91.3764 281.458C91.3709 279.735 93.2327 278.718 96.2604 278.718C99.299 278.718 101.155 279.735 101.161 281.458C101.155 283.182 99.299 284.193 96.2604 284.199C93.2327 284.193 91.3709 283.182 91.3764 281.458ZM93.3598 281.458C93.3543 282.271 94.3764 282.679 96.2604 282.674C98.1499 282.679 99.1775 282.271 99.183 281.458C99.1775 280.641 98.1499 280.232 96.2604 280.232C94.3764 280.232 93.3543 280.641 93.3598 281.458ZM118.914 269.95V284.182H116.997V276.945H115.693V283.547H113.842V270.326H115.693V275.342H116.997V269.95H118.914ZM106.478 279.873C109.373 278.182 110.621 276.099 110.886 273.309H107.196V271.713H112.831C112.826 275.679 111.643 278.928 107.627 281.254L106.478 279.873ZM131.93 270.79V272.066C131.925 273.392 131.925 274.845 131.56 276.84H133.455V278.447H127.908V284.193H125.897V278.447H120.483V276.84H129.549C129.908 275 129.941 273.608 129.947 272.376H121.969V270.79H131.93ZM146.222 269.95V284.215H144.239V269.95H146.222ZM135.062 272.757V271.149H141.819V276.63H137.128V279.243C139.305 279.226 141.145 279.11 143.222 278.762L143.394 280.381C141.062 280.795 138.952 280.884 136.349 280.884H135.073V275.061H139.786V272.757H135.062Z" fill="black"/>
</g>
<path d="M281.517 147.159L314.307 191.24L368.407 190.007L355.195 243.743L389.867 286.287L340.602 309.213L329.737 363.498L281.517 338.35L233.297 363.498L222.432 309.213L173.168 286.287L207.84 243.743L194.628 190.007L248.728 191.24L281.517 147.159Z" fill="#75F3C9"/>
<mask id="mask2_3827_20725" style="mask-type:alpha" maskUnits="userSpaceOnUse" x="172" y="147" width="219" height="217">
<path d="M281.414 147.159L314.275 191.165L368.494 189.934L355.253 243.578L390.001 286.05L340.628 308.937L329.74 363.128L281.414 338.024L233.088 363.128L222.2 308.937L172.827 286.05L207.575 243.578L194.334 189.934L248.552 191.165L281.414 147.159Z" fill="#75F3C9"/>
</mask>
<g mask="url(#mask2_3827_20725)">
<path d="M339.67 308.476C338.052 308.341 336.724 309.021 335.467 309.936C332.948 311.771 330.673 313.877 328.543 316.145C327.456 317.302 326.472 318.547 325.608 319.882C325.117 320.644 324.692 321.439 324.378 322.292C324.215 322.739 324.203 322.753 323.714 322.637C320.039 321.774 317.142 319.759 315.269 316.476C312.628 311.839 312.764 307.175 315.522 302.607C316.358 301.222 317.538 300.17 318.863 299.273C319.118 299.1 319.375 298.931 319.666 298.728C320.625 298.29 321.525 297.819 322.512 297.575C322.848 297.493 322.878 297.254 322.896 296.975C322.976 295.809 323.067 294.643 323.153 293.477C323.56 288.024 323.967 282.568 324.376 277.114C324.421 276.496 324.424 276.494 325.031 276.537C327.506 276.71 329.984 276.886 332.46 277.06C332.548 277.066 332.635 277.08 332.723 277.082C333.037 277.089 333.135 277.24 333.098 277.55C333.003 278.36 332.933 279.172 332.837 280.035C332.319 280.382 331.794 280.151 331.287 280.126C330.809 280.101 330.332 280.028 329.852 279.989C329.525 279.964 329.198 280.03 329.166 280.421C329.136 280.786 329.448 280.863 329.741 280.923C330.493 281.078 331.266 281.037 332.019 281.174C332.232 281.212 332.457 281.208 332.676 281.384C332.664 282.86 332.467 284.279 332.362 285.708C332.332 286.125 332.278 286.54 332.216 287.022C331.28 287.36 330.377 287.024 329.468 287.008C329.273 287.006 329.079 286.942 328.882 286.965C328.634 286.992 328.384 287.047 328.356 287.353C328.329 287.668 328.525 287.862 328.811 287.9C329.373 287.978 329.939 288.04 330.505 288.09C331.023 288.135 331.555 288.129 332.057 288.441C331.921 290.42 331.757 292.355 331.573 294.353C331.246 294.65 330.887 294.636 330.546 294.577C329.786 294.442 329.018 294.511 328.256 294.447C327.904 294.417 327.545 294.486 327.534 294.915C327.522 295.337 327.902 295.339 328.206 295.364C328.991 295.426 329.77 295.545 330.562 295.513C330.843 295.501 331.134 295.506 331.414 295.734C331.434 296.076 331.416 296.382 331.394 296.69C331.332 297.55 331.362 297.402 331.957 297.671C333.683 298.452 335.183 299.547 336.431 300.973C338.293 303.113 339.368 305.6 339.67 308.476Z" fill="#EDEFF4"/>
<ellipse opacity="0.9" cx="326.915" cy="309.552" rx="10.7092" ry="10.7495" fill="#FF8BCA"/>
<path d="M273.32 368.706C273.213 368.786 273.134 368.836 273.052 368.845C269.546 369.251 266.139 370.123 262.74 371.042C259.712 371.859 256.637 372.355 253.488 372.336C251.795 372.327 250.101 372.439 248.412 372.213C247.975 372.154 247.541 372.074 247.123 371.942C246.85 371.855 246.577 371.759 246.325 371.631C244.852 370.88 244.731 369.58 246.034 368.548C246.398 368.261 246.8 368.03 247.209 367.816C247.38 367.727 247.575 367.67 247.705 367.526C247.68 367.401 247.589 367.38 247.514 367.351C243.965 365.892 241.908 363.173 241.083 359.499C239.799 353.79 242.467 347.914 247.564 345.085C247.894 344.902 248.112 344.71 248.164 344.302C248.505 341.634 249.248 339.077 250.306 336.608C250.356 336.489 250.44 336.375 250.415 336.256C247.134 335.323 243.92 334.241 240.735 332.916C240.901 332.523 241.287 332.555 241.619 332.509C244.825 332.071 248.01 331.51 251.208 331.024C252.422 330.839 252.465 330.716 251.797 329.691C251.097 328.621 250.44 327.521 249.733 326.396C249.474 325.933 249.233 325.516 248.907 325.098C247.846 323.259 246.725 321.513 245.573 319.731C245.329 319.245 245.066 318.828 244.754 318.383C243.711 316.69 242.667 315.051 241.61 313.367C241.344 312.863 241.031 312.445 240.715 311.973C240.099 310.903 239.437 309.92 238.791 308.925C238.578 308.596 238.316 308.288 238.289 307.834C238.087 306.848 237.789 305.924 237.605 304.968C236.964 301.621 237.214 298.332 238.212 295.09C239.294 291.576 241.135 288.489 243.497 285.698C246.275 282.415 249.596 279.79 253.304 277.563C253.677 277.385 253.89 277.627 254.106 277.792C255.75 279.049 257.598 279.85 259.63 280.158C263.77 280.785 267.416 279.727 270.497 276.824C271.913 275.489 273.013 273.942 273.7 272.11C273.888 271.606 274.225 271.38 274.755 271.398C277.194 271.489 279.626 271.209 282.065 271.261C283.118 271.284 283.197 271.327 283.593 272.267C285.412 276.607 288.615 279.282 293.223 280.133C296.457 280.731 299.51 280.117 302.304 278.312C302.757 278.02 303.125 277.563 303.766 277.536C305.826 278.789 307.771 280.112 309.56 281.655C313.366 284.936 316.471 288.74 318.335 293.474C318.985 295.124 319.401 296.831 319.69 298.636C319.642 299.044 319.349 299.186 319.099 299.355C315.103 302.034 313.443 305.906 313.641 310.586C313.875 316.115 317.953 320.961 323.311 322.346C323.818 322.476 324.114 322.406 324.346 321.879C325.392 319.478 326.999 317.461 328.795 315.597C331.013 313.292 333.357 311.124 336.021 309.333C336.84 308.783 337.733 308.436 338.713 308.318C339.024 308.279 339.329 308.265 339.638 308.498C341.466 308.966 342.391 310.232 342.852 311.912C343.307 313.568 343.139 315.232 342.871 316.904C342.466 319.428 341.359 321.586 339.67 323.469C339.213 323.98 338.715 324.446 338.16 324.849C336.196 326.285 334.073 327.353 331.638 327.713C330.134 327.937 328.654 327.896 327.21 327.382C326.906 327.273 326.678 327.314 326.412 327.478C321.138 330.75 315.448 333.08 309.549 334.928C309.174 335.047 308.672 335.077 308.492 335.398C308.299 335.747 308.69 336.119 308.842 336.471C309.901 338.915 310.649 341.45 311.011 344.09C311.081 344.61 311.29 344.891 311.741 345.144C317.526 348.421 320.061 355.599 317.367 361.806C316.267 364.341 314.446 366.189 311.886 367.268C311.75 367.325 311.591 367.346 311.497 367.492C311.645 367.706 311.897 367.752 312.104 367.866C312.666 368.177 313.22 368.496 313.643 368.991C314.273 369.726 314.212 370.572 313.489 371.218C313.086 371.579 312.6 371.786 312.088 371.935C311.218 372.19 310.322 372.279 309.417 372.332C305.73 372.542 302.145 372.042 298.622 370.912C294.496 369.591 290.245 368.907 285.859 368.694C285.689 368.441 285.821 368.247 285.916 368.053C287.43 364.964 288.23 361.685 288.528 358.264C288.931 353.639 288.51 349.096 287.182 344.651C286.514 342.413 285.564 340.32 283.804 338.682C282.384 337.358 280.685 337.208 278.883 337.32C276.559 337.463 274.97 338.698 273.793 340.624C272.709 342.397 272.043 344.329 271.579 346.335C271.031 348.701 270.66 351.086 270.569 353.53C270.385 358.456 271.049 363.202 273.127 367.706C273.252 368.008 273.427 368.307 273.32 368.706Z" fill="#00CE4C"/>
<path d="M245.609 319.541C245.934 319.851 246.114 320.209 246.319 320.545C247.203 321.985 248.146 323.388 248.985 324.903C248.901 325.245 248.622 325.22 248.401 325.264C245.923 325.741 243.461 326.293 240.986 326.781C240.588 326.859 239.942 326.82 240.081 327.457C240.201 328.011 240.758 327.79 241.149 327.708C243.684 327.174 246.23 326.706 248.758 326.149C249.053 326.085 249.353 325.98 249.713 326.117C250.09 326.475 250.283 326.902 250.533 327.29C251.145 328.232 251.697 329.214 252.336 330.14C252.704 330.674 252.557 331.007 251.92 331.114C250.556 331.347 249.185 331.555 247.819 331.769C245.473 332.134 243.127 332.497 240.738 332.876C238.496 333.202 236.298 333.512 234.102 333.825C229.251 334.516 224.4 335.21 219.549 335.902C219.462 335.913 219.374 335.927 219.287 335.933C218.528 335.988 218.203 335.63 218.398 334.891C218.596 334.145 218.839 333.412 219.069 332.675C219.549 331.139 220.033 329.604 220.535 328.022C220.835 327.854 221.067 328.016 221.306 328.111C222.845 328.732 224.184 328.424 225.286 327.169C225.927 326.439 226.462 325.631 226.905 324.764C229.058 320.529 230.188 315.995 230.833 311.315C230.924 310.655 230.938 310.007 230.835 309.346C230.567 307.602 229.583 306.532 227.857 306.167C227.664 306.126 227.464 306.115 227.287 305.93C227.48 305.138 227.678 304.392 227.91 303.655C228.021 303.303 228.021 302.97 227.944 302.614C226.714 297.01 225.746 291.356 224.829 285.695C224.716 284.999 224.589 284.303 224.484 283.605C224.379 282.911 224.493 282.744 225.17 282.58C226.773 282.188 228.405 281.95 230.035 281.699C230.651 281.606 230.722 281.672 230.863 282.329C231.742 286.427 232.561 290.537 233.284 294.667C233.723 297.165 234.166 299.664 234.598 302.163C234.659 302.519 234.773 302.845 234.982 303.137C236.069 304.663 237.155 306.19 238.278 307.755C239.031 308.921 239.747 310.046 240.458 311.173C240.586 311.377 240.701 311.586 240.833 311.84C240.533 312.237 240.085 312.182 239.69 312.273C239.326 312.355 238.951 312.378 238.59 312.476C238.274 312.561 237.873 312.634 237.974 313.083C238.069 313.512 238.465 313.462 238.79 313.412C239.419 313.316 240.044 313.202 240.672 313.097C240.954 313.051 241.233 312.992 241.565 313.092C241.97 313.494 242.206 313.966 242.484 314.411C243.284 315.689 244.075 316.976 244.882 318.306C244.636 318.646 244.266 318.644 243.929 318.703C242.611 318.932 241.29 319.146 239.969 319.358C239.551 319.427 238.862 319.39 238.987 320.034C239.097 320.597 239.703 320.371 240.117 320.301C241.695 320.022 243.279 319.806 244.857 319.525C245.084 319.479 245.323 319.429 245.609 319.541Z" fill="#EDEFF4"/>
<path d="M273.356 368.766C273.18 368.446 273.092 368.125 272.949 367.828C271.448 364.727 270.728 361.421 270.43 358.012C270.027 353.361 270.553 348.804 271.905 344.344C272.31 343.009 272.855 341.733 273.599 340.549C274.165 339.645 274.829 338.833 275.69 338.192C276.156 337.845 276.645 337.564 277.209 337.425C278.502 337.103 279.809 337.003 281.132 337.185C282.335 337.35 283.328 337.911 284.181 338.76C285.261 339.835 286.009 341.124 286.611 342.509C287.418 344.362 287.873 346.317 288.248 348.291C289.25 353.576 289.109 358.826 287.686 364.024C287.313 365.391 286.784 366.698 286.179 367.974C286.077 368.191 285.936 368.389 285.804 368.64C284.129 368.547 282.46 368.437 280.791 368.396C278.875 368.348 276.968 368.503 275.058 368.661C274.513 368.706 273.965 368.736 273.356 368.766Z" fill="#DBFF9E"/>
<path d="M303.842 277.525C303.624 277.678 303.428 277.781 303.253 277.911C301.153 279.476 298.814 280.352 296.188 280.523C290.53 280.893 285.338 277.454 283.369 272.302C283.039 271.439 283.033 271.439 282.121 271.46C279.661 271.512 277.199 271.567 274.74 271.617C274.121 271.631 274.124 271.627 273.892 272.202C272.607 275.414 270.441 277.847 267.308 279.284C262.716 281.39 258.297 280.939 254.13 278.075C253.896 277.913 253.662 277.749 253.387 277.566C253.146 277.342 252.95 277.133 252.746 276.932C246.406 270.686 247.97 260.19 255.847 256.065C257.427 255.236 259.104 254.732 260.864 254.538C264.587 254.127 267.768 255.396 270.55 257.817C270.748 257.99 270.921 258.196 271.196 258.34C271.496 258.488 271.687 258.695 271.869 258.919C273.924 261.44 274.994 264.311 274.953 267.585C274.94 268.731 274.949 268.779 276.097 268.836C277.479 268.904 278.866 268.955 280.248 268.786C280.643 268.738 281.039 268.745 281.435 268.74C282.26 268.731 282.319 268.699 282.298 267.889C282.264 266.572 282.437 265.29 282.803 264.03C283.353 262.141 284.237 260.427 285.54 258.944C285.715 258.743 285.906 258.563 286.197 258.422C286.72 258.004 287.186 257.6 287.677 257.228C289.707 255.688 292.01 254.78 294.526 254.543C299.227 254.1 303.01 255.93 305.833 259.631C309.825 264.865 309.216 272.211 304.535 276.838C304.308 277.053 304.092 277.272 303.842 277.525Z" fill="#FAFAF9"/>
<path d="M286.174 258.376C286.024 258.84 285.629 259.139 285.331 259.52C283.355 262.055 282.419 264.928 282.512 268.14C282.517 268.296 282.523 268.448 282.535 268.604C282.553 268.855 282.439 268.96 282.189 268.964C279.839 269.007 277.488 269.174 275.135 268.994C274.838 268.971 274.69 268.891 274.724 268.562C274.756 268.257 274.749 267.944 274.751 267.636C274.788 264.391 273.749 261.53 271.689 259.036C271.534 258.851 271.4 258.648 271.241 258.408C274.151 258.132 276.718 259.807 277.734 262.627C277.936 263.187 278.113 263.755 278.222 264.343C278.277 264.642 278.372 264.934 278.45 265.224C278.752 265.192 278.725 264.973 278.761 264.82C278.898 264.218 279.032 263.616 279.218 263.027C280.218 259.86 282.799 258.114 286.174 258.376Z" fill="#00CE4C"/>
<path d="M331.461 295.726C330.375 295.712 329.304 295.648 328.235 295.591C328.017 295.58 327.799 295.596 327.599 295.479C327.349 295.331 327.217 295.121 327.249 294.827C327.281 294.532 327.453 294.35 327.728 294.263C327.899 294.208 328.074 294.236 328.249 294.245C329.32 294.306 330.388 294.361 331.504 294.423C331.659 294.852 331.493 295.26 331.461 295.726Z" fill="#EDEEF4"/>
<path d="M332.083 288.482C331.135 288.238 330.155 288.254 329.191 288.14C329.062 288.124 328.927 288.14 328.798 288.119C328.309 288.049 328.03 287.743 328.073 287.346C328.114 286.958 328.477 286.705 328.952 286.748C329.3 286.78 329.648 286.835 329.996 286.871C330.694 286.944 331.392 287.01 332.144 287.081C332.256 287.56 332.181 288.019 332.083 288.482Z" fill="#EDEEF4"/>
<path d="M332.731 281.381C331.701 281.335 330.696 281.237 329.691 281.148C329.512 281.132 329.343 281.102 329.193 281C328.98 280.851 328.855 280.648 328.884 280.384C328.918 280.094 329.093 279.904 329.368 279.815C329.562 279.754 329.757 279.79 329.955 279.811C330.871 279.907 331.789 279.993 332.762 280.085C332.865 280.505 332.821 280.92 332.731 281.381Z" fill="#EDEEF4"/>
<path d="M274.211 290.543C272.985 288.453 272.61 286.221 272.722 283.882C272.744 283.421 272.801 282.96 272.863 282.502C272.931 281.993 272.972 281.945 273.481 281.938C274.427 281.927 275.37 281.95 276.316 281.945C278.864 281.931 281.415 281.995 283.963 281.899C284.115 281.893 284.268 281.922 284.422 281.936C284.579 281.947 284.661 282.041 284.672 282.189C284.95 285.587 284.511 288.802 282.247 291.531C281.808 292.058 281.276 292.492 280.667 292.816C279.132 293.635 277.63 293.562 276.168 292.635C275.35 292.117 274.743 291.394 274.211 290.543Z" fill="#00CE4C"/>
<path d="M249.747 326.1C246.792 326.751 243.825 327.362 240.861 327.976C240.711 328.008 240.566 328.056 240.409 328.038C240.077 327.996 239.809 327.757 239.779 327.456C239.749 327.134 239.904 326.906 240.184 326.762C240.279 326.712 240.388 326.682 240.495 326.662C243.248 326.105 245.999 325.55 248.752 324.996C248.795 324.987 248.838 324.978 248.938 324.955C249.324 325.261 249.518 325.669 249.747 326.1Z" fill="#EDEEF4"/>
<path d="M245.644 319.524C243.644 319.907 241.632 320.247 239.62 320.587C239.145 320.667 238.768 320.46 238.686 320.081C238.599 319.665 238.872 319.321 239.399 319.234C240.611 319.033 241.825 318.851 243.039 318.659C243.623 318.566 244.207 318.468 244.842 318.363C245.208 318.682 245.41 319.088 245.644 319.524Z" fill="#EDEEF4"/>
<path d="M241.597 313.066C240.615 313.274 239.624 313.447 238.635 313.621C238.592 313.628 238.549 313.639 238.506 313.641C238.062 313.669 237.731 313.436 237.678 313.069C237.626 312.713 237.897 312.377 238.331 312.3C238.89 312.199 239.454 312.126 240.015 312.037C240.252 311.998 240.488 311.953 240.781 311.898C241.152 312.222 241.375 312.626 241.597 313.066Z" fill="#EDEEF4"/>
<path d="M270.508 261.667C271.702 263.545 272.27 265.553 272.197 267.734C272.016 273.081 268.076 277.188 263.209 277.868C258.108 278.582 252.8 275.337 251.577 269.692C250.499 264.709 253.302 259.616 258.039 257.783C260.947 256.658 263.752 256.768 266.523 258.121C268.158 258.917 269.467 260.113 270.508 261.667Z" fill="#0E0E0E"/>
<path d="M268.755 262.149C269.177 262.811 269.377 263.52 269.352 264.289C269.287 266.175 267.897 267.624 266.179 267.864C264.378 268.116 262.504 266.971 262.072 264.98C261.692 263.222 262.681 261.425 264.354 260.779C265.38 260.382 266.37 260.421 267.349 260.898C267.926 261.179 268.388 261.601 268.755 262.149Z" fill="white"/>
<path d="M267.634 270.285C267.902 270.707 268.029 271.158 268.013 271.647C267.972 272.848 267.087 273.77 265.994 273.922C264.848 274.082 263.655 273.354 263.381 272.087C263.139 270.968 263.768 269.825 264.833 269.414C265.486 269.161 266.116 269.186 266.738 269.489C267.106 269.668 267.4 269.937 267.634 270.285Z" fill="white"/>
<path d="M289.185 275.781C286.971 274.008 285.682 271.753 285.255 268.988C284.534 264.322 287.289 259.557 291.7 257.839C293.023 257.323 294.359 256.96 295.8 257.008C299.476 257.132 302.372 258.706 304.366 261.784C307.794 267.078 305.673 274.396 299.94 276.988C296.18 278.692 292.575 278.218 289.185 275.781Z" fill="#0E0E0E"/>
<path d="M300.937 262C301.32 262.602 301.503 263.246 301.479 263.945C301.421 265.66 300.157 266.977 298.595 267.195C296.958 267.424 295.254 266.384 294.862 264.573C294.516 262.975 295.416 261.342 296.936 260.754C297.869 260.394 298.769 260.429 299.658 260.863C300.183 261.118 300.603 261.501 300.937 262Z" fill="white"/>
<path d="M301.1 270.285C301.368 270.707 301.496 271.158 301.48 271.647C301.439 272.848 300.554 273.77 299.461 273.922C298.315 274.082 297.122 273.354 296.848 272.087C296.605 270.968 297.235 269.825 298.299 269.414C298.953 269.161 299.583 269.186 300.205 269.489C300.572 269.668 300.866 269.937 301.1 270.285Z" fill="white"/>
<path d="M280.516 328.365H267.345C277.882 334.448 288.691 330.899 292.779 328.365H280.516Z" fill="#00C62E"/>
<path d="M278.309 285.339C277.161 286.077 275.943 286.572 274.611 286.689C273.472 286.791 272.414 286.518 271.596 285.651C271.387 285.429 271.257 285.165 271.475 284.874C271.674 284.607 271.976 284.598 272.176 284.877C272.738 285.669 273.581 285.795 274.439 285.762C275.581 285.717 276.699 285.387 277.641 284.784C278.348 284.331 278.934 284.349 279.678 284.538C280.732 284.805 281.811 284.808 282.844 284.346C283.255 284.162 283.584 283.868 283.938 283.604C284.155 283.442 284.418 283.223 284.642 283.442C284.883 283.676 284.666 283.97 284.487 284.18C283.726 285.081 282.723 285.51 281.56 285.582C280.69 285.636 279.841 285.498 279.022 285.201C278.753 285.102 278.529 285.102 278.309 285.339Z" fill="#0C200F"/>
<path d="M228.525 313.583L237.561 312.24L246.932 328.7L222.836 332.395L228.525 313.583Z" fill="#FE2F2F"/>
<path d="M227.212 305.884C227.396 305.89 227.526 305.911 227.658 305.925C229.478 306.125 230.745 307.36 231.036 309.185C231.206 310.249 231.067 311.294 230.902 312.341C230.272 316.295 229.278 320.145 227.614 323.8C227.076 324.987 226.45 326.123 225.603 327.123C225.259 327.529 224.873 327.887 224.423 328.168C223.591 328.683 222.706 328.793 221.768 328.51C221.365 328.389 221.001 328.181 220.59 327.985C217.698 325.909 216.714 322.926 216.505 319.581C216.448 318.68 216.475 317.772 216.598 316.87C217.035 313.683 218.383 310.99 220.849 308.891C221.877 308.017 222.938 307.202 224.168 306.63C225.116 306.189 226.103 305.904 227.212 305.884Z" fill="#00CE4C"/>
<path d="M248.542 211.184V212.78H236.719V211.184H241.636V209.537H243.614V211.184H248.542ZM236.161 222.167V220.559H241.636V218.924C239.216 218.714 237.752 217.725 237.763 216.162C237.752 214.432 239.619 213.394 242.619 213.399C245.58 213.394 247.475 214.432 247.475 216.162C247.475 217.72 246 218.709 243.614 218.924V220.559H249.166V222.167H236.161ZM239.812 216.162C239.807 216.996 240.779 217.383 242.619 217.383C244.426 217.383 245.42 216.996 245.426 216.162C245.42 215.344 244.426 214.957 242.619 214.957C240.779 214.957 239.807 215.344 239.812 216.162ZM261.933 209.383V223.615H259.917V209.383H261.933ZM250.033 219.587C253.701 217.847 255.32 215.604 255.641 212.443H250.795V210.88H257.674C257.668 215.189 256.154 218.775 251.072 221.173L250.033 219.587ZM275.717 209.405V217.427H273.717V209.405H275.717ZM263.762 215.609C266.148 214.885 267.187 213.073 267.192 211.294V209.918H269.259V211.294C269.248 213.023 270.303 214.681 272.596 215.383L271.629 216.913C269.999 216.427 268.878 215.443 268.237 214.167C267.59 215.548 266.436 216.648 264.739 217.178L263.762 215.609ZM266.187 223.454V218.079H275.717V223.454H266.187ZM268.154 221.858H273.762V219.659H268.154V221.858ZM292.548 209.383V214.836H294.559V216.482H292.548V223.581H290.553V209.383H292.548ZM281.178 219.598C284.537 217.907 286.343 215.642 286.719 212.471H281.979V210.841H288.752C288.741 215.095 287.078 218.775 282.299 221.123L281.178 219.598ZM308.155 216.112V217.709H295.161V216.112H308.155ZM296.597 220.515V218.918H306.586V223.631H304.619V220.515H296.597ZM296.73 214.968V209.869H306.597V211.438H298.724V213.383H306.735V214.968H296.73ZM320.27 209.405V213.764H322.182V215.399H320.27V220.023H318.27V209.405H320.27ZM308.983 212.465V210.896H312.215V209.383H314.204V210.896H317.425V212.465H308.983ZM309.679 215.725C309.674 214.073 311.132 212.968 313.21 212.968C315.265 212.968 316.707 214.073 316.707 215.725C316.707 217.36 315.265 218.443 313.21 218.438C311.132 218.443 309.674 217.36 309.679 215.725ZM311.044 223.366V219.2H313.033V221.758H320.779V223.366H311.044ZM311.618 215.725C311.618 216.504 312.254 216.924 313.21 216.924C314.16 216.924 314.812 216.504 314.817 215.725C314.812 214.93 314.16 214.493 313.21 214.488C312.254 214.493 311.618 214.93 311.618 215.725ZM250.329 234.195V235.802H245.61V236.907H250.03V238.482H245.61V239.648C247.925 239.642 249.423 239.57 251.086 239.255L251.312 240.825C249.389 241.162 247.666 241.217 244.782 241.211H243.599V234.195H250.329ZM245.058 247.454V242.322H254.356V247.454H245.058ZM247.025 245.858H252.384V243.885H247.025V245.858ZM252.356 241.703V233.383H254.356V236.714H256.268V238.366H254.356V241.703H252.356ZM268.35 234.222V235.499C268.345 236.825 268.345 238.278 267.98 240.272H269.875V241.88H264.328V247.626H262.317V241.88H256.903V240.272H265.969C266.328 238.432 266.361 237.04 266.367 235.808H258.389V234.222H268.35ZM286.678 233.383V247.615H284.761V240.377H283.457V246.979H281.606V233.758H283.457V238.775H284.761V233.383H286.678ZM274.242 243.305C277.137 241.615 278.385 239.532 278.65 236.742H274.96V235.145H280.595C280.59 239.112 279.407 242.36 275.391 244.686L274.242 243.305ZM299.694 234.222V235.499C299.688 236.825 299.688 238.278 299.324 240.272H301.219V241.88H295.672V247.626H293.661V241.88H288.246V240.272H297.313C297.672 238.432 297.705 237.04 297.711 235.808H289.733V234.222H299.694ZM313.986 233.383V247.648H312.003V233.383H313.986ZM302.826 236.189V234.581H309.583V240.062H304.892V242.675C307.069 242.659 308.909 242.543 310.986 242.195L311.157 243.813C308.826 244.228 306.715 244.316 304.113 244.316H302.837V238.493H307.55V236.189H302.826Z" fill="#1F1408"/>
</g>
<g filter="url(#filter0_b_3827_20725)">
<path fill-rule="evenodd" clip-rule="evenodd" d="M181.332 16.8965C206.939 24.4316 223.163 48.3697 221.83 73.7626C222.268 73.8802 222.704 74.0032 223.141 74.1317C253.126 82.955 270.244 114.269 261.376 144.074C255.573 163.577 240.082 177.6 221.665 182.493C222.356 189.503 221.727 196.759 219.594 203.927C210.725 233.732 179.228 250.741 149.243 241.918C137.251 238.389 127.317 231.263 120.28 222.074C109.349 225.975 97.115 226.578 85.123 223.05C55.1381 214.226 38.0199 182.912 46.8884 153.107C49.0215 145.938 52.4637 139.509 56.8791 134.003C44.1058 119.931 38.7828 99.7833 44.5856 80.2813C53.4541 50.4763 84.9509 33.4673 114.936 42.2906C115.373 42.4193 115.807 42.5527 116.239 42.6908C129.016 20.666 155.726 9.36147 181.332 16.8965Z" fill="#85DCFF"/>
</g>
<mask id="mask3_3827_20725" style="mask-type:alpha" maskUnits="userSpaceOnUse" x="42" y="14" width="222" height="231">
<path fill-rule="evenodd" clip-rule="evenodd" d="M181.332 16.8968C206.939 24.4319 223.162 48.37 221.83 73.7629C222.268 73.8804 222.704 74.0034 223.141 74.1319C253.126 82.9552 270.244 114.27 261.376 144.075C255.573 163.577 240.082 177.601 221.665 182.494C222.356 189.503 221.727 196.759 219.594 203.927C210.725 233.732 179.228 250.741 149.243 241.918C137.251 238.389 127.317 231.263 120.28 222.074C109.349 225.976 97.115 226.579 85.1229 223.05C55.1381 214.227 38.0199 182.912 46.8884 153.107C49.0215 145.938 52.4637 139.51 56.8791 134.003C44.1058 119.932 38.7828 99.7835 44.5856 80.2815C53.4541 50.4766 84.9509 33.4676 114.936 42.2909C115.373 42.4195 115.807 42.5529 116.239 42.6911C129.016 20.6662 155.726 9.36171 181.332 16.8968Z" fill="#85DCFF"/>
</mask>
<g mask="url(#mask3_3827_20725)">
<path d="M178.352 249.575C177.609 251.62 176.534 253.395 175.01 254.892C173.843 256.037 172.508 256.935 170.996 257.576C170.763 257.675 170.501 257.719 170.309 257.92C170.439 258.211 170.749 258.246 170.987 258.374C171.689 258.753 172.387 259.14 172.947 259.717C173.949 260.758 173.849 261.975 172.697 262.85C172.213 263.217 171.662 263.441 171.085 263.613C170.18 263.884 169.249 264.027 168.308 264.082C163.926 264.33 159.591 264.108 155.359 262.815C153.181 262.15 150.974 261.591 148.758 261.052C145.587 260.28 142.369 259.904 139.127 259.65C138.446 259.598 137.763 259.554 137.008 259.484C136.778 259.1 136.985 258.805 137.135 258.508C139.192 254.406 140.141 250.027 140.533 245.493C140.677 243.832 140.68 242.174 140.683 240.513C140.683 240.12 140.645 239.727 140.621 239.333C140.577 238.57 140.179 238.279 139.437 238.2C133.607 237.585 127.878 236.461 122.261 234.8C121.086 234.453 119.913 234.103 118.746 233.728C118.174 233.544 117.918 233.698 117.808 234.296C117.148 237.949 117.019 241.624 117.284 245.321C117.54 248.911 118.221 252.413 119.494 255.793C119.783 256.559 120.113 257.308 120.464 258.048C120.667 258.476 120.915 258.907 120.764 259.484C120.638 259.592 120.534 259.653 120.422 259.665C115.76 260.201 111.234 261.366 106.713 262.555C102.867 263.569 98.9506 264.155 94.9544 264.126C92.7854 264.111 90.6164 264.254 88.4533 263.968C87.858 263.89 87.2716 263.77 86.6969 263.601C86.2843 263.479 85.8894 263.322 85.5181 263.106C83.8854 262.165 83.7322 260.676 85.1497 259.455C85.6478 259.027 86.2136 258.698 86.7971 258.395C87.0446 258.266 87.2892 258.129 87.525 258.004C87.4602 257.794 87.3099 257.771 87.189 257.722C82.7597 255.9 80.128 252.564 79.0081 248.048C77.1751 240.653 80.6084 233.002 87.3511 229.322C87.8285 229.063 88.0437 228.766 88.1262 228.232C89.4671 219.384 93.4691 211.893 99.9702 205.684C100.153 205.509 100.377 205.372 100.598 205.209C100.197 204.702 99.7168 204.573 99.2895 204.387C94.645 202.359 90.2893 199.853 86.3639 196.657C82.076 193.167 78.5749 189.052 76.2969 184.003C74.3754 179.743 73.6092 175.294 74.122 170.638C74.7055 165.315 76.7979 160.583 79.8922 156.253C83.2106 151.609 87.413 147.871 92.1783 144.727C93.6283 143.771 95.1135 142.877 96.6519 142.067C97.3621 141.694 97.8395 141.169 98.1725 140.432C99.929 136.542 101.856 132.734 104.111 129.098C105.85 126.295 107.892 123.725 110.529 121.674C112.51 120.133 114.688 119.049 117.222 118.653C121.259 118.017 125.073 120.174 126.476 123.985C126.838 124.967 127.056 125.986 127.313 126.997C127.345 127.128 127.348 127.28 127.542 127.379C127.825 127.295 127.796 127.012 127.843 126.788C128.061 125.736 128.326 124.698 128.736 123.705C130.257 120.019 133.949 118.038 137.928 118.658C140.928 119.128 143.383 120.573 145.59 122.522C148.086 124.725 150.005 127.385 151.678 130.226C153.576 133.445 155.3 136.755 156.806 140.167C157.219 141.102 157.814 141.746 158.716 142.224C161.365 143.623 163.87 145.246 166.231 147.081C170.669 150.534 174.468 154.546 177.259 159.438C178.882 162.285 180.064 165.3 180.674 168.511C181.225 171.41 181.275 174.33 180.821 177.261C180.026 182.386 177.78 186.85 174.556 190.879C174.382 191.098 174.146 191.276 174.073 191.561C174.161 191.806 174.394 191.879 174.586 191.984C176.595 193.111 177.992 194.769 178.95 196.829C179.678 198.397 180.208 200.031 180.742 201.669C180.933 202.257 181.119 202.852 181.334 203.507C181.635 203.924 181.561 204.32 181.487 204.705C181.096 206.695 180.827 208.711 180.792 210.727C180.757 212.968 180.939 215.217 181.317 217.437C181.437 218.157 181.579 218.877 181.626 219.678C181.222 220.683 180.247 220.902 179.454 221.452C176.805 222.248 175.252 221.784 173.584 219.71C171.812 217.504 170.584 214.987 169.393 212.455C166.788 206.904 165.373 201.019 164.439 195.005C164.274 193.947 164.2 192.863 164.816 191.879C165.155 191.34 165.577 190.859 166.181 190.64C166.962 190.355 166.941 189.897 166.685 189.248C165.73 186.832 164.807 184.402 163.867 181.981C161.622 176.189 159.391 170.39 157.024 164.648C156.612 163.645 156.653 163.52 157.528 162.783C157.702 162.637 157.882 162.494 158.009 162.302C158.286 161.88 158.194 161.562 157.723 161.352C157.346 161.183 156.945 161.177 156.547 161.175C155.916 161.169 155.48 160.901 155.153 160.362C152.168 155.426 147.485 153.366 141.944 152.713C139.737 152.454 137.562 152.632 135.381 152.917C134.565 153.025 133.858 153.322 133.218 153.841C131.963 154.861 130.607 155.758 129.346 156.775C129.169 156.918 128.981 157.049 128.827 157.215C128.698 157.355 128.485 157.492 128.583 157.71C128.686 157.937 128.928 157.865 129.116 157.833C129.567 157.76 130.009 157.64 130.448 157.518C133.218 156.746 136.036 156.39 138.912 156.53C141.432 156.653 143.733 157.366 145.693 158.995C146.651 159.793 147.311 160.805 147.844 161.909C148.127 162.492 147.983 162.931 147.435 163.278C146.954 163.581 146.445 163.849 146.044 164.26C145.443 164.875 145.546 165.504 146.374 165.74C147.202 165.976 147.467 166.515 147.635 167.255C149.719 176.416 151.985 185.533 154.186 194.664C155.501 200.121 156.974 205.544 158.091 211.045C158.247 211.811 158.642 212.169 159.376 212.414C164.074 213.985 167.413 217.047 169.019 221.677C170.516 225.989 170.053 230.129 167.012 233.783C166.646 234.22 166.228 234.599 165.786 234.957C165.002 235.592 164.996 235.659 165.444 236.589C166.988 239.803 169.313 242.422 171.921 244.814C173.684 246.431 175.62 247.824 177.757 248.934C178.001 249.068 178.249 249.217 178.352 249.575Z" fill="#00CE4C"/>
<path d="M119.371 126.592C122.48 128.316 123.411 131.461 121.786 134.373C120.729 136.262 118.693 137.358 116.648 137.137C114.726 136.921 113.165 135.421 112.579 133.29C111.442 129.124 116.026 125.149 119.371 126.592Z" fill="#0E0E0E"/>
<path d="M137.465 126.542C140.936 126.868 143.083 129.269 142.875 132.439C142.737 134.497 141.401 136.233 139.502 136.818C137.714 137.361 135.704 136.641 134.289 134.998C131.53 131.78 133.903 126.552 137.465 126.542Z" fill="#0E0E0E"/>
<path d="M118.154 131.392C117.706 130.488 117.845 129.775 118.61 129.222C119.116 128.864 119.677 128.846 120.234 129.14C120.936 129.511 121.265 130.085 121.262 130.827C121.258 131.349 121.058 131.803 120.523 132.02C119.644 132.371 118.903 132.032 118.167 131.392L118.154 131.392Z" fill="white"/>
<path d="M138.257 131.51C137.381 130.804 137.179 130.037 137.675 129.159C138.007 128.587 138.556 128.328 139.249 128.381C140.123 128.449 140.724 128.877 141.074 129.616C141.319 130.136 141.338 130.672 140.91 131.117C140.204 131.843 139.307 131.824 138.27 131.505L138.257 131.51Z" fill="white"/>
<path d="M120.514 259.206C120.254 258.721 120.094 258.233 119.872 257.777C118.04 253.974 117.132 249.937 116.736 245.771C116.349 241.725 116.5 237.697 117.23 233.692C117.26 233.526 117.283 233.356 117.325 233.192C117.455 232.666 117.461 232.655 118.016 232.83C120.685 233.672 123.363 234.479 126.079 235.16C130.353 236.233 134.692 236.943 139.066 237.469C140.911 237.691 140.568 237.32 140.662 239.127C140.94 244.365 140.399 249.516 138.727 254.518C138.206 256.073 137.58 257.587 136.705 259.049C134.521 258.923 132.354 258.783 130.182 258.73C127.69 258.669 125.207 258.87 122.728 259.069C122.012 259.128 121.297 259.171 120.514 259.206Z" fill="#DBFF9E"/>
<path d="M146.406 206.958C147.926 206.301 149.378 205.655 150.709 204.785C151.394 204.337 152.07 203.872 152.645 203.287C152.79 203.141 152.905 202.917 153.25 202.942C152.961 203.603 152.551 204.151 152.081 204.653C149.644 207.256 146.586 208.936 143.257 210.204C141.233 210.976 139.125 211.459 136.992 211.814C135.528 212.058 134.04 212.01 132.559 212.038C129.841 212.09 127.229 211.631 124.694 210.712C123.87 210.414 123.094 210.035 122.371 209.495C122.649 209.291 122.814 209.458 122.985 209.527C124.399 210.101 125.877 210.345 127.4 210.356C128.315 210.362 129.227 210.351 130.142 210.359C132.087 210.376 133.999 210.101 135.909 209.799C138.981 209.317 141.976 208.528 144.907 207.509C145.385 207.337 145.863 207.156 146.406 206.958Z" fill="#00C62E"/>
<path d="M128.349 156.571C126.922 157.48 125.409 158.09 123.753 158.234C122.338 158.36 121.023 158.024 120.006 156.956C119.747 156.682 119.585 156.357 119.856 155.998C120.103 155.67 120.479 155.658 120.727 156.002C121.425 156.978 122.473 157.133 123.539 157.092C124.958 157.037 126.348 156.63 127.519 155.888C128.398 155.33 129.126 155.352 130.05 155.585C131.361 155.913 132.701 155.917 133.985 155.348C134.496 155.123 134.905 154.76 135.345 154.435C135.615 154.236 135.942 153.966 136.22 154.236C136.52 154.524 136.25 154.886 136.028 155.145C135.082 156.253 133.835 156.782 132.39 156.871C131.308 156.937 130.253 156.767 129.235 156.401C128.901 156.279 128.623 156.279 128.349 156.571Z" fill="#0C200F"/>
<path d="M181.038 219.973C180.58 217.279 180.235 214.619 180.145 211.934C180.083 210.139 180.27 208.36 180.512 206.586C180.644 205.619 180.839 204.661 181.017 203.63C181.315 202.945 181.403 202.271 181.572 201.621C181.785 200.805 182.015 199.998 182.328 199.211C182.582 198.576 182.576 198.561 181.986 198.236C181.56 198.001 181.192 197.699 180.88 197.333C179.835 196.099 180.06 194.441 181.376 193.498C182.29 192.844 183.317 192.772 184.374 192.894C184.846 192.949 185.325 193.053 185.769 193.216C193.269 195.957 200.766 198.703 208.159 201.726C209.268 202.179 210.269 202.806 210.998 203.784C211.147 203.987 211.293 204.199 211.401 204.426C212.037 205.784 211.527 206.949 210.085 207.422C209.434 207.637 208.76 207.692 208.08 207.64C207.312 207.579 207.219 207.614 206.953 208.334C205.404 212.529 204.099 216.797 203.171 221.172C202.628 223.727 202.188 226.299 201.855 228.886C201.624 230.695 201.455 232.512 201.487 234.341C201.522 236.362 201.554 238.386 201.122 240.38C200.507 243.243 199.319 245.815 197.22 247.909C195.157 249.967 192.641 251.155 189.761 251.581C186.002 252.139 182.465 251.337 179.036 249.863C178.753 249.741 178.464 249.627 178.113 249.494C177.539 249.18 177.022 248.89 176.511 248.591C172.983 246.524 170.032 243.815 167.514 240.616C166.373 239.167 165.427 237.616 164.677 235.938C164.508 235.558 164.484 235.314 164.878 235.027C168.81 232.179 170.213 227.153 168.763 222.412C167.207 217.325 163.74 214.056 158.645 212.5C158.14 212.346 157.915 212.128 157.804 211.617C155.788 202.309 153.345 193.1 151.179 183.824C149.889 178.299 148.582 172.774 147.28 167.252C147.237 167.06 147.187 166.868 147.146 166.677C147.094 166.427 146.951 166.282 146.685 166.262C146.6 166.256 146.516 166.247 146.434 166.227C145.961 166.102 145.474 165.963 145.316 165.437C145.147 164.871 145.488 164.47 145.877 164.119C146.297 163.739 146.787 163.454 147.283 163.184C147.914 162.842 147.905 162.842 147.584 162.171C146.183 159.218 143.729 157.703 140.591 157.166C137.527 156.64 134.506 157.023 131.518 157.74C130.832 157.906 130.149 158.095 129.466 158.269C129.303 158.312 129.136 158.344 128.97 158.385C128.632 158.472 128.456 158.301 128.293 158.028C128.112 157.723 128.27 157.569 128.483 157.401C129.014 156.98 129.53 156.544 130.067 156.132C131.162 155.29 132.274 154.468 133.365 153.621C133.891 153.211 134.457 152.964 135.122 152.854C139.506 152.143 143.804 152.337 147.946 154.065C151.168 155.409 153.78 157.476 155.431 160.606C155.583 160.896 155.767 161.021 156.091 161.012C156.628 161.001 157.165 161.007 157.684 161.181C158.545 161.468 158.706 162.037 158.087 162.699C157.839 162.963 157.55 163.207 157.238 163.39C156.829 163.634 156.835 163.89 157.002 164.293C158.049 166.842 159.094 169.391 160.092 171.961C162.354 177.779 164.584 183.606 166.828 189.43C166.857 189.508 166.883 189.59 166.913 189.668C167.196 190.432 167.196 190.432 166.405 190.757C165.126 191.282 164.4 192.383 164.417 193.805C164.429 194.766 164.633 195.701 164.805 196.642C165.392 199.818 166.002 202.991 167.012 206.072C168.258 209.875 169.819 213.545 171.845 217.009C172.329 217.836 172.852 218.635 173.447 219.389C174.88 221.201 176.278 221.994 178.922 221.163C179.497 221.3 179.614 221.77 179.815 222.156C180.763 224.003 181.759 225.82 183.302 227.533C182.336 225.411 181.68 223.387 181.102 221.338C180.997 220.908 180.79 220.481 181.038 219.973Z" fill="#F8B91E"/>
<path opacity="0.9" fill-rule="evenodd" clip-rule="evenodd" d="M200.599 161.711C200.499 161.633 200.397 161.545 200.293 161.448C199.753 163.87 198.671 165.626 197.882 165.838C196.525 166.203 192.415 162.974 191.251 157.938C190.088 152.903 191.171 148.276 193.67 147.603C194.846 147.287 196.125 147.901 197.271 149.165C197.972 145.76 199.638 143.365 201.581 143.365C203.822 143.365 205.693 146.548 206.142 150.792C206.62 150.647 207.095 150.629 207.555 150.752C210.054 151.425 211.137 156.052 209.974 161.088C208.811 166.123 204.7 169.353 203.343 168.987C202.265 168.697 200.64 165.526 200.599 161.711Z" fill="#FFF500"/>
<path d="M217.948 146.743C217.188 150.436 219.049 154.178 220.111 154.498C221.172 154.819 224.265 152.574 225.025 148.881C225.785 145.188 224.817 141.715 222.863 141.125C220.909 140.535 218.708 143.05 217.948 146.743Z" fill="#FFF500"/>
<path d="M192.297 128.785C192.922 132.614 190.965 136.656 189.909 137.059C188.854 137.461 185.885 135.296 185.26 131.467C184.636 127.638 185.705 123.934 187.648 123.193C189.592 122.452 191.673 124.956 192.297 128.785Z" fill="#FFF500"/>
<path d="M223.407 156.436C222.044 158.628 222.309 161.379 222.897 161.797C223.484 162.215 225.959 161.413 227.322 159.221C228.684 157.03 228.913 154.629 227.832 153.86C226.751 153.091 224.77 154.244 223.407 156.436Z" fill="#FF8BCA"/>
<path d="M184.13 140.882L190.785 177.289" stroke="#F3EC1A" stroke-width="2" stroke-linecap="round"/>
<path d="M214.076 161.569L201.598 197.149" stroke="#FF8BCA" stroke-width="2" stroke-linecap="round"/>
<path fill-rule="evenodd" clip-rule="evenodd" d="M214.614 192.671C214.128 193.116 213.708 193.345 213.423 193.314C212.272 193.186 210.285 188.444 211.148 182.962C212.012 177.479 214.43 173.226 216.55 173.461C217.778 173.597 218.636 175.207 218.974 177.604C220.117 176.398 221.259 175.879 222.165 176.316C223.633 177.024 224.062 180.038 223.414 183.714C224.717 182.862 225.896 182.71 226.674 183.456C228.329 185.043 227.546 190.086 224.926 194.72C222.305 199.355 218.084 201.101 217.185 200.24C216.662 199.739 216.453 197.581 216.883 194.951C216.354 195.232 215.923 195.32 215.664 195.195C215.253 194.997 214.848 194.055 214.614 192.671Z" fill="#FF8BCA"/>
<path d="M116.634 61.1313L116.634 70.5268L109.794 70.5268L109.794 61.1313L116.634 61.1313ZM111.763 68.948L114.649 68.948L114.649 62.6935L111.763 62.6935L111.763 68.948ZM118.575 73.9991L118.575 59.7788L120.571 59.7788L120.571 65.1446L122.672 65.1446L122.672 66.8062L120.571 66.8062L120.571 73.9991L118.575 73.9991ZM129.666 60.0493C132.834 60.0493 134.836 61.0982 134.842 62.8371C134.836 64.5539 132.834 65.5917 129.666 65.5862C126.52 65.5917 124.48 64.5539 124.485 62.8371C124.48 61.0982 126.52 60.0493 129.666 60.0493ZM123.186 67.9985L123.186 66.4087L136.169 66.4087L136.169 67.9985L123.186 67.9985ZM124.69 73.839L124.69 68.9922L134.609 68.9922L134.609 73.839L124.69 73.839ZM126.559 62.8371C126.548 63.6265 127.681 64.0405 129.666 64.0405C131.635 64.0405 132.785 63.6265 132.785 62.8371C132.785 62.0145 131.635 61.595 129.666 61.6005C127.681 61.595 126.548 62.0145 126.559 62.8371ZM126.653 72.2436L132.663 72.2436L132.663 70.571L126.653 70.571L126.653 72.2436ZM143.506 59.9886C146.785 59.9886 148.676 60.8442 148.681 62.4065C148.676 63.9963 146.785 64.8465 143.506 64.8465C140.221 64.8465 138.319 63.9963 138.325 62.4065C138.319 60.8442 140.221 59.9886 143.506 59.9886ZM137.025 67.0987L137.025 65.5199L150.008 65.5199L150.008 67.0987L137.025 67.0987ZM138.524 69.3786L138.524 67.9157L148.421 67.9157L148.421 71.5426L140.492 71.5426L140.492 72.3982L148.792 72.3982L148.792 73.8997L138.535 73.8997L138.535 70.1515L146.453 70.1515L146.453 69.3786L138.524 69.3786ZM140.415 62.4065C140.404 63.1076 141.421 63.3781 143.506 63.3836C145.618 63.3781 146.624 63.1076 146.624 62.4065C146.624 61.7827 145.618 61.4404 143.506 61.446C141.421 61.4404 140.404 61.7827 140.415 62.4065ZM161.036 59.9113C164.315 59.9168 166.206 60.7725 166.211 62.3402C166.206 63.9135 164.315 64.7692 161.036 64.7692C157.751 64.7692 155.849 63.9135 155.855 62.3402C155.849 60.7725 157.751 59.9168 161.036 59.9113ZM154.555 66.9662L154.555 65.415L167.538 65.415L167.538 66.9662L162.02 66.9662L162.02 67.9157L165.951 67.9157L165.951 71.5426L158.022 71.5426L158.022 72.3982L166.322 72.3982L166.322 73.8997L156.065 73.8997L156.065 70.1515L163.983 70.1515L163.983 69.3786L156.054 69.3786L156.054 67.9157L160.018 67.9157L160.018 66.9662L154.555 66.9662ZM157.945 62.3402C157.934 63.0303 158.951 63.3118 161.036 63.3118C163.148 63.3118 164.154 63.0303 164.154 62.3402C164.154 61.6999 163.148 61.3852 161.036 61.3797C158.951 61.3852 157.934 61.6999 157.945 62.3402ZM180.316 59.7788L180.316 74.0322L178.331 74.0322L178.331 59.7788L180.316 59.7788ZM169.147 62.5831L169.147 60.9767L175.909 60.9767L175.909 66.4529L171.215 66.4529L171.215 69.064C173.393 69.0474 175.234 68.9315 177.314 68.5837L177.485 70.2011C175.152 70.6152 173.039 70.7035 170.435 70.7035L169.158 70.7035L169.158 64.8851L173.874 64.8851L173.874 62.5831L169.147 62.5831ZM193.79 63.6651L193.79 65.2274L183.849 65.2274L183.849 60.2867L185.834 60.2867L185.834 63.6651L193.79 63.6651ZM182.217 68.3077L182.217 66.7454L195.234 66.7454L195.234 68.3077L182.217 68.3077ZM183.716 73.6844L183.716 69.4725L185.712 69.4725L185.712 72.0836L193.879 72.0836L193.879 73.6844L183.716 73.6844ZM127.557 83.759L127.557 86.8724L129.47 86.8724L129.47 88.5064L127.557 88.5064L127.557 91.7082L125.555 91.7082L125.555 83.759L127.557 83.759ZM116.106 90.4441C119.302 89.6547 121.071 88.0759 121.386 86.1824L116.808 86.1824L116.808 84.5981L123.565 84.5981C123.559 88.3574 121.176 90.9078 116.896 92.0339L116.106 90.4441ZM118.24 97.8026L118.24 92.2437L127.557 92.2437L127.557 97.8026L118.24 97.8026ZM120.225 96.2404L125.583 96.2404L125.583 93.8501L120.225 93.8501L120.225 96.2404ZM135.48 85.6966C135.469 87.6011 136.453 89.3566 138.742 90.0632L137.681 91.6199C136.149 91.0955 135.115 90.1128 134.518 88.8377C133.882 90.3171 132.737 91.4819 131.029 92.056L129.967 90.4661C132.411 89.6823 133.456 87.7778 133.467 85.7905L133.467 84.5042L135.48 84.5042L135.48 85.6966ZM132.345 95.2246C132.339 93.4802 134.203 92.459 137.233 92.459C140.274 92.459 142.132 93.4802 142.137 95.2246C142.132 96.9801 140.274 97.9793 137.233 97.9737C134.203 97.9793 132.339 96.9801 132.345 95.2246ZM134.33 95.2246C134.324 96.014 135.347 96.4281 137.233 96.4225C139.124 96.4281 140.152 96.014 140.158 95.2246C140.152 94.4132 139.124 94.0047 137.233 94.0047C135.347 94.0047 134.324 94.4132 134.33 95.2246ZM137.437 87.9986L137.437 86.3701L140.108 86.3701L140.108 83.759L142.099 83.759L142.099 92.0946L140.108 92.0946L140.108 87.9986L137.437 87.9986ZM159.905 83.759L159.905 97.9793L157.986 97.9793L157.986 90.7477L156.681 90.7477L156.681 97.3444L154.829 97.3444L154.829 84.1344L156.681 84.1344L156.681 89.1468L157.986 89.1468L157.986 83.759L159.905 83.759ZM147.458 93.6734C150.356 91.9842 151.606 89.9031 151.871 87.1153L148.177 87.1153L148.177 85.52L153.817 85.52C153.812 89.4835 152.628 92.7295 148.609 95.0535L147.458 93.6734ZM172.932 84.5981L172.932 85.8733C172.926 87.1981 172.926 88.65 172.561 90.6428L174.458 90.6428L174.458 92.2492L168.906 92.2492L168.906 97.9903L166.894 97.9903L166.894 92.2492L161.475 92.2492L161.475 90.6428L170.549 90.6428C170.908 88.8045 170.941 87.4134 170.947 86.1824L162.962 86.1824L162.962 84.5981L172.932 84.5981ZM187.236 83.759L187.236 98.0124L185.251 98.0124L185.251 83.759L187.236 83.759ZM176.066 86.5633L176.066 84.9569L182.829 84.9569L182.829 90.433L178.134 90.433L178.134 93.0441C180.313 93.0276 182.154 92.9116 184.233 92.5639L184.405 94.1813C182.071 94.5953 179.959 94.6836 177.355 94.6836L176.077 94.6836L176.077 88.8653L180.794 88.8653L180.794 86.5633L176.066 86.5633Z" fill="#1F1408"/>
</g>
<path d="M322.724 130.298C323.706 127.343 324.917 124.517 327.023 122.151C329.389 119.497 332.282 117.838 335.812 117.327C336 117.3 336.227 117.322 336.376 116.947C327.509 115.47 323.891 109.126 321.994 101.167C320.095 109.182 316.453 115.489 307.596 117.192C308.208 117.317 308.829 117.415 309.434 117.566C315.274 119.044 318.611 123.118 320.647 128.503C321.076 129.643 321.36 130.837 321.711 132.006C321.936 132.283 322.224 132.549 322.304 131.962C322.383 131.385 322.524 130.839 322.724 130.301V130.298Z" fill="white"/>
<path d="M26.8464 202.507C27.8278 199.552 29.0387 196.726 31.1455 194.36C33.5111 191.706 36.404 190.047 39.9341 189.536C40.1221 189.509 40.3491 189.531 40.498 189.156C31.6313 187.679 28.0133 181.335 26.1164 173.376C24.2171 181.391 20.5747 187.698 11.7178 189.401C12.3305 189.526 12.9506 189.624 13.556 189.775C19.3956 191.253 22.7328 195.327 24.7689 200.712C25.1985 201.852 25.4817 203.046 25.8333 204.215C26.0579 204.492 26.3459 204.758 26.4265 204.171C26.5046 203.594 26.6462 203.048 26.8464 202.51V202.507Z" fill="white"/>
<path d="M245.672 62.3599C248.106 62.6434 250.536 62.9349 252.97 63.205C253.948 63.3146 254.15 63.7292 253.809 64.6411C253.294 66.0131 252.607 67.3021 251.746 68.7757C253.24 68.0937 254.46 67.4652 255.736 66.9732C257.049 66.465 257.341 66.6549 257.543 68.1526C257.979 71.4206 258.352 74.694 258.752 77.9648C258.802 78.3552 258.703 78.7698 259.044 79.2806C259.483 78.5023 259.42 77.7214 259.515 76.9886C259.894 74.0736 260.219 71.1532 260.641 68.2435C260.924 66.2912 261.221 66.1548 263.14 66.8983C263.889 67.1871 264.595 67.5802 265.505 68.0108C265.066 66.8047 264.388 65.8686 264.072 64.7802C263.818 63.9003 263.952 63.5125 264.966 63.3414C268.639 62.7236 272.348 62.4241 276.037 61.948C276.392 61.9026 276.746 61.8598 277.122 61.5522C274.909 61.2982 272.697 61.0575 270.489 60.7874C268.688 60.5681 266.895 60.2873 265.091 60.0947C264.2 59.9984 264.058 59.6213 264.303 58.8511C264.761 57.415 265.505 56.1206 266.582 54.5615C265.02 55.2488 263.84 55.8131 262.622 56.2891C261.104 56.8828 260.873 56.7785 260.657 55.2274C260.205 51.9647 259.84 48.6886 259.415 45.4205C259.355 44.9659 259.439 44.4551 258.935 43.9255C258.646 46.3833 258.387 48.7019 258.101 51.0179C257.916 52.5209 257.709 54.0212 257.483 55.5189C257.311 56.6608 256.809 57.1502 255.526 56.6501C254.564 56.273 253.684 55.7435 252.49 55.2194C253.109 56.4469 253.755 57.3963 254.06 58.4954C254.302 59.3807 254.202 59.9209 253.082 60.0412C250.332 60.3354 247.591 60.7178 244.846 61.0628C243.582 61.357 242.192 60.9692 240.723 61.8384C242.552 62.0657 244.116 62.2235 245.678 62.3652L245.672 62.3599Z" fill="white"/>
<path d="M252.559 382.239C255.049 382.522 257.536 382.814 260.026 383.084C261.027 383.193 261.234 383.608 260.885 384.52C260.358 385.892 259.656 387.181 258.774 388.654C260.302 387.972 261.552 387.344 262.857 386.852C264.201 386.344 264.499 386.534 264.705 388.031C265.152 391.299 265.534 394.573 265.943 397.843C265.994 398.234 265.893 398.648 266.242 399.159C266.691 398.381 266.627 397.6 266.724 396.867C267.112 393.952 267.444 391.032 267.876 388.122C268.166 386.17 268.47 386.033 270.433 386.777C271.2 387.066 271.922 387.459 272.853 387.889C272.404 386.683 271.71 385.747 271.386 384.659C271.127 383.779 271.264 383.391 272.301 383.22C276.06 382.602 279.855 382.303 283.63 381.827C283.993 381.781 284.355 381.738 284.74 381.431C282.476 381.177 280.212 380.936 277.953 380.666C276.11 380.447 274.275 380.166 272.429 379.973C271.517 379.877 271.372 379.5 271.623 378.73C272.092 377.294 272.853 375.999 273.955 374.44C272.357 375.127 271.149 375.692 269.903 376.168C268.35 376.761 268.113 376.657 267.893 375.106C267.43 371.843 267.056 368.567 266.621 365.299C266.56 364.845 266.646 364.334 266.13 363.804C265.835 366.262 265.57 368.581 265.277 370.897C265.087 372.4 264.875 373.9 264.644 375.398C264.468 376.539 263.955 377.029 262.642 376.529C261.658 376.152 260.757 375.622 259.536 375.098C260.169 376.326 260.829 377.275 261.142 378.374C261.39 379.259 261.287 379.8 260.141 379.92C257.327 380.214 254.522 380.596 251.714 380.941C250.42 381.236 248.998 380.848 247.495 381.717C249.366 381.944 250.967 382.102 252.565 382.244L252.559 382.239Z" fill="white"/>
</g>
<defs>
<filter id="filter0_b_3827_20725" x="-17.7539" y="-45.4333" width="341.47" height="349.681" filterUnits="userSpaceOnUse" color-interpolation-filters="sRGB">
<feFlood flood-opacity="0" result="BackgroundImageFix"/>
<feGaussianBlur in="BackgroundImageFix" stdDeviation="30"/>
<feComposite in2="SourceAlpha" operator="in" result="effect1_backgroundBlur_3827_20725"/>
<feBlend mode="normal" in="SourceGraphic" in2="effect1_backgroundBlur_3827_20725" result="shape"/>
</filter>
</defs>
</svg>
