<svg viewBox="0 0 390 243" fill="none" xmlns="http://www.w3.org/2000/svg">
<path d="M391 125.24V132H304.311V129.544C310.021 129.544 316.85 128.815 324.5 126.628C347.46 120.067 353.59 125.448 355.63 126.298C357.67 127.149 361.74 130.282 375.26 125.24C388.771 120.189 391 125.24 391 125.24Z" fill="#FF8BCA"/>
<path d="M304.31 129.544V132H194.9C199.18 131.991 204.51 130.62 210.95 126.628C210.95 126.628 231.66 113.792 285.99 126.628C285.99 126.628 292.9 129.544 304.31 129.544Z" fill="#FF8BCA"/>
<path d="M194.9 131.992L94.3496 132V129.544C100.06 129.544 106.89 128.815 114.55 126.628C137.51 120.067 143.64 125.448 145.68 126.298C147.72 127.149 151.79 130.282 165.31 125.24C178.82 120.189 181.04 125.24 181.04 125.24C181.04 125.24 185.4 131.992 194.9 131.992Z" fill="#FF8BCA"/>
<path d="M94.3501 129.544V132H1V126.628C1 126.628 21.71 113.792 76.03 126.628C76.03 126.628 82.9401 129.544 94.3501 129.544Z" fill="#FF8BCA"/>
<path d="M391 124.316C391 124.316 388.77 119.265 375.26 124.316C361.74 129.358 357.67 126.225 355.63 125.375C353.59 124.524 347.46 119.144 324.5 125.705C316.85 127.892 310.021 128.621 304.311 128.621" stroke="#FFADDA" stroke-width="2"/>
<path d="M304.31 128.621C292.9 128.621 285.99 125.705 285.99 125.705C231.66 112.869 210.95 125.705 210.95 125.705C204.51 129.697 199.18 131.068 194.9 131.077" stroke="#FFADDA" stroke-width="2"/>
<path d="M194.9 131.068C185.4 131.068 181.04 124.316 181.04 124.316C181.04 124.316 178.82 119.265 165.31 124.316C151.79 129.358 147.72 126.225 145.68 125.375C143.64 124.524 137.51 119.144 114.55 125.705C106.89 127.892 100.06 128.621 94.3496 128.621" stroke="#FFADDA" stroke-width="2"/>
<path d="M94.3501 128.621C82.9401 128.621 76.03 125.705 76.03 125.705C21.71 112.869 1 125.705 1 125.705" stroke="#FFADDA" stroke-width="2"/>
<rect width="390" height="55" transform="translate(1 132)" fill="#FF8BCA"/>
<g clip-path="url(#clip0_771_2592)">
<circle cx="32.5004" cy="149" r="8.5" fill="#FFADDA"/>
<circle cx="56.5004" cy="158" r="5.5" fill="#FFADDA"/>
<circle cx="47.5004" cy="175" r="3.5" fill="#FFADDA"/>
</g>
<path d="M154.977 162.976H165.045V164.284H154.977V162.976ZM155.745 155.404H164.217V156.688H155.745V155.404ZM155.805 160.012H164.181V161.284H155.805V160.012ZM157.257 156.592H158.853V160.132H157.257V156.592ZM161.109 156.592H162.705V160.132H161.109V156.592ZM166.016 163.048H176.084V164.344H166.016V163.048ZM170.24 160.936H171.824V163.564H170.24V160.936ZM167.156 155.164H174.944V158.872H168.752V160.732H167.168V157.624H173.36V156.436H167.156V155.164ZM167.168 160.108H175.196V161.38H167.168V160.108ZM181.651 157.192H183.379V158.476H181.651V157.192ZM182.827 154.66H184.327V161.176H182.827V154.66ZM178.999 156.124H180.247V156.82C180.247 157.436 180.159 158.032 179.983 158.608C179.815 159.176 179.543 159.68 179.167 160.12C178.799 160.56 178.315 160.9 177.715 161.14L176.899 159.916C177.403 159.716 177.807 159.452 178.111 159.124C178.423 158.796 178.647 158.436 178.783 158.044C178.927 157.644 178.999 157.236 178.999 156.82V156.124ZM179.311 156.124H180.547V156.82C180.547 157.212 180.611 157.596 180.739 157.972C180.875 158.348 181.087 158.688 181.375 158.992C181.671 159.288 182.051 159.528 182.515 159.712L181.735 160.948C181.151 160.716 180.679 160.392 180.319 159.976C179.967 159.56 179.711 159.08 179.551 158.536C179.391 157.992 179.311 157.42 179.311 156.82V156.124ZM177.247 155.236H182.167V156.52H177.247V155.236ZM184.999 154.456H186.523V161.224H184.999V154.456ZM178.879 161.632H186.523V165.568H184.927V162.904H178.879V161.632ZM189.27 160.168H197.082V161.428H189.27V160.168ZM188.094 163H198.162V164.296H188.094V163ZM189.27 155.26H196.998V156.532H190.89V160.516H189.27V155.26ZM190.398 157.708H196.746V158.944H190.398V157.708ZM209.868 154.456H211.392V165.568H209.868V154.456ZM206.808 158.536H208.704V159.856H206.808V158.536ZM207.708 154.636H209.196V165.076H207.708V154.636ZM201.84 156.112H207.072V157.384H201.84V156.112ZM204.432 157.888C204.888 157.888 205.292 158.004 205.644 158.236C206.004 158.46 206.284 158.772 206.484 159.172C206.692 159.564 206.796 160.02 206.796 160.54C206.796 161.06 206.692 161.52 206.484 161.92C206.284 162.312 206.004 162.62 205.644 162.844C205.292 163.068 204.888 163.18 204.432 163.18C203.976 163.18 203.568 163.068 203.208 162.844C202.856 162.62 202.576 162.312 202.368 161.92C202.16 161.52 202.056 161.06 202.056 160.54C202.056 160.02 202.16 159.56 202.368 159.16C202.576 158.76 202.856 158.448 203.208 158.224C203.568 158 203.976 157.888 204.432 157.888ZM204.432 159.22C204.24 159.22 204.068 159.272 203.916 159.376C203.772 159.48 203.66 159.632 203.58 159.832C203.5 160.024 203.46 160.256 203.46 160.528C203.46 160.808 203.5 161.048 203.58 161.248C203.66 161.448 203.772 161.6 203.916 161.704C204.068 161.8 204.24 161.848 204.432 161.848C204.624 161.848 204.792 161.8 204.936 161.704C205.088 161.6 205.204 161.448 205.284 161.248C205.364 161.048 205.404 160.808 205.404 160.528C205.404 160.256 205.364 160.024 205.284 159.832C205.204 159.632 205.088 159.48 204.936 159.376C204.792 159.272 204.624 159.22 204.432 159.22ZM203.664 154.72H205.236V156.892H203.664V154.72ZM216.011 154.768C216.587 154.768 217.095 154.88 217.535 155.104C217.983 155.32 218.335 155.62 218.591 156.004C218.855 156.38 218.987 156.816 218.987 157.312C218.987 157.808 218.855 158.248 218.591 158.632C218.335 159.008 217.983 159.304 217.535 159.52C217.095 159.736 216.587 159.844 216.011 159.844C215.451 159.844 214.947 159.736 214.499 159.52C214.051 159.304 213.695 159.008 213.431 158.632C213.175 158.248 213.047 157.808 213.047 157.312C213.047 156.816 213.175 156.376 213.431 155.992C213.695 155.608 214.051 155.308 214.499 155.092C214.947 154.876 215.451 154.768 216.011 154.768ZM216.023 156.064C215.751 156.064 215.507 156.116 215.291 156.22C215.075 156.316 214.903 156.456 214.775 156.64C214.655 156.824 214.595 157.048 214.595 157.312C214.595 157.576 214.655 157.804 214.775 157.996C214.903 158.18 215.071 158.32 215.279 158.416C215.495 158.512 215.743 158.56 216.023 158.56C216.295 158.56 216.535 158.512 216.743 158.416C216.959 158.32 217.127 158.18 217.247 157.996C217.375 157.804 217.439 157.576 217.439 157.312C217.439 157.048 217.375 156.824 217.247 156.64C217.127 156.456 216.959 156.316 216.743 156.22C216.527 156.116 216.287 156.064 216.023 156.064ZM220.523 154.456H222.119V160.012H220.523V154.456ZM214.715 160.468H222.119V163.504H216.299V164.86H214.727V162.352H220.535V161.692H214.715V160.468ZM214.727 164.2H222.395V165.448H214.727V164.2ZM224.242 155.584H228.622V162.784H224.242V155.584ZM227.146 156.832H225.73V161.548H227.146V156.832ZM231.946 154.444H233.47V165.556H231.946V154.444ZM227.818 158.488H230.314V159.772H227.818V158.488ZM229.69 154.624H231.178V165.064H229.69V154.624ZM242.613 154.432H244.221V165.58H242.613V154.432ZM235.569 161.692H236.553C237.209 161.692 237.829 161.684 238.413 161.668C238.997 161.644 239.569 161.608 240.129 161.56C240.689 161.504 241.261 161.424 241.845 161.32L242.013 162.604C241.117 162.764 240.233 162.872 239.361 162.928C238.497 162.976 237.561 163 236.553 163H235.569V161.692ZM235.545 155.38H240.789V159.688H237.189V162.184H235.569V158.428H239.169V156.664H235.545V155.38Z" fill="#AE4039"/>
<g clip-path="url(#clip1_771_2592)">
<path fill-rule="evenodd" clip-rule="evenodd" d="M353.272 159.024C353.917 159.376 354.154 160.24 353.803 160.954C350.861 166.927 346.227 169.763 344.094 170.466C343.384 170.7 342.657 170.272 342.47 169.511C342.284 168.75 342.708 167.944 343.419 167.71C344.914 167.218 348.911 164.873 351.468 159.68C351.82 158.965 352.627 158.672 353.272 159.024Z" fill="#AE4039"/>
<path d="M354.563 157.919C354.192 150.596 360.078 150.309 364.053 151.305C364.77 151.484 365.14 152.32 364.858 153.066C361.726 161.364 357.273 160.583 355.014 158.841C354.741 158.631 354.582 158.285 354.563 157.919Z" fill="#AE4039"/>
<path fill-rule="evenodd" clip-rule="evenodd" d="M363.938 152.67C363.998 152.509 363.911 152.385 363.815 152.361C361.902 151.882 359.681 151.759 358.045 152.493C357.255 152.848 356.619 153.393 356.187 154.193C355.75 155.003 355.472 156.166 355.557 157.842C355.559 157.876 355.567 157.904 355.577 157.925C355.587 157.945 355.596 157.953 355.599 157.956C356.562 158.698 357.919 159.178 359.318 158.689C360.709 158.203 362.432 156.659 363.938 152.67ZM364.292 150.251C365.629 150.585 366.281 152.132 365.778 153.464C364.152 157.773 362.082 159.987 359.899 160.75C357.724 161.509 355.725 160.728 354.429 159.729C353.89 159.313 353.602 158.654 353.569 157.997L354.563 157.92L353.569 157.997C353.468 156.012 353.787 154.394 354.474 153.121C355.165 151.839 356.18 151.002 357.312 150.494C359.52 149.503 362.23 149.734 364.292 150.251L364.054 151.306L364.292 150.251Z" fill="#AE4039"/>
<path d="M355.157 160.093C359.679 163.155 357.806 168.266 355.643 171.419C355.14 172.152 354.122 172.086 353.675 171.314C349.974 164.917 352.034 161.364 354.016 160.062C354.367 159.832 354.809 159.858 355.157 160.093Z" fill="#AE4039"/>
<path fill-rule="evenodd" clip-rule="evenodd" d="M354.762 170.852C354.778 170.843 354.801 170.827 354.826 170.792C355.856 169.291 356.751 167.41 356.901 165.627C356.975 164.752 356.868 163.923 356.531 163.165C356.195 162.411 355.604 161.663 354.612 160.992C354.587 160.975 354.565 160.97 354.553 160.97C354.551 160.97 354.549 160.97 354.548 160.97C353.77 161.482 352.955 162.447 352.711 163.957C352.464 165.476 352.77 167.702 354.538 170.757C354.583 170.835 354.643 170.862 354.693 170.865C354.719 170.866 354.743 170.861 354.762 170.852ZM356.461 172.045C355.515 173.425 353.618 173.261 352.814 171.871C350.88 168.529 350.365 165.779 350.719 163.597C351.074 161.407 352.28 159.945 353.484 159.155C354.202 158.683 355.066 158.763 355.702 159.194C356.972 160.054 357.842 161.093 358.359 162.257C358.875 163.417 359.013 164.637 358.914 165.816C358.717 168.143 357.595 170.394 356.461 172.045Z" fill="#AE4039"/>
<path d="M353.055 159.179C346.593 163.759 342.872 157.337 341.476 152.446C341.252 151.663 341.736 150.877 342.479 150.775C351.956 149.473 353.845 154.84 353.571 158.27C353.542 158.644 353.343 158.976 353.055 159.179Z" fill="#AE4039"/>
<path fill-rule="evenodd" clip-rule="evenodd" d="M342.62 151.849C342.455 151.872 342.394 152.026 342.426 152.14C343.101 154.504 344.3 157.079 345.975 158.519C346.79 159.219 347.699 159.637 348.724 159.664C349.757 159.692 351.009 159.327 352.502 158.269C352.53 158.249 352.551 158.225 352.564 158.203C352.576 158.181 352.579 158.166 352.579 158.158L353.571 158.27L352.579 158.158C352.698 156.674 352.341 154.854 351.018 153.542C349.699 152.235 347.202 151.219 342.62 151.849ZM340.525 152.751C340.11 151.298 341.016 149.882 342.338 149.701C347.233 149.028 350.419 150.044 352.346 151.953C354.267 153.857 354.719 156.435 354.563 158.381C354.505 159.114 354.121 159.726 353.609 160.089C351.871 161.32 350.234 161.87 348.708 161.829C347.174 161.788 345.854 161.152 344.756 160.209C342.605 158.36 341.246 155.278 340.525 152.751Z" fill="#AE4039"/>
<path fill-rule="evenodd" clip-rule="evenodd" d="M343.889 153.347C343.913 153.152 344.081 153.014 344.266 153.04C346.489 153.342 348.245 153.871 349.79 154.683C351.336 155.495 352.655 156.584 354.015 157.985C354.148 158.122 354.151 158.347 354.021 158.488C353.892 158.629 353.678 158.632 353.545 158.494C352.217 157.126 350.954 156.09 349.49 155.32C348.027 154.551 346.348 154.041 344.18 153.745C343.995 153.72 343.865 153.542 343.889 153.347Z" fill="#FF8BCA"/>
<path fill-rule="evenodd" clip-rule="evenodd" d="M363.078 153.392C363.078 153.196 362.927 153.037 362.741 153.037C360.977 153.037 358.987 153.925 357.307 154.964C355.621 156.007 354.188 157.239 353.532 158C353.407 158.145 353.416 158.37 353.554 158.503C353.691 158.635 353.904 158.625 354.03 158.479C354.628 157.786 356.002 156.595 357.647 155.578C359.297 154.557 361.16 153.748 362.741 153.748C362.927 153.748 363.078 153.589 363.078 153.392Z" fill="#FF8BCA"/>
<path fill-rule="evenodd" clip-rule="evenodd" d="M354.769 170.145C354.943 170.203 355.116 170.092 355.154 169.897C355.606 167.605 355.29 163.377 354.092 158.17C354.046 157.97 353.869 157.838 353.697 157.876C353.524 157.914 353.422 158.108 353.468 158.308C354.66 163.488 354.941 167.57 354.524 169.684C354.485 169.88 354.595 170.086 354.769 170.145Z" fill="#FF8BCA"/>
</g>
<path d="M192.741 110C122.156 110 102.17 118.333 101 122.5C104.208 127.7 125.732 130.333 136.092 131L167.675 125L160.657 133C164.668 133.8 185.055 134 194.747 134C264.129 134 287.825 126.333 291 122.5C287.658 118.333 263.327 110 192.741 110Z" fill="#00722A"/>
<mask id="mask0_771_2592" style="mask-type:alpha" maskUnits="userSpaceOnUse" x="135" y="0" width="121" height="120">
<rect x="135.5" width="120" height="120" fill="#D9D9D9"/>
</mask>
<g mask="url(#mask0_771_2592)">
<path d="M205.105 119.906H187.842L195.723 114.089L205.105 119.906Z" fill="#DBFF9E"/>
<path d="M205.54 119.719C204.497 119.637 203.463 119.545 202.424 119.458C201.489 119.381 200.56 119.294 199.625 119.245C197.105 119.115 194.58 119.173 192.06 119.265C190.564 119.318 189.063 119.381 187.542 119.704C186.926 118.666 186.468 117.583 186.006 116.501C184.788 113.65 184.107 110.654 183.635 107.62C183.337 105.701 183.223 103.764 183.168 101.821C183.014 96.3177 183.884 90.959 185.499 85.7018C185.996 84.0879 186.777 82.5803 187.582 81.0389C187.612 80.9954 187.607 80.9906 187.612 80.9906C187.771 80.8408 187.855 80.6475 187.964 80.4252C187.994 80.3963 187.989 80.3866 187.994 80.3866C188.084 80.2948 188.138 80.1885 188.218 80.058C188.243 80.0338 188.243 80.0242 188.248 80.0242C188.332 79.942 188.387 79.8406 188.471 79.7101C188.501 79.6811 188.501 79.6618 188.511 79.6618C188.531 79.6376 188.546 79.6135 188.591 79.5652C188.621 79.541 188.621 79.5313 188.621 79.5313C188.71 79.454 188.76 79.3574 188.849 79.2317C188.884 79.2027 188.884 79.1786 188.894 79.1738C188.914 79.1448 188.924 79.1206 188.964 79.082C188.998 79.0626 188.993 79.0481 189.003 79.0481C189.028 79.024 189.038 79.0046 189.088 78.9563C189.118 78.9322 189.118 78.9225 189.123 78.9225C189.147 78.9032 189.162 78.879 189.212 78.8307C189.242 78.8017 189.242 78.7969 189.242 78.7969C189.366 78.6857 189.48 78.5649 189.6 78.3958C189.635 78.3716 189.654 78.333 189.699 78.2992C189.744 78.2653 189.769 78.217 189.818 78.1832C189.868 78.1445 189.893 78.0962 189.943 78.0624C189.992 78.0286 190.022 77.9754 190.067 77.9513C190.171 77.8643 190.231 77.8015 190.335 77.7242C190.46 77.613 190.599 77.5985 190.713 77.4874C190.738 77.4632 190.738 77.4584 190.743 77.4584C190.768 77.4391 190.788 77.4197 190.837 77.3666C190.867 77.3376 190.867 77.3328 190.867 77.3328C190.887 77.3134 190.912 77.2941 190.962 77.2458C190.992 77.2168 190.992 77.212 190.992 77.212C191.011 77.1926 191.031 77.1733 191.086 77.1298C191.121 77.1057 191.121 77.096 191.131 77.096C191.151 77.0767 191.161 77.0525 191.215 77.0235C192.264 76.2794 193.467 76.1296 194.665 75.9653C196.201 75.7575 197.737 75.7334 199.263 76.0426C201.529 76.5017 203.07 77.9513 204.407 79.657C205.038 80.4639 205.56 81.3385 206.032 82.2952C206.062 82.3532 206.082 82.3677 206.107 82.416C206.127 82.4692 206.137 82.4933 206.162 82.5465C206.191 82.5948 206.206 82.6093 206.231 82.6576C206.246 82.7108 206.261 82.7349 206.286 82.7929C206.316 82.8412 206.336 82.8557 206.356 82.8992C206.37 82.9572 206.38 82.9814 206.405 83.0442C206.44 83.0925 206.46 83.1022 206.47 83.1457C206.475 83.2036 206.49 83.2278 206.52 83.3003C206.579 83.3727 206.604 83.4114 206.619 83.5032C206.639 83.566 206.649 83.5854 206.669 83.6434C206.698 83.6917 206.713 83.7062 206.733 83.7545C206.748 83.8125 206.758 83.8366 206.778 83.9043C206.833 83.9767 206.858 84.0202 206.867 84.1121C206.887 84.1749 206.897 84.1942 206.917 84.257C206.947 84.3053 206.962 84.3198 206.977 84.3681C206.987 84.4261 207.002 84.4551 207.022 84.5179C207.076 84.5904 207.106 84.6291 207.111 84.7209C207.126 84.7837 207.136 84.8078 207.156 84.8707C207.205 84.948 207.23 84.9915 207.24 85.0833C207.255 85.1461 207.265 85.1702 207.285 85.2331C207.335 85.3104 207.355 85.3587 207.369 85.4505C207.389 85.5133 207.394 85.5375 207.414 85.6003C207.464 85.6776 207.484 85.7211 207.494 85.8177C207.509 85.8806 207.519 85.9047 207.538 85.9724C207.678 86.4652 207.807 86.9194 207.966 87.4123C208.001 87.5041 208.016 87.5573 208.036 87.6539C208.2 88.485 208.418 89.263 208.602 90.0892C208.632 90.181 208.647 90.239 208.662 90.3308C208.856 91.3504 209.069 92.3264 209.248 93.3556C209.268 93.4571 209.278 93.5151 209.288 93.6166C209.283 93.8388 209.333 94.008 209.373 94.2206C209.393 94.3124 209.397 94.3704 209.407 94.4718C209.472 95.1677 209.547 95.8248 209.626 96.5254C209.646 96.6656 209.656 96.7622 209.661 96.9072C209.651 97.487 209.755 98.0185 209.75 98.5984C209.77 98.8158 209.78 98.9946 209.78 99.2217C209.81 100.164 209.79 101.058 209.785 102C209.78 102.227 209.775 102.401 209.77 102.628C209.726 103.252 209.661 103.822 209.661 104.44C209.656 104.547 209.656 104.605 209.646 104.706C209.601 105.083 209.537 105.411 209.537 105.784C209.532 105.885 209.527 105.943 209.517 106.044C209.383 106.615 209.383 107.156 209.283 107.731C209.273 107.832 209.268 107.89 209.258 107.992C209.129 108.402 209.139 108.789 209.04 109.2C209.03 109.296 209.025 109.354 209.01 109.451C208.856 109.983 208.791 110.485 208.662 111.021C208.647 111.118 208.642 111.171 208.622 111.263C208.478 111.674 208.398 112.06 208.289 112.481C208.274 112.577 208.269 112.63 208.244 112.722C208.041 113.346 207.842 113.925 207.663 114.549C207.648 114.645 207.633 114.703 207.598 114.8C207.588 114.863 207.593 114.882 207.568 114.921C207.534 114.964 207.529 114.984 207.509 115.046C207.3 115.438 207.191 115.82 207.061 116.24C207.027 116.298 207.022 116.322 206.997 116.38C206.907 116.544 206.848 116.68 206.808 116.854C206.773 116.907 206.763 116.931 206.738 116.994C206.718 117.052 206.718 117.076 206.689 117.115C206.654 117.158 206.649 117.182 206.624 117.235C206.485 117.472 206.36 117.675 206.301 117.946C206.266 117.999 206.256 118.028 206.226 118.091C206.206 118.149 206.206 118.173 206.182 118.211C206.142 118.255 206.137 118.279 206.107 118.337C206.087 118.395 206.087 118.414 206.057 118.458C206.022 118.501 206.018 118.525 205.993 118.579C205.898 118.738 205.839 118.873 205.799 119.052C205.769 119.105 205.759 119.129 205.739 119.187C205.645 119.352 205.585 119.487 205.55 119.666C205.55 119.695 205.545 119.714 205.54 119.719Z" fill="#DBFF9E"/>
<path d="M172.418 73.0094C172.651 73.2571 172.418 73.3659 172.294 73.4785C170.703 74.9797 169.269 76.6197 167.971 78.3799C167.926 78.4024 167.911 78.53 167.866 78.56C167.783 78.6238 167.772 78.7964 167.674 78.8377C167.663 78.8565 167.603 78.9315 167.588 78.9428C167.498 79.0179 167.483 79.1642 167.397 79.228C167.352 79.2843 167.352 79.3857 167.295 79.4119C167.277 79.4307 167.228 79.502 167.209 79.5133C167.074 79.6408 167.051 79.8773 166.92 79.9824C166.901 80.0049 166.849 80.0687 166.834 80.0874C166.789 80.1137 166.777 80.2413 166.732 80.2714C166.691 80.3201 166.687 80.4327 166.631 80.4552C166.586 80.5641 166.534 80.6879 166.447 80.7442C166.406 80.793 166.402 80.9056 166.346 80.9281C166.335 80.9431 166.278 81.0182 166.26 81.0332C166.173 81.127 166.177 81.3447 166.064 81.4047C166.046 81.4273 165.989 81.4873 165.982 81.5098C165.933 81.5323 165.922 81.6637 165.884 81.6975C165.798 81.8701 165.745 82.1291 165.595 82.2604C165.554 82.3092 165.55 82.418 165.501 82.4481C165.46 82.4931 165.456 82.6094 165.408 82.6357C165.366 82.6807 165.363 82.7971 165.314 82.8233C165.243 82.9172 165.194 83.1086 165.126 83.2024C165.089 83.2474 165.081 83.3638 165.032 83.3938C164.946 83.6828 164.8 83.9117 164.661 84.1556C164.541 84.3358 164.548 84.6698 164.376 84.8162C164.282 84.94 164.319 85.1915 164.184 85.289C164.098 85.4166 164.132 85.6643 163.997 85.7619C163.888 85.9946 163.895 86.3286 163.715 86.52C163.64 86.5763 163.693 86.7489 163.618 86.8015C163.546 86.8578 163.599 87.0304 163.52 87.0829C163.449 87.143 163.501 87.3156 163.426 87.3682C162.796 89.3197 162.454 91.4664 162.007 93.4217C161.805 93.5493 161.516 93.6468 161.339 93.7932C161.294 93.8345 161.193 93.857 161.152 93.8945C161.065 93.9583 160.934 94.0109 160.863 94.0784C160.555 94.2435 160.259 94.4312 160.015 94.6489C159.88 94.7314 159.737 94.8365 159.636 94.9341C159.437 95.0692 159.234 95.2531 159.065 95.407C159.05 95.4257 158.998 95.497 158.968 95.4933C158.529 95.8123 158.149 96.2138 157.834 96.6342C151.845 102.815 153.192 114.63 161.602 117.91C160.427 118.506 159.519 119.253 159.121 120H189.832C189.787 119.647 189.652 119.287 189.411 118.927C189.017 117.868 188.447 116.881 188.128 115.793C186.379 110.783 185.978 105.349 186.548 100.102C187.351 94.9679 188.274 88.1037 193.476 85.593C199.334 83.5176 203.38 87.9761 204.727 93.2903C206.866 100.612 206.998 108.614 204.498 115.857C204.191 116.821 203.74 117.726 203.327 118.649C203.106 119.084 202.9 119.546 202.817 120H233.52C233.22 119.291 232.461 118.593 231.197 118.086C239.063 114.119 241.116 103.532 234.811 96.6342C234.492 96.1801 234.09 95.8198 233.677 95.4933C233.655 95.482 233.584 95.4295 233.576 95.4032C233.415 95.2231 233.178 95.0767 233.006 94.9303C232.916 94.8065 232.728 94.7427 232.627 94.6451C232.379 94.3937 232.045 94.2586 231.778 94.0747C231.703 93.9884 231.549 93.9658 231.489 93.8908C231.441 93.8495 231.328 93.8457 231.306 93.7932C230.72 93.5718 230.472 93.1852 230.442 92.5885C229.943 88.8618 228.686 85.259 226.903 81.9527C225.064 78.4737 222.527 75.4413 219.634 72.788C219.281 72.5403 219.566 72.3414 219.844 72.2213C246.205 59.7578 246.456 33.8625 221.131 19.9391C218.801 18.1939 218.403 14.805 216.763 12.4482C215.337 9.70853 213.738 7.0477 211.666 4.73964C205.801 -1.97438 196.809 -2.09072 195.153 7.86583C194.088 -1.17501 185.321 -2.22207 179.639 3.80516C175.481 7.93715 173.011 13.3977 170.583 18.6518C169.472 20.3631 167.145 20.8998 165.573 22.1645C141.986 38.0057 147.457 62.61 172.426 73.0132L172.418 73.0094Z" fill="#00CE4C"/>
<path d="M188.862 6.02274C191.161 7.25506 191.85 9.50336 190.648 11.5848C189.866 12.9353 188.361 13.7186 186.848 13.5604C185.427 13.4066 184.273 12.3338 183.839 10.8108C182.998 7.83267 186.388 4.99119 188.862 6.02274Z" fill="#0E0E0E"/>
<path d="M202.243 5.98688C204.81 6.22012 206.398 7.93652 206.244 10.2027C206.142 11.6739 205.154 12.9144 203.749 13.3328C202.427 13.7212 200.941 13.2062 199.894 12.0315C197.854 9.73173 199.609 5.99395 202.243 5.98688Z" fill="#0E0E0E"/>
<path d="M187.98 9.75396C187.26 9.49521 186.995 9.0419 187.193 8.35653C187.327 7.90814 187.663 7.61371 188.15 7.48996C188.764 7.33392 189.249 7.47507 189.612 7.87589C189.866 8.15836 189.967 8.50351 189.745 8.89127C189.378 9.52504 188.756 9.71859 187.988 9.748L187.98 9.75396Z" fill="white"/>
<path d="M202.829 9.53791C202.181 9.03356 202.032 8.48522 202.399 7.85753C202.644 7.4486 203.05 7.26333 203.562 7.30175C204.209 7.35019 204.653 7.65614 204.912 8.18424C205.093 8.55592 205.107 8.93948 204.791 9.2576C204.269 9.77602 203.605 9.76291 202.838 9.53453L202.829 9.53791Z" fill="white"/>
<path d="M200.126 22.9791C201.23 22.919 202.014 22.2773 202.926 21.8044C204.315 21.6318 202.892 23.2681 202.28 23.4445C200.336 24.5628 198.085 24.1988 196.163 23.2643C194.238 23.512 192.433 24.9156 190.226 24.514C189.078 24.5778 185.73 22.9753 187.22 21.6993C187.569 21.5943 187.764 21.7932 187.929 22.0859C189.434 24.195 192.692 23.4032 194.707 22.57C196.55 21.6506 198.148 23.4332 200.13 22.9791H200.126Z" fill="#0E0E0E"/>
<path d="M195.669 74.6836H180.898C192.715 81.4805 204.837 77.5157 209.421 74.6836H195.669Z" fill="#00CE4C"/>
</g>
<path d="M1 181.46V187H26.7C7.44001 187 1 181.46 1 181.46Z" fill="#85DCFF"/>
<path d="M26.7 187H156.7C137.44 187 131 181.46 131 181.46C131 181.46 116.5 169.001 66 181.46C49.17 185.611 36.33 187 26.7 187Z" fill="#85DCFF"/>
<path d="M156.7 187H286.7C267.44 187 261 181.46 261 181.46C261 181.46 246.5 169.001 196 181.46C179.17 185.611 166.33 187 156.7 187Z" fill="#85DCFF"/>
<path d="M286.701 187H391.001V181.46C391.001 181.46 376.501 169.001 326.001 181.46C309.171 185.611 296.331 187 286.701 187Z" fill="#85DCFF"/>
<path d="M1 180.538C1 180.538 7.44001 186.077 26.7 186.077" stroke="#9DE3FF" stroke-width="2"/>
<path d="M26.7 186.077C36.33 186.077 49.17 184.688 66 180.537C116.5 168.078 131 180.537 131 180.537C131 180.537 137.44 186.077 156.7 186.077" stroke="#9DE3FF" stroke-width="2"/>
<path d="M156.7 186.077C166.33 186.077 179.17 184.688 196 180.537C246.5 168.078 261 180.537 261 180.537C261 180.537 267.44 186.077 286.7 186.077" stroke="#9DE3FF" stroke-width="2"/>
<path d="M286.701 186.077C296.331 186.077 309.171 184.688 326.001 180.537C376.501 168.078 391.001 180.537 391.001 180.537" stroke="#9DE3FF" stroke-width="2"/>
<rect width="390" height="55" transform="translate(1 187)" fill="#85DCFF"/>
<path d="M176.527 217.112C177.759 217.112 178.711 217.26 179.383 217.556C180.055 217.852 180.391 218.28 180.391 218.84C180.391 219.408 180.055 219.836 179.383 220.124C178.711 220.42 177.759 220.568 176.527 220.568C175.303 220.568 174.355 220.42 173.683 220.124C173.011 219.836 172.675 219.408 172.675 218.84C172.675 218.28 173.011 217.852 173.683 217.556C174.355 217.26 175.303 217.112 176.527 217.112ZM176.539 218.264C175.763 218.264 175.195 218.308 174.835 218.396C174.475 218.484 174.295 218.636 174.295 218.852C174.295 219.052 174.475 219.2 174.835 219.296C175.195 219.384 175.763 219.428 176.539 219.428C177.307 219.428 177.867 219.384 178.219 219.296C178.579 219.2 178.759 219.052 178.759 218.852C178.759 218.636 178.579 218.484 178.219 218.396C177.867 218.308 177.307 218.264 176.539 218.264ZM172.003 210.248H181.063V211.448H172.003V210.248ZM176.551 211.736C177.751 211.736 178.671 211.872 179.311 212.144C179.951 212.408 180.271 212.804 180.271 213.332C180.271 213.852 179.951 214.248 179.311 214.52C178.671 214.784 177.751 214.916 176.551 214.916C175.367 214.916 174.451 214.784 173.803 214.52C173.155 214.248 172.831 213.852 172.831 213.332C172.831 212.804 173.155 212.408 173.803 212.144C174.451 211.872 175.367 211.736 176.551 211.736ZM176.551 212.804C175.871 212.804 175.367 212.848 175.039 212.936C174.711 213.016 174.547 213.148 174.547 213.332C174.547 213.508 174.711 213.636 175.039 213.716C175.367 213.796 175.871 213.836 176.551 213.836C177.247 213.836 177.755 213.796 178.075 213.716C178.403 213.636 178.567 213.508 178.567 213.332C178.567 213.148 178.403 213.016 178.075 212.936C177.755 212.848 177.247 212.804 176.551 212.804ZM175.759 209.36H177.343V211.076H175.759V209.36ZM171.523 215.456H181.579V216.692H171.523V215.456ZM175.759 214.412H177.343V215.972H175.759V214.412ZM182.574 210.416H189.102V211.676H182.574V210.416ZM185.838 212.024C186.374 212.024 186.846 212.112 187.254 212.288C187.67 212.464 187.994 212.704 188.226 213.008C188.458 213.312 188.574 213.672 188.574 214.088C188.574 214.488 188.458 214.844 188.226 215.156C187.994 215.46 187.67 215.7 187.254 215.876C186.846 216.044 186.374 216.128 185.838 216.128C185.31 216.128 184.838 216.044 184.422 215.876C184.006 215.7 183.682 215.46 183.45 215.156C183.218 214.844 183.102 214.488 183.102 214.088C183.102 213.672 183.218 213.312 183.45 213.008C183.682 212.704 184.006 212.464 184.422 212.288C184.838 212.112 185.31 212.024 185.838 212.024ZM185.838 213.236C185.486 213.236 185.198 213.308 184.974 213.452C184.75 213.588 184.638 213.8 184.638 214.088C184.638 214.36 184.75 214.568 184.974 214.712C185.198 214.856 185.486 214.928 185.838 214.928C186.198 214.928 186.486 214.856 186.702 214.712C186.926 214.568 187.038 214.36 187.038 214.088C187.038 213.8 186.926 213.588 186.702 213.452C186.486 213.308 186.198 213.236 185.838 213.236ZM189.714 209.456H191.31V216.416H189.714V209.456ZM190.878 212.312H192.786V213.62H190.878V212.312ZM183.894 216.884H191.31V220.568H189.714V218.144H183.894V216.884ZM185.046 209.384H186.63V211.148H185.046V209.384ZM197.189 210.188C197.765 210.188 198.285 210.304 198.749 210.536C199.213 210.768 199.577 211.092 199.841 211.508C200.105 211.916 200.237 212.388 200.237 212.924C200.237 213.452 200.105 213.924 199.841 214.34C199.577 214.756 199.213 215.08 198.749 215.312C198.285 215.544 197.765 215.66 197.189 215.66C196.605 215.66 196.081 215.544 195.617 215.312C195.153 215.08 194.785 214.756 194.513 214.34C194.249 213.924 194.117 213.452 194.117 212.924C194.117 212.388 194.249 211.916 194.513 211.508C194.785 211.092 195.153 210.768 195.617 210.536C196.081 210.304 196.605 210.188 197.189 210.188ZM197.189 211.556C196.901 211.556 196.641 211.612 196.409 211.724C196.185 211.828 196.005 211.984 195.869 212.192C195.741 212.392 195.677 212.636 195.677 212.924C195.677 213.212 195.741 213.46 195.869 213.668C196.005 213.876 196.185 214.036 196.409 214.148C196.641 214.252 196.901 214.304 197.189 214.304C197.469 214.304 197.721 214.252 197.945 214.148C198.169 214.036 198.345 213.876 198.473 213.668C198.609 213.46 198.677 213.212 198.677 212.924C198.677 212.636 198.609 212.392 198.473 212.192C198.345 211.984 198.169 211.828 197.945 211.724C197.721 211.612 197.469 211.556 197.189 211.556ZM201.281 209.432H202.877V220.58H201.281V209.432ZM193.841 218.336L193.661 217.04C194.309 217.04 195.025 217.036 195.809 217.028C196.601 217.012 197.413 216.98 198.245 216.932C199.085 216.876 199.897 216.792 200.681 216.68L200.789 217.832C199.989 217.992 199.177 218.108 198.353 218.18C197.529 218.244 196.733 218.288 195.965 218.312C195.197 218.328 194.489 218.336 193.841 218.336ZM209.855 211.208H211.115V212.456C211.115 213.072 211.047 213.688 210.911 214.304C210.783 214.92 210.591 215.5 210.335 216.044C210.079 216.58 209.755 217.06 209.363 217.484C208.979 217.908 208.531 218.24 208.019 218.48L207.119 217.22C207.583 217.004 207.983 216.72 208.319 216.368C208.663 216.016 208.947 215.624 209.171 215.192C209.403 214.76 209.575 214.312 209.687 213.848C209.799 213.376 209.855 212.912 209.855 212.456V211.208ZM210.191 211.208H211.451V212.456C211.451 212.872 211.507 213.3 211.619 213.74C211.731 214.18 211.895 214.604 212.111 215.012C212.335 215.42 212.615 215.792 212.951 216.128C213.295 216.456 213.695 216.724 214.151 216.932L213.263 218.204C212.751 217.964 212.303 217.644 211.919 217.244C211.543 216.836 211.223 216.376 210.959 215.864C210.703 215.344 210.511 214.796 210.383 214.22C210.255 213.636 210.191 213.048 210.191 212.456V211.208ZM207.551 210.512H213.659V211.832H207.551V210.512ZM214.463 209.456H216.071V220.568H214.463V209.456ZM215.723 213.692H217.679V215H215.723V213.692ZM226.054 209.432H227.662V220.58H226.054V209.432ZM219.01 216.692H219.994C220.65 216.692 221.27 216.684 221.854 216.668C222.438 216.644 223.01 216.608 223.57 216.56C224.13 216.504 224.702 216.424 225.286 216.32L225.454 217.604C224.558 217.764 223.674 217.872 222.802 217.928C221.938 217.976 221.002 218 219.994 218H219.01V216.692ZM218.986 210.38H224.23V214.688H220.63V217.184H219.01V213.428H222.61V211.664H218.986V210.38Z" fill="#0073A0"/>
<path d="M1 236.46V242H25.65C10.97 242 1 236.46 1 236.46Z" fill="#4E72FF"/>
<path d="M25.65 242H123.15C108.47 242 98.5 236.46 98.5 236.46C98.5 236.46 77.65 224.001 50.54 236.46C41.51 240.611 32.99 242 25.65 242Z" fill="#4E72FF"/>
<path d="M123.15 242H220.65C205.97 242 196 236.46 196 236.46C196 236.46 175.15 224.001 148.04 236.46C139.01 240.611 130.49 242 123.15 242Z" fill="#4E72FF"/>
<path d="M220.65 242H318.15C303.47 242 293.5 236.46 293.5 236.46C293.5 236.46 272.65 224.001 245.54 236.46C236.51 240.611 227.99 242 220.65 242Z" fill="#4E72FF"/>
<path d="M318.15 242H391V236.46C391 236.46 370.15 224.001 343.04 236.46C334.01 240.611 325.49 242 318.15 242Z" fill="#4E72FF"/>
<path d="M1 235.538C1 235.538 10.97 241.077 25.65 241.077" stroke="#9BACF1" stroke-width="2"/>
<path d="M25.65 241.077C32.99 241.077 41.51 239.688 50.54 235.537C77.65 223.078 98.5 235.537 98.5 235.537C98.5 235.537 108.47 241.077 123.15 241.077" stroke="#9BACF1" stroke-width="2"/>
<path d="M123.15 241.077C130.49 241.077 139.01 239.688 148.04 235.537C175.15 223.078 196 235.537 196 235.537C196 235.537 205.97 241.077 220.65 241.077" stroke="#9BACF1" stroke-width="2"/>
<path d="M220.65 241.077C227.99 241.077 236.51 239.688 245.54 235.537C272.65 223.078 293.5 235.537 293.5 235.537C293.5 235.537 303.47 241.077 318.15 241.077" stroke="#9BACF1" stroke-width="2"/>
<path d="M318.15 241.077C325.49 241.077 334.01 239.688 343.04 235.537C370.15 223.078 391 235.537 391 235.537" stroke="#9BACF1" stroke-width="2"/>
<defs>
<clipPath id="clip0_771_2592">
<rect width="38" height="38" fill="white" transform="translate(24.0004 140.5)"/>
</clipPath>
<clipPath id="clip1_771_2592">
<rect width="29.9993" height="27" fill="white" transform="translate(338 146)"/>
</clipPath>
</defs>
</svg>
