<svg viewBox="0 0 342 352" fill="none" xmlns="http://www.w3.org/2000/svg">
<mask id="mask0_4152_15430" style="mask-type:alpha" maskUnits="userSpaceOnUse" x="0" y="0" width="342" height="352">
<rect width="342" height="352" fill="#D9D9D9"/>
</mask>
<g mask="url(#mask0_4152_15430)">
<path fill-rule="evenodd" clip-rule="evenodd" d="M133.31 152.53H81.3645V189.746L55.2116 163.649L18.4808 200.301L44.7501 226.514H7.22071L7.2207 278.348H45.1983L18.4391 305.05L55.1698 341.702L81.3645 315.564V352.335H133.31V314.884L160.067 341.584L196.798 304.932L170.157 278.348H207.454V226.514H170.605L196.756 200.419L160.025 163.767L133.31 190.426V152.53Z" fill="#FFA144"/>
<mask id="mask1_4152_15430" style="mask-type:alpha" maskUnits="userSpaceOnUse" x="7" y="152" width="201" height="201">
<path fill-rule="evenodd" clip-rule="evenodd" d="M133.31 152.532H81.3645V189.748L55.2116 163.651L18.4808 200.303L44.7501 226.516H7.22071L7.2207 278.35H45.1983L18.4391 305.052L55.1698 341.704L81.3645 315.566V352.337H133.31V314.886L160.067 341.586L196.798 304.934L170.157 278.35H207.454V226.516H170.605L196.756 200.421L160.025 163.769L133.31 190.427V152.532Z" fill="#FFA144"/>
</mask>
<g mask="url(#mask1_4152_15430)">
<path d="M101.497 352.741C101.349 352.817 101.224 352.864 101.095 352.88C97.8763 353.268 94.7429 354.047 91.6228 354.903C88.7102 355.702 85.7514 356.182 82.7235 356.209C81.3694 356.222 80.0185 356.308 78.6644 356.285C77.755 356.269 76.8687 356.133 76.0088 355.834C75.6331 355.705 75.2707 355.549 74.9544 355.304C74.2526 354.757 74.134 353.988 74.6381 353.255C74.9676 352.778 75.419 352.439 75.9066 352.151C76.2262 351.962 76.5623 351.793 76.8819 351.617C76.8687 351.438 76.7303 351.442 76.6348 351.405C73.2411 350.069 71.2708 347.523 70.5954 343.996C69.7882 339.782 70.9183 336.029 73.564 332.704C74.4964 331.534 75.62 330.605 77.0005 330.022C77.2509 329.916 77.3168 329.753 77.3497 329.508C78.0054 324.27 80.0152 319.579 83.0695 315.322C83.9591 314.082 84.9343 312.905 86.2127 311.967C86.0315 311.775 85.8009 311.745 85.6065 311.672C80.9213 309.885 76.839 307.2 73.4652 303.46C70.9842 300.712 69.0436 297.632 67.9464 294.065C66.5099 289.391 66.6054 284.756 68.4242 280.188C68.9447 278.881 69.6366 277.668 70.513 276.571C71.5114 275.321 72.5295 274.078 73.5871 272.878C76.19 269.92 79.2706 267.553 82.651 265.567C83.1222 265.292 83.5967 265.02 84.0711 264.752C84.4105 264.56 84.6378 264.278 84.7992 263.917C86.0018 261.205 87.3198 258.552 88.809 255.99C90.1731 253.643 91.7644 251.475 93.8896 249.754C95.0856 248.786 96.3936 248.017 97.896 247.626C99.4083 247.231 100.917 247.201 102.374 247.831C104.245 248.643 105.346 250.138 105.902 252.068C106.084 252.701 106.229 253.344 106.397 254.007C106.673 253.918 106.657 253.689 106.696 253.503C106.851 252.744 107.032 251.992 107.322 251.272C108.472 248.405 111.161 246.976 114.116 247.433C116.284 247.771 118.06 248.842 119.668 250.255C121.197 251.597 122.422 253.198 123.497 254.916C125.243 257.704 126.709 260.641 128.04 263.648C128.3 264.235 128.669 264.649 129.22 264.951C131.173 266.015 133.038 267.218 134.791 268.594C138.096 271.193 140.923 274.217 142.995 277.913C144.194 280.052 145.044 282.323 145.516 284.733C145.697 285.661 145.769 286.603 145.839 287.6C146.092 288.051 145.875 288.429 145.773 288.794C145.051 291.33 144.316 293.86 143.582 296.389C143.315 297.311 143.068 298.239 142.738 299.19C142.708 299.257 142.695 299.283 142.659 299.35C142.623 299.413 142.606 299.436 142.563 299.492C141.331 301.335 139.931 302.973 138.366 304.475C138.053 304.777 137.737 305.068 137.318 305.3C136.943 305.406 136.649 305.271 136.356 305.145C134.857 304.491 133.345 303.865 131.842 303.215C131.173 302.927 131.068 302.98 131.137 303.702C131.322 305.625 131.233 307.555 131.22 309.481C131.216 310.207 131.536 310.525 132.139 310.77C134.547 311.742 136.923 312.789 139.308 313.807C139.549 313.91 139.802 313.993 139.99 314.258C140.083 314.682 139.878 314.994 139.733 315.316C137.127 321.077 134.518 326.836 132.109 332.684C131.691 333.695 131.773 333.944 132.752 334.411C134.211 335.111 135.694 335.757 137.203 336.344C138.214 336.739 138.481 336.619 138.863 335.601C139.242 334.594 139.651 333.599 140.069 332.608C140.175 332.363 140.241 332.031 140.676 332.147C141.542 333.026 142.283 333.954 142.853 335.005C144.88 338.734 145.077 342.567 143.325 346.439C142.29 348.726 140.573 350.377 138.247 351.355C138.129 351.405 137.99 351.422 137.891 351.581C137.967 351.73 138.139 351.77 138.277 351.839C138.781 352.098 139.272 352.376 139.69 352.764C140.616 353.626 140.524 354.677 139.466 355.36C139.18 355.546 138.87 355.678 138.547 355.781C138.027 355.947 137.49 356.056 136.946 356.103C133.585 356.391 130.264 356.225 127.012 355.238C125.213 354.69 123.398 354.216 121.569 353.779C119.698 353.335 117.8 353.093 115.892 352.917C115.088 352.844 114.281 352.788 113.431 352.705C113.283 352.463 113.408 352.284 113.497 352.098C115.105 348.809 115.813 345.308 116.073 341.668C116.327 338.121 115.899 334.66 115.095 331.225C114.683 329.475 114.113 327.778 113.2 326.213C112.68 325.321 112.004 324.572 111.25 323.879C110.429 323.13 109.431 322.838 108.36 322.755C107.553 322.692 106.749 322.772 105.945 322.878C104.43 323.077 103.369 323.982 102.496 325.129C101.062 327.012 100.305 329.2 99.7873 331.484C99.27 333.771 98.9174 336.072 98.8449 338.429C98.7033 343.004 99.3161 347.424 101.22 351.621C101.375 351.962 101.573 352.297 101.497 352.741Z" fill="#00CE4C"/>
<path d="M99.8706 253.634C102.292 254.985 103.017 257.451 101.752 259.733C100.928 261.214 99.3426 262.073 97.7494 261.899C96.2526 261.731 95.0371 260.554 94.5802 258.884C93.6946 255.619 97.265 252.503 99.8706 253.634Z" fill="#0E0E0E"/>
<path d="M113.963 253.594C116.666 253.85 118.338 255.732 118.176 258.217C118.069 259.83 117.029 261.19 115.549 261.649C114.157 262.075 112.591 261.51 111.489 260.222C109.34 257.7 111.189 253.602 113.963 253.594Z" fill="#0E0E0E"/>
<path d="M98.9225 257.396C98.5734 256.687 98.6816 256.129 99.2778 255.695C99.6715 255.414 100.109 255.4 100.542 255.631C101.089 255.922 101.346 256.371 101.343 256.953C101.34 257.362 101.184 257.718 100.768 257.888C100.083 258.163 99.506 257.898 98.9321 257.396L98.9225 257.396Z" fill="white"/>
<path d="M114.579 257.488C113.896 256.935 113.739 256.334 114.126 255.645C114.384 255.197 114.811 254.994 115.351 255.036C116.032 255.089 116.5 255.425 116.773 256.004C116.964 256.411 116.978 256.832 116.645 257.181C116.095 257.749 115.396 257.735 114.589 257.484L114.579 257.488Z" fill="white"/>
<path d="M108.094 312.195H95.2363C105.523 318.205 116.075 314.699 120.066 312.195H108.094Z" fill="#00C62E"/>
<path d="M171.654 249.794C171.891 249.552 172.145 249.409 172.441 249.297C172.573 249.502 172.576 249.718 172.619 249.913C173.98 256.474 175.331 263.038 176.701 269.596C176.823 270.173 176.744 270.604 176.411 271.107C174.893 273.405 173.542 275.805 172.158 278.185C166.171 288.473 160.066 298.683 153.852 308.835C153.302 309.736 152.722 310.618 152.132 311.543C151.911 311.722 151.714 311.646 151.523 311.566C149.829 310.87 148.149 310.144 146.468 309.425C146.33 309.365 146.202 309.289 146.093 309.12C146.024 308.738 146.198 308.457 146.323 308.165C148.903 302.188 151.5 296.214 154.093 290.24C156.672 284.302 159.226 278.355 161.806 272.414C165.008 265.037 168.198 257.658 171.41 250.288C171.476 250.129 171.568 249.99 171.654 249.794Z" fill="#CECDCD"/>
<path d="M171.627 249.764C171.828 250.012 171.643 250.231 171.554 250.44C170.684 252.446 169.795 254.445 168.922 256.45C167.992 258.595 167.083 260.747 166.154 262.892C165.284 264.898 164.391 266.893 163.521 268.899C162.592 271.044 161.68 273.196 160.754 275.341C160.035 277.001 159.294 278.652 158.576 280.313C157.91 281.852 157.261 283.4 156.596 284.941C155.996 286.324 155.38 287.703 154.777 289.085C154.121 290.591 153.476 292.096 152.823 293.601C152.24 294.95 151.66 296.299 151.077 297.652C150.359 299.313 149.644 300.977 148.925 302.635C148.243 304.209 147.555 305.781 146.873 307.352C146.639 307.889 146.408 308.423 146.164 308.997C145.937 309.219 145.72 309.116 145.519 309.03C144.023 308.377 142.511 307.763 141.015 307.11C140.824 307.027 140.642 306.928 140.507 306.703C140.428 306.434 140.474 306.209 140.527 305.99C140.982 304.097 141.515 302.227 142.043 300.354C142.118 300.082 142.25 299.827 142.398 299.535C142.435 299.472 142.445 299.446 142.464 299.392C142.936 298.066 143.272 296.73 143.657 295.411C144.29 293.259 144.909 291.101 145.529 288.946C145.644 288.548 145.733 288.144 145.838 287.696C146.257 286.536 146.533 285.379 146.876 284.242C148.873 277.608 150.869 270.974 152.863 264.341C153.172 263.31 153.476 262.279 153.742 261.234C153.841 260.853 154.046 260.621 154.365 260.422C157.601 258.43 160.83 256.427 164.065 254.431C166.497 252.93 168.931 251.435 171.366 249.933C171.442 249.89 171.511 249.83 171.627 249.764Z" fill="#F3F3F3"/>
<path d="M101.524 352.788C101.346 352.446 101.244 352.098 101.089 351.776C99.781 349.035 99.1122 346.121 98.7959 343.114C98.3181 338.582 98.7794 334.136 100.048 329.773C100.552 328.04 101.264 326.402 102.371 324.956C102.845 324.336 103.425 323.833 104.035 323.355C104.242 323.193 104.476 323.067 104.73 322.987C106.229 322.53 107.751 322.4 109.296 322.692C110.713 322.957 111.711 323.859 112.571 324.946C113.613 326.269 114.295 327.781 114.782 329.379C116.133 333.821 116.64 338.353 116.166 342.985C115.906 345.534 115.402 348.024 114.453 350.411C114.153 351.163 113.843 351.912 113.398 352.642C112.809 352.645 112.225 352.619 111.646 352.569C108.98 352.347 106.315 352.393 103.652 352.632C102.96 352.701 102.269 352.745 101.524 352.788Z" fill="#DBFF9E"/>
<path d="M140.503 306.62C140.803 306.849 141.129 306.951 141.439 307.084C142.978 307.74 144.52 308.387 146.101 309.037C146.727 309.378 147.363 309.597 147.983 309.859C149.327 310.429 150.674 310.986 152.065 311.56C153.07 312.083 154.094 312.451 155.093 312.882C157.076 313.734 159.066 314.57 161.053 315.415C161.205 315.478 161.379 315.515 161.478 315.674C161.462 315.853 161.307 315.909 161.191 316.002C160.48 316.556 159.771 317.113 159.05 317.656C158.028 318.429 157.106 319.314 156.141 320.149C155.337 320.846 155.353 320.849 154.391 320.441C152.006 319.427 149.617 318.425 147.231 317.418C147.057 317.345 146.882 317.275 146.648 317.265C146.408 317.285 146.233 317.219 146.058 317.142C144.194 316.34 142.319 315.561 140.454 314.759C140.283 314.686 140.102 314.623 139.963 314.421C139.812 314.205 139.604 314.149 139.416 314.069C136.876 312.988 134.332 311.911 131.789 310.834C131.683 310.79 131.581 310.741 131.479 310.701C131.156 310.578 131.031 310.35 131.034 310.001C131.041 308.888 131.028 307.774 131.011 306.66C130.998 305.566 130.972 304.472 130.949 303.378C130.945 303.245 130.939 303.112 130.949 302.98C130.968 302.681 131.005 302.648 131.298 302.771C132.25 303.169 133.199 303.58 134.148 303.988C134.978 304.342 135.805 304.7 136.632 305.055C136.84 305.145 137.047 305.241 137.331 305.198C138.428 305.639 139.502 306.01 140.503 306.62Z" fill="#3F291E"/>
<path d="M139.925 314.421C140.739 314.603 141.463 314.998 142.221 315.306C143.635 315.886 145.038 316.496 146.445 317.096C146.495 317.116 146.534 317.159 146.59 317.225C146.297 318.25 145.849 319.185 145.457 320.139C144.353 322.818 143.229 325.487 142.116 328.162C141.674 329.22 141.236 330.281 140.805 331.345C140.709 331.577 140.528 331.812 140.699 332.131C140.412 332.104 140.366 332.336 140.291 332.525C139.842 333.646 139.398 334.769 138.953 335.89C138.897 336.029 138.854 336.178 138.782 336.308C138.571 336.686 138.268 336.818 137.836 336.739C137.427 336.662 137.045 336.503 136.663 336.341C135.243 335.741 133.823 335.141 132.429 334.481C132.241 334.392 132.057 334.302 131.909 334.153C131.681 333.921 131.573 333.656 131.671 333.331C131.727 333.152 131.78 332.969 131.853 332.797C133.941 327.718 136.185 322.709 138.445 317.706C138.936 316.625 139.421 315.538 139.925 314.421Z" fill="#9F613E"/>
<path d="M109.181 266.694C109.856 266.675 110.466 266.774 111.079 266.877C111.958 267.023 112.469 267.762 112.429 268.601C112.337 270.63 112.004 272.615 111.197 274.498C110.831 275.354 110.37 276.149 109.698 276.806C108.317 278.152 106.588 278.109 105.28 276.687C104.753 276.11 104.374 275.437 104.084 274.714C103.385 272.97 103.135 271.143 103.148 269.28C103.151 268.664 103.372 268.113 103.985 267.795C104.37 267.593 104.766 267.424 105.184 267.318C106.482 266.99 107.787 266.741 109.181 266.694Z" fill="#FF5D5D"/>
<path d="M95.79 256.289C95.8032 254.863 96.3996 253.815 97.5593 253.093C98.8147 252.31 100.291 252.625 101.124 253.849C102.357 255.652 101.503 258.324 99.4538 259.06C98.0074 259.581 96.4688 258.768 95.9877 257.217C95.8988 256.932 95.8559 256.63 95.79 256.289Z" fill="#070D07"/>
<path d="M142.461 299.363C142.464 299.366 142.48 299.36 142.477 299.356C142.474 299.353 142.461 299.356 142.461 299.363Z" fill="#FB2812"/>
<path d="M99.0158 255.622C98.8742 255.403 98.8577 255.201 98.8676 254.989C98.8939 254.468 99.2168 254.047 99.6649 253.948C100.116 253.845 100.607 254.074 100.848 254.515C100.996 254.783 101.059 255.078 101.006 255.387C100.907 255.973 100.485 256.272 99.9087 256.142C99.576 256.066 99.2761 255.917 99.0158 255.622Z" fill="#E8E7E6"/>
<path d="M86.0289 320.91C70.2441 315.351 61.2556 305.137 58.7344 300.725L83.7269 296.093C91.0712 306.681 101.814 326.469 86.0289 320.91Z" fill="#00CE4C"/>
<path d="M141.145 334.693C140.967 334.667 140.843 334.637 140.716 334.611C138.968 334.252 137.849 333.113 137.73 331.6C137.659 330.718 137.887 329.885 138.142 329.053C139.106 325.911 140.414 322.894 142.355 320.107C142.984 319.202 143.692 318.347 144.604 317.627C144.973 317.335 145.38 317.086 145.842 316.907C146.695 316.578 147.563 316.585 148.449 316.916C148.828 317.058 149.163 317.265 149.544 317.469C152.165 319.467 152.853 321.994 152.758 324.732C152.732 325.47 152.625 326.204 152.425 326.922C151.717 329.463 150.168 331.502 147.587 332.94C146.512 333.538 145.41 334.084 144.165 334.416C143.206 334.671 142.223 334.796 141.145 334.693Z" fill="#00CE4C"/>
<path d="M88.2438 251.959C88.1891 251.926 88.163 251.913 88.1396 251.894C87.8035 251.657 87.8009 251.635 88.1222 251.391C89.2348 250.546 90.3474 249.704 91.4626 248.859C91.7264 248.66 91.9954 248.467 92.2513 248.258C92.4237 248.116 92.5672 248.086 92.7705 248.21C94.5162 249.292 96.2671 250.362 98.0129 251.438C98.3438 251.643 98.3385 251.651 98.1475 252.006C97.4096 253.389 96.6717 254.773 95.9338 256.153C95.8971 256.221 95.8579 256.285 95.8265 256.355C95.7374 256.564 95.607 256.567 95.4351 256.456C94.8801 256.1 94.3199 255.75 93.7623 255.402C91.9306 254.264 90.1015 253.121 88.2438 251.959Z" fill="#060605"/>
<path d="M63.8126 295.344C59.7981 290.93 56.6949 285.983 55.3071 280.027C53.6603 272.963 54.3319 266.143 57.3845 259.587C57.5311 259.27 57.5367 259.055 57.3363 258.756C56.8915 258.094 56.7989 257.341 56.9307 256.513C56.8534 255.967 57.1148 255.61 57.4649 255.269C57.5772 255.191 57.666 255.135 57.7392 255.06C58.4263 254.375 59.251 254.097 60.1872 254.236C60.5027 254.282 60.6724 254.186 60.8606 253.947C64.4523 249.363 68.9677 246.12 74.3338 244.131C77.9068 242.809 81.6013 242.192 85.3937 242.236C88.5758 242.271 91.6919 242.771 94.7628 243.774C94.89 244.078 94.6577 244.169 94.5011 244.285C92.9863 245.393 91.4768 246.506 89.9621 247.614C87.0658 249.73 84.1722 251.849 81.2707 253.958C77.2541 256.879 73.2609 259.838 69.2677 262.791C69.0535 262.95 68.8889 263.132 68.8154 263.431C68.7785 263.632 68.7443 263.804 68.7153 264.006C68.6942 264.119 68.6497 264.194 68.6417 264.307C68.6389 264.396 68.6362 264.458 68.6204 264.544C68.602 264.646 68.5888 264.721 68.5939 264.823C68.5937 264.95 68.5674 265.041 68.5307 265.162C68.5045 265.242 68.4757 265.293 68.4625 265.379C68.4571 265.468 68.4466 265.525 68.4308 265.613C68.4071 265.718 68.3679 265.791 68.3703 265.901C68.3753 266.011 68.3648 266.089 68.3515 266.197C68.3357 266.302 68.3225 266.374 68.3328 266.482C68.3379 266.568 68.3299 266.627 68.3115 266.71C68.2696 266.82 68.2095 266.896 68.2328 267.025C68.2351 267.154 68.2089 267.248 68.1722 267.369C68.1381 267.468 68.0988 267.535 68.0961 267.643C68.0959 267.729 68.088 267.785 68.0748 267.869C68.059 267.971 68.0484 268.043 68.0508 268.148C68.0506 268.275 68.0218 268.369 67.985 268.492C67.9327 268.608 67.9091 268.699 67.914 268.828C67.9139 268.914 67.9086 268.974 67.8954 269.06C67.8796 269.162 67.8664 269.237 67.8688 269.342C67.8686 269.471 67.8397 269.565 67.803 269.686C67.7663 269.788 67.7297 269.858 67.7321 269.971C67.7346 270.062 67.724 270.124 67.7082 270.216C67.6715 270.345 67.6348 270.441 67.6424 270.576C67.6422 270.667 67.6395 270.729 67.6237 270.82C67.5974 270.944 67.5607 271.035 67.6023 271.164C67.6125 271.253 67.6072 271.312 67.5888 271.401C67.5495 271.514 67.4841 271.592 67.5178 271.724C67.5255 271.81 67.5202 271.869 67.4992 271.955C67.4599 272.068 67.3945 272.143 67.4178 272.275C67.4202 272.404 67.3939 272.501 67.3572 272.621C67.3205 272.721 67.2812 272.791 67.2811 272.901C67.2809 272.99 67.273 273.046 67.2572 273.132C67.2283 273.253 67.1994 273.344 67.2305 273.468C67.2381 273.6 67.2119 273.697 67.1751 273.82C67.1385 273.922 67.0992 273.995 67.1016 274.108C67.1041 274.202 67.0935 274.261 67.0777 274.353C67.041 274.482 67.0043 274.578 67.0093 274.713C67.0091 274.804 67.0064 274.866 66.9906 274.955C66.9643 275.078 66.925 275.17 66.9587 275.299C66.9663 275.431 66.9401 275.527 66.9033 275.654C66.8666 275.756 66.8274 275.828 66.8298 275.941C66.8297 276.033 66.8217 276.095 66.8059 276.186C66.7796 276.296 66.7404 276.371 66.7428 276.49C66.753 276.608 66.7398 276.694 66.7214 276.81C66.6977 276.925 66.6558 277 66.653 277.121C66.6555 277.218 66.6475 277.283 66.6317 277.38C66.5924 277.511 66.5557 277.611 66.5607 277.753C66.5631 277.85 66.5578 277.914 66.542 278.009C66.5183 278.121 66.4764 278.197 66.4736 278.315C66.4761 278.409 66.4681 278.471 66.4523 278.562C66.4103 278.705 66.371 278.82 66.4308 278.968C66.4436 279.06 66.4409 279.119 66.4225 279.208C66.3858 279.326 66.3153 279.401 66.3411 279.536C66.3435 279.667 66.3172 279.764 66.2779 279.888C66.2412 279.99 66.202 280.06 66.2018 280.175C66.2016 280.267 66.1937 280.328 66.1779 280.42C66.1542 280.53 66.1124 280.603 66.1148 280.718C66.1224 280.831 66.1118 280.915 66.096 281.025C66.0723 281.151 66.033 281.245 66.0745 281.374C66.0848 281.466 66.0795 281.528 66.0584 281.616C66.0008 281.751 65.9224 281.845 65.9743 282.006C65.9794 282.076 65.9741 282.116 65.9583 282.186C65.8746 282.337 65.8275 282.463 65.8376 282.64C65.8349 282.713 65.8322 282.753 65.819 282.826C65.7771 282.955 65.7456 283.054 65.7532 283.191C65.7556 283.288 65.7503 283.35 65.7345 283.447C65.7082 283.56 65.6689 283.635 65.6661 283.753C65.6738 283.869 65.6632 283.949 65.6473 284.062C65.621 284.189 65.5844 284.283 65.6259 284.415C65.6362 284.506 65.6308 284.568 65.6098 284.657C65.5496 284.791 65.4712 284.888 65.4839 285.046C65.4864 285.14 65.4785 285.2 65.4627 285.294C65.4364 285.406 65.3971 285.482 65.3969 285.6C65.4071 285.718 65.394 285.804 65.3755 285.92C65.3518 286.036 65.31 286.111 65.3045 286.229C65.307 286.326 65.2991 286.388 65.2806 286.484C65.2544 286.597 65.2125 286.673 65.2123 286.791C65.2147 286.888 65.2068 286.952 65.191 287.046C65.1516 287.178 65.1149 287.277 65.1225 287.42C65.125 287.517 65.1196 287.581 65.1038 287.678C65.0775 287.794 65.0357 287.869 65.0355 287.99C65.0457 288.108 65.0325 288.194 65.0141 288.312C64.9904 288.428 64.9459 288.506 64.9431 288.624C64.9455 288.721 64.9376 288.786 64.9218 288.882C64.8824 289.014 64.8457 289.113 64.8507 289.256C64.8532 289.353 64.8478 289.417 64.832 289.511C64.8084 289.624 64.7639 289.699 64.7637 289.818C64.7661 289.912 64.7582 289.976 64.7398 290.071C64.7161 290.181 64.6742 290.256 64.6714 290.372C64.6739 290.466 64.666 290.527 64.6501 290.619C64.6056 290.764 64.5715 290.877 64.6312 291.028C64.6441 291.119 64.6387 291.181 64.6203 291.272C64.5653 291.407 64.4791 291.498 64.4919 291.659C64.4943 291.748 64.4864 291.807 64.4706 291.896C64.4417 292.019 64.4128 292.111 64.4517 292.237C64.462 292.329 64.4567 292.388 64.4357 292.477C64.3755 292.611 64.297 292.705 64.3098 292.864C64.3123 292.955 64.3043 293.017 64.2885 293.108C64.2649 293.218 64.223 293.294 64.2228 293.409C64.2253 293.503 64.2173 293.568 64.1989 293.662C64.1726 293.775 64.1308 293.85 64.1332 293.968C64.1356 294.065 64.1277 294.13 64.1119 294.224C64.0725 294.355 64.0358 294.458 64.0434 294.6C64.0458 294.7 64.0405 294.764 64.0221 294.861C63.9775 294.998 63.946 295.103 63.9015 295.24C63.8727 295.294 63.857 295.312 63.8126 295.344Z" fill="#CECDCD"/>
<path d="M68.7139 263.459C68.6805 263.123 68.8426 262.908 69.075 262.75C70.54 261.757 71.9113 260.633 73.3477 259.598C74.771 258.57 76.1734 257.516 77.5889 256.478C79.4379 255.118 81.2896 253.76 83.1438 252.408C84.4026 251.488 85.6692 250.576 86.928 249.656C89.0721 248.09 91.211 246.515 93.3525 244.946C93.7286 244.672 94.1099 244.404 94.4859 244.133C94.593 244.055 94.7287 244.007 94.7838 243.827C94.9874 243.757 95.1571 243.672 95.3164 243.551C95.5802 243.352 95.857 243.17 96.1233 242.977C96.2774 242.864 96.4418 242.827 96.6296 242.851C99.1017 243.17 101.343 244.08 103.328 245.646C103.766 245.991 103.812 246.225 103.592 246.746C103.443 247.096 103.226 247.415 103.137 247.829C103.139 248.076 103.034 248.248 102.943 248.42C101.556 251.058 100.153 253.691 98.7323 256.31C96.7541 259.961 94.7551 263.598 92.7926 267.257C91.4345 269.79 90.0452 272.308 88.6897 274.841C88.5327 275.134 88.3627 275.426 88.0806 275.663C87.778 275.686 87.5722 275.514 87.3611 275.379C84.6697 273.667 81.9756 271.96 79.2842 270.248C76.4546 268.444 73.6277 266.64 70.8008 264.834C70.1103 264.389 69.4277 263.928 68.7139 263.459Z" fill="#939393"/>
<path d="M68.6813 263.467C68.8614 263.416 69.0021 263.468 69.1506 263.565C71.1959 264.891 73.2411 266.218 75.2942 267.531C77.0712 268.666 78.8585 269.782 80.6355 270.915C82.3238 271.991 84.0069 273.08 85.6953 274.158C86.4508 274.641 87.2117 275.113 87.9985 275.603C88.1755 275.819 88.024 275.967 87.9298 276.109C85.375 279.928 82.8592 283.777 80.3147 287.604C79.5851 288.703 78.8633 289.809 78.1389 290.913C75.882 294.351 73.6225 297.783 71.2979 301.173C71.2116 301.296 71.1384 301.433 70.9765 301.524C70.6396 301.766 70.4434 302.099 70.2342 302.408C69.9178 302.875 69.5787 302.874 69.2009 302.669C68.1741 302.119 67.1762 301.518 66.2985 300.731C65.3089 299.845 64.4786 298.811 63.7241 297.707C63.6122 297.543 63.6099 297.363 63.6311 297.18C63.6787 296.771 63.7368 296.363 63.7897 295.954C63.8135 295.771 63.8503 295.591 63.7855 295.384C63.7934 295.341 63.8012 295.327 63.8299 295.298C63.9136 295.185 63.906 295.07 63.9245 294.932C63.9351 294.841 63.943 294.777 63.9562 294.68C64.0008 294.54 63.9932 294.427 64.0169 294.29C64.0301 294.199 64.0354 294.134 64.0486 294.037C64.0775 293.927 64.088 293.849 64.1039 293.739C64.1145 293.645 64.1198 293.58 64.133 293.483C64.1671 293.376 64.1803 293.295 64.1909 293.185C64.2015 293.091 64.2068 293.026 64.22 292.93C64.2803 292.785 64.2596 292.656 64.3042 292.508C64.3174 292.416 64.3254 292.357 64.3359 292.266C64.357 292.164 64.3597 292.088 64.3703 291.986C64.3809 291.895 64.3863 291.83 64.3995 291.733C64.4597 291.588 64.4391 291.459 64.4837 291.311C64.4995 291.22 64.5074 291.161 64.518 291.07C64.5443 290.938 64.5366 290.836 64.5603 290.704C64.5735 290.61 64.5763 290.545 64.5921 290.449C64.6236 290.341 64.6341 290.26 64.6474 290.15C64.658 290.056 64.6633 289.992 64.6791 289.895C64.7132 289.787 64.7238 289.707 64.7344 289.596C64.7424 289.502 64.7477 289.438 64.7609 289.341C64.8185 289.204 64.8135 289.091 64.8294 288.951C64.84 288.86 64.8453 288.795 64.8585 288.699C64.8926 288.591 64.9058 288.51 64.9138 288.4C64.9271 288.276 64.935 288.185 64.9535 288.056C64.985 287.946 64.9956 287.865 65.0088 287.755C65.0194 287.661 65.0247 287.596 65.0379 287.5C65.0903 287.363 65.0827 287.247 65.1038 287.11C65.1144 287.018 65.1223 286.954 65.1356 286.857C65.167 286.75 65.1776 286.669 65.1882 286.559C65.1988 286.465 65.2042 286.4 65.2174 286.303C65.2541 286.196 65.2672 286.118 65.2753 286.005C65.2885 285.881 65.2965 285.79 65.315 285.661C65.3491 285.551 65.3596 285.47 65.3703 285.36C65.3809 285.266 65.3862 285.201 65.3994 285.104C65.4596 284.959 65.4364 284.83 65.4862 284.685C65.502 284.594 65.5099 284.535 65.5205 284.44C65.539 284.338 65.5417 284.263 65.5523 284.161C65.5655 284.04 65.5735 283.946 65.592 283.819C65.6235 283.709 65.6315 283.629 65.6473 283.518C65.6579 283.424 65.6632 283.36 65.6764 283.263C65.7262 283.126 65.7212 283.01 65.7423 282.873C65.7529 282.809 65.7555 282.771 65.7635 282.707C65.8394 282.537 65.7927 282.376 65.8556 282.201C65.8688 282.137 65.8741 282.102 65.8794 282.043C65.9109 281.908 65.8955 281.79 65.94 281.65C65.9558 281.556 65.9638 281.494 65.9744 281.403C65.9928 281.301 65.9929 281.225 66.0061 281.123C66.0194 281.002 66.0274 280.908 66.0459 280.782C66.0773 280.672 66.0853 280.591 66.1011 280.481C66.1117 280.387 66.1171 280.322 66.1303 280.225C66.1644 280.118 66.1749 280.037 66.1856 279.927C66.2067 279.795 66.2251 279.693 66.2462 279.559C66.2646 279.446 66.2648 279.36 66.2989 279.25C66.3147 279.158 66.3226 279.096 66.3332 279.008C66.3621 278.876 66.3545 278.774 66.373 278.642C66.3862 278.548 66.3915 278.483 66.4047 278.387C66.4362 278.279 66.4468 278.198 66.4548 278.088C66.4654 277.994 66.4707 277.93 66.4839 277.833C66.5363 277.696 66.5313 277.583 66.5498 277.443C66.5604 277.352 66.5657 277.287 66.5789 277.19C66.613 277.083 66.6236 277.002 66.6342 276.892C66.6474 276.768 66.6554 276.677 66.6739 276.548C66.7054 276.438 66.7134 276.357 66.7292 276.247C66.7398 276.153 66.7451 276.088 66.7583 275.991C66.7924 275.884 66.8056 275.803 66.8136 275.693C66.8347 275.561 66.8531 275.459 66.8742 275.325C66.8927 275.22 66.8928 275.147 66.906 275.045C66.9166 274.954 66.9219 274.889 66.9351 274.792C66.9875 274.655 66.9825 274.542 67.0036 274.403C67.0168 274.311 67.0222 274.247 67.038 274.15C67.0695 274.043 67.0774 273.962 67.088 273.852C67.1117 273.72 67.1276 273.618 67.1513 273.483C67.1671 273.379 67.1672 273.306 67.183 273.206C67.1936 273.115 67.2016 273.051 67.2148 272.954C67.2463 272.846 67.2568 272.766 67.2675 272.655C67.2912 272.524 67.307 272.422 67.3307 272.287C67.3465 272.174 67.3467 272.088 67.3834 271.978C67.3992 271.887 67.4071 271.825 67.4177 271.733C67.4362 271.62 67.4389 271.534 67.4704 271.424C67.4862 271.333 67.4942 271.271 67.5047 271.182C67.5258 271.08 67.5285 271.005 67.5365 270.903C67.5445 270.811 67.5498 270.747 67.563 270.65C67.6207 270.513 67.6156 270.4 67.6315 270.26C67.6421 270.169 67.6474 270.104 67.6606 270.008C67.6947 269.9 67.7079 269.819 67.7185 269.709C67.7396 269.577 67.7581 269.475 67.7792 269.341C67.7897 269.268 67.795 269.228 67.803 269.155C67.8136 269.059 67.8189 268.994 67.8321 268.897C67.8897 268.76 67.8847 268.647 67.9006 268.508C67.9243 268.378 67.9401 268.274 67.9638 268.142C67.9718 268.069 67.977 268.029 67.9876 267.959C67.9982 267.865 68.0061 267.801 68.0193 267.704C68.0534 267.596 68.0666 267.518 68.0746 267.405C68.0957 267.274 68.1168 267.172 68.1405 267.037C68.1563 266.924 68.1564 266.838 68.1932 266.728C68.209 266.637 68.2169 266.575 68.2275 266.483C68.238 266.411 68.2433 266.37 68.2513 266.301C68.2645 266.177 68.2751 266.083 68.2936 265.956C68.3251 265.846 68.3357 265.766 68.3489 265.655C68.3621 265.561 68.37 265.497 68.3832 265.4C68.4016 265.317 68.4174 265.268 68.4305 265.19C68.4516 265.061 68.4701 264.959 68.4938 264.827C68.5069 264.755 68.5122 264.715 68.5202 264.645C68.5308 264.551 68.5387 264.486 68.5519 264.389C68.5886 264.282 68.6044 264.204 68.6124 264.094C68.6336 263.887 68.6522 263.693 68.6813 263.467Z" fill="#5B5B5B"/>
<path d="M57.469 255.239C57.317 255.645 57.0712 256 56.9505 256.448C55.8255 256.906 54.8228 257.539 53.8774 258.261C50.4926 260.852 48.181 264.228 47.0314 268.418C46.3621 270.859 46.3083 273.319 47.0135 275.772C47.0576 275.926 47.1278 276.085 47.0439 276.3C46.8433 276.151 46.6975 275.99 46.5596 275.815C45.5706 274.544 45.0776 273.064 44.8638 271.475C44.65 269.893 44.7519 268.323 45.0858 266.767C45.1121 266.64 45.1853 266.514 45.0943 266.361C44.9481 266.436 44.8722 266.57 44.7912 266.691C43.1751 269.078 41.9761 271.666 41.3322 274.512C40.8223 276.773 40.701 279.058 40.8822 281.368C40.9588 282.342 40.9988 283.315 41.0596 284.404C40.7913 284.148 40.6639 283.922 40.5522 283.68C39.6062 281.662 38.9708 279.55 38.6747 277.326C38.2652 274.281 38.4998 271.299 39.4334 268.378C39.9264 266.841 40.6096 265.398 41.4623 264.039C41.5434 263.91 41.6088 263.773 41.6769 263.609C41.6718 263.577 41.6979 263.542 41.6796 263.553C41.544 263.558 41.4734 263.644 41.3924 263.708C37.66 266.703 34.7115 270.36 32.6095 274.736C31.1306 277.818 30.3008 281.067 30.2948 284.52C30.2947 284.595 30.2867 284.673 30.2788 284.748C30.2788 284.757 30.2605 284.765 30.25 284.778C30.1275 284.743 30.1251 284.622 30.0887 284.53C29.3044 282.542 28.8333 280.476 28.6909 278.333C28.3706 273.479 29.5077 268.99 31.9275 264.845C34.295 260.787 37.5477 257.697 41.6984 255.65C44.8598 254.091 48.1944 253.4 51.6943 253.664C53.6998 253.818 55.6265 254.309 57.469 255.239Z" fill="#F7D463"/>
<path d="M70.9726 301.554C70.9992 301.266 71.1847 301.078 71.3311 300.869C72.8765 298.637 74.3697 296.37 75.8656 294.103C77.921 290.988 79.9687 287.869 82.0268 284.754C83.8312 282.02 85.6435 279.291 87.4505 276.557C87.6414 276.267 87.8714 276.001 88.0207 275.646C88.9753 274.15 89.7266 272.57 90.5691 271.039C91.6968 268.987 92.8063 266.926 93.9236 264.869C94.8708 263.117 95.8128 261.36 96.7626 259.611C97.8433 257.621 98.937 255.636 100.01 253.642C100.824 252.13 101.614 250.601 102.423 249.086C102.637 248.686 102.82 248.264 103.108 247.875C103.942 248.395 104.708 249.001 105.476 249.602C105.869 249.91 105.908 250.033 105.636 250.474C105.142 251.277 104.637 252.072 104.127 252.864C103.016 254.589 101.972 256.356 100.907 258.11C96.8346 264.817 92.7671 271.524 88.697 278.234C85.0141 284.305 81.3364 290.381 77.6378 296.44C76.5837 298.165 75.4618 299.846 74.2228 301.441C74.0084 301.715 73.8227 302.013 73.6344 302.306C73.3886 302.687 73.2085 302.751 72.8176 302.557C72.1999 302.258 71.5823 301.953 70.9726 301.554Z" fill="#CECDCD"/>
<path d="M65.832 282.196C65.8944 282.338 65.928 282.5 65.7869 282.666C65.7167 282.524 65.6987 282.362 65.832 282.196Z" fill="#868280"/>
<path d="M66.3459 278.637C66.4499 278.729 66.4445 278.839 66.348 278.968C66.2492 278.876 66.2546 278.766 66.3459 278.637Z" fill="#868280"/>
<path d="M66.5232 277.446C66.635 277.546 66.6295 277.667 66.5069 277.793C66.4394 277.693 66.437 277.58 66.5232 277.446Z" fill="#868280"/>
<path d="M64.5432 290.69C64.6446 290.782 64.6418 290.892 64.5452 291.021C64.4464 290.929 64.4492 290.819 64.5432 290.69Z" fill="#868280"/>
<path d="M66.9766 274.408C67.0858 274.51 67.083 274.629 66.9578 274.758C66.8929 274.655 66.8878 274.542 66.9766 274.408Z" fill="#868280"/>
<path d="M67.6045 270.269C67.7189 270.371 67.7161 270.489 67.5857 270.616C67.526 270.516 67.5183 270.4 67.6045 270.269Z" fill="#868280"/>
<path d="M67.8761 268.522C67.9879 268.624 67.9877 268.743 67.8572 268.869C67.7923 268.766 67.7899 268.653 67.8761 268.522Z" fill="#868280"/>
<path d="M64.4702 291.304C64.5429 291.418 64.5635 291.547 64.4357 291.684C64.3604 291.571 64.358 291.444 64.4702 291.304Z" fill="#868280"/>
<path d="M64.2906 292.499C64.3633 292.612 64.3813 292.741 64.2561 292.878C64.1782 292.765 64.1784 292.639 64.2906 292.499Z" fill="#868280"/>
<path d="M63.9993 294.285C64.1085 294.385 64.1005 294.503 63.9857 294.635C63.9156 294.535 63.9106 294.42 63.9993 294.285Z" fill="#868280"/>
<path d="M63.908 294.926C64.0172 295.031 64.0196 295.152 63.8788 295.271C63.8217 295.168 63.8219 295.055 63.908 294.926Z" fill="#868280"/>
<path d="M64.8077 288.949C64.9221 289.051 64.9167 289.17 64.7889 289.296C64.724 289.193 64.7216 289.08 64.8077 288.949Z" fill="#868280"/>
<path d="M65.0788 287.107C65.1906 287.21 65.1852 287.328 65.0626 287.457C64.9976 287.355 64.9926 287.242 65.0788 287.107Z" fill="#868280"/>
<path d="M65.4648 284.68C65.5349 284.794 65.5529 284.923 65.4276 285.06C65.3523 284.947 65.3499 284.817 65.4648 284.68Z" fill="#868280"/>
<path d="M65.9183 281.639C65.9833 281.741 65.9935 281.86 65.8995 281.999C65.7903 281.894 65.8035 281.771 65.9183 281.639Z" fill="#868280"/>
<path d="M65.7116 282.876C65.8234 282.976 65.818 283.097 65.6954 283.226C65.6278 283.124 65.6228 283.011 65.7116 282.876Z" fill="#868280"/>
<path d="M65.5285 284.155C65.6221 284.217 65.6272 284.297 65.5385 284.4C65.45 284.335 65.4502 284.254 65.5285 284.155Z" fill="#868280"/>
<path d="M68.0493 267.414C68.1585 267.484 68.148 267.575 68.041 267.675C67.9813 267.602 67.9762 267.518 68.0493 267.414Z" fill="#868280"/>
<path d="M68.1739 266.732C68.2337 266.805 68.2414 266.893 68.1631 267.001C68.059 266.928 68.0748 266.834 68.1739 266.732Z" fill="#868280"/>
<path d="M68.3276 265.666C68.4342 265.739 68.4211 265.828 68.3194 265.927C68.257 265.855 68.2545 265.771 68.3276 265.666Z" fill="#868280"/>
<path d="M68.593 264.102C68.7023 264.175 68.6917 264.266 68.5795 264.363C68.5198 264.287 68.5199 264.204 68.593 264.102Z" fill="#868280"/>
<path d="M65.3458 285.357C65.4551 285.427 65.4419 285.518 65.3402 285.618C65.2778 285.547 65.2727 285.461 65.3458 285.357Z" fill="#868280"/>
<path d="M64.3546 291.976C64.4509 292.038 64.4559 292.119 64.3646 292.221C64.2762 292.159 64.2789 292.075 64.3546 291.976Z" fill="#868280"/>
<path d="M65.2505 286.001C65.3623 286.073 65.3543 286.162 65.2422 286.262C65.1824 286.192 65.18 286.105 65.2505 286.001Z" fill="#868280"/>
<path d="M64.1723 293.177C64.2816 293.249 64.271 293.338 64.1641 293.438C64.1043 293.368 64.0992 293.281 64.1723 293.177Z" fill="#868280"/>
<path d="M64.0864 293.731C64.1904 293.804 64.1799 293.893 64.0781 293.992C64.0132 293.922 64.0107 293.836 64.0864 293.731Z" fill="#868280"/>
<path d="M65.1661 286.553C65.2728 286.623 65.2648 286.712 65.1605 286.814C65.0981 286.744 65.093 286.661 65.1661 286.553Z" fill="#868280"/>
<path d="M64.9865 287.75C65.0931 287.82 65.0852 287.911 64.9808 288.011C64.9106 287.941 64.9134 287.855 64.9865 287.75Z" fill="#868280"/>
<path d="M64.8921 288.395C65.0039 288.465 64.9933 288.556 64.8838 288.656C64.824 288.583 64.8216 288.5 64.8921 288.395Z" fill="#868280"/>
<path d="M64.714 289.592C64.8232 289.662 64.8153 289.753 64.7083 289.853C64.646 289.78 64.6383 289.696 64.714 289.592Z" fill="#868280"/>
<path d="M64.6284 290.142C64.735 290.215 64.7218 290.303 64.6201 290.403C64.5577 290.333 64.5501 290.247 64.6284 290.142Z" fill="#868280"/>
<path d="M65.9796 281.118C66.0733 281.18 66.0757 281.261 65.9896 281.363C65.9038 281.298 65.904 281.217 65.9796 281.118Z" fill="#868280"/>
<path d="M66.6098 276.892C66.7191 276.962 66.7085 277.054 66.6016 277.153C66.5392 277.08 66.5341 276.997 66.6098 276.892Z" fill="#868280"/>
<path d="M66.7016 276.247C66.8057 276.32 66.7951 276.408 66.6934 276.508C66.631 276.438 66.6259 276.352 66.7016 276.247Z" fill="#868280"/>
<path d="M66.7866 275.697C66.8958 275.767 66.8879 275.858 66.7783 275.958C66.7186 275.885 66.7135 275.801 66.7866 275.697Z" fill="#868280"/>
<path d="M66.8817 275.045C66.9754 275.107 66.9778 275.188 66.8943 275.287C66.8085 275.228 66.8061 275.144 66.8817 275.045Z" fill="#868280"/>
<path d="M67.0613 273.855C67.168 273.925 67.16 274.014 67.0583 274.116C66.9933 274.046 66.9882 273.963 67.0613 273.855Z" fill="#868280"/>
<path d="M67.1583 273.204C67.2494 273.266 67.2492 273.347 67.1683 273.446C67.0773 273.387 67.0775 273.306 67.1583 273.204Z" fill="#868280"/>
<path d="M67.2433 272.658C67.3499 272.728 67.3394 272.817 67.2376 272.919C67.1726 272.849 67.1676 272.765 67.2433 272.658Z" fill="#868280"/>
<path d="M67.3615 271.976C67.4213 272.049 67.4289 272.138 67.3506 272.245C67.244 272.172 67.2624 272.081 67.3615 271.976Z" fill="#868280"/>
<path d="M67.4489 271.422C67.5113 271.495 67.5163 271.584 67.4354 271.694C67.3314 271.618 67.3524 271.527 67.4489 271.422Z" fill="#868280"/>
<path d="M66.4275 278.089C66.5368 278.159 66.5288 278.248 66.4245 278.35C66.3621 278.28 66.357 278.194 66.4275 278.089Z" fill="#868280"/>
<path d="M67.5099 270.905C67.6062 270.967 67.6112 271.048 67.5199 271.15C67.4367 271.085 67.4368 271.005 67.5099 270.905Z" fill="#868280"/>
<path d="M66.0708 280.48C66.1748 280.553 66.1642 280.642 66.0625 280.741C66.0001 280.671 65.9925 280.585 66.0708 280.48Z" fill="#868280"/>
<path d="M65.6202 283.518C65.7243 283.588 65.7163 283.68 65.6146 283.779C65.5496 283.706 65.5445 283.623 65.6202 283.518Z" fill="#868280"/>
<path d="M67.6912 269.714C67.7979 269.787 67.7899 269.876 67.6804 269.975C67.6232 269.902 67.6181 269.819 67.6912 269.714Z" fill="#868280"/>
<path d="M66.2743 279.244C66.3366 279.317 66.3443 279.405 66.266 279.516C66.1594 279.44 66.1804 279.349 66.2743 279.244Z" fill="#868280"/>
<path d="M66.1557 279.927C66.2624 279.997 66.2544 280.088 66.1475 280.188C66.0877 280.118 66.0826 280.034 66.1557 279.927Z" fill="#868280"/>
<path d="M67.7819 269.153C67.8549 269.188 67.8653 269.242 67.7973 269.312C67.7243 269.274 67.7192 269.223 67.7819 269.153Z" fill="#868280"/>
<path d="M67.9667 267.956C68.0397 267.991 68.05 268.045 67.982 268.115C67.9116 268.08 67.9013 268.026 67.9667 267.956Z" fill="#868280"/>
<path d="M68.2333 266.301C68.3064 266.336 68.3141 266.39 68.2461 266.46C68.1757 266.422 68.1706 266.369 68.2333 266.301Z" fill="#868280"/>
<path d="M68.411 265.201C68.5051 265.244 68.4893 265.306 68.4081 265.376C68.3584 265.333 68.3559 265.276 68.411 265.201Z" fill="#868280"/>
<path d="M68.5039 264.642C68.5769 264.68 68.5873 264.731 68.5167 264.801C68.4463 264.766 68.4386 264.712 68.5039 264.642Z" fill="#868280"/>
<path d="M81.2856 262.243C80.0766 261.483 78.8989 260.742 77.7186 259.997C77.6561 259.957 77.5884 259.922 77.5258 259.881C77.2106 259.674 77.208 259.652 77.5214 259.411C78.8847 258.373 80.2559 257.345 81.614 256.299C81.8438 256.122 82.0186 256.141 82.2504 256.284C84.1864 257.484 86.1328 258.67 88.0713 259.865C89.4106 260.69 90.7498 261.518 92.0891 262.346C92.4929 262.596 92.4981 262.599 92.2783 263.018C91.5404 264.418 90.7972 265.817 90.054 267.217C89.8604 267.582 89.8421 267.585 89.4773 267.358C87.888 266.366 86.2986 265.374 84.7092 264.382C83.5784 263.673 82.445 262.966 81.2856 262.243Z" fill="#060605"/>
<path d="M78.8903 285.569C76.3551 283.997 73.8511 282.439 71.3446 280.883C70.5942 280.416 69.8491 279.942 69.0934 279.483C68.8928 279.362 68.8487 279.225 68.883 278.993C69.1494 277.287 69.4053 275.58 69.6612 273.873C69.6639 273.856 69.6639 273.843 69.6665 273.827C69.7324 273.448 69.8159 273.402 70.1338 273.591C70.5064 273.812 70.8764 274.041 71.2464 274.268C74.0917 276.013 76.9396 277.757 79.7849 279.505C80.4493 279.912 81.1137 280.316 81.7756 280.726C82.1143 280.934 82.1272 280.987 81.9075 281.334C81.0419 282.69 80.1684 284.041 79.3027 285.395C79.2085 285.537 79.1274 285.691 78.8903 285.569Z" fill="#060505"/>
<path d="M73.3266 294.696C73.0782 295.08 72.8506 295.44 72.6127 295.792C72.4244 296.071 72.3461 296.09 72.0647 295.917C70.4362 294.909 68.8156 293.887 67.1793 292.892C66.8536 292.695 66.8253 292.445 66.8754 292.122C66.9994 291.321 67.1155 290.52 67.2395 289.719C67.374 288.842 67.5112 287.969 67.6561 287.092C67.7247 286.678 67.7377 286.673 68.079 286.881C69.8039 287.932 71.5262 288.989 73.2485 290.044C73.8608 290.419 74.4758 290.791 75.0881 291.168C75.4424 291.387 75.4424 291.395 75.2123 291.755C74.5872 292.727 73.9674 293.697 73.3266 294.696Z" fill="#060605"/>
<path d="M97.7213 253.169C97.9474 252.771 98.1616 252.402 98.3641 252.028C98.5252 251.731 98.5072 251.65 98.2334 251.465C96.6405 250.398 95.0394 249.344 93.4548 248.263C93.1404 248.048 92.9099 248.131 92.6506 248.319C92.0064 248.785 91.3587 249.243 90.7144 249.709C90.0092 250.218 89.3074 250.728 88.6068 251.246C88.2758 251.491 88.2769 251.505 88.6075 251.731C90.2803 252.868 91.9566 254.001 93.6306 255.135C94.2257 255.538 94.8196 255.945 95.4171 256.347C95.7628 256.58 95.7698 256.576 95.9829 256.205C96.5569 255.2 97.1308 254.201 97.7213 253.169Z" fill="#060605"/>
<path d="M41.6631 263.571C41.6765 263.549 41.6979 263.511 41.7032 263.514C41.7352 263.528 41.7378 263.552 41.6898 263.579C41.6711 263.579 41.6658 263.574 41.6631 263.571Z" fill="#FB2912"/>
<path d="M51.7279 282.823C51.8629 282.683 51.9702 282.596 52.0737 282.502C53.5129 281.212 55.3753 281.096 57.0167 282.168C57.9735 282.791 58.6985 283.645 59.406 284.522C62.0752 287.836 64.4058 291.361 66.112 295.275C66.6668 296.544 67.1213 297.846 67.3113 299.225C67.3894 299.785 67.3995 300.344 67.3037 300.898C67.1242 301.92 66.5882 302.694 65.705 303.231C65.3267 303.461 64.9074 303.6 64.4634 303.783C60.7948 304.579 57.7551 303.228 54.9752 301.008C54.2259 300.411 53.5303 299.742 52.9073 299.003C50.7056 296.388 49.535 293.409 49.6181 289.972C49.6533 288.541 49.7591 287.125 50.1736 285.75C50.4939 284.69 50.9636 283.71 51.7279 282.823Z" fill="#00CE4C"/>
<path d="M84.4605 204.003V207.762H81.5641V208.777H85.6954V209.974H75.9661V208.777H80.0641V207.762H77.1677V204.003H84.4605ZM77.0434 211.939V210.766H84.5103V214.251H83.0144V211.939H77.0434ZM78.6304 206.589H82.9896V205.168H78.6304V206.589ZM96.0913 211.868V213.066H86.3372V211.868H88.7571V209.842H87.1452V208.636H88.5747V205.636H87.0996V204.434H95.2792V205.636H93.775V208.636H95.2294V209.842H93.6217V211.868H96.0913ZM90.0664 208.636H92.2999V205.636H90.0664V208.636ZM90.2571 211.868H92.1217V209.842H90.2571V211.868ZM106.45 208.363V209.473H96.6958V208.363H106.45ZM97.8105 211.039V210.003H105.286V212.523H99.3063V213.132H105.596V214.151H97.8188V211.574H103.802V211.039H97.8105ZM97.8933 204.791V203.776H105.273V206.278H99.3975V206.85H105.455V207.861H97.9099V205.329H103.773V204.791H97.8933ZM119.686 205.139V206.353H118.306V207.443H119.686V208.657H118.306V210.356H116.806V203.577H118.306V205.139H119.686ZM109.841 205.769V204.6H112.265V203.519H113.757V204.6H116.172V205.769H109.841ZM110.363 208.048C110.359 206.908 111.436 206.133 113.011 206.129C114.556 206.133 115.634 206.908 115.634 208.048C115.634 209.195 114.556 209.958 113.011 209.958C111.44 209.958 110.359 209.195 110.363 208.048ZM111.208 212.357C111.2 211.16 112.58 210.455 114.817 210.455C117.018 210.455 118.418 211.16 118.422 212.357C118.418 213.534 117.018 214.251 114.817 214.247C112.58 214.251 111.2 213.534 111.208 212.357ZM111.817 208.048C111.817 208.574 112.294 208.852 113.011 208.847C113.723 208.852 114.212 208.574 114.217 208.048C114.212 207.513 113.723 207.223 113.011 207.219C112.294 207.223 111.817 207.513 111.817 208.048ZM112.688 212.357C112.683 212.858 113.425 213.132 114.817 213.132C116.185 213.132 116.918 212.858 116.918 212.357C116.918 211.831 116.185 211.59 114.817 211.59C113.425 211.59 112.683 211.831 112.688 212.357ZM128.677 203.593V206.863H130.111V208.089H128.677V211.557H127.177V203.593H128.677ZM120.212 205.889V204.712H122.636V203.577H124.128V204.712H126.543V205.889H120.212ZM120.734 208.334C120.73 207.095 121.824 206.266 123.382 206.266C124.923 206.266 126.005 207.095 126.005 208.334C126.005 209.56 124.923 210.372 123.382 210.368C121.824 210.372 120.73 209.56 120.734 208.334ZM121.758 214.064V210.94H123.249V212.858H129.059V214.064H121.758ZM122.188 208.334C122.188 208.918 122.665 209.233 123.382 209.233C124.095 209.233 124.583 208.918 124.588 208.334C124.583 207.737 124.095 207.41 123.382 207.405C122.665 207.41 122.188 207.737 122.188 208.334ZM78.9371 221.883C79.8031 221.883 80.5572 222.177 81.0669 222.679H83.4619V221.577H84.9495V226.93H83.4619V225.998H81.0752C80.5655 226.508 79.8114 226.806 78.9371 226.806C77.3128 226.806 76.0904 225.795 76.0987 224.336C76.0904 222.894 77.3128 221.883 78.9371 221.883ZM77.5158 224.336C77.5158 225.136 78.1042 225.6 78.9371 225.604C79.7451 225.6 80.3293 225.136 80.3376 224.336C80.3293 223.557 79.7451 223.093 78.9371 223.089C78.1042 223.093 77.5158 223.557 77.5158 224.336ZM77.8514 228.53V227.382H84.9495V230.262H79.3639V230.954H85.2644V232.131H77.8639V229.168H83.4619V228.53H77.8514ZM81.705 223.831C81.7382 223.992 81.7589 224.162 81.7589 224.336C81.7589 224.51 81.7382 224.676 81.705 224.838H83.4619V223.831H81.705ZM95.3247 221.577V227.916H93.833V225.397H92.1673V224.179H93.833V221.577H95.3247ZM86.2667 226.735C88.0071 226.155 88.8068 224.767 88.8399 223.429H86.7018V222.227H92.4863V223.429H90.3606C90.3979 224.668 91.1604 225.919 92.8137 226.466L92.0761 227.643C90.8993 227.258 90.0913 226.487 89.6231 225.53C89.159 226.615 88.3054 227.485 87.0416 227.921L86.2667 226.735ZM88.0153 230.208C88.0112 228.915 89.4076 228.153 91.6783 228.153C93.9573 228.153 95.3496 228.915 95.3537 230.208C95.3496 231.501 93.9573 232.259 91.6783 232.263C89.4076 232.259 88.0112 231.501 88.0153 230.208ZM89.5029 230.208C89.4988 230.817 90.2653 231.124 91.6783 231.119C93.0955 231.124 93.8662 230.817 93.8703 230.208C93.8662 229.595 93.0955 229.288 91.6783 229.288C90.2653 229.288 89.4988 229.595 89.5029 230.208ZM108.669 221.577V232.251H107.231V226.823H106.253V231.774H104.865V221.858H106.253V225.621H107.231V221.577H108.669ZM99.3413 229.019C101.513 227.751 102.449 226.189 102.648 224.096H99.88V222.898H104.106C104.102 225.874 103.216 228.31 100.203 230.055L99.3413 229.019ZM118.431 222.206V223.164C118.426 224.158 118.426 225.248 118.153 226.744H119.574V227.95H115.414V232.259H113.906V227.95H109.845V226.744H116.645C116.914 225.364 116.939 224.32 116.943 223.396H110.96V222.206H118.431ZM129.15 221.577V232.276H127.662V221.577H129.15ZM120.78 223.682V222.476H125.847V226.586H122.329V228.546C123.962 228.534 125.342 228.447 126.9 228.186L127.028 229.4C125.28 229.711 123.697 229.777 121.745 229.777H120.788V225.41H124.322V223.682H120.78Z" fill="black"/>
</g>
<path d="M249.375 116.494L277.58 154.541L324.115 153.477L312.751 199.857L342.574 236.578L300.198 256.366L290.853 303.22L249.375 281.515L207.897 303.22L198.552 256.366L156.176 236.578L186 199.857L174.635 153.477L221.17 154.541L249.375 116.494Z" fill="#75F3C9"/>
<mask id="mask2_4152_15430" style="mask-type:alpha" maskUnits="userSpaceOnUse" x="155" y="116" width="188" height="187">
<path d="M249.285 116.492L277.552 154.475L324.189 153.413L312.8 199.714L342.689 236.372L300.22 256.126L290.854 302.9L249.285 281.232L207.717 302.9L198.351 256.126L155.882 236.372L185.771 199.714L174.382 153.413L221.019 154.475L249.285 116.492Z" fill="#75F3C9"/>
</mask>
<g mask="url(#mask2_4152_15430)">
<path d="M299.396 255.728C298.004 255.612 296.862 256.199 295.781 256.989C293.614 258.572 291.657 260.39 289.824 262.348C288.89 263.346 288.043 264.422 287.3 265.574C286.878 266.232 286.512 266.917 286.242 267.653C286.101 268.039 286.091 268.051 285.671 267.951C282.509 267.206 280.018 265.467 278.407 262.633C276.135 258.631 276.252 254.606 278.624 250.663C279.343 249.467 280.358 248.559 281.498 247.785C281.717 247.636 281.938 247.49 282.189 247.315C283.014 246.937 283.788 246.531 284.637 246.32C284.926 246.249 284.951 246.042 284.967 245.802C285.036 244.796 285.114 243.789 285.188 242.783C285.538 238.076 285.888 233.367 286.24 228.66C286.279 228.126 286.281 228.124 286.803 228.162C288.933 228.311 291.064 228.463 293.194 228.613C293.27 228.618 293.344 228.63 293.42 228.632C293.69 228.638 293.774 228.768 293.743 229.036C293.661 229.735 293.6 230.436 293.518 231.181C293.072 231.48 292.621 231.281 292.185 231.26C291.774 231.238 291.363 231.175 290.951 231.141C290.669 231.12 290.388 231.177 290.36 231.514C290.335 231.829 290.603 231.896 290.855 231.947C291.502 232.081 292.167 232.045 292.814 232.163C292.998 232.197 293.192 232.193 293.379 232.345C293.37 233.619 293.199 234.844 293.109 236.077C293.084 236.437 293.037 236.796 292.984 237.211C292.179 237.503 291.402 237.213 290.62 237.199C290.452 237.197 290.286 237.142 290.116 237.162C289.903 237.186 289.687 237.233 289.664 237.497C289.641 237.769 289.809 237.936 290.055 237.97C290.538 238.036 291.025 238.09 291.512 238.133C291.958 238.172 292.415 238.166 292.847 238.436C292.73 240.144 292.589 241.814 292.431 243.539C292.149 243.795 291.84 243.783 291.547 243.732C290.894 243.616 290.233 243.675 289.578 243.62C289.275 243.594 288.966 243.653 288.956 244.024C288.946 244.388 289.273 244.39 289.535 244.412C290.21 244.465 290.88 244.567 291.561 244.54C291.803 244.53 292.054 244.534 292.294 244.731C292.312 245.026 292.296 245.29 292.276 245.556C292.224 246.298 292.249 246.17 292.761 246.403C294.246 247.076 295.536 248.022 296.61 249.253C298.211 251.1 299.136 253.247 299.396 255.728Z" fill="#EDEFF4"/>
<ellipse opacity="0.9" cx="288.425" cy="256.658" rx="9.21178" ry="9.27808" fill="#FF8BCA"/>
<path d="M242.324 307.715C242.232 307.783 242.163 307.827 242.093 307.835C239.078 308.185 236.147 308.938 233.223 309.731C230.619 310.436 227.973 310.864 225.265 310.848C223.808 310.84 222.351 310.937 220.898 310.742C220.523 310.69 220.149 310.621 219.79 310.507C219.555 310.432 219.32 310.35 219.103 310.239C217.836 309.591 217.733 308.469 218.853 307.579C219.166 307.331 219.512 307.132 219.864 306.946C220.011 306.87 220.179 306.82 220.29 306.696C220.269 306.588 220.19 306.57 220.126 306.545C217.074 305.286 215.304 302.939 214.594 299.768C213.489 294.84 215.785 289.769 220.169 287.327C220.453 287.169 220.64 287.004 220.685 286.651C220.979 284.349 221.618 282.141 222.527 280.01C222.57 279.907 222.643 279.809 222.621 279.707C219.799 278.901 217.034 277.968 214.295 276.823C214.438 276.485 214.77 276.512 215.056 276.473C217.813 276.095 220.552 275.61 223.303 275.191C224.348 275.031 224.385 274.925 223.81 274.04C223.208 273.117 222.643 272.167 222.034 271.196C221.812 270.797 221.604 270.436 221.325 270.076C220.411 268.488 219.447 266.982 218.456 265.444C218.247 265.024 218.02 264.664 217.752 264.28C216.855 262.818 215.957 261.404 215.048 259.951C214.819 259.516 214.549 259.155 214.277 258.747C213.747 257.824 213.178 256.975 212.623 256.116C212.439 255.833 212.214 255.567 212.191 255.175C212.017 254.324 211.761 253.526 211.602 252.701C211.051 249.812 211.266 246.974 212.124 244.175C213.055 241.142 214.639 238.478 216.671 236.069C219.06 233.235 221.917 230.97 225.106 229.048C225.427 228.894 225.611 229.103 225.797 229.245C227.21 230.33 228.8 231.021 230.548 231.287C234.109 231.829 237.246 230.915 239.895 228.41C241.113 227.257 242.06 225.922 242.65 224.341C242.813 223.905 243.102 223.71 243.558 223.726C245.656 223.805 247.748 223.563 249.846 223.608C250.752 223.628 250.82 223.665 251.16 224.477C252.725 228.222 255.48 230.531 259.443 231.265C262.226 231.781 264.852 231.252 267.255 229.694C267.644 229.442 267.961 229.048 268.512 229.024C270.284 230.105 271.958 231.248 273.497 232.579C276.77 235.411 279.441 238.694 281.045 242.781C281.604 244.205 281.962 245.678 282.21 247.236C282.169 247.588 281.917 247.71 281.702 247.856C278.264 250.168 276.837 253.511 277.007 257.55C277.208 262.322 280.716 266.505 285.325 267.701C285.761 267.813 286.015 267.752 286.215 267.297C287.114 265.225 288.497 263.484 290.041 261.875C291.95 259.886 293.966 258.015 296.258 256.469C296.962 255.994 297.73 255.695 298.573 255.592C298.841 255.559 299.103 255.547 299.369 255.748C300.941 256.152 301.737 257.245 302.134 258.694C302.525 260.124 302.38 261.56 302.149 263.003C301.801 265.182 300.849 267.045 299.396 268.67C299.003 269.111 298.575 269.513 298.098 269.861C296.408 271.1 294.582 272.022 292.488 272.333C291.193 272.526 289.92 272.49 288.679 272.047C288.417 271.953 288.221 271.988 287.992 272.13C283.456 274.954 278.561 276.965 273.487 278.56C273.164 278.663 272.732 278.688 272.578 278.966C272.412 279.267 272.748 279.588 272.879 279.892C273.79 282.001 274.433 284.189 274.744 286.468C274.805 286.917 274.985 287.159 275.372 287.378C280.349 290.206 282.529 296.402 280.212 301.759C279.265 303.947 277.699 305.542 275.497 306.474C275.38 306.523 275.243 306.541 275.163 306.667C275.29 306.852 275.507 306.891 275.685 306.99C276.168 307.258 276.645 307.533 277.009 307.961C277.55 308.595 277.498 309.326 276.876 309.883C276.53 310.194 276.111 310.373 275.671 310.501C274.922 310.722 274.152 310.799 273.374 310.844C270.202 311.025 267.118 310.594 264.087 309.619C260.538 308.479 256.882 307.888 253.11 307.705C252.963 307.486 253.076 307.319 253.159 307.151C254.461 304.485 255.149 301.654 255.405 298.702C255.751 294.71 255.39 290.789 254.248 286.952C253.673 285.02 252.856 283.214 251.342 281.8C250.12 280.658 248.659 280.528 247.109 280.624C245.11 280.748 243.743 281.814 242.73 283.476C241.798 285.006 241.225 286.675 240.826 288.406C240.355 290.448 240.036 292.506 239.958 294.616C239.799 298.868 240.37 302.964 242.157 306.852C242.265 307.112 242.416 307.37 242.324 307.715Z" fill="#00CE4C"/>
<path d="M218.487 265.279C218.767 265.547 218.921 265.856 219.097 266.146C219.858 267.388 220.67 268.6 221.391 269.907C221.319 270.203 221.078 270.181 220.889 270.218C218.757 270.63 216.639 271.107 214.51 271.528C214.168 271.595 213.612 271.562 213.732 272.111C213.835 272.59 214.314 272.399 214.651 272.328C216.831 271.867 219.021 271.463 221.196 270.983C221.45 270.927 221.708 270.837 222.017 270.955C222.341 271.264 222.508 271.633 222.723 271.967C223.249 272.781 223.724 273.628 224.273 274.427C224.59 274.888 224.463 275.176 223.915 275.268C222.742 275.469 221.563 275.648 220.388 275.833C218.37 276.149 216.352 276.462 214.297 276.789C212.369 277.07 210.478 277.338 208.589 277.608C204.416 278.205 200.243 278.803 196.071 279.4C195.996 279.41 195.92 279.422 195.846 279.428C195.193 279.475 194.913 279.166 195.081 278.528C195.251 277.884 195.46 277.251 195.658 276.615C196.071 275.29 196.487 273.964 196.919 272.6C197.177 272.454 197.377 272.594 197.582 272.676C198.906 273.212 200.058 272.946 201.006 271.863C201.557 271.233 202.017 270.536 202.398 269.787C204.25 266.132 205.222 262.218 205.777 258.179C205.855 257.61 205.867 257.051 205.779 256.479C205.548 254.975 204.702 254.051 203.218 253.736C203.051 253.7 202.879 253.691 202.727 253.531C202.893 252.848 203.063 252.204 203.262 251.568C203.358 251.264 203.358 250.977 203.292 250.669C202.234 245.832 201.401 240.952 200.613 236.066C200.515 235.465 200.406 234.864 200.316 234.262C200.226 233.663 200.324 233.519 200.906 233.377C202.285 233.039 203.689 232.834 205.091 232.617C205.621 232.536 205.681 232.594 205.803 233.161C206.559 236.698 207.263 240.245 207.885 243.81C208.262 245.966 208.644 248.123 209.015 250.279C209.068 250.587 209.166 250.868 209.346 251.12C210.28 252.438 211.215 253.756 212.181 255.107C212.828 256.113 213.444 257.084 214.056 258.057C214.166 258.232 214.266 258.413 214.379 258.632C214.121 258.975 213.736 258.927 213.395 259.006C213.083 259.077 212.76 259.097 212.449 259.182C212.177 259.254 211.833 259.317 211.919 259.705C212.001 260.076 212.341 260.032 212.621 259.989C213.163 259.906 213.7 259.808 214.24 259.717C214.483 259.678 214.723 259.627 215.009 259.713C215.357 260.06 215.56 260.468 215.799 260.852C216.487 261.955 217.167 263.065 217.862 264.214C217.65 264.507 217.332 264.505 217.042 264.556C215.908 264.753 214.772 264.938 213.636 265.121C213.276 265.181 212.684 265.149 212.791 265.704C212.885 266.191 213.407 265.996 213.763 265.935C215.12 265.695 216.483 265.507 217.84 265.265C218.036 265.226 218.241 265.183 218.487 265.279Z" fill="#EDEFF4"/>
<path d="M242.354 307.766C242.203 307.491 242.127 307.213 242.004 306.957C240.713 304.28 240.093 301.427 239.837 298.484C239.491 294.47 239.943 290.537 241.106 286.687C241.454 285.535 241.924 284.434 242.563 283.412C243.05 282.632 243.621 281.931 244.362 281.377C244.763 281.078 245.183 280.836 245.668 280.716C246.781 280.438 247.905 280.351 249.043 280.509C250.078 280.651 250.932 281.135 251.665 281.868C252.594 282.795 253.238 283.908 253.756 285.104C254.45 286.703 254.841 288.391 255.164 290.094C256.026 294.656 255.905 299.187 254.681 303.674C254.36 304.854 253.904 305.982 253.384 307.083C253.296 307.27 253.175 307.441 253.062 307.658C251.62 307.577 250.185 307.483 248.75 307.447C247.101 307.406 245.461 307.54 243.818 307.676C243.349 307.715 242.878 307.741 242.354 307.766Z" fill="#DBFF9E"/>
<path d="M268.577 229.015C268.389 229.147 268.221 229.235 268.07 229.348C266.263 230.699 264.251 231.455 261.993 231.603C257.126 231.922 252.66 228.954 250.966 224.507C250.683 223.762 250.677 223.762 249.893 223.78C247.777 223.825 245.659 223.872 243.544 223.916C243.012 223.928 243.014 223.924 242.814 224.42C241.709 227.193 239.846 229.292 237.151 230.533C233.201 232.351 229.4 231.961 225.816 229.489C225.614 229.35 225.413 229.208 225.176 229.05C224.969 228.857 224.801 228.676 224.625 228.503C219.171 223.112 220.517 214.053 227.292 210.492C228.651 209.777 230.094 209.342 231.608 209.174C234.811 208.82 237.546 209.915 239.94 212.004C240.11 212.154 240.258 212.331 240.495 212.455C240.753 212.583 240.917 212.763 241.074 212.956C242.842 215.132 243.763 217.61 243.727 220.436C243.716 221.424 243.723 221.466 244.711 221.515C245.9 221.574 247.093 221.617 248.282 221.472C248.622 221.43 248.962 221.436 249.302 221.432C250.012 221.424 250.063 221.397 250.045 220.698C250.016 219.561 250.165 218.454 250.479 217.367C250.953 215.737 251.713 214.258 252.834 212.977C252.984 212.804 253.149 212.648 253.399 212.526C253.849 212.166 254.249 211.817 254.672 211.496C256.418 210.167 258.399 209.383 260.563 209.178C264.607 208.796 267.861 210.376 270.29 213.57C273.723 218.088 273.199 224.428 269.173 228.422C268.978 228.607 268.792 228.796 268.577 229.015Z" fill="#FAFAF9"/>
<path d="M253.379 212.487C253.25 212.887 252.91 213.145 252.654 213.474C250.955 215.662 250.149 218.141 250.229 220.914C250.233 221.048 250.239 221.18 250.249 221.314C250.264 221.531 250.167 221.621 249.951 221.625C247.93 221.663 245.908 221.807 243.884 221.651C243.628 221.631 243.501 221.562 243.53 221.279C243.557 221.015 243.551 220.745 243.553 220.479C243.585 217.678 242.691 215.209 240.919 213.056C240.786 212.897 240.671 212.721 240.534 212.515C243.037 212.276 245.245 213.722 246.119 216.156C246.293 216.639 246.445 217.129 246.539 217.637C246.586 217.895 246.668 218.147 246.735 218.397C246.995 218.37 246.971 218.181 247.003 218.049C247.12 217.529 247.235 217.009 247.396 216.501C248.256 213.767 250.475 212.26 253.379 212.487Z" fill="#00CE4C"/>
<path d="M292.334 244.723C291.4 244.712 290.479 244.657 289.56 244.607C289.372 244.597 289.184 244.611 289.012 244.511C288.797 244.383 288.684 244.202 288.711 243.947C288.738 243.693 288.887 243.536 289.124 243.461C289.27 243.414 289.421 243.437 289.571 243.445C290.492 243.498 291.411 243.546 292.372 243.599C292.505 243.969 292.362 244.322 292.334 244.723Z" fill="#EDEEF4"/>
<path d="M292.869 238.472C292.054 238.261 291.211 238.275 290.382 238.177C290.27 238.163 290.155 238.177 290.044 238.159C289.623 238.098 289.383 237.834 289.42 237.491C289.455 237.157 289.768 236.938 290.177 236.975C290.476 237.003 290.775 237.05 291.074 237.082C291.674 237.145 292.275 237.202 292.922 237.263C293.018 237.676 292.953 238.072 292.869 238.472Z" fill="#EDEEF4"/>
<path d="M293.426 232.342C292.54 232.303 291.675 232.218 290.811 232.141C290.657 232.128 290.512 232.102 290.383 232.013C290.199 231.885 290.092 231.71 290.117 231.482C290.146 231.231 290.297 231.068 290.533 230.991C290.7 230.938 290.868 230.969 291.038 230.987C291.826 231.07 292.616 231.145 293.453 231.224C293.541 231.586 293.504 231.944 293.426 232.342Z" fill="#EDEEF4"/>
<path d="M243.089 240.251C242.035 238.447 241.712 236.52 241.808 234.502C241.828 234.104 241.876 233.706 241.929 233.31C241.988 232.871 242.023 232.83 242.461 232.824C243.275 232.814 244.086 232.834 244.899 232.83C247.092 232.818 249.285 232.873 251.477 232.79C251.608 232.784 251.74 232.81 251.872 232.822C252.007 232.832 252.078 232.912 252.088 233.04C252.326 235.973 251.949 238.748 250.001 241.103C249.624 241.558 249.166 241.932 248.642 242.212C247.322 242.919 246.03 242.856 244.772 242.057C244.068 241.61 243.546 240.985 243.089 240.251Z" fill="#00CE4C"/>
<path d="M222.046 270.941C219.504 271.502 216.952 272.03 214.403 272.56C214.274 272.587 214.148 272.629 214.013 272.613C213.728 272.577 213.497 272.371 213.472 272.111C213.446 271.833 213.579 271.636 213.82 271.512C213.902 271.469 213.996 271.443 214.088 271.425C216.456 270.945 218.822 270.466 221.19 269.988C221.227 269.98 221.264 269.972 221.35 269.952C221.683 270.216 221.849 270.569 222.046 270.941Z" fill="#EDEEF4"/>
<path d="M218.517 265.264C216.796 265.595 215.065 265.889 213.335 266.182C212.926 266.251 212.602 266.072 212.531 265.745C212.457 265.386 212.691 265.089 213.145 265.014C214.187 264.841 215.232 264.683 216.276 264.518C216.778 264.437 217.281 264.352 217.826 264.262C218.141 264.537 218.315 264.888 218.517 265.264Z" fill="#EDEEF4"/>
<path d="M215.036 259.691C214.191 259.87 213.339 260.02 212.488 260.17C212.451 260.176 212.414 260.186 212.376 260.188C211.995 260.211 211.71 260.01 211.665 259.693C211.62 259.386 211.852 259.096 212.226 259.029C212.707 258.943 213.192 258.88 213.675 258.803C213.878 258.77 214.082 258.73 214.334 258.683C214.653 258.963 214.844 259.311 215.036 259.691Z" fill="#EDEEF4"/>
<path d="M239.904 215.327C240.931 216.948 241.42 218.681 241.357 220.564C241.201 225.178 237.812 228.724 233.625 229.31C229.238 229.927 224.672 227.126 223.62 222.254C222.693 217.952 225.104 213.557 229.179 211.975C231.68 211.004 234.093 211.099 236.476 212.267C237.882 212.954 239.009 213.986 239.904 215.327Z" fill="#0E0E0E"/>
<path d="M238.396 215.743C238.759 216.315 238.931 216.926 238.909 217.59C238.854 219.218 237.658 220.469 236.18 220.676C234.631 220.893 233.019 219.905 232.648 218.187C232.321 216.669 233.172 215.119 234.61 214.561C235.493 214.218 236.345 214.252 237.186 214.664C237.683 214.906 238.08 215.27 238.396 215.743Z" fill="white"/>
<path d="M237.432 222.766C237.663 223.13 237.773 223.519 237.758 223.942C237.723 224.978 236.962 225.773 236.022 225.905C235.036 226.044 234.01 225.415 233.774 224.321C233.566 223.356 234.107 222.369 235.023 222.014C235.585 221.796 236.127 221.817 236.662 222.079C236.978 222.234 237.231 222.465 237.432 222.766Z" fill="white"/>
<path d="M255.97 227.509C254.066 225.979 252.957 224.033 252.589 221.646C251.97 217.618 254.339 213.506 258.133 212.023C259.271 211.578 260.421 211.265 261.661 211.306C264.822 211.413 267.314 212.771 269.029 215.428C271.977 219.997 270.153 226.314 265.221 228.551C261.987 230.022 258.886 229.612 255.97 227.509Z" fill="#0E0E0E"/>
<path d="M266.078 215.614C266.408 216.134 266.565 216.69 266.545 217.294C266.495 218.774 265.407 219.91 264.064 220.099C262.655 220.296 261.19 219.398 260.853 217.836C260.555 216.456 261.329 215.047 262.637 214.539C263.439 214.228 264.213 214.258 264.978 214.633C265.43 214.853 265.791 215.184 266.078 215.614Z" fill="white"/>
<path d="M266.218 222.766C266.449 223.13 266.559 223.519 266.545 223.942C266.509 224.978 265.748 225.773 264.808 225.905C263.822 226.044 262.796 225.415 262.56 224.321C262.352 223.356 262.893 222.369 263.809 222.014C264.371 221.796 264.913 221.817 265.448 222.079C265.764 222.234 266.017 222.465 266.218 222.766Z" fill="white"/>
<path d="M248.513 272.895H237.184C246.247 278.146 255.545 275.083 259.062 272.895H248.513Z" fill="#00C62E"/>
<path d="M246.614 235.759C245.626 236.396 244.579 236.823 243.433 236.924C242.453 237.012 241.544 236.777 240.839 236.028C240.66 235.837 240.548 235.609 240.735 235.357C240.907 235.127 241.167 235.119 241.338 235.36C241.822 236.044 242.547 236.153 243.285 236.124C244.267 236.085 245.229 235.8 246.04 235.28C246.648 234.889 247.152 234.904 247.791 235.067C248.698 235.298 249.626 235.3 250.515 234.902C250.868 234.744 251.152 234.49 251.456 234.262C251.643 234.122 251.869 233.933 252.061 234.122C252.269 234.324 252.082 234.578 251.929 234.759C251.274 235.536 250.411 235.907 249.41 235.969C248.662 236.015 247.932 235.896 247.227 235.64C246.996 235.554 246.804 235.554 246.614 235.759Z" fill="#0C200F"/>
<path d="M203.791 260.137L211.564 258.977L219.624 273.184L198.897 276.374L203.791 260.137Z" fill="#FE2F2F"/>
<path d="M202.662 253.491C202.82 253.497 202.932 253.515 203.045 253.527C204.612 253.7 205.701 254.766 205.951 256.341C206.098 257.259 205.978 258.161 205.836 259.065C205.294 262.478 204.44 265.801 203.008 268.956C202.545 269.98 202.007 270.961 201.278 271.823C200.982 272.174 200.65 272.483 200.263 272.725C199.547 273.17 198.786 273.265 197.979 273.021C197.633 272.916 197.32 272.737 196.966 272.568C194.479 270.776 193.632 268.201 193.452 265.314C193.403 264.536 193.427 263.752 193.532 262.974C193.908 260.223 195.067 257.899 197.189 256.087C198.073 255.333 198.986 254.63 200.044 254.135C200.859 253.755 201.708 253.509 202.662 253.491Z" fill="#00CE4C"/>
<path d="M224.615 173.324V174.521H215.747V173.324H219.435V172.089H220.919V173.324H224.615ZM215.329 181.561V180.355H219.435V179.129C217.62 178.972 216.522 178.23 216.531 177.057C216.522 175.76 217.923 174.981 220.173 174.985C222.394 174.981 223.815 175.76 223.815 177.057C223.815 178.226 222.709 178.967 220.919 179.129V180.355H225.083V181.561H215.329ZM218.068 177.057C218.064 177.683 218.793 177.973 220.173 177.973C221.528 177.973 222.274 177.683 222.278 177.057C222.274 176.444 221.528 176.154 220.173 176.154C218.793 176.154 218.064 176.444 218.068 177.057ZM234.659 171.973V182.647H233.146V171.973H234.659ZM225.733 179.626C228.485 178.321 229.699 176.639 229.939 174.268H226.305V173.096H231.464C231.46 176.328 230.324 179.017 226.512 180.815L225.733 179.626ZM244.997 171.989V178.006H243.497V171.989H244.997ZM236.03 176.643C237.82 176.1 238.599 174.741 238.603 173.407V172.375H240.153V173.407C240.144 174.704 240.936 175.947 242.655 176.473L241.93 177.621C240.708 177.256 239.867 176.518 239.386 175.561C238.901 176.597 238.035 177.422 236.763 177.82L236.03 176.643ZM237.849 182.527V178.495H244.997V182.527H237.849ZM239.324 181.329H243.53V179.68H239.324V181.329ZM257.619 171.973V176.063H259.128V177.297H257.619V182.622H256.124V171.973H257.619ZM249.092 179.634C251.611 178.367 252.966 176.668 253.248 174.289H249.693V173.067H254.773C254.765 176.257 253.517 179.017 249.933 180.778L249.092 179.634ZM269.325 177.02V178.217H259.579V177.02H269.325ZM260.656 180.322V179.125H268.148V182.659H266.673V180.322H260.656ZM260.756 176.162V172.338H268.156V173.514H262.252V174.973H268.26V176.162H260.756ZM278.411 171.989V175.259H279.845V176.485H278.411V179.954H276.911V171.989H278.411ZM269.946 174.285V173.108H272.37V171.973H273.862V173.108H276.277V174.285H269.946ZM270.468 176.73C270.464 175.491 271.558 174.662 273.116 174.662C274.657 174.662 275.739 175.491 275.739 176.73C275.739 177.956 274.657 178.768 273.116 178.764C271.558 178.768 270.464 177.956 270.468 176.73ZM271.492 182.46V179.336H272.983V181.255H278.793V182.46H271.492ZM271.922 176.73C271.922 177.314 272.399 177.629 273.116 177.629C273.829 177.629 274.317 177.314 274.322 176.73C274.317 176.133 273.829 175.806 273.116 175.802C272.399 175.806 271.922 176.133 271.922 176.73ZM225.955 190.582V191.788H222.416V192.617H225.731V193.797H222.416V194.672C224.153 194.668 225.276 194.614 226.523 194.378L226.693 195.554C225.251 195.807 223.958 195.849 221.795 195.844H220.908V190.582H225.955ZM222.002 200.527V196.677H228.976V200.527H222.002ZM223.477 199.329H227.497V197.85H223.477V199.329ZM227.476 196.213V189.973H228.976V192.472H230.41V193.71H228.976V196.213H227.476ZM239.471 190.603V191.56C239.467 192.554 239.467 193.644 239.194 195.14H240.615V196.346H236.455V200.655H234.946V196.346H230.886V195.14H237.685C237.955 193.76 237.98 192.716 237.984 191.792H232V190.603H239.471ZM253.217 189.973V200.647H251.779V195.219H250.801V200.17H249.413V190.255H250.801V194.017H251.779V189.973H253.217ZM243.89 197.415C246.061 196.147 246.997 194.585 247.196 192.492H244.428V191.295H248.655C248.651 194.27 247.764 196.706 244.752 198.451L243.89 197.415ZM262.979 190.603V191.56C262.975 192.554 262.975 193.644 262.701 195.14H264.123V196.346H259.962V200.655H258.454V196.346H254.393V195.14H261.193C261.462 193.76 261.487 192.716 261.491 191.792H255.508V190.603H262.979ZM273.698 189.973V200.672H272.211V189.973H273.698ZM265.328 192.078V190.872H270.396V194.983H266.878V196.943C268.51 196.93 269.89 196.843 271.448 196.582L271.577 197.796C269.828 198.107 268.245 198.173 266.294 198.173H265.336V193.806H268.871V192.078H265.328Z" fill="#1F1408"/>
</g>
<g filter="url(#filter0_b_4152_15430)">
<path fill-rule="evenodd" clip-rule="evenodd" d="M163.198 4.06038C185.224 10.5641 199.179 31.2256 198.033 53.1427C198.409 53.2442 198.785 53.3504 199.161 53.4613C224.953 61.0769 239.678 88.1049 232.049 113.83C227.058 130.663 213.733 142.767 197.892 146.99C198.486 153.04 197.945 159.303 196.11 165.49C188.481 191.216 161.389 205.896 135.596 198.281C125.281 195.235 116.736 189.084 110.683 181.153C101.28 184.52 90.757 185.041 80.4418 181.995C54.6496 174.379 39.925 147.351 47.5534 121.626C49.3882 115.439 52.3489 109.89 56.1466 105.137C45.1593 92.9925 40.5807 75.6022 45.5721 58.7696C53.2005 33.0444 80.2933 18.3636 106.085 25.9792C106.461 26.0902 106.835 26.2053 107.206 26.3244C118.196 7.31405 141.171 -2.44332 163.198 4.06038Z" fill="#85DCFF"/>
</g>
<mask id="mask3_4152_15430" style="mask-type:alpha" maskUnits="userSpaceOnUse" x="43" y="2" width="192" height="199">
<path fill-rule="evenodd" clip-rule="evenodd" d="M163.198 4.05867C185.224 10.5624 199.179 31.2238 198.033 53.1409C198.409 53.2425 198.785 53.3486 199.161 53.4596C224.953 61.0752 239.678 88.1032 232.049 113.828C227.058 130.661 213.733 142.765 197.892 146.989C198.486 153.038 197.945 159.301 196.11 165.489C188.481 191.214 161.389 205.895 135.596 198.279C125.281 195.233 116.736 189.082 110.683 181.152C101.28 184.519 90.757 185.039 80.4418 181.993C54.6496 174.378 39.925 147.35 47.5534 121.624C49.3882 115.437 52.3489 109.889 56.1466 105.136C45.1593 92.9908 40.5807 75.6005 45.5721 58.7679C53.2005 33.0427 80.2933 18.3619 106.085 25.9775C106.461 26.0885 106.835 26.2036 107.206 26.3227C118.196 7.31234 141.171 -2.44503 163.198 4.05867Z" fill="#85DCFF"/>
</mask>
<g mask="url(#mask3_4152_15430)">
<path d="M160.635 204.889C159.996 206.654 159.071 208.186 157.76 209.478C156.757 210.466 155.608 211.241 154.308 211.794C154.108 211.88 153.882 211.918 153.717 212.091C153.829 212.343 154.095 212.373 154.3 212.483C154.904 212.81 155.504 213.145 155.986 213.643C156.848 214.541 156.762 215.592 155.77 216.346C155.355 216.663 154.881 216.857 154.384 217.005C153.606 217.239 152.805 217.362 151.996 217.41C148.226 217.624 144.498 217.433 140.857 216.316C138.984 215.743 137.085 215.26 135.179 214.795C132.452 214.128 129.683 213.804 126.895 213.585C126.309 213.54 125.721 213.502 125.072 213.442C124.875 213.11 125.052 212.856 125.181 212.599C126.951 209.058 127.767 205.278 128.104 201.365C128.228 199.932 128.231 198.501 128.233 197.067C128.233 196.728 128.2 196.388 128.18 196.049C128.142 195.39 127.8 195.139 127.161 195.071C122.147 194.54 117.219 193.569 112.387 192.136C111.376 191.837 110.367 191.535 109.363 191.21C108.872 191.052 108.651 191.185 108.557 191.701C107.989 194.854 107.878 198.026 108.106 201.217C108.327 204.315 108.912 207.338 110.007 210.255C110.256 210.917 110.54 211.563 110.841 212.202C111.016 212.571 111.229 212.944 111.1 213.442C110.991 213.535 110.902 213.587 110.806 213.597C106.795 214.06 102.902 215.066 99.0131 216.092C95.705 216.967 92.3361 217.473 88.8987 217.448C87.033 217.435 85.1673 217.558 83.3066 217.312C82.7946 217.244 82.2901 217.141 81.7958 216.995C81.4409 216.889 81.1012 216.754 80.7818 216.567C79.3775 215.755 79.2456 214.47 80.465 213.416C80.8934 213.047 81.3801 212.763 81.882 212.501C82.0949 212.39 82.3053 212.272 82.5081 212.164C82.4523 211.983 82.3231 211.963 82.2191 211.92C78.4091 210.348 76.1454 207.469 75.1821 203.571C73.6054 197.188 76.5586 190.584 82.3586 187.408C82.7692 187.184 82.9543 186.928 83.0252 186.467C84.1786 178.83 87.6211 172.364 93.2132 167.005C93.3703 166.854 93.563 166.736 93.7531 166.595C93.4084 166.158 92.9952 166.047 92.6276 165.886C88.6325 164.136 84.8859 161.973 81.5094 159.214C77.821 156.201 74.8095 152.65 72.85 148.292C71.1972 144.616 70.5381 140.775 70.9792 136.757C71.4811 132.162 73.2809 128.078 75.9426 124.341C78.797 120.332 82.4118 117.106 86.5108 114.392C87.758 113.567 89.0356 112.795 90.3588 112.096C90.9698 111.774 91.3804 111.322 91.6669 110.685C93.1777 107.328 94.8355 104.041 96.7748 100.903C98.2704 98.4835 100.027 96.2654 102.296 94.4949C103.999 93.1646 105.873 92.2291 108.053 91.8871C111.526 91.3388 114.806 93.1998 116.012 96.4892C116.324 97.3367 116.512 98.2169 116.732 99.0895C116.76 99.2027 116.763 99.3335 116.93 99.419C117.173 99.3461 117.148 99.1021 117.189 98.9085C117.376 98.0006 117.604 97.1053 117.957 96.2478C119.265 93.0665 122.441 91.3564 125.863 91.8921C128.444 92.297 130.555 93.5443 132.454 95.2268C134.601 97.128 136.251 99.424 137.691 101.876C139.324 104.655 140.807 107.512 142.102 110.457C142.457 111.264 142.969 111.82 143.745 112.232C146.024 113.439 148.178 114.84 150.209 116.424C154.026 119.404 157.294 122.867 159.695 127.09C161.091 129.547 162.108 132.15 162.633 134.921C163.107 137.423 163.15 139.943 162.759 142.473C162.075 146.897 160.143 150.749 157.37 154.227C157.22 154.416 157.018 154.569 156.954 154.816C157.03 155.027 157.231 155.09 157.395 155.18C159.124 156.154 160.326 157.585 161.15 159.363C161.776 160.716 162.232 162.126 162.691 163.54C162.856 164.048 163.015 164.561 163.2 165.127C163.459 165.486 163.396 165.828 163.332 166.16C162.995 167.878 162.764 169.618 162.734 171.358C162.704 173.292 162.861 175.234 163.185 177.15C163.289 177.771 163.411 178.392 163.451 179.084C163.104 179.951 162.265 180.14 161.583 180.615C159.304 181.302 157.968 180.902 156.533 179.112C155.01 177.208 153.953 175.035 152.929 172.85C150.688 168.059 149.471 162.979 148.668 157.788C148.526 156.875 148.462 155.94 148.992 155.09C149.284 154.625 149.646 154.21 150.166 154.021C150.837 153.775 150.82 153.38 150.599 152.819C149.778 150.734 148.984 148.637 148.176 146.547C146.244 141.547 144.325 136.543 142.29 131.586C141.935 130.721 141.97 130.613 142.723 129.977C142.873 129.851 143.027 129.728 143.136 129.562C143.375 129.197 143.296 128.923 142.89 128.742C142.566 128.596 142.221 128.591 141.879 128.589C141.337 128.584 140.961 128.352 140.68 127.887C138.112 123.627 134.084 121.849 129.318 121.285C127.42 121.062 125.549 121.215 123.673 121.461C122.971 121.555 122.362 121.811 121.812 122.259C120.733 123.139 119.566 123.913 118.481 124.791C118.329 124.914 118.167 125.028 118.035 125.171C117.924 125.292 117.741 125.41 117.825 125.598C117.914 125.795 118.122 125.732 118.284 125.704C118.672 125.641 119.052 125.538 119.43 125.432C121.812 124.766 124.236 124.459 126.71 124.58C128.877 124.686 130.857 125.302 132.543 126.707C133.367 127.397 133.934 128.269 134.393 129.222C134.637 129.725 134.512 130.105 134.041 130.404C133.628 130.666 133.189 130.897 132.844 131.252C132.327 131.782 132.416 132.326 133.128 132.529C133.841 132.733 134.069 133.198 134.213 133.837C136.006 141.744 137.955 149.613 139.849 157.494C140.979 162.204 142.247 166.884 143.207 171.632C143.342 172.294 143.681 172.603 144.313 172.814C148.353 174.17 151.225 176.813 152.607 180.809C153.895 184.531 153.497 188.105 150.881 191.258C150.566 191.635 150.206 191.962 149.826 192.272C149.152 192.82 149.147 192.878 149.532 193.68C150.86 196.454 152.86 198.715 155.104 200.779C156.62 202.175 158.285 203.377 160.123 204.335C160.333 204.451 160.546 204.579 160.635 204.889Z" fill="#00CE4C"/>
<path d="M109.901 98.7398C112.575 100.228 113.376 102.942 111.978 105.456C111.069 107.086 109.318 108.032 107.558 107.841C105.905 107.655 104.562 106.36 104.058 104.521C103.08 100.925 107.023 97.4943 109.901 98.7398Z" fill="#0E0E0E"/>
<path d="M125.464 98.6963C128.449 98.9779 130.296 101.05 130.117 103.787C129.998 105.563 128.849 107.061 127.215 107.566C125.678 108.035 123.949 107.413 122.731 105.995C120.358 103.218 122.4 98.7048 125.464 98.6963Z" fill="#0E0E0E"/>
<path d="M108.854 102.882C108.469 102.102 108.588 101.487 109.247 101.009C109.681 100.7 110.164 100.684 110.643 100.938C111.247 101.259 111.53 101.754 111.527 102.394C111.524 102.845 111.352 103.237 110.892 103.424C110.136 103.727 109.499 103.435 108.865 102.882L108.854 102.882Z" fill="white"/>
<path d="M126.146 102.984C125.392 102.375 125.219 101.713 125.645 100.955C125.93 100.461 126.403 100.237 126.999 100.284C127.751 100.342 128.268 100.711 128.569 101.349C128.78 101.798 128.796 102.261 128.427 102.645C127.821 103.271 127.049 103.255 126.157 102.979L126.146 102.984Z" fill="white"/>
<path d="M110.884 213.202C110.661 212.783 110.523 212.362 110.333 211.968C108.756 208.686 107.976 205.201 107.635 201.606C107.302 198.114 107.432 194.637 108.06 191.18C108.085 191.037 108.106 190.89 108.141 190.749C108.253 190.295 108.258 190.285 108.736 190.436C111.032 191.163 113.335 191.859 115.672 192.447C119.348 193.373 123.08 193.986 126.843 194.44C128.429 194.632 128.134 194.312 128.216 195.871C128.455 200.392 127.99 204.838 126.551 209.155C126.103 210.497 125.564 211.804 124.812 213.066C122.933 212.957 121.069 212.836 119.2 212.791C117.057 212.738 114.922 212.912 112.789 213.084C112.173 213.134 111.558 213.172 110.884 213.202Z" fill="#DBFF9E"/>
<path d="M133.157 168.105C134.464 167.538 135.713 166.981 136.858 166.23C137.447 165.843 138.028 165.442 138.523 164.937C138.648 164.81 138.747 164.617 139.044 164.639C138.795 165.209 138.442 165.682 138.038 166.116C135.942 168.363 133.312 169.812 130.448 170.907C128.707 171.574 126.894 171.99 125.059 172.297C123.799 172.508 122.52 172.465 121.246 172.49C118.908 172.535 116.661 172.138 114.48 171.346C113.772 171.088 113.104 170.761 112.482 170.295C112.721 170.119 112.863 170.263 113.01 170.323C114.226 170.818 115.498 171.029 116.808 171.038C117.595 171.043 118.38 171.034 119.167 171.041C120.839 171.056 122.484 170.818 124.127 170.558C126.77 170.142 129.346 169.46 131.867 168.581C132.278 168.432 132.69 168.276 133.157 168.105Z" fill="#00C62E"/>
<path d="M117.623 124.615C116.396 125.4 115.094 125.926 113.67 126.05C112.452 126.159 111.322 125.868 110.447 124.947C110.224 124.711 110.085 124.43 110.317 124.121C110.531 123.837 110.854 123.827 111.067 124.124C111.668 124.966 112.569 125.1 113.486 125.065C114.707 125.017 115.902 124.666 116.91 124.025C117.665 123.543 118.292 123.562 119.087 123.763C120.214 124.047 121.367 124.05 122.472 123.559C122.911 123.365 123.263 123.052 123.641 122.771C123.873 122.599 124.154 122.366 124.393 122.599C124.652 122.848 124.419 123.16 124.229 123.384C123.415 124.341 122.342 124.797 121.099 124.873C120.169 124.931 119.261 124.784 118.386 124.468C118.098 124.363 117.859 124.363 117.623 124.615Z" fill="#0C200F"/>
<path d="M162.946 179.339C162.551 177.013 162.255 174.718 162.177 172.4C162.125 170.851 162.285 169.315 162.494 167.784C162.607 166.949 162.775 166.122 162.928 165.233C163.184 164.642 163.259 164.06 163.405 163.499C163.588 162.795 163.787 162.098 164.055 161.419C164.274 160.87 164.269 160.858 163.761 160.577C163.395 160.374 163.079 160.113 162.81 159.798C161.911 158.733 162.105 157.302 163.237 156.487C164.023 155.923 164.906 155.861 165.815 155.966C166.222 156.014 166.633 156.104 167.015 156.244C173.466 158.61 179.916 160.98 186.274 163.589C187.228 163.98 188.089 164.521 188.717 165.366C188.845 165.541 188.97 165.724 189.063 165.92C189.611 167.092 189.171 168.097 187.931 168.506C187.371 168.691 186.791 168.739 186.207 168.694C185.546 168.641 185.466 168.671 185.238 169.292C183.905 172.914 182.782 176.597 181.984 180.374C181.517 182.579 181.138 184.799 180.852 187.032C180.654 188.593 180.508 190.162 180.536 191.74C180.566 193.484 180.593 195.231 180.222 196.953C179.692 199.423 178.67 201.644 176.865 203.45C175.091 205.227 172.927 206.252 170.449 206.62C167.216 207.102 164.173 206.41 161.223 205.137C160.98 205.032 160.731 204.934 160.43 204.819C159.936 204.548 159.491 204.297 159.052 204.039C156.017 202.255 153.479 199.917 151.313 197.156C150.331 195.905 149.518 194.567 148.872 193.119C148.727 192.79 148.707 192.58 149.046 192.332C152.427 189.873 153.635 185.536 152.387 181.444C151.049 177.053 148.067 174.232 143.684 172.888C143.249 172.756 143.056 172.568 142.961 172.127C141.226 164.093 139.125 156.144 137.262 148.138C136.153 143.369 135.028 138.6 133.908 133.834C133.871 133.669 133.828 133.503 133.793 133.338C133.748 133.122 133.625 132.997 133.396 132.979C133.323 132.974 133.251 132.967 133.18 132.949C132.774 132.842 132.354 132.721 132.219 132.268C132.073 131.779 132.367 131.433 132.701 131.13C133.062 130.802 133.484 130.556 133.911 130.323C134.453 130.027 134.445 130.027 134.169 129.449C132.964 126.9 130.853 125.592 128.155 125.128C125.519 124.675 122.92 125.006 120.35 125.625C119.76 125.767 119.172 125.93 118.585 126.081C118.444 126.118 118.301 126.146 118.158 126.181C117.867 126.256 117.716 126.108 117.576 125.873C117.42 125.61 117.556 125.477 117.739 125.331C118.196 124.968 118.64 124.592 119.102 124.236C120.044 123.51 121 122.8 121.939 122.069C122.391 121.715 122.878 121.502 123.45 121.407C127.221 120.793 130.918 120.961 134.481 122.452C137.252 123.612 139.499 125.397 140.92 128.098C141.05 128.348 141.208 128.456 141.487 128.449C141.949 128.439 142.411 128.444 142.858 128.594C143.598 128.842 143.736 129.333 143.204 129.905C142.991 130.133 142.742 130.343 142.474 130.501C142.122 130.712 142.127 130.932 142.27 131.28C143.171 133.481 144.07 135.681 144.929 137.898C146.874 142.92 148.792 147.95 150.723 152.977C150.748 153.044 150.77 153.114 150.795 153.182C151.039 153.841 151.039 153.841 150.359 154.122C149.259 154.575 148.634 155.525 148.649 156.753C148.659 157.582 148.835 158.389 148.983 159.201C149.488 161.943 150.012 164.682 150.881 167.34C151.953 170.623 153.296 173.791 155.038 176.78C155.455 177.494 155.904 178.183 156.416 178.835C157.649 180.399 158.851 181.083 161.126 180.366C161.62 180.484 161.721 180.89 161.894 181.223C162.71 182.817 163.566 184.386 164.894 185.864C164.063 184.032 163.498 182.286 163.001 180.516C162.91 180.146 162.732 179.777 162.946 179.339Z" fill="#F8B91E"/>
<path opacity="0.9" fill-rule="evenodd" clip-rule="evenodd" d="M179.771 129.051C179.685 128.984 179.597 128.908 179.508 128.825C179.044 130.915 178.113 132.43 177.435 132.613C176.267 132.929 172.732 130.141 171.731 125.795C170.731 121.449 171.662 117.455 173.812 116.874C174.823 116.601 175.923 117.132 176.909 118.222C177.512 115.283 178.944 113.216 180.616 113.216C182.543 113.216 184.153 115.964 184.539 119.627C184.95 119.502 185.359 119.486 185.754 119.593C187.904 120.173 188.836 124.167 187.835 128.513C186.835 132.859 183.299 135.647 182.131 135.332C181.204 135.081 179.806 132.344 179.771 129.051Z" fill="#FFF500"/>
<path d="M194.695 116.132C194.041 119.319 195.642 122.549 196.555 122.826C197.468 123.103 200.129 121.165 200.782 117.977C201.436 114.79 200.603 111.793 198.922 111.283C197.241 110.774 195.348 112.944 194.695 116.132Z" fill="#FFF500"/>
<path d="M172.63 100.632C173.167 103.937 171.484 107.427 170.576 107.774C169.668 108.121 167.114 106.253 166.577 102.948C166.04 99.643 166.96 96.4455 168.631 95.8061C170.303 95.1666 172.093 97.3274 172.63 100.632Z" fill="#FFF500"/>
<path d="M199.39 124.499C198.218 126.391 198.446 128.766 198.951 129.126C199.456 129.487 201.585 128.795 202.757 126.903C203.93 125.011 204.126 122.94 203.196 122.276C202.266 121.612 200.562 122.607 199.39 124.499Z" fill="#FF8BCA"/>
<path d="M165.604 111.074L171.329 142.497" stroke="#F3EC1A" stroke-width="2" stroke-linecap="round"/>
<path d="M191.364 128.93L180.631 159.639" stroke="#FF8BCA" stroke-width="2" stroke-linecap="round"/>
<path fill-rule="evenodd" clip-rule="evenodd" d="M191.827 155.774C191.409 156.159 191.047 156.357 190.802 156.33C189.812 156.219 188.103 152.126 188.845 147.395C189.588 142.663 191.669 138.991 193.492 139.194C194.548 139.312 195.286 140.702 195.577 142.77C196.56 141.729 197.543 141.281 198.323 141.658C199.586 142.27 199.955 144.87 199.397 148.043C200.517 147.308 201.531 147.178 202.201 147.822C203.624 149.191 202.951 153.543 200.697 157.544C198.443 161.544 194.812 163.051 194.038 162.308C193.589 161.875 193.409 160.013 193.779 157.743C193.324 157.985 192.953 158.061 192.731 157.953C192.377 157.782 192.029 156.969 191.827 155.774Z" fill="#FF8BCA"/>
<path d="M111.487 44.7243L111.487 51.7746L106.36 51.7746L106.36 44.7243L111.487 44.7243ZM107.835 50.5899L109.999 50.5899L109.999 45.8966L107.835 45.8966L107.835 50.5899ZM112.942 54.3801L112.942 43.7095L114.438 43.7095L114.438 47.7358L116.013 47.7358L116.013 48.9826L114.438 48.9826L114.438 54.3801L112.942 54.3801ZM121.256 43.9124C123.631 43.9124 125.132 44.6995 125.136 46.0043C125.132 47.2926 123.631 48.0713 121.256 48.0672C118.898 48.0713 117.368 47.2926 117.373 46.0043C117.368 44.6995 118.898 43.9124 121.256 43.9124ZM116.398 49.8774L116.398 48.6844L126.131 48.6844L126.131 49.8774L116.398 49.8774ZM117.526 54.26L117.526 50.623L124.962 50.623L124.962 54.26L117.526 54.26ZM118.927 46.0043C118.919 46.5967 119.768 46.9073 121.256 46.9073C122.732 46.9073 123.594 46.5967 123.594 46.0043C123.594 45.3871 122.732 45.0723 121.256 45.0764C119.768 45.0723 118.919 45.3871 118.927 46.0043ZM118.997 53.0628L123.503 53.0628L123.503 51.8077L118.997 51.8077L118.997 53.0628ZM131.631 43.8669C134.089 43.8669 135.506 44.5089 135.51 45.6812C135.506 46.8742 134.089 47.5121 131.631 47.5121C129.169 47.5121 127.743 46.8742 127.747 45.6812C127.743 44.5089 129.169 43.8669 131.631 43.8669ZM126.773 49.2022L126.773 48.0175L136.505 48.0175L136.505 49.2022L126.773 49.2022ZM127.896 50.913L127.896 49.8152L135.316 49.8152L135.316 52.5368L129.372 52.5368L129.372 53.1788L135.593 53.1788L135.593 54.3055L127.904 54.3055L127.904 51.4929L133.84 51.4929L133.84 50.913L127.896 50.913ZM129.314 45.6812C129.305 46.2073 130.068 46.4103 131.631 46.4144C133.214 46.4103 133.968 46.2073 133.968 45.6812C133.968 45.2131 133.214 44.9563 131.631 44.9604C130.068 44.9563 129.305 45.2131 129.314 45.6812ZM144.772 43.8089C147.23 43.813 148.647 44.4551 148.651 45.6315C148.647 46.8121 147.23 47.4541 144.772 47.4541C142.309 47.4541 140.884 46.8121 140.888 45.6315C140.884 44.4551 142.309 43.813 144.772 43.8089ZM139.914 49.1028L139.914 47.9388L149.646 47.9388L149.646 49.1028L145.509 49.1028L145.509 49.8152L148.456 49.8152L148.456 52.5368L142.513 52.5368L142.513 53.1788L148.734 53.1788L148.734 54.3055L141.045 54.3055L141.045 51.4929L146.981 51.4929L146.981 50.913L141.037 50.913L141.037 49.8152L144.009 49.8152L144.009 49.1028L139.914 49.1028ZM142.455 45.6315C142.446 46.1493 143.209 46.3605 144.772 46.3605C146.355 46.3605 147.109 46.1493 147.109 45.6315C147.109 45.151 146.355 44.9149 144.772 44.9107C143.209 44.9149 142.446 45.151 142.455 45.6315ZM159.225 43.7095L159.225 54.4049L157.737 54.4049L157.737 43.7095L159.225 43.7095ZM150.852 45.8138L150.852 44.6083L155.921 44.6083L155.921 48.7175L152.402 48.7175L152.402 50.6769C154.035 50.6644 155.415 50.5774 156.974 50.3165L157.102 51.5302C155.353 51.8408 153.77 51.9071 151.818 51.9071L150.86 51.9071L150.86 47.5411L154.396 47.5411L154.396 45.8138L150.852 45.8138ZM169.325 46.6257L169.325 47.7979L161.873 47.7979L161.873 44.0905L163.361 44.0905L163.361 46.6257L169.325 46.6257ZM160.65 50.1094L160.65 48.9371L170.407 48.9371L170.407 50.1094L160.65 50.1094ZM161.773 54.144L161.773 50.9834L163.27 50.9834L163.27 52.9427L169.392 52.9427L169.392 54.144L161.773 54.144ZM119.675 61.7037L119.675 64.04L121.109 64.04L121.109 65.2661L119.675 65.2661L119.675 67.6687L118.175 67.6687L118.175 61.7037L119.675 61.7037ZM111.091 66.7201C113.487 66.1277 114.813 64.943 115.049 63.5222L111.617 63.5222L111.617 62.3334L116.683 62.3334C116.678 65.1543 114.892 67.0681 111.684 67.9131L111.091 66.7201ZM112.691 72.2418L112.691 68.0705L119.675 68.0705L119.675 72.2418L112.691 72.2418ZM114.179 71.0695L118.196 71.0695L118.196 69.2759L114.179 69.2759L114.179 71.0695ZM125.615 63.1577C125.606 64.5868 126.344 65.9041 128.06 66.4343L127.264 67.6024C126.116 67.2089 125.341 66.4716 124.893 65.5147C124.417 66.6248 123.559 67.4989 122.278 67.9297L121.482 66.7367C123.314 66.1485 124.097 64.7194 124.106 63.2281L124.106 62.2629L125.615 62.2629L125.615 63.1577ZM123.264 70.3074C123.26 68.9984 124.657 68.232 126.928 68.232C129.208 68.232 130.601 68.9984 130.605 70.3074C130.601 71.6246 129.208 72.3744 126.928 72.3702C124.657 72.3744 123.26 71.6246 123.264 70.3074ZM124.752 70.3074C124.748 70.8997 125.515 71.2104 126.928 71.2062C128.346 71.2104 129.117 70.8997 129.121 70.3074C129.117 69.6984 128.346 69.3919 126.928 69.3919C125.515 69.3919 124.748 69.6984 124.752 70.3074ZM127.082 64.885L127.082 63.6631L129.084 63.6631L129.084 61.7037L130.576 61.7037L130.576 67.9587L129.084 67.9587L129.084 64.885L127.082 64.885ZM143.924 61.7037L143.924 72.3744L142.486 72.3744L142.486 66.9479L141.508 66.9479L141.508 71.898L140.119 71.898L140.119 61.9854L141.508 61.9854L141.508 65.7466L142.486 65.7466L142.486 61.7037L143.924 61.7037ZM134.594 69.1434C136.766 67.8758 137.703 66.3141 137.902 64.2223L135.133 64.2223L135.133 63.0251L139.361 63.0251C139.356 65.9993 138.469 68.435 135.456 70.1789L134.594 69.1434ZM153.689 62.3334L153.689 63.2902C153.685 64.2844 153.685 65.3738 153.412 66.8692L154.833 66.8692L154.833 68.0746L150.672 68.0746L150.672 72.3827L149.163 72.3827L149.163 68.0746L145.101 68.0746L145.101 66.8692L151.903 66.8692C152.172 65.4898 152.197 64.446 152.201 63.5222L146.216 63.5222L146.216 62.3334L153.689 62.3334ZM164.412 61.7037L164.412 72.3992L162.924 72.3992L162.924 61.7037L164.412 61.7037ZM156.039 63.808L156.039 62.6026L161.108 62.6026L161.108 66.7118L157.589 66.7118L157.589 68.6711C159.222 68.6587 160.603 68.5717 162.161 68.3108L162.29 69.5245C160.54 69.8351 158.957 69.9014 157.005 69.9014L156.047 69.9014L156.047 65.5354L159.583 65.5354L159.583 63.808L156.039 63.808Z" fill="#1F1408"/>
</g>
<path d="M284.82 101.942C285.664 99.3915 286.705 96.9525 288.518 94.9105C290.553 92.6193 293.041 91.1876 296.077 90.7463C296.239 90.723 296.434 90.742 296.562 90.419C288.936 89.1435 285.823 83.6679 284.192 76.7986C282.558 83.7165 279.425 89.1604 271.806 90.6301C272.334 90.7378 272.867 90.8223 273.388 90.9532C278.411 92.2287 281.281 95.7446 283.033 100.392C283.402 101.376 283.646 102.407 283.948 103.416C284.141 103.655 284.389 103.885 284.459 103.378C284.526 102.88 284.648 102.409 284.82 101.945V101.942Z" fill="white"/>
<path d="M30.3129 164.267C31.157 161.716 32.1986 159.277 34.0108 157.235C36.0457 154.944 38.5341 153.512 41.5706 153.071C41.7323 153.048 41.9276 153.067 42.0557 152.744C34.4287 151.468 31.3166 145.993 29.685 139.123C28.0512 146.041 24.9181 151.485 17.2996 152.955C17.8267 153.063 18.3601 153.147 18.8809 153.278C23.9039 154.553 26.7745 158.069 28.5258 162.717C28.8954 163.701 29.139 164.732 29.4414 165.741C29.6346 165.98 29.8824 166.21 29.9517 165.703C30.0189 165.205 30.1407 164.734 30.3129 164.269V164.267Z" fill="white"/>
<path d="M218.541 43.3036C220.635 43.5483 222.725 43.7999 224.819 44.033C225.66 44.1277 225.834 44.4855 225.541 45.2726C225.098 46.4567 224.507 47.5693 223.766 48.8412C225.051 48.2526 226.101 47.7101 227.198 47.2854C228.328 46.8468 228.578 47.0107 228.752 48.3034C229.127 51.1241 229.448 53.9495 229.793 56.7725C229.835 57.1095 229.75 57.4673 230.043 57.9082C230.421 57.2365 230.367 56.5624 230.449 55.93C230.775 53.4139 231.054 50.8933 231.417 48.3819C231.661 46.6968 231.916 46.5791 233.567 47.2208C234.211 47.4701 234.818 47.8094 235.601 48.181C235.224 47.14 234.64 46.3321 234.368 45.3926C234.15 44.6332 234.265 44.2985 235.137 44.1508C238.297 43.6175 241.487 43.359 244.661 42.9481C244.966 42.9089 245.27 42.872 245.594 42.6065C243.69 42.3872 241.787 42.1795 239.888 41.9463C238.339 41.7571 236.797 41.5147 235.245 41.3485C234.478 41.2654 234.356 40.9399 234.567 40.2751C234.961 39.0356 235.601 37.9184 236.527 36.5726C235.184 37.1659 234.169 37.6529 233.121 38.0638C231.816 38.5762 231.616 38.4862 231.431 37.1474C231.042 34.3313 230.728 31.5036 230.362 28.6829C230.311 28.2905 230.383 27.8496 229.95 27.3926C229.701 29.5139 229.479 31.5152 229.232 33.5142C229.073 34.8114 228.895 36.1064 228.7 37.399C228.553 38.3847 228.121 38.8071 227.017 38.3754C226.19 38.05 225.433 37.5929 224.406 37.1405C224.938 38.2 225.494 39.0194 225.756 39.9681C225.965 40.7322 225.878 41.1985 224.915 41.3023C222.55 41.5562 220.192 41.8863 217.831 42.1841C216.743 42.438 215.548 42.1033 214.285 42.8535C215.857 43.0497 217.203 43.1859 218.546 43.3082L218.541 43.3036Z" fill="white"/>
<path d="M224.466 319.397C226.608 319.642 228.747 319.894 230.889 320.127C231.75 320.221 231.928 320.579 231.628 321.366C231.175 322.55 230.57 323.663 229.812 324.935C231.127 324.346 232.201 323.804 233.324 323.379C234.48 322.941 234.736 323.104 234.914 324.397C235.298 327.218 235.626 330.043 235.979 332.866C236.022 333.203 235.936 333.561 236.236 334.002C236.622 333.33 236.567 332.656 236.651 332.024C236.984 329.508 237.269 326.987 237.641 324.476C237.891 322.791 238.152 322.673 239.841 323.315C240.5 323.564 241.121 323.903 241.922 324.275C241.536 323.234 240.939 322.426 240.661 321.486C240.438 320.727 240.555 320.392 241.448 320.245C244.681 319.711 247.945 319.453 251.193 319.042C251.505 319.003 251.816 318.966 252.147 318.7C250.2 318.481 248.252 318.273 246.309 318.04C244.724 317.851 243.146 317.608 241.558 317.442C240.774 317.359 240.649 317.034 240.865 316.369C241.268 315.129 241.922 314.012 242.87 312.666C241.496 313.26 240.457 313.747 239.385 314.158C238.049 314.67 237.845 314.58 237.656 313.241C237.257 310.425 236.936 307.597 236.562 304.777C236.509 304.384 236.583 303.943 236.14 303.486C235.885 305.608 235.658 307.609 235.406 309.608C235.243 310.905 235.06 312.2 234.861 313.493C234.71 314.478 234.269 314.901 233.139 314.469C232.292 314.144 231.518 313.687 230.467 313.234C231.012 314.294 231.58 315.113 231.849 316.062C232.062 316.826 231.973 317.292 230.988 317.396C228.567 317.65 226.155 317.98 223.739 318.278C222.626 318.532 221.403 318.197 220.11 318.947C221.72 319.143 223.096 319.28 224.471 319.402L224.466 319.397Z" fill="white"/>
</g>
<defs>
<filter id="filter0_b_4152_15430" x="-16.4404" y="-57.9504" width="310.502" height="318.242" filterUnits="userSpaceOnUse" color-interpolation-filters="sRGB">
<feFlood flood-opacity="0" result="BackgroundImageFix"/>
<feGaussianBlur in="BackgroundImageFix" stdDeviation="30"/>
<feComposite in2="SourceAlpha" operator="in" result="effect1_backgroundBlur_4152_15430"/>
<feBlend mode="normal" in="SourceGraphic" in2="effect1_backgroundBlur_4152_15430" result="shape"/>
</filter>
</defs>
</svg>
