<svg xmlns="http://www.w3.org/2000/svg" width="390" height="420" fill="none"><mask id="a" width="390" height="420" x="0" y="0" maskUnits="userSpaceOnUse" style="mask-type:alpha"><path fill="#D9D9D9" d="M0 0h390v420H0z"/></mask><g mask="url(#a)"><path fill="#CAA2FF" d="M306.112 242H39.888c-1.043 0-1.888.682-1.888 1.523v28.954c0 .841.845 1.523 1.888 1.523h266.224c1.043 0 1.888-.682 1.888-1.523v-28.954c0-.841-.845-1.523-1.888-1.523"/><path fill="#6C5A84" d="M145.874 254.495c2.3 0 4.019 1.164 4.019 2.917 0 1.612-1.363 2.693-3.282 2.909v1.823h4.161v1.218h-9.755v-1.218h4.115v-1.827c-1.906-.216-3.261-1.297-3.257-2.905-.004-1.753 1.712-2.917 3.999-2.917m-2.528 2.917c0 1.127 1.04 1.757 2.528 1.761 1.504-.004 2.54-.634 2.544-1.761-.004-1.065-1.04-1.724-2.544-1.724-1.488 0-2.528.659-2.528 1.724m17.797 4.695v1.214h-9.754v-1.214zm-9.361-2.752c2.333-.356 3.676-1.81 3.676-3.306v-.004h-3.257v-1.19h8.088v1.19h-3.257v.004c-.004 1.496 1.343 2.9 3.754 3.261l-.592 1.185c-1.865-.327-3.253-1.243-3.937-2.507-.679 1.289-2.042 2.242-3.886 2.569zm13.425-4.698c1.699 0 2.955 1.089 2.963 2.618-.008 1.533-1.264 2.619-2.963 2.619-1.678 0-2.963-1.086-2.958-2.619-.005-1.529 1.28-2.618 2.958-2.618m-3.402 6.584c1.902 0 4.538-.025 6.821-.344l.112 1.077c-2.362.46-4.894.481-6.763.481zm1.927-3.966c0 .846.638 1.326 1.475 1.326.854 0 1.5-.48 1.504-1.326-.004-.833-.646-1.326-1.504-1.326-.841 0-1.475.493-1.475 1.326m5.499 7.364V253.94h1.487v10.699zm11.127-9.684v7.052h-5.126v-7.052zm-3.651 5.867h2.163v-4.694h-2.163zm5.105 3.792V253.94h1.496v4.027h1.575v1.248h-1.575v5.399zm5.407-10.123v1.363h2.101v-1.363h1.479v1.889h1.964v-2.44h1.492v5.842h-1.492v-2.175h-1.964v1.869h-5.08v-4.985zm-.079 9.982v-4.247h1.48v.986h4.143v-.986h1.488v4.247zm.079-6.195h2.101v-1.276h-2.101zm1.401 4.997h4.143v-.92h-4.143zm10.943-6.915c-.009 1.91.808 3.837 2.519 4.665l-.903 1.19c-1.14-.564-1.915-1.616-2.358-2.901-.464 1.38-1.289 2.507-2.499 3.108l-.915-1.214c1.802-.829 2.656-2.868 2.66-4.848v-1.596h1.496zm2.991 8.254V253.94h1.496v4.114h1.575v1.264h-1.575v5.296z"/><path fill="#D9BBFF" d="M56.951 242h11.423v32H56.951z"/><path fill="#FF7B35" d="M324.255 274H58.882c-1.04 0-1.882.853-1.882 1.904v36.192c0 1.051.843 1.904 1.882 1.904h265.373a1.894 1.894 0 0 0 1.882-1.904v-36.192a1.894 1.894 0 0 0-1.882-1.904"/><path fill="#FFD2BB" d="M115.783 288.407v6.692h-1.417v-2.826h-.857v2.478h-1.397v-6.141h1.397v2.445h.857v-2.648zm-9.219 2.263v-1.16h1.881v-1.003h1.483v1.003h1.873v1.16zm.323 2.225c0-1.123.974-1.865 2.308-1.865 1.359 0 2.329.742 2.333 1.865-.004 1.102-.974 1.844-2.333 1.844-1.334 0-2.308-.742-2.308-1.844m1.334 0c0 .489.394.787.974.783.584.004.978-.294.982-.783-.004-.501-.398-.796-.982-.787-.58-.009-.974.286-.974.787m.228 4.247c-.008-1.235 1.392-1.939 3.688-1.939 2.308 0 3.696.704 3.7 1.939-.004 1.235-1.392 1.939-3.7 1.935-2.296.004-3.696-.7-3.688-1.935m1.492 0c-.004.539.75.812 2.196.808 1.454.004 2.192-.269 2.196-.808-.004-.559-.742-.824-2.196-.82-1.446-.004-2.2.261-2.196.82m16.781-3.439v1.198h-9.729v-1.198h4.098v-.899h-2.855v-4.131h1.471v.973h4.285v-.973h1.479v4.131h-2.88v.899zm-8.652 3.112v-1.177h7.467v3.443h-1.496v-2.266zm1.637-5.196h4.285v-.866h-4.285zm16.118-3.224v2.312h1.442v1.198h-1.442v2.266h-1.5v-5.776zm-8.465 1.952v-1.14h2.424v-.87h1.492v.87h2.415v1.14zm.522 2.005c-.004-1.065 1.052-1.744 2.648-1.744 1.591 0 2.623.679 2.623 1.744 0 1.09-1.032 1.741-2.623 1.745-1.596-.004-2.652-.655-2.648-1.745m.866 3.323v-1.073h7.077v2.689h-5.585v.614h5.892v1.102h-7.367v-2.731h5.569v-.601zm.588-3.323c0 .456.452.671 1.194.676.737-.005 1.201-.22 1.206-.676-.005-.447-.469-.696-1.206-.696-.742 0-1.194.249-1.194.696m20.148-3.945v10.674h-1.487v-5.345h-2.118v-1.222h2.118v-4.107zm-9.087 7.645c2.693-1.325 3.808-3.016 4.028-5.349h-3.531v-1.173h5.043c-.008 3.216-1.048 5.847-4.777 7.691zm13.342-6.89c1.629 0 2.805 1.475 2.814 3.795-.009 2.345-1.185 3.812-2.814 3.812-1.632 0-2.822-1.467-2.813-3.812-.009-2.32 1.181-3.795 2.813-3.795m-1.367 3.795c-.004 1.595.551 2.457 1.367 2.457.837 0 1.376-.862 1.38-2.457-.004-1.579-.543-2.445-1.38-2.445-.816 0-1.371.866-1.367 2.445m5.416 6.124v-10.674h1.495v2.487h1.509v1.247h-1.509v1.898h1.509v1.214h-1.509v3.828zm15.146-10.674v10.699h-1.513v-10.699zm-8.615 4.55c-.004-2.32 1.19-3.795 2.822-3.795 1.612 0 2.805 1.475 2.81 3.795-.005 2.345-1.198 3.812-2.81 3.812-1.632 0-2.826-1.467-2.822-3.812m1.446 0c-.008 1.595.547 2.457 1.376 2.457.812 0 1.363-.862 1.363-2.457 0-1.579-.551-2.445-1.363-2.445-.829 0-1.384.866-1.376 2.445m12.961-3.505v4.102h-2.61v1.914c1.011-.008 1.976-.049 3.07-.224l.104 1.194c-1.401.236-2.553.273-3.87.277h-.742v-4.35h2.602v-1.708h-2.614v-1.205zm1.057 9.107v-9.965h1.371v3.854h1.028v-4.041h1.413v10.674h-1.413v-5.436h-1.028v4.914zm13.657-5.37v1.181h-3.095v2.275h4.16v1.218h-9.754v-1.218h4.114v-2.275h-2.967v-5.204h7.467v1.189h-5.971v2.834zm10.791-.443v1.202h-2.067v1.752a42 42 0 0 0 2.589-.182l.112 1.086c-2.328.36-4.752.377-6.762.377l-.17-1.219c.849.005 1.778 0 2.735-.016v-1.798h-2.035v-4.588h5.549v1.186h-4.065v2.2zm1.127 6.36v-10.699h1.488v10.699zm12.82-6.65v1.222h-1.508v5.379h-1.496v-10.65h1.496v4.049zm-9.584 3.994v-7.019h1.492v5.784a24 24 0 0 0 4.367-.459l.158 1.247c-1.79.356-3.518.451-5.093.447zm21.727-8.026v5.909h-1.5v-5.909zm-8.967 4.579c1.786-.531 2.569-1.865 2.573-3.187v-1.031h1.55v1.031c-.009 1.268.77 2.524 2.519 3l-.717 1.185c-1.235-.36-2.084-1.102-2.569-2.055-.485 1.032-1.359 1.848-2.635 2.238zm1.612 5.958v-1.197h1.375v-1.774h-1.28v-1.176h7.318v1.176h-1.272v1.774h1.367v1.197zm2.859-1.197h1.802v-1.774h-1.802zm10.798-9.199c2.457 0 3.874.642 3.878 1.815-.004 1.193-1.421 1.831-3.878 1.831-2.462 0-3.887-.638-3.883-1.831-.004-1.173 1.421-1.815 3.883-1.815m-4.857 5.337v-1.185h9.73v1.185zm1.123 1.711v-1.098h7.417v2.723h-5.942v.642h6.22v1.127h-7.686v-2.814h5.933v-.58zm1.417-5.233c-.008.526.755.729 2.317.733 1.583-.004 2.337-.207 2.337-.733 0-.468-.754-.725-2.337-.721-1.562-.004-2.325.253-2.317.721m19.585-1.973v6.34h-1.492v-2.519h-1.666v-1.218h1.666v-2.603zm-9.058 5.159c1.74-.58 2.54-1.968 2.573-3.306h-2.138v-1.202h5.784v1.202h-2.125c.037 1.239.799 2.49 2.453 3.037l-.738 1.177c-1.177-.386-1.985-1.156-2.453-2.114-.464 1.086-1.318 1.956-2.582 2.391zm1.748 3.473c-.004-1.293 1.392-2.056 3.663-2.056 2.279 0 3.671.763 3.676 2.056-.005 1.292-1.397 2.051-3.676 2.055-2.271-.004-3.667-.763-3.663-2.055m1.488 0c-.004.609.762.915 2.175.911 1.417.004 2.188-.302 2.192-.911-.004-.614-.775-.92-2.192-.92-1.413 0-2.179.306-2.175.92m15.894-3.85v1.181h-3.095v2.275h4.16v1.218h-9.754v-1.218h4.115v-2.275h-2.967v-5.204h7.467v1.189h-5.971v2.834zm11.436 3.477v1.222h-9.754v-1.222h4.115v-1.612h-2.992v-3.589h6.029v-1.16h-6.045v-1.201h7.524v3.534h-6.016v1.202h6.265v1.214h-3.286v1.612z"/><path fill="#FFA474" d="M75.745 274h11.293v40H75.745z"/><path fill="#2BA830" d="M360 203.119h-22.621v15.258H360l-10.368-7.824z"/><path fill="#75F3C9" d="M336.159 180H69.889c-1.044 0-1.889 1.321-1.889 2.951v56.097c0 1.631.845 2.952 1.888 2.952H336.16c1.043 0 1.888-1.321 1.888-2.952v-56.097c0-1.63-.845-2.951-1.888-2.951"/><path fill="#00754E" d="M125.543 208.195c-.009 1.629.857 3.506 2.61 4.314l-.833 1.172c-1.189-.547-2.034-1.632-2.507-2.913-.48 1.413-1.359 2.607-2.585 3.187l-.87-1.181c1.777-.829 2.672-2.814 2.681-4.579v-.654h-2.259v-1.223h5.909v1.223h-2.146zm2.979 7.765v-10.674h1.496v4.078h1.574v1.247h-1.574v5.349zm12.414-10.674v10.674h-1.513v-10.674zm-8.925 7.654c2.751-1.306 3.965-2.988 4.205-5.358h-3.634v-1.173h5.159c-.004 3.232-1.139 5.922-4.951 7.72zm20.067-1.766v1.198h-4.156v3.588h-1.48v-3.588h-4.094v-1.198zm-9.253-1.79c2.171-.261 3.356-1.317 3.514-2.361h-3.112v-1.169h7.976v1.169h-3.107c.141 1.044 1.322 2.1 3.518 2.361l-.543 1.173c-1.873-.253-3.212-1.052-3.858-2.146-.646 1.094-1.981 1.893-3.837 2.146zm15.874-3.319v.667c-.008.742-.008 1.803-.245 3.129l-1.471-.137c.191-1.019.237-1.798.249-2.44h-4.028v-1.219zm-6.12 4.575c.596 0 1.268-.004 1.976-.017v-2.092h1.488v2.043a32 32 0 0 0 3.157-.274l.075 1.078c-2.217.406-4.716.447-6.568.451zm1.566 5.134v-3.211h1.5v2.005h5.996v1.206zm5.631-2.499v-7.989h1.529v3.257h1.297v1.248h-1.297v3.484zm8.171-7.438c2.258 0 4.019 1.219 4.019 3.067 0 1.86-1.761 3.074-4.019 3.074-2.25 0-4.003-1.214-3.999-3.074-.004-1.848 1.749-3.067 3.999-3.067m-4.856 8.822v-1.21h9.754v1.21zm2.308-5.755c-.004 1.16 1.069 1.848 2.548 1.848 1.475 0 2.54-.688 2.544-1.848-.004-1.144-1.069-1.865-2.544-1.857-1.479-.008-2.552.713-2.548 1.857m17.817 4.641v1.222h-9.754v-1.222h4.114v-1.612h-2.991v-3.589h6.029v-1.16h-6.046v-1.202h7.525v3.535h-6.017v1.202h6.266v1.214h-3.286v1.612zm13.302-4.21v1.222h-1.508v5.379h-1.496v-10.65h1.496v4.049zm-9.584 3.994v-7.019h1.492v5.784a24 24 0 0 0 4.367-.46l.158 1.248c-1.79.356-3.518.451-5.093.447zm13.483-7.326c1.699 0 2.954 1.09 2.963 2.619-.009 1.533-1.264 2.619-2.963 2.619-1.678 0-2.963-1.086-2.959-2.619-.004-1.529 1.281-2.619 2.959-2.619m-3.402 6.584c1.902 0 4.537-.024 6.821-.343l.111 1.077c-2.361.46-4.893.481-6.762.481zm1.927-3.965c0 .845.638 1.326 1.475 1.326.854 0 1.5-.481 1.504-1.326-.004-.833-.646-1.326-1.504-1.326-.841 0-1.475.493-1.475 1.326m5.499 7.363v-10.699h1.487v10.699zm14.653-10.682v7.798h-1.492v-3.783h-1.782c-.302 1.227-1.404 2.064-2.743 2.064-1.616 0-2.846-1.148-2.838-2.727-.008-1.587 1.222-2.71 2.838-2.71 1.38 0 2.511.87 2.768 2.159h1.757v-2.801zm-7.438 3.352c0 .883.617 1.434 1.421 1.434.788 0 1.393-.551 1.401-1.434-.008-.891-.613-1.405-1.401-1.405-.804 0-1.421.514-1.421 1.405m.36 7.119v-3.456h1.492v2.25h5.839v1.206zm11.399-9.733c1.438 0 2.515 1.185 2.723 3.103h1.856v-3.858h1.479v10.699h-1.479v-5.643h-1.84c-.153 2.047-1.255 3.306-2.739 3.306-1.62 0-2.776-1.467-2.772-3.812-.004-2.32 1.152-3.795 2.772-3.795m-1.338 3.795c-.004 1.595.543 2.457 1.338 2.457.804 0 1.339-.862 1.343-2.457-.004-1.579-.539-2.445-1.343-2.445-.795 0-1.342.866-1.338 2.445m18.513.236v1.111h-9.754v-1.111zm-8.639 2.677v-1.036h7.475v2.519h-5.979v.61h6.29v1.019h-7.778v-2.577h5.983v-.535zm.083-6.249v-1.015h7.379v2.503h-5.875v.572h6.058v1.011h-7.546v-2.532h5.863v-.539zm17.388-.323v5.122H244.3v-5.122zm-3.895 9.597v-3.468h1.491v2.262h5.81v1.206zm.252-5.652h2.167v-2.756h-2.167zm5.167 2.954v-7.781h1.5v3.07h1.434v1.235h-1.434v3.476zm13.156-3.617v1.173h-9.746v-1.173zm-8.623 2.925v-1.131h7.417v2.789h-5.942v.667h6.22v1.156h-7.687v-2.888h5.934v-.593zm.091-3.518v-3.356h7.289v1.185h-5.797v.995h5.88v1.176zm12.095-2.825c1.438 0 2.515 1.185 2.723 3.103h1.856v-3.858h1.479v10.699h-1.479v-5.643h-1.84c-.153 2.047-1.255 3.306-2.739 3.306-1.62 0-2.776-1.467-2.772-3.812-.004-2.32 1.152-3.795 2.772-3.795m-1.338 3.795c-.004 1.595.543 2.457 1.338 2.457.804 0 1.339-.862 1.343-2.457-.004-1.579-.539-2.445-1.343-2.445-.795 0-1.342.866-1.338 2.445m17.183-4.55v4.032h1.575v1.239h-1.575v5.428h-1.479v-10.699zm-7.981 2.105v-1.205h4.931v4.131h-3.431v1.939c1.558-.008 2.835-.079 4.252-.319l.132 1.193c-1.628.299-3.095.365-4.976.369h-.895v-4.363h3.427v-1.745z"/><path fill="#B0FFE5" d="M87.026 180h11.425v62H87.026z"/><path fill="#85DCFF" d="M38 334c0-11.046 8.954-20 20-20h249.741v40H58c-11.046 0-20-8.954-20-20"/><path fill="#fff" d="M45.804 333.999c0-6.838 5.543-12.381 12.38-12.381H308v24.762H58.185c-6.838 0-12.381-5.543-12.381-12.381"/><path fill="#4F505C" d="M149.045 329.009c.849-.004 1.595.311 2.109.833h2.416v-1.413h1.492v6.257h-1.492v-1.276h-2.437c-.509.513-1.247.82-2.088.816-1.616.004-2.847-1.098-2.838-2.606-.009-1.521 1.222-2.615 2.838-2.611m-1.421 2.611c0 .82.588 1.346 1.421 1.342.808.004 1.392-.522 1.401-1.342-.009-.846-.593-1.339-1.401-1.331-.833-.008-1.421.485-1.421 1.331m.128 5.382c-.004-1.326 1.409-2.105 3.663-2.101 2.254-.004 3.671.775 3.676 2.101-.005 1.322-1.422 2.101-3.676 2.097-2.254.004-3.667-.775-3.663-2.097m1.467 0c-.008.622.783.937 2.196.932 1.442.005 2.209-.31 2.213-.932-.004-.638-.771-.957-2.213-.957-1.413 0-2.204.319-2.196.957m2.577-4.786h1.774v-1.189h-1.77c.042.191.067.385.067.593q-.001.31-.071.596m13.682-3.77v8.059h-1.5v-.854h-2.038v-1.019h2.038v-6.186zm-9.079 4.727c1.96-.016 4.596-.041 6.85-.327l.087 1.073a30 30 0 0 1-2.577.303v2.026h-1.5v1.463h6.455v1.206h-7.951v-3.187h1.496v-1.421c-.958.037-1.869.045-2.681.045zm.792-2.453c0-1.135 1.098-1.918 2.681-1.914 1.554-.004 2.66.779 2.664 1.914-.004 1.144-1.11 1.882-2.664 1.882-1.583 0-2.681-.738-2.681-1.882m1.417 0c-.004.518.506.8 1.264.8.721 0 1.239-.282 1.243-.8-.004-.53-.522-.82-1.243-.82-.758 0-1.268.29-1.264.82m16.669-2.274v3.269h1.434v1.226h-1.434v3.469h-1.5v-7.964zm-8.465 2.295v-1.177h2.424v-1.135h1.492v1.135h2.416v1.177zm.522 2.445c-.004-1.239 1.09-2.068 2.648-2.068 1.541 0 2.623.829 2.623 2.068 0 1.226-1.082 2.039-2.623 2.034-1.558.005-2.652-.808-2.648-2.034m1.024 5.731v-3.125h1.491v1.919h5.81v1.206zm.431-5.731c0 .584.476.899 1.193.899.713 0 1.202-.315 1.206-.899-.004-.597-.493-.924-1.206-.928-.717.004-1.193.331-1.193.928m15.092-2.242c0 1.198.779 2.428 2.515 2.955l-.717 1.16c-1.193-.344-2.038-1.078-2.523-2.002-.472.999-1.318 1.79-2.553 2.172l-.725-1.165c1.732-.526 2.511-1.819 2.511-3.12v-.079h-2.146v-1.176h2.146v-1.185h1.509v1.185h2.129v1.176h-2.146zm-2.018 7.973v-3.241h1.492v2.035h5.838v1.206zm3.816-6.162v-1.198h1.77v-3.111h1.491v7.906h-1.491v-3.597zm13.247-3.858v.841c0 .788 0 1.691-.219 2.839h1.371v1.197h-4.148v1.529h3v3.8h-1.5v-2.627h-6.128v-1.173h3.128v-1.529h-4.106v-1.197h6.878a12.7 12.7 0 0 0 .228-2.486h-5.913v-1.194z"/><path fill="#FFDA4A" d="M296.678 354H32.871c-1.033 0-1.871.853-1.871 1.904v36.192c0 1.051.838 1.904 1.87 1.904h263.808c1.033 0 1.87-.853 1.87-1.904v-36.192c0-1.051-.837-1.904-1.87-1.904"/><path fill="#A78500" d="M73.532 369.357v1.011c-.004 1.334-.004 2.834-.426 5.105l-1.509-.157c.406-2.018.427-3.518.435-4.77h-6.281v-1.189zm-8.784 8.437v-1.215h3.48v-3.667h1.484v3.667h4.765v1.215zm19.358-9.348v7.785h-1.491v-3.82H80.87v-1.206h1.745v-2.759zm-9.05 5.386c1.762-.555 2.562-1.947 2.566-3.311v-.161h-2.138v-1.198h5.784v1.198h-2.126v.17c0 1.239.759 2.561 2.453 3.112l-.737 1.185c-1.181-.386-1.993-1.165-2.457-2.126a4.2 4.2 0 0 1-2.578 2.341zm1.973 5.085v-3.365h1.492v2.159h5.838v1.206zm17.386-10.488v10.699h-1.512v-10.699zm-8.614 4.55c-.004-2.321 1.189-3.796 2.822-3.796 1.611 0 2.805 1.475 2.809 3.796-.004 2.345-1.198 3.812-2.81 3.812-1.632 0-2.825-1.467-2.821-3.812m1.446 0c-.008 1.595.547 2.457 1.376 2.457.812 0 1.363-.862 1.363-2.457 0-1.579-.551-2.445-1.363-2.445-.83 0-1.384.866-1.376 2.445m19.841-4.55v2.312h1.434v1.227h-1.434v2.175h-1.5v-5.714zm-8.047 5.465v-4.819h4.757v1.194h-3.269v2.415c1.935-.008 2.995-.07 4.185-.331l.157 1.202c-1.342.281-2.573.335-4.94.339zm1.04 5.076v-4.317h1.492v.994h4.015v-.994h1.5v4.317zm1.492-1.193h4.015v-.957h-4.015zm16.586-9.331v6.567h-1.417v-2.627h-.837v2.507h-1.392v-6.302h1.392v2.589h.837v-2.734zm-9.219 2.196v-1.181h1.881v-.966h1.483v.966h1.873v1.181zm.323 2.2c0-1.119.974-1.865 2.308-1.869 1.359.004 2.329.75 2.333 1.869-.004 1.094-.974 1.856-2.333 1.86-1.334-.004-2.308-.766-2.308-1.86m.327 5.018c1.384-.402 2.006-1.359 2.01-2.304v-.211h1.479v.211c-.008.783.34 1.587 1.181 2.113.854-.555 1.227-1.396 1.235-2.113v-.211h1.488v.211c-.005.994.592 1.943 2.005 2.304l-.692 1.11c-1.032-.31-1.707-.932-2.076-1.715-.348.783-.965 1.471-1.935 1.823-.99-.344-1.612-.999-1.956-1.778-.385.75-1.056 1.355-2.038 1.67zm1.007-5.018c0 .497.394.787.974.783.584.004.978-.286.982-.783-.004-.522-.398-.796-.982-.796-.58 0-.974.274-.974.796m17.183-4.413v3.965h1.575v1.223h-1.575v5.511h-1.495v-10.699zm-7.988 8.105v-7.111h5.001v1.206h-3.514v4.674c1.546-.012 2.826-.095 4.235-.34l.166 1.252c-1.654.282-3.108.323-4.993.319zm18.175-7.09v7.053h-5.126v-7.053zm-3.651 5.868h2.163v-4.695h-2.163zm5.105 3.791v-10.674h1.496v4.028h1.575v1.247h-1.575v5.399zm12.149-10.657v2.577h1.202v1.222h-1.202v2.561h-1.504v-6.36zm-8.436 5.714v-4.948h2.768v1.177h-1.351v2.536c.48-.021.94-.071 1.446-.178l.128 1.239c-.874.161-1.57.178-2.457.174zm1.081 2.855c0-1.302 1.417-2.076 3.721-2.076 2.296 0 3.713.774 3.717 2.076-.004 1.317-1.421 2.076-3.717 2.071-2.304.005-3.721-.754-3.721-2.071m1.508 0c-.008.617.771.911 2.213.915 1.442-.004 2.213-.298 2.213-.915 0-.618-.771-.908-2.213-.908s-2.221.29-2.213.908m.709-2.86v-4.943h2.867v1.177h-1.433v2.515c.692-.012 1.135-.05 1.657-.174l.141 1.227c-.758.169-1.343.198-2.64.198zm15.741-5.726v10.674h-1.512v-10.674zm-8.701 2.809v-1.197h2.428v-1.467h1.516v1.467h2.428v1.197zm.455 3.125c-.004-1.488 1.169-2.545 2.752-2.545 1.574 0 2.743 1.057 2.743 2.545 0 1.491-1.169 2.54-2.743 2.544-1.583-.004-2.756-1.053-2.752-2.544m1.426 0c-.004.828.547 1.321 1.326 1.317.77.004 1.313-.489 1.313-1.317 0-.817-.543-1.322-1.313-1.33-.779.008-1.33.513-1.326 1.33m14.943-4.882c-.008 1.306.746 2.511 2.449 3l-.762 1.157c-1.165-.353-1.96-1.061-2.42-1.977-.473 1.04-1.33 1.848-2.59 2.25l-.729-1.189c1.757-.539 2.54-1.832 2.548-3.232v-.68h1.504zm-2.528 6v-1.156h7.078v2.855h-5.586v.672h5.892v1.176h-7.367v-2.921h5.569v-.626zm5.578-1.558v-5.494h1.5v2.088h1.434v1.227h-1.434v2.179zm6.277-4.74c1.628 0 2.805 1.475 2.814 3.796-.009 2.345-1.186 3.812-2.814 3.812-1.633 0-2.822-1.467-2.814-3.812-.008-2.321 1.181-3.796 2.814-3.796m-1.367 3.796c-.005 1.595.551 2.457 1.367 2.457.837 0 1.376-.862 1.38-2.457-.004-1.579-.543-2.445-1.38-2.445-.816 0-1.372.866-1.367 2.445m5.415 6.124v-10.674h1.496v4.028h1.575v1.247h-1.575v5.399zm6.323-9.92c1.629 0 2.805 1.475 2.814 3.796-.009 2.345-1.185 3.812-2.814 3.812-1.632 0-2.822-1.467-2.813-3.812-.009-2.321 1.181-3.796 2.813-3.796m-1.367 3.796c-.004 1.595.551 2.457 1.367 2.457.837 0 1.376-.862 1.38-2.457-.004-1.579-.543-2.445-1.38-2.445-.816 0-1.371.866-1.367 2.445m5.415 6.124v-10.674h1.496v2.486h1.509v1.247h-1.509v1.898h1.509v1.214h-1.509v3.829zm14.683-10.686v2.312h1.442v1.197h-1.442v2.267h-1.5v-5.776zm-8.466 1.951v-1.139h2.424v-.87h1.492v.87h2.416v1.139zm.522 2.006c-.004-1.065 1.053-1.745 2.648-1.745 1.591 0 2.623.68 2.623 1.745 0 1.089-1.032 1.74-2.623 1.744-1.595-.004-2.652-.655-2.648-1.744m.866 3.323v-1.073h7.078v2.689h-5.586v.613h5.892v1.102h-7.367v-2.73h5.569v-.601zm.589-3.323c0 .455.451.671 1.193.675.738-.004 1.202-.22 1.206-.675-.004-.448-.468-.696-1.206-.696-.742 0-1.193.248-1.193.696m15.076-2.847c-.009 1.355.733 2.573 2.474 3.095l-.796 1.161c-1.148-.369-1.943-1.09-2.403-2.023-.473 1.074-1.335 1.911-2.607 2.325l-.762-1.202c1.798-.542 2.581-1.91 2.59-3.319v-.721h1.504zm-3.087 6.091v-1.094h3.522v2.714h-2.043v.68c.895-.008 1.492-.046 2.204-.182l.129 1.106c-.937.191-1.703.207-3.158.199h-.638v-2.843h2.06v-.58zm4.081 3.423v-4.517h3.555v4.517zm1.297-1.082h.966v-2.345h-.966zm.758-3.866v-5.664h1.5v2.13h1.434v1.21h-1.434v2.324zm12.651-5.664v10.674h-1.43v-10.674zm-9.15 4.62c-.004-2.382.912-3.853 2.317-3.853 1.284 0 2.167 1.197 2.328 3.182h.871v-3.783h1.413v10.015h-1.413v-5.039h-.858c-.129 2.093-1.024 3.361-2.341 3.357-1.405.004-2.321-1.476-2.317-3.879m1.376 0c-.008 1.645.344 2.449.941 2.445.617.004.982-.8.982-2.445 0-1.628-.365-2.445-.982-2.44-.597-.005-.949.812-.941 2.44m20.885-4.62v10.674h-1.413v-5.354h-1.027v4.832h-1.372v-9.966h1.372v3.937h1.027v-4.123zm-8.917 8.254v-7.015h3.982v1.202h-2.482v4.562c1.032-.017 1.948-.075 2.975-.261l.112 1.218c-1.301.253-2.436.29-3.841.294zm18.485-8.254v4.181h1.574v1.231h-1.574v5.262h-1.48v-10.674zm-8.47 2.793v-1.198h2.416v-1.425h1.491v1.425h2.362v1.198zm.431 3.141c-.004-1.488 1.156-2.545 2.731-2.545 1.554 0 2.718 1.057 2.722 2.545-.004 1.491-1.168 2.54-2.722 2.544-1.575-.004-2.735-1.053-2.731-2.544m1.434 0c-.004.828.542 1.321 1.297 1.317.745.004 1.284-.489 1.292-1.317-.008-.817-.547-1.322-1.292-1.33-.755.008-1.301.513-1.297 1.33m11.502-5.18c.957 0 1.753.526 2.242 1.442h2.337v-2.196h1.479v10.699h-1.479v-3.999h-2.23c-.472 1.057-1.317 1.662-2.349 1.662-1.62 0-2.776-1.467-2.772-3.812-.004-2.321 1.152-3.796 2.772-3.796m-1.338 3.796c-.005 1.595.542 2.457 1.338 2.457.804 0 1.338-.862 1.343-2.457-.005-1.579-.539-2.445-1.343-2.445-.796 0-1.343.866-1.338 2.445m3.994-1.148c.066.352.104.737.104 1.148q-.001.503-.071.953h1.89v-2.101z"/><path fill="#FFE88C" d="M49.71 354h11.226v40H49.71z"/><path fill="#2BA830" d="M321 366.382h-22.451v15.238H321l-10.29-7.814z"/><path fill="#A0FF56" d="M309.678 421H45.871c-1.033 0-1.871-.575-1.871-1.285v-24.43c0-.709.838-1.285 1.87-1.285h263.808c1.033 0 1.87.576 1.87 1.285v24.43c0 .71-.837 1.285-1.87 1.285"/><path fill="#419400" d="M169.78 406.757v1.193h-9.729v-1.193h4.106v-1.028h1.483v1.028zm-9.323-1.649c2.279-.137 3.364-.825 3.571-1.562h-3.045v-1.177h3.174v-.924h1.483v.924h3.195v1.177h-3.07c.203.737 1.292 1.425 3.576 1.562l-.452 1.127c-1.964-.137-3.323-.705-3.99-1.566-.672.861-2.035 1.429-3.991 1.566zm.704 5.159c0-1.173 1.388-1.815 3.733-1.815 2.342 0 3.709.642 3.717 1.815-.008 1.172-1.375 1.814-3.717 1.81-2.345.004-3.733-.638-3.733-1.81m1.525 0c-.008.489.721.708 2.208.704 1.463.004 2.213-.215 2.217-.704-.004-.489-.754-.709-2.217-.709-1.487 0-2.216.22-2.208.709m19.103-8.346v.908c0 .853 0 1.806-.215 3.025h1.367v1.193h-2.449v2.329h-1.45v-2.329h-1.16v2.329h-1.467v-2.329h-3.228v-1.193h6.883c.203-1.111.224-1.969.228-2.76h-5.942v-1.173zm-7.558 9.974v-3.476h1.492v2.27h6.348v1.206zm16.311-5.204v1.976a30 30 0 0 0 2.648-.261l.112 1.082c-2.362.451-4.894.476-6.763.497l-.169-1.231c.783 0 1.698-.004 2.672-.029v-2.034zm-4.114-.676c1.785-.53 2.598-1.802 2.602-3.157v-.705h1.537v.688c-.004 1.243.791 2.461 2.557 2.946l-.713 1.19c-1.231-.357-2.093-1.09-2.586-2.023-.484 1.04-1.371 1.844-2.668 2.23zm7.367 6.091v-10.699h1.488v10.699z"/><path fill="#CAFFA0" d="M62.71 421h11.226v-27H62.71z"/><path fill="#2BA830" d="M334 412.643h-22.451v-10.286H334l-10.29 5.275z"/><mask id="b" width="150" height="151" x="120" y="29" maskUnits="userSpaceOnUse" style="mask-type:alpha"><path fill="#D9D9D9" d="M120 29h149.966v151H120z"/></mask><g mask="url(#b)"><path fill="#DBFF9E" d="M206.987 179.882h-21.575l9.849-7.32z"/><path fill="#DBFF9E" d="M207.531 179.646c-1.305-.103-2.597-.219-3.895-.328-1.168-.097-2.329-.207-3.497-.268-3.15-.164-6.305-.091-9.454.025-1.87.067-3.746.146-5.647.553-.77-1.307-1.342-2.669-1.919-4.031-1.522-3.588-2.373-7.357-2.963-11.176-.373-2.414-.516-4.852-.584-7.296-.193-6.925.894-13.668 2.913-20.284.621-2.031 1.596-3.928 2.603-5.867.037-.055.031-.061.037-.061.199-.188.304-.432.441-.711.037-.037.031-.049.037-.049.112-.116.18-.249.28-.413.031-.031.031-.043.037-.043.106-.103.174-.231.28-.395.037-.037.037-.061.049-.061.025-.03.044-.061.1-.122.037-.03.037-.042.037-.042.112-.098.174-.219.286-.377.043-.037.043-.067.056-.073.024-.037.037-.067.087-.116.043-.024.037-.042.049-.042.031-.031.044-.055.106-.116.037-.03.037-.042.043-.042.031-.025.05-.055.112-.116.037-.036.037-.042.037-.042.156-.14.299-.292.448-.505.043-.031.068-.079.124-.122s.087-.103.149-.146c.062-.048.093-.109.155-.152s.1-.109.156-.139c.13-.11.205-.189.335-.286.155-.14.329-.158.472-.298.031-.031.031-.037.037-.037a1 1 0 0 0 .118-.115c.038-.037.038-.043.038-.043.025-.024.056-.048.118-.109.037-.037.037-.043.037-.043.025-.024.05-.048.118-.103.044-.031.044-.043.056-.043.025-.024.037-.054.106-.091 1.31-.936 2.813-1.125 4.311-1.331 1.919-.262 3.838-.292 5.745.097 2.833.577 4.759 2.402 6.43 4.548.788 1.015 1.441 2.116 2.031 3.32.037.073.062.091.093.152.025.067.037.097.068.164.038.061.056.079.087.14.019.067.038.097.069.17.037.061.062.079.087.134.018.073.031.103.062.182.043.061.068.073.08.128.007.073.025.103.063.194.074.092.105.14.124.256.025.079.037.103.062.176.037.061.056.079.081.14.018.073.031.103.056.188a.45.45 0 0 1 .111.262c.025.079.038.103.062.182.038.061.056.079.075.14.012.073.031.11.056.189.068.091.106.139.112.255.018.079.031.109.056.188a.53.53 0 0 1 .105.268c.019.079.031.109.056.188a.6.6 0 0 1 .106.274c.025.079.031.11.056.189a.5.5 0 0 1 .099.273c.019.079.031.11.056.195.174.62.335 1.191.534 1.812.044.115.062.182.087.304.205 1.045.478 2.024.708 3.064.038.116.056.189.075.304.242 1.283.509 2.511.733 3.806.025.128.037.201.05.329-.007.279.055.492.105.76.025.115.031.188.044.316.08.875.174 1.702.273 2.584.025.176.037.298.043.48-.012.73.118 1.399.112 2.128.025.274.037.499.037.785.038 1.185.013 2.31.007 3.496l-.019.79c-.056.785-.137 1.502-.137 2.28-.006.134-.006.207-.018.335-.056.474-.137.888-.137 1.356-.006.127-.012.2-.025.328-.167.718-.167 1.399-.292 2.122l-.031.328c-.161.517-.149 1.004-.273 1.521-.012.121-.019.194-.037.316-.193.669-.274 1.301-.435 1.976-.019.121-.025.188-.05.304-.18.517-.279 1.003-.416 1.532-.019.122-.025.189-.056.304-.255.784-.503 1.514-.727 2.298a1.5 1.5 0 0 1-.08.317c-.013.079-.007.103-.038.152-.043.054-.049.079-.074.158-.261.492-.398.972-.559 1.501-.044.073-.05.104-.081.177a2.2 2.2 0 0 0-.236.596.8.8 0 0 0-.087.176c-.025.073-.025.103-.062.152-.044.055-.05.085-.081.152-.174.298-.329.553-.404.894-.043.067-.056.103-.093.182-.025.073-.025.104-.056.152-.05.055-.056.085-.093.158-.025.073-.025.098-.062.152-.044.055-.05.085-.081.152a2 2 0 0 0-.242.596 1 1 0 0 0-.075.17 1.9 1.9 0 0 0-.236.602q-.002.057-.012.067"/><path fill="#00CE4C" d="M166.138 120.87c.29.312 0 .449-.155.59a46 46 0 0 0-5.403 6.168c-.057.028-.075.189-.132.227-.103.08-.117.297-.239.349a1 1 0 0 1-.108.132c-.112.095-.131.279-.239.359-.056.071-.056.199-.126.232-.024.023-.085.113-.108.127-.169.161-.197.458-.361.59l-.108.133c-.057.033-.071.193-.127.231-.052.062-.056.203-.127.232-.056.136-.122.292-.229.363-.052.062-.057.203-.127.232-.014.018-.084.113-.108.132-.108.118-.103.392-.244.467-.023.029-.094.104-.103.133-.061.028-.075.193-.122.236-.108.217-.173.543-.361.708-.052.061-.056.198-.117.236-.052.057-.057.203-.118.236-.051.057-.056.203-.117.236-.089.118-.15.359-.234.477-.047.057-.057.203-.118.241-.107.364-.29.652-.464.959-.15.227-.141.647-.356.831-.118.156-.071.472-.24.595-.107.161-.065.472-.234.595-.136.293-.127.713-.352.954-.094.071-.028.288-.122.354-.089.071-.023.288-.122.354-.089.076-.023.293-.117.359-.788 2.456-1.215 5.157-1.773 7.618-.253.16-.614.283-.835.467-.056.052-.183.08-.234.128-.108.08-.272.146-.361.231a5.5 5.5 0 0 0-1.06.718 3 3 0 0 0-.474.359c-.249.17-.502.401-.713.595-.019.023-.084.113-.122.108a6.8 6.8 0 0 0-1.416 1.436c-7.486 7.778-5.802 22.644 4.709 26.772-1.468.75-2.603 1.69-3.101 2.63h38.38a3.2 3.2 0 0 0-.526-1.351c-.492-1.331-1.205-2.573-1.604-3.943-2.185-6.304-2.687-13.142-1.974-19.744 1.003-6.461 2.157-15.098 8.658-18.257 7.321-2.612 12.377 2.998 14.061 9.685 2.673 9.214 2.837 19.282-.286 28.396-.385 1.214-.948 2.352-1.464 3.514-.276.548-.534 1.129-.638 1.7h38.37c-.375-.893-1.322-1.771-2.903-2.408 9.83-4.992 12.396-18.314 4.517-26.994-.399-.571-.901-1.025-1.417-1.436-.028-.014-.117-.08-.127-.113-.201-.227-.497-.411-.712-.595-.113-.156-.347-.236-.474-.359-.31-.316-.727-.486-1.06-.718-.094-.108-.286-.137-.361-.231-.061-.052-.202-.057-.23-.123-.732-.279-1.041-.765-1.079-1.516-.624-4.689-2.195-9.223-4.423-13.383-2.298-4.378-5.468-8.194-9.084-11.532-.441-.312-.085-.562.262-.714 32.944-15.683 33.258-48.268 1.609-65.788-2.912-2.196-3.41-6.46-5.459-9.426-1.782-3.447-3.78-6.796-6.369-9.7-7.331-8.448-18.568-8.595-20.637 3.934-1.332-11.377-12.288-12.694-19.389-5.11-5.196 5.2-8.282 12.07-11.317 18.682-1.388 2.154-4.296 2.829-6.261 4.42-29.478 19.934-22.639 50.894 8.564 63.985z"/><path fill="#0E0E0E" d="M186.688 36.578c2.873 1.551 3.734 4.38 2.232 7-.977 1.699-2.859 2.684-4.749 2.485-1.777-.193-3.219-1.543-3.761-3.46-1.051-3.747 3.186-7.323 6.278-6.025M203.409 36.534c3.209.293 5.193 2.453 5 5.304-.127 1.852-1.362 3.413-3.117 3.94-1.652.488-3.51-.16-4.818-1.638-2.55-2.894-.356-7.598 2.935-7.607"/><path fill="#fff" d="M185.585 41.274c-.9-.326-1.231-.896-.984-1.759.168-.564.588-.934 1.197-1.09.767-.197 1.372-.019 1.826.485.318.356.444.79.167 1.278-.459.798-1.237 1.041-2.196 1.078zM204.142 41.002c-.81-.635-.996-1.325-.538-2.115.307-.514.814-.747 1.455-.699.808.061 1.363.446 1.687 1.11.226.468.243.95-.152 1.351-.652.652-1.482.636-2.44.349z"/><path fill="#0E0E0E" d="M200.765 57.915c1.378-.075 2.359-.883 3.498-1.478 1.736-.217-.042 1.842-.806 2.064-2.43 1.407-5.244.949-7.645-.227-2.406.312-4.662 2.078-7.42 1.573-1.435.08-5.619-1.937-3.757-3.542.436-.132.68.118.887.486 1.88 2.654 5.951 1.658 8.47.61 2.303-1.158 4.301 1.086 6.777.514z"/><path fill="#00C62E" d="M195.194 122.977h-18.459c14.767 8.553 29.917 3.563 35.645 0z"/></g></g></svg>