<svg xmlns="http://www.w3.org/2000/svg" width="390" height="420" fill="none"><mask id="a" width="390" height="420" x="0" y="0" maskUnits="userSpaceOnUse" style="mask-type:alpha"><path fill="#D9D9D9" d="M0 0h390v420H0z"/></mask><g mask="url(#a)"><path fill="#FFA144" fill-rule="evenodd" d="M150.125 182H88.278v44.404L57.14 195.266l-43.733 43.733 31.278 31.277H0v61.848h45.218l-31.86 31.86 43.732 43.733 31.188-31.188v43.874h61.847v-44.686l31.859 31.858 43.732-43.732-31.719-31.719h44.406v-61.848H194.53l31.136-31.136-43.732-43.732-31.809 31.808z" clip-rule="evenodd"/><mask id="b" width="239" height="239" x="0" y="182" maskUnits="userSpaceOnUse" style="mask-type:alpha"><path fill="#FFA144" fill-rule="evenodd" d="M150.125 182.001H88.278v44.404L57.14 195.267 13.407 239l31.278 31.277H0v61.848h45.218l-31.86 31.86 43.732 43.733 31.188-31.188v43.874h61.847v-44.686l31.859 31.858 43.732-43.732-31.719-31.719h44.406v-61.848H194.53l31.136-31.136-43.732-43.732-31.809 31.808z" clip-rule="evenodd"/></mask><g mask="url(#b)"><path fill="#00CE4C" d="M112.25 420.887a1.5 1.5 0 0 1-.479.166c-3.832.463-7.563 1.392-11.278 2.413-3.468.953-6.99 1.527-10.596 1.559-1.612.015-3.22.118-4.833.09-1.082-.019-2.137-.181-3.161-.537-.448-.155-.88-.341-1.256-.633-.835-.653-.977-1.571-.376-2.445.392-.57.93-.973 1.51-1.317.38-.226.78-.427 1.161-.637-.015-.214-.18-.21-.294-.253-4.04-1.594-6.386-4.632-7.19-8.841-.962-5.028.384-9.506 3.534-13.473 1.11-1.396 2.448-2.504 4.091-3.2.299-.127.377-.321.416-.613.78-6.25 3.174-11.848 6.81-16.927 1.06-1.479 2.22-2.883 3.743-4.003-.216-.229-.49-.265-.722-.352-5.578-2.132-10.439-5.336-14.456-9.798-2.954-3.279-5.264-6.954-6.57-11.21-1.711-5.578-1.597-11.108.568-16.559a17 17 0 0 1 2.487-4.315c1.189-1.492 2.401-2.975 3.66-4.407 3.1-3.528 6.767-6.353 10.792-8.722q.843-.493 1.69-.973c.405-.23.676-.566.868-.997 1.432-3.236 3-6.4 4.774-9.458 1.624-2.801 3.519-5.388 6.049-7.441 1.424-1.155 2.981-2.072 4.77-2.539 1.801-.471 3.598-.506 5.331.245 2.229.969 3.539 2.753 4.202 5.055.216.756.388 1.523.588 2.315.33-.107.31-.38.357-.602.185-.906.4-1.804.746-2.662 1.369-3.422 4.57-5.126 8.089-4.581 2.581.404 4.695 1.682 6.61 3.367 1.82 1.602 3.279 3.512 4.558 5.561 2.079 3.327 3.825 6.832 5.41 10.42.31.7.749 1.194 1.404 1.554a47.6 47.6 0 0 1 6.634 4.347c3.934 3.102 7.3 6.709 9.768 11.12a27.3 27.3 0 0 1 3.001 8.137c.215 1.107.302 2.231.384 3.421.302.538.043.989-.078 1.424-.86 3.026-1.734 6.044-2.609 9.063-.318 1.099-.612 2.207-1.004 3.342a2 2 0 0 1-.095.19 1.3 1.3 0 0 1-.113.17 35.7 35.7 0 0 1-4.998 5.945c-.373.36-.749.709-1.248.985-.447.127-.796-.035-1.145-.185-1.785-.78-3.586-1.527-5.374-2.303-.797-.344-.922-.281-.84.582.22 2.294.114 4.596.098 6.895-.004.866.377 1.246 1.095 1.538 2.867 1.159 5.696 2.409 8.536 3.624.286.122.588.221.812.538.11.506-.134.878-.306 1.261-3.103 6.875-6.21 13.746-9.078 20.724-.498 1.207-.4 1.503.765 2.061a76 76 0 0 0 5.3 2.306c1.204.471 1.522.329 1.977-.886a98 98 0 0 1 1.436-3.572c.126-.293.204-.688.722-.55 1.032 1.049 1.914 2.156 2.593 3.41 2.412 4.45 2.648 9.023.561 13.643-1.232 2.73-3.276 4.7-6.045 5.866-.142.06-.306.08-.424.269.09.178.294.226.459.309.6.309 1.185.641 1.683 1.104 1.102 1.028.992 2.282-.267 3.097-.341.221-.71.38-1.094.502-.62.198-1.26.329-1.907.384-4.001.344-7.955.146-11.827-1.032a111 111 0 0 0-6.481-1.741c-2.228-.53-4.488-.819-6.759-1.028-.957-.087-1.918-.155-2.93-.254-.177-.288-.028-.502.078-.724 1.914-3.924 2.758-8.101 3.068-12.444.302-4.233-.208-8.362-1.165-12.46-.491-2.089-1.169-4.114-2.256-5.981-.62-1.064-1.424-1.958-2.322-2.785-.977-.894-2.166-1.242-3.441-1.341-.961-.075-1.918.02-2.875.146-1.805.238-3.068 1.318-4.107 2.686-1.707 2.247-2.609 4.858-3.225 7.583-.616 2.73-1.036 5.475-1.122 8.287-.169 5.459.561 10.732 2.828 15.74.185.407.42.807.33 1.337"/><path fill="#0E0E0E" d="M110.314 302.634c2.883 1.612 3.746 4.554 2.239 7.277-.98 1.767-2.868 2.792-4.765 2.585-1.782-.201-3.229-1.605-3.773-3.597-1.055-3.897 3.196-7.615 6.299-6.265M127.091 302.586c3.219.305 5.21 2.551 5.017 5.516-.128 1.925-1.367 3.548-3.128 4.095-1.658.509-3.521-.165-4.834-1.702-2.558-3.009-.357-7.9 2.945-7.909"/><path fill="#fff" d="M109.185 307.123c-.416-.845-.287-1.512.423-2.029.469-.335.989-.352 1.505-.077.651.347.957.884.953 1.578-.003.488-.188.913-.684 1.116-.815.328-1.502.011-2.186-.587zM127.826 307.232c-.812-.66-1-1.377-.539-2.198.307-.535.816-.778 1.459-.727.81.063 1.367.463 1.692 1.154.227.487.245.988-.152 1.405-.654.678-1.487.661-2.448.362z"/><path fill="#00C62E" d="M120.104 372.508h-15.309c12.247 7.171 24.811 2.988 29.563 0z"/><path fill="#CECDCD" d="M195.78 298.052c.283-.289.585-.459.938-.593.157.245.161.502.212.735 1.62 7.829 3.228 15.661 4.86 23.485.145.689.051 1.203-.345 1.804-1.808 2.741-3.417 5.605-5.064 8.445a1911 1911 0 0 1-21.796 36.57c-.655 1.076-1.345 2.129-2.048 3.232-.262.214-.498.123-.725.028-2.017-.831-4.017-1.697-6.018-2.556a.9.9 0 0 1-.447-.363c-.083-.455.125-.792.274-1.14 3.072-7.132 6.163-14.26 9.251-21.388 3.071-7.084 6.111-14.181 9.183-21.269 3.813-8.802 7.61-17.607 11.435-26.401.079-.189.188-.356.29-.589"/><path fill="#F3F3F3" d="M195.749 298.016c.239.297.019.558-.087.807-1.035 2.393-2.095 4.779-3.134 7.172-1.106 2.559-2.189 5.126-3.295 7.686-1.036 2.393-2.099 4.774-3.135 7.167-1.106 2.56-2.193 5.127-3.295 7.686-.855 1.982-1.738 3.952-2.593 5.934-.792 1.835-1.565 3.682-2.358 5.522-.714 1.649-1.447 3.295-2.165 4.944-.781 1.796-1.55 3.592-2.326 5.388-.695 1.61-1.385 3.22-2.079 4.834-.856 1.982-1.707 3.967-2.562 5.945-.812 1.879-1.632 3.754-2.444 5.629-.279.641-.553 1.278-.843 1.962-.271.265-.53.142-.769.04-1.781-.78-3.582-1.511-5.363-2.291-.227-.099-.443-.217-.604-.486-.094-.321-.039-.59.024-.851.541-2.258 1.176-4.489 1.804-6.724.09-.325.247-.629.424-.977a1 1 0 0 0 .078-.17c.561-1.583.961-3.177 1.42-4.751.753-2.567 1.491-5.143 2.228-7.714.138-.474.244-.957.369-1.491.498-1.384.828-2.765 1.236-4.122q3.566-11.872 7.128-23.746c.369-1.23.729-2.46 1.047-3.706.118-.455.361-.732.742-.969 3.852-2.378 7.696-4.767 11.549-7.148 2.895-1.792 5.794-3.576 8.693-5.368.09-.051.172-.123.31-.202"/><path fill="#DBFF9E" d="M112.282 420.943c-.212-.408-.333-.823-.518-1.207-1.557-3.271-2.353-6.748-2.73-10.336-.569-5.407-.019-10.712 1.491-15.917.6-2.069 1.447-4.023 2.765-5.748.565-.74 1.256-1.341 1.982-1.91.247-.194.525-.345.827-.44 1.785-.545 3.598-.7 5.437-.352 1.687.317 2.876 1.393 3.9 2.69 1.239 1.579 2.051 3.382 2.632 5.289 1.608 5.301 2.212 10.708 1.648 16.234-.31 3.042-.911 6.013-2.04 8.861-.357.898-.726 1.792-1.256 2.662a23 23 0 0 1-2.087-.087c-3.173-.265-6.347-.21-9.517.075a60 60 0 0 1-2.534.186"/><path fill="#3F291E" d="M158.692 365.856c.357.273.745.395 1.114.553 1.832.784 3.668 1.555 5.551 2.33.745.408 1.503.669 2.24.981 1.601.681 3.205 1.345 4.86 2.03 1.197.625 2.417 1.064 3.606 1.578 2.361 1.016 4.731 2.013 7.096 3.022.181.075.388.119.506.309-.019.213-.204.28-.341.391-.848.661-1.691 1.325-2.55 1.974-1.216.922-2.315 1.978-3.464 2.975-.957.83-.937.834-2.083.348-2.84-1.211-5.684-2.405-8.524-3.608-.208-.087-.416-.17-.695-.182-.286.024-.494-.055-.702-.146-2.22-.957-4.452-1.887-6.673-2.844-.204-.087-.419-.162-.584-.404-.181-.257-.428-.324-.651-.419q-4.538-1.933-9.082-3.861c-.125-.051-.247-.11-.369-.158-.384-.146-.533-.419-.529-.835a189 189 0 0 0-.028-3.987c-.015-1.305-.047-2.611-.074-3.916-.004-.158-.012-.316 0-.475.023-.356.066-.395.416-.249 1.133.475 2.263.965 3.393 1.452q1.481.636 2.958 1.274c.247.106.494.221.831.17 1.307.526 2.586.969 3.778 1.697"/><path fill="#9F613E" d="M158.002 375.164c.969.217 1.832.688 2.734 1.056 1.683.692 3.355 1.42 5.03 2.136.058.024.105.075.172.154-.349 1.223-.882 2.338-1.349 3.477-1.314 3.196-2.652 6.381-3.978 9.573a408 408 0 0 0-1.561 3.797c-.114.277-.33.558-.126.938-.341-.032-.396.245-.486.471-.534 1.337-1.063 2.678-1.593 4.015-.067.166-.118.344-.204.498-.251.451-.612.609-1.126.514-.486-.091-.941-.281-1.396-.474-1.691-.716-3.382-1.432-5.041-2.22-.224-.106-.444-.213-.62-.391-.271-.277-.4-.593-.283-.981.067-.214.13-.431.216-.637 2.487-6.06 5.159-12.037 7.85-18.006.584-1.29 1.161-2.587 1.761-3.92"/><path fill="#FF5D5D" d="M121.398 318.218c.804-.024 1.53.095 2.26.217 1.047.174 1.655 1.056 1.608 2.057-.11 2.421-.506 4.79-1.467 7.037-.435 1.021-.985 1.97-1.785 2.753-1.644 1.606-3.703 1.555-5.26-.142-.628-.688-1.079-1.491-1.424-2.354-.832-2.08-1.13-4.26-1.115-6.483.004-.736.267-1.392.997-1.772.459-.241.93-.443 1.428-.57 1.545-.391 3.099-.688 4.758-.743"/><path fill="#070D07" d="M105.455 305.801c.016-1.7.726-2.95 2.107-3.813 1.494-.933 3.252-.558 4.244.902 1.467 2.152.451 5.34-1.989 6.218-1.722.621-3.554-.348-4.127-2.199-.105-.34-.156-.7-.235-1.108"/><path fill="#FB2812" d="M161.022 357.196c.004.004.023-.003.019-.007s-.019 0-.019.007"/><path fill="#E8E7E6" d="M109.296 305.006c-.169-.261-.189-.502-.177-.756.031-.621.416-1.123.949-1.242.538-.122 1.122.151 1.409.677.176.32.251.672.188 1.04-.118.7-.62 1.056-1.306.902a1.92 1.92 0 0 1-1.063-.621"/><path fill="#00CE4C" d="M93.832 382.906c-18.794-6.632-29.496-18.819-32.498-24.083l29.757-5.527c8.744 12.634 21.534 36.243 2.74 29.61M159.454 399.353c-.212-.031-.359-.067-.51-.098-2.082-.429-3.414-1.788-3.556-3.593-.084-1.052.188-2.046.491-3.039 1.148-3.749 2.705-7.349 5.016-10.675.748-1.079 1.592-2.099 2.677-2.958a5.7 5.7 0 0 1 1.475-.86c1.016-.392 2.049-.384 3.103.011.452.169.85.417 1.305.66 3.12 2.384 3.94 5.4 3.825 8.667-.03.88-.158 1.756-.396 2.613-.843 3.031-2.686 5.465-5.759 7.18-1.28.713-2.593 1.365-4.075 1.762-1.142.304-2.312.453-3.596.33"/><path fill="#060605" d="M96.47 300.635c-.065-.038-.096-.055-.124-.077-.4-.283-.403-.309-.02-.6q1.986-1.51 3.977-3.022c.314-.237.634-.467.939-.717.205-.17.376-.205.618-.057 2.078 1.291 4.163 2.568 6.241 3.852.394.244.388.254.161.677q-1.318 2.478-2.636 4.949c-.044.08-.09.157-.128.24-.106.251-.261.253-.466.122-.66-.425-1.327-.843-1.991-1.258a2440 2440 0 0 1-6.57-4.109"/><path fill="#CECDCD" d="M67.382 352.402c-4.78-5.266-8.475-11.17-10.127-18.276-1.961-8.428-1.161-16.567 2.473-24.389.175-.378.181-.635-.057-.991-.53-.79-.64-1.689-.483-2.677-.092-.651.219-1.077.636-1.484.134-.093.24-.16.326-.25.819-.816 1.8-1.148 2.915-.983.376.055.578-.06.802-.345 4.276-5.469 9.652-9.339 16.041-11.711 4.255-1.578 8.653-2.314 13.169-2.262 3.788.042 7.498.639 11.155 1.836.151.362-.125.471-.312.609-1.803 1.322-3.601 2.65-5.404 3.972-3.449 2.525-6.894 5.054-10.348 7.57-4.783 3.485-9.537 7.016-14.291 10.54-.255.189-.451.406-.539.762-.044.241-.085.446-.12.687-.024.134-.077.224-.087.359-.003.106-.006.18-.025.282a1.4 1.4 0 0 0-.032.334c0 .151-.031.26-.075.404-.031.096-.065.157-.081.26-.007.106-.019.173-.038.279-.028.125-.075.211-.072.343.006.131-.007.224-.022.353-.02.125-.035.211-.023.34a.9.9 0 0 1-.025.272c-.05.132-.121.222-.094.376.003.154-.028.266-.072.41-.04.119-.087.199-.09.327 0 .103-.01.17-.026.27a1.7 1.7 0 0 0-.028.333c0 .151-.035.263-.079.411a.8.8 0 0 0-.084.401c0 .102-.007.173-.022.276-.02.122-.035.211-.032.337 0 .154-.035.266-.078.41-.044.122-.088.205-.085.34.003.109-.01.183-.028.292-.044.154-.088.269-.079.43 0 .109-.003.183-.022.292-.031.147-.075.256-.025.41a.8.8 0 0 1-.016.283c-.047.134-.125.227-.085.384a.8.8 0 0 1-.022.276c-.047.135-.125.225-.097.382.003.154-.028.269-.072.414-.044.118-.09.202-.09.333-.001.106-.01.173-.03.276-.034.144-.068.253-.03.401.008.157-.023.273-.067.42-.044.122-.09.209-.087.343.002.113-.01.183-.029.292-.044.154-.087.27-.081.43 0 .109-.004.183-.023.289-.03.147-.078.256-.038.41.01.158-.022.273-.066.424-.043.122-.09.208-.087.343 0 .109-.01.183-.029.292-.03.131-.077.221-.075.362.012.141-.003.244-.025.382-.028.138-.078.228-.082.372.003.115-.006.192-.025.308-.047.157-.09.276-.085.446.003.115-.003.192-.022.304-.028.135-.078.225-.081.366a1.3 1.3 0 0 1-.025.295c-.05.17-.097.308-.026.485a.7.7 0 0 1-.01.285c-.044.141-.128.231-.097.391.003.158-.028.273-.075.421-.044.121-.09.205-.09.343-.001.109-.01.183-.03.292-.027.131-.077.218-.074.356a1.6 1.6 0 0 1-.023.365c-.028.151-.075.263-.025.417a.8.8 0 0 1-.02.289c-.068.16-.161.272-.1.465a.6.6 0 0 1-.019.215c-.1.179-.156.33-.143.542a1.3 1.3 0 0 1-.023.221c-.05.154-.087.273-.078.436.003.116-.003.19-.022.305-.032.135-.078.225-.082.366.01.138-.003.234-.022.369-.031.15-.075.263-.026.42a.8.8 0 0 1-.019.289c-.071.16-.165.275-.15.465.003.112-.006.183-.025.295-.031.134-.078.224-.078.365.012.142-.004.244-.026.382-.028.138-.078.228-.084.369.003.115-.007.189-.029.305-.03.134-.08.224-.08.365a1.4 1.4 0 0 1-.026.305c-.047.157-.09.276-.082.446.003.115-.003.192-.022.308-.031.138-.081.227-.081.372a1.5 1.5 0 0 1-.026.385c-.028.138-.081.231-.084.372.003.115-.007.192-.026.308-.047.157-.09.276-.084.446.003.115-.004.192-.023.304-.028.135-.08.225-.081.366.003.112-.007.189-.028.302-.029.131-.079.221-.082.359a1.3 1.3 0 0 1-.025.295c-.053.173-.094.308-.023.487a.8.8 0 0 1-.013.292c-.065.161-.168.27-.153.462.003.106-.006.177-.025.282-.034.148-.069.257-.022.408a.7.7 0 0 1-.02.285c-.071.161-.165.273-.15.462.004.109-.006.183-.025.292-.028.131-.078.221-.078.359.003.112-.007.189-.029.302-.03.134-.08.224-.078.365.003.116-.006.193-.025.305-.047.157-.09.279-.082.449a1.3 1.3 0 0 1-.025.311c-.053.164-.09.289-.144.452a.3.3 0 0 1-.105.125"/><path fill="#939393" d="M73.217 314.357c-.04-.401.153-.657.43-.846 1.744-1.184 3.377-2.526 5.087-3.761 1.695-1.226 3.364-2.484 5.05-3.723q3.302-2.434 6.613-4.855c1.5-1.098 3.007-2.186 4.506-3.284 2.553-1.869 5.1-3.748 7.649-5.621.448-.326.902-.646 1.35-.969.127-.093.289-.151.354-.366.243-.083.445-.185.634-.329.315-.237.644-.454.961-.685a.8.8 0 0 1 .603-.15c2.943.381 5.612 1.467 7.976 3.335.521.412.576.691.314 1.313-.178.416-.436.798-.543 1.292.003.295-.122.5-.231.705a822 822 0 0 1-5.012 9.414c-2.356 4.356-4.736 8.696-7.072 13.062-1.617 3.023-3.272 6.026-4.885 9.049-.187.349-.39.698-.726.98-.36.028-.605-.177-.856-.338-3.205-2.043-6.412-4.08-9.617-6.122q-5.053-3.229-10.1-6.46c-.823-.531-1.635-1.081-2.485-1.641"/><path fill="#5B5B5B" d="M73.179 314.368c.214-.061.382 0 .559.116 2.435 1.583 4.87 3.166 7.315 4.732 2.115 1.355 4.243 2.687 6.359 4.038 2.01 1.283 4.014 2.583 6.024 3.87.9.576 1.806 1.139 2.743 1.724.21.257.03.434-.082.603-3.042 4.557-6.037 9.15-9.067 13.716-.869 1.311-1.728 2.631-2.59 3.948-2.688 4.102-5.378 8.198-8.146 12.242-.102.148-.19.311-.382.42-.401.288-.635.685-.884 1.054-.377.557-.78.557-1.23.312-1.223-.657-2.411-1.374-3.456-2.313-1.178-1.057-2.167-2.291-3.065-3.608-.133-.196-.136-.411-.11-.629.056-.488.125-.975.188-1.463.028-.218.072-.433-.005-.68a.16.16 0 0 1 .053-.103c.1-.134.09-.272.112-.436.013-.109.022-.186.038-.301.053-.167.044-.302.072-.465.016-.109.022-.186.038-.302.035-.131.047-.224.066-.356.013-.112.019-.189.035-.305.04-.128.056-.224.069-.356.012-.112.019-.189.034-.304.072-.173.047-.327.1-.504a9 9 0 0 0 .038-.289c.025-.121.029-.211.041-.333.013-.109.02-.186.035-.302.072-.173.047-.327.1-.503.019-.109.029-.18.041-.289.031-.157.022-.279.05-.436.016-.112.02-.189.038-.305.038-.128.05-.224.066-.356.013-.112.02-.189.038-.305.04-.128.053-.224.066-.356.01-.112.016-.189.031-.304.069-.164.063-.299.082-.465.013-.109.019-.186.034-.302.041-.128.057-.224.066-.356.016-.147.026-.257.048-.41.037-.132.05-.228.066-.36.012-.112.018-.189.034-.304.063-.164.053-.302.079-.466.012-.109.022-.186.037-.301a1.8 1.8 0 0 0 .063-.356c.013-.112.019-.189.035-.305.043-.128.06-.221.069-.356.016-.147.025-.256.047-.41.04-.132.053-.228.066-.36.012-.112.019-.189.035-.304.071-.173.043-.327.103-.501.019-.109.028-.179.04-.292.023-.121.026-.211.039-.333.015-.144.025-.257.047-.408.037-.131.047-.227.066-.359.012-.112.019-.189.034-.304.06-.164.054-.302.079-.466.012-.077.015-.121.025-.198.09-.202.035-.395.11-.603a2 2 0 0 0 .028-.19c.037-.16.02-.301.072-.468.019-.112.028-.186.041-.295.022-.122.022-.212.038-.334.016-.144.025-.256.047-.407.038-.131.047-.228.066-.359.013-.112.019-.189.035-.305.04-.128.053-.224.066-.356.025-.157.047-.279.072-.439.022-.135.022-.238.063-.369.018-.109.028-.183.04-.289.035-.157.026-.279.048-.436.015-.112.022-.189.037-.305.038-.128.05-.224.06-.356.013-.112.019-.189.035-.305.062-.163.056-.298.078-.465.013-.109.02-.186.035-.301.04-.128.053-.225.066-.356.015-.148.025-.257.047-.411.037-.131.047-.228.066-.359.012-.112.019-.189.034-.305.041-.128.057-.224.066-.356.025-.157.047-.279.073-.439.021-.125.022-.212.037-.334.013-.109.02-.186.035-.301.062-.164.056-.299.082-.465.015-.109.022-.186.04-.302.038-.128.047-.224.06-.356.028-.157.047-.279.075-.439.02-.125.02-.212.038-.331.013-.109.022-.186.038-.301a1.8 1.8 0 0 0 .063-.356c.028-.157.047-.279.075-.44.019-.134.019-.237.063-.369a5 5 0 0 0 .04-.291c.022-.135.026-.238.063-.369.02-.109.029-.183.041-.289.025-.122.028-.212.038-.334.01-.109.016-.186.032-.301.068-.164.062-.298.081-.465.013-.109.02-.186.035-.302.04-.128.056-.224.069-.356.025-.157.047-.279.072-.439.013-.087.019-.135.028-.221.013-.116.02-.193.035-.308.069-.164.063-.299.081-.465.029-.154.047-.279.076-.437.01-.086.016-.134.028-.218.013-.112.022-.189.038-.304.04-.129.056-.222.066-.356.025-.158.05-.28.078-.44.019-.135.02-.237.063-.369.019-.109.028-.183.04-.292.013-.086.02-.134.029-.218.016-.147.028-.26.05-.41.038-.132.05-.228.066-.36l.041-.304c.022-.1.04-.157.056-.25l.076-.433c.015-.087.022-.135.031-.219.013-.112.022-.189.038-.304.044-.128.063-.222.072-.353.025-.247.047-.478.082-.747"/><path fill="#F7D463" d="M59.828 304.549c-.18.484-.474.907-.617 1.443-1.34.546-2.534 1.301-3.66 2.162-4.03 3.093-6.782 7.121-8.15 12.12-.797 2.912-.861 5.847-.022 8.775.053.183.137.372.037.629a3 3 0 0 1-.577-.579c-1.178-1.516-1.764-3.282-2.02-5.178-.254-1.887-.132-3.761.265-5.618.031-.15.119-.301.01-.484-.174.089-.264.25-.36.394-1.925 2.849-3.352 5.936-4.119 9.332-.607 2.697-.751 5.424-.536 8.181.091 1.161.14 2.323.212 3.622a2.6 2.6 0 0 1-.605-.864 25.8 25.8 0 0 1-2.235-7.582c-.488-3.633-.208-7.19.903-10.676a22.9 22.9 0 0 1 2.416-5.177c.096-.154.174-.317.255-.513-.006-.038.026-.08.004-.067-.162.006-.246.108-.342.185-4.444 3.573-7.955 7.937-10.457 13.159-1.761 3.677-2.75 7.554-2.756 11.673 0 .09-.01.183-.02.273 0 .01-.021.019-.034.035-.146-.042-.148-.186-.192-.295a24.5 24.5 0 0 1-1.664-7.395c-.381-5.792.973-11.148 3.854-16.093 2.818-4.843 6.691-8.529 11.633-10.971 3.764-1.861 7.734-2.685 11.901-2.37 2.388.184 4.682.769 6.876 1.879"/><path fill="#CECDCD" d="M75.907 359.812c.031-.344.252-.568.426-.818 1.84-2.663 3.618-5.367 5.4-8.072 2.447-3.718 4.885-7.438 7.335-11.156 2.148-3.262 4.306-6.518 6.458-9.78.227-.346.5-.663.678-1.087 1.137-1.785 2.032-3.67 3.035-5.497 1.342-2.448 2.663-4.907 3.994-7.362 1.127-2.09 2.249-4.186 3.38-6.273 1.287-2.375 2.589-4.744 3.866-7.122.969-1.805 1.91-3.629 2.873-5.437.255-.477.473-.981.816-1.445.993.621 1.904 1.344 2.819 2.061.469.367.515.515.191 1.04q-.885 1.436-1.797 2.852c-1.323 2.058-2.566 4.167-3.833 6.26-4.849 8.002-9.692 16.005-14.538 24.011-4.385 7.243-8.764 14.493-13.168 21.723-1.255 2.058-2.59 4.064-4.066 5.967-.255.327-.476.683-.7 1.032-.293.455-.507.532-.973.3-.735-.357-1.47-.721-2.196-1.197"/><path fill="#868280" d="M69.785 336.714c.074.17.114.363-.054.561-.084-.17-.105-.362.054-.561M70.398 332.468c.123.109.117.241.002.394-.118-.109-.111-.24-.003-.394M70.608 331.048c.133.118.127.263-.02.413-.08-.119-.083-.253.02-.413M68.25 346.85c.12.109.118.241.003.394-.118-.109-.115-.24-.003-.394M71.148 327.423c.13.122.126.262-.023.416-.077-.122-.083-.256.023-.416M71.896 322.483c.136.122.133.263-.022.414-.071-.119-.08-.257.022-.414M72.22 320.399c.133.122.133.263-.023.413-.077-.121-.08-.256.023-.413M68.164 347.582c.086.135.11.289-.041.452-.09-.135-.093-.285.04-.452M67.95 349.008c.087.135.108.289-.04.452-.094-.135-.093-.285.04-.452M67.604 351.139c.13.119.12.26-.016.417-.084-.119-.09-.257.016-.417M67.495 351.905c.13.125.133.269-.034.41-.068-.122-.068-.256.034-.41M68.566 344.772c.136.122.13.263-.023.413-.077-.121-.08-.256.022-.413M68.888 342.575q.2.185-.02.416c-.076-.122-.082-.256.02-.416M69.348 339.679c.084.135.105.289-.044.452-.09-.135-.092-.288.044-.452M69.888 336.05c.078.122.09.263-.022.43-.13-.125-.114-.273.022-.43M69.642 337.527c.133.119.127.263-.019.416-.08-.122-.086-.256.02-.416M69.424 339.052q.17.11.012.292c-.105-.077-.105-.173-.012-.292M72.426 319.077c.13.083.117.192-.01.311-.071-.087-.077-.186.01-.311M72.573 318.263c.072.086.08.192-.013.32-.123-.087-.105-.199.013-.32M72.757 316.992c.127.087.111.192-.01.311-.074-.087-.077-.186.01-.311M73.073 315.126c.13.086.117.195-.016.31-.072-.089-.071-.189.016-.31M69.206 340.486c.13.084.114.192-.007.311-.074-.084-.08-.186.007-.311M68.026 348.384q.173.11.011.292c-.105-.074-.102-.173-.011-.292M69.093 341.255c.133.086.123.192-.01.31-.071-.083-.074-.186.01-.31M67.809 349.817c.13.087.117.192-.01.311-.071-.084-.077-.186.01-.311M67.708 350.478c.124.087.11.193-.01.311-.078-.083-.08-.186.01-.311M68.992 341.914c.127.083.117.189-.007.31-.074-.083-.08-.182.007-.31M68.779 343.342c.127.083.117.192-.007.31q-.125-.124.007-.31M68.667 344.111c.133.084.12.192-.01.311-.071-.087-.074-.186.01-.311M68.454 345.539c.13.084.12.192-.007.311-.074-.087-.083-.186.007-.311M68.352 346.196c.127.087.111.192-.01.311-.074-.084-.083-.186.01-.311M69.961 335.428q.166.11.012.292c-.102-.077-.102-.174-.012-.292M70.711 330.386c.13.084.118.193-.01.311-.074-.086-.08-.186.01-.311M70.82 329.616c.125.087.112.193-.01.311-.073-.084-.08-.186.01-.311M70.92 328.96c.131.083.121.192-.009.311-.071-.087-.077-.186.01-.311M71.036 328.182q.165.11.015.289c-.103-.071-.105-.17-.015-.289M71.25 326.762c.126.084.117.19-.004.311-.078-.083-.084-.183.003-.311M71.365 325.985c.108.074.108.17.012.288-.108-.07-.108-.166-.012-.288M71.466 325.334c.127.083.114.189-.007.311-.077-.084-.083-.183.007-.311M71.607 324.52c.071.087.08.193-.013.321-.127-.087-.105-.196.013-.321M71.71 323.859c.075.087.081.192-.015.324-.124-.09-.1-.199.016-.324M70.495 331.814c.13.084.12.189-.004.311-.074-.084-.08-.186.004-.311M71.783 323.244q.173.11.012.291c-.1-.077-.1-.173-.012-.291M70.07 334.668c.124.086.111.192-.01.31-.074-.083-.083-.186.01-.31M69.532 338.293c.124.083.115.192-.007.311-.077-.087-.083-.186.007-.311M72 321.821c.126.087.117.192-.013.311-.069-.087-.075-.186.013-.311M70.312 333.193c.074.087.083.192-.01.324-.127-.09-.102-.199.01-.324M70.17 334.008c.128.083.118.192-.009.31-.071-.083-.077-.182.01-.31M72.108 321.151c.087.042.099.106.018.19q-.13-.066-.018-.19M72.327 319.724c.087.042.099.106.018.189-.084-.042-.096-.106-.018-.189M72.644 317.749c.087.042.096.106.015.189q-.127-.068-.015-.189M72.857 316.436c.112.052.094.126-.003.209-.06-.051-.062-.119.003-.209M72.967 315.769c.087.046.099.107.015.19-.084-.042-.093-.106-.015-.19"/><path fill="#060605" d="M88.185 312.907c-1.44-.907-2.842-1.792-4.247-2.68-.074-.048-.155-.09-.23-.138-.375-.248-.378-.273-.005-.561 1.623-1.239 3.256-2.465 4.873-3.714.274-.211.482-.188.758-.018 2.305 1.432 4.622 2.848 6.93 4.273q2.393 1.478 4.784 2.96c.481.299.487.303.225.803q-1.319 2.505-2.648 5.01c-.23.436-.252.439-.687.169l-5.677-3.552c-1.346-.846-2.695-1.689-4.076-2.552"/><path fill="#060505" d="M85.333 340.739c-3.018-1.876-6-3.736-8.984-5.592-.893-.557-1.78-1.123-2.68-1.67-.239-.145-.291-.308-.25-.584.317-2.037.621-4.074.926-6.11l.006-.055c.079-.452.178-.506.557-.281.443.264.884.537 1.324.807q5.084 3.122 10.167 6.249c.79.485 1.582.968 2.37 1.457.403.248.418.312.157.726-1.03 1.618-2.07 3.23-3.102 4.845-.112.17-.208.353-.49.208"/><path fill="#060605" d="M78.709 351.628c-.296.459-.567.888-.85 1.308-.224.333-.318.356-.653.15-1.939-1.204-3.868-2.423-5.816-3.61-.388-.235-.422-.534-.362-.918.147-.956.286-1.912.433-2.868.16-1.046.324-2.088.496-3.134.082-.494.098-.5.504-.252 2.054 1.255 4.104 2.516 6.155 3.774.729.447 1.461.891 2.19 1.342.422.26.422.27.148.699-.744 1.16-1.482 2.317-2.245 3.509M107.754 302.08c.269-.475.524-.915.766-1.362.191-.354.17-.451-.156-.672-1.897-1.273-3.803-2.53-5.69-3.82-.374-.257-.648-.157-.957.067-.767.556-1.538 1.103-2.305 1.659-.84.607-1.675 1.215-2.51 1.833-.394.292-.392.31.001.579q2.99 2.034 5.981 4.062c.708.481 1.415.966 2.127 1.446.411.277.42.273.673-.17.684-1.199 1.367-2.391 2.07-3.622"/><path fill="#FB2912" d="M41.009 314.491c.016-.026.041-.072.048-.068.038.016.04.045-.017.078-.022 0-.028-.007-.031-.01"/><path fill="#00CE4C" d="M52.992 337.462c.16-.167.288-.271.412-.383 1.713-1.539 3.93-1.677 5.885-.398 1.14.744 2.002 1.763 2.845 2.809 3.178 3.953 5.953 8.159 7.984 12.83.66 1.514 1.202 3.067 1.428 4.713a6.5 6.5 0 0 1-.01 1.996c-.213 1.22-.85 2.143-1.903 2.784-.45.275-.95.44-1.478.659-4.368.949-7.987-.663-11.297-3.311a17.4 17.4 0 0 1-2.462-2.393c-2.621-3.12-4.015-6.675-3.916-10.775.042-1.708.168-3.397.661-5.039.382-1.264.941-2.433 1.851-3.492"/><path fill="#000" d="M89.325 241.394v5.011h-3.862v1.353h5.509v1.597H77.999v-1.597h5.464v-1.353h-3.862v-5.011zm-9.89 10.58v-1.564h9.956v4.646h-1.994v-3.082zm2.117-7.133h5.812v-1.895h-5.812zm23.281 7.039v1.596H91.827v-1.596h3.227v-2.702h-2.15v-1.608h1.907v-4h-1.967v-1.602h10.906v1.602h-2.006v4h1.94v1.608h-2.144v2.702zm-8.033-4.31h2.978v-4H96.8zm.254 4.31h2.486v-2.702h-2.486zm21.59-4.674v1.48h-13.005v-1.48zm-11.519 3.569v-1.381h9.967v3.359h-7.973v.812h8.387v1.359h-10.37v-3.437h7.978v-.712zm.11-8.332v-1.353h9.84v3.337h-7.834v.762h8.077v1.348h-10.06v-3.376h7.817v-.718zm29.058.464v1.619h-1.84v1.453h1.84v1.619h-1.84v2.265h-2v-9.039h2v2.083zm-13.128.84v-1.558h3.232v-1.442h1.989v1.442h3.221v1.558zm.697 3.039c-.006-1.52 1.431-2.553 3.53-2.558 2.061.005 3.497 1.038 3.497 2.558 0 1.53-1.436 2.547-3.497 2.547-2.094 0-3.536-1.017-3.53-2.547m1.127 5.746c-.011-1.597 1.828-2.536 4.812-2.536 2.934 0 4.801.939 4.806 2.536-.005 1.569-1.872 2.524-4.806 2.519-2.984.005-4.823-.95-4.812-2.519m.812-5.746c0 .701.635 1.072 1.591 1.066.95.006 1.602-.365 1.608-1.066-.006-.713-.658-1.1-1.608-1.105-.956.005-1.591.392-1.591 1.105m1.16 5.746c-.006.668.983 1.033 2.84 1.033 1.823 0 2.801-.365 2.801-1.033 0-.702-.978-1.022-2.801-1.022-1.857 0-2.846.32-2.84 1.022m21.32-11.685v4.359h1.911v1.635h-1.911v4.624h-2v-10.618zm-11.287 3.06v-1.569h3.232v-1.514h1.989v1.514h3.221v1.569zm.696 3.26c-.006-1.652 1.453-2.757 3.53-2.757 2.055 0 3.497 1.105 3.497 2.757 0 1.635-1.442 2.718-3.497 2.713-2.077.005-3.536-1.078-3.53-2.713m1.364 7.641v-4.166h1.989v2.558h7.746v1.608zm.575-7.641c0 .779.635 1.199 1.591 1.199.95 0 1.602-.42 1.608-1.199-.006-.796-.658-1.232-1.608-1.238-.956.006-1.591.442-1.591 1.238M81.96 265.233c1.155 0 2.16.393 2.84 1.061h3.194v-1.47h1.983v7.139h-1.983v-1.244H84.81c-.68.68-1.685 1.078-2.85 1.078-2.166 0-3.796-1.348-3.785-3.293-.011-1.923 1.619-3.271 3.784-3.271m-1.895 3.271c0 1.066.785 1.685 1.895 1.691 1.078-.006 1.857-.625 1.868-1.691-.011-1.039-.79-1.657-1.868-1.663-1.11.006-1.895.624-1.895 1.663m.448 5.591v-1.53h9.464v3.84h-7.448v.922h7.868v1.569h-9.868v-3.95h7.465v-.851zm5.138-6.265c.044.215.072.442.072.674s-.028.453-.072.669h2.343v-1.343zm18.16-3.006v8.453h-1.989v-3.359h-2.221v-1.624h2.221v-3.47zm-12.078 6.879c2.32-.774 3.387-2.624 3.431-4.409h-2.85v-1.602h7.712v1.602h-2.834c.05 1.652 1.066 3.321 3.271 4.05l-.984 1.569c-1.569-.514-2.646-1.542-3.27-2.818-.62 1.448-1.758 2.608-3.443 3.188zm2.332 4.63c-.006-1.724 1.856-2.741 4.884-2.741 3.038 0 4.895 1.017 4.9 2.741-.005 1.723-1.862 2.735-4.9 2.74-3.028-.005-4.89-1.017-4.884-2.74m1.983 0c-.005.812 1.017 1.221 2.9 1.215 1.89.006 2.918-.403 2.923-1.215-.005-.818-1.033-1.227-2.922-1.227-1.884 0-2.906.409-2.9 1.227m25.555-11.509v14.232h-1.918v-7.237h-1.303v6.602h-1.851V265.2h1.851v5.017h1.303v-5.393zm-12.437 9.923c2.895-1.691 4.144-3.773 4.409-6.563h-3.691v-1.597h5.636c-.006 3.967-1.188 7.215-5.205 9.541zm25.452-9.083v1.276c-.005 1.326-.005 2.779-.37 4.774h1.895v1.608h-5.547v5.746h-2.011v-5.746h-5.414v-1.608h9.066c.359-1.84.393-3.232.398-4.464h-7.978v-1.586zm14.293-.84v14.266h-1.984v-14.266zm-11.161 2.807v-1.608h6.757v5.481h-4.69v2.613c2.177-.016 4.016-.132 6.094-.48l.171 1.618c-2.332.415-4.442.503-7.044.503h-1.276v-5.823h4.712v-2.304z"/></g><path fill="#75F3C9" d="m288.315 139 33.582 45.397 55.406-1.269-13.531 55.34 35.509 43.815-50.454 23.61-11.127 55.905-49.385-25.898-49.384 25.898-11.127-55.905-50.454-23.61 35.509-43.815-13.531-55.34 55.406 1.269z"/><mask id="c" width="223" height="223" x="177" y="139" maskUnits="userSpaceOnUse" style="mask-type:alpha"><path fill="#75F3C9" d="m288.209 139 33.655 45.32 55.528-1.267-13.561 55.245 35.587 43.74-50.565 23.57-11.151 55.81-49.493-25.854-49.493 25.854-11.151-55.81L177 282.038l35.587-43.74-13.561-55.245 55.528 1.267z"/></mask><g mask="url(#c)"><path fill="#EDEFF4" d="M347.872 305.133c-1.658-.138-3.017.562-4.305 1.504-2.579 1.89-4.91 4.059-7.091 6.394a27.3 27.3 0 0 0-3.006 3.85c-.503.785-.938 1.602-1.259 2.481-.168.461-.18.475-.68.355-3.765-.888-6.731-2.963-8.649-6.345-2.706-4.775-2.566-9.578.258-14.283.857-1.426 2.065-2.51 3.422-3.433.261-.179.524-.353.822-.562.983-.451 1.905-.935 2.915-1.186.345-.085.375-.332.394-.618.081-1.201.174-2.402.263-3.603q.624-8.425 1.252-16.851c.047-.637.049-.64.671-.595q3.804.27 7.608.538c.091.007.179.021.27.024.321.007.422.162.384.481-.097.835-.17 1.671-.267 2.56-.531.357-1.069.119-1.588.094-.489-.026-.978-.101-1.469-.141-.336-.026-.671.042-.703.444-.031.376.288.456.589.517.77.159 1.562.117 2.332.258.219.04.45.035.673.216-.011 1.521-.214 2.982-.321 4.454-.03.43-.086.857-.149 1.353-.959.348-1.883.002-2.815-.014-.2-.002-.398-.068-.6-.045-.254.029-.51.085-.538.4-.028.324.172.524.465.564q.864.118 1.735.195c.531.047 1.076.04 1.59.362-.14 2.037-.307 4.03-.496 6.088-.335.306-.703.292-1.052.231-.778-.139-1.565-.068-2.345-.134-.361-.031-.728.04-.74.482-.012.434.377.437.689.462.803.064 1.602.186 2.412.153.289-.012.587-.007.873.228.021.353.002.668-.021.985-.063.886-.032.733.578 1.01a13.3 13.3 0 0 1 4.581 3.401c1.907 2.204 3.008 4.765 3.318 7.726"/><ellipse cx="334.809" cy="306.242" fill="#FF8BCA" opacity=".9" rx="10.968" ry="11.07"/><path fill="#00CE4C" d="M279.92 367.162c-.11.082-.191.134-.275.143-3.59.419-7.08 1.316-10.561 2.263-3.101.842-6.251 1.352-9.475 1.333-1.735-.01-3.469.105-5.199-.127a8 8 0 0 1-1.32-.28 5.5 5.5 0 0 1-.817-.319c-1.509-.774-1.632-2.113-.298-3.175a7.5 7.5 0 0 1 1.203-.754c.175-.092.375-.151.508-.299-.026-.129-.119-.15-.196-.181-3.634-1.501-5.741-4.303-6.586-8.086-1.315-5.88 1.418-11.931 6.638-14.845.337-.188.561-.385.614-.806.349-2.747 1.111-5.381 2.193-7.924.051-.122.138-.239.112-.362-3.36-.961-6.652-2.075-9.913-3.44.17-.404.565-.371.905-.418 3.283-.451 6.545-1.029 9.821-1.53 1.243-.19 1.287-.317.603-1.372-.718-1.103-1.39-2.235-2.114-3.394-.266-.477-.513-.907-.846-1.337-1.087-1.894-2.235-3.692-3.415-5.527-.249-.5-.519-.93-.838-1.389-1.069-1.743-2.137-3.431-3.22-5.165-.272-.519-.594-.949-.917-1.436-.631-1.102-1.309-2.115-1.97-3.139-.219-.339-.486-.656-.514-1.123-.208-1.016-.513-1.967-.701-2.952-.657-3.447-.401-6.834.621-10.173 1.109-3.619 2.994-6.798 5.413-9.672 2.845-3.382 6.247-6.084 10.044-8.378.382-.183.601.066.822.235 1.683 1.295 3.576 2.12 5.657 2.437 4.24.646 7.974-.444 11.129-3.433 1.45-1.375 2.577-2.968 3.28-4.855.194-.52.538-.752 1.081-.733 2.498.094 4.989-.195 7.487-.141 1.078.023 1.159.068 1.565 1.036 1.862 4.469 5.142 7.224 9.862 8.1 3.313.616 6.439-.016 9.301-1.875.463-.301.84-.771 1.497-.799 2.109 1.29 4.102 2.653 5.934 4.242 3.897 3.379 7.078 7.296 8.987 12.172.666 1.699 1.092 3.457 1.387 5.316-.048.421-.349.566-.605.74-4.093 2.759-5.792 6.747-5.59 11.567.24 5.693 4.417 10.685 9.904 12.111.519.134.822.061 1.06-.482 1.07-2.472 2.716-4.549 4.556-6.469 2.272-2.373 4.672-4.606 7.401-6.451a6.2 6.2 0 0 1 2.756-1.045c.319-.04.631-.054.948.185 1.872.482 2.819 1.786 3.292 3.516.466 1.706.293 3.419.019 5.142-.415 2.599-1.549 4.822-3.278 6.76a10 10 0 0 1-1.546 1.422c-2.012 1.478-4.186 2.578-6.68 2.949-1.541.231-3.057.188-4.535-.341-.312-.112-.545-.07-.817.099-5.402 3.37-11.229 5.769-17.27 7.673-.385.122-.899.152-1.083.484-.198.359.202.742.358 1.104 1.085 2.517 1.851 5.128 2.222 7.847.072.536.286.825.747 1.085 5.925 3.375 8.521 10.768 5.762 17.16-1.127 2.611-2.992 4.514-5.613 5.626-.14.058-.303.079-.398.23.151.221.409.268.621.385.575.32 1.143.649 1.577 1.159.644.756.582 1.628-.159 2.293-.412.372-.91.585-1.434.738-.892.263-1.809.355-2.736.409-3.776.216-7.447-.298-11.056-1.462-4.226-1.36-8.579-2.065-13.07-2.284-.175-.261-.04-.46.058-.66 1.55-3.182 2.37-6.559 2.675-10.081.412-4.764-.019-9.442-1.378-14.02-.685-2.305-1.658-4.46-3.46-6.148-1.455-1.363-3.194-1.518-5.04-1.403-2.38.149-4.007 1.42-5.213 3.403-1.111 1.826-1.793 3.817-2.268 5.882-.561 2.437-.94 4.893-1.033 7.409-.189 5.074.491 9.962 2.619 14.601.128.31.307.618.198 1.029"/><path fill="#EDEFF4" d="M251.539 316.529c.333.32.517.688.727 1.034.905 1.483 1.872 2.928 2.731 4.488-.086.353-.373.327-.599.372-2.537.491-5.059 1.059-7.594 1.562-.408.08-1.069.04-.927.696.124.571.694.343 1.094.258 2.596-.549 5.204-1.031 7.793-1.605.303-.065.61-.174.978-.033.386.369.584.809.84 1.208.626.971 1.192 1.981 1.846 2.935.378.55.226.893-.426 1.004-1.397.24-2.8.453-4.2.674-2.402.376-4.805.75-7.252 1.14-2.295.336-4.547.656-6.796.978l-14.905 2.138c-.088.012-.179.026-.267.033-.778.056-1.111-.313-.911-1.074.203-.768.452-1.523.687-2.282.491-1.581.987-3.163 1.502-4.791.307-.174.545-.007.789.091 1.576.64 2.947.322 4.077-.97a12 12 0 0 0 1.657-2.477c2.205-4.362 3.362-9.031 4.023-13.851a7 7 0 0 0 .003-2.028c-.275-1.795-1.283-2.897-3.05-3.273-.198-.042-.403-.054-.585-.244.198-.816.401-1.584.638-2.343.114-.362.114-.705.035-1.072-1.259-5.771-2.251-11.595-3.189-17.425-.117-.717-.247-1.433-.354-2.152-.107-.715.009-.886.703-1.055 1.641-.405 3.313-.649 4.982-.908.631-.096.703-.028.848.649a340 340 0 0 1 2.479 12.706c.449 2.573.903 5.147 1.346 7.72.063.366.179.702.393 1.003 1.113 1.572 2.226 3.144 3.376 4.756.771 1.201 1.504 2.36 2.233 3.521.13.209.249.425.384.686-.307.409-.766.352-1.171.446-.373.085-.757.108-1.127.21-.324.086-.733.162-.631.625.098.441.503.39.836.338.645-.099 1.285-.216 1.928-.324.288-.047.575-.108.915-.005.414.414.656.9.94 1.358.82 1.316 1.63 2.642 2.456 4.012-.251.35-.631.347-.975.409-1.35.235-2.703.455-4.056.674-.428.07-1.134.033-1.006.696.112.58.734.347 1.158.274 1.615-.286 3.238-.509 4.854-.799.233-.047.477-.098.77.017"/><path fill="#DBFF9E" d="M279.956 367.224c-.18-.329-.27-.661-.417-.966-1.537-3.194-2.275-6.599-2.58-10.11-.412-4.789.126-9.482 1.511-14.076.415-1.375.974-2.688 1.735-3.908.58-.93 1.259-1.767 2.142-2.427.477-.357.978-.647 1.555-.79 1.325-.331 2.663-.435 4.018-.247 1.232.17 2.249.748 3.122 1.622 1.106 1.107 1.872 2.434 2.489 3.861.827 1.908 1.292 3.922 1.677 5.955 1.026 5.442.882 10.849-.576 16.202-.381 1.408-.924 2.755-1.543 4.068-.105.223-.249.428-.384.686-1.716-.096-3.425-.209-5.134-.251-1.963-.049-3.916.11-5.872.273-.558.047-1.119.077-1.743.108"/><path fill="#FAFAF9" d="M311.179 273.259c-.224.157-.424.263-.603.397-2.152 1.612-4.547 2.514-7.236 2.691-5.795.38-11.113-3.161-13.129-8.467-.337-.889-.344-.889-1.278-.867q-3.78.082-7.56.162c-.633.014-.631.009-.868.601-1.315 3.309-3.534 5.814-6.742 7.295-4.703 2.169-9.229 1.703-13.497-1.246-.239-.167-.479-.336-.761-.524-.247-.23-.447-.446-.657-.653-6.493-6.432-4.891-17.242 3.176-21.49a14.3 14.3 0 0 1 5.138-1.573c3.814-.423 7.071.884 9.921 3.377.202.179.379.39.661.538.307.153.503.367.689.597 2.105 2.597 3.201 5.553 3.159 8.925-.014 1.18-.004 1.229 1.171 1.288 1.416.071 2.836.122 4.252-.051.405-.05.81-.043 1.215-.047.845-.01.906-.043.885-.877a13 13 0 0 1 .516-3.974c.564-1.946 1.469-3.71 2.804-5.238.179-.207.374-.392.672-.538.536-.43 1.013-.846 1.516-1.229 2.079-1.586 4.437-2.521 7.015-2.766 4.814-.456 8.688 1.429 11.58 5.241 4.088 5.39 3.464 12.955-1.329 17.72-.233.221-.454.447-.71.708"/><path fill="#00CE4C" d="M293.084 253.538c-.154.477-.559.785-.864 1.178-2.023 2.61-2.982 5.569-2.887 8.878q.007.239.023.477c.019.258-.097.366-.354.371-2.407.045-4.814.216-7.224.031-.305-.024-.456-.106-.421-.444.032-.315.025-.637.028-.955.037-3.341-1.027-6.288-3.136-8.856-.159-.191-.296-.4-.459-.647 2.98-.284 5.609 1.441 6.649 4.345.207.576.389 1.161.501 1.767.056.308.153.609.233.908.309-.033.281-.259.319-.416.139-.621.277-1.241.468-1.847 1.024-3.262 3.666-5.06 7.124-4.79"/><path fill="#EDEEF4" d="M339.464 292.003c-1.112-.014-2.209-.08-3.303-.139-.224-.012-.447.005-.652-.115-.256-.153-.391-.369-.359-.672s.21-.491.492-.581c.174-.056.353-.028.533-.018 1.096.063 2.19.119 3.334.183.158.442-.012.862-.045 1.342M340.101 284.543c-.971-.252-1.975-.235-2.962-.353-.133-.016-.27 0-.403-.021-.5-.073-.787-.388-.742-.796.042-.4.414-.661.901-.616.356.033.712.089 1.068.127.715.075 1.43.143 2.2.216.115.493.038.966-.062 1.443M340.764 277.23c-1.055-.047-2.084-.149-3.113-.24-.184-.017-.356-.047-.51-.153-.219-.153-.347-.362-.316-.634.035-.299.214-.494.496-.586.198-.063.398-.025.6-.004.939.098 1.879.188 2.876.282.104.432.06.86-.033 1.335"/><path fill="#00CE4C" d="M280.831 286.665c-1.255-2.152-1.639-4.45-1.525-6.859.023-.475.082-.95.145-1.422.069-.524.111-.573.633-.58.968-.012 1.934.011 2.903.007 2.61-.014 5.222.051 7.832-.047.156-.007.312.023.47.037.161.012.245.108.256.261.284 3.499-.165 6.81-2.484 9.621a5.4 5.4 0 0 1-1.618 1.323c-1.571.844-3.11.768-4.607-.186-.838-.533-1.46-1.278-2.005-2.155"/><path fill="#EDEEF4" d="M255.777 323.284c-3.026.67-6.065 1.3-9.101 1.932-.153.033-.302.082-.463.064-.34-.043-.615-.29-.645-.6-.03-.331.128-.566.415-.714.097-.052.209-.082.318-.104q4.229-.859 8.456-1.715l.191-.042c.396.315.594.735.829 1.179M251.575 316.512c-2.049.394-4.109.744-6.169 1.095-.487.082-.873-.132-.957-.522-.089-.428.191-.783.731-.872 1.241-.207 2.484-.395 3.727-.592.599-.096 1.197-.197 1.846-.306.375.329.582.748.822 1.197M247.431 309.861a87 87 0 0 1-3.034.571c-.044.007-.089.019-.133.021-.454.029-.794-.211-.847-.59-.054-.366.223-.712.668-.791.573-.104 1.15-.179 1.725-.271.242-.04.484-.087.785-.143.379.334.607.75.836 1.203"/><path fill="#0E0E0E" d="M277.039 256.927c1.223 1.934 1.805 4.002 1.73 6.249-.186 5.506-4.221 9.736-9.205 10.436-5.225.735-10.661-2.606-11.914-8.42-1.103-5.132 1.768-10.377 6.619-12.264 2.978-1.159 5.851-1.046 8.689.347 1.674.821 3.015 2.052 4.081 3.652"/><path fill="#fff" d="M275.244 257.424c.431.682.637 1.411.611 2.204-.066 1.942-1.49 3.434-3.25 3.681a3.78 3.78 0 0 1-4.205-2.97c-.39-1.811.623-3.661 2.336-4.326 1.051-.409 2.065-.369 3.067.122.591.29 1.064.724 1.441 1.289M274.096 265.803c.274.434.405.898.388 1.403a2.42 2.42 0 0 1-2.067 2.342 2.407 2.407 0 0 1-2.677-1.89 2.43 2.43 0 0 1 1.487-2.753c.669-.26 1.315-.235 1.952.078.376.184.677.461.917.82"/><path fill="#0E0E0E" d="M296.168 271.462c-2.268-1.826-3.588-4.147-4.026-6.995-.738-4.806 2.084-9.713 6.601-11.482 1.355-.531 2.724-.905 4.2-.856 3.764.127 6.73 1.749 8.772 4.919 3.511 5.452 1.339 12.988-4.533 15.657-3.851 1.756-7.543 1.267-11.014-1.243"/><path fill="#fff" d="M308.203 257.27c.392.62.579 1.283.555 2.004-.06 1.765-1.354 3.122-2.954 3.346a3.436 3.436 0 0 1-3.823-2.7c-.354-1.646.567-3.328 2.124-3.933.956-.371 1.878-.335 2.788.112.537.263.968.658 1.31 1.171M308.37 265.803c.275.434.406.898.389 1.403a2.42 2.42 0 0 1-2.068 2.342 2.406 2.406 0 0 1-2.676-1.89 2.43 2.43 0 0 1 1.487-2.753c.669-.26 1.314-.235 1.952.078.376.184.677.461.916.82"/><path fill="#00C62E" d="M287.289 325.616H273.8c10.791 6.266 21.862 2.611 26.048 0z"/><path fill="#0C200F" d="M285.028 281.306c-1.175.76-2.422 1.27-3.787 1.39-1.167.105-2.249-.176-3.088-1.069-.214-.228-.347-.5-.124-.8.204-.275.514-.284.718.003.576.816 1.439.946 2.318.912 1.169-.047 2.314-.387 3.28-1.008.724-.466 1.324-.448 2.085-.253 1.08.275 2.185.278 3.243-.198.421-.189.758-.491 1.12-.763.223-.167.492-.393.721-.167.247.241.025.544-.158.76-.78.927-1.807 1.369-2.998 1.443a6.4 6.4 0 0 1-2.599-.392c-.276-.102-.505-.102-.731.142"/><path fill="#FE2F2F" d="m234.042 310.394 9.255-1.384 9.596 16.951-24.677 3.806z"/><path fill="#00CE4C" d="M232.698 302.464c.188.007.321.028.456.042 1.865.207 3.162 1.478 3.46 3.358.174 1.095.032 2.172-.138 3.25-.644 4.073-1.662 8.037-3.366 11.802-.552 1.222-1.192 2.392-2.061 3.421a5.2 5.2 0 0 1-1.208 1.076c-.852.532-1.758.644-2.719.353-.412-.125-.785-.338-1.206-.541-2.962-2.138-3.97-5.209-4.184-8.654-.058-.929-.03-1.864.096-2.792.447-3.283 1.827-6.056 4.353-8.218 1.053-.9 2.14-1.739 3.399-2.329.971-.453 1.982-.747 3.118-.768"/><path fill="#1F1408" d="M255.568 205.757v1.597h-11.823v-1.597h4.917v-1.646h1.978v1.646zm-12.381 10.984v-1.608h5.475v-1.636c-2.42-.209-3.884-1.198-3.873-2.762-.011-1.729 1.857-2.768 4.857-2.762 2.961-.006 4.856 1.033 4.856 2.762 0 1.558-1.475 2.547-3.862 2.762v1.636h5.553v1.608zm3.652-6.006c-.005.834.967 1.221 2.807 1.221 1.806 0 2.801-.387 2.806-1.221-.005-.818-1-1.204-2.806-1.204-1.84 0-2.812.386-2.807 1.204m22.121-6.779v14.232h-2.017v-14.232zm-11.901 10.204c3.669-1.74 5.288-3.983 5.608-7.143h-4.845v-1.564h6.878c-.005 4.31-1.519 7.895-6.602 10.293zm25.685-10.182V212h-2v-8.022zm-11.956 6.205c2.387-.724 3.426-2.536 3.431-4.315v-1.376h2.066v1.376c-.011 1.729 1.045 3.386 3.337 4.088l-.966 1.53c-1.63-.486-2.752-1.469-3.393-2.745-.646 1.381-1.801 2.48-3.497 3.011zm2.426 7.845v-5.376h9.53v5.376zm1.966-1.597h5.608v-2.199h-5.608zm24.394-12.475v5.453h2.012v1.646h-2.012v7.1h-1.994v-14.199zm-11.37 10.216c3.359-1.691 5.166-3.956 5.542-7.128h-4.741v-1.629h6.774c-.011 4.254-1.674 7.933-6.453 10.281zm26.978-3.487v1.597h-12.995v-1.597zm-11.558 4.404v-1.597h9.989v4.713h-1.967v-3.116zm.132-5.547v-5.1h9.868v1.569h-7.873v1.945h8.011v1.586zm23.541-5.564v4.359h1.912v1.636h-1.912v4.624h-2v-10.619zm-11.287 3.061v-1.569h3.232v-1.514h1.989v1.514h3.221v1.569zm.696 3.26c-.006-1.652 1.453-2.757 3.53-2.757 2.056 0 3.497 1.105 3.497 2.757 0 1.635-1.441 2.718-3.497 2.712-2.077.006-3.536-1.077-3.53-2.712m1.365 7.64v-4.165h1.988v2.558h7.746v1.607zm.574-7.64c0 .779.635 1.198 1.591 1.198.951 0 1.602-.419 1.608-1.198-.006-.796-.657-1.232-1.608-1.238-.956.006-1.591.442-1.591 1.238m-61.29 18.469v1.608h-4.718v1.105h4.42v1.574h-4.42v1.166c2.315-.005 3.812-.077 5.475-.392l.227 1.569c-1.923.337-3.647.392-6.531.387h-1.182v-7.017zm-5.27 13.26v-5.133h9.298v5.133zm1.966-1.597h5.36v-1.972h-5.36zm5.332-4.155v-8.32h2v3.332h1.912v1.651h-1.912v3.337zm15.994-7.48v1.276c-.006 1.326-.006 2.779-.37 4.774h1.895v1.607h-5.547v5.746h-2.011v-5.746h-5.415v-1.607h9.067c.359-1.84.392-3.233.397-4.465h-7.977v-1.585zm18.328-.84v14.232h-1.918v-7.237h-1.303v6.602h-1.851v-13.221h1.851v5.016h1.303v-5.392zm-12.437 9.923c2.895-1.691 4.144-3.774 4.409-6.564h-3.691v-1.597h5.636c-.006 3.967-1.188 7.216-5.205 9.542zm25.453-9.083v1.276c-.006 1.326-.006 2.779-.371 4.774h1.895v1.607h-5.547v5.746h-2.011v-5.746h-5.414v-1.607h9.066c.359-1.84.393-3.233.398-4.465h-7.978v-1.585zm14.292-.84v14.265h-1.984v-14.265zm-11.16 2.807v-1.608h6.756v5.481h-4.69v2.613c2.177-.017 4.016-.133 6.094-.481l.171 1.619c-2.331.414-4.442.503-7.044.503h-1.276v-5.823h4.712v-2.304z"/></g><g filter="url(#d)"><path fill="#85DCFF" fill-rule="evenodd" d="M185.711 4.849c26.225 7.76 42.84 32.413 41.476 58.564q.671.18 1.342.38c30.709 9.086 48.241 41.336 39.158 72.031-5.943 20.084-21.808 34.527-40.669 39.566a57.8 57.8 0 0 1-2.122 22.074c-9.082 30.695-41.34 48.211-72.049 39.125-12.281-3.635-22.455-10.974-29.662-20.436-11.196 4.017-23.725 4.638-36.006 1.004-30.71-9.087-48.24-41.336-39.158-72.031a57.8 57.8 0 0 1 10.231-19.674C45.17 110.96 39.72 90.21 45.662 70.126 54.744 39.43 87.002 21.914 117.71 31q.67.199 1.334.412C132.131 8.731 159.485-2.91 185.711 4.85" clip-rule="evenodd"/></g><mask id="e" width="228" height="237" x="43" y="2" maskUnits="userSpaceOnUse" style="mask-type:alpha"><path fill="#85DCFF" fill-rule="evenodd" d="M185.711 4.849c26.225 7.76 42.84 32.413 41.476 58.564q.671.182 1.342.38c30.709 9.087 48.241 41.336 39.158 72.031-5.943 20.085-21.808 34.527-40.669 39.566a57.8 57.8 0 0 1-2.122 22.074c-9.082 30.695-41.34 48.212-72.049 39.125-12.281-3.634-22.455-10.973-29.662-20.436-11.196 4.017-23.725 4.638-36.006 1.004-30.71-9.087-48.24-41.336-39.158-72.031a57.8 57.8 0 0 1 10.231-19.674C45.17 110.961 39.72 90.211 45.662 70.126c9.082-30.695 41.34-48.212 72.049-39.125q.67.2 1.334.412C132.131 8.731 159.485-2.91 185.711 4.85" clip-rule="evenodd"/></mask><g mask="url(#e)"><path fill="#00CE4C" d="M182.659 244.474c-.761 2.107-1.863 3.934-3.423 5.477a13.1 13.1 0 0 1-4.111 2.763c-.238.102-.507.147-.703.354.133.3.45.336.694.468.719.39 1.434.789 2.007 1.384 1.027 1.071.924 2.325-.256 3.225-.495.378-1.06.609-1.651.786-.927.28-1.88.427-2.843.484-4.488.255-8.928.027-13.262-1.306-2.231-.684-4.491-1.26-6.761-1.815-3.247-.795-6.543-1.182-9.863-1.443-.697-.054-1.398-.099-2.17-.171-.236-.397-.024-.7.13-1.006 2.106-4.225 3.078-8.735 3.479-13.404.148-1.71.151-3.417.154-5.128 0-.405-.039-.81-.063-1.215-.045-.786-.453-1.086-1.213-1.167a98 98 0 0 1-17.59-3.502 151 151 0 0 1-3.601-1.104c-.585-.189-.848-.03-.96.585-.676 3.763-.809 7.547-.537 11.354.263 3.697.96 7.304 2.264 10.785.295.789.634 1.56.993 2.322.208.441.461.885.308 1.48-.13.111-.236.174-.351.186-4.774.552-9.41 1.752-14.04 2.976-3.939 1.044-7.95 1.648-12.043 1.618-2.221-.015-4.442.132-6.658-.162-.61-.081-1.21-.204-1.799-.379a5.5 5.5 0 0 1-1.207-.51c-1.672-.969-1.829-2.502-.377-3.759.51-.442 1.09-.781 1.687-1.093.254-.132.504-.273.745-.402-.066-.216-.22-.24-.344-.291-4.536-1.875-7.231-5.311-8.378-9.962-1.877-7.616 1.639-15.495 8.545-19.285.488-.267.709-.573.793-1.122 1.373-9.113 5.472-16.828 12.13-23.223.187-.18.417-.321.643-.489-.41-.522-.902-.654-1.34-.846-4.757-2.088-9.217-4.669-13.238-7.961-4.391-3.594-7.977-7.831-10.31-13.031-1.968-4.387-2.752-8.969-2.227-13.764.597-5.483 2.74-10.356 5.91-14.815 3.398-4.783 7.702-8.632 12.582-11.87a54 54 0 0 1 4.582-2.74c.727-.384 1.216-.924 1.557-1.683 1.799-4.006 3.773-7.928 6.082-11.673 1.781-2.886 3.872-5.533 6.573-7.645 2.029-1.588 4.259-2.704 6.855-3.112 4.135-.654 8.04 1.566 9.477 5.491.371 1.011.594 2.062.857 3.103.033.135.036.291.235.393.29-.087.26-.378.308-.609.224-1.083.495-2.152.915-3.175 1.557-3.796 5.339-5.836 9.413-5.197 3.073.483 5.587 1.971 7.848 3.979 2.556 2.268 4.521 5.008 6.235 7.934a99 99 0 0 1 5.252 10.238c.422.963 1.032 1.626 1.956 2.118a52.4 52.4 0 0 1 7.696 5.002c4.545 3.556 8.436 7.688 11.294 12.726 1.663 2.932 2.873 6.037 3.498 9.344q.847 4.48.151 9.011c-.815 5.278-3.115 9.875-6.417 14.025-.178.225-.419.408-.495.702.091.252.329.327.525.435 2.059 1.162 3.489 2.869 4.47 4.99.746 1.615 1.289 3.298 1.835 4.985.197.606.387 1.218.607 1.893.308.429.232.837.157 1.233-.401 2.05-.676 4.126-.712 6.203a38 38 0 0 0 .537 6.91c.124.741.269 1.482.317 2.308-.414 1.035-1.413 1.26-2.225 1.827-2.713.819-4.303.342-6.012-1.794-1.814-2.272-3.072-4.864-4.292-7.472-2.668-5.716-4.116-11.778-5.073-17.971-.169-1.089-.245-2.205.386-3.22.347-.555.779-1.05 1.398-1.275.799-.294.778-.765.516-1.434-.978-2.488-1.923-4.99-2.886-7.484-2.299-5.965-4.584-11.936-7.008-17.851-.422-1.032-.38-1.161.516-1.92.178-.15.362-.297.492-.495.284-.435.19-.762-.293-.978-.386-.174-.796-.18-1.204-.183-.646-.006-1.092-.283-1.427-.838-3.058-5.083-7.854-7.204-13.528-7.876-2.26-.267-4.488-.084-6.721.21a4.3 4.3 0 0 0-2.216.951c-1.285 1.05-2.674 1.974-3.966 3.022-.181.147-.374.282-.531.453-.133.144-.35.285-.25.51.105.234.353.159.546.126a13 13 0 0 0 1.364-.324c2.837-.795 5.723-1.162 8.668-1.018 2.581.126 4.938.862 6.945 2.539.981.822 1.657 1.863 2.204 3.001.289.6.141 1.053-.42 1.41-.492.312-1.014.588-1.425 1.011-.615.633-.51 1.281.338 1.525.849.243 1.12.798 1.292 1.56 2.134 9.434 4.455 18.823 6.71 28.227 1.346 5.62 2.855 11.204 3.999 16.87.16.789.564 1.158 1.316 1.41 4.811 1.617 8.23 4.771 9.875 9.539 1.533 4.441 1.06 8.705-2.055 12.468-.374.45-.803.84-1.256 1.209-.803.654-.809.723-.35 1.68 1.582 3.31 3.963 6.008 6.634 8.471 1.805 1.666 3.788 3.1 5.976 4.243.251.138.504.291.61.66"/><path fill="#0E0E0E" d="M122.254 117.82c3.184 1.775 4.137 5.014 2.473 8.013-1.083 1.945-3.168 3.074-5.263 2.846-1.968-.222-3.566-1.767-4.167-3.961-1.165-4.291 3.53-8.385 6.957-6.898M140.784 117.768c3.555.336 5.754 2.809 5.541 6.073-.141 2.12-1.509 3.907-3.455 4.51-1.83.559-3.889-.183-5.339-1.875-2.825-3.313-.394-8.698 3.253-8.708"/><path fill="#fff" d="M121.008 122.762c-.459-.93-.317-1.664.467-2.234.518-.369 1.093-.388 1.663-.084.719.382 1.056.972 1.052 1.737-.004.537-.208 1.005-.756 1.228-.9.362-1.659.013-2.413-.646zM141.596 122.884c-.897-.727-1.104-1.517-.596-2.421.34-.589.902-.856 1.612-.801.895.07 1.51.511 1.869 1.272.251.535.27 1.088-.168 1.546-.723.747-1.642.728-2.704.399z"/><path fill="#DBFF9E" d="M123.424 254.394c-.266-.5-.429-1.003-.656-1.473-1.877-3.916-2.806-8.074-3.212-12.364a45.3 45.3 0 0 1 .505-12.439c.031-.172.055-.347.097-.515.133-.542.14-.554.709-.374 2.733.867 5.475 1.698 8.257 2.4 4.377 1.105 8.821 1.836 13.301 2.378 1.889.229 1.538-.153 1.635 1.707.284 5.395-.27 10.7-1.983 15.851-.533 1.601-1.174 3.161-2.07 4.666-2.237-.13-4.456-.274-6.681-.328-2.552-.063-5.095.144-7.634.349-.733.06-1.465.105-2.268.142"/><path fill="#00C62E" d="M149.942 200.585c1.556-.677 3.043-1.342 4.406-2.238.702-.461 1.394-.94 1.983-1.543.148-.15.266-.381.62-.354-.296.679-.717 1.244-1.197 1.761-2.497 2.681-5.628 4.411-9.037 5.717-2.074.795-4.232 1.292-6.417 1.658-1.499.252-3.023.201-4.54.231-2.784.053-5.459-.42-8.055-1.366-.843-.307-1.638-.697-2.379-1.253.284-.21.454-.038.629.033 1.448.591 2.962.842 4.522.854.937.006 1.87-.006 2.807.003 1.992.018 3.951-.266 5.906-.577 3.147-.496 6.215-1.309 9.216-2.358.49-.178.979-.364 1.536-.568"/><path fill="#0C200F" d="M131.448 148.694c-1.461.936-3.011 1.564-4.707 1.712-1.45.13-2.795-.217-3.838-1.316-.265-.282-.43-.617-.153-.986.253-.339.638-.35.892.004.715 1.004 1.788 1.164 2.88 1.122 1.454-.057 2.877-.475 4.076-1.24.9-.575 1.646-.552 2.592-.312 1.342.338 2.715.342 4.031-.244.523-.232.942-.605 1.392-.94.277-.206.611-.483.896-.206.307.297.03.67-.196.937-.97 1.141-2.246 1.686-3.727 1.777a8 8 0 0 1-3.23-.483c-.342-.126-.627-.126-.908.175"/><path fill="#F8B91E" d="M185.409 213.989c-.469-2.775-.822-5.514-.915-8.28-.062-1.848.129-3.68.377-5.507.135-.996.335-1.983.517-3.044.305-.706.395-1.399.568-2.069.218-.84.454-1.672.774-2.482.26-.655.254-.67-.35-1.005a4 4 0 0 1-1.132-.929c-1.07-1.271-.84-2.979.508-3.95.935-.673 1.987-.748 3.069-.622.485.057.975.164 1.429.332 7.682 2.822 15.36 5.651 22.931 8.763 1.136.467 2.161 1.113 2.908 2.12.153.21.302.428.413.661.651 1.399.128 2.598-1.348 3.086-.667.221-1.357.278-2.054.224-.786-.063-.881-.027-1.153.715-1.588 4.32-2.924 8.716-3.874 13.221a100 100 0 0 0-1.348 7.945c-.236 1.863-.41 3.734-.377 5.618.036 2.081.069 4.165-.373 6.219-.631 2.948-1.847 5.598-3.996 7.753-2.114 2.12-4.69 3.343-7.64 3.783-3.85.574-7.472-.251-10.984-1.77-.29-.126-.586-.243-.945-.38a61 61 0 0 1-1.641-.93c-3.613-2.129-6.635-4.919-9.215-8.214a22.8 22.8 0 0 1-2.905-4.816c-.173-.392-.197-.643.207-.939 4.026-2.933 5.463-8.109 3.978-12.992-1.593-5.238-5.144-8.605-10.363-10.208-.517-.158-.747-.382-.861-.909-2.065-9.586-4.567-19.07-6.784-28.623-1.322-5.69-2.661-11.38-3.994-17.067-.044-.197-.095-.395-.137-.592-.054-.257-.2-.407-.472-.427a1.5 1.5 0 0 1-.257-.036c-.485-.129-.984-.272-1.145-.814-.173-.583.176-.995.574-1.357.43-.392.932-.685 1.44-.963.646-.353.637-.353.308-1.043-1.434-3.041-3.948-4.602-7.161-5.155-3.139-.541-6.232-.147-9.293.592-.702.17-1.401.365-2.101.544-.167.045-.338.078-.508.12-.347.089-.526-.087-.693-.368-.186-.314-.024-.473.194-.646.544-.434 1.073-.882 1.623-1.307 1.121-.867 2.259-1.713 3.377-2.586a3.84 3.84 0 0 1 1.8-.789c4.489-.733 8.892-.533 13.133 1.247 3.3 1.384 5.975 3.513 7.666 6.736.156.299.344.428.676.419.55-.012 1.1-.006 1.632.173.882.296 1.046.882.412 1.564-.254.272-.55.523-.869.711-.419.252-.413.515-.243.93a448 448 0 0 1 3.166 7.897c2.316 5.992 4.6 11.993 6.898 17.991q.043.122.087.245c.29.786.29.786-.52 1.121-1.309.541-2.054 1.675-2.036 3.14.012.989.221 1.952.398 2.921.601 3.271 1.225 6.539 2.259 9.711 1.277 3.917 2.876 7.697 4.95 11.264a21 21 0 0 0 1.641 2.452c1.467 1.865 2.899 2.682 5.607 1.826.589.141.708.625.915 1.023.971 1.902 1.99 3.773 3.571 5.538-.989-2.186-1.661-4.27-2.253-6.381-.108-.443-.32-.882-.066-1.405"/><path fill="#FFF500" fill-rule="evenodd" d="M205.443 153.986a5 5 0 0 1-.313-.269c-.553 2.494-1.661 4.301-2.469 4.52-1.39.376-5.6-2.95-6.791-8.135-1.191-5.186-.082-9.952 2.478-10.644 1.203-.326 2.513.307 3.687 1.608.718-3.506 2.424-5.973 4.414-5.973 2.294 0 4.211 3.278 4.671 7.649a2.6 2.6 0 0 1 1.447-.041c2.559.693 3.668 5.458 2.477 10.644s-5.401 8.512-6.791 8.135c-1.104-.298-2.768-3.564-2.81-7.494" clip-rule="evenodd" opacity=".9"/><path fill="#FFF500" d="M223.211 138.572c-.778 3.803 1.128 7.657 2.215 7.987s4.255-1.982 5.033-5.785-.213-7.38-2.215-7.988-4.255 1.983-5.033 5.786M196.941 120.077c.639 3.944-1.365 8.107-2.446 8.522-1.081.414-4.122-1.815-4.761-5.759-.639-3.943.456-7.758 2.446-8.521s4.122 1.815 4.761 5.758"/><path fill="#FF8BCA" d="M228.801 148.555c-1.395 2.257-1.123 5.09-.522 5.52.601.431 3.136-.395 4.532-2.652s1.629-4.729.522-5.521-3.136.395-4.532 2.653"/><path stroke="#F3EC1A" stroke-linecap="round" stroke-width="2" d="m188.576 132.536 6.816 37.495"/><path stroke="#FF8BCA" stroke-linecap="round" stroke-width="2" d="m219.246 153.841-12.779 36.642"/><path fill="#FF8BCA" fill-rule="evenodd" d="M219.797 185.87c-.497.46-.929.696-1.22.663-1.18-.131-3.215-5.015-2.33-10.661s3.361-10.026 5.533-9.784c1.257.14 2.136 1.799 2.481 4.267 1.171-1.243 2.342-1.777 3.27-1.327 1.503.73 1.943 3.833 1.278 7.618 1.335-.877 2.542-1.033 3.339-.264 1.695 1.633.893 6.827-1.791 11.6-2.683 4.773-7.007 6.572-7.928 5.684-.535-.516-.749-2.738-.309-5.446-.541.289-.982.38-1.247.251-.422-.205-.836-1.175-1.076-2.601" clip-rule="evenodd"/><path fill="#1F1408" d="M120.341 51.272v9.403h-6.834v-9.403zm-4.868 7.823h2.884v-6.26h-2.884zm6.807 5.055V49.918h1.995v5.37h2.099v1.663h-2.099v7.2zm11.082-13.961c3.166 0 5.166 1.05 5.172 2.79-.006 1.718-2.006 2.757-5.172 2.751-3.143.006-5.182-1.033-5.176-2.751-.006-1.74 2.033-2.79 5.176-2.79m-6.475 7.956v-1.591h12.973v1.59zm1.503 5.845v-4.85h9.912v4.85zm1.867-11.011c-.011.79 1.122 1.204 3.105 1.204 1.967 0 3.116-.414 3.116-1.204 0-.823-1.149-1.243-3.116-1.238-1.983-.005-3.116.415-3.105 1.238m.094 9.414h6.006V60.72h-6.006zm16.84-12.265c3.276 0 5.165.856 5.171 2.42-.006 1.591-1.895 2.442-5.171 2.442-3.282 0-5.183-.85-5.177-2.442-.006-1.564 1.895-2.42 5.177-2.42m-6.476 7.116v-1.58h12.973v1.58zm1.498 2.282v-1.464h9.889v3.63h-7.923v.856h8.293v1.503h-10.248v-3.752h7.911v-.773zm1.889-6.978c-.011.702 1.006.972 3.089.978 2.11-.006 3.116-.276 3.116-.978 0-.624-1.006-.967-3.116-.961-2.083-.006-3.1.337-3.089.961m20.604-2.497c3.276.005 5.166.862 5.171 2.43-.005 1.575-1.895 2.432-5.171 2.432-3.282 0-5.182-.857-5.177-2.431-.005-1.57 1.895-2.426 5.177-2.431m-6.475 7.06V55.56h12.972v1.553h-5.513v.95h3.928v3.63h-7.923v.856h8.293v1.503h-10.249v-3.752h7.912v-.773h-7.923v-1.464h3.962v-.95zm3.387-4.63c-.011.691 1.005.973 3.088.973 2.111 0 3.116-.282 3.116-.972 0-.641-1.005-.956-3.116-.962-2.083.006-3.099.32-3.088.962m22.353-2.563v14.265h-1.984V49.918zm-11.16 2.807v-1.608h6.756v5.48h-4.69v2.614c2.177-.017 4.016-.133 6.094-.48l.171 1.618c-2.331.415-4.442.503-7.044.503h-1.276v-5.823h4.712v-2.304zm24.623 1.083v1.563h-9.933v-4.945h1.983v3.382zm-11.563 4.646v-1.563h13.005v1.563zm1.497 5.381V59.62h1.994v2.613h8.161v1.602zm-56.113 10.083v3.116h1.912v1.636h-1.912v3.204h-2v-7.956zm-11.442 6.69c3.193-.79 4.961-2.37 5.276-4.264h-4.574v-1.586h6.751c-.006 3.762-2.387 6.315-6.663 7.442zm2.133 7.365V82.41h9.309v5.563zm1.983-1.563h5.354v-2.392h-5.354zm15.242-10.553c-.011 1.906.973 3.663 3.26 4.37l-1.061 1.559c-1.53-.525-2.563-1.509-3.16-2.785-.635 1.48-1.779 2.646-3.486 3.221l-1.061-1.591c2.442-.785 3.486-2.69 3.497-4.68v-1.287h2.011zm-3.132 9.536c-.006-1.746 1.856-2.768 4.884-2.768 3.039 0 4.895 1.022 4.9 2.768-.005 1.757-1.861 2.757-4.9 2.752-3.028.005-4.89-.995-4.884-2.752m1.983 0c-.005.79 1.017 1.205 2.901 1.2 1.889.005 2.917-.41 2.923-1.2-.006-.812-1.034-1.22-2.923-1.22-1.884 0-2.906.408-2.901 1.22m3.105-7.232v-1.63h2.669v-2.613h1.989v8.343h-1.989v-4.1zm22.45-4.243V88.15h-1.918v-7.237h-1.303v6.602h-1.851V74.294h1.851v5.017h1.303v-5.393zm-12.437 9.923c2.895-1.69 4.144-3.774 4.409-6.564h-3.691v-1.596h5.636c-.006 3.966-1.188 7.215-5.205 9.541zm25.453-9.083v1.276c-.006 1.326-.006 2.78-.371 4.774h1.895v1.607h-5.547v5.746h-2.011v-5.746h-5.414v-1.607h9.066c.359-1.84.393-3.232.398-4.464h-7.978v-1.586zm14.292-.84v14.265h-1.984V73.918zm-11.16 2.807v-1.608h6.756v5.48h-4.69v2.614c2.177-.017 4.016-.133 6.094-.48l.171 1.618c-2.331.414-4.442.503-7.044.503h-1.276v-5.823h4.712v-2.304z"/></g><path fill="#fff" d="M330.517 121.636c1.005-3.043 2.245-5.953 4.403-8.39 2.422-2.734 5.385-4.442 9-4.969.193-.027.426-.005.578-.39-9.081-1.522-12.786-8.055-14.729-16.252-1.945 8.254-5.675 14.75-14.746 16.504.627.128 1.262.229 1.882.385 5.981 1.522 9.399 5.717 11.484 11.263.44 1.174.73 2.404 1.09 3.608.23.285.525.559.608-.045a8 8 0 0 1 .43-1.711zM27.494 196.001c1.005-3.043 2.246-5.953 4.403-8.39 2.423-2.734 5.386-4.442 9.001-4.969.192-.027.425-.005.578-.39-9.081-1.522-12.787-8.055-14.73-16.252-1.944 8.255-5.675 14.75-14.746 16.504.628.128 1.263.229 1.883.385 5.98 1.522 9.398 5.717 11.484 11.263.44 1.174.73 2.404 1.09 3.608.23.285.525.559.607-.045.08-.595.225-1.157.43-1.711zM251.604 51.67c2.492.291 4.982.592 7.474.87 1.002.113 1.208.54.86 1.479-.528 1.413-1.231 2.74-2.113 4.258 1.529-.702 2.78-1.35 4.086-1.856 1.345-.524 1.644-.328 1.85 1.214.447 3.366.829 6.737 1.239 10.105.05.403-.05.83.299 1.356.449-.802.385-1.606.483-2.36.388-3.003.72-6.01 1.152-9.007.291-2.01.595-2.151 2.56-1.386.767.298 1.49.703 2.422 1.146-.449-1.242-1.144-2.206-1.468-3.327-.26-.906-.123-1.305.915-1.482 3.763-.636 7.561-.944 11.34-1.435.363-.046.725-.09 1.11-.407-2.266-.262-4.532-.51-6.792-.788-1.845-.226-3.682-.515-5.529-.713-.913-.1-1.058-.488-.807-1.28.469-1.48 1.231-2.813 2.333-4.419-1.599.708-2.807 1.29-4.055 1.78-1.554.611-1.791.504-2.012-1.094-.463-3.36-.837-6.734-1.273-10.1-.061-.468.026-.994-.491-1.54-.296 2.532-.561 4.92-.854 7.305a176 176 0 0 1-.633 4.635c-.176 1.176-.69 1.68-2.004 1.165-.985-.388-1.887-.933-3.109-1.473.633 1.264 1.295 2.242 1.607 3.374.249.911.146 1.468-1.002 1.592-2.816.303-5.623.697-8.434 1.052-1.294.303-2.718-.097-4.222.798 1.873.235 3.475.397 5.074.543zM258.658 381.099c2.55.292 5.097.592 7.648.871 1.025.113 1.236.539.879 1.479-.54 1.413-1.259 2.74-2.162 4.258 1.565-.703 2.845-1.35 4.181-1.857 1.377-.523 1.682-.327 1.894 1.215.456 3.366.848 6.737 1.267 10.105.052.402-.051.829.306 1.355.46-.801.394-1.606.494-2.36.397-3.002.737-6.01 1.18-9.006.297-2.011.608-2.152 2.618-1.386.786.298 1.525.702 2.479 1.146-.46-1.242-1.171-2.206-1.502-3.327-.266-.906-.126-1.306.937-1.482 3.849-.636 7.736-.945 11.603-1.435.371-.047.742-.091 1.136-.408-2.319-.261-4.638-.509-6.951-.787-1.887-.226-3.766-.515-5.657-.714-.934-.099-1.082-.487-.825-1.28.479-1.479 1.259-2.812 2.387-4.418-1.636.708-2.873 1.289-4.149 1.779-1.591.612-1.834.504-2.059-1.093-.474-3.36-.857-6.734-1.303-10.1-.062-.468.026-.994-.502-1.539-.303 2.531-.574 4.919-.874 7.304a168 168 0 0 1-.648 4.635c-.18 1.176-.706 1.68-2.051 1.165-1.008-.388-1.93-.934-3.181-1.473.648 1.264 1.325 2.241 1.645 3.373.254.912.148 1.468-1.025 1.592-2.882.303-5.755.697-8.631 1.052-1.325.303-2.781-.096-4.32.799 1.916.234 3.555.397 5.192.543z"/></g><defs><filter id="d" width="346.817" height="356.539" x="-16.734" y="-57.551" color-interpolation-filters="sRGB" filterUnits="userSpaceOnUse"><feFlood flood-opacity="0" result="BackgroundImageFix"/><feGaussianBlur in="BackgroundImageFix" stdDeviation="30"/><feComposite in2="SourceAlpha" operator="in" result="effect1_backgroundBlur_3827_20725"/><feBlend in="SourceGraphic" in2="effect1_backgroundBlur_3827_20725" result="shape"/></filter></defs></svg>