<svg viewBox="0 0 342 337" fill="none" xmlns="http://www.w3.org/2000/svg">
<rect x="0.5" y="0.5" width="106.991" height="163" rx="11.5" stroke="#313239"/>
<path d="M60.4671 119.245C59.7902 119.192 59.1197 119.132 58.4459 119.076C57.8399 119.026 57.2371 118.969 56.631 118.938C54.9966 118.853 53.359 118.891 51.7246 118.95C50.7543 118.985 49.7808 119.026 48.7943 119.236C48.3946 118.562 48.098 117.86 47.7982 117.158C47.0084 115.309 46.5668 113.366 46.2605 111.398C46.0671 110.154 45.993 108.897 45.9575 107.637C45.8576 104.068 46.4217 100.593 47.4694 97.1832C47.7918 96.1365 48.2979 95.1587 48.8201 94.1591C48.8395 94.1309 48.8362 94.1277 48.8395 94.1277C48.9426 94.0306 48.9974 93.9052 49.0683 93.7611C49.0877 93.7423 49.0845 93.736 49.0877 93.736C49.1457 93.6765 49.1812 93.6075 49.2327 93.5229C49.2489 93.5072 49.2489 93.501 49.2521 93.501C49.3069 93.4477 49.3423 93.3819 49.3972 93.2973C49.4165 93.2785 49.4165 93.2659 49.4229 93.2659C49.4358 93.2503 49.4455 93.2346 49.4745 93.2033C49.4939 93.1876 49.4939 93.1813 49.4939 93.1813C49.5519 93.1312 49.5841 93.0685 49.6422 92.987C49.6647 92.9682 49.6647 92.9526 49.6712 92.9494C49.6841 92.9306 49.6905 92.9149 49.7163 92.8899C49.7389 92.8773 49.7356 92.8679 49.7421 92.8679C49.7582 92.8523 49.7646 92.8397 49.7969 92.8084C49.8162 92.7927 49.8162 92.7865 49.8194 92.7865C49.8356 92.7739 49.8452 92.7583 49.8775 92.7269C49.8968 92.7081 49.8968 92.705 49.8968 92.705C49.9774 92.6329 50.0516 92.5546 50.1289 92.4449C50.1515 92.4292 50.1644 92.4041 50.1934 92.3822C50.2224 92.3603 50.2385 92.3289 50.2708 92.307C50.303 92.2819 50.3191 92.2506 50.3514 92.2286C50.3836 92.2067 50.4029 92.1722 50.4319 92.1566C50.4996 92.1002 50.5383 92.0594 50.606 92.0093C50.6866 91.9372 50.7769 91.9278 50.851 91.8557C50.8671 91.8401 50.8671 91.8369 50.8704 91.8369C50.8865 91.8244 50.8994 91.8119 50.9316 91.7774C50.951 91.7586 50.951 91.7555 50.951 91.7555C50.9638 91.7429 50.98 91.7304 51.0122 91.699C51.0315 91.6802 51.0315 91.6771 51.0315 91.6771C51.0444 91.6646 51.0573 91.652 51.0928 91.6238C51.1154 91.6082 51.1154 91.6019 51.1218 91.6019C51.1347 91.5894 51.1411 91.5737 51.1766 91.5549C51.8568 91.0723 52.6369 90.9751 53.4138 90.8686C54.4099 90.7338 55.406 90.7182 56.3957 90.9187C57.8657 91.2164 58.865 92.1566 59.7322 93.2628C60.1416 93.7861 60.48 94.3534 60.7863 94.9738C60.8056 95.0114 60.8185 95.0208 60.8346 95.0522C60.8475 95.0867 60.854 95.1023 60.8701 95.1368C60.8894 95.1681 60.8991 95.1775 60.9152 95.2089C60.9249 95.2433 60.9346 95.259 60.9507 95.2966C60.97 95.328 60.9829 95.3374 60.9958 95.3656C61.0055 95.4032 61.0119 95.4188 61.0281 95.4596C61.0506 95.4909 61.0635 95.4972 61.07 95.5254C61.0732 95.563 61.0829 95.5787 61.1022 95.6257C61.1409 95.6727 61.157 95.6977 61.1667 95.7573C61.1796 95.798 61.186 95.8106 61.1989 95.8482C61.2183 95.8795 61.2279 95.8889 61.2408 95.9202C61.2505 95.9578 61.2569 95.9735 61.2698 96.0174C61.3053 96.0644 61.3214 96.0926 61.3279 96.1521C61.3408 96.1929 61.3472 96.2054 61.3601 96.2462C61.3794 96.2775 61.3891 96.2869 61.3988 96.3182C61.4052 96.3558 61.4149 96.3746 61.4278 96.4154C61.4633 96.4624 61.4826 96.4875 61.4858 96.547C61.4955 96.5877 61.5019 96.6034 61.5148 96.6441C61.5471 96.6943 61.5632 96.7225 61.5696 96.782C61.5793 96.8228 61.5858 96.8384 61.5986 96.8792C61.6309 96.9293 61.6438 96.9607 61.6534 97.0202C61.6663 97.0609 61.6696 97.0766 61.6825 97.1173C61.7147 97.1675 61.7276 97.1957 61.734 97.2584C61.7437 97.2991 61.7502 97.3148 61.7631 97.3586C61.8533 97.6783 61.9371 97.9729 62.0403 98.2925C62.0629 98.3521 62.0725 98.3865 62.0854 98.4492C62.1918 98.9882 62.3336 99.4928 62.4529 100.029C62.4723 100.088 62.4819 100.126 62.4916 100.185C62.6173 100.847 62.7559 101.48 62.872 102.147C62.8849 102.213 62.8913 102.25 62.8978 102.316C62.8946 102.46 62.9268 102.57 62.9526 102.708C62.9655 102.768 62.9687 102.805 62.9751 102.871C63.017 103.322 63.0654 103.748 63.117 104.203C63.1299 104.294 63.1363 104.356 63.1395 104.45C63.1331 104.826 63.2008 105.171 63.1976 105.547C63.2105 105.688 63.2169 105.804 63.2169 105.951C63.2363 106.563 63.2234 107.142 63.2201 107.753C63.2169 107.901 63.2137 108.014 63.2105 108.161C63.1815 108.565 63.1395 108.935 63.1395 109.336C63.1363 109.405 63.1363 109.443 63.1299 109.508C63.1009 109.753 63.059 109.966 63.059 110.207C63.0557 110.273 63.0525 110.311 63.0461 110.376C62.959 110.746 62.959 111.097 62.8945 111.47C62.8881 111.536 62.8849 111.573 62.8784 111.639C62.7946 111.906 62.8011 112.156 62.7366 112.423C62.7301 112.485 62.7269 112.523 62.7173 112.586C62.6173 112.93 62.5754 113.256 62.4916 113.604C62.4819 113.667 62.4787 113.701 62.4658 113.761C62.3723 114.027 62.3207 114.278 62.2498 114.551C62.2401 114.613 62.2369 114.648 62.2208 114.707C62.0886 115.112 61.9597 115.488 61.8436 115.892C61.834 115.955 61.8243 115.992 61.8017 116.055C61.7953 116.096 61.7985 116.108 61.7824 116.133C61.7598 116.161 61.7566 116.174 61.7437 116.215C61.6083 116.468 61.5374 116.716 61.4536 116.989C61.431 117.026 61.4278 117.042 61.4117 117.08C61.3537 117.186 61.315 117.274 61.2892 117.387C61.2666 117.421 61.2602 117.437 61.244 117.478C61.2312 117.515 61.2312 117.531 61.2118 117.556C61.1892 117.584 61.186 117.6 61.1699 117.634C61.0796 117.788 60.999 117.919 60.9604 118.095C60.9378 118.129 60.9314 118.148 60.912 118.189C60.8991 118.227 60.8991 118.242 60.883 118.267C60.8572 118.295 60.854 118.311 60.8346 118.349C60.8217 118.386 60.8217 118.399 60.8024 118.427C60.7798 118.455 60.7766 118.471 60.7605 118.505C60.6992 118.609 60.6606 118.697 60.6348 118.813C60.6154 118.847 60.609 118.863 60.5961 118.9C60.5348 119.007 60.4962 119.095 60.4736 119.211C60.4736 119.229 60.4704 119.242 60.4671 119.245Z" fill="#BEE6F5"/>
<path d="M39.2328 88.4644C23.0421 81.7199 19.4909 65.7628 34.7884 55.4891C35.8082 54.6688 37.3173 54.3208 38.0377 53.2109C39.6125 49.8033 41.2116 46.2594 43.9109 43.5821C47.5984 39.6731 53.2817 40.3522 53.9729 46.2156C55.0439 39.7583 60.8756 39.8338 64.6824 44.1881C66.0259 45.685 67.0628 47.4107 67.9877 49.1875C69.0489 50.7136 69.3093 52.9115 70.8208 54.0457C87.2428 63.0757 87.0822 79.8725 69.986 87.9533C69.8059 88.0312 69.6209 88.1602 69.8497 88.3208C71.7287 90.0417 73.3716 92.0083 74.5643 94.2646C75.718 96.4089 76.5358 98.7431 76.8595 101.162C76.879 101.552 77.0421 101.8 77.4193 101.944C77.4364 101.98 77.5094 101.98 77.5386 102.007C77.58 102.056 77.6773 102.07 77.726 102.126C77.9012 102.243 78.1154 102.333 78.2761 102.496C78.3394 102.56 78.4611 102.601 78.5219 102.681C78.6339 102.776 78.7872 102.871 78.8919 102.988C78.8967 103.005 78.943 103.037 78.9576 103.046C79.2253 103.258 79.4858 103.492 79.6926 103.786C83.7817 108.26 82.4528 115.126 77.3487 117.699C79.7657 118.665 79.347 120.702 76.7865 120.904C74.7931 121.175 72.7899 120.975 70.8014 120.778C70.6261 120.763 70.5653 120.797 70.5872 120.992C70.0395 126.748 61.0679 123.032 59.1573 119.858C58.7143 119.291 58.9796 118.646 59.2741 118.061C59.5418 117.463 59.8339 116.876 60.0335 116.251C61.6545 111.553 61.5669 106.364 60.182 101.615C59.3082 98.1711 56.6844 95.2795 52.8849 96.6231C49.5139 98.249 48.9127 102.703 48.3918 106.033C48.0219 109.436 48.2847 112.96 49.4165 116.209C49.6234 116.915 49.9934 117.555 50.2489 118.242C50.7211 118.947 50.5751 119.658 50.0421 120.216C47.9415 123.163 39.3472 126.612 38.875 120.977C38.8969 120.8 38.8361 120.763 38.6754 120.778C36.4678 120.987 34.2261 121.252 32.0307 120.778C29.5188 120.052 30.3488 118.534 32.2132 117.582C26.7612 115.455 25.8849 107.795 29.7695 103.784C29.9764 103.514 30.2198 103.253 30.5046 103.044C30.5241 103.044 30.5581 102.998 30.5679 102.988C30.6774 102.888 30.8064 102.769 30.9378 102.681C31.0036 102.618 31.0936 102.55 31.1837 102.496C31.3443 102.355 31.5366 102.233 31.7338 102.126C31.78 102.085 31.8652 102.051 31.9212 102.007C31.9455 101.985 32.0112 101.971 32.0429 101.941C32.1548 101.846 32.3422 101.783 32.4761 101.7C32.7682 100.435 32.9872 99.04 33.3962 97.7744C33.4448 97.7403 33.4108 97.6283 33.457 97.5894C33.5057 97.5553 33.4716 97.4433 33.5203 97.4068C33.569 97.3728 33.5349 97.2584 33.5836 97.2243C33.7028 97.1002 33.6955 96.8835 33.7661 96.7326C33.8537 96.6669 33.8318 96.5087 33.8878 96.426C33.9779 96.3627 33.9511 96.202 34.012 96.1193C34.1239 96.0243 34.119 95.8077 34.1969 95.6909C34.287 95.5327 34.3819 95.3842 34.4379 95.1968C34.4695 95.1773 34.4744 95.1019 34.4987 95.0727C34.5426 95.0118 34.5742 94.8877 34.6204 94.8268C34.6545 94.8098 34.657 94.7343 34.6813 94.7051C34.7129 94.6857 34.7178 94.6126 34.7421 94.5834C34.7738 94.564 34.7787 94.4934 34.803 94.4617C34.9003 94.379 34.9344 94.211 34.9904 94.0966C35.0172 94.0747 35.022 93.9896 35.0537 93.9749C35.061 93.9603 35.0951 93.9214 35.1072 93.9068C35.1803 93.8678 35.1778 93.7267 35.2338 93.6658C35.2435 93.6561 35.28 93.6074 35.2898 93.5977C35.3263 93.5831 35.3287 93.5101 35.3555 93.4784C35.4115 93.4419 35.4456 93.3592 35.4748 93.291C35.5113 93.2764 35.5137 93.2058 35.5405 93.1717C35.5673 93.1523 35.577 93.0695 35.6062 93.0525C35.6159 93.0403 35.65 93.0014 35.6622 92.9843C35.7474 92.9162 35.762 92.7628 35.8496 92.6801C35.8642 92.6728 35.8934 92.6265 35.9056 92.6144C35.9421 92.5973 35.9421 92.5316 35.9713 92.4951C36.0248 92.4537 36.037 92.3588 36.0954 92.3101C36.1076 92.3028 36.1441 92.2541 36.1514 92.242C36.2147 92.2152 36.222 92.1057 36.2755 92.0618C36.3047 92.0424 36.3145 91.9596 36.3437 91.945C37.1858 90.8035 38.1156 89.7398 39.1476 88.7663C39.2255 88.6932 39.3764 88.6227 39.2279 88.462L39.2328 88.4644Z" fill="#6BCEF5"/>
<path d="M50.1318 43.1123C55.7822 46.7038 47.9242 55.4193 44.7318 48.6778C43.4031 45.5279 46.8587 41.4142 50.1318 43.1123Z" fill="#001602"/>
<path d="M47.8521 46.3522C46.5043 44.4372 50.0225 42.8553 50.9589 44.9738C51.9331 46.7777 49.3784 47.874 47.8521 46.3522Z" fill="#EBECED"/>
<path d="M46.3092 49.3776C45.5517 48.1219 47.5291 47.0846 48.0554 48.4738C48.603 49.6567 47.1671 50.3755 46.3092 49.3776Z" fill="#EBECED"/>
<path d="M56.9623 50.3185C54.1016 47.9279 55.9511 41.8073 59.9739 42.7697C66.6755 44.6148 62.9854 54.2127 56.9623 50.3185Z" fill="#001602"/>
<path d="M62.3008 45.3051C62.5918 48.2731 57.1412 47.1045 58.7115 44.7069C59.5422 43.376 62.0159 43.9881 62.3008 45.3051Z" fill="#EBECED"/>
<path d="M59.3083 48.6907C59.461 50.6369 56.6016 49.8706 57.4254 48.2984C57.8612 47.4257 59.1589 47.8271 59.3083 48.6907Z" fill="#EBECED"/>
<path d="M54.3088 89.793H44.7294C52.393 94.2011 60.2547 91.6297 63.2276 89.793H54.3088Z" fill="#25C1FF"/>
<path d="M66.4781 86.3881C64.9093 84.4968 57.6259 89.7618 54.1803 92.6308C57.5438 95.3224 64.6709 100.219 66.2713 98.2727C67.8718 96.3263 66.4018 93.4285 65.6712 92.4292C66.4576 91.066 68.047 88.2793 66.4781 86.3881Z" fill="#FF6B00"/>
<path fill-rule="evenodd" clip-rule="evenodd" d="M54.3394 92.6295C56.0213 93.9679 58.5853 95.8145 60.9353 97.1032C62.1338 97.7604 63.2706 98.2691 64.2034 98.4934C65.1455 98.7199 65.8342 98.6464 66.1938 98.2092C66.966 97.27 67.0027 96.0962 66.7477 95.0192C66.4926 93.9423 65.9493 92.9801 65.5901 92.4887L65.5515 92.4359L65.5842 92.3792C65.978 91.6967 66.5653 90.6698 66.861 89.5806C67.1566 88.4917 67.1553 87.3619 66.4009 86.4525C66.2264 86.2421 65.9691 86.1257 65.6318 86.096C65.2928 86.066 64.8795 86.1245 64.4068 86.2591C63.4619 86.528 62.3054 87.0934 61.0839 87.8112C58.6871 89.2198 56.0624 91.2021 54.3394 92.6295ZM65.6495 85.8958C66.0243 85.9289 66.3378 86.0617 66.5555 86.3242C67.3699 87.306 67.3584 88.5152 67.0549 89.6333C66.7597 90.7207 66.1832 91.7421 65.7906 92.4234C66.1611 92.9451 66.6896 93.9021 66.9432 94.9729C67.2057 96.0813 67.1771 97.3296 66.349 98.3368C65.9083 98.8728 65.106 98.9171 64.1565 98.6888C63.1977 98.4583 62.0424 97.9395 60.8387 97.2794C58.4295 95.9583 55.8018 94.0573 54.1176 92.7095L54.0215 92.6326L54.116 92.5538C55.8412 91.1174 58.5281 89.0802 60.9822 87.638C62.2084 86.9174 63.3822 86.3418 64.3518 86.0658C64.8365 85.9279 65.2764 85.8629 65.6495 85.8958Z" fill="#FF6B00"/>
<path d="M41.9964 86.325C43.5974 84.4609 50.7895 89.8501 54.1854 92.7777C50.7762 95.4113 43.5662 100.185 41.9994 98.2115C40.4326 96.2378 41.952 93.3658 42.6997 92.3791C41.9367 91.0027 40.3954 88.1891 41.9964 86.325Z" fill="#FF6B00"/>
<path fill-rule="evenodd" clip-rule="evenodd" d="M54.0264 92.7735C52.3218 94.0828 49.7265 95.8853 47.3548 97.1335C46.1452 97.7701 44.9998 98.2592 44.0633 98.4675C43.1175 98.6778 42.4301 98.5925 42.0781 98.1491C41.322 97.1968 41.3055 96.0226 41.5789 94.9501C41.8524 93.8777 42.4122 92.925 42.7798 92.4399L42.8193 92.3877L42.7876 92.3305C42.4055 91.6413 41.8359 90.6045 41.5589 89.5104C41.2821 88.4166 41.3027 87.287 42.0726 86.3906C42.2507 86.1832 42.5099 86.0713 42.8477 86.0473C43.1871 86.0232 43.5994 86.0888 44.0697 86.2314C45.0099 86.5165 46.1565 87.1016 47.3655 87.8403C49.7378 89.2898 52.3281 91.3168 54.0264 92.7735ZM42.8334 85.8469C42.4581 85.8736 42.1424 86.001 41.9202 86.2597C41.089 87.2274 41.0799 88.4366 41.3642 89.5597C41.6407 90.652 42.1995 91.6832 42.5804 92.3711C42.201 92.8864 41.6562 93.8341 41.3843 94.9005C41.1028 96.0042 41.11 97.2528 41.9207 98.274C42.3522 98.8175 43.1536 98.8756 44.1069 98.6636C45.0694 98.4495 46.2334 97.9507 47.4483 97.3113C49.8798 96.0317 52.5397 94.1761 54.2468 92.8573L54.3442 92.7821L54.251 92.7017C52.5508 91.2359 49.8992 89.153 47.4702 87.6689C46.2565 86.9273 45.0927 86.3317 44.128 86.0391C43.6457 85.8929 43.207 85.8204 42.8334 85.8469Z" fill="#FF6B00"/>
<path d="M50.7446 88.4067C50.7436 88.1848 50.9226 88.004 51.1445 88.0029L57.1831 87.9734C57.405 87.9723 57.5858 88.1513 57.5869 88.3733L57.6278 96.7355C57.6289 96.9575 57.4498 97.1382 57.2279 97.1393L51.1893 97.1688C50.9674 97.1699 50.7866 96.9909 50.7855 96.769L50.7446 88.4067Z" fill="#FF6B00"/>
<path fill-rule="evenodd" clip-rule="evenodd" d="M57.1841 88.1743L51.1455 88.2038C51.0345 88.2044 50.945 88.2948 50.9456 88.4057L50.9864 96.768C50.987 96.879 51.0774 96.9685 51.1883 96.9679L57.2269 96.9384C57.3379 96.9379 57.4274 96.8475 57.4269 96.7365L57.386 88.3742C57.3854 88.2633 57.295 88.1738 57.1841 88.1743ZM51.1445 88.0029C50.9226 88.004 50.7436 88.1848 50.7446 88.4067L50.7855 96.769C50.7866 96.9909 50.9674 97.1699 51.1893 97.1688L57.2279 97.1393C57.4498 97.1382 57.6289 96.9575 57.6278 96.7355L57.5869 88.3733C57.5858 88.1513 57.405 87.9723 57.1831 87.9734L51.1445 88.0029Z" fill="#FF6B00"/>
<path d="M54.8887 54.8418C56.6599 54.8451 58.3641 54.993 59.9709 55.3766C60.3299 55.4627 60.5345 55.5781 60.4942 55.7716C60.2728 56.8639 60.1152 57.9594 59.4946 59.0224C58.978 59.9067 58.3171 60.7617 57.1162 61.4898C56.3513 61.9531 55.4254 62.2928 54.1473 62.3464C52.9934 62.3952 52.0339 62.1807 51.1886 61.8279C50.0614 61.3598 49.357 60.7503 48.8068 60.0952C47.9145 59.0289 47.5857 57.909 47.5488 56.7663C47.5421 56.5453 47.6059 56.3258 47.6193 56.1048C47.6293 55.9683 47.8038 55.9 48.0084 55.8268C50.0547 55.0938 52.3929 54.8386 54.8887 54.8418Z" fill="#FF5D5D"/>
<path d="M53.517 149.633V150.549H42.3881V149.633H53.517ZM52.4506 141.184V142.072H50.5228V146.324H52.4232V147.199H43.3998V146.324H45.3002V142.072H43.3724V141.184H52.4506ZM46.3666 146.324H49.4701V142.072H46.3666V146.324ZM65.6166 149.701V150.604H54.4877V149.701H59.4916V147.404H55.8822V143.658H63.1556V141.744H55.8549V140.855H64.2084V144.533H56.9486V146.516H64.4955V147.404H60.5443V149.701H65.6166Z" fill="white"/>
<rect x="117.491" y="0.5" width="107" height="163" rx="11.5" stroke="#313239"/>
<path d="M177.463 119.244C176.786 119.191 176.116 119.132 175.442 119.075C174.836 119.025 174.233 118.969 173.627 118.937C171.992 118.853 170.354 118.89 168.72 118.95C167.75 118.984 166.776 119.025 165.789 119.235C165.39 118.561 165.093 117.859 164.793 117.157C164.003 115.308 163.562 113.365 163.255 111.397C163.062 110.153 162.988 108.896 162.952 107.636C162.852 104.066 163.417 100.591 164.464 97.1808C164.787 96.134 165.293 95.1562 165.815 94.1564C165.835 94.1282 165.831 94.1251 165.835 94.1251C165.938 94.0279 165.992 93.9026 166.063 93.7584C166.083 93.7396 166.08 93.7333 166.083 93.7333C166.141 93.6738 166.176 93.6048 166.228 93.5202C166.244 93.5045 166.244 93.4983 166.247 93.4983C166.302 93.445 166.337 93.3792 166.392 93.2945C166.412 93.2757 166.412 93.2632 166.418 93.2632C166.431 93.2475 166.441 93.2319 166.47 93.2005C166.489 93.1849 166.489 93.1786 166.489 93.1786C166.547 93.1284 166.579 93.0658 166.637 92.9843C166.66 92.9655 166.66 92.9498 166.666 92.9467C166.679 92.9279 166.686 92.9122 166.711 92.8871C166.734 92.8746 166.731 92.8652 166.737 92.8652C166.753 92.8495 166.76 92.837 166.792 92.8056C166.811 92.79 166.811 92.7837 166.815 92.7837C166.831 92.7712 166.84 92.7555 166.873 92.7242C166.892 92.7053 166.892 92.7022 166.892 92.7022C166.973 92.6301 167.047 92.5518 167.124 92.4421C167.147 92.4264 167.16 92.4014 167.189 92.3794C167.218 92.3575 167.234 92.3261 167.266 92.3042C167.298 92.2791 167.314 92.2478 167.347 92.2258C167.379 92.2039 167.398 92.1694 167.427 92.1538C167.495 92.0973 167.534 92.0566 167.601 92.0065C167.682 91.9344 167.772 91.925 167.846 91.8529C167.862 91.8372 167.862 91.8341 167.866 91.8341C167.882 91.8215 167.895 91.809 167.927 91.7745C167.946 91.7557 167.946 91.7526 167.946 91.7526C167.959 91.7401 167.975 91.7275 168.007 91.6962C168.027 91.6774 168.027 91.6743 168.027 91.6743C168.04 91.6617 168.053 91.6492 168.088 91.621C168.111 91.6053 168.111 91.599 168.117 91.599C168.13 91.5865 168.136 91.5708 168.172 91.552C168.852 91.0694 169.632 90.9722 170.409 90.8657C171.405 90.7309 172.402 90.7152 173.391 90.9158C174.861 91.2135 175.861 92.1538 176.728 93.2601C177.138 93.7835 177.476 94.3507 177.782 94.9713C177.802 95.0089 177.815 95.0183 177.831 95.0496C177.844 95.0841 177.85 95.0998 177.866 95.1342C177.886 95.1656 177.895 95.175 177.911 95.2063C177.921 95.2408 177.931 95.2565 177.947 95.2941C177.966 95.3254 177.979 95.3348 177.992 95.363C178.002 95.4006 178.008 95.4163 178.024 95.457C178.047 95.4884 178.06 95.4947 178.066 95.5229C178.069 95.5605 178.079 95.5761 178.098 95.6231C178.137 95.6702 178.153 95.6952 178.163 95.7548C178.176 95.7955 178.182 95.8081 178.195 95.8457C178.214 95.877 178.224 95.8864 178.237 95.9177C178.247 95.9554 178.253 95.971 178.266 96.0149C178.301 96.0619 178.318 96.0901 178.324 96.1497C178.337 96.1904 178.343 96.2029 178.356 96.2437C178.376 96.275 178.385 96.2844 178.395 96.3158C178.401 96.3534 178.411 96.3722 178.424 96.4129C178.459 96.4599 178.479 96.485 178.482 96.5446C178.492 96.5853 178.498 96.601 178.511 96.6417C178.543 96.6919 178.559 96.7201 178.566 96.7796C178.575 96.8203 178.582 96.836 178.595 96.8768C178.627 96.9269 178.64 96.9583 178.65 97.0178C178.662 97.0585 178.666 97.0742 178.679 97.115C178.711 97.1651 178.724 97.1933 178.73 97.256C178.74 97.2967 178.746 97.3124 178.759 97.3563C178.849 97.6759 178.933 97.9705 179.036 98.2902C179.059 98.3498 179.069 98.3842 179.082 98.4469C179.188 98.986 179.33 99.4906 179.449 100.026C179.468 100.086 179.478 100.124 179.488 100.183C179.614 100.844 179.752 101.478 179.868 102.145C179.881 102.211 179.888 102.249 179.894 102.314C179.891 102.458 179.923 102.568 179.949 102.706C179.962 102.766 179.965 102.803 179.971 102.869C180.013 103.32 180.062 103.747 180.113 104.201C180.126 104.292 180.133 104.355 180.136 104.449C180.129 104.825 180.197 105.169 180.194 105.546C180.207 105.687 180.213 105.803 180.213 105.95C180.233 106.561 180.22 107.141 180.216 107.752C180.213 107.899 180.21 108.012 180.207 108.159C180.178 108.564 180.136 108.933 180.136 109.335C180.133 109.404 180.133 109.441 180.126 109.507C180.097 109.751 180.055 109.965 180.055 110.206C180.052 110.272 180.049 110.309 180.042 110.375C179.955 110.745 179.955 111.096 179.891 111.469C179.884 111.535 179.881 111.572 179.875 111.638C179.791 111.905 179.797 112.155 179.733 112.422C179.726 112.484 179.723 112.522 179.713 112.585C179.614 112.929 179.572 113.255 179.488 113.603C179.478 113.666 179.475 113.7 179.462 113.76C179.369 114.026 179.317 114.277 179.246 114.55C179.236 114.612 179.233 114.647 179.217 114.706C179.085 115.111 178.956 115.487 178.84 115.891C178.83 115.954 178.82 115.991 178.798 116.054C178.791 116.095 178.795 116.107 178.779 116.132C178.756 116.161 178.753 116.173 178.74 116.214C178.604 116.468 178.534 116.715 178.45 116.988C178.427 117.026 178.424 117.041 178.408 117.079C178.35 117.185 178.311 117.273 178.285 117.386C178.263 117.42 178.256 117.436 178.24 117.477C178.227 117.514 178.227 117.53 178.208 117.555C178.185 117.583 178.182 117.599 178.166 117.634C178.076 117.787 177.995 117.919 177.956 118.094C177.934 118.129 177.927 118.148 177.908 118.188C177.895 118.226 177.895 118.242 177.879 118.267C177.853 118.295 177.85 118.311 177.831 118.348C177.818 118.386 177.818 118.398 177.798 118.426C177.776 118.455 177.773 118.47 177.757 118.505C177.695 118.608 177.657 118.696 177.631 118.812C177.611 118.846 177.605 118.862 177.592 118.9C177.531 119.006 177.492 119.094 177.47 119.21C177.47 119.229 177.466 119.241 177.463 119.244Z" fill="#FFE095"/>
<path d="M156.227 88.4616C140.035 81.7165 136.483 65.7581 151.782 55.4834C152.802 54.6631 154.311 54.315 155.032 53.205C156.607 49.7972 158.206 46.253 160.905 43.5755C164.593 39.6662 170.277 40.3453 170.968 46.2092C172.039 39.7514 177.872 39.8268 181.679 44.1816C183.022 45.6786 184.059 47.4044 184.984 49.1814C186.046 50.7076 186.306 52.9056 187.818 54.04C204.241 63.0707 204.08 79.869 186.983 87.9504C186.803 88.0283 186.618 88.1573 186.846 88.318C188.726 90.0389 190.369 92.0057 191.561 94.2622C192.715 96.4067 193.533 98.7411 193.857 101.161C193.876 101.55 194.039 101.798 194.417 101.942C194.434 101.979 194.507 101.979 194.536 102.005C194.577 102.054 194.675 102.069 194.723 102.125C194.899 102.241 195.113 102.331 195.274 102.495C195.337 102.558 195.459 102.599 195.519 102.68C195.631 102.775 195.785 102.869 195.889 102.986C195.894 103.003 195.941 103.035 195.955 103.045C196.223 103.256 196.483 103.49 196.69 103.785C200.78 108.259 199.451 115.126 194.346 117.698C196.763 118.665 196.345 120.702 193.784 120.904C191.79 121.174 189.787 120.975 187.798 120.778C187.623 120.763 187.562 120.797 187.584 120.992C187.036 126.749 178.064 123.032 176.153 119.858C175.71 119.29 175.975 118.645 176.27 118.061C176.538 117.462 176.83 116.876 177.029 116.25C178.651 111.552 178.563 106.362 177.178 101.613C176.304 98.1691 173.68 95.2773 169.88 96.6209C166.509 98.247 165.908 102.701 165.387 106.031C165.017 109.434 165.28 112.959 166.412 116.209C166.618 116.915 166.988 117.555 167.244 118.241C167.716 118.947 167.57 119.658 167.037 120.215C164.936 123.163 156.341 126.612 155.869 120.977C155.891 120.8 155.83 120.763 155.67 120.778C153.462 120.987 151.22 121.252 149.024 120.778C146.512 120.052 147.342 118.533 149.207 117.582C143.754 115.454 142.878 107.794 146.763 103.782C146.97 103.512 147.213 103.252 147.498 103.042C147.518 103.042 147.552 102.996 147.561 102.986C147.671 102.886 147.8 102.767 147.931 102.68C147.997 102.616 148.087 102.548 148.177 102.495C148.338 102.353 148.53 102.232 148.727 102.125C148.774 102.083 148.859 102.049 148.915 102.005C148.939 101.983 149.005 101.969 149.036 101.94C149.148 101.845 149.336 101.781 149.47 101.699C149.762 100.433 149.981 99.0381 150.39 97.7723C150.439 97.7382 150.404 97.6262 150.451 97.5873C150.499 97.5532 150.465 97.4412 150.514 97.4047C150.563 97.3707 150.529 97.2562 150.577 97.2222C150.697 97.098 150.689 96.8814 150.76 96.7305C150.847 96.6647 150.826 96.5065 150.882 96.4238C150.972 96.3605 150.945 96.1998 151.006 96.1171C151.118 96.0221 151.113 95.8055 151.191 95.6886C151.281 95.5304 151.376 95.3819 151.432 95.1945C151.463 95.175 151.468 95.0996 151.493 95.0704C151.536 95.0095 151.568 94.8854 151.614 94.8245C151.648 94.8075 151.651 94.732 151.675 94.7028C151.707 94.6833 151.712 94.6103 151.736 94.5811C151.768 94.5616 151.772 94.491 151.797 94.4594C151.894 94.3766 151.928 94.2087 151.984 94.0943C152.011 94.0723 152.016 93.9872 152.048 93.9725C152.055 93.9579 152.089 93.919 152.101 93.9044C152.174 93.8654 152.172 93.7243 152.228 93.6634C152.237 93.6537 152.274 93.605 152.284 93.5953C152.32 93.5806 152.323 93.5076 152.349 93.476C152.405 93.4395 152.439 93.3567 152.469 93.2885C152.505 93.2739 152.508 93.2034 152.534 93.1693C152.561 93.1498 152.571 93.067 152.6 93.05C152.61 93.0378 152.644 92.9989 152.656 92.9818C152.741 92.9137 152.756 92.7603 152.844 92.6776C152.858 92.6703 152.887 92.624 152.9 92.6118C152.936 92.5948 152.936 92.5291 152.965 92.4926C153.019 92.4512 153.031 92.3563 153.089 92.3076C153.102 92.3003 153.138 92.2516 153.145 92.2394C153.209 92.2126 153.216 92.1031 153.269 92.0593C153.299 92.0398 153.308 91.9571 153.338 91.9424C154.18 90.8008 155.11 89.7371 156.142 88.7634C156.22 88.6904 156.371 88.6198 156.222 88.4592L156.227 88.4616Z" fill="#FFBA14"/>
<path d="M166.337 45.0021C168.105 45.95 168.635 47.6795 167.711 49.2806C167.109 50.3195 165.951 50.922 164.787 50.8003C163.694 50.682 162.806 49.8568 162.472 48.6853C161.826 46.3944 164.433 44.2086 166.337 45.0021Z" fill="#0E0E0E"/>
<path d="M165.658 47.8727C165.104 47.6737 164.9 47.325 165.053 46.7978C165.156 46.4529 165.415 46.2264 165.789 46.1312C166.261 46.0111 166.634 46.1197 166.913 46.428C167.109 46.6453 167.187 46.9108 167.016 47.2091C166.733 47.6966 166.255 47.8455 165.665 47.8681L165.658 47.8727Z" fill="white"/>
<path d="M171.304 89.791H161.724C169.388 94.1995 177.251 91.6279 180.224 89.791H171.304Z" fill="#EAA705"/>
<path fill-rule="evenodd" clip-rule="evenodd" d="M177.382 59.384C177.589 59.4647 177.691 59.6978 177.611 59.9045C176.706 62.2237 174.458 63.2729 172.15 63.674C169.833 64.0768 167.345 63.8504 165.756 63.5193C165.539 63.4741 165.4 63.2612 165.445 63.044C165.49 62.8267 165.703 62.6873 165.92 62.7325C167.44 63.0491 169.822 63.263 172.012 62.8822C174.212 62.4997 176.109 61.5414 176.862 59.6123C176.943 59.4056 177.176 59.3034 177.382 59.384Z" fill="black"/>
<path d="M176.048 50.5706C173.768 49.5344 174.321 47.203 174.882 46.1669C176.954 45.5193 179.286 47.3326 179.674 47.9802C180.063 48.6278 178.897 51.8658 176.048 50.5706Z" fill="black"/>
<path d="M176.724 48.0774C176.225 47.6894 176.11 47.2676 176.393 46.7848C176.581 46.4702 176.893 46.3277 177.288 46.3573C177.785 46.3945 178.127 46.6299 178.326 47.0361C178.465 47.322 178.476 47.6171 178.232 47.8618C177.831 48.2606 177.321 48.2505 176.731 48.0748L176.724 48.0774Z" fill="white"/>
<path d="M184.605 55.452C184.488 55.5334 184.384 55.588 184.29 55.6572C183.168 56.4901 181.919 56.9564 180.516 57.0475C177.494 57.2442 174.721 55.4144 173.67 52.6727C173.494 52.2138 173.49 52.2138 173.003 52.2247C171.689 52.2526 170.374 52.2818 169.061 52.3085C168.73 52.3158 168.732 52.3133 168.608 52.6193C167.922 54.3289 166.765 55.6232 165.091 56.3882C162.639 57.5088 160.278 57.2684 158.053 55.7446C157.928 55.6584 157.803 55.571 157.656 55.4739C157.527 55.3549 157.423 55.2432 157.313 55.1363C153.927 51.8131 154.762 46.2278 158.97 44.0326C159.813 43.5918 160.709 43.3235 161.649 43.2203C163.638 43.0018 165.337 43.6768 166.823 44.9651C166.929 45.0574 167.021 45.1666 167.168 45.2431C167.328 45.3221 167.43 45.4326 167.527 45.5515C168.625 46.8932 169.197 48.4207 169.175 50.163C169.167 50.7725 169.172 50.798 169.786 50.8284C170.524 50.8648 171.264 50.8915 172.003 50.8017C172.214 50.7762 172.425 50.7798 172.636 50.7774C173.077 50.7725 173.109 50.7555 173.098 50.3245C173.08 49.6239 173.172 48.9416 173.367 48.2713C173.661 47.266 174.134 46.3541 174.829 45.5649C174.923 45.458 175.025 45.3621 175.18 45.2868C175.459 45.0647 175.708 44.8497 175.971 44.6518C177.055 43.8323 178.285 43.349 179.629 43.2227C182.14 42.9872 184.16 43.961 185.668 45.9304C187.8 48.7157 187.475 52.6242 184.975 55.0865C184.854 55.2007 184.738 55.3172 184.605 55.452Z" fill="#FD349F"/>
<path d="M166.801 47.0133C167.438 48.0126 167.742 49.081 167.703 50.2418C167.606 53.0866 165.502 55.2722 162.902 55.634C160.177 56.014 157.342 54.2875 156.689 51.2836C156.114 48.6318 157.611 45.9217 160.141 44.9467C161.694 44.3481 163.192 44.4064 164.672 45.1264C165.545 45.5502 166.245 46.1864 166.801 47.0133Z" fill="#FAFAF9"/>
<path d="M176.776 54.5246C175.594 53.5811 174.905 52.3815 174.677 50.9099C174.292 48.4269 175.764 45.8917 178.119 44.9774C178.826 44.703 179.54 44.51 180.31 44.5355C182.273 44.601 183.82 45.4388 184.885 47.0768C186.716 49.8937 185.583 53.7876 182.521 55.1669C180.512 56.0739 178.587 55.8213 176.776 54.5246Z" fill="#FAFAF9"/>
<path d="M160.558 51.3468C159.793 50.0561 160.013 48.6768 161.148 47.6678C162.137 46.7875 163.282 46.609 164.5 47.068C165.68 47.5124 166.278 48.4522 166.447 49.6651C166.595 50.7251 166.377 51.7183 165.802 52.6326C164.951 53.9852 163.696 54.5887 162.135 54.6287C161.875 54.6348 161.618 54.5947 161.368 54.5328C160.349 54.279 159.461 53.7752 158.772 52.9884C157.859 51.949 157.578 50.713 157.865 49.3677C158.212 47.7346 159.226 46.6212 160.693 45.8878C160.973 45.7482 161.188 45.7822 161.288 45.9631C161.393 46.1549 161.302 46.3759 161.001 46.5167C160.336 46.8276 159.773 47.272 159.345 47.856C158.449 49.0787 158.154 50.407 158.847 51.8264C159.676 53.525 161.899 54.347 163.631 53.6076C164.877 53.0758 165.524 52.0753 165.736 50.7725C165.812 50.3074 165.798 49.8351 165.673 49.3725C165.37 48.2457 164.532 47.5901 163.331 47.5403C162.301 47.4978 161.246 48.2118 160.92 49.2159C160.669 49.9845 160.838 50.6863 161.415 51.2581C161.834 51.6734 162.364 51.7657 162.921 51.6212C163.608 51.4427 163.957 50.7409 163.728 50.0634C163.633 49.7841 163.446 49.5959 163.156 49.551C162.853 49.5036 162.64 49.6615 162.5 49.9262C162.463 49.999 162.419 50.0695 162.371 50.135C162.295 50.237 162.192 50.2904 162.063 50.2564C161.936 50.2224 161.874 50.1253 161.848 50.0027C161.8 49.7659 161.878 49.5607 162.015 49.3749C162.567 48.6343 163.752 48.5881 164.242 49.6032C164.544 50.2297 164.495 50.9 164.177 51.5107C163.891 52.0619 163.363 52.3145 162.76 52.3716C161.846 52.459 161.103 52.136 160.558 51.3468Z" fill="#B6B6B6"/>
<path d="M177.113 48.7302C176.599 49.3506 176.454 50.0427 176.584 50.7979C176.822 52.1906 177.968 53.4534 179.305 53.7314C180.629 54.007 181.802 53.6974 182.723 52.6556C183.201 52.1141 183.614 51.5264 183.746 50.7955C183.951 49.6663 183.702 48.6597 182.935 47.7819C182.419 47.1906 181.797 46.7753 181.064 46.5082C180.752 46.3953 180.435 46.32 180.106 46.2909C179.931 46.2751 179.753 46.2714 179.588 46.1986C179.447 46.1367 179.358 46.0274 179.369 45.8695C179.38 45.7129 179.48 45.6146 179.629 45.5721C179.685 45.5563 179.744 45.5478 179.803 45.5502C181.74 45.6376 183.751 46.8203 184.367 48.9293C184.715 50.1228 184.562 51.2532 183.887 52.3047C183.542 52.8414 183.145 53.3319 182.633 53.7217C181.329 54.7149 179.42 54.8145 178.02 53.9657C176.871 53.27 176.133 52.2707 175.895 50.9509C175.661 49.653 176.034 48.5444 177.151 47.7734C178.285 46.9915 179.475 46.9623 180.669 47.6398C181.647 48.1935 182.122 49.0507 182.092 50.1714C182.065 51.2095 181.391 52.0777 180.389 52.3436C179.195 52.6605 178.365 52.1056 178.02 50.8659C177.917 50.4932 177.941 50.1313 178.12 49.7707C178.462 49.0799 179.348 48.8941 179.965 49.2936C180.157 49.4174 180.311 49.5777 180.344 49.8193C180.36 49.9419 180.339 50.0548 180.229 50.1313C180.116 50.209 180.004 50.1848 179.898 50.1192C179.82 50.0694 179.747 50.0087 179.674 49.9504C179.461 49.7804 179.226 49.7355 178.983 49.8594C178.76 49.9747 178.645 50.1811 178.625 50.43C178.558 51.2241 179.278 51.8579 180.059 51.6964C180.95 51.5119 181.506 50.6996 181.37 49.7768C181.233 48.8407 180.532 48.1425 179.532 47.93C178.579 47.7321 177.802 48.0551 177.113 48.7302Z" fill="#B6B6B6"/>
<path d="M170.512 149.701V150.604H159.384V149.701H164.387V147.404H160.778V143.658H168.051V141.744H160.751V140.855H169.104V144.533H161.844V146.516H169.391V147.404H165.44V149.701H170.512ZM182.612 149.701V150.604H171.483V149.701H176.487V147.404H172.878V143.658H180.151V141.744H172.85V140.855H181.204V144.533H173.944V146.516H181.491V147.404H177.54V149.701H182.612Z" fill="white"/>
<rect x="234.491" y="0.5" width="107" height="163" rx="11.5" stroke="#313239"/>
<path d="M294.463 119.244C293.786 119.191 293.116 119.132 292.442 119.075C291.836 119.025 291.233 118.969 290.627 118.937C288.992 118.853 287.355 118.89 285.72 118.95C284.75 118.984 283.776 119.025 282.79 119.235C282.39 118.561 282.093 117.859 281.793 117.157C281.003 115.308 280.562 113.365 280.256 111.397C280.062 110.153 279.988 108.896 279.952 107.636C279.853 104.066 280.417 100.591 281.465 97.1808C281.787 96.134 282.293 95.1562 282.815 94.1564C282.835 94.1282 282.831 94.1251 282.835 94.1251C282.938 94.0279 282.993 93.9026 283.064 93.7584C283.083 93.7396 283.08 93.7333 283.083 93.7333C283.141 93.6738 283.176 93.6048 283.228 93.5202C283.244 93.5045 283.244 93.4983 283.247 93.4983C283.302 93.445 283.338 93.3792 283.392 93.2945C283.412 93.2757 283.412 93.2632 283.418 93.2632C283.431 93.2475 283.441 93.2319 283.47 93.2005C283.489 93.1849 283.489 93.1786 283.489 93.1786C283.547 93.1284 283.579 93.0658 283.637 92.9843C283.66 92.9655 283.66 92.9498 283.666 92.9467C283.679 92.9279 283.686 92.9122 283.712 92.8871C283.734 92.8746 283.731 92.8652 283.737 92.8652C283.753 92.8495 283.76 92.837 283.792 92.8056C283.812 92.79 283.812 92.7837 283.815 92.7837C283.831 92.7712 283.841 92.7555 283.873 92.7242C283.892 92.7053 283.892 92.7022 283.892 92.7022C283.973 92.6301 284.047 92.5518 284.124 92.4421C284.147 92.4264 284.16 92.4014 284.189 92.3794C284.218 92.3575 284.234 92.3261 284.266 92.3042C284.298 92.2791 284.314 92.2478 284.347 92.2258C284.379 92.2039 284.398 92.1694 284.427 92.1538C284.495 92.0973 284.534 92.0566 284.601 92.0065C284.682 91.9344 284.772 91.925 284.846 91.8529C284.863 91.8372 284.863 91.8341 284.866 91.8341C284.882 91.8215 284.895 91.809 284.927 91.7745C284.946 91.7557 284.946 91.7526 284.946 91.7526C284.959 91.7401 284.975 91.7275 285.008 91.6962C285.027 91.6774 285.027 91.6743 285.027 91.6743C285.04 91.6617 285.053 91.6492 285.088 91.621C285.111 91.6053 285.111 91.599 285.117 91.599C285.13 91.5865 285.137 91.5708 285.172 91.552C285.852 91.0694 286.632 90.9722 287.409 90.8657C288.406 90.7309 289.402 90.7152 290.392 90.9158C291.862 91.2135 292.861 92.1538 293.728 93.2601C294.138 93.7835 294.476 94.3507 294.782 94.9713C294.802 95.0089 294.815 95.0183 294.831 95.0496C294.844 95.0841 294.85 95.0998 294.866 95.1342C294.886 95.1656 294.895 95.175 294.911 95.2063C294.921 95.2408 294.931 95.2565 294.947 95.2941C294.966 95.3254 294.979 95.3348 294.992 95.363C295.002 95.4006 295.008 95.4163 295.024 95.457C295.047 95.4884 295.06 95.4947 295.066 95.5229C295.069 95.5605 295.079 95.5761 295.098 95.6231C295.137 95.6702 295.153 95.6952 295.163 95.7548C295.176 95.7955 295.182 95.8081 295.195 95.8457C295.215 95.877 295.224 95.8864 295.237 95.9177C295.247 95.9554 295.253 95.971 295.266 96.0149C295.302 96.0619 295.318 96.0901 295.324 96.1497C295.337 96.1904 295.343 96.2029 295.356 96.2437C295.376 96.275 295.385 96.2844 295.395 96.3158C295.401 96.3534 295.411 96.3722 295.424 96.4129C295.46 96.4599 295.479 96.485 295.482 96.5446C295.492 96.5853 295.498 96.601 295.511 96.6417C295.543 96.6919 295.559 96.7201 295.566 96.7796C295.576 96.8203 295.582 96.836 295.595 96.8768C295.627 96.9269 295.64 96.9583 295.65 97.0178C295.663 97.0585 295.666 97.0742 295.679 97.115C295.711 97.1651 295.724 97.1933 295.73 97.256C295.74 97.2967 295.746 97.3124 295.759 97.3563C295.85 97.6759 295.933 97.9705 296.037 98.2902C296.059 98.3498 296.069 98.3842 296.082 98.4469C296.188 98.986 296.33 99.4906 296.449 100.026C296.469 100.086 296.478 100.124 296.488 100.183C296.614 100.844 296.752 101.478 296.868 102.145C296.881 102.211 296.888 102.249 296.894 102.314C296.891 102.458 296.923 102.568 296.949 102.706C296.962 102.766 296.965 102.803 296.972 102.869C297.013 103.32 297.062 103.747 297.113 104.201C297.126 104.292 297.133 104.355 297.136 104.449C297.13 104.825 297.197 105.169 297.194 105.546C297.207 105.687 297.213 105.803 297.213 105.95C297.233 106.561 297.22 107.141 297.217 107.752C297.213 107.899 297.21 108.012 297.207 108.159C297.178 108.564 297.136 108.933 297.136 109.335C297.133 109.404 297.133 109.441 297.126 109.507C297.097 109.751 297.055 109.965 297.055 110.206C297.052 110.272 297.049 110.309 297.042 110.375C296.955 110.745 296.955 111.096 296.891 111.469C296.884 111.535 296.881 111.572 296.875 111.638C296.791 111.905 296.797 112.155 296.733 112.422C296.727 112.484 296.723 112.522 296.714 112.585C296.614 112.929 296.572 113.255 296.488 113.603C296.478 113.666 296.475 113.7 296.462 113.76C296.369 114.026 296.317 114.277 296.246 114.55C296.236 114.612 296.233 114.647 296.217 114.706C296.085 115.111 295.956 115.487 295.84 115.891C295.83 115.954 295.821 115.991 295.798 116.054C295.792 116.095 295.795 116.107 295.779 116.132C295.756 116.161 295.753 116.173 295.74 116.214C295.605 116.468 295.534 116.715 295.45 116.988C295.427 117.026 295.424 117.041 295.408 117.079C295.35 117.185 295.311 117.273 295.285 117.386C295.263 117.42 295.256 117.436 295.24 117.477C295.227 117.514 295.227 117.53 295.208 117.555C295.185 117.583 295.182 117.599 295.166 117.634C295.076 117.787 294.995 117.919 294.957 118.094C294.934 118.129 294.928 118.148 294.908 118.188C294.895 118.226 294.895 118.242 294.879 118.267C294.853 118.295 294.85 118.311 294.831 118.348C294.818 118.386 294.818 118.398 294.799 118.426C294.776 118.455 294.773 118.47 294.757 118.505C294.695 118.608 294.657 118.696 294.631 118.812C294.612 118.846 294.605 118.862 294.592 118.9C294.531 119.006 294.492 119.094 294.47 119.21C294.47 119.229 294.467 119.241 294.463 119.244Z" fill="#FFA9D7"/>
<path d="M273.227 88.4616C257.035 81.7165 253.483 65.7581 268.782 55.4834C269.802 54.6631 271.311 54.315 272.032 53.205C273.607 49.7972 275.206 46.253 277.905 43.5755C281.593 39.6662 287.277 40.3453 287.968 46.2092C289.039 39.7514 294.871 39.8268 298.679 44.1816C300.022 45.6786 301.059 47.4044 301.984 49.1814C303.045 50.7076 303.306 52.9056 304.818 54.04C321.241 63.0707 321.08 79.869 303.983 87.9504C303.802 88.0283 303.617 88.1573 303.846 88.318C305.725 90.0389 307.369 92.0057 308.561 94.2622C309.715 96.4067 310.533 98.7411 310.857 101.161C310.876 101.55 311.039 101.798 311.417 101.942C311.434 101.979 311.507 101.979 311.536 102.005C311.577 102.054 311.675 102.069 311.723 102.125C311.899 102.241 312.113 102.331 312.273 102.495C312.337 102.558 312.458 102.599 312.519 102.68C312.631 102.775 312.785 102.869 312.889 102.986C312.894 103.003 312.94 103.035 312.955 103.045C313.223 103.256 313.483 103.49 313.69 103.785C317.779 108.259 316.45 115.125 311.346 117.698C313.763 118.665 313.344 120.702 310.784 120.904C308.79 121.174 306.787 120.975 304.798 120.778C304.623 120.763 304.562 120.797 304.584 120.992C304.036 126.749 295.064 123.032 293.153 119.858C292.71 119.29 292.975 118.645 293.27 118.061C293.538 117.462 293.83 116.876 294.029 116.25C295.65 111.552 295.563 106.362 294.178 101.613C293.304 98.1691 290.68 95.2773 286.88 96.6209C283.509 98.247 282.908 102.701 282.387 106.031C282.017 109.434 282.28 112.959 283.411 116.209C283.618 116.915 283.988 117.555 284.244 118.241C284.716 118.947 284.57 119.658 284.037 120.215C281.936 123.163 273.341 126.612 272.869 120.977C272.891 120.8 272.83 120.763 272.669 120.778C270.462 120.987 268.22 121.252 266.024 120.778C263.512 120.052 264.342 118.533 266.207 117.582C260.754 115.454 259.878 107.794 263.763 103.782C263.97 103.512 264.213 103.252 264.498 103.042C264.517 103.042 264.551 102.996 264.561 102.986C264.671 102.886 264.8 102.767 264.931 102.68C264.997 102.616 265.087 102.548 265.177 102.495C265.338 102.353 265.53 102.232 265.727 102.125C265.773 102.083 265.859 102.049 265.915 102.005C265.939 101.983 266.005 101.969 266.036 101.94C266.148 101.845 266.336 101.781 266.47 101.699C266.762 100.433 266.981 99.0381 267.39 97.7723C267.438 97.7382 267.404 97.6262 267.451 97.5873C267.499 97.5532 267.465 97.4412 267.514 97.4047C267.563 97.3707 267.528 97.2562 267.577 97.2222C267.696 97.098 267.689 96.8814 267.76 96.7305C267.847 96.6647 267.825 96.5065 267.881 96.4238C267.971 96.3605 267.945 96.1998 268.006 96.1171C268.118 96.0221 268.113 95.8055 268.191 95.6886C268.281 95.5304 268.376 95.3819 268.432 95.1945C268.463 95.175 268.468 95.0996 268.492 95.0704C268.536 95.0095 268.568 94.8854 268.614 94.8245C268.648 94.8075 268.651 94.732 268.675 94.7028C268.707 94.6833 268.711 94.6103 268.736 94.5811C268.767 94.5616 268.772 94.491 268.797 94.4594C268.894 94.3766 268.928 94.2087 268.984 94.0943C269.011 94.0723 269.016 93.9872 269.047 93.9725C269.055 93.9579 269.089 93.919 269.101 93.9044C269.174 93.8654 269.172 93.7243 269.227 93.6634C269.237 93.6537 269.274 93.605 269.283 93.5953C269.32 93.5806 269.322 93.5076 269.349 93.476C269.405 93.4395 269.439 93.3567 269.468 93.2885C269.505 93.2739 269.507 93.2033 269.534 93.1693C269.561 93.1498 269.571 93.067 269.6 93.05C269.61 93.0378 269.644 92.9989 269.656 92.9818C269.741 92.9137 269.756 92.7603 269.843 92.6776C269.858 92.6703 269.887 92.624 269.899 92.6118C269.936 92.5948 269.936 92.5291 269.965 92.4926C270.019 92.4512 270.031 92.3563 270.089 92.3076C270.101 92.3003 270.138 92.2516 270.145 92.2394C270.208 92.2126 270.216 92.1031 270.269 92.0593C270.299 92.0398 270.308 91.9571 270.337 91.9424C271.18 90.8008 272.11 89.7371 273.142 88.7634C273.22 88.6904 273.37 88.6198 273.222 88.4591L273.227 88.4616Z" fill="#FD349F"/>
<path d="M281.223 58.857C280.032 57.7426 281.449 55.8851 282.306 55.0957C282.955 56.0987 284.831 57.0925 285.688 57.4639C284.696 58.3927 282.414 59.9715 281.223 58.857Z" fill="#FFA7AE"/>
<path d="M288.305 89.791H278.724C286.388 94.1995 294.251 91.6279 297.224 89.791H288.305Z" fill="#DB0E7B"/>
<path fill-rule="evenodd" clip-rule="evenodd" d="M280.67 46.1006C280.773 45.9045 281.017 45.8297 281.213 45.9335L286.287 48.62L281.213 51.3065C281.017 51.4104 280.773 51.3356 280.67 51.1394C280.566 50.9433 280.641 50.7001 280.837 50.5962L284.57 48.62L280.837 46.6438C280.641 46.54 280.566 46.2968 280.67 46.1006Z" fill="black"/>
<path fill-rule="evenodd" clip-rule="evenodd" d="M295.628 46.1006C295.524 45.9045 295.281 45.8297 295.085 45.9335L290.01 48.62L295.085 51.3065C295.281 51.4104 295.524 51.3356 295.628 51.1394C295.732 50.9433 295.657 50.7001 295.461 50.5962L291.728 48.62L295.461 46.6438C295.657 46.54 295.732 46.2968 295.628 46.1006Z" fill="black"/>
<path fill-rule="evenodd" clip-rule="evenodd" d="M281.533 53.8762C281.733 53.78 281.973 53.8641 282.07 54.0641C282.891 55.772 286.441 59.0057 293.997 56.8474C294.211 56.7864 294.433 56.91 294.494 57.1234C294.555 57.3368 294.432 57.5593 294.218 57.6202C286.358 59.8655 282.367 56.5365 281.345 54.4125C281.249 54.2125 281.333 53.9724 281.533 53.8762Z" fill="black"/>
<path d="M284.262 40.1603C284.67 40.5249 285.068 40.8828 285.453 41.2516C286.257 42.0246 287.057 42.8029 287.859 43.5786C288.076 43.788 288.067 43.8695 287.801 44.0022C285.586 45.1084 283.371 46.2131 281.155 47.3177C278.312 48.734 275.469 50.1486 272.626 51.5633C272.419 51.6661 272.365 51.6422 272.338 51.4214C272.166 50.0109 272.031 48.5967 271.909 47.1658C271.928 47.0618 272.01 47.0413 272.074 47.0056C274.448 45.7278 276.807 44.4218 279.151 43.0892C280.76 42.1744 282.357 41.2392 283.949 40.2952C284.043 40.2392 284.13 40.1664 284.266 40.1609L284.262 40.1603Z" fill="#FFEC00"/>
<path d="M280.268 36.2519C280.945 36.8921 281.606 37.5339 282.263 38.1773C282.559 38.4679 282.852 38.7633 283.153 39.0697C283.123 39.2019 283.009 39.2402 282.917 39.2953C281.687 40.0515 280.446 40.7853 279.202 41.5186C276.863 42.8961 274.498 44.2236 272.112 45.5161C272.015 45.5696 271.919 45.6262 271.787 45.6322C271.676 45.0544 271.648 44.4733 271.593 43.8944C271.511 43.032 271.441 42.169 271.367 41.2914C271.377 41.1802 271.462 41.1654 271.528 41.1313C274.255 39.6474 276.957 38.1198 279.646 36.5671C279.842 36.4544 280.017 36.2963 280.268 36.2519Z" fill="#FFEC00"/>
<path d="M271.253 39.7565C271.15 39.1813 271.125 38.608 271.073 38.0384C271.006 37.3034 270.952 36.5673 270.893 35.8171C270.932 35.71 271.018 35.6743 271.096 35.6323C272.231 34.9985 273.365 34.3599 274.497 33.7219C275.052 33.4084 275.601 33.0866 276.151 32.7694C276.263 32.7055 276.366 32.6154 276.521 32.6067C277.065 33.0702 277.549 33.5766 278.054 34.0601C278.434 34.4237 278.805 34.7972 279.187 35.1775C279.176 35.293 279.084 35.3255 279.008 35.3701C277.553 36.2334 276.095 37.0956 274.622 37.9318C273.585 38.5205 272.545 39.1066 271.496 39.6765C271.424 39.7164 271.353 39.7646 271.25 39.7591L271.253 39.7565Z" fill="#FFEC00"/>
<path d="M271.765 45.6414C273.544 44.6798 275.301 43.7046 277.047 42.7039C279.092 41.5312 281.12 40.3293 283.148 39.0925C283.561 39.4033 283.905 39.7789 284.275 40.1494C280.22 42.5787 276.106 44.9027 271.924 47.1433C271.814 46.6559 271.786 46.1552 271.765 45.643L271.765 45.6414Z" fill="#A64A97"/>
<path d="M270.332 29.0703C270.333 28.5142 270.252 27.9807 270.223 27.4451C270.217 27.3218 270.205 27.1971 270.205 27.0733C270.205 26.9913 270.218 26.9052 270.308 26.8627C270.4 26.8196 270.468 26.8701 270.533 26.9248C271.015 27.3185 271.45 27.7629 271.914 28.1785C271.934 28.1962 271.956 28.215 271.989 28.2353C273.117 29.3037 274.232 30.3716 275.347 31.4374C275.378 31.4655 275.405 31.4984 275.44 31.5421C275.406 31.6633 275.307 31.7053 275.22 31.7572C273.856 32.5655 272.482 33.356 271.104 34.1392C271.009 34.1937 270.916 34.2566 270.785 34.2621C270.677 33.619 270.651 32.9763 270.596 32.3347C270.504 31.2525 270.422 30.1687 270.334 29.0698L270.332 29.0703Z" fill="#FFEC00"/>
<path d="M271.231 39.7638C273.917 38.2973 276.556 36.7718 279.182 35.1948C279.59 35.4951 279.924 35.8635 280.28 36.2335C279.063 36.9557 277.844 37.6681 276.616 38.3679C274.889 39.3519 273.151 40.3156 271.386 41.2688C271.274 40.8795 271.287 40.4712 271.235 40.0687C271.223 39.9737 271.227 39.8766 271.229 39.7643L271.231 39.7638Z" fill="#A64A97"/>
<path d="M270.761 34.2683C271.98 33.5925 273.172 32.8907 274.367 32.1935C274.719 31.988 275.069 31.7784 275.433 31.5619C275.669 31.6726 275.813 31.8785 275.994 32.0442C276.182 32.2145 276.352 32.401 276.536 32.5938C274.681 33.6903 272.807 34.7446 270.91 35.7948C270.797 35.2995 270.778 34.7905 270.761 34.2683Z" fill="#A64A97"/>
<path d="M287.512 149.701V150.604H276.384V149.701H281.387V147.404H277.778V143.658H285.051V141.744H277.751V140.855H286.104V144.533H278.844V146.516H286.391V147.404H282.44V149.701H287.512ZM298.532 139.953V152.107H297.452V139.953H298.532ZM294.936 141.279C294.923 144.779 293.296 147.869 289.221 149.824L288.634 148.949C291.922 147.391 293.596 145.06 293.842 142.154H289.194V141.279H294.936Z" fill="white"/>
<rect x="0.5" y="173.5" width="107" height="163" rx="11.5" stroke="#313239"/>
<path d="M27.7373 233.891C27.7529 233.862 27.7588 233.858 27.7588 233.856C27.8308 233.698 27.9964 233.612 28.0782 233.435C28.1035 233.422 28.0918 233.418 28.0957 233.423C28.2925 233.147 28.5749 232.952 28.7989 232.664C28.8126 232.639 28.8165 232.637 28.8165 232.635C28.8262 232.6 28.8418 232.57 28.8866 232.531C28.908 232.518 28.9002 232.518 28.9022 232.522C28.9353 232.467 28.984 232.426 29.0502 232.368C29.0697 232.354 29.0619 232.352 29.0638 232.356C29.8761 231.462 30.8325 230.724 31.7636 229.918C31.7908 229.906 31.7967 229.906 31.7986 229.904C32.009 229.74 32.2038 229.561 32.4609 229.423C32.4784 229.401 32.4804 229.407 32.4765 229.407C32.5291 229.374 32.5719 229.327 32.6382 229.269C32.6576 229.253 32.6518 229.251 32.6518 229.255C32.6713 229.232 32.6946 229.209 32.7453 229.181C32.7687 229.173 32.7765 229.172 32.7784 229.17C32.8485 229.133 32.9031 229.078 32.9868 229.022C33.0121 229.01 33.018 229.008 33.0199 229.006C33.092 228.973 33.1446 228.918 33.2284 228.858C33.2537 228.844 33.2595 228.842 33.2634 228.84C34.1867 228.168 35.1801 227.615 36.1657 227.05C36.4365 226.895 36.6897 226.737 36.8261 226.423C37.5468 224.777 38.3473 223.167 39.2161 221.593C39.2687 221.497 39.3174 221.4 39.3719 221.273C39.9037 220.114 40.603 219.092 41.3704 218.124C42.4495 216.764 43.6611 215.537 45.2486 214.76C46.8614 213.969 48.521 213.739 50.2001 214.517C51.3396 215.044 52.0642 215.981 52.4927 217.152C52.6933 217.701 52.8199 218.27 52.9738 218.915C53.1413 218.508 53.1744 218.145 53.2699 217.802C53.6205 216.562 54.2302 215.508 55.3307 214.772C56.3261 214.108 57.4227 213.971 58.572 214.102C60.3426 214.302 61.7626 215.21 63.0306 216.384C64.4409 217.689 65.5297 219.244 66.4511 220.921C66.5173 221.04 66.603 221.147 66.6712 221.299C66.7802 221.729 67.0276 222.06 67.2185 222.417C67.8574 223.601 68.4496 224.809 68.9774 226.043C69.2053 226.579 69.556 226.93 70.0546 227.2C72.6005 228.585 74.9126 230.286 76.9228 232.381C79.0868 234.639 80.7659 237.194 81.6502 240.219C82.8267 244.245 82.33 248.084 80.2809 251.732C80.1874 251.898 80.1056 252.069 80.0179 252.272C79.49 253.182 78.8745 253.99 78.2122 254.765C77.1838 255.969 75.9975 257.005 74.7528 257.975C74.5581 258.127 74.3613 258.265 74.11 258.308C73.8432 258.353 73.6484 258.536 73.4419 258.686C72.0628 259.685 70.6058 260.56 69.0768 261.308C66.0693 262.78 62.8904 263.67 59.5732 264.103C57.7247 264.344 55.8683 264.457 54.0062 264.416C51.6804 264.366 49.3722 264.118 47.0815 263.709C42.8605 262.952 38.8109 261.631 34.7886 259.933C36.8124 262.089 39.0349 263.861 41.4736 265.394C44.0487 267.013 46.7601 268.355 49.5319 269.588C49.791 269.703 50.1825 269.736 50.126 270.219C49.8787 270.785 49.5125 271.247 49.2398 271.763C48.1061 273.91 47.5432 276.224 47.2101 278.606C46.9725 280.306 46.8829 282.016 46.9744 283.726C47.1224 286.451 47.5549 289.128 48.6535 291.656C48.708 291.78 48.7606 291.905 48.7411 292.08C47.3075 292.345 45.8953 292.622 44.4558 292.951C43.7098 293.111 43.0144 292.951 42.319 292.84C39.4323 292.386 36.5611 291.825 33.6705 291.395C32.6771 291.247 31.6934 291.038 30.665 290.91C28.0373 289.653 26.6738 287.517 26.3057 284.743C25.7817 280.768 27.6205 277.215 31.1364 275.271C31.45 275.098 31.4207 274.841 31.4636 274.587C31.5707 273.927 31.5629 273.935 30.9416 273.676C25.4252 271.391 20.4874 268.246 16.4086 263.84C15.308 262.652 14.3516 261.347 13.4985 259.97C13.4283 259.855 13.3387 259.753 13.2433 259.623C13.029 259.465 12.9219 259.259 12.8109 259.058C11.6402 256.908 10.7617 254.652 10.3975 252.217C10.3351 251.803 10.2748 251.384 10.2689 250.963C10.2572 250.336 10.3098 250.268 10.9176 250.147C12.1973 249.892 13.479 249.66 14.7607 249.411C17.215 248.934 19.6673 248.456 22.1236 247.991C23.2183 247.782 24.313 247.576 25.4096 247.377C25.8888 247.292 25.918 247.241 25.7447 246.791C25.359 245.782 24.8506 244.839 24.1708 244C23.8552 243.612 23.7384 243.25 23.8104 242.708C24.0013 241.291 24.3597 239.929 24.9032 238.614C25.6044 236.902 26.5413 235.336 27.7373 233.891Z" fill="#589C0D"/>
<path d="M57.4668 270.448C58.3609 270.283 59.2569 270.33 60.149 270.263C63.3026 270.031 66.4309 269.677 69.4384 268.631C70.0656 268.413 70.6713 268.142 71.2499 267.819C71.8946 267.457 72.4614 267.001 72.9328 266.397C74.569 268.999 75.6423 271.806 76.0377 274.856C76.0708 275.103 76.2227 275.189 76.4058 275.289C80.4827 277.519 82.3273 282.478 80.658 286.765C79.9042 288.697 78.6011 290.127 76.6454 290.966C76.2987 291.151 75.9462 291.151 75.5975 291.202C72.1731 291.696 68.7254 291.973 65.2855 292.322C64.4791 292.403 63.6785 292.587 62.8215 292.468C61.4872 292.267 60.1841 292.129 58.8381 292.03C58.7115 291.854 58.7952 291.704 58.8517 291.554C59.5978 289.601 60.0282 287.571 60.2444 285.499C60.3769 284.219 60.484 282.93 60.4275 281.64C60.3068 278.835 59.9425 276.072 58.916 273.43C58.5751 272.554 58.1563 271.718 57.6655 270.918C57.5856 270.781 57.4785 270.653 57.4668 270.448Z" fill="#589C0D"/>
<path d="M27.7235 233.868C27.5248 234.405 27.1002 234.814 26.7807 235.293C25.464 237.266 24.4901 239.38 24.0479 241.725C23.968 242.151 23.9486 242.588 23.8473 243.008C23.7732 243.316 23.9388 243.525 24.1141 243.737C24.905 244.703 25.4913 245.782 25.9276 246.949C26.0367 247.243 26.023 247.362 25.6666 247.428C22.1663 248.086 18.6679 248.766 15.1696 249.438C13.6931 249.72 12.2166 250.009 10.7362 250.27C10.4226 250.326 10.3389 250.455 10.3564 250.755C10.4635 252.669 10.9232 254.504 11.6186 256.282C12.0588 257.41 12.6003 258.489 13.2256 259.557C10.8083 259.668 9.12729 257.862 8.50787 255.61C8.10077 254.126 8.12414 252.634 8.49034 251.146C8.56046 250.862 8.58578 250.745 8.19621 250.831C6.95347 251.101 5.6971 251.318 4.44853 251.561C3.97325 251.653 3.94013 251.629 3.92455 251.146C3.83885 248.513 4.59072 246.133 6.13732 244.01C7.12683 242.652 8.38515 241.581 9.85968 240.778C10.1168 240.638 10.1713 240.486 10.1168 240.229C9.56166 237.658 9.95708 239.15 9.62983 236.542C9.40583 234.767 9.25 232.985 9.10391 231.201C8.72018 226.499 8.65201 221.79 8.72018 217.078C8.76304 214.106 8.91497 211.137 9.18767 208.177C9.46621 205.15 9.87137 202.142 10.5025 199.168C10.5473 198.954 10.6018 198.744 10.7382 198.566C10.7869 198.504 10.8375 198.424 10.933 198.448C11.0226 198.471 11.0498 198.559 11.0615 198.636C11.079 198.757 11.0849 198.88 11.081 199.003C10.968 201.989 11.1959 204.967 11.3011 207.949C11.3498 209.345 11.3985 210.744 11.4842 212.138C11.5913 213.884 11.7316 215.629 11.8679 217.372C11.9751 218.737 12.0841 220.103 12.2127 221.466C12.3822 223.262 12.5594 225.056 12.7562 226.848C12.9373 228.492 13.136 230.134 13.3522 231.774C13.8586 235.595 13.7944 235.287 14.7819 239.017C14.8598 239.314 15.0001 239.38 15.2903 239.386C18.4127 239.45 21.1242 240.519 23.3564 242.734C23.4304 242.808 23.4908 242.942 23.6096 242.909C23.7479 242.87 23.7343 242.716 23.7479 242.599C24.1317 239.36 25.5497 236.577 27.5112 234.029C27.5599 233.969 27.632 233.924 27.7235 233.868Z" fill="#9F9F9F"/>
<path d="M57.4399 270.41C59.0722 272.755 59.8201 275.396 60.2331 278.158C60.5525 280.302 60.6188 282.455 60.4473 284.611C60.2487 287.135 59.7675 289.603 58.8131 291.995C58.0982 292.059 57.4028 291.946 56.6743 291.886C56.016 291.759 55.379 291.831 54.746 291.796C53.513 291.726 52.28 291.823 51.0509 291.917C50.3496 291.969 49.6523 292.049 48.916 292.092C48.8478 292.112 48.8128 292.114 48.7524 292.112C47.7453 289.994 47.2545 287.756 47.0013 285.452C46.8065 283.678 46.7792 281.901 46.9331 280.127C47.2058 276.968 47.8291 273.902 49.4673 271.124C49.6465 270.821 49.8568 270.536 50.0691 270.219C52.5254 270.347 54.9641 270.452 57.4399 270.41Z" fill="#CCCE8A"/>
<path d="M66.6974 221.297C66.4656 221.26 66.4422 221.043 66.3526 220.89C65.2618 218.996 64.021 217.226 62.2894 215.847C61.1167 214.914 59.8175 214.275 58.3079 214.137C56.064 213.932 54.1512 215.239 53.4772 217.432C53.3467 217.859 53.261 218.299 53.1481 218.733C53.1149 218.86 53.1344 219.012 52.9396 219.121C52.813 218.618 52.7117 218.124 52.5656 217.643C52.0125 215.818 50.9158 214.553 48.9504 214.207C47.5324 213.957 46.2273 214.304 44.9982 214.982C43.0542 216.057 41.6674 217.699 40.4694 219.518C40.111 220.062 39.7935 220.63 39.4351 221.199C39.3923 221.207 39.3708 221.201 39.3416 221.166C38.9423 220.11 38.7027 219.059 38.7865 217.958C38.6209 217.909 38.5742 218.036 38.5079 218.104C38.28 218.338 38.0658 218.583 37.8418 218.821C37.6626 219.008 37.4522 219.17 37.2068 218.963C36.9769 218.77 37.0918 218.544 37.236 218.348C38.3365 216.842 39.252 215.22 40.2201 213.632C40.5454 213.098 40.8804 212.571 41.2797 212.088C41.6654 211.618 42.1076 211.219 42.7017 211.04C42.9101 210.977 42.9471 210.872 42.8906 210.681C42.8283 210.471 42.7504 210.27 42.6238 210.089C42.5205 209.941 42.4095 209.785 42.5342 209.606C42.6647 209.419 42.8692 209.437 43.0542 209.493C43.4438 209.61 43.8314 209.741 44.2152 209.875C44.4528 209.959 44.5697 209.928 44.7099 209.667C45.1307 208.876 45.7929 208.28 46.4708 207.709C47.2733 207.031 48.1576 206.472 49.0887 205.991C49.2757 205.894 49.4841 205.72 49.6906 205.89C49.8854 206.05 49.7374 206.268 49.6945 206.461C49.677 206.54 49.6516 206.618 49.6302 206.696C49.4471 207.403 49.5309 207.514 50.275 207.432C51.0561 207.347 51.7261 207.006 52.2871 206.449C52.7059 206.034 52.8792 206.036 53.3058 206.451C53.4811 206.62 53.6526 206.799 53.7947 206.996C53.9564 207.22 54.0441 207.249 54.2681 207.023C54.9888 206.293 55.7991 205.676 56.7828 205.331C57.482 205.085 57.7119 205.214 57.9106 205.917C58.3118 207.331 59.0267 207.721 60.4311 207.275C60.7544 207.171 61.0681 207.037 61.3778 206.903C62.0069 206.628 62.1082 206.69 62.1881 207.388C62.266 208.062 62.3556 208.736 62.4335 209.409C62.4725 209.754 62.5874 209.99 62.9984 210C63.1932 210.003 63.4016 210.087 63.5749 210.187C64.8391 210.917 65.9455 211.821 66.6682 213.12C66.9428 213.613 67.1162 214.141 67.0869 214.715C67.0636 215.151 66.9409 215.249 66.4636 215.214C66.4149 215.218 66.3993 215.216 66.3916 215.235C66.6604 215.82 66.9292 216.38 67.3051 216.877C67.5914 217.255 67.7336 217.269 68.1368 217.015C68.2342 216.955 68.3297 216.906 68.4368 216.971C68.5829 217.056 68.5654 217.199 68.5342 217.333C68.4115 217.88 68.1914 218.389 67.8641 218.846C67.6596 219.133 67.4376 219.407 67.2408 219.699C67.0305 220.013 66.8493 220.334 66.8902 220.749C66.9136 220.913 66.7772 221.096 66.6974 221.297Z" fill="#EEE42A"/>
<path d="M30.6491 290.904C32.7995 291.025 34.9188 291.48 37.0536 291.825C39.3248 292.193 41.5863 292.633 43.8692 292.929C44.0289 292.951 44.1945 292.943 44.3873 292.949C41.9642 293.621 39.5196 294.369 36.9562 294.499C34.9811 294.601 32.9982 294.786 31.0309 294.386C30.5751 294.295 30.1426 294.137 29.7686 293.849C29.1921 293.401 29.1181 292.737 29.5836 292.176C29.8388 291.866 30.1738 291.66 30.5166 291.465C30.69 291.367 30.8672 291.276 31.0464 291.18C30.9568 290.995 30.7776 291.011 30.6491 290.904Z" fill="#936645"/>
<path d="M62.8105 292.48C64.324 292.31 65.8589 292.16 67.3939 292.003C68.8606 291.853 70.3273 291.683 71.796 291.545C73.0232 291.43 74.2425 291.266 75.4619 291.095C75.8223 291.044 76.1865 291.015 76.5839 290.974C76.4728 291.077 76.3462 291.167 76.615 291.29C76.9734 291.453 77.3124 291.654 77.6182 291.909C78.4597 292.614 78.3778 293.524 77.4059 294.04C76.541 294.5 75.5846 294.55 74.6341 294.601C71.9967 294.741 69.445 294.291 66.942 293.483C65.5999 293.05 64.2111 292.793 62.8105 292.48Z" fill="#936645"/>
<path d="M39.3236 221.164C39.3606 221.143 39.382 221.156 39.4073 221.193C39.3859 221.61 39.121 221.906 38.9457 222.233C38.223 223.585 37.5588 224.962 36.9374 226.361C36.8361 226.589 36.7193 226.791 36.4953 226.925C35.4376 227.558 34.3838 228.199 33.2969 228.832C33.5754 228.377 34.0916 228.197 34.524 227.913C35.0207 227.586 35.5505 227.307 36.0706 227.017C36.4115 226.826 36.6589 226.579 36.8245 226.207C37.5276 224.623 38.297 223.073 39.1443 221.559C39.2106 221.444 39.2554 221.316 39.3236 221.164Z" fill="#959594"/>
<path d="M70.5839 293.684C70.5839 293.684 72.3986 277.417 70.9468 273.753C70.4208 270.129 55.8241 255.271 59.5746 269.646C63.325 284.02 59.3326 291.147 59.0906 291.389C58.8971 291.582 58.8487 291.953 58.8487 292.114C58.9697 293.201 60.3005 295.375 65.2607 296.704C69.8259 297.927 70.7452 295.053 70.5839 293.684Z" fill="#589C0D"/>
<path d="M48.9219 292.108C49.1673 291.942 49.4965 291.983 49.7906 291.969C51.3567 291.89 52.9169 291.662 54.4908 291.708C55.192 291.73 55.8933 291.782 56.6218 291.845C55.2485 291.868 53.848 291.849 52.4475 291.876C51.2807 291.899 50.1276 292.108 48.9219 292.108Z" fill="#CCC9A6"/>
<path d="M31.7604 229.9C31.6766 230.221 31.3572 230.332 31.1351 230.541C30.4748 231.156 29.7969 231.756 29.0977 232.36C29.1561 232.003 29.4697 231.83 29.7073 231.612C30.3521 231.01 30.9734 230.373 31.7604 229.9Z" fill="#959594"/>
<path d="M28.7834 232.643C28.7113 232.999 28.4055 233.19 28.127 233.428C28.201 233.069 28.4951 232.874 28.7834 232.643Z" fill="#959594"/>
<path d="M32.4495 229.392C32.3463 229.653 32.093 229.764 31.834 229.902C31.9177 229.618 32.169 229.503 32.4495 229.392Z" fill="#959594"/>
<path d="M28.0749 233.421C28.108 233.626 27.96 233.729 27.7905 233.844C27.7535 233.641 27.9152 233.544 28.0749 233.421Z" fill="#959594"/>
<path d="M29.0431 232.35C29.0899 232.444 29.0373 232.492 28.9341 232.523C28.8873 232.428 28.9341 232.377 29.0431 232.35Z" fill="#959594"/>
<path d="M32.6278 229.248C32.6648 229.343 32.6044 229.382 32.5012 229.403C32.4642 229.306 32.5246 229.269 32.6278 229.248Z" fill="#959594"/>
<path d="M32.9791 229C32.9889 229.093 32.9363 229.152 32.8116 229.166C32.8019 229.072 32.8584 229.018 32.9791 229Z" fill="#959594"/>
<path d="M33.2203 228.836C33.2301 228.93 33.1736 228.984 33.0528 229.002C33.0392 228.905 33.0937 228.848 33.2203 228.836Z" fill="#959594"/>
<path d="M28.8815 232.52C28.8971 232.547 28.8835 232.578 28.8445 232.619C28.8289 232.594 28.8406 232.558 28.8815 232.52Z" fill="#959594"/>
<path d="M32.7398 229.167C32.7476 229.197 32.7261 229.224 32.6794 229.253C32.6716 229.224 32.6911 229.197 32.7398 229.167Z" fill="#959594"/>
<path d="M46.0842 222.594C45.1668 221.885 44.8571 220.972 45.1629 219.906C45.4492 218.905 46.1368 218.26 47.1809 218.062C47.7204 217.958 48.2016 218.14 48.6204 218.48C49.3917 219.106 49.6449 220.263 49.2495 221.309C48.8736 222.302 47.9717 222.913 46.9569 222.871C46.6491 222.857 46.3725 222.762 46.0842 222.594Z" fill="#060B06"/>
<path d="M57.5509 221.973C56.8828 221.334 56.725 220.564 56.8496 219.713C56.9724 218.878 57.36 218.229 58.1761 217.906C58.3378 217.841 58.517 217.781 58.6865 217.785C59.676 217.81 60.4415 218.272 60.9168 219.121C61.3901 219.964 61.4174 220.829 60.7902 221.641C60.048 222.598 58.593 222.757 57.5509 221.973Z" fill="#060B06"/>
<path d="M66.4061 215.245C66.3847 215.235 66.3691 215.216 66.3555 215.196C66.3769 215.19 66.3983 215.185 66.4256 215.198C66.4295 215.218 66.4139 215.235 66.4061 215.245Z" fill="white"/>
<path d="M48.7405 220.457C48.1873 220.782 47.4335 220.51 47.3517 219.976C47.2972 219.62 47.377 219.3 47.7023 219.09C47.9672 218.918 48.2399 218.924 48.5029 219.09C48.8477 219.308 48.9684 219.639 48.9314 220.031C48.9197 220.179 48.8691 220.321 48.7405 220.457Z" fill="#E9E8E6"/>
<path d="M60.3037 220.017C59.809 220.455 59.3045 220.404 59.0298 219.912C58.8214 219.54 58.8759 219.098 59.1681 218.833C59.433 218.593 59.7349 218.593 60.031 218.757C60.3816 218.949 60.5394 219.386 60.4186 219.769C60.3953 219.847 60.3563 219.919 60.3037 220.017Z" fill="#E9E8E6"/>
<path d="M50.118 270.217C50.0887 269.995 49.9875 269.895 49.8044 269.813C47.8779 268.956 45.9398 268.117 44.1088 267.071C41.6467 265.667 39.2197 264.202 37.0965 262.295C36.2102 261.498 35.3201 260.708 34.5078 259.714C35.509 260.114 36.4284 260.497 37.3595 260.85C40.9903 262.225 44.7107 263.267 48.5597 263.834C51.5419 264.274 54.5338 264.44 57.5374 264.214C63.3693 263.775 68.7376 262.007 73.4709 258.507C73.8117 258.253 74.2247 258.273 74.548 258.014C75.3096 257.398 76.0752 256.791 76.7803 256.113C77.8711 255.063 78.8528 253.924 79.6806 252.654C79.7625 252.529 79.8423 252.402 79.9962 252.313C82.7914 251.319 85.4833 250.164 87.887 248.425C88.3291 248.106 88.7304 247.738 89.1024 247.34C90.5205 245.825 91.0717 244.06 90.6276 242.009C90.4776 241.318 90.2634 240.644 90.0511 239.97C89.8504 239.335 89.6693 238.696 89.529 238.043C89.1161 236.102 89.6342 234.44 91.0386 233.053C92.48 231.63 94.2175 230.698 96.1264 230.065C97.6516 229.561 99.2274 229.38 100.825 229.356C100.951 229.355 101.121 229.31 101.177 229.477C101.226 229.617 101.092 229.695 101.004 229.773C99.9462 230.724 99.1067 231.863 98.2223 232.964C98.0178 233.219 98.0762 233.297 98.3782 233.367C100.051 233.751 101.67 234.308 103.289 234.873C103.583 234.976 104.004 235.03 103.98 235.447C103.955 235.872 103.522 235.864 103.221 235.924C101.834 236.201 100.546 236.723 99.3034 237.389C97.4627 238.375 96.8686 239.993 96.9445 241.953C96.9601 242.342 97.0361 242.741 97.1569 243.112C98.1055 246.031 97.564 248.803 96.3524 251.51C94.9012 254.749 92.3826 256.896 89.1765 258.224C85.3294 259.819 81.3013 260.488 77.1309 260.203C76.453 260.156 75.7732 260.121 75.0954 260.082C74.9629 260.075 74.8227 260.047 74.7467 260.213C74.548 260.647 74.1779 260.932 73.8332 261.239C73.6618 261.393 73.4981 261.557 73.3384 261.724C73.0501 262.028 72.9683 262.379 73.1241 262.776C73.2137 263.004 73.2858 263.238 73.3774 263.464C73.7981 264.498 73.8156 265.474 72.9703 266.362C72.8729 266.724 72.6294 266.94 72.384 267.157C71.2971 268.119 69.9745 268.618 68.6149 269.027C66.4995 269.665 64.3276 270.016 62.1304 270.215C60.765 270.337 59.3995 270.468 58.0263 270.454C57.8627 270.452 57.701 270.482 57.5062 270.522C56.1583 270.536 54.8493 270.579 53.5384 270.491C52.7573 270.439 51.9743 270.406 51.1893 270.386C50.8348 270.378 50.4842 270.361 50.118 270.217Z" fill="#CB9023"/>
<path fill-rule="evenodd" clip-rule="evenodd" d="M84.7936 207.745L87.8695 212.338L92.1743 210.768L89.6709 215.027L93.3646 220.542L87.5927 218.562L84.7936 223.323V217.602L78.9375 215.593L84.7936 213.459V207.745ZM84.7936 213.993L80.4437 215.579L84.7936 217.071V213.993ZM85.2959 217.243V213.81L87.6714 212.944L89.0779 215.044L87.3676 217.954L85.2959 217.243ZM85.2959 217.774V221.478L87.1078 218.396L85.2959 217.774ZM87.8525 218.12L92.118 219.583L89.3883 215.508L87.8525 218.12ZM89.3605 214.564L91.0327 211.719L88.1574 212.767L89.3605 214.564ZM87.3836 212.515L85.2959 213.276V209.398L87.3836 212.515Z" fill="#EEE42A"/>
<path d="M54.1161 227.343C55.7416 227.403 57.1581 227.662 58.5216 228.187C58.687 228.251 58.8421 228.348 59.0092 228.408C59.23 228.486 59.2982 228.636 59.2759 228.856C59.2509 229.104 59.1885 229.342 59.1082 229.575C58.6535 230.896 57.9123 232.041 56.9321 233.029C56.004 233.964 54.8165 234.343 53.5503 234.455C51.7663 234.613 50.2721 233.947 49.0427 232.67C48.5195 232.128 48.1272 231.49 47.8247 230.799C47.6235 230.34 47.4345 229.877 47.3147 229.389C47.2339 229.059 47.2386 229.018 47.539 228.844C48.6618 228.188 49.8825 227.811 51.1522 227.572C52.1872 227.379 53.23 227.291 54.116 227.344L54.1161 227.343Z" fill="#FF5D5D"/>
<path d="M27.5107 313.896C29.165 313.91 30.3545 315.325 30.5322 317.602H33.2529V312.953H34.3193V325.135H33.2529V318.49H30.5459C30.416 320.869 29.2061 322.359 27.5107 322.359C25.7197 322.359 24.4619 320.719 24.4619 318.135C24.4619 315.551 25.7197 313.91 27.5107 313.896ZM27.5107 314.854C26.3076 314.867 25.4873 316.152 25.4873 318.135C25.4873 320.117 26.3076 321.402 27.5107 321.402C28.7002 321.402 29.5342 320.117 29.5342 318.135C29.5342 316.152 28.7002 314.867 27.5107 314.854ZM46.3643 312.967V321.908H45.3115V312.967H46.3643ZM46.7197 323.945V324.848H38.3936V321.211H39.4736V323.945H46.7197ZM42.5088 313.828V317.342H38.0244V319.283C40.2803 319.283 41.8799 319.215 43.8076 318.873L43.917 319.762C41.9346 320.104 40.2939 320.172 37.9697 320.186H36.9854V316.494H41.4424V314.703H36.958V313.828H42.5088ZM58.8193 312.953V325.107H57.7666V318.75H56.085V324.506H55.0596V313.281H56.085V317.861H57.7666V312.953H58.8193ZM53.6787 314.539C53.665 317.629 52.585 320.555 49.085 322.496L48.4561 321.744C51.2793 320.172 52.4482 317.943 52.626 315.428H48.9209V314.539H53.6787ZM70.1533 313.746V314.812C70.1533 315.968 70.1533 317.219 69.8115 318.969H71.6162V319.857H66.5986V325.135H65.5186V319.857H60.542V318.969H68.7178C69.0869 317.219 69.0869 315.94 69.0869 314.812V314.635H61.9365V313.746H70.1533ZM82.6768 312.953V325.135H81.6104V312.953H82.6768ZM78.9854 314.088V318.408H74.4463V321.279C76.4629 321.279 78.2607 321.19 80.4346 320.842L80.5439 321.744C78.3018 322.1 76.4561 322.182 74.3643 322.182H73.3525V317.533H77.9053V314.977H73.3252V314.088H78.9854Z" fill="white"/>
<rect x="117.5" y="173.5" width="107" height="163" rx="11.5" stroke="#313239"/>
<path d="M134.597 250.353C134.597 250.353 141.713 259.932 153.013 260.45L151.967 264.565C151.967 264.565 141.6 265.87 139.373 270.739L140.285 262.329L132.295 267.439L136.173 258.642L126.645 263.809L134.597 250.353Z" fill="#574040"/>
<path d="M200.249 250.352C200.249 250.352 193.133 259.931 181.833 260.45L182.879 264.565C182.879 264.565 193.246 265.869 195.474 270.738L194.561 262.328L202.551 267.438L198.673 258.642L208.202 263.809L200.249 250.352Z" fill="#574040"/>
<path d="M157.904 218.08C157.904 218.08 140.704 220.321 140.704 205.438C140.704 205.438 133.966 215.2 144.242 221.691C151.467 226.255 157.904 226.251 157.904 226.251V218.081V218.08Z" fill="#574040"/>
<path d="M176.941 218.08C176.941 218.08 194.141 220.321 194.141 205.438C194.141 205.438 200.879 215.2 190.604 221.691C183.379 226.255 176.941 226.251 176.941 226.251V218.081V218.08Z" fill="#574040"/>
<path d="M162.864 291.134C162.864 291.134 166.543 288.134 170.794 291.134L174.765 280.254L170.661 266.907L163.657 266.415L158.349 279.488L162.864 291.134V291.134Z" fill="#FFB0B0"/>
<path d="M183.197 291.778C191.239 292.575 191.258 291.116 191.572 290.41C191.887 289.703 189.793 288.608 189.793 288.608C193.348 286.73 194.723 284.632 194.723 280.466C194.723 276.301 190.596 273.138 189.963 272.987C189.33 272.837 189.346 272.104 189.346 272.104C188.943 264.564 182.722 259.472 182.722 259.472C189.544 256.118 197.135 251.242 197.135 241.486C197.135 231.731 184.042 224.781 184.042 224.781C180.683 217.339 176.659 212.288 172.348 212.288C168.037 212.288 167.885 216.246 167.546 217.313C167.487 217.496 167.423 217.492 167.423 217.492C167.423 217.492 167.358 217.496 167.3 217.313C166.96 216.246 166.807 212.288 162.497 212.288C158.187 212.288 154.162 217.339 150.803 224.781C150.803 224.781 137.71 231.731 137.71 241.486C137.71 251.242 145.301 256.118 152.123 259.472C152.123 259.472 145.902 264.564 145.5 272.104C145.5 272.104 145.516 272.836 144.882 272.987C144.249 273.138 140.122 276.301 140.122 280.466C140.122 284.632 141.497 286.731 145.052 288.608C145.052 288.608 142.959 289.703 143.273 290.41C143.588 291.116 143.606 292.575 151.648 291.778C151.648 291.778 151.935 291.686 151.926 292.051C151.916 292.416 151.702 293.615 153.39 294.494C155.078 295.373 159.376 295.286 163.456 291.136C163.456 291.136 164.331 290.3 163.585 289.289C162.839 288.277 161.181 284.497 161.519 278.41C161.857 272.324 164.41 267.32 167.421 267.32C170.432 267.32 172.985 272.324 173.323 278.41C173.661 284.497 172.003 288.277 171.257 289.289C170.511 290.3 171.386 291.136 171.386 291.136" fill="#DD5050"/>
<path d="M159.63 220.569C158.152 219.205 158.663 217.013 160.433 216.252C161.521 215.785 162.578 216.43 162.994 217.425C163.459 218.536 163.073 219.785 162.125 220.541C161.536 221.011 160.43 221.164 159.63 220.568V220.569Z" fill="#040C06"/>
<path d="M161.461 218.547C161.018 218.227 160.939 217.746 161.246 217.352C161.504 217.023 161.963 216.977 162.304 217.247C162.68 217.543 162.771 218.167 162.489 218.505C162.276 218.761 161.959 218.777 161.461 218.546V218.547Z" fill="#FEFFFE"/>
<path d="M174.48 217.047C174.864 217.764 175.062 218.486 174.713 219.253C174.337 220.082 173.657 220.511 172.775 220.575C171.852 220.643 171.121 220.266 170.681 219.435C170.38 218.865 170.394 218.249 170.507 217.62C170.62 216.989 170.911 216.497 171.448 216.155C171.98 215.815 172.548 215.739 173.133 216.003C173.656 216.239 174.151 216.52 174.48 217.047Z" fill="#040C06"/>
<path d="M173.9 218.117C173.539 218.463 173.218 218.5 172.88 218.254C172.564 218.022 172.454 217.565 172.623 217.187C172.781 216.834 173.085 216.691 173.474 216.787C173.994 216.915 174.195 217.519 173.9 218.117Z" fill="#FEFFFE"/>
<path d="M160.193 226.343L160.285 232.079L163.714 227.383L160.193 226.343Z" fill="white"/>
<path d="M174.931 226.216L174.839 231.951L171.409 227.256L174.931 226.216Z" fill="white"/>
<path d="M172.928 225.944C173.623 225.767 174.18 225.4 174.748 225.049C175.004 224.891 175.323 224.655 175.586 224.958C175.84 225.252 175.666 225.592 175.436 225.837C174.638 226.688 173.627 227.137 172.483 227.249C171.042 227.39 169.676 227.074 168.386 226.432C168.166 226.323 167.991 226.337 167.777 226.451C166.221 227.287 164.562 227.769 162.791 227.701C161.546 227.654 160.425 227.213 159.561 226.268C159.276 225.957 159.02 225.618 159.188 225.143C159.263 224.933 159.38 224.792 159.617 224.781C159.853 224.769 160.12 224.742 160.233 224.998C160.731 226.128 161.77 226.385 162.804 226.432C164.48 226.51 166.102 226.169 167.583 225.323C167.881 225.152 168.166 225.151 168.469 225.294C169.592 225.826 170.771 226.108 172.02 226.089C172.319 226.084 172.606 226.034 172.928 225.944Z" fill="#001D08"/>
<path fill-rule="evenodd" clip-rule="evenodd" d="M209.466 195.327L200.929 222.459L205.984 229.973L204.623 234.588L204.638 234.607L204.395 235.363C204.394 235.366 204.393 235.37 204.392 235.373L184.879 295.955C184.624 296.747 183.775 297.182 182.983 296.927C182.191 296.672 181.755 295.823 182.01 295.031L201.28 235.204L192.191 223.582L209.466 195.327ZM202.342 231.67L202.693 230.479L197.618 222.937L199.21 217.878L195.852 223.371L202.342 231.67Z" fill="#574040"/>
<path d="M202.991 234.906L194.053 223.477L204.369 206.603L199.305 222.699L204.369 230.227L202.991 234.906Z" fill="#574040"/>
<path fill-rule="evenodd" clip-rule="evenodd" d="M220.24 198.762L217.961 231.797L203.82 236.014L184.882 295.947C184.631 296.74 183.784 297.18 182.991 296.93C182.197 296.679 181.757 295.833 182.008 295.04L201.184 234.351C201.185 234.348 201.187 234.344 201.188 234.341L201.427 233.584L201.45 233.577L203.014 229.027L211.487 225.825L220.24 198.762ZM205.001 232.518L205.404 231.344L213.909 228.13L215.541 223.083L215.098 229.507L205.001 232.518Z" fill="#574040"/>
<path d="M202.597 234.781L216.504 230.633L217.865 210.905L212.672 226.959L204.182 230.167L202.597 234.781Z" fill="#574040"/>
<path d="M215.119 196.921L202.597 228.631L207.105 229.986L215.119 196.921Z" fill="#574040"/>
<path d="M187.073 264.065C187.073 264.065 189.455 259.123 194.301 259.626C199.148 260.129 198.465 266.689 198.465 266.689C198.465 266.689 197.859 273.105 192.215 274.447C186.57 275.789 187.073 264.065 187.073 264.065Z" fill="#DD5050"/>
<path d="M194.021 263.375C194.021 263.375 188.2 263.618 183.392 259.123C178.585 254.628 180.894 269.52 180.894 269.52L187.822 272.122L194.021 263.375Z" fill="#DD5050"/>
<path d="M159.787 260.647C159.787 260.647 166.967 261.935 175.06 260.647C175.06 260.647 171.691 263.162 167.581 263.162C163.471 263.162 159.787 260.647 159.787 260.647Z" fill="#B23D3D"/>
<path d="M150.711 313.691C152.557 313.678 153.896 314.867 153.91 316.549C153.896 318.258 152.557 319.434 150.711 319.434C148.865 319.434 147.512 318.258 147.525 316.549C147.512 314.867 148.865 313.678 150.711 313.691ZM150.711 314.607C149.48 314.607 148.564 315.4 148.578 316.549C148.564 317.711 149.48 318.518 150.711 318.504C151.955 318.518 152.857 317.711 152.857 316.549C152.857 315.4 151.955 314.607 150.711 314.607ZM156.795 312.953V316.098H158.627V317H156.795V320.117H155.729V312.953H156.795ZM156.795 320.746V325.135H155.729V321.621H148.838V320.746H156.795ZM165.504 314.184V322.018H159.898V314.184H165.504ZM160.938 315.045V321.143H164.438V315.045H160.938ZM168.799 312.953V317.807H170.836V318.736H168.799V325.107H167.732V312.953H168.799ZM182.566 318.859V319.762H177.549V325.121H176.482V319.762H171.492V318.859H174.691C175.184 316.993 175.272 315.585 175.307 314.689H172.381V313.814H176.346V314.184C176.346 314.956 176.346 316.556 175.785 318.859H179.777C180.201 316.966 180.249 315.592 180.256 314.689H177.248V313.814H181.322V314.348C181.322 315.182 181.322 316.686 180.871 318.859H182.566ZM193.627 312.953V325.135H192.561V312.953H193.627ZM189.936 314.088V318.408H185.396V321.279C187.413 321.279 189.211 321.19 191.385 320.842L191.494 321.744C189.252 322.1 187.406 322.182 185.314 322.182H184.303V317.533H188.855V314.977H184.275V314.088H189.936Z" fill="white"/>
<rect x="234.5" y="173.5" width="107" height="163" rx="11.5" stroke="#313239"/>
<path d="M262.809 224.048C262.809 224.048 298.966 209.241 315.902 214.673C332.838 220.106 295.394 232.429 295.394 232.429H265.362C265.362 232.429 252.862 230.773 262.808 224.048H262.809Z" fill="#E0E1E9"/>
<path d="M285.766 291.526C285.766 291.526 289.354 288.641 293.499 291.526L297.372 281.063L293.37 268.227L286.539 267.753L281.363 280.326L285.766 291.526V291.526Z" fill="#E0E1E9"/>
<path d="M285.766 291.527C285.766 291.527 286.619 290.723 285.892 289.75C285.164 288.777 283.548 285.142 283.877 279.288C284.207 273.435 286.696 268.623 289.632 268.623C292.569 268.623 295.058 273.435 295.388 279.288C295.717 285.142 294.101 288.777 293.373 289.75C292.646 290.723 293.499 291.527 293.499 291.527C297.477 295.518 301.669 295.602 303.315 294.757C304.961 293.911 304.752 292.758 304.742 292.407C304.733 292.056 305.013 292.144 305.013 292.144C312.856 292.91 312.875 291.508 313.18 290.829C313.487 290.149 311.446 289.096 311.446 289.096C314.912 287.29 316.253 285.272 316.253 281.266C316.253 277.26 312.229 274.218 311.611 274.073C310.994 273.928 311.009 273.223 311.009 273.223C310.617 265.972 304.55 261.075 304.55 261.075C311.202 257.85 318.605 253.16 318.605 243.778C318.605 234.396 305.837 227.712 305.837 227.712C302.562 220.555 298.638 215.698 294.434 215.698C290.23 215.698 290.082 219.504 289.751 220.53C289.694 220.706 289.631 220.702 289.631 220.702C289.631 220.702 289.568 220.706 289.511 220.53C289.18 219.504 289.031 215.698 284.827 215.698C280.624 215.698 276.699 220.555 273.425 227.712C273.425 227.712 260.656 234.396 260.656 243.778C260.656 253.16 268.059 257.849 274.712 261.075C274.712 261.075 268.645 265.972 268.252 273.223C268.252 273.223 268.268 273.928 267.651 274.073C267.033 274.218 263.009 277.26 263.009 281.266C263.009 285.272 264.35 287.291 267.816 289.096C267.816 289.096 265.775 290.149 266.081 290.829C266.388 291.508 266.406 292.91 274.248 292.144" fill="#E0E1E9"/>
<path d="M285.873 229.785C289.523 227.964 292.694 228.961 292.694 228.961Z" fill="#E0E1E9"/>
<path d="M285.873 229.785C289.523 227.964 292.694 228.961 292.694 228.961" stroke="#E0E1E9" stroke-width="9" stroke-miterlimit="10" stroke-linecap="round"/>
<path d="M293.392 227.28C293.392 227.28 292.259 229.259 292.629 230.696Z" fill="#E0E1E9"/>
<path d="M293.392 227.28C293.392 227.28 292.259 229.259 292.629 230.696" stroke="#E0E1E9" stroke-width="9" stroke-miterlimit="10" stroke-linecap="round"/>
<path d="M275.736 214.652L284.54 192.254C284.586 192.137 284.687 192.047 284.81 192.015L296.218 189.014C296.578 188.919 296.862 189.317 296.652 189.619L294.103 193.272C294.036 193.368 294.015 193.487 294.046 193.599L298.833 210.999C298.895 211.225 298.746 211.454 298.512 211.492L276.176 215.184C275.87 215.235 275.625 214.937 275.736 214.652H275.736Z" fill="#E0E1E9"/>
<path d="M274.655 219.35L274.893 215.263C274.916 214.865 275.149 214.508 275.506 214.32C277.879 213.074 287.314 208.635 298.933 210.074C299.35 210.125 299.706 210.396 299.863 210.781L301.373 214.468C301.647 215.137 301.231 215.886 300.512 216.018L276.027 220.54C275.287 220.677 274.613 220.092 274.656 219.351L274.655 219.35Z" fill="#E0E1E9"/>
<path d="M293.754 214.375L287.268 215.349L287.006 210.128L292.849 209.435L293.754 214.375Z" fill="#E0E1E9" stroke="#E0E1E9" stroke-width="10" stroke-linecap="round" stroke-linejoin="round"/>
<path d="M285.389 213.111L288.522 212.498" stroke="#E0E1E9" stroke-width="10" stroke-linecap="round" stroke-linejoin="round"/>
<path d="M262.809 224.048C262.809 224.048 268.371 220.678 276.53 218.162C286.299 215.149 299.786 212.957 311.803 213.781L315.548 216.043C315.548 216.043 281.978 216.795 265.628 225.176L262.809 224.048Z" fill="#E0E1E9"/>
<path fill-rule="evenodd" clip-rule="evenodd" d="M255.755 235.831C256.547 235.58 257.396 236.009 257.651 236.79L276.68 295.059C276.935 295.84 276.5 296.676 275.707 296.928C274.915 297.179 274.066 296.75 273.811 295.969L254.782 237.701C254.527 236.92 254.962 236.083 255.755 235.831Z" fill="#E0E1E9"/>
<path d="M240.801 220.281L258.642 214.289C258.642 214.289 265.97 241.468 258.408 243.884C250.846 246.3 240.801 220.281 240.801 220.281Z" fill="#E0E1E9"/>
<path d="M256.176 243.842L260.208 242.527L260.952 244.852L256.857 246.152L256.176 243.842Z" fill="#E0E1E9"/>
<path d="M256.856 246.151L256.592 250.183L257.867 249.091L260.159 249.323L261.53 248.183L263.099 248.283L260.951 244.852L256.856 246.151Z" fill="#E0E1E9"/>
<path d="M245.676 218.643L252.795 235.387" stroke="#E0E1E9" stroke-width="5" stroke-miterlimit="10"/>
<path d="M253.145 216.134L256.256 228.507" stroke="#E0E1E9" stroke-width="5" stroke-miterlimit="10"/>
<path d="M271.065 263.642C271.065 263.642 268.742 258.888 264.016 259.372C259.29 259.856 259.956 266.165 259.956 266.165C259.956 266.165 260.547 272.335 266.051 273.626C271.555 274.916 271.065 263.642 271.065 263.642Z" fill="#E0E1E9"/>
<path d="M264.289 262.978C264.289 262.978 269.965 263.212 274.654 258.888C279.341 254.566 277.09 268.888 277.09 268.888L270.334 271.39L264.289 262.978Z" fill="#E0E1E9"/>
<path d="M282.612 223.673C281.17 222.361 281.669 220.254 283.395 219.522C284.456 219.072 285.486 219.692 285.892 220.649C286.345 221.718 285.969 222.919 285.045 223.646C284.471 224.098 283.391 224.246 282.612 223.673V223.673Z" fill="#E0E1E9"/>
<path d="M284.397 221.728C283.965 221.421 283.888 220.958 284.188 220.579C284.439 220.262 284.887 220.219 285.22 220.478C285.586 220.763 285.675 221.363 285.4 221.688C285.192 221.934 284.883 221.949 284.397 221.727V221.728Z" fill="#E0E1E9"/>
<path d="M297.094 220.286C297.468 220.976 297.661 221.669 297.321 222.408C296.954 223.204 296.291 223.617 295.431 223.679C294.531 223.744 293.817 223.381 293.389 222.582C293.095 222.034 293.109 221.442 293.219 220.836C293.329 220.23 293.613 219.757 294.136 219.428C294.656 219.101 295.21 219.028 295.78 219.281C296.29 219.508 296.772 219.779 297.094 220.286Z" fill="#E0E1E9"/>
<path d="M296.527 221.315C296.176 221.647 295.863 221.683 295.533 221.446C295.225 221.224 295.117 220.784 295.282 220.42C295.436 220.081 295.733 219.943 296.112 220.036C296.619 220.159 296.815 220.74 296.527 221.315Z" fill="#E0E1E9"/>
<path d="M281.768 262.315C281.768 262.315 288.769 263.553 296.661 262.315C296.661 262.315 293.376 264.733 289.368 264.733C285.36 264.733 281.768 262.315 281.768 262.315Z" fill="#E0E1E9"/>
<path d="M281.437 231.444C282.598 230.289 283.98 229.614 285.549 229.314C287.638 228.913 289.701 229.011 291.678 229.838C294.207 230.896 295.589 232.825 295.923 235.497C296.155 237.358 295.759 239.068 294.623 240.594C294.178 241.191 293.675 241.736 293.119 242.232C292.527 242.76 291.926 243.277 291.33 243.8C290.964 244.12 290.621 244.461 290.324 244.846C289.892 245.403 289.665 246.017 289.743 246.73C289.781 247.083 289.766 247.092 289.378 247.092C287.996 247.095 286.612 247.095 285.23 247.092C284.8 247.092 284.798 247.087 284.771 246.677C284.659 244.961 285.193 243.455 286.295 242.133C286.98 241.31 287.794 240.619 288.609 239.927C289.054 239.551 289.487 239.161 289.886 238.736C290.541 238.038 290.942 237.247 290.855 236.258C290.75 235.084 290.027 234.154 288.888 233.817C288.206 233.615 287.509 233.598 286.815 233.766C285.433 234.099 284.558 235.159 284.496 236.564C284.466 237.224 284.57 237.874 284.677 238.512C284.59 238.642 284.467 238.604 284.362 238.604C282.914 238.607 281.466 238.602 280.017 238.608C279.783 238.61 279.634 238.59 279.582 238.303C279.115 235.743 279.56 233.424 281.437 231.444Z" fill="white"/>
<path d="M289.183 248.999C290.589 249.836 290.943 251.497 290.498 252.813C290.062 254.107 288.804 254.901 287.346 254.825C286.787 254.795 286.254 254.682 285.764 254.404C284.635 253.767 284.057 252.402 284.341 251.039C284.821 248.722 287.161 248.155 288.758 248.793C288.893 248.848 289.02 248.919 289.183 248.999Z" fill="white"/>
<path d="M270.404 314.184V322.018H264.799V314.184H270.404ZM265.838 315.045V321.143H269.338V315.045H265.838ZM273.699 312.953V317.807H275.736V318.736H273.699V325.107H272.633V312.953H273.699ZM286.482 312.953V325.135H285.402V319.447H281.711V318.559H285.402V316.686H281.711V315.811H285.402V312.953H286.482ZM278.143 314.307V321.375C280.118 321.368 281.629 321.3 283.338 320.951L283.447 321.84C281.643 322.195 280.098 322.305 277.992 322.305H277.062V314.307H278.143ZM299.566 318.859V319.762H294.549V325.121H293.482V319.762H288.492V318.859H291.691C292.184 316.993 292.272 315.585 292.307 314.689H289.381V313.814H293.346V314.184C293.346 314.956 293.346 316.556 292.785 318.859H296.777C297.201 316.966 297.249 315.592 297.256 314.689H294.248V313.814H298.322V314.348C298.322 315.182 298.322 316.686 297.871 318.859H299.566ZM310.627 312.953V325.135H309.561V312.953H310.627ZM306.936 314.088V318.408H302.396V321.279C304.413 321.279 306.211 321.19 308.385 320.842L308.494 321.744C306.252 322.1 304.406 322.182 302.314 322.182H301.303V317.533H305.855V314.977H301.275V314.088H306.936Z" fill="white"/>
</svg>
