<svg width="209" height="244" viewBox="0 0 209 244" fill="none" xmlns="http://www.w3.org/2000/svg">
<ellipse cx="123.5" cy="229.5" rx="70.5" ry="14.5" fill="black" fill-opacity="0.3"/>
<path d="M133.298 215.971C121.674 214.943 113.468 215.971 110.818 216.614L101.315 190.455L103.508 173.016L116.301 160.533L134.394 164.112L144.538 181.735C145.634 193.575 144.921 216.999 133.298 215.971Z" fill="#DBFF9E"/>
<path d="M178.937 74.0087C178.951 73.9665 178.97 73.9224 178.973 73.8985C179.034 73.8031 179.05 73.7168 179.085 73.5901C179.103 73.5497 179.121 73.5608 179.112 73.5553C179.24 73.4653 179.176 73.3185 179.237 73.1624C179.264 73.122 179.264 73.1257 179.262 73.1257C179.328 73.067 179.337 72.9825 179.374 72.8632C179.392 72.8246 179.408 72.8357 179.399 72.8301C179.48 72.7751 179.48 72.6833 179.511 72.5585C180.276 70.8311 181.207 69.2615 182.459 67.8921C183.928 66.284 185.768 65.3937 187.887 65.1587C193.773 64.5052 198.713 66.429 202.513 70.9944C205.863 75.0201 207.705 79.7563 208.568 84.9091C209.527 90.6365 208.8 96.2189 207.274 101.754C205.15 109.456 202.144 116.762 198.07 123.65C194.616 129.491 190.166 134.462 185.319 139.118C182.64 141.691 179.794 144.07 176.855 146.343C173.372 149.036 169.7 151.408 165.711 153.262C165.131 153.532 165.033 153.728 165.42 154.297C169.832 160.794 172.643 167.922 173.673 175.735C173.745 176.278 174.044 176.506 174.472 176.733C184.37 182.009 188.645 194.501 184.021 204.748C182.146 208.904 179.12 211.926 174.876 213.657C174.743 213.712 174.609 213.767 174.478 213.827C174.436 213.848 174.404 213.886 174.359 213.926C174.428 214.248 174.741 214.251 174.956 214.363C175.963 214.887 176.958 215.424 177.76 216.252C179.096 217.631 178.948 219.267 177.378 220.399C176.376 221.122 175.216 221.44 174.026 221.655C171.813 222.053 169.576 221.993 167.339 222.044C161.688 222.171 156.383 220.555 151.033 219.032C146.015 217.602 140.908 216.552 135.674 216.267C134.546 216.206 133.424 216.087 132.297 216.017C131.909 215.994 131.827 215.878 132.03 215.54C133.536 213.04 134.486 210.306 135.212 207.502C137.536 198.494 137.586 189.449 135.599 180.37C134.857 176.985 133.943 173.666 132.308 170.591C131.092 168.304 129.57 166.268 127.364 164.843C125.679 163.755 123.765 163.544 121.83 163.566C120.342 163.582 118.858 163.744 117.415 164.157C115.441 164.72 114.072 166.117 112.849 167.645C110.402 170.701 109.116 174.312 108.16 178.057C106.634 184.043 105.943 190.121 106.29 196.298C106.656 202.819 107.898 209.133 110.841 215.026C111.349 216.043 111.17 216.821 110.28 217.572C110.053 217.763 109.879 217.982 109.726 218.229C108.872 219.619 107.809 220.814 106.566 221.873C103.359 224.607 99.9976 227.076 96.008 228.566C92.8225 229.756 89.5657 230.345 86.1792 229.789C84.8707 229.574 83.7266 228.957 82.7762 227.929C82.6721 227.841 82.6575 227.757 82.5898 227.667C82.5496 227.656 82.546 227.636 82.5368 227.632C82.546 227.575 82.5295 227.536 82.4528 227.494C82.4217 227.48 82.429 227.47 82.4235 227.47C82.3778 227.399 82.3705 227.316 82.3011 227.228C82.2627 227.217 82.2609 227.199 82.2536 227.193C82.2371 227.156 82.228 227.125 82.1823 227.059C82.1475 227.026 82.1475 227.024 82.1475 227.026C82.0123 226.832 81.9684 226.604 81.8844 226.341C81.8496 226.307 81.8588 226.301 81.8533 226.303C81.5006 225.282 81.6139 224.252 81.8259 223.164C81.8551 223.105 81.8588 223.109 81.857 223.107C81.9684 223.01 81.9173 222.87 81.9721 222.709C81.9959 222.668 82.0032 222.672 81.9995 222.67C82.0671 222.613 82.0763 222.529 82.1037 222.409C82.1147 222.369 82.1256 222.363 82.1238 222.358C82.3632 221.93 82.111 221.824 81.7747 221.881C80.6288 222.077 79.4738 221.985 78.3242 222.031C75.6103 222.139 72.9018 222.154 70.1969 221.842C69.0931 221.715 68.0239 221.479 66.9968 221.066C65.818 220.592 64.7927 219.898 64.5661 218.534C64.334 217.137 65.2844 216.306 66.231 215.538C66.8305 215.052 67.5305 214.716 68.2195 214.369C68.4022 214.277 68.6691 214.193 68.6471 213.943C68.6288 213.73 68.3693 213.719 68.1957 213.644C63.0711 211.432 59.8144 207.535 58.2225 202.237C56.7659 197.389 56.9926 192.553 58.8695 187.848C59.8655 185.348 61.2728 183.074 63.179 181.071C63.2119 181.023 63.2247 181.025 63.2247 181.02C63.5463 180.616 63.8479 180.193 64.3413 179.902C64.3669 179.861 64.3815 179.861 64.3815 179.854C64.4126 179.834 64.4418 179.823 64.493 179.766C64.5149 179.722 64.5277 179.722 64.5277 179.716C64.557 179.694 64.5862 179.679 64.6429 179.624C64.6685 179.582 64.6794 179.588 64.6776 179.582C64.9554 179.377 65.1455 179.065 65.5018 178.89C65.5293 178.852 65.5402 178.857 65.5384 178.85C65.7687 178.692 65.9313 178.448 66.2329 178.314C66.2639 178.281 66.2749 178.29 66.2713 178.284C66.3754 178.178 66.5107 178.125 66.6605 178.018C66.6843 177.981 66.6953 177.987 66.6934 177.981C66.8104 177.892 66.9438 177.833 67.0918 177.728C67.1138 177.691 67.1247 177.695 67.1247 177.69C67.2435 177.601 67.3769 177.543 67.5305 177.44C67.5579 177.405 67.567 177.416 67.5652 177.409C67.7626 177.245 67.9928 177.144 68.2524 177.009C68.2834 176.974 68.2907 176.983 68.2907 176.975C68.3602 176.926 68.4424 176.917 68.5393 176.854C68.5612 176.819 68.5704 176.827 68.5704 176.821C68.7513 176.691 68.9414 176.583 69.1991 176.484C69.5792 176.212 69.5536 175.828 69.6011 175.479C70.1183 171.747 71.0614 168.126 72.4174 164.551C72.4266 164.495 72.4412 164.478 72.4412 164.469C72.6569 164.32 72.5892 164.052 72.7099 163.819C72.7153 163.769 72.7281 163.755 72.73 163.744C73.0589 163.243 73.1613 162.651 73.4427 162.082C73.4573 162.033 73.4683 162.025 73.4665 162.02C73.6547 161.913 73.6291 161.697 73.7223 161.493C73.7278 161.447 73.7406 161.433 73.7425 161.422C74.0531 160.718 74.3967 160.041 74.722 159.356C75.0272 158.714 74.9286 158.527 74.2249 158.327C70.4656 157.258 66.8543 155.813 63.3946 153.989C58.069 151.178 53.4032 147.556 49.7553 142.705C47.0157 139.061 45.0109 135.05 43.9088 130.605C43.0663 127.211 42.6971 123.758 42.8762 120.267C43.1632 114.66 44.5229 109.309 46.7233 104.149C48.4285 100.151 50.6088 96.4392 53.0669 92.8137C53.1071 92.7366 53.1236 92.7054 53.1674 92.632C53.2698 92.4814 53.3703 92.3933 53.4598 92.2373C53.6536 91.8555 53.8308 91.5177 54.1306 91.2074C54.2658 91.1101 54.3773 91.0551 54.4632 90.9046C54.5052 90.8403 54.5235 90.8164 54.571 90.7595C54.719 90.6329 54.825 90.5301 54.8963 90.3428C54.9329 90.2767 54.9493 90.251 54.9968 90.1905C55.1412 90.0601 55.26 89.9647 55.3441 89.7829C55.4318 89.5994 55.4885 89.4507 55.6402 89.3038C55.8558 89.1863 55.9965 89.0505 56.1829 88.8908C56.2634 88.8614 56.2999 88.8559 56.3876 88.8596C57.0309 89.1771 57.4166 89.7187 57.8771 90.1721C59.893 92.1528 62.2341 93.5829 64.9444 94.3594C66.8561 94.9082 68.7933 94.8201 70.7233 94.4126C73.4391 93.838 75.8862 92.5971 78.3114 91.3084C81.9977 89.3497 85.2618 86.8183 88.1768 83.8371C90.083 81.8857 91.5761 79.6425 92.4479 77.0266C93.4914 73.8949 93.1094 70.8347 91.9233 67.8278C91.1886 65.9628 90.4576 64.0977 89.288 62.4455C87.6121 60.0793 85.3678 58.563 82.5624 57.9132C80.0805 57.3368 77.6096 57.4891 75.1515 58.1353C72.5911 58.809 70.0379 59.49 67.6547 60.6814C66.7007 61.1587 65.829 61.7498 65.0669 62.5006C64.8622 62.7025 64.6611 62.9192 64.292 62.9449C63.8753 62.7356 64.0325 62.4327 64.1165 62.1739C65.2716 58.5814 66.9164 55.2569 69.3051 52.3087C71.0669 50.1353 73.2198 48.4941 75.804 47.5432C79.5231 46.1738 83.0248 46.675 86.1609 49.2376C87.623 50.4327 88.6812 51.9361 89.6023 53.5589C89.9075 54.0967 90.2584 54.6089 90.6239 55.2569C90.8378 54.6089 90.7756 54.0894 90.7171 53.5754C90.5819 52.4005 90.4046 51.2257 90.4832 50.0416C90.6641 47.3376 91.4774 44.8576 93.3891 42.8879C94.9809 41.2468 96.9255 40.2445 99.2063 39.7874C102.019 39.2238 104.74 39.4643 107.447 40.2757C107.761 40.3693 108.127 40.4078 108.209 40.8778C107.986 41.199 107.664 41.2449 107.376 41.3587C105.619 42.0508 104.143 43.1173 102.904 44.5584C100.042 47.8884 98.764 51.8535 98.1956 56.1215C97.6967 59.8755 98.4917 63.3193 100.604 66.4547C101.964 68.4722 103.784 70.0068 105.786 71.3212C108.105 72.8448 110.57 74.095 113.209 74.9798C114.315 75.3506 115.459 75.4736 116.61 75.5488C116.928 75.569 117.378 75.6535 117.468 75.2276C117.561 74.7778 117.097 74.7264 116.797 74.6255C115.477 74.1776 114.136 73.7976 112.895 73.1349C110.981 72.1142 109.342 70.7631 107.922 69.1257C106.72 67.7397 105.579 66.3226 104.715 64.6833C103.114 61.6488 102.796 58.5006 103.7 55.2055C104.128 53.6433 104.548 52.0793 105.274 50.6236C106.522 48.1178 108.331 46.2693 111.113 45.5056C112.785 45.0467 114.452 44.6116 116.249 44.5767C117.72 45.6047 119.123 46.6401 120.405 47.8296C120.593 48.004 120.845 48.1472 120.706 48.5143C120.395 48.6961 120.107 48.6649 119.82 48.6281C117.526 48.3363 115.313 48.6392 113.209 49.6084C109.636 51.2569 106.69 55.6277 107.028 59.6993C107.204 61.8012 108.023 63.6516 109.26 65.3478C110.808 67.4699 112.741 69.1385 114.993 70.4474C117.482 71.8958 120.152 72.4759 123.027 72.1197C125.891 71.7636 128.768 71.4497 131.491 70.4382C135.581 68.9164 138.406 66.1702 139.49 61.7498C139.772 61.4487 140.058 61.5828 140.333 61.6433C142.471 62.1298 144.534 62.8714 146.578 63.6461C149.571 64.7787 152.462 66.1482 155.242 67.7471C157.982 69.3239 160.553 71.1376 162.934 73.2212C164.932 74.9688 166.807 76.8393 168.465 78.9192C169.443 80.1455 170.261 81.4819 171.087 82.8146C172.897 85.7352 174.039 88.9275 174.951 92.2189C174.989 92.3566 175.009 92.5035 175.156 92.6595C175.344 92.3272 175.463 91.9803 175.633 91.6021C175.658 91.5562 175.664 91.5581 175.662 91.5581C176.386 88.9826 176.705 86.3373 177.054 83.692C177.374 81.2652 177.701 78.8366 178.233 76.3822C178.262 76.3272 178.262 76.329 178.262 76.3308C178.4 76.1858 178.308 75.9986 178.378 75.7911C178.405 75.7471 178.407 75.7489 178.405 75.7508C178.518 75.4515 178.553 75.1321 178.668 74.7797C178.697 74.7338 178.696 74.7375 178.696 74.7375C178.805 74.6383 178.756 74.4988 178.814 74.3373C178.842 74.2969 178.84 74.3006 178.84 74.3006C178.9 74.2235 178.906 74.1335 178.937 74.0087Z" fill="#00CF4B"/>
<path d="M64.093 62.9873C64.8733 62.611 65.3339 61.9244 65.9845 61.4691C67.8907 60.1346 70.0509 59.4187 72.2385 58.7505C74.2617 58.1318 76.2921 57.5297 78.4158 57.4104C82.5791 57.1754 86.2087 58.3594 88.9482 61.6674C90.0941 63.0515 90.8325 64.6927 91.5105 66.3466C92.2507 68.153 92.9251 69.9722 93.1407 71.9492C93.4551 74.8092 92.7313 77.4068 91.3661 79.8575C89.6299 82.9708 87.0621 85.3334 84.3244 87.5252C80.799 90.3467 76.9044 92.5128 72.668 94.0493C67.6842 95.8575 63.2322 94.7249 59.153 91.5454C58.1405 90.7561 57.2961 89.796 56.3257 88.8983C54.2422 86.4605 52.4128 83.9125 51.6562 80.7698C50.8849 77.5757 51.1152 74.4439 52.3763 71.3912C52.7527 70.477 53.1694 69.5867 53.6738 68.6725C53.7086 68.6266 53.7451 68.5807 53.7506 68.5513C53.99 68.0887 54.2367 67.661 54.5493 67.2168C54.6333 67.1176 54.6827 67.057 54.7466 66.9579C55.0043 66.5412 55.2236 66.1429 55.5563 65.7647C55.5873 65.728 55.6275 65.6876 55.6349 65.6601C55.8615 65.2782 56.0972 64.9368 56.4207 64.6009C56.5048 64.5072 56.5614 64.4503 56.6291 64.3567C56.6748 64.2044 56.7661 64.1364 56.8667 64.0208C56.9507 63.9363 57.0074 63.8813 57.0768 63.7913C57.2486 63.3893 57.6032 63.1965 57.87 62.8643C58.1405 62.5797 58.3781 62.3319 58.6412 62.0437C58.6924 61.8803 58.7929 61.8143 58.9172 61.7188C59.2133 61.4728 59.4691 61.2434 59.7542 60.9772C59.9169 60.8193 60.0375 60.6871 60.2203 60.5623C60.3299 60.5091 60.3957 60.4687 60.4871 60.3989C60.6571 60.2025 60.8691 60.1309 61.0811 59.9822C61.1231 59.9639 61.1798 59.951 61.2035 59.9345C61.3899 59.7766 61.591 59.6903 61.8085 59.5508C61.8523 59.5361 61.9072 59.5251 61.9291 59.5068C62.3531 59.2039 62.7643 58.9505 63.3327 59.1855C63.3784 59.2241 63.4058 59.2883 63.4332 59.3085C63.4898 59.4003 63.5063 59.4756 63.5026 59.6096C63.3363 59.962 63.1463 60.2337 62.8484 60.4815C62.7442 60.588 62.6693 60.6559 62.5541 60.755C62.5139 60.7863 62.5267 60.8009 62.5194 60.7936C62.4079 60.9294 62.2763 61.0469 62.1118 61.1901C62.0753 61.214 62.0936 61.2342 62.0844 61.225C61.9766 61.3682 61.8414 61.4838 61.6696 61.6233C61.5855 61.6582 61.5489 61.6839 61.5051 61.7518C61.41 61.9501 61.2657 62.0566 61.092 62.1943C61.0518 62.2126 61.0683 62.2346 61.0573 62.2273C60.9769 62.3907 60.8289 62.4935 60.6717 62.644C60.6351 62.6697 60.6516 62.6862 60.6443 62.6789C60.5767 62.7541 60.509 62.8294 60.4122 62.9451C60.3245 63.0405 60.2696 63.0974 60.2002 63.191C60.1545 63.3416 60.0631 63.4113 59.9644 63.5288C59.937 63.56 59.9297 63.5582 59.9315 63.5619C59.7579 63.8262 59.5989 64.0979 59.3906 64.3934C59.3595 64.4283 59.3193 64.465 59.312 64.4907C59.0689 65.1204 58.6102 65.6087 58.3799 66.2732C58.347 66.3117 58.3141 66.3595 58.3104 66.387C58.2008 66.6458 58.1423 66.8992 57.9742 67.1562C57.9285 67.248 57.9084 67.2994 57.8828 67.393C57.3272 69.0341 56.7935 70.6385 56.609 72.3329C56.587 72.5293 56.4792 72.6927 56.4353 72.9368C56.4079 73.0396 56.3951 73.0874 56.3897 73.17C56.0333 76.6908 56.5907 79.9364 58.824 82.756C59.2242 83.2627 59.5952 83.7951 60.1947 84.1879C61.3589 85.6675 62.7149 86.8295 64.2538 87.8171C66.1453 89.0305 68.1868 89.3572 70.336 88.9754C75.0676 88.1347 79.4137 86.3467 83.3485 83.5436C85.2035 82.2218 86.9616 80.8157 88.3634 79.002C90.6004 76.1071 91.2656 72.9607 89.8638 69.4839C88.9866 67.3085 88.1185 65.124 86.6875 63.2424C84.9494 60.957 82.5864 60.0153 79.7774 60.32C75.8188 60.7495 72.4414 62.5853 69.4131 65.0469C67.9766 66.2145 67.114 67.8868 66.6187 69.7023C66.191 71.27 65.8127 72.8414 66.1819 74.488C66.3171 75.0901 66.531 75.6537 66.9239 76.1218C68.1392 77.5702 69.605 78.6918 71.5349 78.8239C73.7426 78.9745 76.135 77.9373 77.0963 75.4976C77.3138 74.9451 77.3503 74.387 77.1968 73.7941C76.9574 72.8634 76.5919 71.9602 76.6229 70.9653C76.665 69.6638 77.661 68.856 78.9549 69.1259C80.587 69.4673 81.7877 70.9983 81.9047 72.8909C82.2885 79.1066 77.9845 84.1585 71.6409 84.9112C67.4923 85.4031 64.1405 83.7712 61.4411 80.656C61.2675 80.4559 61.0957 80.254 60.8892 80.0043C60.0211 77.996 59.3302 75.997 59.5093 73.8143C59.6885 71.6371 60.2806 69.5701 61.1871 67.5876C61.8012 66.2475 62.6108 65.0267 63.3784 63.7785C63.5483 63.4829 63.7859 63.2388 64.093 62.9873Z" fill="#4B4B4B"/>
<path d="M72.3813 164.509C72.5129 164.772 72.3429 165.003 72.2534 165.243C71.0234 168.57 70.1535 171.984 69.671 175.501C69.6217 175.863 69.6838 176.298 69.2086 176.527C69.1392 176.515 69.1209 176.491 69.1319 176.434C69.4389 176.157 69.406 175.815 69.448 175.439C69.4955 175.345 69.5303 175.303 69.5613 175.215C69.501 174.69 69.6673 174.233 69.7295 173.702C69.7825 173.607 69.8172 173.565 69.8501 173.475C69.8464 172.595 70.1334 171.81 70.3015 170.945C70.3563 170.853 70.3947 170.811 70.4276 170.719C70.5683 169.504 70.9576 168.395 71.3231 167.285C71.6302 166.358 71.8568 165.396 72.3813 164.509Z" fill="#00CF2F"/>
<path d="M81.815 223.14C81.7218 224.129 81.5756 225.154 81.857 226.24C81.3361 225.273 81.5116 224.225 81.815 223.14Z" fill="#00CF2F"/>
<path d="M64.3174 179.858C64.1072 180.32 63.6777 180.625 63.272 181.003C63.3506 180.425 63.7874 180.122 64.3174 179.858Z" fill="#00CF2F"/>
<path d="M73.4093 162.044C73.4056 162.644 73.0675 163.154 72.7751 163.712C72.766 163.105 73.062 162.583 73.4093 162.044Z" fill="#00CF2F"/>
<path d="M65.4799 178.846C65.3574 179.175 65.0522 179.356 64.7251 179.571C64.7854 179.182 65.0705 178.973 65.4799 178.846Z" fill="#00CF2F"/>
<path d="M66.2146 178.271C66.1287 178.547 65.8692 178.679 65.5859 178.838C65.6134 178.501 65.8601 178.354 66.2146 178.271Z" fill="#00CF2F"/>
<path d="M178.648 74.7502C178.716 75.055 178.558 75.3487 178.432 75.6975C178.352 75.3927 178.447 75.0807 178.648 74.7502Z" fill="#00CF2F"/>
<path d="M68.2319 176.963C68.1423 177.21 67.8791 177.273 67.6123 177.398C67.6452 177.076 67.9321 177.043 68.2319 176.963Z" fill="#00CF2F"/>
<path d="M69.1148 176.408C69.1623 176.399 69.1605 176.469 69.1605 176.504C68.996 176.632 68.8315 176.726 68.6177 176.814C68.625 176.539 68.8772 176.517 69.1148 176.408Z" fill="#00CF2F"/>
<path d="M72.6693 163.784C72.7936 164.023 72.6473 164.217 72.4865 164.437C72.3988 164.206 72.4682 163.993 72.6693 163.784Z" fill="#00CF2F"/>
<path d="M81.8423 226.358C81.9519 226.512 82.0525 226.718 82.1511 226.975C81.888 226.9 81.8642 226.654 81.8423 226.358Z" fill="#00CF2F"/>
<path d="M73.6802 161.46C73.7953 161.662 73.6857 161.824 73.5102 161.994C73.4097 161.796 73.5047 161.631 73.6802 161.46Z" fill="#00CF2F"/>
<path d="M67.5099 177.396C67.5008 177.563 67.3545 177.618 67.1718 177.68C67.1462 177.477 67.2961 177.425 67.5099 177.396Z" fill="#00CF2F"/>
<path d="M67.0675 177.68C67.0639 177.849 66.9195 177.906 66.7386 177.972C66.7093 177.769 66.8555 177.713 67.0675 177.68Z" fill="#00CF2F"/>
<path d="M66.6349 177.972C66.6386 178.143 66.4942 178.204 66.3133 178.275C66.2749 178.068 66.4211 178.007 66.6349 177.972Z" fill="#00CF2F"/>
<path d="M178.358 75.7673C178.373 75.9013 178.349 76.0721 178.288 76.2795C178.209 76.1381 178.235 75.9656 178.358 75.7673Z" fill="#00CF2F"/>
<path d="M178.795 74.3132C178.81 74.4087 178.786 74.5335 178.725 74.6914C178.71 74.5959 178.732 74.4693 178.795 74.3132Z" fill="#00CF2F"/>
<path d="M81.9579 222.696C81.9744 222.791 81.9505 222.914 81.8918 223.072C81.8771 222.978 81.8973 222.852 81.9579 222.696Z" fill="#00CF2F"/>
<path d="M179.226 73.1497C179.235 73.2414 179.205 73.3626 179.139 73.5168C179.132 73.425 179.158 73.302 179.226 73.1497Z" fill="#00CF2F"/>
<path d="M82.5532 227.696C82.612 227.705 82.6725 227.758 82.7368 227.854C82.6799 227.843 82.6175 227.792 82.5532 227.696Z" fill="#00CF2F"/>
<path d="M82.2607 227.256C82.3158 227.27 82.369 227.329 82.4223 227.426C82.3672 227.412 82.3121 227.355 82.2607 227.256Z" fill="#00CF2F"/>
<path d="M82.0798 222.391C82.1 222.45 82.0835 222.53 82.0321 222.639C82.0119 222.582 82.0266 222.499 82.0798 222.391Z" fill="#00CF2F"/>
<path d="M179.487 72.5403C179.503 72.599 179.483 72.6835 179.428 72.7954C179.412 72.7367 179.43 72.6504 179.487 72.5403Z" fill="#00CF2F"/>
<path d="M179.354 72.8469C179.372 72.9075 179.354 72.9901 179.299 73.1002C179.281 73.0415 179.299 72.9571 179.354 72.8469Z" fill="#00CF2F"/>
<path d="M179.065 73.5754C179.085 73.636 179.067 73.7241 179.014 73.8435C178.993 73.7829 179.01 73.6929 179.065 73.5754Z" fill="#00CF2F"/>
<path d="M178.916 73.9939C178.936 74.0526 178.921 74.1408 178.868 74.2582C178.846 74.1995 178.862 74.1114 178.916 73.9939Z" fill="#00CF2F"/>
<path d="M68.5178 176.81C68.4995 176.869 68.437 176.922 68.3306 176.97C68.3508 176.911 68.4132 176.858 68.5178 176.81Z" fill="#00CF2F"/>
<path d="M64.481 179.723C64.4975 179.762 64.4773 179.804 64.4204 179.846C64.3745 179.791 64.3947 179.751 64.481 179.723Z" fill="#00CF2F"/>
<path d="M64.6339 179.582C64.6486 179.623 64.6284 179.665 64.5678 179.707C64.5513 179.667 64.5733 179.626 64.6339 179.582Z" fill="#00CF2F"/>
<path d="M69.5353 175.204C69.55 175.228 69.5371 175.281 69.4912 175.358C69.4729 175.332 69.4894 175.283 69.5353 175.204Z" fill="#00CF2F"/>
<path d="M82.1455 227.059C82.1841 227.052 82.2189 227.083 82.252 227.149C82.2134 227.154 82.1767 227.125 82.1455 227.059Z" fill="#00CF2F"/>
<path d="M69.8226 173.464C69.8373 173.487 69.8226 173.543 69.773 173.62C69.7565 173.594 69.7749 173.543 69.8226 173.464Z" fill="#00CF2F"/>
<path d="M82.4238 227.511C82.4771 227.479 82.5119 227.505 82.5321 227.588C82.4771 227.621 82.4422 227.595 82.4238 227.511Z" fill="#00CF2F"/>
<path d="M70.4004 170.707C70.4133 170.732 70.3986 170.786 70.3472 170.865C70.3325 170.839 70.3509 170.788 70.4004 170.707Z" fill="#00CF2F"/>
<path d="M108.182 40.8519C115.783 39.3741 123.124 40.1304 130.257 42.9391C133.032 44.0313 135.44 45.6706 137.23 48.1195C138.725 50.1663 139.393 52.5031 139.629 55.0052C139.834 57.1768 139.805 59.3448 139.669 61.5789C138.485 66.8327 134.971 69.6689 130.113 71.0511C127.456 71.8075 124.714 72.2113 121.953 72.36C118.217 72.5619 115.072 71.0823 112.257 68.7583C110.285 67.1301 108.655 65.2209 107.634 62.8382C106.277 59.6752 106.643 56.6427 108.434 53.7808C111.093 49.5293 115.004 47.9212 119.886 48.4627C120.147 48.4921 120.412 48.4829 120.743 48.4572C121.593 48.4884 122.265 48.8886 122.932 49.2337C125.752 50.6931 127.752 52.9015 128.784 56.0075C128.857 57.0171 128.792 57.946 128.304 58.8033C128.084 59.1869 127.828 59.5431 127.461 59.7799C126.341 60.5031 125.052 60.4609 124.451 58.9593C124.206 58.348 124.087 57.7074 123.978 57.0649C123.634 55.0566 122.337 53.8303 120.308 53.6101C117.821 53.3402 115.743 54.5187 114.505 56.7051C113.286 58.8584 113.484 60.8556 114.847 62.8161C116.234 64.8097 117.895 66.4839 120.218 67.3632C121.611 67.89 123.08 68.0222 124.537 68.1067C126.672 68.2297 128.808 68.2076 130.902 67.6037C133.58 66.8327 135.61 65.3513 136.573 62.6216C136.776 62.047 136.886 61.4559 136.966 60.7969C137.405 58.2819 137.22 55.8294 136.829 53.3971C136.345 50.3902 134.459 48.4077 131.891 47.0033C129.662 45.7844 127.213 45.2814 124.734 44.9088C122.258 44.5361 119.772 44.4242 117.28 44.7307C116.993 44.7656 116.704 44.7638 116.358 44.7105C114.679 44.7142 113.131 45.1309 111.572 45.5127C108.266 46.3241 106.245 48.5325 105.026 51.5908C104.103 53.9093 103.394 56.2957 103.362 58.8143C103.328 61.6743 104.386 64.1856 106.02 66.4729C107.526 68.5821 109.233 70.4913 111.362 72.002C112.979 73.1494 114.794 73.8139 116.66 74.3885C117.111 74.5261 117.835 74.5427 117.749 75.2072C117.654 75.9598 116.94 75.7047 116.444 75.6918C114.16 75.6349 112.084 74.8309 110.05 73.8726C107.12 72.4922 104.335 70.8694 102.081 68.5032C98.8191 65.0777 97.4228 60.9823 98.0039 56.2443C98.3987 53.03 99.2047 49.9423 100.857 47.1282C102.569 44.2204 104.801 41.9074 108.182 40.8519Z" fill="#4B4B4B"/>
<path d="M54.6335 90.7945C54.597 90.5559 54.7615 90.4164 54.9771 90.2659C55.0045 90.4898 54.9058 90.6789 54.6335 90.7945Z" fill="#00CF2F"/>
<path d="M55.7882 89.3259C55.7534 89.1552 55.8338 89.0322 56.0203 88.9441C56.1518 89.1589 55.9947 89.2451 55.7882 89.3259Z" fill="#00CF2F"/>
<path d="M54.3442 91.1983C54.3093 91.0533 54.3809 90.9468 54.5296 90.844C54.5608 90.9762 54.5442 91.1212 54.3442 91.1983Z" fill="#00CF2F"/>
<path d="M53.3262 92.5271C53.3335 92.4482 53.3812 92.3674 53.4639 92.2756C53.5299 92.3876 53.4804 92.4739 53.3262 92.5271Z" fill="#00CF2F"/>
<path d="M60.1616 84.3492C60.5253 83.6168 60.4979 82.855 60.5783 82.1207C60.6569 81.4047 60.6843 80.6833 60.8908 79.9252C61.2655 79.9655 61.3751 80.296 61.5707 80.5273C65.659 85.3974 72.242 86.3079 77.5164 82.3244C80.5594 80.0261 81.888 76.8173 81.7089 73.0211C81.634 71.4497 80.9998 70.1151 79.4281 69.4451C78.92 69.2285 78.4047 69.2101 77.8783 69.3588C77.1674 69.5607 76.8073 70.0399 76.7872 70.7815C76.7653 71.5672 76.9535 72.3088 77.1857 73.0523C77.7961 75.0073 77.1692 76.7384 75.4695 77.8967C72.9091 79.6425 70.0964 79.3341 67.6127 77.1734C66.03 75.7966 65.6535 74.0619 65.8948 72.1344C66.2055 69.6489 67.0114 67.3487 68.7184 65.4377C69.6505 64.3951 70.7946 63.6442 71.988 62.9705C74.2962 61.6672 76.6465 60.4905 79.3404 60.1601C82.8914 59.7232 85.5944 61.0063 87.4659 64.0408C88.6977 66.038 89.6443 68.1785 90.3626 70.4143C91.3294 73.4212 90.5947 76.1326 88.8658 78.642C87.2904 80.9293 85.1156 82.5594 82.8622 84.1032C79.2782 86.5594 75.327 88.1051 71.1071 89.0486C67.843 89.7793 65.034 88.9385 62.5156 86.8403C61.6475 86.1133 60.8342 85.3295 60.1616 84.3492Z" fill="#00CF2F"/>
<path d="M128.634 56.0024C129.639 56.7074 130.471 57.6399 131.255 58.5871C132.046 59.5435 132.986 60.0392 134.172 60.2154C135.117 60.3568 136.049 60.5734 137.036 60.7863C137.127 62.4238 136.411 63.7436 135.502 64.9791C134.309 66.6055 132.582 67.4095 130.71 67.8299C126.969 68.6707 123.177 68.7772 119.602 67.2719C116.579 65.9979 114.518 63.6078 113.551 60.3953C113.136 59.0148 113.739 57.7904 114.346 56.6009C116.017 53.3223 120.028 52.3549 122.918 54.5082C123.691 55.0846 124.027 55.8703 124.144 56.7881C124.233 57.4839 124.347 58.1723 124.608 58.8276C125.147 60.1805 126.397 60.4779 127.49 59.5087C128.219 58.8643 128.547 58.0327 128.598 57.0782C128.618 56.7459 128.605 56.4081 128.634 56.0024Z" fill="#01CF2F"/>
<path d="M107.05 89.6146C111.586 88.3335 115.715 87.7655 119.927 87.9531C120.438 87.9765 120.948 88.0963 121.46 88.1063C122.137 88.1185 122.452 88.4545 122.579 89.0579C122.722 89.7396 122.753 90.4264 122.73 91.1152C122.604 95.022 121.536 98.7151 119.675 102.205C117.912 105.507 114.96 107.565 111.561 108.983C106.774 110.982 102.083 110.539 97.5999 108.24C95.693 107.264 94.0662 105.921 92.6414 104.355C91.6944 103.316 90.7778 102.256 90.0297 101.065C89.5252 100.261 89.5033 100.149 90.1834 99.421C92.7214 96.6862 95.7679 94.6054 99.0676 92.8476C101.758 91.4175 104.561 90.2622 107.051 89.6187L107.05 89.6146Z" fill="#FF5D5D"/>
<path d="M106.957 99.0065C109.469 98.3137 111.926 98.0768 114.376 98.3448C116.237 98.5494 117.449 99.276 118.376 100.366C119.532 101.721 119.705 103.322 119.66 105C119.579 108.116 118.88 111.226 117.216 114.325C116.657 115.362 115.914 116.36 115.072 117.323C113.518 119.104 111.308 119.847 108.881 119.394C107.086 119.059 105.718 118.279 104.582 117.3C101.859 114.946 99.9389 112.19 98.7688 109.087C98.355 107.993 98.2333 106.834 98.3378 105.627C98.4996 103.779 99.7008 102.306 101.848 101.112C103.45 100.221 105.135 99.5032 106.95 99.0146L106.957 99.0065Z" fill="#FFA7AE"/>
<path d="M199.239 12.4846C193.973 9.82561 188.675 7.25367 182.983 6.39639C177.129 5.51467 173.751 8.37997 171.159 11.7212C169.596 13.7355 168.309 15.8912 169.265 18.7856C170.468 22.4295 173.246 25.4247 176.838 28.1214C182.015 32.0091 188.416 34.5922 193.896 33.0009C198.262 31.7331 199.315 27.3493 195.264 23.6097C192.287 20.8618 188.135 18.8958 184.181 18.2374C178.425 17.2792 171.516 17.7758 167.091 19.7843C164.503 20.9588 162.699 23.0797 161.841 25.4844C160.818 28.3572 162.275 31.0791 164.548 34.0476C166.558 36.6717 168.97 38.8335 172.003 40.7327C174.236 42.1308 177.865 44.2794 180.362 43.7754C182.396 43.3648 184.038 40.8485 182.16 38.9358C180.967 37.7195 178.584 36.7696 177.031 36.0985C174.104 34.8333 171.173 34.1904 168.364 34.5253C166.088 34.7965 163.911 35.4251 162.545 36.8048C161.448 37.9127 159.968 39.6527 159.958 41.3171C159.938 44.8453 166.62 49.1725 170.048 51.1345C173.386 53.0455 174.714 51.7324 175.939 49.5629C176.117 49.2471 176.747 48.5559 176.114 48.1317C174.264 46.8923 171.706 46.514 169.761 46.5258C162.393 46.5704 156.61 53.0711 160.615 59.5515" stroke="#4B4B4B" stroke-width="5" stroke-linecap="round"/>
<path d="M146.731 140.34C134.522 153.116 113.925 156.311 105.153 156.311C109.965 157.596 121.619 159.395 129.734 156.311C137.848 153.227 144.446 144.378 146.731 140.34Z" fill="#00C62E"/>
<path d="M17.2533 68V100L32.2635 74.1836L5 84.2319L34.8673 94.5894L17.2533 68Z" stroke="#EEE42A" stroke-width="3"/>
<path d="M32.0339 8V45L59.0524 15.1498L9.97803 26.7681L63.7392 38.744L32.0339 8Z" stroke="#EEE42A" stroke-width="3"/>
</svg>
