<svg xmlns="http://www.w3.org/2000/svg" width="120" height="123" fill="none"><path fill="#00CF4B" fill-opacity=".3" d="M101.356 53.534c-.137 1.012-.46 1.93-.791 2.893-.025.16-.071.268-.175.303-.79.262-.884 1.05-1.223 1.641-.201.353.08.559.412.627.459.096.926.149 1.39.22.825.124 1.612.394 2.448.646.893.372 1.743.74 2.616 1.179.873.793 1.888 1.318 2.74 2.057.395.344.736.789 1.371.815.725.636 1.346 1.31 2.009 2.01.348 1.514 1.606 2.411 2.282 3.67.144.267.465.165.721.307.529.815.975 1.628 1.378 2.516-.239 1.39.701 2.404.999 3.595.124.49.323.922.852 1.17.256.932.488 1.825.734 2.773-.535.996-.23 1.978-.133 2.95.051.51.06 1.025.018 1.533-.06.71.064 1.338.606 1.887-.003.974-.233 1.863-.443 2.81-.039.114-.082.198-.132.193-.83-.053-.984.605-1.201 1.163-.458 1.172-1.159 2.18-2.003 3.094-.226.246-.405.494-.348.85.029.18-.022.34-.207.48-.863.487-1.694.936-2.656 1.202-.551-.217-1.059-.162-1.601-.115-1.081.093-2.185.206-3.222-.277-.245-.113-.51-.033-.791-.155-.896-.483-1.479-1.203-1.995-2.06-.097-.13-.159-.248-.112-.339.307-.598.026-1.112-.213-1.635-.241-.525-.4-1.08-.57-1.628-.093-.294-.221-.549-.498-.768-.272-.997-.521-1.956-.789-2.97-.064-.158-.095-.286-.027-.361.471-.508.261-1.013.029-1.53-.332-.738-.688-1.463-1.145-2.136-.219-.321-.478-.534-.905-.598-.647-.749-1.3-1.426-2.169-1.945-.599-1.309-1.884-1.366-2.965-1.745-.451-.157-.38.419-.663.598-.971-.024-1.9-.066-2.884-.108-.375.06-.38-.202-.435-.39-.1-.326-.334-.439-.637-.408-.765.075-1.521.208-2.209.583-.498.272-.568.536-.299 1.05.348.66.71 1.31 1.064 1.966.162.3.416.477.692.707.489.85.862 1.71 1.227 2.622-.117.764.275 1.37.451 2.018.237.862.47 1.723.593 2.612.05.365.15.71.526.952.104.423.195.813.24 1.21.037.33.19.533.486.673.283.135.548.314.857.505-.185.61.038.96.533 1.313a9.325 9.325 0 0 1 2.404 2.534c.33.51.862.372 1.27.673.475.844.855 1.681 1.116 2.623-.529.753-.285 1.51-.162 2.268.093.567.062 1.145.036 1.716-.029.592.042 1.13.464 1.628a11.01 11.01 0 0 1-.756 2.736c-.031.086-.044.146-.075.152-.865.169-1.13.924-1.533 1.549-.104.159-.183.345-.327.465-.4.33-.383.764-.36 1.251a9.7 9.7 0 0 1-2.315 1.717c-.18.17-.348.104-.518.099-.524-.013-1.256.455-1.446.917-.186.45.086.689.442.851.544.248 1.097.478 1.588.826.719.51.688 1.11-.08 1.535-.493.273-1.037.392-1.583.494-.362.066-.71.162-1.002.476-1.003.151-1.972.082-2.996.098-.143.006-.252.04-.305-.02-.508-.556-1.214-.554-1.875-.658a13.223 13.223 0 0 1-2.039-.498c-.915-.299-.915-.302-1.532.4-1-.186-1.92-.502-2.899-.792-.026-.089-.07-.147-.075-.204-.062-1.055-.831-1.254-1.658-1.389-.106-.018-.206-.062-.312-.075-.383-.051-.748-.213-1.137-.2-.541.018-.314.663-.703.86-.975-.151-1.906-.315-2.894-.496-.089-.096-.18-.162-.182-.233-.013-.935-.676-1.059-1.38-1.099-.508-.026-1.005-.139-1.514-.155-.778-.026-.871.098-.628.827.02.059.022.124.011.232-1.112.055-2.211-.075-3.367-.188-.248-1.09-.985-1.252-1.898-1.13a1.378 1.378 0 0 1-.384 0c-.759-.102-1.343.087-1.586.948-.95.08-1.866.129-2.839.177-.102-.004-.164-.011-.175-.042-.29-.813-.9-.706-1.563-.598-.48.08-.964.162-1.453.189-.639.033-1.19.212-1.514.866-.978.088-1.875.367-2.85.496-.677-.663-1.425-.443-2.165-.282-.606.131-1.22.224-1.831.333-.484.084-.865.25-.865.832 0 .138-.108.229-.247.333-.971.272-1.898.531-2.895.717-.234-.059-.331-.19-.356-.374-.073-.54-.433-.567-.853-.481-.69.14-1.38.295-2.074.408-.553.091-.989.27-1.042.917-.009.111-.1.184-.243.248-.964.097-1.884.153-2.866.131-.606-.592-1.32-.516-1.996-.415-.704.107-1.458-.006-2.103.415-.071.046-.166.006-.283-.056-.622-.119-1.205-.21-1.767-.398-.464-.155-.9-.361-1.285-.751.25-.711.13-1.493.522-2.129.398-.644 1.006-1.025 1.714-1.26.121-.04.243-.08.356-.14.155-.082.3-.179.276-.385-.02-.168-.146-.264-.294-.306a10.39 10.39 0 0 1-2.072-.832c-.391-.206-.738.19-1.145.011-.752-.625-1.398-1.289-1.964-2.093-.112-.488-.342-.862-.59-1.234a7.604 7.604 0 0 1-1.152-2.782c-.283-.937-.303-1.863-.34-2.844.302-1.544.572-3.043 1.249-4.419.174-.354.024-.662.009-1.039.395-.881.89-1.65 1.483-2.42.964-.136 1.48-.838 2.068-1.431.676-.685 1.49-1.212 2.164-1.903.339-.345.516-.704.414-1.207-.089-.443-.033-.895.128-1.371.17-1.019.458-1.963.754-2.95.122-1.001.65-1.805.986-2.678.078-.2.204-.379.255-.587.101-.416-.093-.724-.511-.68-.64.066-1.28.06-1.92.1-.515.033-.742.443-1.136.693-.975.004-1.9-.095-2.886-.155-.477-.516-1.034-.625-1.654-.576-.404.031-.798-.089-1.196-.137-.508-.062-1.001-.089-1.528.113-.96-.151-1.855-.377-2.795-.618-1.284-.85-2.784-1.03-4.123-1.613-.202-.088-.418.082-.675.005a21.445 21.445 0 0 1-2.552-1.232c-1.12-1.318-2.64-2.033-3.986-3.048-.734-.638-1.34-1.335-1.98-2.07-1.182-1.28-2.29-2.554-2.991-4.176-.493-.877-.889-1.752-1.32-2.657-.464-.559-.61-1.212-.8-1.839a99.754 99.754 0 0 1-.721-2.5c-.299-.933-.518-1.841-.734-2.81.145-.874-.05-1.696-.016-2.515.018-.465-.068-.884-.367-1.3-.03-.955.009-1.86.073-2.827.011-.15.027-.265.1-.29.683-.239.751-.87.913-1.433.1-.35.212-.697.36-1.027.263-.58.43-1.146.013-1.766a7.732 7.732 0 0 1 1.705-2.292c.062-.091.117-.166.168-.153.726.177 1.174-.339 1.69-.678.426-.279.869-.538 1.344-.709.447-.159.838-.376 1.218-.71.962-.173 1.873-.096 2.844.04.347.77 1.079 1.018 1.687 1.412.285.184.59.366.812.612.426.476.89.73 1.576.536.593.866.876 1.825 1.172 2.833-.12 1.448.294 2.773.632 4.104.118.46.16.986.673 1.298.435.932.745 1.89 1.276 2.797.7 1.174 1.454 2.24 2.68 2.933.884.51 1.79.835 2.799 1.034.526.523 1.074.538 1.676.273.33-.147.564-.35.431-.731-.126-.364-.345-.654-.81-.497a.551.551 0 0 1-.353.016c-.633-.769-1.064-1.617-1.528-2.505-.08-.11-.137-.204-.102-.273.45-.89-.236-1.557-.446-2.314-.087-.308-.458-.275-.664-.516-.34-.897-.517-1.794-.7-2.742-.016-.071-.034-.104-.027-.11.743-.78.27-1.724.358-2.592.049-.486-.374-.685-.573-1.066.067-.977.129-1.907.35-2.873.663-.279.869-.803.962-1.413.026-.166.066-.332.126-.491.26-.71.568-1.416.064-2.184.389-.926.78-1.803 1.278-2.676.654-.044.948-.46 1.2-.957.135-.265.283-.531.463-.77.375-.506.687-1.022.559-1.722.6-.792 1.214-1.512 1.902-2.234 1.326-.414 2.111-1.314 2.622-2.554.714-.667 1.448-1.238 2.24-1.819 1.072-.143 1.767-.888 2.585-1.397.214-.133.232-.401.391-.625.794-.538 1.599-.974 2.44-1.437 1.023.188 1.41-.417 1.664-1.205.04-.122.089-.24.148-.352.358-.663.588-1.34.274-2.12.463-.864.896-1.694 1.365-2.567.87-.06 1.094-.755 1.435-1.32a.539.539 0 0 0-.018-.607c-.106-.164-.219-.323-.1-.565a36.58 36.58 0 0 1 1.577-2.436c.064-.06.117-.098.144-.08.818.507 1.174-.155 1.57-.642.31-.381.626-.758.988-1.09.387-.357.686-.718.334-1.27-.07-.11-.042-.247.044-.407.675-.706 1.429-1.236 2.273-1.723.104-.04.188-.075.228-.042.568.465 1.028.157 1.541-.148 1.037-.614 2.174-.966 3.417-1.108a6.723 6.723 0 0 1 2.86.966c.578.17.857.622 1.142 1.032a8.05 8.05 0 0 1 1.185 2.62c.186.727.332 1.464.577 2.173.069.195.097.416.33.576.34-.487.404-1.043.541-1.566.332-1.267.646-2.536 1.389-3.643.13-.195.245-.404.473-.57.703-.713 1.53-1.125 2.481-1.41.867-.36 1.672-.098 2.474.072.33.071.664.171.962.326.403.21.759.213 1.165-.058.996.297 1.807.844 2.663 1.418.29.204.303.46.247.718-.088.41.078.68.39.93.477.388.944.806 1.302 1.302.409.563.818.96 1.599.636.676.71 1.156 1.515 1.707 2.33.13.146.154.292.08.392-.372.48-.133.87.15 1.27.457.642.862 1.32 1.229 2.015.237.45.517.755 1.055.861.43.862.831 1.688 1.247 2.56.04.468-.195.836-.011 1.325.374 1.002.993 1.666 1.97 2.04.624.24 1.152.767 1.941.636.803.527 1.568 1.032 2.37 1.564.748 1.231 2.05 1.807 2.981 2.777.204.213.513.177.808.288.683.689 1.333 1.345 2.007 2.038.133.788.615 1.329 1.062 1.896.555.706 1.046 1.46 1.523 2.22.23.367.509.617.969.719.568.795.95 1.641 1.36 2.53.026.066.046.09.041.103-.393.851.06 1.593.308 2.357.17.527.314 1.061.427 1.602.095.45.276.793.765.972.241.972.283 1.925.325 2.932.009.078.02.107.011.118-.953 1.143-.356 2.589-.752 3.843-.089.25.181.398.276.653Z"/><path fill="#4C7F5E" d="M64.243 9.497c.102.244.018.405-.101.57-.681.932-1.048 1.997-1.307 3.109-.18.77-.396 1.53-.644 2.281-.033.102-.06.206-.101.304-.064.15-.086.356-.314.345-.188-.009-.215-.184-.27-.319-.049-.12-.084-.241-.124-.363a27.644 27.644 0 0 1-.657-2.343c-.327-1.391-.835-2.694-1.892-3.715a.63.63 0 0 1-.19-.374c.01-.423.035-.806.057-1.185.21-.113.325.058.449.146 1.134.806 1.842 1.93 2.355 3.199.084.208.082.469.343.622.42-1.147.906-2.246 1.804-3.132.28.252.356.582.592.855ZM92.33 118.337c-.035-.128-.046-.215-.07-.295-.083-.268.008-.4.293-.427a8.606 8.606 0 0 0 1.575-.295c.33-.093.656-.206.935-.412.303-.223.316-.412.046-.686-.274-.279-.616-.461-.964-.627-.347-.166-.712-.295-1.054-.472-.655-.339-.743-.839-.27-1.411.367-.443.878-.675 1.369-.934.32-.171.446.146.68.299.155.17.27.321.396.485-.145.292-.546.296-.712.587.129.199.345.254.52.363.493.31.955.653 1.287 1.141.526.773.42 1.563-.292 2.17-.312.266-.679.441-1.059.589-.602.235-1.232.359-1.864.463-.584.1-.586.089-.816-.538ZM29.046 112.123c.578-.56 1.124-.483 1.732-.091.429.275.944.397 1.435.545.183.056.371.111.537.206.447.255.462.671.04.966-.212.148-.458.228-.701.31-.493.162-.95.392-1.31.78-.362.392-.627.828-.452 1.391.07.23-.02.363-.184.491a5.04 5.04 0 0 0-.409.37c-.239.173-.4.166-.535-.097-.356-.7-.35-1.402-.044-2.107.26-.604.7-1.069 1.267-1.488-.527-.396-1.148-.551-1.612-.957-.007-.157.135-.195.236-.319ZM32.525 89.346c.223.082.272.226.245.416-.06.425-.035.85.009 1.276.038.38-.069.713-.365.977-.236.212-.442.467-.694.66-1.033.795-1.999 1.66-2.848 2.653-.166.193-.33.248-.555.129-.13-.071-.268-.131-.445-.204-.384-.308-.39-.317-.123-.63 1.021-1.184 2.129-2.276 3.46-3.113.239-.15.299-.3.268-.57a6.353 6.353 0 0 1-.01-1.085c.03-.452.047-.452.492-.474.172-.007.342-.015.566-.035ZM30.952 83.325c.256-.944.256-.944 1.227-1.026.617-.05 1.236-.106 1.855-.15.765-.054 1.137.442.823 1.14-.411.917-.838 1.83-1.192 2.773a.492.492 0 0 1-.287.304c-.4-.011-.752.179-1.157.037.21-.98.701-1.847 1.117-2.773-.372-.122-.703.016-1.03.016-.383 0-.766.024-1.148.03-.206.003-.248-.121-.208-.352ZM115.264 94.965c-.329-.837.071-1.353.613-1.909.919-.944 1.503-2.117 1.95-3.355.051-.14.104-.282.146-.424.073-.248.201-.354.471-.248.196.076.411.109.663.16.172.106.199.226.146.392-.677 2.162-1.784 4.038-3.56 5.484-.153.122-.318.279-.429-.1ZM90.337 81.878c-.646.135-.646.135-.929-.387-.418-.771-.838-1.54-1.253-2.315-.347-.649-.277-.892.349-1.249.92-.523 1.93-.66 2.963-.724.296-.018.433.12.466.398.025.213.056.426.096.69-.102.214-.277.203-.447.223-.659.073-1.318.15-1.975.237-.318.042-.418.186-.29.463.09.19.23.359.357.53.444.597.902 1.189 1.245 1.882-.2.09-.372.164-.582.252ZM103.462 59.85c-.163.237-.343.263-.577.179-1.055-.377-2.145-.585-3.257-.684a1.7 1.7 0 0 1-.433-.107c-.542-.206-.653-.502-.35-.983.228-.366.458-.736.59-1.139.173-.522.505-.697 1.066-.635.219.013.385.035.606.064-.108.43-.307.797-.466 1.18-.148.355-.131.395.243.45.949.146 1.871.388 2.771.722.077.029.15.075.227.113-.057.317-.307.52-.42.84ZM98.65 38.417c-.085.057-.145.082-.198.115-.475.294-.482.299-.762-.173a30.627 30.627 0 0 0-2.645-3.743c-.347-.423-.34-.428 0-.961.097-.113.195-.171.257-.255.19-.264.331-.164.497.033a33.658 33.658 0 0 1 3.07 4.273c.216.358.004.494-.22.71ZM119.659 86.368c-.108-.025-.161-.06-.221-.082-.78-.284-.78-.284-.751-1.145a22.14 22.14 0 0 0-.222-4.012c-.115-.764-.106-.766.626-1.096.493-.109.504-.11.575.288.321 1.852.414 3.716.281 5.59-.013.169.044.406-.288.457ZM98.914 96.977c-.135.04-.247.033-.345.069-.72.254-.687.17-1.074-.39a12.648 12.648 0 0 0-3.08-3.119c-.17-.122-.374-.208-.507-.427.16-.286.482-.384.752-.605.217-.113.385-.126.568.007a13.782 13.782 0 0 1 3.834 4.155c.093.157.02.228-.148.31ZM86.928 26.888c-.082.124-.162.197-.217.286-.126.201-.272.228-.482.117-.734-.385-1.48-.75-2.209-1.14-.502-.268-.88-.656-1.068-1.216-.115-.341-.276-.67-.413-1.004-.21-.511-.21-.511.234-.81.053-.036.108-.07.19-.136.509-.186.513-.188.706.255.134.313.29.618.384.942.137.471.45.737.876.937.615.287 1.214.609 1.81.928.487.265.483.276.189.841ZM106.939 95.578c.427-.415.427-.415.927-.167.427.21.875.333 1.351.35.856.036 1.707.011 2.54-.206.569-.146.675-.124.796.519.054.615.054.615-.479.75-1.062.269-2.143.328-3.226.242-.706-.055-1.351-.343-1.962-.707-.303-.179-.323-.352-.075-.584.046-.042.071-.107.128-.198ZM26.28 97.664c.68.405.68.405.365 1.065a12.468 12.468 0 0 0-1.12 3.743c-.034.264-.048.523-.42.618-.258.054-.468.085-.676.127-.24.048-.296-.06-.278-.279.15-1.808.67-3.504 1.468-5.126.177-.365.382-.23.66-.148ZM93.132 90.046a1.346 1.346 0 0 1-.254.153c-.41.202-.462.186-.517-.275a19.758 19.758 0 0 0-1.197-4.79c-.12-.306-.07-.492.305-.594.832-.122.832-.122 1.104.642.466 1.314.8 2.658 1 4.038.083.607.002.603-.44.826ZM83.588 117.643a4.84 4.84 0 0 1 .042-.74c.062-.478.117-.516.564-.372.504.164 1.003.348 1.51.503.774.235 1.56.425 2.368.472.568.033.962.259 1.198.828.03.224.208.383.098.636-1.977-.116-3.892-.57-5.78-1.327ZM100.37 105.248c-.858-.231-.858-.231-.805-1.145.07-1.183-.007-2.352-.292-3.506-.164-.656-.155-.658.513-.864.04-.014.082-.027.163-.067.275-.075.432-.055.509.235.447 1.668.575 3.356.354 5.07-.031.257-.159.328-.442.277ZM17.703 55.064c-.137.148-.186.343-.393.359-.195-.127-.222-.352-.294-.545a15.555 15.555 0 0 1-.777-2.893c-.057-.356-.104-.722-.22-1.06-.162-.464-.096-.827.329-1.148.168-.153.316-.27.495-.41.26.386.378.81.464 1.238.235 1.17.4 2.355.825 3.48.07.188.031.328-.11.454-.149.133-.233.303-.319.525ZM101.552 45.994c-.842.275-.842.275-1.032-.574a23.415 23.415 0 0 0-.938-3.127c-.287-.758-.287-.758.36-1.272.472-.226.481-.23.624.122a25.228 25.228 0 0 1 1.32 4.246c.069.315-.015.48-.334.605ZM47.502 116.842c-.046-.274-.046-.529-.062-.784-.026-.465-.022-.498.45-.587 1.337-.25 2.677-.489 4.017-.722.557-.097.562-.084.615.479.009.084.01.17.028.31-.013.268-.026.465-.316.514-1.568.261-3.129.538-4.732.79ZM55.763 7.909c-.027.31-.201.388-.436.42-1.353.2-2.556.774-3.697 1.503-.446.285-.453.279-.732-.156a5.473 5.473 0 0 0-.278-.405c-.117-.27.046-.372.212-.478 1.32-.84 2.706-1.513 4.274-1.741.62-.091.617-.098.63.55l.027.307ZM4.59 69.77c.268-.05.346.143.445.305a24.024 24.024 0 0 0 2.393 3.247c.124.142.285.272.183.543-.24.288-.466.534-.685.773-.164-.018-.232-.135-.314-.228a26.217 26.217 0 0 1-2.578-3.4c-.197-.306-.222-.516.084-.749.165-.126.298-.301.473-.492ZM81.789 20.356c-.77.377-.77.374-1.168-.348a39.481 39.481 0 0 0-1.696-2.795c-.433-.651-.418-.552.12-1.1.06-.063.115-.127.183-.227.146-.126.274-.183.392-.008.176.267.362.531.537.799a48.714 48.714 0 0 1 1.81 3.032c.16.284.164.474-.178.647ZM16.098 80.327c.369-.542.369-.544.91-.325 1.168.472 2.358.888 3.578 1.196.37.093.443.272.312.642-.363.742-.363.744-1.119.53a31.707 31.707 0 0 1-3.37-1.168c-.597-.246-.597-.248-.311-.875ZM118.437 77.183c-.768.248-.768.248-1.02-.52a30.037 30.037 0 0 0-1.207-3.106c-.345-.757-.228-.636.307-1.056.18-.105.332-.173.509-.253.285.46.473.96.685 1.446.399.922.728 1.87 1.051 2.82.121.352.017.518-.325.669ZM9.559 76.021c.24-.288.442-.204.672-.015.975.802 2.012 1.52 3.095 2.168.452.27.447.277.226.824-.413.623-.413.623-1.055.235a25.906 25.906 0 0 1-2.925-2.042c-.164-.133-.354-.237-.458-.432.064-.281.325-.443.445-.738ZM110.193 63.904c-.487.403-.493.412-.909.038a22.691 22.691 0 0 0-2.963-2.25c-.194-.124-.447-.229-.254-.587.259-.222.276-.67.577-.691.305-.025.555.274.82.45a22.418 22.418 0 0 1 3.1 2.469c-.053.239-.254.354-.371.571ZM115.214 69.904c-.688.427-.688.427-1.119-.248a28.91 28.91 0 0 0-1.957-2.707c-.338-.416-.409-.467.024-.955.102-.108.197-.166.263-.248.175-.206.31-.155.462.031a30.885 30.885 0 0 1 1.632 2.142c.29.423.546.87.858 1.278.239.315.109.496-.163.707ZM1.73 62.76c.311-.12.41.035.475.273.159.593.331 1.184.493 1.778.146.534.318 1.057.52 1.57.074.193.207.381.088.647-.356.193-.544.532-.852.727-.234-.067-.238-.29-.302-.454-.476-1.214-.911-2.443-1.243-3.706-.155-.593-.133-.46.37-.649.138-.046.278-.104.45-.186ZM8.292 44.206c-.024.56-.26.82-.79.95-.904.221-1.678.738-2.396 1.322-.451.366-.445.375-.984.098a1.826 1.826 0 0 0-.212-.091 3.705 3.705 0 0 1-.38-.288c1.16-1.38 2.597-2.17 4.307-2.487.43-.08.43-.082.455.496ZM93.084 31.53c-.068.08-.117.123-.163.165-.317.285-.321.294-.66-.01a38.8 38.8 0 0 0-2.86-2.347c-.385-.284-.381-.29-.131-.797.146-.202.28-.364.427-.536.188-.034.296.12.426.212a31.597 31.597 0 0 1 2.917 2.377c.438.405.435.405.044.937ZM71.356 8.438c-.01.065-.022.084-.026.104-.16.793-.157.791-.867.466-.995-.457-2.025-.758-3.135-.72-.168.006-.343.022-.533-.129-.19-.339-.336-.644-.502-.994.626-.25 1.258-.21 1.882-.153.986.093 1.917.396 2.819.806.26.12.442.255.362.62ZM40.031 118.283c-.029-.12-.018-.204-.015-.291.03-1.063-.2-.939 1.028-1.171.946-.18 1.888-.372 2.832-.552.613-.117.644-.091.673.554.008.193.008.385.008.638a23.122 23.122 0 0 1-4.526.822ZM55.427 115.15c-.009-.155.005-.263-.002-.37-.044-.598-.049-.615.513-.697 1.143-.166 2.289-.324 3.434-.461.654-.08.657-.058.692.625.005.106.011.214.029.376-.022.237-.153.273-.314.295-1.27.166-2.536.343-3.806.505-.2.026-.49.175-.546-.273ZM101.415 53.572c-.778-.038-.778-.038-.654-.76.148-.866.274-1.74.219-2.616-.04-.635.159-1.02.807-1.204.544-.11.55-.11.564.338.035 1.239-.091 2.463-.25 3.69-.053.417-.283.525-.686.552ZM77.567 13.457c-.188.204-.363.361-.522.532-.181.195-.338.221-.526.002-.78-.906-1.597-1.78-2.499-2.567-.183-.162-.212-.357-.168-.58.055-.273.104-.545.157-.866.089-.138.173-.147.274-.062 1.201.972 2.285 2.064 3.269 3.255.06.071.053.158.015.286ZM15.229 46.85c-.188.185-.374.33-.537.495-.188.19-.348.209-.531-.008a7.165 7.165 0 0 0-2.76-2.023c-.203-.084-.298-.221-.272-.445.018-.148.02-.297.027-.5.15-.481.152-.488.535-.35a7.876 7.876 0 0 1 3.412 2.367c.104.12.274.23.126.463ZM70.275 114.919c-.181-.128-.453-.08-.493-.319-.053-.336-.073-.682.013-1.016.038-.144.195-.147.325-.138 1.17.091 2.335.228 3.496.408.3.046.394.21.37.485-.025.277-.052.551-.096.884-1.2-.06-2.388-.178-3.615-.304ZM48.26 10.93c.158.237.26.478.412.68.237.308.155.518-.104.766-.79.755-1.492 1.59-2.178 2.44-.316.393-.325.386-.679.052-.139-.133-.278-.266-.455-.417-.102-.148-.073-.259.015-.372.872-1.11 1.785-2.18 2.837-3.125.031-.022.08-.024.153-.024ZM2.1 48.76c.26.228.686.248.768.573.077.315-.195.592-.31.886a18.505 18.505 0 0 0-.734 2.315c-.172.715-.128.602-.792.664a1.495 1.495 0 0 0-.232.042c-.307-.037-.482-.093-.4-.471.283-1.29.663-2.543 1.227-3.737.08-.168.122-.45.473-.272ZM25.338 105.987c.28-.031.376.104.431.314a8.285 8.285 0 0 0 1.526 3.05c.208.262.1.417-.153.601-.23.155-.429.276-.64.409-.18-.024-.248-.197-.344-.325a9.743 9.743 0 0 1-1.62-3.241c-.153-.529-.149-.529.389-.677.121-.034.243-.074.411-.131ZM100.73 81.57c.42-.604.378-.642.843-.066.811 1.008 1.357 2.162 1.802 3.369.208.563.199.565-.272.966-.082.068-.162.14-.268.241-.274.087-.294-.095-.342-.263a10.135 10.135 0 0 0-1.723-3.396c-.232-.301-.186-.53-.04-.85ZM23.686 82.568c.3-.638.3-.647.907-.551.964.15 1.937.219 2.91.297.734.06.66.033.55.75-.23.612-.23.625-.873.572-1.037-.084-2.072-.17-3.1-.343-.555-.096-.555-.09-.394-.725ZM76.827 115.831c-.01-.341.023-.66.053-.979.027-.273.175-.37.438-.313.522.116 1.044.226 1.564.35.54.131 1.074.282 1.614.414.296.074.444.215.36.548-.068.268-.093.547-.163.874-1.294-.252-2.559-.562-3.866-.894ZM32.732 118.317c.144-.122.281-.19.38-.297.242-.254.531-.303.865-.316a39.798 39.798 0 0 0 2.289-.144c.805-.078.805-.095.842.751-.03.283-.037.513-.369.547-1.486.139-2.972.314-4.475.029.046-.282.325-.342.468-.57ZM40.929 21.912c.692.505.657 1.066.263 1.712-.219.361-.372.771-.5 1.176-.172.54-.508.917-.99 1.194-.38.22-.376.235-.644-.148-.035-.053-.068-.109-.137-.19-.172-.335-.296-.616.201-.734.195-.046.215-.297.29-.472.352-.821.71-1.639 1.055-2.463.11-.256.24-.259.462-.075ZM23.149 41.777c.221.308.719.337.73.715.008.304-.166.612-.264.917-.22.694-.409 1.393-.568 2.102-.13.583-.137.583-.714.439-.062-.016-.122-.038-.237-.065-.283-.086-.477-.159-.402-.491.272-1.18.601-2.344 1.021-3.48.076-.215.177-.328.434-.137ZM63.003 114.569c-.035-.122-.029-.209-.035-.295-.089-1.09-.018-.966.942-.999a52.284 52.284 0 0 1 2.44-.02c.476.005.51.049.523.521.006.257-.016.514-.043.828-1.273.04-2.534.02-3.827-.035ZM103.567 89.133c.21-.086.325-.28.522-.285.106.037.123.126.137.206.177.999.504 1.951.962 2.848.287.565.336 1.039-.186 1.524a3.7 3.7 0 0 1-.385.299c-.245-.37-.398-.777-.575-1.172-.38-.86-.579-1.77-.765-2.684-.062-.304-.011-.538.29-.736ZM26.657 35.67c.524.688.513.68.042 1.42-.436.686-.85 1.386-1.265 2.086-.292.491-.285.496-.732.117-.048-.042-.097-.084-.183-.144-.325-.292-.316-.556-.11-.901.594-1 1.196-1.991 1.883-2.906.22.03.217.224.365.328ZM94.967 78.51c-.029-.167-.013-.295-.03-.421-.12-.851-.016-.747.665-.58.975.239 1.908.6 2.773 1.122.477.288.475.29.212.893-.08.126-.153.206-.201.297-.098.179-.204.239-.398.113-.843-.54-1.763-.906-2.729-1.15-.144-.035-.219-.11-.292-.275ZM97.278 111.411c-.561-.649-.561-.649-.022-1.329.356-.449.721-.908.94-1.435.248-.594.63-.804 1.291-.66.268.093.48.142.31.487a14.211 14.211 0 0 1-1.92 2.933c-.214.255-.373.206-.599.004ZM.617 56.11c.157 0 .263.017.37.015.236-.002.351.106.349.345-.01.957.009 1.912.15 2.86.044.301-.155.412-.402.554-.303.086-.531.29-.86.241-.208-1.225-.228-2.456-.215-3.692.002-.441.343-.26.608-.324ZM21.654 60.818c-.199.197-.37.228-.58.058-.84-.674-1.545-1.467-2.164-2.342-.124-.172-.17-.343.018-.56.256-.22.493-.396.727-.574.197.087.268.277.378.428a10.827 10.827 0 0 0 1.813 1.964c.354.295.35.297.051.678a4.32 4.32 0 0 0-.243.348ZM31.202 30.86c.272.684.267.68-.237 1.178-.502.499-.993 1.006-1.488 1.51-.404.415-.404.417-.838-.079-.09-.135-.135-.257-.208-.359-.121-.17-.095-.305.042-.452.739-.793 1.495-1.566 2.304-2.265.243.077.261.307.425.467ZM36.41 27.025c.077.144.117.265.168.38.086.191.026.317-.142.428-.778.518-1.556 1.037-2.328 1.564-.36.246-.422-.087-.6-.293-.318-.704-.322-.71.315-1.15.56-.384 1.125-.759 1.698-1.127.506-.323.51-.316.889.198ZM21.614 48.745c.947.308.94.308.958 1.28.009.47.04.94.08 1.409.077.943.043.768-.71 1.054-.334.078-.531.066-.575-.343a23.904 23.904 0 0 1-.111-3.108c.004-.197 0-.405.358-.292ZM22.55 55.296c.797-.175.793-.173 1.08.589.166.436.35.868.538 1.296.227.525.234.522-.153.928a3.124 3.124 0 0 0-.192.225c-.425.286-.431.288-.615-.068-.39-.758-.699-1.546-.997-2.343-.128-.348-.024-.519.338-.627ZM25.292 60.938a.199.199 0 0 1 .07-.067c.253-.148.354-.518.697-.512.19.003.854.984.87 1.225a.64.64 0 0 1-.29.607c-.686.476-1.449.527-2.214.3-.422-.127-.022-.355.027-.577.336-.29.612-.589.84-.976ZM43.6 16.855c.188.354.68.49.645.881-.033.354-.345.63-.522.946-.157.279-.329.551-.482.833-.137.254-.285.372-.53.115-.089-.09-.2-.16-.34-.255-.288-.255-.333-.491-.125-.802.343-.511.646-1.05.971-1.572.075-.124.144-.286.383-.146Z"/><path fill="#000" d="m2.683 19.948 4.222-9.421 13.288 18.466-17.51-9.045ZM108.96 14.759l-2.442-8.143-11.512 15.46 13.954-7.317ZM29.77 1.273l-6.594 1.625L31.22 17.94 29.77 1.273Z"/></svg>