<svg width="214" height="241" viewBox="0 0 214 241" fill="none" xmlns="http://www.w3.org/2000/svg">
<ellipse cx="134.5" cy="226.5" rx="70.5" ry="14.5" fill="black" fill-opacity="0.3"/>
<path d="M92.4114 147.182C92.3701 147.169 92.3209 147.149 92.2934 147.145C92.1989 147.081 92.1144 147.069 91.9904 147.033C91.9511 147.016 91.957 146.998 91.9531 147.006C91.9019 146.928 91.8134 146.926 91.6894 146.898C91.6481 146.886 91.597 146.865 91.5694 146.863C91.479 146.792 91.3924 146.783 91.2704 146.747C91.2311 146.73 91.237 146.712 91.2331 146.72C91.1819 146.639 91.0934 146.639 90.9714 146.61C86.3564 144.748 82.3374 141.991 78.3932 139.082C74.2719 136.043 70.426 132.718 66.95 128.958C64.8294 126.664 62.9527 124.196 61.2569 121.522C61.2471 121.428 61.2353 121.384 61.1586 121.333C61.1271 121.316 61.1212 121.253 61.1094 121.224C61.1055 121.141 61.0878 121.1 61.0189 121.043C60.9914 121.02 60.9953 121.02 60.9953 121.022C60.8104 120.837 60.7278 120.594 60.5881 120.328C60.5586 120.29 60.5428 120.24 60.5291 120.216C60.5212 120.143 60.5055 120.1 60.4405 120.043C60.411 120.024 60.4209 120.016 60.4169 120.02C60.3068 119.912 60.2497 119.771 60.1612 119.598C60.1376 119.559 60.1238 119.512 60.112 119.491C60.0923 119.42 60.0707 119.377 60.0137 119.312C59.9881 119.285 59.9743 119.234 59.9605 119.21C59.9468 119.136 59.9291 119.091 59.8681 119.028C59.8405 119.002 59.8287 118.948 59.815 118.924C59.811 118.848 59.7953 118.804 59.7225 118.752C59.693 118.732 59.7028 118.724 59.6989 118.728C59.6458 118.661 59.6379 118.577 59.5769 118.475C59.5435 118.45 59.5592 118.438 59.5514 118.444C59.4196 118.301 59.3586 118.124 59.2937 117.905C59.2583 117.873 59.272 117.865 59.2661 117.871C59.1324 117.728 59.0714 117.552 59.0104 117.328C58.9769 117.295 58.9868 117.293 58.9829 117.297C58.7999 117.118 58.7704 116.889 58.7212 116.619C58.6838 116.585 58.6996 116.575 58.6917 116.581C57.9815 115.146 57.4543 113.642 56.9901 112.111C56.1304 109.284 55.6445 106.377 55.3947 103.452C55.1626 100.719 55.3829 97.9782 55.8845 95.259C56.8268 90.1441 59.1678 85.6389 62.1028 81.4552C63.9795 78.7811 66.1848 76.3403 68.6378 74.1269C71.0614 71.939 73.544 69.8472 76.2863 68.069C79.7269 65.838 83.2994 63.8462 87.0272 62.1327C87.2023 62.0523 87.3793 61.9798 87.6134 61.9151C87.6547 61.8798 87.7098 61.868 87.7354 61.8563C87.8121 61.8445 87.8593 61.8269 87.9262 61.768C87.9537 61.7426 88.0049 61.7328 88.0305 61.721C88.1367 61.6877 88.2233 61.6779 88.3275 61.6151C88.3511 61.5798 88.359 61.5916 88.357 61.5838C88.4337 61.5426 88.5164 61.5328 88.6226 61.4759C88.6501 61.4446 88.658 61.4563 88.6541 61.4504C88.7229 61.3956 88.8095 61.3897 88.9216 61.3348C88.9531 61.3073 89.0082 61.2956 89.0337 61.2838C89.1105 61.2681 89.1557 61.2505 89.2206 61.1936C89.2482 61.1681 89.3013 61.1583 89.3268 61.1466C89.4016 61.127 89.4449 61.1074 89.5137 61.0544C89.8816 60.8917 90.22 60.7525 90.6036 60.5918C90.7295 60.5369 90.816 60.529 90.9281 60.4761C90.9596 60.4467 90.9596 60.4526 90.9577 60.4506C91.0009 60.4075 91.0481 60.3702 91.1386 60.3173C91.237 60.2742 91.294 60.2506 91.3924 60.2075C91.4652 60.1742 91.4947 60.1604 91.5675 60.1271C92.0967 59.8566 92.2521 59.341 92.5078 58.9253C94.2547 56.0983 96.1215 53.3576 98.0927 50.6795C100.379 47.5761 102.71 44.5138 105.542 41.8809C108.316 39.3028 111.389 37.1757 114.999 35.8936C115.373 35.7602 115.001 35.9132 115.912 35.5211C116.075 35.4779 116.067 35.4466 116.488 35.3642C117.749 35.1329 118.386 35.1133 119.519 35.1133C120.885 35.1133 122.153 35.3799 123.507 35.6524C123.696 35.7053 123.765 35.7367 123.894 35.7642C124.481 36.0151 125.14 36.366 125.799 36.7483C125.879 36.7817 125.911 36.7973 125.986 36.8424C127.856 38.3108 129.22 40.087 130.012 42.2867C130.148 42.6631 130.341 42.9062 130.479 43.4551C130.526 43.5728 130.685 44.6236 130.685 44.751C130.77 46.0822 130.752 46.243 130.829 47.4545C130.841 47.6251 130.846 47.7996 130.854 47.9799C130.874 48.3956 131.448 48.4877 131.598 48.0976C131.641 47.9839 131.679 47.8702 131.716 47.7584C132.286 46.0567 132.865 44.3452 133.907 42.867C135.898 40.0439 138.515 38.2324 142.109 38.1716C145.508 38.1128 148.449 39.3283 151.107 41.377C154.079 43.6688 156.294 46.5645 158.169 49.7777C160.146 53.1635 161.486 56.8139 162.9 60.4428C164.161 63.6756 165.062 67.0241 166.248 70.2785C166.441 70.8098 166.803 71.1764 167.212 71.496C168.682 72.6487 170.173 73.776 171.593 74.9837C173.834 76.8893 176.019 78.8596 177.981 81.071C179.426 82.7021 180.821 84.3666 182.143 86.0957C183.542 87.9268 184.746 89.8794 185.851 91.8909C186.969 93.9239 187.962 96.0216 188.745 98.2076C189.729 100.956 190.555 103.748 190.82 106.675C190.854 107.053 190.899 107.143 190.994 107.577C191.005 107.91 191.051 108.061 191.007 108.302C191.064 108.563 191.084 108.765 191.104 108.88C191.342 110.268 191.163 111.231 191.32 112.682C191.375 112.903 191.226 113.409 191.178 113.629C191.031 114.634 191.039 114.974 190.842 115.856C190.777 116.152 190.539 116.801 190.58 117.171C190.602 117.301 190.453 118.306 190.429 118.434C190.045 119.167 190.035 119.144 189.853 119.877C188.904 123.688 187.095 127.076 184.86 130.269C182.958 132.989 180.735 135.42 178.228 137.594C177.811 137.954 177.451 138.376 176.987 138.762C176.926 138.823 176.902 138.848 176.836 138.903C174.802 140.395 172.819 141.87 170.696 143.144C170.539 143.238 170.338 143.348 170.584 143.612C173.55 146.436 176.511 149.188 179.027 152.374C182.67 156.987 185.651 161.98 187.769 167.466C188.277 168.781 188.782 170.104 189.117 171.473C189.308 172.251 189.736 172.686 190.447 173.014C194.424 174.851 197.643 177.633 200.265 181.099C203.578 185.479 205.33 190.423 205.189 195.92C205.075 200.353 203.623 204.303 200.314 207.436C199.224 208.469 197.979 209.259 196.622 209.896C196.34 210.03 195.849 210.061 195.864 210.428C195.876 210.71 196.338 210.763 196.616 210.892C197.591 211.351 198.563 211.82 199.409 212.5C200.078 213.035 200.623 213.67 200.729 214.56C200.877 215.803 200.334 216.707 199.045 217.356C197.517 218.127 195.85 218.389 194.174 218.503C192.481 218.619 190.781 218.728 189.077 218.628C186.664 218.487 184.244 218.425 181.84 218.129C181.752 218.117 181.665 218.109 181.577 218.103C180.864 218.064 180.782 218.142 180.963 218.809C181.161 219.536 181.22 220.258 181.069 221.005C180.567 223.451 178.862 224.669 176.613 225.269C174.048 225.953 171.469 225.727 168.927 225.129C164.118 223.996 159.76 221.91 155.948 218.754C154.895 217.883 153.89 216.948 153.095 215.833C152.572 215.1 152.226 214.28 152.641 213.294C153.009 212.847 153.103 212.353 153.247 211.871C154.034 209.228 154.653 206.55 154.943 203.807C155.208 201.284 155.189 198.757 155.037 196.22C154.895 193.832 154.673 191.456 154.364 189.088C153.994 186.259 153.231 183.514 152.387 180.793C151.459 177.799 150.536 174.806 149.116 171.992C147.151 168.099 144.631 164.658 140.761 162.472C138.015 160.922 134.995 160.461 131.926 161.353C129.497 162.059 127.768 163.739 126.424 165.846C124.732 168.501 123.89 171.453 123.283 174.494C122.545 178.184 122.519 181.928 122.742 185.643C123.161 192.652 124.931 199.367 127.799 205.783C128.834 208.101 129.926 210.389 131.521 212.396C131.806 212.755 132.168 213.035 132.479 213.443C133.136 214.676 132.932 215.774 132.227 216.866C130.422 219.662 128.039 221.81 125.085 223.339C123.318 224.253 121.51 225.063 119.563 225.516C118.624 225.733 117.684 225.992 116.643 225.865C115.994 226.021 115.402 226.067 114.751 225.867C111.826 225.876 109.502 224.771 107.765 222.493C107.11 221.632 106.782 220.642 106.756 219.558C106.735 218.628 106.715 218.615 105.741 218.742C102.745 219.134 99.7333 219.352 96.7176 219.362C94.7347 219.368 92.738 219.295 90.8022 218.752C89.734 218.452 88.717 218.062 87.9183 217.229C86.7203 215.98 86.74 214.513 88.0187 213.325C88.5478 212.835 89.1478 212.443 89.7636 212.069C89.9957 211.928 90.4068 211.873 90.3832 211.551C90.3596 211.237 89.9563 211.212 89.7026 211.112C87.8633 210.379 86.1616 209.414 84.6528 208.132C80.5414 204.644 78.0784 200.208 77.1617 194.936C76.4948 191.103 76.725 187.329 78.2869 183.693C79.7407 180.311 81.8849 177.509 85.0443 175.549C85.6679 175.161 85.9098 174.704 85.8862 173.978C85.7328 169.175 86.5492 164.507 88.0088 159.949C89.256 156.058 91.0324 152.409 93.3557 149.035C93.5445 148.759 93.7353 148.484 93.9065 148.196C94.0934 147.882 93.997 147.704 93.5996 147.612C93.5465 147.59 93.5504 147.573 93.5465 147.58C93.4619 147.449 93.3163 147.516 93.1589 147.465C93.1157 147.445 93.1216 147.428 93.1176 147.435C93.0311 147.308 92.8855 147.373 92.7301 147.316C92.6888 147.292 92.6947 147.282 92.6927 147.288C92.6239 147.216 92.5353 147.212 92.4114 147.182Z" fill="#00CF4B"/>
<path d="M132.481 213.639C130.978 212.382 130.058 210.761 129.196 209.112C126.365 203.707 124.461 197.992 123.324 191.997C122.513 187.717 122.33 183.412 122.535 179.095C122.714 175.301 123.41 171.571 124.994 168.079C126.302 165.195 128.079 162.686 131.165 161.404C132.829 160.713 134.535 160.706 136.303 160.872C138.833 161.109 141.003 162.131 142.939 163.67C144.345 164.787 145.543 166.13 146.637 167.563C149.348 171.118 150.863 175.221 152.167 179.422C152.885 181.734 153.605 184.045 154.095 186.423C154.498 188.38 154.712 190.356 154.925 192.338C155.224 195.116 155.387 197.898 155.338 200.69C155.273 204.448 154.587 208.106 153.475 211.69C153.306 212.239 153.406 212.911 152.759 213.303C152.568 213.415 152.464 213.36 152.348 213.2C151.482 212.66 150.528 212.692 149.612 212.617C144.605 212.208 139.602 212.276 134.6 212.719C133.974 212.774 133.473 213.084 132.942 213.46C132.778 213.554 132.7 213.703 132.481 213.639Z" fill="#DBFF9E"/>
<path d="M92.7065 147.329C92.7951 147.321 92.9152 147.349 93.0687 147.41C92.9821 147.418 92.8601 147.392 92.7065 147.329Z" fill="#AAC5B0"/>
<path d="M93.1357 147.482C93.2263 147.471 93.3464 147.498 93.4999 147.557C93.4113 147.567 93.2873 147.543 93.1357 147.482Z" fill="#AAC5B0"/>
<path d="M90.9089 60.4348C90.8814 60.4899 90.8085 60.5372 90.6904 60.5765C90.718 60.5214 90.7908 60.4742 90.9089 60.4348Z" fill="#AAC5B0"/>
<path d="M88.5993 61.4326C88.5737 61.4877 88.5048 61.535 88.3926 61.5763C88.4182 61.5232 88.4871 61.4759 88.5993 61.4326Z" fill="#AAC5B0"/>
<path d="M88.9021 61.2954C88.8765 61.3505 88.8036 61.4017 88.6875 61.445C88.7131 61.3899 88.784 61.3407 88.9021 61.2954Z" fill="#AAC5B0"/>
<path d="M90.9536 146.634C91.0087 146.618 91.0914 146.64 91.1997 146.695C91.1465 146.708 91.0619 146.691 90.9536 146.634Z" fill="#AAC5B0"/>
<path d="M91.2588 146.765C91.3159 146.749 91.4005 146.769 91.5127 146.824C91.4556 146.84 91.371 146.822 91.2588 146.765Z" fill="#AAC5B0"/>
<path d="M91.6733 146.924C91.7304 146.908 91.8111 146.928 91.9214 146.983C91.8662 146.997 91.7816 146.979 91.6733 146.924Z" fill="#AAC5B0"/>
<path d="M91.9785 147.051C92.0356 147.034 92.1202 147.053 92.2364 147.106C92.1793 147.124 92.0927 147.106 91.9785 147.051Z" fill="#AAC5B0"/>
<path d="M92.3979 147.206C92.455 147.19 92.5377 147.21 92.6499 147.263C92.5928 147.277 92.5082 147.259 92.3979 147.206Z" fill="#AAC5B0"/>
<path d="M88.298 61.5679C88.2724 61.621 88.2016 61.6683 88.0894 61.7116C88.1149 61.6584 88.1858 61.6092 88.298 61.5679Z" fill="#AAC5B0"/>
<path d="M89.4953 61.0251C89.4992 61.0643 89.4621 61.1014 89.3839 61.1346C89.3819 61.0936 89.4191 61.0584 89.4953 61.0251Z" fill="#AAC5B0"/>
<path d="M89.2026 61.1604C89.2065 61.1995 89.1693 61.2347 89.0931 61.2699C89.0891 61.2308 89.1263 61.1956 89.2026 61.1604Z" fill="#AAC5B0"/>
<path d="M60.4092 120.059C60.4463 120.053 60.4815 120.084 60.5167 120.155C60.4796 120.159 60.4424 120.127 60.4092 120.059Z" fill="#AAC5B0"/>
<path d="M59.9863 119.322C60.0254 119.316 60.0645 119.351 60.1017 119.426C60.0626 119.432 60.0254 119.396 59.9863 119.322Z" fill="#AAC5B0"/>
<path d="M59.8389 119.04C59.876 119.036 59.9132 119.071 59.9484 119.145C59.9093 119.149 59.8741 119.114 59.8389 119.04Z" fill="#AAC5B0"/>
<path d="M87.9062 61.7327C87.9101 61.7718 87.871 61.8089 87.7947 61.8402C87.7908 61.8011 87.828 61.7659 87.9062 61.7327Z" fill="#AAC5B0"/>
<path d="M136.069 58.6767C134.193 55.1517 134.803 51.8287 136.86 48.7116C137.816 47.2647 139.357 46.3335 141.054 46.0178C142.516 45.7453 143.932 46.2472 145.13 47.2059C149.484 50.6916 148.585 57.5298 145.069 60.4235C142.132 62.8447 138.233 62.137 136.069 58.6767Z" fill="#010201"/>
<path d="M106.608 46.6192C108.595 44.9234 111.186 44.3431 113.187 45.2038C115.524 46.2075 116.612 48.1033 116.761 50.552C116.964 53.8966 115.707 56.6099 113.018 58.635C111.583 59.7153 109.929 60.0152 108.184 59.829C107.142 59.7172 106.3 59.1801 105.617 58.3841C103.799 56.2629 103.404 53.8495 104.108 51.2048C104.565 49.4933 105.373 47.97 106.608 46.6192Z" fill="#010201"/>
<path d="M91.2569 60.4188C91.255 60.3875 91.2901 60.3543 91.3625 60.3191C91.3645 60.3504 91.3293 60.3836 91.2569 60.4188Z" fill="#4FB666"/>
<path d="M140.126 53.181C139.646 53.7652 139.118 54.2318 138.371 53.9437C137.614 53.6515 137.381 52.9418 137.33 52.1949C137.261 51.1931 137.616 50.3089 138.245 49.5502C138.865 48.8013 139.709 48.6425 140.568 49.1013C141.298 49.4914 141.229 50.1736 141.135 50.8598C141.019 51.7165 140.631 52.4439 140.126 53.181Z" fill="white"/>
<path d="M109.222 47.2075C110.203 47.3408 110.634 47.8506 110.644 48.9661C110.656 50.2365 110.211 51.35 109.279 52.2303C108.297 53.1576 107.048 52.8204 106.637 51.5363C106.052 49.715 107.39 47.4271 109.222 47.2075Z" fill="white"/>
<path d="M149.335 149.116C134.226 153.429 120.417 152.285 115.4 151.174C117.761 152.841 124.371 156.173 131.925 156.173C139.479 156.173 146.679 151.468 149.335 149.116Z" fill="#00C62E"/>
<ellipse cx="6.39269" cy="10.5878" rx="6.39269" ry="10.5878" transform="matrix(0.984074 0.177759 -0.17894 0.98386 108.721 70.7117)" fill="#FF5D5D"/>
<path d="M7.62734 25.6058C8.37737 21.5291 10.2812 18.147 13.1146 15.2896C16.8861 11.4805 21.3226 8.76053 26.6344 7.69839C33.4299 6.33768 39.0937 8.43748 43.648 13.5884C46.8178 17.1772 48.4615 21.3394 48.3004 26.1624C48.2357 28.0508 47.9743 29.9144 47.5326 31.747C47.063 33.6961 46.5581 35.6385 46.0708 37.5842C45.7705 38.7776 45.5504 39.9829 45.4869 41.2147C45.3927 43.0003 45.8066 44.6138 46.9973 46.0056C47.5879 46.6946 47.5684 46.7335 46.7604 47.2839C43.8866 49.2518 41.0045 51.2152 38.1212 53.1692C37.2258 53.7792 37.2151 53.7711 36.5676 52.9468C33.8545 49.4926 32.7921 45.5644 33.1779 41.2185C33.417 38.5145 34.1147 35.9029 34.8124 33.2913C35.1957 31.8672 35.5353 30.432 35.7511 28.9734C36.107 26.5742 35.8005 24.3392 34.1913 22.3821C32.2788 20.0577 29.4278 19.1258 26.5702 20.0325C24.8579 20.5739 23.3824 21.5279 22.1798 22.8646C19.7826 25.5274 19.4906 28.9999 21.3897 32.0455C22.2799 33.4781 23.4356 34.6991 24.5815 35.8909C24.5864 36.2871 24.276 36.3807 24.0557 36.5308C21.0455 38.5917 18.0233 40.6352 15.0143 42.7054C14.5306 43.0401 14.1905 43.2103 13.6678 42.6801C8.99767 37.9514 6.57647 32.4387 7.62734 25.6058Z" fill="#4B4B4B"/>
<path d="M49.1087 51.5753C53.2457 51.3442 56.3811 54.3366 57.3557 57.7404C58.3144 61.0834 56.8418 64.5405 53.6956 66.4481C52.4878 67.1787 51.2162 67.6966 49.7925 67.8057C46.5224 68.0661 43.3482 66.0122 41.9707 62.7394C39.6253 57.1801 43.6785 52.6668 47.9269 51.7451C48.2857 51.6697 48.6545 51.6388 49.1087 51.5753Z" fill="#4B4B4B"/>
<path d="M192.489 13.2281C195.096 12.7286 197.555 13.074 199.917 14.0919C203.064 15.4456 205.714 17.4456 207.578 20.3485C209.964 24.0617 210.022 27.9054 208.003 31.798C206.595 34.508 204.491 36.4463 201.575 37.4677C200.433 37.8666 199.26 38.1432 198.064 38.3058C196.792 38.4788 195.516 38.6292 194.242 38.791C193.46 38.8893 192.69 39.0379 191.94 39.2855C190.852 39.6432 189.985 40.2622 189.43 41.2904C189.155 41.8 189.128 41.7974 188.612 41.4459C186.772 40.1981 184.933 38.9443 183.099 37.6875C182.527 37.298 182.53 37.2898 182.872 36.715C184.305 34.3069 186.404 32.7675 189.087 31.9897C190.756 31.5053 192.477 31.3141 194.197 31.1229C195.136 31.0204 196.071 30.8893 196.991 30.6795C198.506 30.3348 199.769 29.6356 200.564 28.2285C201.509 26.5565 201.405 24.6506 200.202 23.1666C199.482 22.277 198.571 21.6233 197.495 21.2199C195.35 20.4155 193.21 21.0465 191.832 22.8776C191.183 23.737 190.722 24.7049 190.276 25.6601C190.041 25.7548 189.913 25.5925 189.772 25.4966C187.845 24.1894 185.926 22.8711 183.993 21.5668C183.681 21.3576 183.501 21.1954 183.697 20.7627C185.437 16.8993 188.167 14.1874 192.489 13.2281Z" fill="#4B4B4B"/>
<path d="M186.595 43.8314C187.691 46.2303 186.631 48.7818 184.825 50.1478C183.052 51.4903 180.647 51.4179 178.78 49.9946C178.064 49.4478 177.461 48.8139 177.066 47.9953C176.153 46.1171 176.644 43.7598 178.278 42.1853C181.053 39.5076 184.686 40.8652 186.22 43.1701C186.348 43.3654 186.452 43.5769 186.595 43.8314Z" fill="#4B4B4B"/>
<path d="M6.04329 84.3305C4.8703 81.9573 4.55381 79.5021 4.91397 76.9631C5.39128 73.5806 6.62531 70.5038 8.94113 67.9444C11.9031 64.669 15.6071 63.596 19.9081 64.5073C22.9031 65.1434 25.3352 66.6523 27.0951 69.1846C27.7833 70.1767 28.3612 71.2306 28.835 72.3372C29.339 73.514 29.8222 74.7007 30.3159 75.8825C30.6179 76.6079 30.9655 77.309 31.4035 77.9642C32.0373 78.9147 32.8658 79.5844 34.0075 79.8458C34.5733 79.9747 34.5781 80.002 34.3744 80.5906C33.6538 82.6892 32.9271 84.7886 32.1962 86.8837C31.9704 87.5359 31.9619 87.5358 31.3152 87.3591C28.6057 86.6187 26.5608 85.0091 25.0984 82.6361C24.188 81.16 23.5478 79.5572 22.9076 77.9544C22.56 77.0794 22.1857 76.2151 21.7392 75.3859C21.005 74.0217 19.9942 72.9928 18.4221 72.6006C16.5543 72.1353 14.7376 72.7395 13.6198 74.2882C12.9494 75.2152 12.5578 76.2638 12.4522 77.4049C12.2412 79.6787 13.4181 81.5687 15.5545 82.4086C16.5579 82.8049 17.6164 82.992 18.6588 83.1679C18.8127 83.369 18.6894 83.5347 18.6338 83.6953C17.8788 85.8932 17.1109 88.0868 16.3601 90.2891C16.2401 90.6441 16.1309 90.8603 15.6605 90.787C11.4614 90.136 8.11502 88.2301 6.04329 84.3305Z" fill="#4B4B4B"/>
<path d="M37.2172 81.8984C39.2486 80.2105 41.998 80.5541 43.7977 81.9283C45.5658 83.2774 46.132 85.6074 45.2487 87.7784C44.909 88.611 44.4553 89.3588 43.7675 89.9548C42.1915 91.3289 39.7806 91.4808 37.8246 90.3266C34.4993 88.3681 34.8519 84.5179 36.6765 82.4339C36.8316 82.2591 37.0087 82.1033 37.2172 81.8984Z" fill="#4B4B4B"/>
</svg>
