<svg width="120" height="120" fill="none" xmlns="http://www.w3.org/2000/svg"><path d="M7.183 92.982c-.417-.224-.803-.404-1.182-.597-2.414-1.222-3.68-3.197-3.922-5.88-.145-1.602-.076-3.197.054-4.793a43.69 43.69 0 0 1 1.224-7.24c.212-.832.48-1.628.828-2.403.546-1.22 1.112-2.433 1.776-3.594a9.542 9.542 0 0 1 2.881-3.165c1.532-1.06 3.219-1.377 5.04-1.086.14.023.28.04.473.052.608-.106 1.075.166 1.555.359 1.995.804 3.317 2.307 4.3 4.213.075.15.11.264.163.376.211.454.337.492.7.134 1.096-1.086 2.294-2.043 3.539-2.95.335-.244.423-.49.2-.87a20.26 20.26 0 0 1-2.683-8.24c-.01-.102-.055-.196-.082-.343.025-.779.157-1.495.409-2.235.347-.3.723-.224 1.079-.195 5.653.484 10.736-1.006 15.182-4.513 4.363-3.44 7.026-7.95 7.807-13.44.985-6.916-.905-12.99-5.785-18.074a22.134 22.134 0 0 0-2.833-2.48c-.146-.11-.303-.208-.381-.434-.344-1.907-.015-3.602 1.264-5.046 1.108-1.253 2.554-1.915 4.165-2.217 1.909-.356 3.799-.17 5.67.302 2.34.591 4.507 1.599 6.638 2.703 1.747.905 3.468 1.865 5.127 2.92.62.397 1.238.516 1.957.447 4.656-.442 9.245-.121 13.73 1.27 2.997.93 5.752 2.322 8.166 4.344 2.08 1.743 3.723 3.83 4.884 6.29.094.199.207.39.335.632.243-.213.25-.486.31-.718.42-1.567.721-3.162.99-4.76.54-3.22.967-6.456 1.71-9.637.443-1.9 1.043-3.749 1.929-5.494.786-1.548 1.756-2.971 3.023-4.165 1.794-1.687 3.891-2.62 6.402-2.431 2.087.157 3.868 1.004 5.364 2.454 1.408 1.364 2.376 3.019 3.14 4.806.943 2.205 1.411 4.52 1.591 6.9.354 4.698-.252 9.31-1.287 13.877-1.236 5.459-3.212 10.661-5.464 15.774-3.279 7.446-7.424 14.363-12.499 20.726-.05.063-.092.137-.15.191-.307.279-.296.553-.095.912.767 1.36 1.44 2.77 2.076 4.194 1.536 3.43 2.76 6.97 3.747 10.594.017.059.025.12.042.178.155.572.157.577.727.407 2.826-.84 5.674-.951 8.53-.2 4.276 1.128 6.996 4.363 7.436 8.763.249 2.498-.218 4.889-1.077 7.215-1.314 3.555-3.415 6.614-5.995 9.363-.616.658-.622.665.128 1.178 2.152 1.473 4.149 3.124 5.869 5.092.535.611 1.044 1.244 1.469 1.938.31.503.572 1.026.721 1.603.304 1.175-.038 2.139-1.05 2.803-1.255.826-2.659 1.05-4.134.939-2.03-.151-4.004-.612-5.98-1.075-3.533-.83-6.873-2.179-10.154-3.692a82.05 82.05 0 0 1-3.16-1.567c-2.675-1.377-5.477-2.437-8.362-3.273-1.324-.384-2.705-.524-4.105-.792-.297-.185-.312-.463-.364-.717-1.113-5.332-2.883-10.43-5.448-15.241-1.766-3.31-3.882-6.376-6.642-8.949-1.735-1.62-3.673-2.927-5.963-3.671-3.866-1.255-7.334.186-9.674 2.948-1.806 2.131-2.894 4.63-3.63 7.294-.773 2.805-1.127 5.668-1.271 8.578-.195 3.912.218 7.763.806 11.61.038.241.099.48-.016.763a2.335 2.335 0 0 1-.45.266 32.846 32.846 0 0 0-3.43 1.701c-2.352 1.331-4.86 2.246-7.531 2.636-3.194.465-6.404.824-9.643.681-1.383-.061-2.749-.23-4.082-.616-.865-.249-1.678-.61-2.386-1.173-.855-.681-1.442-1.528-1.595-2.638-.096-.708.055-1.371.35-2.008.39-.84.98-1.533 1.612-2.198.266-.278.549-.54.819-.815.276-.282.28-.295-.053-.542-1.146-.849-2.195-1.8-3.111-2.896-1.452-1.741-2.544-3.671-2.92-5.932-.495-2.96.278-5.5 2.601-7.493.088-.075.216-.125.227-.305-.432-.13-.87-.262-1.308-.399-.197-.06-.35-.004-.492.14-.951.956-2.035 1.736-3.256 2.396-.206.243-.453.33-.702.415-1.85.624-3.721.672-5.607.188-.275-.077-.553-.147-.811-.373Z" fill="#00CF4B"/><path d="M48.97 111.983c-.43-2.238-.75-4.486-.901-6.753-.333-5.073-.092-10.093 1.404-14.994.618-2.029 1.473-3.95 2.709-5.687.448-.629.939-1.224 1.498-1.758 2.682-2.56 5.794-3.292 9.32-2.137 2.345.769 4.291 2.183 6.051 3.868 2.712 2.596 4.786 5.661 6.533 8.957 2.632 4.964 4.388 10.236 5.511 15.778-.802.044-1.597-.136-2.4-.231-4.355-.515-8.72-.708-13.103-.463-4.977.279-9.86 1.06-14.588 2.686-.668.233-1.328.491-2.034.734Z" fill="#DBFF9E"/><path d="M37.477 15.518c1.788 1.257 3.363 2.675 4.719 4.339 6.529 8.012 6.32 19.792-.505 27.547-3.594 4.081-8.107 6.468-13.488 7.212a19.4 19.4 0 0 1-4.676.075c-.283-.029-.566-.042-.903-.054-.31.107-.57.08-.83.025-1.123-.233-2.259-.417-3.321-.976-.189-.208-.413-.252-.618-.336-7.252-2.96-11.818-8.247-13.38-15.907-1.248-6.114.077-11.753 3.92-16.748a29.097 29.097 0 0 1 5.466-5.429c1.775-1.35 3.807-2.148 5.955-2.667 6.097-1.473 11.838-.641 17.192 2.673.136.086.285.153.47.245ZM20.176 68.936a1.095 1.095 0 0 1-.278-.34c-1.17-2.229-2.942-3.696-5.452-4.301.251-1.176.54-2.328.831-3.478.105-.413.256-.537.684-.524.22.006.437.05.706.073.268-.134.484-.042.695.01 1.199.292 2.391.602 3.625.952.838.335.96.528.792 1.34-.398 1.937-.861 3.858-1.307 5.784-.04.176-.088.354-.296.484Z" fill="#FF52B0"/><path d="M21.007 61.44c-1.429-.335-2.814-.695-4.247-1.068a304.73 304.73 0 0 1 1.674-6.678c1.341.354 2.676.713 4.09.93-.092.774-.224 1.522-.362 2.324.054.484-.063.895-.166 1.304-.213.86-.44 1.718-.66 2.577-.052.212-.113.427-.329.612Z" fill="#FFC8F6"/><path d="M7.13 92.984c.946.237 1.884.459 2.854.503a9.902 9.902 0 0 0 4.24-.715 68.828 68.828 0 0 1-.766 3.479c-.107.435-.29.549-.76.526a10.911 10.911 0 0 1-1.982-.283 149.474 149.474 0 0 1-3.005-.748c-.972-.256-1.119-.512-.895-1.477.099-.415.2-.828.315-1.285Z" fill="#FF52B0"/><path d="M70.622 65.99c.025.285-.189.465-.344.669-1.276 1.657-2.705 3.174-4.23 4.6-1.603 1.501-3.346 2.823-5.314 3.812-1.982.998-4.063 1.7-6.275 2.01a34.065 34.065 0 0 1-6.056.324c-2.983-.113-5.79-.898-8.356-2.451-.216-.13-.471-.233-.63-.51.272-.09.505.038.71.093.509.134 1.035.186 1.538.335.59.174 1.207.183 1.802.21 1.052.046 2.097.188 3.153.157 3.095-.092 6.106-.564 9.01-1.714 2.676-1.06 5.324-2.18 7.887-3.489a84.615 84.615 0 0 0 6.85-3.93 1.1 1.1 0 0 1 .255-.116Z" fill="#00C62E"/><path d="M50.384 17.252c-.488.926-1.014 1.781-1.441 2.668.161.127.264.098.36.075.945-.25 1.917-.32 2.883-.438.53-.063.962.088 1.291.507.291.371.245.77-.12 1.073-.19.16-.419.243-.651.32-1.87.63-3.77 1.12-5.727 1.377a2.64 2.64 0 0 1-.968-.035c-.693-.168-1.007-.684-.827-1.369.077-.297.214-.57.37-.83.92-1.529 1.842-3.054 2.766-4.582.212-.35.466-.664.797-.911.226-.168.46-.258.727-.076.065.044.144.071.22.099.71.264.905.65.664 1.362-.086.247-.214.48-.344.76Z" fill="#00CF4B"/><path d="M47.582 44.843c-.15-.331-.136-.624-.08-.932.32-1.748 1.293-3.074 2.653-4.155.928-.74 2.005-1.216 3.078-1.702.442-.2.885-.404 1.318-.622 1.538-.771 2.462-2.001 2.743-3.705.03-.18.059-.36.111-.534.09-.297.287-.498.608-.509.316-.01.54.166.662.448.123.285.138.587.082.895-.315 1.72-1.216 3.066-2.615 4.09-.625.457-1.323.786-2.03 1.092-1.134.492-2.278.966-3.255 1.754-.972.783-1.628 1.791-2.127 2.916-.09.206-.117.426-.157.646-.11.626-.438.741-.99.318Z" fill="#060C05"/><path d="M70.664 65.988c.015.005.009-.106.021-.004l-.02.004Z" fill="#44702B"/><path d="M11.548 21.773a21.997 21.997 0 0 1 7.273-5.268c3.593-1.628 7.3-1.8 11.065-.849 6.892 1.74 12.025 7.198 13.322 14.183 1.012 5.457-.4 10.343-3.845 14.632-2.652 3.304-6.084 5.475-10.244 6.353C19.274 52.9 9.648 46.56 7.697 36.649c-.81-4.123-.21-8.065 1.706-11.807.57-1.108 1.299-2.104 2.145-3.07Z" fill="#DBFF9E"/><path d="M36.363 36.093c-.497 2.607-1.64 4.8-3.646 6.487-3.176 2.67-7.535 2.959-11.18.696-3.313-2.056-5.262-5.041-5.8-8.92-.264-1.913-.17-3.809.392-5.66.62-2.044 1.695-3.842 3.407-5.141 2.822-2.143 5.959-2.642 9.313-1.416 2.588.945 4.49 2.723 5.863 5.07 1.603 2.739 2.198 5.685 1.651 8.884Z" fill="#060705"/><path d="M28.897 24.591c1.255.98 1.94 2.215 1.959 3.78.01.803-.281 1.507-.8 2.114-1.161 1.36-3.17 1.758-4.767.95-1.526-.771-2.412-2.687-2.006-4.375.304-1.26 1.165-2.056 2.282-2.615 1.117-.558 2.221-.58 3.332.146Z" fill="#FBFBFB"/><path d="M25.66 39.983c-.193.694-.598 1.106-1.279 1.182-.653.07-1.142-.23-1.454-.788-.345-.614-.335-1.243.059-1.836.27-.408.685-.553 1.163-.5.989.104 1.58.846 1.51 1.942Z" fill="#F5F4F3"/><path fill-rule="evenodd" clip-rule="evenodd" d="M48.462 12.603c.61.163.972.789.81 1.398l-1.157 4.337 5.45-1.032a1.142 1.142 0 0 1 .425 2.244l-9.017 1.709 2.091-7.846c.163-.61.789-.972 1.398-.81Z" fill="#000"/><g fill="#A0FF56"><path d="M78.119 20.352c2.767-2.792 6.063-4.425 9.803-5.151 4.982-.97 9.9-.734 14.614 1.267 6.031 2.56 9.327 7.225 10.124 13.688.552 4.5-.393 8.636-3.1 12.327a26.542 26.542 0 0 1-3.588 3.964c-1.41 1.275-2.844 2.527-4.265 3.79-.873.774-1.69 1.6-2.4 2.532-1.028 1.347-1.569 2.832-1.385 4.557.092.854.056.874-.869.874-3.296.008-6.596.008-9.891 0-1.026 0-1.03-.012-1.094-1.003-.268-4.152 1.005-7.794 3.633-10.991 1.633-1.99 3.576-3.663 5.518-5.336 1.061-.91 2.095-1.853 3.044-2.88 1.561-1.689 2.519-3.602 2.31-5.993-.248-2.84-1.974-5.09-4.69-5.905a9.27 9.27 0 0 0-4.941-.124c-3.296.806-5.382 3.37-5.53 6.767-.073 1.597.176 3.17.432 4.714-.208.313-.5.22-.753.22-3.452.008-6.904-.004-10.36.012-.557.004-.913-.044-1.037-.738-1.114-6.193-.053-11.802 4.425-16.591ZM96.589 62.813c3.352 2.026 4.197 6.041 3.135 9.226-1.04 3.13-4.04 5.05-7.517 4.866-1.333-.072-2.603-.345-3.772-1.019-2.691-1.54-4.069-4.841-3.392-8.139 1.145-5.604 6.724-6.976 10.532-5.431.32.132.625.304 1.014.497Z"/></g></svg>