<svg width="112" height="99" viewBox="0 0 112 99" fill="none" xmlns="http://www.w3.org/2000/svg">
<path fill-rule="evenodd" clip-rule="evenodd" d="M0 99H112C105.715 85.7859 83.0261 76 56 76C28.9738 76 6.28531 85.7859 0 99Z" fill="#00722A"/>
<path d="M22.771 23.0664C19.1224 28.7514 20.473 36.8194 21.6043 40.1427C22.665 41.6983 24.6378 43.7065 24.0438 39.2942C23.4498 34.8819 26.2004 27.9807 27.65 25.0816L24.0438 26.9908L22.771 23.0664Z" fill="#DD5050"/>
<path d="M30.2487 68.541C30.2487 68.541 29.1159 73.0763 31.6742 76.9052C31.6742 76.9052 26.6786 82.2063 27.7477 84.6967C27.7477 84.6967 29.5253 90.0084 46.4659 84.964C46.4659 84.964 62.4603 86.7883 73.9386 84.0921C73.9386 84.0921 85.6056 89.3762 92.1583 87.1595C92.1583 87.1595 97.6715 85.0297 89.3645 77.3422C89.3645 77.3422 92.031 68.7743 84.7338 62.5293" fill="#00CF4B"/>
<path d="M74.0018 84.1118C73.9785 84.1055 73.9573 84.0991 73.9339 84.0906C73.7685 83.9315 73.5797 83.9358 73.3675 83.9824C72.273 84.2221 71.1741 84.4534 70.0668 84.6315C70.0265 84.4724 70.1177 84.3494 70.1771 84.22C71.0914 82.2048 71.5687 80.0793 71.7129 77.8837C71.7851 76.7955 71.7745 75.7009 71.6705 74.6064C71.5729 73.5754 71.4329 72.553 71.2017 71.5432C71.015 70.735 70.8284 69.9247 70.4953 69.1589C70.7181 68.8344 70.6862 68.5119 70.5165 68.1704C70.2577 67.6464 70.0265 67.1098 69.7783 66.5816C69.5768 66.1531 69.5811 66.2188 69.2395 66.3673C68.2616 66.7958 67.2625 67.1628 66.2294 67.4407C63.0327 68.2998 59.7807 68.6328 56.4737 68.5246C54.3969 68.4568 52.3393 68.2319 50.2944 67.8819C48.4043 67.5595 46.5461 67.1182 44.7684 66.3843C43.572 65.8921 42.4477 65.2727 41.5568 64.3054C40.371 63.0178 39.8916 61.5032 40.2289 59.7786C40.5831 57.9628 41.4126 56.3612 42.6323 54.976C43.5402 53.9451 44.6518 53.2048 46.02 52.9184C46.9258 52.7296 47.8443 52.6808 48.767 52.7381C49.9613 52.8102 51.1577 52.8844 52.3478 52.999C54.3545 53.1899 56.3655 53.3066 58.3786 53.3851C59.925 53.4445 61.4735 53.4529 63.0221 53.4784C63.6436 53.489 63.7051 53.5548 63.3912 52.8802C62.6296 51.2532 61.866 49.6283 61.1065 47.9991C59.3713 44.2805 57.6382 40.5598 55.903 36.8412C54.9082 34.7093 53.9154 32.5795 52.9184 30.4498C52.1187 28.7443 51.3147 27.0387 50.5065 25.3375C50.2413 24.7796 49.9889 24.6926 49.414 24.9217C49.3589 24.9429 49.3058 24.9663 49.2528 24.9917C48.1328 25.4923 47.0127 25.9908 45.8927 26.4936C42.1911 28.1609 38.4916 29.8346 34.7878 31.4977C34.1896 31.7671 33.6126 32.0832 32.9805 32.2698C33.0929 31.7395 33.0483 31.1965 33.112 30.6619C33.2053 29.877 33.3347 29.0985 33.5638 28.3497C33.8438 27.4333 34.2108 26.5466 34.6542 25.6875C35.77 23.5238 37.3249 21.7292 39.1661 20.1658C41.4507 18.2248 44.0472 16.8248 46.8473 15.7811C47.6279 15.4905 48.4192 15.2338 49.2104 14.975C49.4204 14.905 49.6134 14.8159 49.7513 14.6271C50.6741 13.3692 51.6138 12.1261 52.6278 10.9382C53.6439 9.75031 54.6706 8.57936 55.8606 7.55902C56.9446 6.6299 58.1198 5.85563 59.4562 5.34016C60.9283 4.76954 62.4175 4.6062 63.9342 5.17894C65.5994 5.80896 66.4055 7.08598 66.6876 8.77239C66.7916 9.39605 66.7555 10.024 66.7661 10.6497C66.7661 10.7664 66.7046 10.9106 66.8531 11.004C67.0482 10.9106 67.1055 10.7219 67.1883 10.5543C67.4343 10.0579 67.6231 9.53393 67.9286 9.06725C68.7177 7.86449 69.7444 7.03931 71.2378 6.8887C71.5645 6.85476 71.8763 6.90355 72.1924 6.90142C72.8287 6.89506 73.3994 7.13689 73.9509 7.38932C75.1431 7.93661 76.0637 8.82331 76.8571 9.85637C77.8265 11.1207 78.5223 12.5313 79.0653 14.0183C79.8926 16.2839 80.4887 18.6173 81.0126 20.9655C81.1272 21.481 81.3902 21.8331 81.7678 22.145C82.873 23.0592 83.8976 24.052 84.8416 25.1338C86.4834 27.0154 87.8517 29.0752 88.8741 31.3577C89.3472 32.412 89.7629 33.4917 90.0302 34.6138C90.289 35.7063 90.4078 36.8285 90.4375 37.9549C90.4693 39.1407 90.4439 40.3243 90.1808 41.4847C89.782 43.2538 89.0735 44.8936 88.0426 46.3933C87.3213 47.4455 86.4686 48.3767 85.5543 49.2634C84.6358 50.1522 83.6324 50.9223 82.5569 51.6032C81.8781 52.0338 81.1739 52.4199 80.4547 52.7763C80.1981 52.9035 80.2023 52.9163 80.3932 53.1814C82.2557 56.1067 83.6727 59.2398 84.7334 62.5384C84.8076 62.7675 84.9264 62.9499 85.1152 63.1069C86.7719 64.4751 87.9535 66.1955 88.8381 68.1343C89.5826 69.7677 89.9135 71.4966 89.9305 73.2827C89.9411 74.477 89.7163 75.6394 89.2453 76.7425C89.135 77.0013 89.1859 77.1477 89.3641 77.3513C90.3696 78.5095 91.4515 79.602 92.3679 80.8366C92.8664 81.5069 93.3118 82.209 93.6343 82.9833C93.8188 83.4309 93.9525 83.8933 93.9991 84.377C93.9122 84.5509 93.91 84.7249 93.9991 84.8988C93.9822 85.007 93.9631 85.1173 93.9461 85.2255C93.8719 85.2891 93.84 85.3634 93.8909 85.4567C93.6937 86.0528 93.3182 86.5089 92.79 86.8419C92.7348 86.8355 92.7009 86.8589 92.6839 86.9119C92.6648 86.9225 92.6436 86.9331 92.6245 86.9416C92.4357 86.9522 92.2809 87.0328 92.1557 87.1728C92.1345 87.1813 92.1112 87.1877 92.09 87.194C92.0327 87.1983 91.9712 87.1898 91.9182 87.2068C90.953 87.5334 89.956 87.6225 88.9462 87.6225C87.6013 87.6225 86.2755 87.455 84.9519 87.2343C84.4661 87.1537 83.9909 86.9946 83.4903 86.9968C83.2464 86.8546 82.9812 86.8122 82.7033 86.8207C82.2536 86.6298 81.7848 86.5195 81.299 86.4728C81.2036 86.3646 81.0784 86.371 80.9511 86.3816C80.6796 86.2098 80.3784 86.1483 80.0623 86.1313C80.039 86.127 80.0156 86.1207 79.9902 86.1143C79.7208 85.9467 79.4238 85.864 79.1077 85.8555C79.0823 85.8492 79.0568 85.8407 79.0335 85.8322C78.7959 85.6582 78.5244 85.5988 78.238 85.5882H78.2338C78.1659 85.497 78.0725 85.4907 77.9707 85.5055C77.9028 85.4122 77.8095 85.4058 77.7077 85.4207C77.6419 85.3273 77.5465 85.3188 77.4446 85.3358C77.3789 85.2425 77.2834 85.234 77.1816 85.2488C77.1159 85.1555 77.0204 85.1449 76.9186 85.1619C76.8528 85.0685 76.7573 85.0579 76.6534 85.0728C76.628 85.0664 76.6046 85.0579 76.5813 85.0494C76.5346 84.9837 76.4689 84.9688 76.3946 84.9858C76.3289 84.8925 76.2355 84.8819 76.1337 84.8967C76.0701 84.8034 75.9746 84.7949 75.8749 84.8076C75.8304 84.7334 75.7646 84.7185 75.6861 84.7376C75.6628 84.7312 75.6394 84.7249 75.6161 84.7164C75.5694 84.6443 75.5037 84.6273 75.4252 84.6464C75.4019 84.64 75.3785 84.6337 75.3573 84.6252C75.2385 84.4852 75.0794 84.4533 74.9076 84.4618C74.8821 84.4555 74.8588 84.447 74.8355 84.4364C74.7909 84.3706 74.7252 84.3558 74.6509 84.3685C74.6064 84.2943 74.5406 84.2773 74.4621 84.2964C74.4388 84.29 74.4155 84.2836 74.3942 84.2752C74.2967 84.1564 74.1694 84.1076 74.0188 84.1309L74.0018 84.1118Z" fill="#00CF4B"/>
<path d="M32.9813 32.2674C33.6135 32.0787 34.1926 31.7626 34.7887 31.4953C38.4924 29.8322 42.1919 28.1585 45.8936 26.4912C47.0115 25.9863 48.1336 25.49 49.2537 24.9893C49.3067 24.966 49.3598 24.9405 49.4149 24.9193C49.9898 24.6923 50.2422 24.7793 50.5074 25.3351C51.3156 27.0364 52.1195 28.7419 52.9193 30.4474C53.9184 32.5772 54.9111 34.7069 55.9039 36.8388C57.6391 40.5574 59.3722 44.2781 61.1074 47.9967C61.8668 49.6238 62.6326 51.2508 63.392 52.8778C63.7081 53.5524 63.6445 53.4866 63.0229 53.476C61.4744 53.4506 59.9259 53.4442 58.3794 53.3827C56.3663 53.3042 54.3554 53.1875 52.3486 52.9966C51.1565 52.8842 49.9622 52.8078 48.7679 52.7357C47.8473 52.6805 46.9266 52.7272 46.0209 52.916C44.6526 53.2024 43.5411 53.9427 42.6332 54.9736C41.4134 56.3567 40.584 57.9604 40.2298 59.7762C39.8925 61.5008 40.3719 63.0154 41.5577 64.303C42.4486 65.2703 43.5729 65.8876 44.7693 66.3819C46.5469 67.1137 48.4073 67.5571 50.2952 67.8795C52.3402 68.2274 54.3978 68.4523 56.4745 68.5223C59.7816 68.6305 63.0335 68.2974 66.2303 67.4383C67.2612 67.1604 68.2625 66.7934 69.2404 66.3649C69.5819 66.2164 69.5777 66.1486 69.7792 66.5792C70.0274 67.1074 70.2586 67.6462 70.5174 68.168C70.6871 68.5095 70.7189 68.832 70.4962 69.1565C68.6507 70.0008 66.8094 70.8514 64.9618 71.6893C62.2635 72.9133 59.5631 74.1331 56.8627 75.3507C55.2399 76.0825 53.6129 76.8101 51.9923 77.5441C50.8489 78.0617 49.7098 78.5899 48.5685 79.1138C48.4858 79.1393 48.3988 79.1541 48.3203 79.1881C47.4548 79.5741 46.5894 79.9645 45.7239 80.3526C43.3141 81.4324 40.9001 82.5036 38.4967 83.5982C37.7563 83.9355 37.4933 83.8825 37.1136 83.0615C36.019 80.7069 34.9075 78.3586 33.8086 76.004C32.9177 74.1012 32.0395 72.1921 31.1443 70.2914C30.8855 69.7399 30.6607 69.1693 30.3319 68.6495C30.3297 68.5923 30.2894 68.5626 30.2449 68.535C30.1919 68.3292 30.1176 68.1341 29.9882 67.9644C29.9118 67.6759 29.8037 67.4044 29.6106 67.171C29.2203 66.1443 28.7133 65.1706 28.2551 64.1758C28.8915 63.2806 29.2818 62.2815 29.4812 61.2038C29.8864 58.9998 29.7591 56.8149 29.2542 54.6448C28.9 53.1239 28.3272 51.7005 27.3854 50.432C26.0808 48.6713 24.3668 47.8801 22.1777 48.1304C21.7385 48.1813 21.3228 48.3128 20.8964 48.4104C19.8145 46.0812 18.7348 43.7499 17.6466 41.4229C17.4366 40.9732 17.3242 40.4874 17.0654 40.0568C16.936 39.8404 17.0081 39.6028 17.199 39.4204C17.3178 39.3059 17.4642 39.2401 17.6105 39.1786C20.0267 38.1476 22.4046 37.0297 24.8017 35.9564C26.9187 35.0081 29.0315 34.0451 31.1443 33.0884C31.2907 33.0226 31.4455 32.9717 31.5664 32.8635C31.6831 32.8826 31.7701 32.8359 31.8422 32.749C32.154 32.5835 32.5168 32.5241 32.8031 32.3078C32.8625 32.295 32.9198 32.2802 32.9792 32.2674H32.9813Z" fill="#F49F2A"/>
<path d="M69.883 84.8436C60.456 86.4579 50.6175 85.3102 50.6175 85.3102C48.5684 81.9926 48.8038 80.024 48.5684 79.1331C49.7096 78.6091 50.8487 78.083 51.9921 77.5633C53.6149 76.8294 55.2398 76.1018 56.8626 75.3699C59.563 74.1502 62.2634 72.9326 64.9616 71.7086C66.8093 70.8707 68.6505 70.0201 70.496 69.1758C70.8291 69.9416 73.6949 77.4403 71.2024 84.6378" fill="#D1FF6C"/>
<path d="M20.8989 48.4137C21.3253 48.3162 21.7411 48.1846 22.1802 48.1337C24.3693 47.8813 26.0812 48.6747 27.3879 50.4353C28.3276 51.7038 28.9004 53.1293 29.2568 54.6482C29.7637 56.8183 29.8889 59.0053 29.4837 61.2072C29.2865 62.2848 28.8961 63.2818 28.2576 64.1791C27.7019 64.7073 27.1567 65.2482 26.4079 65.5091C26.2976 65.4816 26.2 65.5028 26.1194 65.5855C26.096 65.5813 26.0748 65.5855 26.0557 65.6004C25.8436 65.6067 25.6251 65.5791 25.4236 65.6767C25.3706 65.6746 25.3175 65.6704 25.2645 65.6682C25.239 65.6513 25.2136 65.6534 25.1903 65.6725H25.186C24.7957 65.5728 24.4075 65.471 24.0172 65.3713C23.9132 65.3246 23.8093 65.2779 23.7032 65.2313C23.682 65.1803 23.646 65.1591 23.5908 65.1676C22.3626 64.4061 21.3041 63.4536 20.411 62.3166C19.641 61.3387 18.9261 60.3247 18.4022 59.1898C17.6661 57.5946 17.1845 55.9316 17.2185 54.1582C17.2439 52.8599 17.6109 51.6529 18.3003 50.552C18.8158 49.7268 19.5222 49.1074 20.3983 48.6789C20.568 48.5962 20.7568 48.5516 20.8968 48.4116L20.8989 48.4137Z" fill="#00CF4B"/>
<path d="M31.5 4.5C33.3333 6.66667 37 11.1 37 11.5V2.5L31.5 4.5Z" fill="#FFEB7C"/>
<path fill-rule="evenodd" clip-rule="evenodd" d="M58.9571 8.55808C59.2257 8.35318 59.6169 8.40807 59.8308 8.68066L63.7707 13.7028L57.5915 13.7802C57.2484 13.7845 56.959 13.5115 56.9452 13.1705C56.9313 12.8295 57.1982 12.5496 57.5414 12.5453L61.271 12.4987L58.8578 9.42265C58.6439 9.15005 58.6884 8.76297 58.9571 8.55808Z" fill="black"/>
<path fill-rule="evenodd" clip-rule="evenodd" d="M74.7037 12.7527C74.5841 12.4364 74.2231 12.2752 73.8973 12.3926L67.8955 14.5546L73.0993 17.9015C73.3883 18.0873 73.7783 18.0098 73.9705 17.7283C74.1627 17.4468 74.0843 17.0679 73.7953 16.8821L70.6544 14.862L74.3305 13.5378C74.6562 13.4204 74.8233 13.0689 74.7037 12.7527Z" fill="black"/>
<path d="M64.4532 20.2336C66.0505 20.8226 67.3747 21.5422 68.5588 22.5113C68.7024 22.6291 68.8249 22.7763 68.9716 22.8901C69.1656 23.0403 69.1846 23.2117 69.0904 23.424C68.9842 23.6641 68.8443 23.8815 68.6882 24.0878C67.8038 25.2585 66.692 26.16 65.3937 26.8277C64.1648 27.4586 62.8594 27.4509 61.5634 27.1502C59.7374 26.727 58.469 25.5758 57.664 23.9004C57.3212 23.1883 57.1394 22.4243 57.0647 21.6356C57.0147 21.1121 56.9782 20.5884 57.0189 20.0613C57.0466 19.7056 57.0645 19.6665 57.4203 19.5904C58.7517 19.301 60.0892 19.3223 61.4302 19.4974C62.5229 19.6412 63.5888 19.8935 64.4526 20.2351L64.4532 20.2336Z" fill="#FF5D5D"/>
<rect x="25.9102" y="41.5762" width="22.2735" height="4.03043" transform="rotate(-23.7278 25.9102 41.5762)" fill="#F5D4A7"/>
<path d="M21.9414 6.49861L34.0352 15.3281L15.7961 13.1332L21.9414 6.49861Z" fill="#FF7777"/>
</svg>
