<svg width="112" height="102" viewBox="0 0 112 102" fill="none" xmlns="http://www.w3.org/2000/svg">
<path fill-rule="evenodd" clip-rule="evenodd" d="M0 102H111.998C105.713 88.7859 83.0249 79 55.9991 79C28.9734 79 6.28522 88.7859 0 102Z" fill="#00722A"/>
<path d="M25.451 69.7907C25.451 69.7907 22.3446 74.4602 26.2902 80.3167C26.2902 80.3167 30.714 86.1861 35.89 84.6427C35.89 84.6427 38.8226 83.7775 34.4987 76.4624C34.4987 76.4624 29.6966 68.4081 25.451 69.7929V69.7907Z" fill="#00B944"/>
<path d="M49.5553 80.592C49.5553 80.592 59.3682 78.8072 65.1812 80.4855C70.9941 82.1637 68.2985 65.3226 68.2985 65.3226L62.0791 59.4336H50.3031L44.3597 65.7618L43.2598 76.5486L47.7184 80.2898L49.5575 80.592H49.5553Z" fill="#D1FF6C"/>
<path d="M25.4512 69.7911C25.9773 68.9803 26.712 68.4172 27.6359 68.1716C29.3707 67.7129 31.0772 67.8477 32.7272 68.5672C32.8771 68.6324 32.9771 68.6194 33.1032 68.5281C34.2641 67.6738 35.4575 66.8629 36.6575 66.0673C36.8075 65.9694 36.9032 65.8499 36.9314 65.6694C37.4032 62.6999 38.5923 59.9978 40.0401 57.3957C40.7379 56.1435 41.5075 54.937 42.4357 53.8392C42.9661 53.2131 43.5639 52.6501 44.1987 52.1305C44.4205 51.9501 44.3726 51.8914 44.1705 51.7479C41.714 49.9892 39.4249 48.0436 37.5162 45.685C37.0184 45.0697 36.5858 44.4024 36.2401 43.6937C35.1684 41.4828 34.0858 39.2742 33.2837 36.9438C32.1554 33.6612 31.5728 30.2765 31.3837 26.8178C31.2272 23.9331 31.3293 21.0549 31.6706 18.1854C31.7011 17.931 31.6337 17.8223 31.3772 17.7549C30.262 17.4615 29.3859 16.8158 28.7359 15.868C27.7381 14.4137 27.949 12.8898 29.2989 11.755C30.4424 10.7942 31.8054 10.379 33.2467 10.1333C37.9619 9.33549 42.9379 12.3528 44.7052 16.9615C45.0313 17.8115 45.3117 18.6723 45.5009 19.5636C45.5487 19.7962 45.6096 19.8766 45.8683 19.7658C47.1095 19.2397 48.3943 18.8571 49.7269 18.6462C50.0008 18.6027 50.1878 18.4854 50.3486 18.2549C51.8551 16.0984 53.5247 14.0767 55.3855 12.2137C56.5051 11.092 57.7463 10.1377 59.2159 9.52679C60.4963 8.99419 61.8289 8.70941 63.2332 8.87897C64.6202 9.04636 65.5745 9.8007 66.2093 11.005C66.6593 11.8572 66.8614 12.7789 66.9223 13.7354C66.9288 13.8224 66.9332 13.9115 66.9419 14.0202C67.0679 13.9659 67.0919 13.855 67.1397 13.7659C67.5179 13.068 67.9484 12.4072 68.5397 11.8681C69.894 10.6311 71.4418 10.3355 73.1526 10.9746C74.6461 11.5311 75.7635 12.5789 76.7135 13.8202C77.92 15.3984 78.7243 17.1789 79.3873 19.0419C80.0699 20.9592 80.6308 22.9114 81.1177 24.8853C81.1982 25.2113 81.3503 25.4592 81.6156 25.657C81.8134 25.8048 82.0003 25.9679 82.1742 26.1396C82.3655 26.3265 82.4221 26.2439 82.4677 26.0331C82.7677 24.7005 83.1721 23.3983 83.7525 22.1614C84.8025 19.9158 86.0916 17.8223 87.9937 16.1941C90.272 14.2441 92.9132 13.2354 95.9501 13.4006C96.6523 13.4398 97.3436 13.5485 98.0088 13.7898C99.8392 14.4528 100.741 16.0528 100.374 17.9658C100.213 18.7962 99.8718 19.5527 99.2349 20.0962C98.2023 20.9766 97.7566 22.1136 97.4936 23.3983C97.1305 25.1809 96.9045 26.9809 96.6436 28.7787C96.0001 33.2221 94.4806 37.3677 92.5067 41.3828C90.9219 44.6089 88.8698 47.5045 86.5981 50.261C85.0981 52.0827 83.4025 53.7218 81.6373 55.287C81.4156 55.4826 81.3982 55.6218 81.5373 55.8761C82.4547 57.55 82.9764 59.3717 83.5308 61.1847C84.3286 63.789 84.3916 66.4542 84.2612 69.1346C84.146 71.5085 83.7938 73.8498 83.1047 76.1302C82.5851 77.8497 81.9699 79.541 81.2873 81.2018C80.6895 82.6561 79.7547 83.8996 78.6265 85.0083C77.3591 86.2517 75.8656 87.1061 74.2135 87.6756C72.32 88.3278 70.3657 88.493 68.3766 88.1408C67.5984 88.0017 66.8158 87.9017 66.0875 87.5669C65.718 87.3952 65.3701 87.1909 65.068 86.917C63.8376 85.7974 63.6376 84.0626 64.5723 82.617C64.9897 81.9714 65.5419 81.4496 66.1158 80.9496C66.181 80.8931 66.2984 80.8497 66.2788 80.7584C66.2527 80.6431 66.118 80.6692 66.0288 80.6497C65.7484 80.5888 65.4701 80.5236 65.1875 80.4844C64.9441 80.4497 64.9202 80.3714 65.0419 80.1627C65.6506 79.1192 66.1506 78.0236 66.531 76.878C67.5897 73.6737 67.8201 70.4411 66.5766 67.2455C65.1484 63.5695 62.4702 61.3478 58.5181 60.8739C53.6942 60.2934 49.1291 63.1999 47.503 67.7738C46.3835 70.9259 46.5943 74.0389 47.7378 77.1323C48.1747 78.3106 48.7595 79.3997 49.6312 80.317C49.7595 80.4518 49.8204 80.5388 49.5595 80.5931C46.0248 81.3344 42.6031 82.4561 39.2271 83.7279C38.1466 84.1344 37.0249 84.4083 35.8945 84.6409C36.2945 83.4931 36.251 82.3214 36.051 81.1496C35.7706 79.4997 35.1989 77.9497 34.3836 76.4823C33.3206 74.5693 31.975 72.8932 30.225 71.5694C28.8185 70.5041 27.2729 69.7694 25.4533 69.7868L25.4512 69.7911Z" fill="#00CF4B"/>
<path d="M103.599 19.0547C89.5346 7.33543 68.7998 12.3011 68.5911 12.353L67.3088 12.6712L66.0671 12.1993C56.6656 8.59091 46.9766 7.78567 37.2662 9.80959C29.9329 11.3378 25.3301 13.996 25.2854 14.0219L21.9563 8.20777L21 6.53669C21.8605 6.02584 42.0501 -5.6761 67.8818 3.65125C73.2982 2.5711 93.7029 -0.3901 109 12.3574L103.599 19.0525V19.0547Z" fill="white"/>
<path fill-rule="evenodd" clip-rule="evenodd" d="M25.1875 14.6698C25.1878 14.6696 25.1882 14.6693 24.5935 13.648C23.9989 12.6267 23.9994 12.6264 24 12.626L24.0016 12.6251L24.0061 12.6224L24.0201 12.6142C24.0317 12.6074 24.0478 12.598 24.0684 12.5862C24.1096 12.5626 24.1686 12.5291 24.2452 12.4867C24.3983 12.402 24.6215 12.2818 24.9118 12.1338C25.4922 11.8379 26.3413 11.4307 27.4349 10.9747C29.6215 10.063 32.79 8.95394 36.7465 8.14846C44.5905 6.55154 55.5333 6.1484 68.0393 10.8391C68.1995 10.7979 68.4081 10.7461 68.6617 10.687C69.2975 10.5387 70.2169 10.3438 71.3677 10.153C73.6676 9.77152 76.901 9.40447 80.6463 9.4604C88.1263 9.57209 97.7397 11.3741 106 18.2219L104.513 20.0547C96.8041 13.6638 87.7785 11.9374 80.6117 11.8304C77.0337 11.7769 73.9418 12.128 71.7473 12.4919C70.6509 12.6738 69.7808 12.8584 69.1889 12.9965C68.8929 13.0655 68.6667 13.1229 68.5167 13.1623C68.4417 13.182 68.3857 13.1973 68.3496 13.2072C68.3316 13.2122 68.3185 13.2159 68.3105 13.2182L68.3019 13.2206L68.3013 13.2208L67.928 13.3291L67.5642 13.1902C55.3959 8.54339 44.7787 8.93104 37.2094 10.472C33.4223 11.243 30.3986 12.3029 28.3289 13.1659C27.2944 13.5973 26.4993 13.979 25.9676 14.2501C25.7018 14.3856 25.5019 14.4934 25.371 14.5659C25.3055 14.6021 25.2573 14.6295 25.2267 14.647C25.2114 14.6558 25.2005 14.6621 25.1941 14.6659L25.1875 14.6698Z" fill="#E71F19"/>
<path d="M52.4668 54.2441C52.4668 54.2441 60.4792 56.4217 69.7872 55.8098C69.7872 55.8098 65.7128 58.2791 61.0514 57.8577C56.39 57.4364 52.4668 54.2441 52.4668 54.2441Z" fill="#00BA23"/>
<path d="M62.7908 14.891C62.6033 13.8389 61.6918 12.9669 60.4931 13.1512C58.5427 13.4506 57.5253 15.4243 58.6935 17.0867C59.3578 17.85 60.5029 17.9693 61.2014 17.6628C62.3256 17.1686 63 16.0668 62.7906 14.8918L62.7908 14.891ZM60.996 15.5943C60.6251 15.1817 60.6573 14.7021 61.0558 14.3995C61.39 14.1466 61.8607 14.2143 62.1409 14.5542C62.449 14.9288 62.3967 15.5475 62.0363 15.8026C61.7635 15.9958 61.442 15.9344 60.9962 15.5935L60.996 15.5943Z" fill="#040C06"/>
<path d="M61.9463 15.8037C62.2921 15.518 62.3627 14.8527 62.0875 14.4631C61.8375 14.1087 61.3998 14.0526 61.0786 14.3351C60.6947 14.6729 60.649 15.1871 60.9811 15.6169C61.3862 15.9656 61.6845 16.0201 61.9461 15.8045L61.9463 15.8037Z" fill="#FEFFFE"/>
<path d="M73.02 15.7278C72.5007 15.3293 71.9177 15.2679 71.3074 15.4733C70.6924 15.6802 70.2863 16.0945 70.0252 16.6853C69.764 17.276 69.6053 17.8766 69.7701 18.5083C70.0096 19.4288 70.6494 19.9744 71.5832 20.129C72.4764 20.2764 73.2534 20.0183 73.8235 19.2963C74.3519 18.6267 74.326 17.8713 74.1137 17.0754C73.9103 16.4796 73.4852 16.0847 73.02 15.7278ZM73.2818 17.9853C72.8416 18.2377 72.5132 18.1977 72.2353 17.8747C71.9755 17.5717 71.9738 17.0965 72.2312 16.7661C72.4718 16.4578 72.8085 16.3904 73.1727 16.578C73.6592 16.8279 73.717 17.4686 73.2818 17.9853Z" fill="#040C06"/>
<path d="M73.144 16.7404C72.7794 16.5616 72.4462 16.6166 72.2144 16.8945C71.9656 17.192 71.9757 17.6271 72.2399 17.9098C72.5214 18.2117 72.8487 18.2541 73.2794 18.0312C73.7016 17.5667 73.6311 16.9787 73.144 16.7404Z" fill="#FEFFFE"/>
<path d="M59.9907 22.238C59.9907 22.238 62.5638 22.434 63.9369 22.8634C65.3101 23.2928 67.596 24.6162 67.596 24.6162C67.596 24.6162 64.4484 31.4507 61.5664 30.5495C58.6844 29.6483 59.9911 22.2381 59.9911 22.2381L59.9907 22.238Z" fill="#E26969"/>
<mask id="mask0_3135_20244" style="mask-type:alpha" maskUnits="userSpaceOnUse" x="21" y="0" width="88" height="19">
<path d="M103.599 19C89.5346 7.28074 68.7998 12.2464 68.5911 12.2983L67.3088 12.6165L66.0671 12.1446C56.6656 8.53622 46.9766 7.73099 37.2662 9.75491C29.9329 11.2831 25.3301 13.9413 25.2854 13.9673L21.9563 8.15309L21 6.482C21.8605 5.97115 42.0501 -5.73079 67.8818 3.59656C73.2982 2.51641 93.7029 -0.444788 109 12.3027L103.599 18.9978V19Z" fill="white"/>
</mask>
<g mask="url(#mask0_3135_20244)">
<path d="M28 5C25.5 6 19.8 8.6 17 11" stroke="#E1E1E1" stroke-width="0.5"/>
<path d="M102.988 10.0001C105.289 11.3983 110.483 14.902 112.849 17.7305" stroke="#E1E1E1" stroke-width="0.5"/>
<path d="M25.9949 8.00052C23.5265 9.07629 17.9085 11.8489 15.183 14.3331" stroke="#E1E1E1" stroke-width="0.5"/>
<path d="M104.168 13.0002C106.425 14.4679 111.509 18.1283 113.788 21.0277" stroke="#E1E1E1" stroke-width="0.5"/>
<path d="M32.173 7.32424C29.6446 8.25012 23.8704 10.681 21.0009 12.9974" stroke="#E1E1E1" stroke-width="0.5"/>
<path d="M100.815 13.0004C103.156 14.3302 108.451 17.6792 110.899 20.4368" stroke="#E1E1E1" stroke-width="0.5"/>
</g>
<path d="M100.151 61.5801L87.3477 66.0059L93.0794 54.3795L100.151 61.5801Z" fill="#FF7777"/>
<circle cx="98.713" cy="61.4133" r="3.58654" transform="rotate(-91.4563 98.713 61.4133)" fill="#FF7777"/>
<circle cx="97.1681" cy="57.1457" r="3.58654" transform="rotate(-91.4563 97.1681 57.1457)" fill="#FF7777"/>
<circle cx="92.8282" cy="55.8215" r="3.58654" transform="rotate(-91.4563 92.8282 55.8215)" fill="#FF7777"/>
</svg>
