<svg preserveAspectRatio="none" viewBox="0 0 132 132" fill="none" xmlns="http://www.w3.org/2000/svg"><path d="M92.258 121.936c13.226-10.197 22.992-22.287 29.852-36.958 6.373-13.62 10.213-29.78 11.418-48.043.016-.997.047-1.908.078-2.735.023-.734.061-1.73.046-2.163-2.897-21.407-10.175-27.023-17.622-29.905C112.468.757 109.1.054 106.033.054c-2.256 0-9.132 0-17.66 8.876-7.734 8.043-15.993 9.734-21.563 9.734-7.926 0-15.235-3.237-21.716-9.625C38.92 2.95 32.988 0 26.969 0c-2.974 0-6.195.718-9.595 2.14-5.562 2.325-9.626 5.593-12.407 9.973C2.101 16.625.48 22.465.154 29.464c-.88 19.12 2.017 36.495 8.622 51.629 6.675 15.304 17.429 28.931 31.945 40.496 10.175 8.111 18.603 12.051 25.773 12.051 7.169 0 15.528-3.831 25.757-11.719l.007.015Z" fill="#0E0E0E"/></svg>