<svg preserveAspectRatio="none" viewBox="0 0 132 132" fill="none" xmlns="http://www.w3.org/2000/svg"><path d="M122.303 65.666c4.464-2.478 6.764-4.576 7.878-5.836-.492-.556-1.235-1.283-2.308-2.147a24.217 24.217 0 0 1 0-37.693c1.114-.896 1.864-1.646 2.357-2.211C125.128 11.748 102.414.053 65.115.053 27.815.054 5.1 11.749 0 17.779c.492.564 1.243 1.315 2.357 2.211a24.218 24.218 0 0 1 0 37.693c-1.074.864-1.808 1.59-2.309 2.147 1.114 1.26 3.415 3.358 7.879 5.836a24.205 24.205 0 0 1 12.446 20.76l.735.403-.735.404a24.204 24.204 0 0 1-12.446 20.759C3.39 110.511 1.09 112.633 0 113.884c5.11 6.03 27.823 17.725 65.115 17.725 37.291 0 59.997-11.687 65.106-17.725-1.089-1.251-3.398-3.373-7.926-5.892a24.207 24.207 0 0 1-12.447-20.76l-.734-.403.734-.403a24.207 24.207 0 0 1 12.447-20.76h.008Z" fill="#0E0E0E"/></svg>