<svg preserveAspectRatio="none" viewBox="0 0 132 132" fill="none" xmlns="http://www.w3.org/2000/svg"><path d="M91.391.467c-4.575 4.33-10.45 6.486-16.326 6.486-5.875 0-11.37-2.022-15.882-6.074L57.28 2.782a23.716 23.716 0 0 1-16.818 6.97 23.703 23.703 0 0 1-16.817-6.97L21.337.475.007 21.805l2.308 2.306c9.293 9.293 9.293 24.351 0 33.644L.412 59.658A23.8 23.8 0 0 1 6.486 75.54c0 5.875-2.331 11.917-6.486 16.326l21.337 21.337c4.576-4.329 10.451-6.486 16.326-6.486 5.876 0 11.371 2.022 15.883 6.074l1.903-1.903a23.773 23.773 0 0 1 33.635 0l2.307 2.308 21.33-21.33-2.307-2.307c-9.293-9.293-9.293-24.35 0-33.644l1.902-1.903a23.8 23.8 0 0 1-6.073-15.882c0-5.875 2.331-11.917 6.486-16.326L91.391.467Z" fill="#0E0E0E"/></svg>