<svg viewBox="0 0 391 252" fill="none" xmlns="http://www.w3.org/2000/svg">
<g opacity="0.5">
<mask id="mask0_1223_23938" style="mask-type:alpha" maskUnits="userSpaceOnUse" x="0" y="0" width="391" height="252">
<rect width="391" height="252" fill="#F3EFEC"/>
</mask>
<g mask="url(#mask0_1223_23938)">
<path d="M95.878 24.343C94.0509 21.0526 92.5036 19.3568 91.5752 18.5357C91.1646 18.8986 90.629 19.446 89.9922 20.2374C86.5999 24.4382 81.4937 26.8778 76.0959 26.8778C70.6981 26.8778 65.5919 24.4382 62.1997 20.2374C61.5391 19.4163 60.9856 18.863 60.569 18.5C56.1234 22.2605 47.5 39.0042 47.5 66.5C47.5 93.9957 56.1234 110.739 60.569 114.5C60.9856 114.137 61.5391 113.584 62.1997 112.763C65.5919 108.562 70.6981 106.122 76.0959 106.122C81.4937 106.122 86.5999 108.562 89.9922 112.763C90.629 113.554 91.1646 114.095 91.5752 114.464C92.5036 113.643 94.051 111.947 95.878 108.657C98.9786 103.076 104.817 99.5889 111.185 99.4818L111.482 98.9403L111.78 99.4818C118.148 99.5889 123.986 103.076 127.087 108.657C128.943 112.001 130.509 113.697 131.431 114.5C135.877 110.734 144.5 93.9897 144.5 66.5C144.5 39.0102 135.883 22.2724 131.431 18.506C130.509 19.3092 128.943 21.0109 127.087 24.349C123.986 29.9302 118.148 33.4171 111.78 33.5242L111.482 34.0656L111.185 33.5242C104.817 33.4171 98.9786 29.9302 95.878 24.349L95.878 24.343Z" fill="#E0E1E9"/>
<path d="M286.657 66.378C289.947 64.551 291.643 63.0036 292.464 62.0752C292.101 61.6646 291.554 61.129 290.763 60.4922C286.562 57.0999 284.122 51.9937 284.122 46.5959C284.122 41.1981 286.562 36.0919 290.763 32.6997C291.584 32.0391 292.137 31.4856 292.5 31.069C288.739 26.6234 271.996 18 244.5 18C217.004 18 200.261 26.6234 196.5 31.069C196.863 31.4856 197.416 32.0391 198.237 32.6997C202.438 36.0919 204.878 41.1981 204.878 46.5959C204.878 51.9937 202.438 57.0999 198.237 60.4922C197.446 61.129 196.905 61.6646 196.536 62.0752C197.357 63.0036 199.053 64.551 202.343 66.378C207.924 69.4786 211.411 75.3168 211.518 81.6847L212.06 81.9823L211.518 82.2798C211.411 88.6477 207.924 94.4859 202.343 97.5865C198.999 99.4433 197.303 101.009 196.5 101.931C200.266 106.377 217.01 115 244.5 115C271.99 115 288.728 106.383 292.494 101.931C291.691 101.009 289.989 99.4433 286.651 97.5865C281.07 94.4859 277.583 88.6477 277.476 82.2798L276.934 81.9823L277.476 81.6847C277.583 75.3168 281.07 69.4786 286.651 66.378H286.657Z" fill="#E0E1E9"/>
<path d="M393.122 108.657C394.949 111.947 396.496 113.643 397.425 114.464C397.835 114.101 398.371 113.554 399.008 112.763C402.4 108.562 407.506 106.122 412.904 106.122C418.302 106.122 423.408 108.562 426.8 112.763C427.461 113.584 428.014 114.137 428.431 114.5C432.877 110.739 441.5 93.9958 441.5 66.5C441.5 39.0043 432.877 22.2605 428.431 18.5C428.014 18.863 427.461 19.4164 426.8 20.2375C423.408 24.4383 418.302 26.8778 412.904 26.8778C407.506 26.8778 402.4 24.4383 399.008 20.2375C398.371 19.4461 397.835 18.9046 397.425 18.5357C396.496 19.3569 394.949 21.0527 393.122 24.3431C390.021 29.9244 384.183 33.4111 377.815 33.5182L377.518 34.0597L377.22 33.5182C370.852 33.4111 365.014 29.9244 361.913 24.3431C360.057 20.9991 358.491 19.3033 357.569 18.5C353.123 22.2665 344.5 39.0103 344.5 66.5C344.5 93.9898 353.117 110.728 357.569 114.494C358.491 113.691 360.057 111.989 361.913 108.651C365.014 103.07 370.852 99.5829 377.22 99.4758L377.518 98.9344L377.815 99.4758C384.183 99.5829 390.021 103.07 393.122 108.651L393.122 108.657Z" fill="#E0E1E9"/>
<path d="M-21.657 186.122C-24.9474 187.949 -26.6432 189.496 -27.4643 190.425C-27.1014 190.835 -26.554 191.371 -25.7626 192.008C-21.5618 195.4 -19.1222 200.506 -19.1222 205.904C-19.1222 211.302 -21.5618 216.408 -25.7626 219.8C-26.5837 220.461 -27.137 221.014 -27.5 221.431C-23.7395 225.877 -6.99577 234.5 20.5 234.5C47.9957 234.5 64.7395 225.877 68.5 221.431C68.137 221.014 67.5836 220.461 66.7625 219.8C62.5617 216.408 60.1222 211.302 60.1222 205.904C60.1222 200.506 62.5617 195.4 66.7625 192.008C67.5539 191.371 68.0954 190.835 68.4643 190.425C67.6431 189.496 65.9473 187.949 62.6569 186.122C57.0756 183.021 53.5889 177.183 53.4818 170.815L52.9403 170.518L53.4818 170.22C53.5889 163.852 57.0756 158.014 62.6569 154.913C66.0009 153.057 67.6967 151.491 68.5 150.569C64.7336 146.123 47.9898 137.5 20.5 137.5C-6.98981 137.5 -23.7276 146.117 -27.494 150.569C-26.6908 151.491 -24.989 153.057 -21.651 154.913C-16.0697 158.014 -12.5829 163.852 -12.4758 170.22L-11.9344 170.518L-12.4758 170.815C-12.5829 177.183 -16.0697 183.021 -21.651 186.122L-21.657 186.122Z" fill="#E0E1E9"/>
<path d="M168.878 143.843C167.051 140.553 165.504 138.857 164.575 138.036C164.165 138.399 163.629 138.946 162.992 139.737C159.6 143.938 154.494 146.378 149.096 146.378C143.698 146.378 138.592 143.938 135.2 139.737C134.539 138.916 133.986 138.363 133.569 138C129.123 141.761 120.5 158.504 120.5 186C120.5 213.496 129.123 230.239 133.569 234C133.986 233.637 134.539 233.084 135.2 232.263C138.592 228.062 143.698 225.622 149.096 225.622C154.494 225.622 159.6 228.062 162.992 232.263C163.629 233.054 164.165 233.595 164.575 233.964C165.504 233.143 167.051 231.447 168.878 228.157C171.979 222.576 177.817 219.089 184.185 218.982L184.482 218.44L184.78 218.982C191.148 219.089 196.986 222.576 200.087 228.157C201.943 231.501 203.509 233.197 204.431 234C208.877 230.234 217.5 213.49 217.5 186C217.5 158.51 208.883 141.772 204.431 138.006C203.509 138.809 201.943 140.511 200.087 143.849C196.986 149.43 191.148 152.917 184.78 153.024L184.482 153.566L184.185 153.024C177.817 152.917 171.979 149.43 168.878 143.849L168.878 143.843Z" fill="#E0E1E9"/>
<path d="M358.657 185.878C361.947 184.051 363.643 182.504 364.464 181.575C364.101 181.165 363.554 180.629 362.763 179.992C358.562 176.6 356.122 171.494 356.122 166.096C356.122 160.698 358.562 155.592 362.763 152.2C363.584 151.539 364.137 150.986 364.5 150.569C360.739 146.123 343.996 137.5 316.5 137.5C289.004 137.5 272.261 146.123 268.5 150.569C268.863 150.986 269.416 151.539 270.237 152.2C274.438 155.592 276.878 160.698 276.878 166.096C276.878 171.494 274.438 176.6 270.237 179.992C269.446 180.629 268.905 181.165 268.536 181.575C269.357 182.504 271.053 184.051 274.343 185.878C279.924 188.979 283.411 194.817 283.518 201.185L284.06 201.482L283.518 201.78C283.411 208.148 279.924 213.986 274.343 217.087C270.999 218.943 269.303 220.509 268.5 221.431C272.266 225.877 289.01 234.5 316.5 234.5C343.99 234.5 360.728 225.883 364.494 221.431C363.691 220.509 361.989 218.943 358.651 217.087C353.07 213.986 349.583 208.148 349.476 201.78L348.934 201.482L349.476 201.185C349.583 194.817 353.07 188.979 358.651 185.878H358.657Z" fill="#E0E1E9"/>
</g>
</g>
</svg>
