<svg viewBox="0 0 391 252" fill="none" xmlns="http://www.w3.org/2000/svg">
<g opacity="0.5">
<mask id="mask0_1223_23794" style="mask-type:alpha" maskUnits="userSpaceOnUse" x="0" y="0" width="391" height="252">
<rect width="391" height="252" fill="#F3EFEC"/>
</mask>
<g mask="url(#mask0_1223_23794)">
<path d="M8.8746 228.953L20 219.936L31.1254 228.953C35.201 232.257 40.1541 234 45.4547 234C57.8876 234 68 224.058 68 211.843C68 205.129 65.1023 200.359 62.67 197.538L52.7225 186L62.67 174.462C65.1023 171.641 68 166.871 68 160.157C68 147.942 57.8876 138 45.4547 138C40.1541 138 35.201 139.743 31.1254 143.047L20 152.064L8.8746 143.047C4.79902 139.743 -0.154104 138 -5.45472 138C-17.8876 138 -28 147.942 -28 160.157C-28 166.871 -25.1023 171.641 -22.6699 174.462L-12.7224 186L-22.6699 197.538C-25.1023 200.359 -28 205.129 -28 211.843C-28 224.058 -17.8876 234 -5.45472 234C-0.154104 234 4.79902 232.257 8.8746 228.953Z" fill="#E0E1E9"/>
<path d="M157.875 228.953L169 219.936L180.125 228.953C184.201 232.257 189.154 234 194.455 234C206.888 234 217 224.058 217 211.843C217 205.129 214.102 200.359 211.67 197.538L201.722 186L211.67 174.462C214.102 171.641 217 166.871 217 160.157C217 147.942 206.888 138 194.455 138C189.154 138 184.201 139.743 180.125 143.047L169 152.064L157.875 143.047C153.799 139.743 148.846 138 143.545 138C131.112 138 121 147.942 121 160.157C121 166.871 123.898 171.641 126.33 174.462L136.278 186L126.33 197.538C123.898 200.359 121 205.129 121 211.843C121 224.058 131.112 234 143.545 234C148.846 234 153.799 232.257 157.875 228.953Z" fill="#E0E1E9"/>
<path d="M305.875 228.953L317 219.936L328.125 228.953C332.201 232.257 337.154 234 342.455 234C354.888 234 365 224.058 365 211.843C365 205.129 362.102 200.359 359.67 197.538L349.722 186L359.67 174.462C362.102 171.641 365 166.871 365 160.157C365 147.942 354.888 138 342.455 138C337.154 138 332.201 139.743 328.125 143.047L317 152.064L305.875 143.047C301.799 139.743 296.846 138 291.545 138C279.112 138 269 147.942 269 160.157C269 166.871 271.898 171.641 274.33 174.462L284.278 186L274.33 197.538C271.898 200.359 269 205.129 269 211.843C269 224.058 279.112 234 291.545 234C296.846 234 301.799 232.257 305.875 228.953Z" fill="#E0E1E9"/>
<path d="M82.8746 108.953L94 99.9357L105.125 108.953C109.201 112.257 114.154 114 119.455 114C131.888 114 142 104.058 142 91.8434C142 85.1293 139.102 80.3588 136.67 77.5377L126.722 66L136.67 54.4623C139.102 51.6412 142 46.8707 142 40.1566C142 27.9416 131.888 18 119.455 18C114.154 18 109.201 19.7433 105.125 23.0474L94 32.0643L82.8746 23.0474C78.799 19.7433 73.8459 18 68.5453 18C56.1124 18 46 27.9416 46 40.1566C46 46.8707 48.8977 51.6412 51.3301 54.4623L61.2776 66L51.3301 77.5377C48.8977 80.3588 46 85.1293 46 91.8434C46 104.058 56.1124 114 68.5453 114C73.8459 114 78.799 112.257 82.8746 108.953Z" fill="#E0E1E9"/>
<path d="M231.875 108.953L243 99.9357L254.125 108.953C258.201 112.257 263.154 114 268.455 114C280.888 114 291 104.058 291 91.8434C291 85.1293 288.102 80.3588 285.67 77.5377L275.722 66L285.67 54.4623C288.102 51.6412 291 46.8707 291 40.1566C291 27.9416 280.888 18 268.455 18C263.154 18 258.201 19.7433 254.125 23.0474L243 32.0643L231.875 23.0474C227.799 19.7433 222.846 18 217.545 18C205.112 18 195 27.9416 195 40.1566C195 46.8707 197.898 51.6412 200.33 54.4623L210.278 66L200.33 77.5377C197.898 80.3588 195 85.1293 195 91.8434C195 104.058 205.112 114 217.545 114C222.846 114 227.799 112.257 231.875 108.953Z" fill="#E0E1E9"/>
<path d="M379.875 108.953L391 99.9357L402.125 108.953C406.201 112.257 411.154 114 416.455 114C428.888 114 439 104.058 439 91.8434C439 85.1293 436.102 80.3588 433.67 77.5377L423.722 66L433.67 54.4623C436.102 51.6412 439 46.8707 439 40.1566C439 27.9416 428.888 18 416.455 18C411.154 18 406.201 19.7433 402.125 23.0474L391 32.0643L379.875 23.0474C375.799 19.7433 370.846 18 365.545 18C353.112 18 343 27.9416 343 40.1566C343 46.8707 345.898 51.6412 348.33 54.4623L358.278 66L348.33 77.5377C345.898 80.3588 343 85.1293 343 91.8434C343 104.058 353.112 114 365.545 114C370.846 114 375.799 112.257 379.875 108.953Z" fill="#E0E1E9"/>
</g>
</g>
</svg>
