<svg width="391" height="252" viewBox="0 0 391 252" fill="none" xmlns="http://www.w3.org/2000/svg">
<g opacity="0.5">
<mask id="mask0_1223_23993" style="mask-type:alpha" maskUnits="userSpaceOnUse" x="0" y="0" width="391" height="252">
<rect width="391" height="252" fill="#F3EFEC"/>
</mask>
<g mask="url(#mask0_1223_23993)">
<path d="M268 186C268 212.468 289.532 234 316 234C342.468 234 364 212.468 364 186V138H268V186Z" fill="#E0E1E9"/>
<path d="M196 66C196 92.4677 217.532 114 244 114C270.468 114 292 92.4677 292 66V18H196V66Z" fill="#E0E1E9"/>
<path d="M393 114C419.468 114 441 92.4677 441 66C441 39.5323 419.468 18 393 18L345 18L345 114L393 114Z" fill="#E0E1E9"/>
<path d="M95 18C68.5323 18 47 39.5323 47 66C47 92.4677 68.5323 114 95 114L143 114L143 18L95 18Z" fill="#E0E1E9"/>
<path d="M169 138C142.532 138 121 159.532 121 186C121 212.468 142.532 234 169 234L217 234L217 138L169 138Z" fill="#E0E1E9"/>
<path d="M68 186C68 159.532 46.4677 138 20 138C-6.46774 138 -28 159.532 -28 186L-28 234L68 234L68 186Z" fill="#E0E1E9"/>
</g>
</g>
</svg>
