<svg width="391" height="252" viewBox="0 0 391 252" fill="none" xmlns="http://www.w3.org/2000/svg">
<g opacity="0.5">
<mask id="mask0_1223_24049" style="mask-type:alpha" maskUnits="userSpaceOnUse" x="0" y="0" width="391" height="252">
<rect width="391" height="252" fill="#F3EFEC"/>
</mask>
<g mask="url(#mask0_1223_24049)">
<path d="M19.791 230.273C25.5861 230.273 31.3104 231.522 36.8043 233.992C38.293 234.664 39.2854 234.764 39.7462 234.764C39.9766 234.764 40.1184 234.741 40.1893 234.723C40.3842 234.44 40.7978 233.462 40.7859 231.581C40.6914 220.736 45.5177 215.873 47.1068 214.276C53.5046 207.833 61.6096 207.833 64.2738 207.833H64.4807H64.5396C66.2705 207.833 67.2217 207.338 67.4462 207.008C67.6057 206.766 67.7356 205.912 67.0799 204.391C60.2095 188.382 63.754 175.934 67.9955 168.253C68.031 167.87 67.8596 167.004 67.3279 166.349C66.9971 165.937 66.6841 165.742 65.8157 165.742C65.7212 165.742 65.6208 165.742 65.5145 165.754C64.7583 165.795 64.0198 165.819 63.3227 165.819C56.5291 165.819 50.9821 163.691 46.8351 159.488C40.6087 153.188 40.721 145.596 40.7859 141.517V141.481C40.8037 140.143 40.0298 139.295 39.6104 139C33.0354 141.369 26.6732 142.525 20.1691 142.525C13.665 142.525 7.68081 141.464 0.958172 139.283C0.603727 139.165 0.361528 139.141 0.225658 139.141C0.113417 139.141 -0.176098 139.141 -0.565987 139.589C-0.849545 139.92 -1.27483 140.609 -1.2512 141.8C1.0527 149.934 -1.51712 155.917 -4.14592 159.553C-7.54859 164.257 -12.942 166.892 -18.5245 166.892C-20.3735 166.892 -22.2462 166.603 -24.0716 166.002C-24.1661 165.99 -24.3315 165.978 -24.5678 165.978C-25.6843 165.978 -26.7653 166.232 -27.3974 166.45C-27.6633 166.762 -27.8582 167.021 -28 167.234C-22.1635 179.606 -22.004 191.895 -27.4802 205.841C-27.5216 205.941 -27.8523 206.814 -27.7046 207.079C-27.4979 207.444 -26.984 207.768 -26.7004 207.839C-26.1746 207.822 -25.6547 207.81 -25.1585 207.81C-17.9514 207.81 -12.0854 210.02 -7.7257 214.388C-1.04441 221.078 -1.06804 229.831 -1.07986 232.707C-1.07986 233.126 -1.00907 233.627 -0.447868 234.187C0.0897064 234.723 0.798643 235 1.22398 235C1.33031 235 1.36581 234.982 1.42488 234.953C7.00739 231.888 13.3637 230.273 19.8028 230.273H19.791Z" fill="#E0E1E9"/>
<path d="M95.791 109.273C101.586 109.273 107.31 110.522 112.804 112.992C114.293 113.664 115.285 113.764 115.746 113.764C115.977 113.764 116.118 113.741 116.189 113.723C116.384 113.44 116.798 112.462 116.786 110.581C116.691 99.7359 121.518 94.8731 123.107 93.2757C129.505 86.8333 137.61 86.8333 140.274 86.8333H140.481H140.54C142.271 86.8333 143.222 86.3382 143.446 86.0081C143.606 85.7664 143.736 84.9118 143.08 83.391C136.21 67.3822 139.754 54.9335 143.996 47.2533C144.031 46.8701 143.86 46.0037 143.328 45.3494C142.997 44.9368 142.684 44.7423 141.816 44.7423C141.721 44.7423 141.621 44.7423 141.514 44.7541C140.758 44.7954 140.02 44.8189 139.323 44.8189C132.529 44.8189 126.982 42.6911 122.835 38.4885C116.609 32.1875 116.721 24.5957 116.786 20.5169V20.4815C116.804 19.1435 116.03 18.2947 115.61 18C109.035 20.3695 102.673 21.5248 96.1691 21.5248C89.665 21.5248 83.6808 20.4638 76.9582 18.2829C76.6037 18.165 76.3615 18.1415 76.2257 18.1415C76.1134 18.1415 75.8239 18.1415 75.434 18.5894C75.1505 18.9195 74.7252 19.6091 74.7488 20.7998C77.0527 28.9339 74.4829 34.9166 71.8541 38.5533C68.4514 43.257 63.058 45.8917 57.4755 45.8917C55.6265 45.8917 53.7538 45.6029 51.9284 45.0017C51.8339 44.9899 51.6685 44.9781 51.4322 44.9781C50.3157 44.9781 49.2347 45.2315 48.6026 45.4496C48.3367 45.762 48.1418 46.0214 48 46.2336C53.8365 58.6056 53.996 70.8952 48.5198 84.841C48.4784 84.9412 48.1477 85.8136 48.2954 86.0788C48.5021 86.4443 49.016 86.7685 49.2996 86.8392C49.8254 86.8215 50.3453 86.8097 50.8415 86.8097C58.0486 86.8097 63.9146 89.0201 68.2743 93.3877C74.9556 100.078 74.932 108.831 74.9201 111.707C74.9201 112.126 74.9909 112.627 75.5521 113.187C76.0897 113.723 76.7986 114 77.224 114C77.3303 114 77.3658 113.982 77.4249 113.953C83.0074 110.888 89.3637 109.273 95.8028 109.273H95.791Z" fill="#E0E1E9"/>
<path d="M168.791 230.273C174.586 230.273 180.31 231.522 185.804 233.992C187.293 234.664 188.285 234.764 188.746 234.764C188.977 234.764 189.118 234.741 189.189 234.723C189.384 234.44 189.798 233.462 189.786 231.581C189.691 220.736 194.518 215.873 196.107 214.276C202.505 207.833 210.61 207.833 213.274 207.833H213.481H213.54C215.271 207.833 216.222 207.338 216.446 207.008C216.606 206.766 216.736 205.912 216.08 204.391C209.21 188.382 212.754 175.934 216.996 168.253C217.031 167.87 216.86 167.004 216.328 166.349C215.997 165.937 215.684 165.742 214.816 165.742C214.721 165.742 214.621 165.742 214.514 165.754C213.758 165.795 213.02 165.819 212.323 165.819C205.529 165.819 199.982 163.691 195.835 159.488C189.609 153.188 189.721 145.596 189.786 141.517V141.481C189.804 140.143 189.03 139.295 188.61 139C182.035 141.369 175.673 142.525 169.169 142.525C162.665 142.525 156.681 141.464 149.958 139.283C149.604 139.165 149.362 139.141 149.226 139.141C149.113 139.141 148.824 139.141 148.434 139.589C148.15 139.92 147.725 140.609 147.749 141.8C150.053 149.934 147.483 155.917 144.854 159.553C141.451 164.257 136.058 166.892 130.476 166.892C128.626 166.892 126.754 166.603 124.928 166.002C124.834 165.99 124.669 165.978 124.432 165.978C123.316 165.978 122.235 166.232 121.603 166.45C121.337 166.762 121.142 167.021 121 167.234C126.837 179.606 126.996 191.895 121.52 205.841C121.478 205.941 121.148 206.814 121.295 207.079C121.502 207.444 122.016 207.768 122.3 207.839C122.825 207.822 123.345 207.81 123.842 207.81C131.049 207.81 136.915 210.02 141.274 214.388C147.956 221.078 147.932 229.831 147.92 232.707C147.92 233.126 147.991 233.627 148.552 234.187C149.09 234.723 149.799 235 150.224 235C150.33 235 150.366 234.982 150.425 234.953C156.007 231.888 162.364 230.273 168.803 230.273H168.791Z" fill="#E0E1E9"/>
<path d="M244.791 109.273C250.586 109.273 256.31 110.522 261.804 112.992C263.293 113.664 264.285 113.764 264.746 113.764C264.977 113.764 265.118 113.741 265.189 113.723C265.384 113.44 265.798 112.462 265.786 110.581C265.691 99.7359 270.518 94.8731 272.107 93.2757C278.505 86.8333 286.61 86.8333 289.274 86.8333H289.481H289.54C291.271 86.8333 292.222 86.3382 292.446 86.0081C292.606 85.7664 292.736 84.9118 292.08 83.391C285.21 67.3822 288.754 54.9335 292.996 47.2533C293.031 46.8701 292.86 46.0037 292.328 45.3494C291.997 44.9368 291.684 44.7423 290.816 44.7423C290.721 44.7423 290.621 44.7423 290.514 44.7541C289.758 44.7954 289.02 44.8189 288.323 44.8189C281.529 44.8189 275.982 42.6911 271.835 38.4885C265.609 32.1875 265.721 24.5957 265.786 20.5169V20.4815C265.804 19.1435 265.03 18.2947 264.61 18C258.035 20.3695 251.673 21.5248 245.169 21.5248C238.665 21.5248 232.681 20.4638 225.958 18.2829C225.604 18.165 225.362 18.1415 225.226 18.1415C225.113 18.1415 224.824 18.1415 224.434 18.5894C224.15 18.9195 223.725 19.6091 223.749 20.7998C226.053 28.9339 223.483 34.9166 220.854 38.5533C217.451 43.257 212.058 45.8917 206.476 45.8917C204.626 45.8917 202.754 45.6029 200.928 45.0017C200.834 44.9899 200.669 44.9781 200.432 44.9781C199.316 44.9781 198.235 45.2315 197.603 45.4496C197.337 45.762 197.142 46.0214 197 46.2336C202.837 58.6056 202.996 70.8952 197.52 84.841C197.478 84.9412 197.148 85.8136 197.295 86.0788C197.502 86.4443 198.016 86.7685 198.3 86.8392C198.825 86.8215 199.345 86.8097 199.842 86.8097C207.049 86.8097 212.915 89.0201 217.274 93.3877C223.956 100.078 223.932 108.831 223.92 111.707C223.92 112.126 223.991 112.627 224.552 113.187C225.09 113.723 225.799 114 226.224 114C226.33 114 226.366 113.982 226.425 113.953C232.007 110.888 238.364 109.273 244.803 109.273H244.791Z" fill="#E0E1E9"/>
<path d="M315.791 230.273C321.586 230.273 327.31 231.522 332.804 233.992C334.293 234.664 335.285 234.764 335.746 234.764C335.977 234.764 336.118 234.741 336.189 234.723C336.384 234.44 336.798 233.462 336.786 231.581C336.691 220.736 341.518 215.873 343.107 214.276C349.505 207.833 357.61 207.833 360.274 207.833H360.481H360.54C362.271 207.833 363.222 207.338 363.446 207.008C363.606 206.766 363.736 205.912 363.08 204.391C356.21 188.382 359.754 175.934 363.996 168.253C364.031 167.87 363.86 167.004 363.328 166.349C362.997 165.937 362.684 165.742 361.816 165.742C361.721 165.742 361.621 165.742 361.514 165.754C360.758 165.795 360.02 165.819 359.323 165.819C352.529 165.819 346.982 163.691 342.835 159.488C336.609 153.188 336.721 145.596 336.786 141.517V141.481C336.804 140.143 336.03 139.295 335.61 139C329.035 141.369 322.673 142.525 316.169 142.525C309.665 142.525 303.681 141.464 296.958 139.283C296.604 139.165 296.362 139.141 296.226 139.141C296.113 139.141 295.824 139.141 295.434 139.589C295.15 139.92 294.725 140.609 294.749 141.8C297.053 149.934 294.483 155.917 291.854 159.553C288.451 164.257 283.058 166.892 277.476 166.892C275.626 166.892 273.754 166.603 271.928 166.002C271.834 165.99 271.669 165.978 271.432 165.978C270.316 165.978 269.235 166.232 268.603 166.45C268.337 166.762 268.142 167.021 268 167.234C273.837 179.606 273.996 191.895 268.52 205.841C268.478 205.941 268.148 206.814 268.295 207.079C268.502 207.444 269.016 207.768 269.3 207.839C269.825 207.822 270.345 207.81 270.842 207.81C278.049 207.81 283.915 210.02 288.274 214.388C294.956 221.078 294.932 229.831 294.92 232.707C294.92 233.126 294.991 233.627 295.552 234.187C296.09 234.723 296.799 235 297.224 235C297.33 235 297.366 234.982 297.425 234.953C303.007 231.888 309.364 230.273 315.803 230.273H315.791Z" fill="#E0E1E9"/>
<path d="M391.791 109.273C397.586 109.273 403.31 110.522 408.804 112.992C410.293 113.664 411.285 113.764 411.746 113.764C411.977 113.764 412.118 113.741 412.189 113.723C412.384 113.44 412.798 112.462 412.786 110.581C412.691 99.7359 417.518 94.8731 419.107 93.2757C425.505 86.8333 433.61 86.8333 436.274 86.8333H436.481H436.54C438.271 86.8333 439.222 86.3382 439.446 86.0081C439.606 85.7664 439.736 84.9118 439.08 83.391C432.21 67.3822 435.754 54.9335 439.996 47.2533C440.031 46.8701 439.86 46.0037 439.328 45.3494C438.997 44.9368 438.684 44.7423 437.816 44.7423C437.721 44.7423 437.621 44.7423 437.514 44.7541C436.758 44.7954 436.02 44.8189 435.323 44.8189C428.529 44.8189 422.982 42.6911 418.835 38.4885C412.609 32.1875 412.721 24.5957 412.786 20.5169V20.4815C412.804 19.1435 412.03 18.2947 411.61 18C405.035 20.3695 398.673 21.5248 392.169 21.5248C385.665 21.5248 379.681 20.4638 372.958 18.2829C372.604 18.165 372.362 18.1415 372.226 18.1415C372.113 18.1415 371.824 18.1415 371.434 18.5894C371.15 18.9195 370.725 19.6091 370.749 20.7998C373.053 28.9339 370.483 34.9166 367.854 38.5533C364.451 43.257 359.058 45.8917 353.476 45.8917C351.626 45.8917 349.754 45.6029 347.928 45.0017C347.834 44.9899 347.669 44.9781 347.432 44.9781C346.316 44.9781 345.235 45.2315 344.603 45.4496C344.337 45.762 344.142 46.0214 344 46.2336C349.837 58.6056 349.996 70.8952 344.52 84.841C344.478 84.9412 344.148 85.8136 344.295 86.0788C344.502 86.4443 345.016 86.7685 345.3 86.8392C345.825 86.8215 346.345 86.8097 346.842 86.8097C354.049 86.8097 359.915 89.0201 364.274 93.3877C370.956 100.078 370.932 108.831 370.92 111.707C370.92 112.126 370.991 112.627 371.552 113.187C372.09 113.723 372.799 114 373.224 114C373.33 114 373.366 113.982 373.425 113.953C379.007 110.888 385.364 109.273 391.803 109.273H391.791Z" fill="#E0E1E9"/>
</g>
</g>
</svg>
