<svg viewBox="0 0 391 252" fill="none" xmlns="http://www.w3.org/2000/svg">
<g opacity="0.5">
<mask id="mask0_1223_24021" style="mask-type:alpha" maskUnits="userSpaceOnUse" x="0" y="0" width="391" height="252">
<rect width="391" height="252" fill="#F3EFEC"/>
</mask>
<g mask="url(#mask0_1223_24021)">
<path d="M49.8291 137.764C45.9329 141.45 40.9293 143.287 35.9257 143.287C30.9221 143.287 26.2427 141.565 22.4005 138.115L20.7799 139.735C16.823 143.692 11.6371 145.67 6.45794 145.67C1.27879 145.67 -3.91393 143.692 -7.86413 139.735L-9.82904 137.77L-27.9932 155.933L-26.0282 157.898C-18.1143 165.811 -18.1143 178.634 -26.0282 186.547L-27.6489 188.167C-24.3266 191.874 -22.4764 196.688 -22.4764 201.692C-22.4764 206.695 -24.4617 211.84 -28 215.594L-9.82904 233.764C-5.93286 230.077 -0.929295 228.241 4.0743 228.241C9.07788 228.241 13.7574 229.962 17.5995 233.413L19.2201 231.792C23.0218 227.991 28.1738 225.857 33.5421 225.857C38.9103 225.857 44.0693 227.991 47.8642 231.792L49.8291 233.757L67.9932 215.594L66.0283 213.629C58.1144 205.716 58.1144 192.894 66.0283 184.98L67.6489 183.36C64.3266 179.653 62.4765 174.839 62.4765 169.836C62.4765 164.832 64.4617 159.687 68 155.933L49.8291 137.764Z" fill="#E0E1E9"/>
<path d="M273.829 17.8818C269.933 21.5684 264.929 23.405 259.926 23.405C254.922 23.405 250.243 21.6832 246.401 18.2329L244.78 19.8534C240.823 23.8101 235.637 25.7884 230.458 25.7884C225.279 25.7884 220.086 23.8101 216.136 19.8534L214.171 17.8886L196.007 36.0515L197.972 38.0163C205.886 45.9297 205.886 58.7517 197.972 66.6651L196.351 68.2856C199.673 71.9924 201.524 76.8066 201.524 81.8098C201.524 86.813 199.538 91.9581 196 95.7122L214.171 113.882C218.067 110.195 223.071 108.359 228.074 108.359C233.078 108.359 237.757 110.08 241.6 113.531L243.22 111.91C247.022 108.109 252.174 105.975 257.542 105.975C262.91 105.975 268.069 108.109 271.864 111.91L273.829 113.875L291.993 95.7122L290.028 93.7474C282.114 85.834 282.114 73.012 290.028 65.0986L291.649 63.4781C288.327 59.7713 286.477 54.9571 286.477 49.9539C286.477 44.9506 288.462 39.8056 292 36.0515L273.829 17.8818Z" fill="#E0E1E9"/>
<path d="M337.966 78.7311C343.328 78.8794 348.165 81.1188 351.703 84.6569C355.241 88.195 357.333 92.7213 357.61 97.8778L359.901 97.8779C365.497 97.8781 370.563 100.146 374.225 103.808C377.888 107.471 380.16 112.541 380.156 118.132L380.156 120.911L405.843 120.912L405.843 118.133C405.843 106.942 414.909 97.8751 426.101 97.8754L428.393 97.8755C428.664 92.9052 430.76 88.1928 434.298 84.655C437.836 81.1172 442.878 78.8829 448.034 78.7303L448.033 53.0336C442.672 52.8854 437.835 50.646 434.297 47.1079C430.759 43.5698 428.667 39.0435 428.39 33.8869L426.098 33.8868C420.722 33.8866 415.571 31.7523 411.775 27.9564C407.979 24.1605 405.839 19.0038 405.844 13.6324L405.844 10.8537L380.157 10.8528L380.157 13.6316C380.157 24.8231 371.091 33.8897 359.899 33.8893L357.607 33.8893C357.336 38.8596 355.24 43.5719 351.702 47.1097C348.164 50.6476 343.122 52.8819 337.966 53.0345L337.966 78.7311Z" fill="#E0E1E9"/>
<path d="M107.849 120.915C107.997 115.554 110.236 110.717 113.774 107.179C117.312 103.641 121.839 101.549 126.995 101.272L126.995 98.9803C126.996 93.3846 129.264 88.3187 132.926 84.6565C136.588 80.9943 141.659 78.7213 147.25 78.7259L150.028 78.7259L150.029 53.0387L147.251 53.0389C136.059 53.0392 126.992 43.9727 126.993 32.7811L126.993 30.4893C122.023 30.2173 117.31 28.1215 113.772 24.5837C110.235 21.0459 108 16.004 107.848 10.8475L82.151 10.8484C82.0028 16.2102 79.7634 21.0469 76.2253 24.585C72.6873 28.1231 68.1609 30.2145 63.0043 30.4916L63.0043 32.7834C63.0041 38.1595 60.8697 43.3113 57.0738 47.1072C53.2779 50.9031 48.1212 53.0424 42.7499 53.0378L39.9711 53.0379L39.9702 78.7249L42.749 78.7249C53.9406 78.7245 63.0071 87.791 63.0067 98.9826L63.0067 101.274C67.977 101.546 72.6894 103.642 76.2272 107.18C79.765 110.718 81.9993 115.76 82.152 120.916L107.849 120.915Z" fill="#E0E1E9"/>
<path d="M345.829 137.764C341.933 141.45 336.929 143.287 331.926 143.287C326.922 143.287 322.243 141.565 318.401 138.115L316.78 139.735C312.823 143.692 307.637 145.67 302.458 145.67C297.279 145.67 292.086 143.692 288.136 139.735L286.171 137.77L268.007 155.933L269.972 157.898C277.886 165.811 277.886 178.634 269.972 186.547L268.351 188.167C271.673 191.874 273.524 196.688 273.524 201.692C273.524 206.695 271.538 211.84 268 215.594L286.171 233.764C290.067 230.077 295.071 228.241 300.074 228.241C305.078 228.241 309.757 229.962 313.6 233.413L315.22 231.792C319.022 227.991 324.174 225.857 329.542 225.857C334.91 225.857 340.069 227.991 343.864 231.792L345.829 233.757L363.993 215.594L362.028 213.629C354.114 205.716 354.114 192.894 362.028 184.98L363.649 183.36C360.327 179.653 358.477 174.839 358.477 169.836C358.477 164.832 360.462 159.687 364 155.933L345.829 137.764Z" fill="#E0E1E9"/>
<path d="M224.034 172.915C218.672 172.767 213.835 170.528 210.297 166.99C206.759 163.452 204.667 158.925 204.39 153.769L202.099 153.769C196.503 153.768 191.437 151.5 187.775 147.838C184.112 144.176 181.84 139.105 181.844 133.514L181.844 130.735L156.157 130.734L156.157 133.513C156.157 144.705 147.091 153.771 135.899 153.771L133.607 153.771C133.336 158.741 131.24 163.454 127.702 166.991C124.164 170.529 119.122 172.764 113.966 172.916L113.967 198.613C119.328 198.761 124.165 201.001 127.703 204.539C131.241 208.077 133.333 212.603 133.61 217.76L135.902 217.76C141.278 217.76 146.429 219.894 150.225 223.69C154.021 227.486 156.161 232.643 156.156 238.014L156.156 240.793L181.843 240.794L181.843 238.015C181.843 226.823 190.909 217.757 202.101 217.757L204.393 217.757C204.664 212.787 206.76 208.075 210.298 204.537C213.836 200.999 218.878 198.765 224.034 198.612L224.034 172.915Z" fill="#E0E1E9"/>
</g>
</g>
</svg>
