<svg viewBox="0 0 391 252" fill="none" xmlns="http://www.w3.org/2000/svg">
<g opacity="0.5">
<mask id="mask0_1223_23903" style="mask-type:alpha" maskUnits="userSpaceOnUse" x="0" y="0" width="391" height="252">
<rect width="391" height="252" fill="#F3EFEC"/>
</mask>
<g mask="url(#mask0_1223_23903)">
<path d="M114.266 105.593C123.766 98.2673 130.78 89.5824 135.707 79.044C140.285 69.2603 143.043 57.6508 143.909 44.5319C143.92 43.8161 143.942 43.1612 143.964 42.5674C143.981 42.0402 144.009 41.3243 143.997 41.0136C141.917 25.636 136.689 21.6016 131.34 19.5317C128.782 18.5438 126.363 18.0388 124.16 18.0388C122.539 18.0388 117.601 18.0388 111.475 24.4152C105.92 30.1921 99.9883 31.4075 95.9875 31.4075C90.2942 31.4075 85.0448 29.0823 80.3892 24.4929C75.9556 20.1199 71.694 18 67.3713 18C65.2349 18 62.921 18.5161 60.4794 19.5372C56.4842 21.2076 53.5654 23.555 51.5677 26.7015C49.5091 29.9424 48.3437 34.1378 48.1107 39.1656C47.4781 52.9005 49.559 65.3812 54.3034 76.2526C59.0977 87.2461 66.8219 97.0353 77.2485 105.343C84.5565 111.17 90.6105 114 95.76 114C100.909 114 106.913 111.247 114.26 105.581L114.266 105.593Z" fill="#E0E1E9"/>
<path d="M263.266 105.593C272.766 98.2673 279.78 89.5824 284.707 79.044C289.285 69.2603 292.043 57.6508 292.909 44.5319C292.92 43.8161 292.942 43.1612 292.964 42.5674C292.981 42.0402 293.009 41.3243 292.997 41.0136C290.917 25.636 285.689 21.6016 280.34 19.5317C277.782 18.5438 275.363 18.0388 273.16 18.0388C271.539 18.0388 266.601 18.0388 260.475 24.4152C254.92 30.1921 248.988 31.4075 244.987 31.4075C239.294 31.4075 234.045 29.0823 229.389 24.4929C224.956 20.1199 220.694 18 216.371 18C214.235 18 211.921 18.5161 209.479 19.5372C205.484 21.2076 202.565 23.555 200.568 26.7015C198.509 29.9424 197.344 34.1378 197.111 39.1656C196.478 52.9005 198.559 65.3812 203.303 76.2526C208.098 87.2461 215.822 97.0353 226.249 105.343C233.557 111.17 239.61 114 244.76 114C249.909 114 255.913 111.247 263.26 105.581L263.266 105.593Z" fill="#E0E1E9"/>
<path d="M411.266 105.593C420.766 98.2673 427.78 89.5824 432.707 79.044C437.285 69.2603 440.043 57.6508 440.909 44.5319C440.92 43.8161 440.942 43.1612 440.964 42.5674C440.981 42.0402 441.009 41.3243 440.997 41.0136C438.917 25.636 433.689 21.6016 428.34 19.5317C425.782 18.5438 423.363 18.0388 421.16 18.0388C419.539 18.0388 414.601 18.0388 408.475 24.4152C402.92 30.1921 396.988 31.4075 392.987 31.4075C387.294 31.4075 382.045 29.0823 377.389 24.4929C372.956 20.1199 368.694 18 364.371 18C362.235 18 359.921 18.5161 357.479 19.5372C353.484 21.2076 350.565 23.555 348.568 26.7015C346.509 29.9424 345.344 34.1378 345.111 39.1656C344.478 52.9005 346.559 65.3812 351.303 76.2526C356.098 87.2461 363.822 97.0353 374.249 105.343C381.557 111.17 387.61 114 392.76 114C397.909 114 403.913 111.247 411.26 105.581L411.266 105.593Z" fill="#E0E1E9"/>
<path d="M38.2659 225.593C47.7658 218.267 54.7798 209.582 59.7073 199.044C64.2852 189.26 67.043 177.651 67.9086 164.532C67.9197 163.816 67.942 163.161 67.9642 162.567C67.9808 162.04 68.0085 161.324 67.9974 161.014C65.9166 145.636 60.6894 141.602 55.3402 139.532C52.7821 138.544 50.3627 138.039 48.1598 138.039C46.5395 138.039 41.6008 138.039 35.4747 144.415C29.9202 150.192 23.9883 151.407 19.9875 151.407C14.2942 151.407 9.04484 149.082 4.38923 144.493C-0.0444279 140.12 -4.30604 138 -8.62872 138C-10.7651 138 -13.079 138.516 -15.5206 139.537C-19.5158 141.208 -22.4346 143.555 -24.4323 146.702C-26.4909 149.942 -27.6563 154.138 -27.8893 159.166C-28.5219 172.901 -26.441 185.381 -21.6966 196.253C-16.9023 207.246 -9.17807 217.035 1.2485 225.343C8.55654 231.17 14.6105 234 19.76 234C24.9094 234 30.9135 231.247 38.2604 225.581L38.2659 225.593Z" fill="#E0E1E9"/>
<path d="M187.266 225.593C196.766 218.267 203.78 209.582 208.707 199.044C213.285 189.26 216.043 177.651 216.909 164.532C216.92 163.816 216.942 163.161 216.964 162.567C216.981 162.04 217.009 161.324 216.997 161.014C214.917 145.636 209.689 141.602 204.34 139.532C201.782 138.544 199.363 138.039 197.16 138.039C195.539 138.039 190.601 138.039 184.475 144.415C178.92 150.192 172.988 151.407 168.987 151.407C163.294 151.407 158.045 149.082 153.389 144.493C148.956 140.12 144.694 138 140.371 138C138.235 138 135.921 138.516 133.479 139.537C129.484 141.208 126.565 143.555 124.568 146.702C122.509 149.942 121.344 154.138 121.111 159.166C120.478 172.901 122.559 185.381 127.303 196.253C132.098 207.246 139.822 217.035 150.249 225.343C157.557 231.17 163.61 234 168.76 234C173.909 234 179.913 231.247 187.26 225.581L187.266 225.593Z" fill="#E0E1E9"/>
<path d="M335.266 225.593C344.766 218.267 351.78 209.582 356.707 199.044C361.285 189.26 364.043 177.651 364.909 164.532C364.92 163.816 364.942 163.161 364.964 162.567C364.981 162.04 365.009 161.324 364.997 161.014C362.917 145.636 357.689 141.602 352.34 139.532C349.782 138.544 347.363 138.039 345.16 138.039C343.539 138.039 338.601 138.039 332.475 144.415C326.92 150.192 320.988 151.407 316.987 151.407C311.294 151.407 306.045 149.082 301.389 144.493C296.956 140.12 292.694 138 288.371 138C286.235 138 283.921 138.516 281.479 139.537C277.484 141.208 274.565 143.555 272.568 146.702C270.509 149.942 269.344 154.138 269.111 159.166C268.478 172.901 270.559 185.381 275.303 196.253C280.098 207.246 287.822 217.035 298.249 225.343C305.557 231.17 311.61 234 316.76 234C321.909 234 327.913 231.247 335.26 225.581L335.266 225.593Z" fill="#E0E1E9"/>
</g>
</g>
</svg>
