<svg width="391" height="252" viewBox="0 0 391 252" fill="none" xmlns="http://www.w3.org/2000/svg">
<g opacity="0.5">
<mask id="mask0_1223_23966" style="mask-type:alpha" maskUnits="userSpaceOnUse" x="0" y="0" width="391" height="252">
<rect width="391" height="252" fill="#F3EFEC"/>
</mask>
<g mask="url(#mask0_1223_23966)">
<path d="M63.789 138.006C61.4626 138.006 59.5662 139.902 59.5662 142.228C59.5662 151.987 51.6565 159.896 41.8975 159.896C32.1384 159.896 24.2287 151.987 24.2287 142.228C24.2287 139.902 22.3382 138.006 20.0059 138.006C17.6736 138.006 15.7831 139.902 15.7831 142.228C15.7831 151.987 7.87343 159.896 -1.88559 159.896C-11.6446 159.896 -19.5543 151.987 -19.5543 142.228C-19.5543 139.902 -21.4508 138.006 -23.7772 138.006C-26.1035 138.006 -28 139.902 -28 142.228V234H68V142.223C68 139.896 66.1036 138 63.7772 138L63.789 138.006Z" fill="#E0E1E9"/>
<path d="M287.789 18.0059C285.463 18.0059 283.566 19.9022 283.566 22.2285C283.566 31.9869 275.656 39.8961 265.897 39.8961C256.138 39.8961 248.229 31.9869 248.229 22.2285C248.229 19.9022 246.338 18.0059 244.006 18.0059C241.674 18.0059 239.783 19.9022 239.783 22.2285C239.783 31.9869 231.873 39.8961 222.114 39.8961C212.355 39.8961 204.446 31.9869 204.446 22.2285C204.446 19.9022 202.549 18.0059 200.223 18.0059C197.896 18.0059 196 19.9022 196 22.2285V114H292V22.2226C292 19.8963 290.104 18 287.777 18L287.789 18.0059Z" fill="#E0E1E9"/>
<path d="M125.211 233.994C127.537 233.994 129.434 232.098 129.434 229.772C129.434 220.013 137.344 212.104 147.103 212.104C156.862 212.104 164.771 220.013 164.771 229.772C164.771 232.098 166.662 233.994 168.994 233.994C171.326 233.994 173.217 232.098 173.217 229.772C173.217 220.013 181.127 212.104 190.886 212.104C200.645 212.104 208.554 220.013 208.554 229.772C208.554 232.098 210.451 233.994 212.777 233.994C215.104 233.994 217 232.098 217 229.772L217 138L121 138L121 229.777C121 232.104 122.896 234 125.223 234L125.211 233.994Z" fill="#E0E1E9"/>
<path d="M51.211 113.994C53.5374 113.994 55.4338 112.098 55.4338 109.772C55.4338 100.013 63.3435 92.1039 73.1025 92.1039C82.8616 92.1039 90.7713 100.013 90.7713 109.772C90.7713 112.098 92.6618 113.994 94.9941 113.994C97.3264 113.994 99.2169 112.098 99.2169 109.772C99.2169 100.013 107.127 92.1039 116.886 92.1039C126.645 92.1039 134.554 100.013 134.554 109.772C134.554 112.098 136.451 113.994 138.777 113.994C141.104 113.994 143 112.098 143 109.772L143 18L47 18L47 109.777C47 112.104 48.8964 114 51.2228 114L51.211 113.994Z" fill="#E0E1E9"/>
<path d="M349.211 113.994C351.537 113.994 353.434 112.098 353.434 109.772C353.434 100.013 361.344 92.1039 371.103 92.1039C380.862 92.1039 388.771 100.013 388.771 109.772C388.771 112.098 390.662 113.994 392.994 113.994C395.326 113.994 397.217 112.098 397.217 109.772C397.217 100.013 405.127 92.1039 414.886 92.1039C424.645 92.1039 432.554 100.013 432.554 109.772C432.554 112.098 434.451 113.994 436.777 113.994C439.104 113.994 441 112.098 441 109.772L441 18L345 18L345 109.777C345 112.104 346.896 114 349.223 114L349.211 113.994Z" fill="#E0E1E9"/>
<path d="M359.789 138.006C357.463 138.006 355.566 139.902 355.566 142.228C355.566 151.987 347.656 159.896 337.897 159.896C328.138 159.896 320.229 151.987 320.229 142.228C320.229 139.902 318.338 138.006 316.006 138.006C313.674 138.006 311.783 139.902 311.783 142.228C311.783 151.987 303.873 159.896 294.114 159.896C284.355 159.896 276.446 151.987 276.446 142.228C276.446 139.902 274.549 138.006 272.223 138.006C269.896 138.006 268 139.902 268 142.228V234H364V142.223C364 139.896 362.104 138 359.777 138L359.789 138.006Z" fill="#E0E1E9"/>
</g>
</g>
</svg>
