<svg width="24" height="24" viewBox="0 0 24 24" fill="none" xmlns="http://www.w3.org/2000/svg">
<g id="icon-x-mono">
<path id="Vector" fill-rule="evenodd" clip-rule="evenodd" d="M13.5928 12.4994L20.5657 5.52811C20.7033 5.39065 20.8124 5.22745 20.8869 5.04782C20.9614 4.86819 20.9998 4.67564 20.9998 4.48119C20.9999 4.28673 20.9616 4.09417 20.8873 3.9145C20.8129 3.73482 20.7038 3.57155 20.5663 3.43401C20.4289 3.29647 20.2656 3.18735 20.0859 3.11288C19.9063 3.03841 19.7137 3.00006 19.5192 3C19.3247 2.99994 19.1321 3.03819 18.9524 3.11255C18.7726 3.18691 18.6093 3.29593 18.4718 3.43339L11.4989 10.4059L4.52476 3.43339C4.24387 3.17109 3.87203 3.02816 3.48773 3.03477C3.10342 3.04138 2.73672 3.19701 2.46501 3.46881C2.19331 3.74061 2.03786 4.10733 2.03148 4.49155C2.02509 4.87577 2.16828 5.24744 2.4308 5.52811L9.40492 12.4994L2.4308 19.4707C2.22469 19.6782 2.08454 19.942 2.02799 20.2289C1.97143 20.5158 2.001 20.8131 2.11297 21.0832C2.22493 21.3534 2.4143 21.5844 2.65725 21.7473C2.90021 21.9101 3.1859 21.9975 3.4784 21.9984C3.85721 21.9984 4.23603 21.8541 4.52476 21.5654L11.4989 14.5929L18.4718 21.5654C18.6091 21.7032 18.7723 21.8125 18.9519 21.887C19.1316 21.9616 19.3242 22 19.5187 22C19.7133 22 19.9059 21.9616 20.0856 21.887C20.2652 21.8125 20.4284 21.7032 20.5657 21.5654C20.7034 21.4279 20.8126 21.2647 20.8871 21.085C20.9616 20.9052 21 20.7126 21 20.5181C21 20.3235 20.9616 20.1309 20.8871 19.9512C20.8126 19.7715 20.7034 19.6082 20.5657 19.4707L13.5928 12.4994Z" fill="#B3B6C5"/>
</g>
</svg>
