<svg width="26" height="26" viewBox="0 0 26 26" fill="none" xmlns="http://www.w3.org/2000/svg">
<rect x="11.543" y="-0.00708008" width="2.09839" height="12.5757" fill="#FFC5CC"/>
<rect x="13.6406" y="25.146" width="2.09839" height="12.5757" transform="rotate(-180 13.6406 25.146)" fill="#FFC5CC"/>
<path d="M8.39453 2.08911L12.5913 5.75701L16.7881 2.08911" stroke="#FFC5CC" stroke-width="2"/>
<path d="M16.7891 23.0498L12.5923 19.3819L8.3955 23.0498" stroke="#FFC5CC" stroke-width="2"/>
<rect width="2.09655" height="12.5867" transform="matrix(-0.500438 -0.865772 0.866278 -0.499562 2.62305 19.7654)" fill="#FFC5CC"/>
<rect width="2.09655" height="12.5867" transform="matrix(0.500438 0.865772 -0.866278 0.499562 23.3828 5.37354)" fill="#FFC5CC"/>
<path d="M6.01562 21.4402L7.09744 15.976L1.81884 14.1796" stroke="#FFC5CC" stroke-width="2"/>
<path d="M19.9922 3.69873L18.9104 9.16296L24.189 10.9593" stroke="#FFC5CC" stroke-width="2"/>
<rect width="2.09655" height="12.5867" transform="matrix(0.500438 -0.865772 0.866278 0.499562 1.57422 7.18896)" fill="#FFC5CC"/>
<rect width="2.09655" height="12.5867" transform="matrix(-0.500438 0.865772 -0.866278 -0.499562 24.4316 17.95)" fill="#FFC5CC"/>
<path d="M1.81836 10.96L7.09696 9.16363L6.01514 3.69941" stroke="#FFC5CC" stroke-width="2"/>
<path d="M24.1895 14.1792L18.9109 15.9755L19.9927 21.4398" stroke="#FFC5CC" stroke-width="2"/>
</svg>
