<svg width="140" height="73" viewBox="0 0 140 73" fill="none" xmlns="http://www.w3.org/2000/svg">
<path d="M81.6532 15.3005C87.9315 15.2713 90.3863 11.4527 88.511 7.10319C87.3372 4.38536 85.1795 2.59296 82.4422 1.73085C77.5667 0.196591 72.6034 -0.319702 67.5769 1.20969C61.357 3.0995 59.5744 6.64535 61.2499 12.9042C61.9708 15.5879 62 18.52 61.9464 21.3304C61.9074 23.4735 61.2012 25.5971 60.8651 27.7451C59.8958 33.9503 62.6478 36.9068 68.8287 36.3564C71.6585 36.1031 72.7934 34.564 72.3015 31.7682C71.9508 29.7907 70.4214 23.3322 70.1243 21.345C72.3842 27.5259 75.2092 34.4081 80.3575 34.7442C86.2413 35.129 89.8359 32.9469 91.3263 28.0909C92.9531 22.7867 87.5028 17.0929 81.658 15.3054L81.6532 15.3005ZM68.2734 9.26089C68.2344 9.26089 68.2052 9.2609 68.1663 9.25603C67.9422 9.22681 67.1044 9.10503 66.6174 8.74948C66.2862 8.51081 66.2813 8.01887 66.5833 7.74125C67.4844 6.92785 69.8905 5.20363 72.5596 6.99604C75.7937 9.16348 68.9309 9.25602 68.2734 9.26089Z" fill="#00CE4C"/>
<path d="M120.648 10.3072C118.525 3.9997 113.478 0.541537 107.03 0.585373C100.8 0.629209 96.0853 3.66851 94.3075 9.48408C91.7504 17.8373 93.1337 25.7764 98.5888 32.6003C104.336 39.7845 116.43 38.0456 120.01 29.5804C121.369 26.3658 122.158 23.2827 122.158 19.5907C122.158 16.342 121.603 13.1468 120.643 10.3024L120.648 10.3072ZM105.88 19.6492C105.685 19.9073 104.989 20.6184 104.263 20.5015C102.972 20.2921 102.466 17.5548 102.393 16.079C102.325 14.7346 102.495 12.0363 103.752 11.6564C104.317 11.4859 104.994 11.4664 105.549 12.0412C106.737 13.2783 107.186 17.9103 105.88 19.654V19.6492Z" fill="#00CE4C"/>
<path d="M48.3183 21.2323C43.3697 20.263 35.5328 21.0715 30.7205 19.4253C26.4538 17.9689 30.2091 17.6134 31.1005 17.5355C36.2682 17.0727 43.5889 19.0356 48.7372 18.7872C50.7585 18.6898 53.0331 18.1248 54.0072 16.8682C55.3369 15.1488 55.9019 11.866 54.4943 9.84468C52.0103 6.27935 46.9984 4.60872 43.1505 3.03062C37.1158 0.42969 23.999 -0.739276 14.5645 1.2577C1.77901 3.96091 -2.34646 10.9795 1.23836 23.692C3.73702 32.5566 4.28254 41.3579 2.68983 50.4368C0.692849 61.7952 8.4421 71.4342 19.7567 71.9067C23.9162 72.082 28.105 72.043 32.2548 71.7216C40.4181 71.0884 45.4738 67.3429 46.8133 61.3227C48.7713 52.5068 44.7676 47.6021 38.4454 41.9326C35.4597 39.4583 31.7142 36.4142 28.3778 33.6086C27.2867 32.6443 27.7202 31.7383 29.3568 31.9916C31.7142 32.3764 34.6414 33.5502 36.8625 34.3295C40.4424 35.591 45.2498 38.3234 49.0538 38.3332C50.9095 38.3332 54.9424 38.9274 56.8274 33.3895C58.7951 27.6129 55.5853 22.6496 48.328 21.2225L48.3183 21.2323ZM16.5225 63.534C13.2933 63.534 10.6777 60.9184 10.6777 57.6892C10.6777 54.4599 13.2933 51.8444 16.5225 51.8444C19.7518 51.8444 22.3673 54.4599 22.3673 57.6892C22.3673 60.9184 19.7518 63.534 16.5225 63.534Z" fill="#00CE4C"/>
<path d="M63.4615 61.8828C64.6889 62.5063 68.4929 61.8585 70.787 59.7446C72.8375 57.8548 75.7405 58.7705 77.0214 61.3178C78.6823 64.6347 77.3721 68.5848 73.8799 70.7766C69.0481 73.8111 59.5698 73.5334 55.0206 70.1776C52.069 68.0004 50.5932 65.1315 50.4909 61.4688C50.3837 57.6746 49.9259 53.8949 49.7067 50.1007C49.4632 45.8876 51.0607 42.4586 54.7868 40.1986C58.2255 38.1091 62.0344 37.4029 66.0527 38.0701C70.597 38.8251 72.9203 42.405 71.4981 46.662C70.9428 48.3229 70.1246 49.9497 69.1407 51.4352C67.1924 54.3771 65.6338 55.5899 63.7099 58.4003C63.2374 59.0871 62.2535 61.0499 63.4615 61.8877V61.8828Z" fill="#00CE4C"/>
<path d="M105.621 45.8248C103.497 39.5173 98.4514 36.0591 92.0026 36.103C85.773 36.1468 81.0582 39.1861 79.2804 45.0016C76.7233 53.3548 78.1066 61.294 83.5617 68.1178C89.3091 75.3021 101.403 73.5632 104.983 65.098C106.342 61.8834 107.131 58.8002 107.131 55.1083C107.131 51.8595 106.576 48.6644 105.616 45.8199L105.621 45.8248ZM90.8482 55.1667C90.6534 55.4249 89.9569 56.136 89.2312 56.0191C87.9405 55.8096 87.4339 53.0723 87.3609 51.5965C87.2927 50.2522 87.4631 47.5539 88.7198 47.174C89.2848 47.0035 89.9618 46.984 90.517 47.5587C91.7055 48.7959 92.1536 53.4279 90.8482 55.1716V55.1667Z" fill="#00CE4C"/>
<path d="M129.8 48.5614C128.08 48.2838 123.044 48.2936 121.31 49.6476C121.31 49.6476 119.742 50.6948 119.362 51.9953C118.982 53.2957 119.362 54.2163 119.362 54.2163C119.362 54.2163 119.576 55.7116 122.231 56.525C123.862 57.0266 127.238 56.4909 128.285 56.3448C128.782 56.2766 129.191 56.7344 129.064 57.2215C129.006 57.4504 128.83 57.6404 128.606 57.7134C123.843 59.2623 119.878 57.2799 119.878 57.2799C119.878 57.2799 117.876 56.5201 117.657 53.437C117.443 50.3538 120.419 48.0792 120.419 48.0792C122.099 46.8957 124.69 46.7593 124.69 46.7593C127.642 46.7057 128.972 47.0174 132.893 48.1231C134.193 48.4932 136.843 48.7563 137.646 47.2317C138.44 45.4832 138.577 42.9261 137.861 41.1532C137.223 39.5799 135.245 37.9483 133.56 37.5196C130.238 36.677 126.712 36.3994 123.263 36.3458C118.237 36.263 114.486 38.674 112.056 43.1063C109.621 47.5386 109.25 52.3411 109.435 57.2653C109.752 65.6721 114.296 70.9519 122.601 72.1355C124.983 72.4764 127.501 72.4715 129.878 72.1014C136.784 71.0249 140.062 66.9092 139.999 59.8273C139.941 53.5198 136.2 49.6086 129.81 48.5712L129.8 48.5614Z" fill="#00CE4C"/>
</svg>
