<svg width="185" height="185" viewBox="0 0 185 185" fill="none" xmlns="http://www.w3.org/2000/svg">
<rect width="185" height="185" rx="40" fill="#0E0E0E"/>
<path d="M133.933 133.156C139.574 128.706 143.97 123.62 147.189 117.844C150.408 112.067 152 106.014 152 99.6295C152 93.2448 150.408 87.1919 147.189 81.4429C143.97 75.694 139.54 70.5807 133.933 66.1308C128.325 61.6809 121.888 58.1708 114.688 55.628C107.489 53.0575 99.8742 51.7861 91.9135 51.7861C83.9527 51.7861 76.338 53.0575 69.1387 55.628C61.9394 58.1984 55.5362 61.7086 49.9636 66.1308C44.3911 70.5807 39.9954 75.6663 36.811 81.4429C33.5921 87.1919 32 93.2725 32 99.6295C32 105.986 33.5921 112.067 36.811 117.844C40.03 123.593 44.3911 128.706 49.9636 133.156C55.5362 137.606 61.9048 141.116 69.1387 143.659C76.338 146.229 83.9527 147.5 91.9135 147.5C99.8742 147.5 107.489 146.229 114.688 143.659C121.887 141.088 128.325 137.606 133.933 133.156ZM77.3418 127.324C72.8768 125.804 69.0003 123.703 65.6429 120.967C62.3201 118.258 59.7242 115.052 57.8898 111.404C56.0554 107.755 55.1554 103.831 55.1554 99.6295C55.1554 95.4283 56.0554 91.393 57.8898 87.7723C59.7242 84.1516 62.3201 81.0007 65.6429 78.2921C69.0003 75.5834 72.8768 73.4552 77.3418 71.9351C81.8067 70.4149 86.6524 69.6686 91.8789 69.6686C97.1053 69.6686 101.951 70.4149 106.416 71.9351C110.881 73.4552 114.757 75.5834 118.115 78.2921C121.438 81.0007 124.033 84.1792 125.868 87.7723C127.702 91.393 128.602 95.3454 128.602 99.6295C128.602 103.914 127.668 107.728 125.868 111.404C124.033 115.08 121.438 118.258 118.115 120.967C114.757 123.676 110.881 125.804 106.416 127.324C101.951 128.844 97.1053 129.59 91.8788 129.59C86.6524 129.59 81.7721 128.844 77.3418 127.324Z" fill="#00CE4C"/>
<ellipse cx="91.7522" cy="107.449" rx="41.4954" ry="31.1823" fill="#00CE4C"/>
<ellipse cx="19.7568" cy="43.3792" rx="19.7568" ry="43.3792" transform="matrix(0.989492 0.144589 -0.132314 0.991208 63.3958 37.5)" fill="#00CE4C"/>
<ellipse cx="18.1412" cy="43.3792" rx="18.1412" ry="43.3792" transform="matrix(-0.989492 0.144589 0.132314 0.991208 121.294 37.5)" fill="#00CE4C"/>
<path d="M82.5174 51.8183C85.8021 53.5788 86.7858 56.7907 85.0691 59.7641C83.9519 61.6934 81.8013 62.8125 79.64 62.5864C77.6097 62.3667 75.9608 60.8342 75.341 58.6585C74.1397 54.404 78.9829 50.3447 82.5174 51.8183Z" fill="#0E0E0E"/>
<path d="M103.061 51.7656C106.729 52.0988 108.997 54.5508 108.777 57.7881C108.631 59.8898 107.22 61.6621 105.213 62.2597C103.325 62.8146 101.201 62.079 99.7057 60.4008C96.791 57.1154 99.2983 51.7757 103.061 51.7656Z" fill="#0E0E0E"/>
<path d="M81.2573 57.1482C80.2283 56.7786 79.8496 56.131 80.1323 55.1519C80.3246 54.5114 80.8044 54.0907 81.5001 53.9139C82.3772 53.691 83.0694 53.8927 83.588 54.4653C83.9514 54.8688 84.0955 55.3619 83.7784 55.9158C83.2536 56.8212 82.3652 57.0977 81.2686 57.1397L81.2573 57.1482Z" fill="white"/>
<path d="M103.899 56.8389C102.973 56.1184 102.76 55.335 103.284 54.4383C103.634 53.8542 104.214 53.5895 104.946 53.6444C105.87 53.7136 106.505 54.1506 106.875 54.9051C107.134 55.4361 107.153 55.984 106.701 56.4384C105.956 57.1791 105.008 57.1603 103.912 56.8341L103.899 56.8389Z" fill="white"/>
<path d="M99.2884 75.4696C100.768 75.3891 101.821 74.5282 103.044 73.8939C104.906 73.6624 102.999 75.8572 102.178 76.0938C99.5704 77.594 96.5499 77.1057 93.9725 75.8522C91.39 76.1844 88.9686 78.0672 86.0086 77.5285C84.4682 77.6141 79.9778 75.4646 81.9763 73.753C82.4445 73.612 82.7063 73.8788 82.9278 74.2715C84.9464 77.1006 89.316 76.0385 92.0193 74.9209C94.491 73.6875 96.6355 76.0787 99.2935 75.4696H99.2884Z" fill="#0E0E0E"/>
</svg>
