<svg width="185" height="185" viewBox="0 0 185 185" fill="none" xmlns="http://www.w3.org/2000/svg">
<rect width="185" height="185" rx="40" fill="#0E0E0E"/>
<path d="M103.653 70.3005C109.932 70.2713 112.386 66.4527 110.511 62.1032C109.337 59.3854 107.18 57.593 104.442 56.7309C99.5668 55.1966 94.6036 54.6803 89.577 56.2097C83.3572 58.0995 81.5745 61.6453 83.25 67.9042C83.9709 70.5879 84.0001 73.52 83.9465 76.3304C83.9076 78.4735 83.2013 80.5971 82.8652 82.7451C81.896 88.9503 84.6479 91.9068 90.8288 91.3564C93.6586 91.1031 94.7935 89.564 94.3016 86.7682C93.9509 84.7907 92.4215 78.3322 92.1244 76.345C94.3844 82.5259 97.2094 89.4081 102.358 89.7442C108.241 90.129 111.836 87.9469 113.326 83.0909C114.953 77.7867 109.503 72.0929 103.658 70.3054L103.653 70.3005ZM90.2735 64.2609C90.2346 64.2609 90.2053 64.2609 90.1664 64.256C89.9423 64.2268 89.1045 64.105 88.6175 63.7495C88.2863 63.5108 88.2814 63.0189 88.5834 62.7412C89.4845 61.9278 91.8906 60.2036 94.5597 61.996C97.7938 64.1635 90.9311 64.256 90.2735 64.2609Z" fill="#00CE4C"/>
<path d="M142.648 65.3072C140.524 58.9997 135.478 55.5415 129.03 55.5854C122.8 55.6292 118.085 58.6685 116.307 64.4841C113.75 72.8373 115.134 80.7764 120.589 87.6003C126.336 94.7845 138.43 93.0456 142.01 84.5804C143.369 81.3658 144.158 78.2827 144.158 74.5907C144.158 71.342 143.603 68.1468 142.643 65.3024L142.648 65.3072ZM127.88 74.6492C127.685 74.9073 126.989 75.6184 126.263 75.5015C124.972 75.2921 124.466 72.5548 124.393 71.079C124.324 69.7346 124.495 67.0363 125.752 66.6564C126.317 66.4859 126.994 66.4664 127.549 67.0412C128.737 68.2783 129.185 72.9103 127.88 74.654V74.6492Z" fill="#00CE4C"/>
<path d="M70.3183 76.2323C65.3697 75.263 57.5328 76.0715 52.7205 74.4253C48.4538 72.9689 52.2091 72.6134 53.1005 72.5355C58.2682 72.0727 65.5889 74.0356 70.7372 73.7872C72.7585 73.6898 75.0331 73.1248 76.0072 71.8682C77.3369 70.1488 77.9019 66.866 76.4943 64.8447C74.0103 61.2794 68.9984 59.6087 65.1505 58.0306C59.1158 55.4297 45.999 54.2607 36.5645 56.2577C23.779 58.9609 19.6535 65.9795 23.2384 78.692C25.737 87.5566 26.2825 96.3579 24.6898 105.437C22.6928 116.795 30.4421 126.434 41.7567 126.907C45.9162 127.082 50.105 127.043 54.2548 126.722C62.4181 126.088 67.4738 122.343 68.8133 116.323C70.7713 107.507 66.7676 102.602 60.4454 96.9326C57.4597 94.4583 53.7142 91.4142 50.3778 88.6086C49.2867 87.6443 49.7202 86.7383 51.3568 86.9916C53.7142 87.3764 56.6414 88.5502 58.8625 89.3295C62.4424 90.591 67.2498 93.3234 71.0538 93.3332C72.9095 93.3332 76.9424 93.9274 78.8274 88.3895C80.7951 82.6129 77.5853 77.6496 70.328 76.2225L70.3183 76.2323ZM38.5225 118.534C35.2933 118.534 32.6777 115.918 32.6777 112.689C32.6777 109.46 35.2933 106.844 38.5225 106.844C41.7518 106.844 44.3673 109.46 44.3673 112.689C44.3673 115.918 41.7518 118.534 38.5225 118.534Z" fill="#00CE4C"/>
<path d="M85.4616 116.883C86.689 117.506 90.493 116.858 92.7871 114.745C94.8376 112.855 97.7406 113.77 99.0216 116.318C100.682 119.635 99.3722 123.585 95.88 125.777C91.0483 128.811 81.5699 128.533 77.0207 125.178C74.0691 123 72.5933 120.132 72.491 116.469C72.3838 112.675 71.926 108.895 71.7068 105.101C71.4633 100.888 73.0609 97.4586 76.7869 95.1986C80.2256 93.1091 84.0345 92.4029 88.0528 93.0701C92.5971 93.8251 94.9204 97.405 93.4982 101.662C92.943 103.323 92.1247 104.95 91.1408 106.435C89.1925 109.377 87.6339 110.59 85.71 113.4C85.2375 114.087 84.2537 116.05 85.4616 116.888V116.883Z" fill="#00CE4C"/>
<path d="M127.621 100.825C125.497 94.5173 120.451 91.0591 114.003 91.103C107.773 91.1468 103.058 94.1861 101.28 100.002C98.7232 108.355 100.106 116.294 105.562 123.118C111.309 130.302 123.403 128.563 126.983 120.098C128.342 116.883 129.131 113.8 129.131 110.108C129.131 106.86 128.576 103.664 127.616 100.82L127.621 100.825ZM112.848 110.167C112.653 110.425 111.957 111.136 111.231 111.019C109.94 110.81 109.434 108.072 109.361 106.597C109.293 105.252 109.463 102.554 110.72 102.174C111.285 102.003 111.962 101.984 112.517 102.559C113.705 103.796 114.153 108.428 112.848 110.172V110.167Z" fill="#00CE4C"/>
<path d="M151.8 103.561C150.081 103.284 145.044 103.294 143.31 104.648C143.31 104.648 141.742 105.695 141.362 106.995C140.982 108.296 141.362 109.216 141.362 109.216C141.362 109.216 141.576 110.712 144.231 111.525C145.863 112.027 149.238 111.491 150.285 111.345C150.782 111.277 151.191 111.734 151.064 112.221C151.006 112.45 150.831 112.64 150.607 112.713C145.843 114.262 141.878 112.28 141.878 112.28C141.878 112.28 139.876 111.52 139.657 108.437C139.443 105.354 142.419 103.079 142.419 103.079C144.099 101.896 146.691 101.759 146.691 101.759C149.642 101.706 150.972 102.017 154.893 103.123C156.193 103.493 158.843 103.756 159.647 102.232C160.44 100.483 160.577 97.9261 159.861 96.1532C159.223 94.5799 157.245 92.9483 155.56 92.5196C152.238 91.677 148.712 91.3994 145.263 91.3458C140.237 91.263 136.486 93.674 134.056 98.1063C131.621 102.539 131.251 107.341 131.436 112.265C131.752 120.672 136.297 125.952 144.601 127.135C146.983 127.476 149.501 127.472 151.878 127.101C158.784 126.025 162.062 121.909 161.999 114.827C161.941 108.52 158.2 104.609 151.81 103.571L151.8 103.561Z" fill="#00CE4C"/>
</svg>
