<svg viewBox="0 0 391 252" fill="none" xmlns="http://www.w3.org/2000/svg">
<g opacity="0.5">
<mask id="mask0_1223_23743" style="mask-type:alpha" maskUnits="userSpaceOnUse" x="0" y="0" width="391" height="252">
<rect width="391" height="252" fill="#F3EFEC"/>
</mask>
<g mask="url(#mask0_1223_23743)">
<path d="M20.2046 114.409C46.7851 114.409 68.4091 92.7851 68.4091 66.2046C68.4091 39.624 46.7851 18 20.2046 18C-6.37597 18 -28 39.624 -28 66.2046C-28 92.7851 -6.37597 114.409 20.2046 114.409Z" fill="#E0E1E9"/>
<path d="M168.614 114.409C195.194 114.409 216.818 92.7851 216.818 66.2046C216.818 39.624 195.194 18 168.614 18C142.033 18 120.409 39.624 120.409 66.2046C120.409 92.7851 142.033 114.409 168.614 114.409Z" fill="#E0E1E9"/>
<path d="M317.023 114.409C343.603 114.409 365.227 92.7851 365.227 66.2046C365.227 39.624 343.603 18 317.023 18C290.442 18 268.818 39.624 268.818 66.2046C268.818 92.7851 290.442 114.409 317.023 114.409Z" fill="#E0E1E9"/>
<path d="M94.6137 234.818C121.194 234.818 142.818 213.194 142.818 186.614C142.818 160.033 121.194 138.409 94.6137 138.409C68.0332 138.409 46.4092 160.033 46.4092 186.614C46.4092 213.194 68.0332 234.818 94.6137 234.818Z" fill="#E0E1E9"/>
<path d="M243.023 234.818C269.603 234.818 291.227 213.194 291.227 186.614C291.227 160.033 269.603 138.409 243.023 138.409C216.442 138.409 194.818 160.033 194.818 186.614C194.818 213.194 216.442 234.818 243.023 234.818Z" fill="#E0E1E9"/>
<path d="M391.432 234.818C418.012 234.818 439.636 213.194 439.636 186.614C439.636 160.033 418.012 138.409 391.432 138.409C364.851 138.409 343.227 160.033 343.227 186.614C343.227 213.194 364.851 234.818 391.432 234.818Z" fill="#E0E1E9"/>
</g>
</g>
</svg>
