<svg width="1075" height="1075" viewBox="0 0 1075 1075" fill="none" xmlns="http://www.w3.org/2000/svg">
<path d="M601.932 1027.38C595.193 1026.85 588.518 1026.25 581.811 1025.69C575.778 1025.18 569.777 1024.62 563.744 1024.3C547.474 1023.46 531.172 1023.83 514.902 1024.43C505.243 1024.78 495.551 1025.18 485.731 1027.29C481.752 1020.54 478.8 1013.51 475.815 1006.48C467.953 987.965 463.557 968.509 460.508 948.802C458.583 936.344 457.844 923.76 457.491 911.145C456.497 875.402 462.113 840.6 472.542 806.458C475.751 795.976 480.789 786.185 485.988 776.175C486.181 775.892 486.149 775.861 486.181 775.861C487.208 774.888 487.753 773.633 488.459 772.19C488.652 772.001 488.62 771.938 488.652 771.938C489.229 771.342 489.582 770.652 490.096 769.805C490.256 769.648 490.256 769.585 490.288 769.585C490.834 769.051 491.187 768.392 491.732 767.545C491.925 767.357 491.925 767.231 491.989 767.231C492.118 767.074 492.214 766.918 492.503 766.604C492.695 766.447 492.695 766.384 492.695 766.384C493.273 765.882 493.594 765.254 494.171 764.438C494.396 764.25 494.396 764.093 494.46 764.062C494.589 763.874 494.653 763.717 494.909 763.466C495.134 763.34 495.102 763.246 495.166 763.246C495.327 763.089 495.391 762.963 495.712 762.65C495.904 762.493 495.904 762.43 495.936 762.43C496.097 762.304 496.193 762.148 496.514 761.834C496.707 761.645 496.707 761.614 496.707 761.614C497.509 760.892 498.247 760.108 499.017 759.009C499.242 758.853 499.37 758.602 499.659 758.382C499.948 758.162 500.108 757.848 500.429 757.629C500.75 757.378 500.91 757.064 501.231 756.844C501.552 756.625 501.745 756.279 502.034 756.122C502.708 755.558 503.093 755.15 503.766 754.648C504.569 753.926 505.467 753.832 506.205 753.11C506.366 752.953 506.366 752.922 506.398 752.922C506.558 752.796 506.687 752.67 507.008 752.325C507.2 752.137 507.2 752.106 507.2 752.106C507.329 751.98 507.489 751.855 507.81 751.541C508.003 751.352 508.003 751.321 508.003 751.321C508.131 751.196 508.259 751.07 508.612 750.788C508.837 750.631 508.837 750.568 508.901 750.568C509.029 750.442 509.094 750.286 509.447 750.097C516.218 745.265 523.984 744.292 531.718 743.225C541.634 741.875 551.55 741.719 561.402 743.727C576.035 746.708 585.983 756.122 594.616 767.2C598.691 772.441 602.061 778.121 605.109 784.334C605.302 784.711 605.43 784.805 605.591 785.118C605.719 785.464 605.783 785.621 605.944 785.966C606.136 786.28 606.233 786.374 606.393 786.688C606.489 787.033 606.586 787.19 606.746 787.566C606.939 787.88 607.067 787.974 607.195 788.257C607.292 788.633 607.356 788.79 607.516 789.198C607.741 789.512 607.869 789.575 607.933 789.857C607.966 790.234 608.062 790.39 608.254 790.861C608.639 791.332 608.8 791.583 608.896 792.179C609.025 792.587 609.089 792.713 609.217 793.089C609.41 793.403 609.506 793.497 609.634 793.811C609.731 794.188 609.795 794.344 609.923 794.784C610.276 795.255 610.437 795.537 610.501 796.133C610.629 796.541 610.693 796.667 610.822 797.075C611.014 797.388 611.11 797.483 611.207 797.796C611.271 798.173 611.367 798.361 611.496 798.769C611.849 799.24 612.041 799.491 612.073 800.087C612.169 800.495 612.234 800.652 612.362 801.06C612.683 801.562 612.843 801.845 612.908 802.441C613.004 802.849 613.068 803.006 613.196 803.414C613.517 803.916 613.646 804.23 613.742 804.826C613.87 805.234 613.902 805.391 614.031 805.799C614.352 806.301 614.48 806.583 614.544 807.211C614.64 807.619 614.705 807.776 614.833 808.215C615.732 811.416 616.566 814.366 617.593 817.566C617.817 818.163 617.914 818.508 618.042 819.135C619.101 824.533 620.513 829.585 621.7 834.952C621.893 835.548 621.989 835.924 622.085 836.521C623.337 843.142 624.717 849.481 625.872 856.165C626.001 856.824 626.065 857.201 626.129 857.86C626.097 859.303 626.418 860.401 626.674 861.782C626.803 862.378 626.835 862.755 626.899 863.414C627.316 867.933 627.798 872.201 628.311 876.751C628.439 877.661 628.504 878.289 628.536 879.23C628.472 882.996 629.145 886.448 629.113 890.213C629.242 891.626 629.306 892.787 629.306 894.262C629.498 900.381 629.37 906.186 629.338 912.306C629.306 913.781 629.274 914.91 629.242 916.385C628.953 920.433 628.536 924.136 628.536 928.153C628.504 928.843 628.504 929.22 628.44 929.879C628.151 932.327 627.734 934.461 627.734 936.877C627.701 937.536 627.669 937.913 627.605 938.572C626.739 942.275 626.739 945.789 626.097 949.523C626.033 950.182 626.001 950.559 625.936 951.218C625.102 953.885 625.166 956.396 624.524 959.063C624.46 959.691 624.428 960.068 624.332 960.695C623.337 964.147 622.92 967.411 622.085 970.894C621.989 971.522 621.957 971.867 621.829 972.463C620.898 975.13 620.385 977.641 619.679 980.371C619.582 980.999 619.55 981.344 619.39 981.94C618.074 985.988 616.791 989.754 615.635 993.802C615.539 994.43 615.443 994.806 615.218 995.434C615.154 995.842 615.186 995.967 615.025 996.218C614.801 996.501 614.769 996.626 614.64 997.034C613.293 999.576 612.587 1002.06 611.752 1004.79C611.528 1005.16 611.496 1005.32 611.335 1005.7C610.757 1006.76 610.372 1007.64 610.116 1008.77C609.891 1009.12 609.827 1009.27 609.666 1009.68C609.538 1010.06 609.538 1010.21 609.345 1010.47C609.121 1010.75 609.089 1010.9 608.928 1011.25C608.03 1012.79 607.227 1014.11 606.842 1015.86C606.618 1016.21 606.554 1016.4 606.361 1016.8C606.233 1017.18 606.233 1017.34 606.072 1017.59C605.815 1017.87 605.783 1018.03 605.591 1018.4C605.462 1018.78 605.462 1018.91 605.27 1019.19C605.045 1019.47 605.013 1019.63 604.853 1019.97C604.243 1021.01 603.858 1021.89 603.601 1023.05C603.409 1023.39 603.344 1023.55 603.216 1023.93C602.606 1024.99 602.221 1025.87 601.997 1027.03C601.997 1027.22 601.965 1027.35 601.932 1027.38Z" fill="#DBFF9E"/>
<path d="M390.549 719.154C229.372 651.616 194.021 491.825 346.305 388.946C356.457 380.732 371.48 377.247 378.652 366.133C394.328 332.01 410.247 296.523 437.118 269.712C473.826 230.569 530.403 237.369 537.284 296.084C547.945 231.422 606 232.178 643.895 275.781C657.27 290.771 667.592 308.051 676.799 325.844C687.363 341.126 689.956 363.135 705.002 374.493C868.481 464.917 866.881 633.117 696.692 714.036C694.899 714.816 693.057 716.107 695.335 717.716C714.04 734.948 730.395 754.641 742.268 777.235C753.753 798.708 761.894 822.082 765.116 846.309C765.31 850.209 766.934 852.695 770.689 854.133C770.859 854.498 771.586 854.498 771.876 854.767C772.288 855.254 773.258 855.4 773.742 855.961C775.487 857.131 777.619 858.033 779.218 859.666C779.848 860.299 781.06 860.714 781.665 861.518C782.78 862.468 784.306 863.419 785.348 864.589C785.397 864.76 785.857 865.076 786.002 865.174C788.668 867.294 791.26 869.634 793.32 872.583C834.026 917.381 820.796 986.138 769.987 1011.9C794.047 1021.58 789.879 1041.98 764.39 1044C744.545 1046.71 724.604 1044.71 704.809 1042.73C703.064 1042.59 702.458 1042.93 702.676 1044.88C697.225 1102.52 607.914 1065.3 588.893 1033.52C584.484 1027.84 587.125 1021.38 590.056 1015.53C592.722 1009.54 595.629 1003.66 597.616 997.399C613.753 950.358 612.881 898.395 599.094 850.842C590.396 816.354 564.276 787.399 526.453 800.853C492.895 817.134 486.91 861.737 481.725 895.08C478.042 929.154 480.659 964.446 491.926 996.984C493.985 1004.05 497.668 1010.46 500.212 1017.34C504.913 1024.4 503.459 1031.52 498.153 1037.1C477.243 1066.62 391.687 1101.16 386.987 1044.73C387.205 1042.95 386.599 1042.59 385 1042.73C363.024 1044.83 340.708 1047.49 318.853 1042.73C293.848 1035.47 302.11 1020.26 320.67 1010.73C266.395 989.429 257.673 912.726 296.343 872.559C298.403 869.854 300.826 867.246 303.661 865.15C303.855 865.15 304.194 864.686 304.291 864.589C305.381 863.59 306.665 862.395 307.974 861.518C308.628 860.884 309.524 860.202 310.421 859.666C312.02 858.252 313.934 857.033 315.897 855.961C316.357 855.546 317.205 855.205 317.762 854.767C318.005 854.547 318.659 854.401 318.974 854.108C320.089 853.158 321.954 852.524 323.287 851.696C326.194 839.021 328.375 825.056 332.446 812.382C332.93 812.04 332.591 810.919 333.051 810.529C333.536 810.188 333.197 809.067 333.681 808.701C334.166 808.36 333.827 807.214 334.311 806.873C335.499 805.63 335.426 803.461 336.129 801.95C337.001 801.292 336.783 799.708 337.34 798.879C338.237 798.245 337.97 796.636 338.576 795.808C339.69 794.857 339.642 792.688 340.417 791.518C341.314 789.934 342.259 788.447 342.816 786.57C343.131 786.375 343.179 785.62 343.422 785.327C343.858 784.718 344.173 783.475 344.633 782.866C344.972 782.695 344.997 781.939 345.239 781.647C345.554 781.452 345.602 780.721 345.845 780.428C346.16 780.233 346.208 779.526 346.45 779.21C347.42 778.381 347.759 776.699 348.316 775.554C348.583 775.334 348.631 774.481 348.946 774.335C349.019 774.189 349.358 773.799 349.479 773.653C350.206 773.263 350.182 771.849 350.739 771.24C350.836 771.142 351.2 770.655 351.296 770.557C351.66 770.411 351.684 769.68 351.951 769.363C352.508 768.997 352.847 768.169 353.138 767.486C353.501 767.34 353.526 766.633 353.792 766.292C354.059 766.097 354.156 765.268 354.446 765.098C354.543 764.976 354.882 764.586 355.004 764.415C355.852 763.733 355.997 762.197 356.869 761.368C357.015 761.295 357.305 760.832 357.427 760.71C357.79 760.54 357.79 759.882 358.081 759.516C358.614 759.102 358.735 758.151 359.316 757.664C359.438 757.591 359.801 757.103 359.874 756.981C360.504 756.713 360.576 755.616 361.109 755.178C361.4 754.983 361.497 754.154 361.788 754.008C370.171 742.577 379.427 731.926 389.701 722.176C390.476 721.445 391.978 720.738 390.5 719.13L390.549 719.154Z" fill="#00CF4B"/>
<path d="M390.549 719.154C229.372 651.616 194.021 491.825 346.305 388.946C356.457 380.732 371.48 377.247 378.652 366.133C394.328 332.01 410.247 296.523 437.118 269.712C473.826 230.569 530.403 237.369 537.284 296.084C547.945 231.422 606 232.178 643.895 275.781C657.27 290.771 667.592 308.051 676.799 325.844C687.363 341.126 689.956 363.135 705.002 374.493C868.481 464.917 866.881 633.117 696.692 714.036C694.899 714.816 693.057 716.107 695.335 717.716C714.04 734.948 730.395 754.641 742.268 777.235C753.753 798.708 761.894 822.082 765.116 846.309C765.31 850.209 766.934 852.695 770.689 854.133C770.859 854.498 771.586 854.498 771.876 854.767C772.288 855.254 773.258 855.4 773.742 855.961C775.487 857.131 777.619 858.033 779.218 859.666C779.848 860.299 781.06 860.714 781.665 861.518C782.78 862.468 784.306 863.419 785.348 864.589C785.397 864.76 785.857 865.076 786.002 865.174C788.668 867.294 791.26 869.634 793.32 872.583C834.026 917.381 820.796 986.138 769.987 1011.9C794.047 1021.58 789.879 1041.98 764.39 1044C744.545 1046.71 724.604 1044.71 704.809 1042.73C703.064 1042.59 702.458 1042.93 702.676 1044.88C697.225 1102.52 607.914 1065.3 588.893 1033.52C584.484 1027.84 587.125 1021.38 590.056 1015.53C592.722 1009.54 595.629 1003.66 597.616 997.399C613.753 950.358 612.881 898.395 599.094 850.842C590.396 816.354 564.276 787.399 526.453 800.853C492.895 817.134 486.91 861.737 481.725 895.08C478.042 929.154 480.659 964.446 491.926 996.984C493.985 1004.05 497.668 1010.46 500.212 1017.34C504.913 1024.4 503.459 1031.52 498.153 1037.1C477.243 1066.62 391.687 1101.16 386.987 1044.73C387.205 1042.95 386.599 1042.59 385 1042.73C363.024 1044.83 340.708 1047.49 318.853 1042.73C293.848 1035.47 302.11 1020.26 320.67 1010.73C266.395 989.429 257.673 912.726 296.343 872.559C298.403 869.854 300.826 867.246 303.661 865.15C303.855 865.15 304.194 864.686 304.291 864.589C305.381 863.59 306.665 862.395 307.974 861.518C308.628 860.884 309.524 860.202 310.421 859.666C312.02 858.252 313.934 857.033 315.897 855.961C316.357 855.546 317.205 855.205 317.762 854.767C318.005 854.547 318.659 854.401 318.974 854.108C320.089 853.158 321.954 852.524 323.287 851.696C326.194 839.021 328.375 825.056 332.446 812.382C332.93 812.04 332.591 810.919 333.051 810.529C333.536 810.188 333.197 809.067 333.681 808.701C334.166 808.36 333.827 807.214 334.311 806.873C335.499 805.63 335.426 803.461 336.129 801.95C337.001 801.292 336.783 799.708 337.34 798.879C338.237 798.245 337.97 796.636 338.576 795.808C339.69 794.857 339.642 792.688 340.417 791.518C341.314 789.934 342.259 788.447 342.816 786.57C343.131 786.375 343.179 785.62 343.422 785.327C343.858 784.718 344.173 783.475 344.633 782.866C344.972 782.695 344.997 781.939 345.239 781.647C345.554 781.452 345.602 780.721 345.845 780.428C346.16 780.233 346.208 779.526 346.45 779.21C347.42 778.381 347.759 776.699 348.316 775.554C348.583 775.334 348.631 774.481 348.946 774.335C349.019 774.189 349.358 773.799 349.479 773.653C350.206 773.263 350.182 771.849 350.739 771.24C350.836 771.142 351.2 770.655 351.296 770.557C351.66 770.411 351.684 769.68 351.951 769.363C352.508 768.997 352.847 768.169 353.138 767.486C353.501 767.34 353.526 766.633 353.792 766.292C354.059 766.097 354.156 765.268 354.446 765.098C354.543 764.976 354.882 764.586 355.004 764.415C355.852 763.733 355.997 762.197 356.869 761.368C357.015 761.295 357.305 760.832 357.427 760.71C357.79 760.54 357.79 759.882 358.081 759.516C358.614 759.102 358.735 758.151 359.316 757.664C359.438 757.591 359.801 757.103 359.874 756.981C360.504 756.713 360.576 755.616 361.109 755.178C361.4 754.983 361.497 754.154 361.788 754.008C370.171 742.577 379.427 731.926 389.701 722.176C390.476 721.445 391.978 720.738 390.5 719.13L390.549 719.154Z" fill="#00CF4B"/>
<path d="M491.348 285.895C523.598 306.515 478.748 356.553 460.528 317.848C452.944 299.764 472.667 276.146 491.348 285.895Z" fill="#001602"/>
<path d="M582.791 322.992C567.163 309.855 577.266 276.219 599.243 281.508C635.854 291.648 615.695 344.391 582.791 322.992Z" fill="#001602"/>
<path d="M569.436 394.262C576.56 393.872 581.624 389.704 587.512 386.633C596.477 385.512 587.294 396.138 583.344 397.284C570.793 404.547 556.255 402.183 543.85 396.114C531.42 397.723 519.765 406.838 505.518 404.23C498.104 404.645 476.491 394.237 486.11 385.95C488.364 385.268 489.624 386.56 490.69 388.461C500.406 402.158 521.437 397.016 534.449 391.605C546.346 385.633 556.667 397.211 569.461 394.262H569.436Z" fill="#002D12"/>
<path d="M482.742 305.543C476.709 295.452 492.458 287.117 496.65 298.28C501.011 307.785 489.575 313.562 482.742 305.543Z" fill="#EBECED"/>
<path d="M611.354 296.741C612.517 312.34 590.735 306.198 597.01 293.597C600.33 286.602 610.216 289.819 611.354 296.741Z" fill="#EBECED"/>
<path d="M540.626 732.461H445.264C521.553 776.604 599.815 750.854 629.41 732.461H540.626Z" fill="#00C62E"/>
<path d="M488.602 278.797C506.208 288.289 511.48 305.606 502.278 321.637C496.291 332.039 484.764 338.073 473.179 336.854C462.297 335.669 453.46 327.407 450.138 315.676C443.699 292.737 469.658 270.852 488.602 278.797Z" fill="#0E0E0E"/>
<path d="M591.05 278.52C610.706 280.317 622.863 293.537 621.684 310.991C620.903 322.323 613.339 331.878 602.583 335.1C592.461 338.092 581.079 334.126 573.064 325.078C557.442 307.364 570.881 278.575 591.05 278.52Z" fill="#0E0E0E"/>
<path d="M481.85 307.537C476.335 305.544 474.305 302.053 475.821 296.774C476.851 293.32 479.423 291.052 483.152 290.099C487.853 288.897 491.563 289.985 494.342 293.072C496.29 295.247 497.063 297.906 495.363 300.893C492.55 305.774 487.789 307.265 481.911 307.491L481.85 307.537Z" fill="white"/>
<path d="M595.541 305.873C590.579 301.989 589.437 297.765 592.246 292.931C594.123 289.781 597.231 288.354 601.157 288.65C606.107 289.023 609.508 291.379 611.492 295.447C612.88 298.31 612.985 301.264 610.561 303.714C606.567 307.707 601.485 307.606 595.613 305.847L595.541 305.873Z" fill="white"/>
</svg>
