<svg width="320" height="320" viewBox="0 0 320 320" fill="none" xmlns="http://www.w3.org/2000/svg">
<mask id="mask0_1557_24370" style="mask-type:alpha" maskUnits="userSpaceOnUse" x="0" y="0" width="320" height="320">
<rect width="320" height="320" fill="#D9D9D9"/>
</mask>
<g mask="url(#mask0_1557_24370)">
<path d="M183.542 301.64C180.928 301.435 178.34 301.205 175.739 300.987C173.399 300.794 171.072 300.576 168.732 300.455C162.422 300.128 156.099 300.273 149.79 300.503C146.043 300.636 142.285 300.794 138.476 301.604C136.933 299.003 135.788 296.293 134.631 293.583C131.582 286.445 129.877 278.943 128.694 271.345C127.947 266.542 127.661 261.691 127.524 256.827C127.139 243.046 129.316 229.629 133.361 216.466C134.606 212.425 136.56 208.65 138.576 204.79C138.651 204.681 138.638 204.669 138.651 204.669C139.049 204.294 139.261 203.81 139.534 203.254C139.609 203.181 139.597 203.157 139.609 203.157C139.833 202.927 139.97 202.661 140.169 202.334C140.231 202.274 140.231 202.25 140.244 202.25C140.455 202.044 140.592 201.79 140.804 201.463C140.878 201.391 140.878 201.342 140.903 201.342C140.953 201.282 140.99 201.221 141.102 201.1C141.177 201.04 141.177 201.016 141.177 201.016C141.401 200.822 141.526 200.58 141.75 200.265C141.837 200.193 141.837 200.132 141.862 200.12C141.911 200.048 141.936 199.987 142.036 199.89C142.123 199.842 142.111 199.806 142.135 199.806C142.198 199.745 142.223 199.697 142.347 199.576C142.422 199.515 142.422 199.491 142.434 199.491C142.496 199.443 142.534 199.382 142.658 199.261C142.733 199.189 142.733 199.177 142.733 199.177C143.044 198.898 143.33 198.596 143.629 198.172C143.716 198.112 143.766 198.015 143.878 197.93C143.99 197.846 144.052 197.725 144.177 197.64C144.301 197.543 144.363 197.422 144.488 197.338C144.612 197.253 144.687 197.12 144.799 197.059C145.06 196.842 145.21 196.684 145.471 196.491C145.782 196.212 146.131 196.176 146.417 195.898C146.479 195.837 146.479 195.825 146.491 195.825C146.554 195.777 146.603 195.728 146.728 195.595C146.803 195.523 146.803 195.511 146.803 195.511C146.852 195.462 146.915 195.414 147.039 195.293C147.114 195.22 147.114 195.208 147.114 195.208C147.164 195.16 147.213 195.111 147.35 195.003C147.437 194.942 147.437 194.918 147.462 194.918C147.512 194.869 147.537 194.809 147.674 194.736C150.3 192.873 153.312 192.498 156.311 192.087C160.157 191.566 164.002 191.506 167.823 192.28C173.498 193.43 177.357 197.059 180.704 201.33C182.285 203.351 183.592 205.54 184.774 207.936C184.849 208.081 184.899 208.118 184.961 208.239C185.011 208.372 185.036 208.432 185.098 208.565C185.172 208.686 185.21 208.722 185.272 208.843C185.309 208.977 185.347 209.037 185.409 209.182C185.484 209.303 185.533 209.339 185.583 209.448C185.62 209.594 185.645 209.654 185.708 209.811C185.795 209.932 185.845 209.957 185.869 210.065C185.882 210.211 185.919 210.271 185.994 210.453C186.143 210.634 186.205 210.731 186.243 210.961C186.293 211.118 186.317 211.166 186.367 211.312C186.442 211.433 186.479 211.469 186.529 211.59C186.566 211.735 186.591 211.796 186.641 211.965C186.778 212.146 186.84 212.255 186.865 212.485C186.915 212.642 186.94 212.691 186.99 212.848C187.064 212.969 187.102 213.005 187.139 213.126C187.164 213.272 187.201 213.344 187.251 213.501C187.388 213.683 187.462 213.78 187.475 214.01C187.512 214.167 187.537 214.227 187.587 214.385C187.711 214.578 187.774 214.687 187.798 214.917C187.836 215.074 187.861 215.135 187.91 215.292C188.035 215.486 188.085 215.607 188.122 215.836C188.172 215.994 188.184 216.054 188.234 216.212C188.359 216.405 188.408 216.514 188.433 216.756C188.471 216.913 188.495 216.974 188.545 217.143C188.894 218.377 189.217 219.514 189.616 220.749C189.703 220.978 189.74 221.112 189.79 221.353C190.2 223.434 190.748 225.382 191.209 227.451C191.283 227.681 191.321 227.826 191.358 228.056C191.843 230.609 192.378 233.053 192.827 235.63C192.876 235.884 192.901 236.029 192.926 236.283C192.914 236.84 193.038 237.263 193.138 237.796C193.187 238.025 193.2 238.171 193.225 238.425C193.387 240.167 193.573 241.812 193.772 243.567C193.822 243.918 193.847 244.16 193.859 244.522C193.835 245.974 194.096 247.305 194.084 248.757C194.133 249.301 194.158 249.749 194.158 250.318C194.233 252.677 194.183 254.915 194.171 257.275C194.158 257.843 194.146 258.279 194.133 258.847C194.021 260.408 193.859 261.836 193.859 263.384C193.847 263.651 193.847 263.796 193.822 264.05C193.71 264.994 193.548 265.816 193.548 266.748C193.536 267.002 193.523 267.147 193.499 267.401C193.163 268.829 193.163 270.184 192.914 271.624C192.889 271.878 192.876 272.023 192.851 272.277C192.528 273.305 192.553 274.273 192.304 275.302C192.279 275.544 192.266 275.689 192.229 275.931C191.843 277.262 191.682 278.52 191.358 279.863C191.321 280.105 191.308 280.238 191.258 280.468C190.897 281.496 190.698 282.464 190.424 283.517C190.387 283.759 190.375 283.892 190.312 284.122C189.802 285.682 189.304 287.134 188.856 288.695C188.819 288.937 188.782 289.082 188.695 289.324C188.67 289.481 188.682 289.53 188.62 289.626C188.533 289.735 188.52 289.784 188.471 289.941C187.948 290.921 187.674 291.877 187.35 292.929C187.263 293.075 187.251 293.135 187.189 293.28C186.965 293.692 186.815 294.03 186.716 294.466C186.629 294.599 186.604 294.66 186.541 294.817C186.492 294.962 186.492 295.022 186.417 295.119C186.33 295.228 186.317 295.289 186.255 295.422C185.907 296.015 185.596 296.523 185.446 297.2C185.359 297.333 185.334 297.406 185.26 297.563C185.21 297.708 185.21 297.769 185.148 297.866C185.048 297.975 185.036 298.035 184.961 298.18C184.911 298.325 184.911 298.374 184.836 298.483C184.749 298.592 184.737 298.652 184.675 298.785C184.438 299.184 184.289 299.523 184.189 299.971C184.115 300.104 184.09 300.164 184.04 300.31C183.803 300.721 183.654 301.06 183.567 301.507C183.567 301.58 183.555 301.628 183.542 301.64Z" fill="#DBFF9E"/>
<path d="M101.563 182.806C39.0547 156.768 25.3446 95.1615 84.4041 55.4972C88.3414 52.3305 94.1674 50.9867 96.9489 46.7017C103.029 33.5461 109.202 19.8642 119.624 9.52762C133.86 -5.56379 155.802 -2.94206 158.47 19.6951C162.605 -5.2349 185.12 -4.9436 199.817 11.8674C205.004 17.6465 209.007 24.3089 212.578 31.1687C216.675 37.0605 217.68 45.5459 223.516 49.9249C286.917 84.7874 286.296 149.635 220.293 180.833C219.597 181.134 218.883 181.632 219.766 182.252C227.021 188.896 233.364 196.488 237.968 205.199C242.422 213.478 245.58 222.489 246.829 231.83C246.905 233.334 247.534 234.292 248.991 234.846C249.056 234.987 249.338 234.987 249.451 235.091C249.611 235.279 249.987 235.335 250.175 235.551C250.851 236.002 251.678 236.35 252.298 236.98C252.543 237.224 253.013 237.384 253.247 237.694C253.68 238.06 254.272 238.427 254.676 238.878C254.695 238.943 254.873 239.066 254.93 239.103C255.963 239.921 256.969 240.823 257.767 241.96C273.554 259.231 268.423 285.74 248.718 295.673C258.049 299.403 256.433 307.268 246.547 308.048C238.851 309.091 231.118 308.321 223.441 307.56C222.764 307.503 222.529 307.635 222.614 308.387C220.499 330.61 185.862 316.261 178.486 304.008C176.776 301.818 177.8 299.328 178.937 297.073C179.97 294.761 181.098 292.496 181.869 290.081C188.127 271.945 187.789 251.911 182.442 233.578C179.068 220.281 168.939 209.118 154.27 214.305C141.255 220.582 138.934 237.778 136.923 250.633C135.495 263.77 136.51 277.377 140.879 289.922C141.678 292.647 143.106 295.118 144.093 297.768C145.916 300.493 145.352 303.237 143.294 305.389C135.185 316.769 102.004 330.084 100.181 308.33C100.266 307.644 100.031 307.503 99.4109 307.56C90.8879 308.368 82.2334 309.392 73.7574 307.56C64.0598 304.759 67.2641 298.896 74.4621 295.221C53.4131 287.009 50.0302 257.437 65.0277 241.95C65.8264 240.907 66.7661 239.902 67.8655 239.094C67.9407 239.094 68.0723 238.915 68.1098 238.878C68.5327 238.492 69.0307 238.032 69.5382 237.694C69.7919 237.449 70.1396 237.186 70.4873 236.98C71.1075 236.434 71.8498 235.965 72.611 235.551C72.7895 235.391 73.1184 235.26 73.3345 235.091C73.4285 235.006 73.6822 234.95 73.8044 234.837C74.2366 234.471 74.9602 234.226 75.477 233.907C76.6046 229.02 77.4504 223.636 79.029 218.75C79.217 218.618 79.0854 218.186 79.264 218.035C79.4519 217.904 79.3203 217.472 79.5083 217.331C79.6962 217.199 79.5647 216.757 79.7526 216.626C80.213 216.147 80.1849 215.31 80.4574 214.728C80.7957 214.474 80.7111 213.863 80.9272 213.544C81.2749 213.299 81.1715 212.679 81.4065 212.36C81.8387 211.993 81.8199 211.157 82.1206 210.706C82.4683 210.095 82.8348 209.522 83.0509 208.798C83.1731 208.723 83.1919 208.432 83.2858 208.319C83.455 208.084 83.5771 207.605 83.7557 207.37C83.8872 207.304 83.8966 207.013 83.9906 206.9C84.1128 206.825 84.1316 206.543 84.2255 206.43C84.3477 206.355 84.3665 206.082 84.4604 205.96C84.8363 205.641 84.9679 204.992 85.184 204.551C85.2874 204.466 85.3062 204.137 85.4283 204.081C85.4565 204.025 85.5881 203.874 85.6351 203.818C85.917 203.667 85.9076 203.122 86.1237 202.888C86.1613 202.85 86.3022 202.662 86.3398 202.624C86.4808 202.568 86.4902 202.286 86.5935 202.164C86.8097 202.023 86.9412 201.704 87.054 201.44C87.1949 201.384 87.2043 201.112 87.3077 200.98C87.4111 200.905 87.4487 200.585 87.5614 200.52C87.599 200.473 87.7306 200.322 87.7776 200.256C88.1064 199.993 88.1628 199.401 88.5011 199.082C88.5575 199.054 88.6703 198.875 88.7172 198.828C88.8582 198.762 88.8582 198.509 88.971 198.368C89.1777 198.208 89.2247 197.841 89.4502 197.653C89.4972 197.625 89.6381 197.437 89.6663 197.39C89.9106 197.287 89.9388 196.864 90.1456 196.695C90.2583 196.62 90.2959 196.3 90.4087 196.244C93.66 191.837 97.2496 187.73 101.234 183.972C101.535 183.69 102.117 183.417 101.544 182.797L101.563 182.806Z" fill="#00CE4C"/>
<path d="M142.299 13.394C148.431 16.6802 150.267 22.6756 147.062 28.2261C144.977 31.8275 140.962 33.9164 136.928 33.4944C133.138 33.0842 130.06 30.2236 128.903 26.1623C126.661 18.2205 135.701 10.6432 142.299 13.394Z" fill="#0E0E0E"/>
<path d="M177.981 13.298C184.827 13.92 189.061 18.4971 188.65 24.5401C188.378 28.4633 185.744 31.7715 181.998 32.8871C178.473 33.9229 174.509 32.5497 171.717 29.4171C166.277 23.2843 170.957 13.3169 177.981 13.298Z" fill="#0E0E0E"/>
<path d="M139.947 23.3436C138.026 22.6536 137.32 21.4447 137.847 19.6171C138.206 18.4214 139.102 17.6362 140.4 17.3062C142.038 16.8901 143.33 17.2665 144.298 18.3354C144.976 19.0886 145.245 20.009 144.653 21.0431C143.674 22.7331 142.015 23.2492 139.968 23.3277L139.947 23.3436Z" fill="white"/>
<path d="M179.544 22.7676C177.816 21.4227 177.418 19.9604 178.397 18.2866C179.05 17.1961 180.133 16.7021 181.5 16.8045C183.224 16.9337 184.409 17.7495 185.1 19.1578C185.583 20.149 185.619 21.1718 184.775 22.0201C183.384 23.4026 181.614 23.3676 179.569 22.7586L179.544 22.7676Z" fill="white"/>
<path d="M170.938 57.5461C173.701 57.3957 175.665 55.7888 177.949 54.6048C181.425 54.1726 177.864 58.2696 176.332 58.7113C171.465 61.5115 165.827 60.6 161.015 58.2602C156.195 58.8804 151.675 62.3949 146.149 61.3894C143.274 61.5491 134.892 57.5367 138.623 54.3417C139.496 54.0786 139.985 54.5766 140.399 55.3096C144.167 60.5907 152.323 58.6079 157.369 56.5218C161.983 54.2196 165.986 58.6831 170.948 57.5461H170.938Z" fill="#0E0E0E"/>
<path d="M159.764 187.938H122.78C152.367 204.957 182.719 195.029 194.196 187.938H159.764Z" fill="#00C62E"/>
</g>
</svg>
