<svg width="1075" height="1075" viewBox="0 0 1075 1075" fill="none" xmlns="http://www.w3.org/2000/svg">
<path d="M166.748 1029.27C166.748 1029.27 213.155 958.192 276.264 1006.69C339.364 1055.18 745.078 989.756 745.078 989.756L827.343 1029.27C827.343 1029.27 857.662 949.692 911.99 1006.25L872.96 846.221L166.748 790.664V1029.27Z" fill="#8B0F18"/>
<path d="M166.748 718.325C166.748 718.325 197.379 687.453 268.653 712.892C339.919 738.34 297.161 755.634 297.161 755.634L166.748 718.316V718.325Z" fill="black"/>
<path d="M901.4 829.048C901.4 829.048 916.603 782.892 690.881 736.693L695.249 777.009L901.4 829.048Z" fill="black"/>
<path d="M879.826 876.338C879.826 876.338 886.786 1008.21 861.26 1029.27C861.26 1029.27 897.751 992.33 912 1006.24L901.408 829.039L879.835 876.33L879.826 876.338Z" fill="black"/>
<path d="M147.143 778.802C147.143 778.802 135.165 926.072 100 951.182C100 951.182 157.761 958.711 165.302 1021.48C172.843 1084.24 175.348 747.272 175.348 747.272L147.143 778.802Z" fill="black"/>
<path d="M402.552 693.579C402.552 693.579 300.5 737.023 229.858 706.108C159.217 675.193 148.738 751.527 148.738 751.527C148.738 751.527 131.221 802.006 209.533 825.53C287.836 849.054 402.05 833.216 402.05 833.216L402.561 693.588L402.552 693.579Z" fill="#B2C9D8"/>
<path d="M683.548 733.185C683.548 733.185 769.608 803.141 846.039 792.961C922.471 782.78 911.437 859.027 911.437 859.027C911.437 859.027 914.306 912.374 832.544 913.336C750.782 914.298 645.41 867.51 645.41 867.51L683.539 733.185H683.548Z" fill="#B2C9D8"/>
<path d="M166.748 582.985C166.748 582.985 525.588 338.188 901.399 582.985C901.399 582.985 840.786 780.18 663.793 741.649C486.8 703.118 404.362 746.64 404.362 746.64C404.362 746.64 195.845 766.577 166.757 582.985H166.748Z" fill="#8B0F18"/>
<path d="M730.414 149.962L677.429 174.24L654.147 143.697L620.213 168.356L596.334 145.785L575.61 163.946L555.354 138.949L535.158 166.883L532.341 170.479L529.524 166.883L509.337 138.949L489.072 163.946L467.481 146.487L444.469 168.356L406.184 138.949L387.254 174.24L334.269 155.533V387.091V406.56L381.611 417.494L532.341 314.266L683.071 417.494L730.414 406.56V387.091V149.962Z" fill="black"/>
<path d="M491.246 1064.82C491.246 1064.82 529.375 1033.72 573.424 1064.82L614.578 952.066L572.046 813.747L499.463 808.643L444.458 944.129L491.246 1064.81V1064.82Z" fill="#DCEBF4"/>
<path d="M491.247 1064.82C491.247 1064.82 500.313 1056.16 492.582 1045.68C484.85 1035.19 467.671 996.021 471.173 932.943C474.675 869.866 501.128 818.018 532.331 818.018C563.535 818.018 589.988 869.866 593.49 932.943C596.992 996.021 579.813 1035.19 572.081 1045.68C564.35 1056.16 573.416 1064.82 573.416 1064.82C630.05 1069.24 616.824 1067.5 642.488 1068.97C682.836 1071.26 671.039 1070.34 690.316 1072.01C697.606 1072.64 703.101 1072.73 703.101 1072.73C786.44 1080.98 779.307 1064.63 782.566 1057.31C785.825 1049.99 764.13 1038.64 764.13 1038.64C800.967 1019.18 815.217 997.433 815.217 954.267C815.217 911.1 772.451 878.323 765.89 876.763C759.328 875.203 759.492 867.605 759.492 867.605C755.323 789.468 690.854 736.702 690.854 736.702C761.547 701.949 840.214 651.409 840.214 550.312C840.214 449.215 704.531 377.196 704.531 377.196C669.731 300.073 628.031 247.731 583.358 247.731C538.685 247.731 537.107 288.749 533.588 299.805C532.982 301.702 532.314 301.659 532.314 301.659C532.314 301.659 531.647 301.702 531.04 299.805C527.521 288.749 525.935 247.731 481.271 247.731C436.606 247.731 394.898 300.073 360.097 377.196C360.097 377.196 224.414 449.215 224.414 550.312C224.414 651.409 303.081 701.94 373.775 736.702C373.775 736.702 309.305 789.468 305.136 867.605C305.136 867.605 305.3 875.195 298.739 876.763C292.178 878.323 249.412 911.1 249.412 954.267C249.412 997.433 263.661 1019.19 300.499 1038.64C300.499 1038.64 278.812 1049.99 282.062 1057.31C285.321 1064.63 285.512 1079.75 368.851 1071.49" fill="#B2C9D8"/>
<path d="M457.737 333.545C442.422 319.405 447.717 296.695 466.058 288.81C477.334 283.967 488.282 290.647 492.598 300.958C497.409 312.473 493.413 325.418 483.592 333.251C477.49 338.12 466.024 339.714 457.737 333.537V333.545Z" fill="#040C06"/>
<path d="M476.711 312.586C472.117 309.276 471.303 304.286 474.484 300.205C477.153 296.791 481.912 296.323 485.448 299.113C489.34 302.189 490.285 308.652 487.364 312.153C485.153 314.804 481.868 314.969 476.711 312.577V312.586Z" fill="#FEFFFE"/>
<path d="M611.632 297.042C615.61 304.476 617.656 311.953 614.041 319.907C610.141 328.494 603.103 332.938 593.958 333.606C584.398 334.307 576.814 330.4 572.264 321.787C569.143 315.878 569.282 309.501 570.452 302.977C571.622 296.444 574.639 291.341 580.203 287.797C585.724 284.279 591.61 283.49 597.668 286.22C603.086 288.663 608.217 291.583 611.632 297.042Z" fill="#040C06"/>
<path d="M605.606 308.132C601.87 311.711 598.542 312.101 595.04 309.544C591.764 307.144 590.619 302.405 592.37 298.489C594.009 294.832 597.164 293.351 601.194 294.347C606.577 295.673 608.665 301.929 605.606 308.132Z" fill="#FEFFFE"/>
<path d="M448.768 387.09C448.768 387.09 501.51 380.843 531.691 380.843C561.871 380.843 615.923 387.09 615.923 387.09C615.923 387.09 595.692 467.349 532.349 467.349C469.006 467.349 448.776 387.09 448.776 387.09H448.768Z" fill="#E26969"/>
<path d="M334.269 390.782L358.46 485.718L360.124 374.848L334.269 390.782Z" fill="black"/>
<path d="M730.413 390.782L706.222 485.718L704.558 374.848L730.413 390.782Z" fill="black"/>
<path d="M166.748 582.986C166.748 582.986 506.06 989.219 901.399 582.986C901.399 582.986 834.788 786.982 659.243 741.65C483.862 696.352 399.812 746.64 399.812 746.64C399.812 746.64 195.845 766.577 166.748 582.986Z" fill="black"/>
<path d="M463.987 385.428L478.072 413.908L489.071 383.071L463.987 385.428Z" fill="white"/>
<path d="M599.289 385.428L585.204 413.908L574.205 383.071L599.289 385.428Z" fill="white"/>
</svg>
