<svg width="1075" height="1076" viewBox="0 0 1075 1076" fill="none" xmlns="http://www.w3.org/2000/svg">
<path d="M601.923 1027.75C595.184 1027.22 588.509 1026.63 581.802 1026.07C575.769 1025.57 569.769 1025.01 563.736 1024.69C547.466 1023.85 531.164 1024.23 514.895 1024.82C505.236 1025.16 495.545 1025.57 485.725 1027.66C481.746 1020.95 478.794 1013.96 475.809 1006.98C467.947 988.571 463.551 969.229 460.503 949.639C458.577 937.254 457.839 924.745 457.486 912.204C456.491 876.673 462.107 842.077 472.536 808.137C475.745 797.717 480.783 787.984 485.982 778.033C486.174 777.752 486.142 777.721 486.174 777.721C487.201 776.754 487.747 775.506 488.453 774.071C488.645 773.884 488.613 773.822 488.645 773.822C489.223 773.229 489.576 772.543 490.089 771.7C490.25 771.544 490.25 771.482 490.282 771.482C490.828 770.952 491.18 770.297 491.726 769.454C491.919 769.267 491.919 769.142 491.983 769.142C492.111 768.986 492.207 768.83 492.496 768.519C492.689 768.363 492.689 768.3 492.689 768.3C493.266 767.801 493.587 767.177 494.165 766.366C494.39 766.179 494.389 766.023 494.454 765.992C494.582 765.805 494.646 765.649 494.903 765.399C495.128 765.274 495.095 765.181 495.16 765.181C495.32 765.025 495.384 764.9 495.705 764.588C495.898 764.432 495.898 764.369 495.93 764.369C496.09 764.245 496.187 764.089 496.507 763.777C496.7 763.59 496.7 763.558 496.7 763.558C497.502 762.841 498.24 762.061 499.01 760.969C499.235 760.813 499.363 760.564 499.652 760.345C499.941 760.127 500.101 759.815 500.422 759.597C500.743 759.347 500.904 759.035 501.225 758.817C501.546 758.598 501.738 758.255 502.027 758.099C502.701 757.538 503.086 757.132 503.76 756.633C504.562 755.916 505.461 755.822 506.199 755.104C506.359 754.948 506.359 754.917 506.391 754.917C506.552 754.793 506.68 754.668 507.001 754.325C507.193 754.137 507.193 754.106 507.193 754.106C507.322 753.981 507.482 753.857 507.803 753.545C507.996 753.358 507.996 753.326 507.996 753.326C508.124 753.202 508.252 753.077 508.605 752.796C508.83 752.64 508.83 752.578 508.894 752.578C509.022 752.453 509.087 752.297 509.44 752.11C516.211 747.306 523.976 746.339 531.71 745.278C541.626 743.937 551.542 743.781 561.393 745.777C576.026 748.741 585.974 758.099 594.606 769.111C598.682 774.321 602.051 779.967 605.1 786.144C605.292 786.518 605.42 786.612 605.581 786.924C605.709 787.267 605.773 787.423 605.934 787.766C606.126 788.078 606.223 788.172 606.383 788.484C606.479 788.827 606.576 788.983 606.736 789.357C606.929 789.669 607.057 789.763 607.185 790.043C607.282 790.418 607.346 790.574 607.506 790.979C607.731 791.291 607.859 791.354 607.924 791.634C607.956 792.009 608.052 792.165 608.244 792.632C608.629 793.1 608.79 793.35 608.886 793.943C609.015 794.348 609.079 794.473 609.207 794.847C609.4 795.159 609.496 795.253 609.624 795.565C609.721 795.939 609.785 796.095 609.913 796.532C610.266 797 610.427 797.281 610.491 797.873C610.619 798.279 610.683 798.404 610.812 798.809C611.004 799.121 611.1 799.215 611.197 799.527C611.261 799.901 611.357 800.088 611.486 800.494C611.839 800.962 612.031 801.211 612.063 801.804C612.159 802.209 612.224 802.365 612.352 802.771C612.673 803.27 612.833 803.551 612.897 804.144C612.994 804.549 613.058 804.705 613.186 805.111C613.507 805.61 613.636 805.922 613.732 806.514C613.86 806.92 613.892 807.076 614.021 807.481C614.341 807.981 614.47 808.261 614.534 808.885C614.63 809.291 614.694 809.447 614.823 809.884C615.721 813.065 616.556 815.998 617.583 819.18C617.807 819.772 617.903 820.116 618.032 820.74C619.091 826.105 620.503 831.128 621.69 836.462C621.883 837.055 621.979 837.429 622.075 838.022C623.327 844.604 624.707 850.905 625.862 857.55C625.99 858.205 626.054 858.579 626.118 859.235C626.086 860.67 626.407 861.761 626.664 863.134C626.792 863.727 626.824 864.101 626.889 864.756C627.306 869.248 627.787 873.491 628.301 878.014C628.429 878.919 628.493 879.543 628.525 880.479C628.461 884.222 629.135 887.654 629.103 891.397C629.231 892.801 629.295 893.955 629.295 895.421C629.488 901.504 629.36 907.275 629.327 913.359C629.295 914.825 629.263 915.948 629.231 917.414C628.942 921.438 628.525 925.119 628.525 929.112C628.493 929.799 628.493 930.173 628.429 930.828C628.14 933.261 627.723 935.382 627.723 937.785C627.691 938.44 627.659 938.814 627.595 939.469C626.728 943.15 626.728 946.644 626.086 950.356C626.022 951.011 625.99 951.386 625.926 952.041C625.092 954.692 625.156 957.188 624.514 959.84C624.45 960.464 624.418 960.838 624.321 961.462C623.327 964.893 622.909 968.138 622.075 971.6C621.979 972.224 621.947 972.567 621.818 973.16C620.888 975.812 620.374 978.307 619.668 981.021C619.572 981.645 619.54 981.988 619.38 982.581C618.064 986.605 616.78 990.349 615.625 994.373C615.529 994.997 615.433 995.371 615.208 995.995C615.144 996.401 615.176 996.525 615.015 996.775C614.791 997.056 614.759 997.181 614.63 997.586C613.283 1000.11 612.577 1002.58 611.742 1005.29C611.518 1005.67 611.486 1005.82 611.325 1006.2C610.747 1007.26 610.362 1008.13 610.106 1009.25C609.881 1009.6 609.817 1009.75 609.656 1010.16C609.528 1010.53 609.528 1010.69 609.335 1010.94C609.111 1011.22 609.079 1011.37 608.918 1011.72C608.02 1013.25 607.218 1014.56 606.832 1016.3C606.608 1016.65 606.544 1016.83 606.351 1017.24C606.223 1017.61 606.223 1017.77 606.062 1018.02C605.806 1018.3 605.773 1018.46 605.581 1018.83C605.453 1019.2 605.453 1019.33 605.26 1019.61C605.035 1019.89 605.003 1020.05 604.843 1020.39C604.233 1021.42 603.848 1022.29 603.591 1023.45C603.399 1023.79 603.335 1023.95 603.206 1024.32C602.597 1025.38 602.212 1026.25 601.987 1027.41C601.987 1027.6 601.955 1027.72 601.923 1027.75Z" fill="#BEE6F5"/>
<path d="M390.544 721.349C229.373 654.211 194.023 495.365 346.302 393.094C356.454 384.929 371.476 381.465 378.648 370.416C394.324 336.495 410.243 301.218 437.113 274.566C473.819 235.654 530.394 242.414 537.275 300.782C547.936 236.502 605.989 237.253 643.883 280.599C657.257 295.5 667.579 312.678 676.786 330.366C687.35 345.557 689.942 367.436 704.989 378.727C868.462 468.616 866.863 635.821 696.678 716.261C694.885 717.037 693.044 718.321 695.321 719.92C714.026 737.05 730.381 756.627 742.253 779.087C753.737 800.433 761.878 823.668 765.101 847.752C765.295 851.629 766.918 854.1 770.673 855.53C770.843 855.893 771.57 855.893 771.861 856.16C772.273 856.644 773.242 856.789 773.726 857.347C775.471 858.51 777.603 859.406 779.202 861.03C779.832 861.66 781.043 862.071 781.649 862.871C782.764 863.816 784.29 864.761 785.332 865.924C785.38 866.094 785.841 866.408 785.986 866.505C788.651 868.613 791.244 870.939 793.303 873.871C834.008 918.404 820.779 986.754 769.971 1012.36C794.03 1021.98 789.863 1042.26 764.374 1044.27C744.53 1046.96 724.59 1044.98 704.795 1043.01C703.05 1042.87 702.445 1043.21 702.663 1045.15C697.211 1102.45 607.903 1065.45 588.883 1033.86C584.473 1028.21 587.114 1021.79 590.046 1015.97C592.711 1010.01 595.619 1004.17 597.606 997.948C613.742 951.186 612.87 899.53 599.084 852.259C590.385 817.975 564.266 789.191 526.445 802.565C492.888 818.75 486.903 863.089 481.718 896.234C478.035 930.107 480.652 965.19 491.919 997.536C493.978 1004.56 497.661 1010.93 500.205 1017.77C504.905 1024.79 503.452 1031.87 498.145 1037.42C477.236 1066.76 391.683 1101.09 386.983 1045C387.201 1043.23 386.595 1042.87 384.996 1043.01C363.02 1045.1 340.705 1047.74 318.851 1043.01C293.846 1035.79 302.108 1020.67 320.668 1011.2C266.395 990.025 257.672 913.776 296.342 873.847C298.401 871.157 300.824 868.565 303.659 866.481C303.853 866.481 304.192 866.021 304.289 865.924C305.379 864.93 306.663 863.743 307.972 862.871C308.626 862.241 309.523 861.563 310.419 861.03C312.018 859.624 313.932 858.413 315.895 857.347C316.355 856.935 317.203 856.596 317.76 856.16C318.003 855.941 318.657 855.796 318.972 855.505C320.086 854.56 321.952 853.93 323.285 853.107C326.192 840.508 328.373 826.624 332.443 814.025C332.928 813.686 332.589 812.572 333.049 812.184C333.533 811.845 333.194 810.73 333.679 810.367C334.163 810.028 333.824 808.889 334.309 808.55C335.496 807.314 335.423 805.157 336.126 803.655C336.998 803.001 336.78 801.426 337.337 800.602C338.234 799.972 337.967 798.373 338.573 797.55C339.688 796.605 339.639 794.448 340.415 793.285C341.311 791.71 342.256 790.232 342.813 788.367C343.128 788.173 343.177 787.422 343.419 787.131C343.855 786.525 344.17 785.29 344.63 784.684C344.97 784.514 344.994 783.763 345.236 783.472C345.551 783.279 345.6 782.552 345.842 782.261C346.157 782.067 346.205 781.365 346.448 781.05C347.417 780.226 347.756 778.554 348.313 777.415C348.58 777.197 348.628 776.349 348.943 776.204C349.016 776.058 349.355 775.671 349.476 775.525C350.203 775.138 350.179 773.732 350.736 773.127C350.833 773.03 351.196 772.545 351.293 772.448C351.657 772.303 351.681 771.576 351.948 771.261C352.505 770.898 352.844 770.074 353.135 769.395C353.498 769.25 353.522 768.547 353.789 768.208C354.055 768.014 354.152 767.191 354.443 767.021C354.54 766.9 354.879 766.512 355 766.343C355.848 765.664 355.994 764.138 356.866 763.314C357.011 763.241 357.302 762.781 357.423 762.66C357.787 762.49 357.787 761.836 358.077 761.473C358.611 761.061 358.732 760.116 359.313 759.631C359.434 759.558 359.798 759.074 359.87 758.953C360.5 758.686 360.573 757.596 361.106 757.16C361.397 756.966 361.494 756.142 361.785 755.997C370.168 744.633 379.423 734.045 389.696 724.354C390.472 723.627 391.974 722.924 390.496 721.325L390.544 721.349Z" fill="#6BCEF5"/>
<path d="M499.039 269.891C555.286 305.643 477.064 392.401 445.285 325.293C432.058 293.937 466.457 252.988 499.039 269.891Z" fill="#001602"/>
<path d="M476.346 302.137C462.93 283.075 497.952 267.328 507.273 288.416C516.971 306.374 491.54 317.286 476.346 302.137Z" fill="#EBECED"/>
<path d="M460.987 332.258C453.446 319.758 473.131 309.431 478.37 323.26C483.821 335.036 469.527 342.191 460.987 332.258Z" fill="#EBECED"/>
<path d="M567.033 341.629C538.556 317.831 556.967 256.903 597.012 266.484C663.724 284.851 626.99 380.393 567.033 341.629Z" fill="#001602"/>
<path d="M620.175 291.724C623.072 321.269 568.814 309.636 584.446 285.769C592.714 272.52 617.339 278.614 620.175 291.724Z" fill="#EBECED"/>
<path d="M590.387 325.43C591.906 344.803 563.443 337.175 571.643 321.525C575.981 312.837 588.899 316.833 590.387 325.43Z" fill="#EBECED"/>
<path d="M540.62 734.578H445.262C521.549 778.459 599.808 752.862 629.402 734.578H540.62Z" fill="#25C1FF"/>
<path d="M661.76 700.684C646.143 681.857 573.64 734.268 539.341 762.827C572.823 789.622 643.77 838.366 659.701 818.99C675.633 799.614 661 770.769 653.727 760.821C661.556 747.251 677.377 719.511 661.76 700.684Z" fill="#FF6B00" stroke="#FF6B00" stroke-width="2"/>
<path d="M418.055 700.058C433.993 681.502 505.586 735.149 539.391 764.292C505.454 790.508 433.682 838.029 418.085 818.382C402.488 798.736 417.613 770.146 425.056 760.324C417.461 746.622 402.118 718.614 418.055 700.058Z" fill="#FF6B00" stroke="#FF6B00" stroke-width="2"/>
<rect x="506.126" y="717.774" width="66.1123" height="89.2436" rx="3" transform="rotate(-0.280062 506.126 717.774)" fill="#FF6B00" stroke="#FF6B00" stroke-width="2"/>
<path d="M546.392 386.656C564.024 386.688 580.988 388.16 596.983 391.979C600.556 392.837 602.593 393.985 602.193 395.911C599.989 406.784 598.419 417.69 592.241 428.272C587.099 437.074 580.52 445.585 568.565 452.834C560.952 457.445 551.735 460.827 539.012 461.361C527.525 461.846 517.974 459.71 509.559 456.199C498.339 451.539 491.326 445.471 485.85 438.951C476.967 428.336 473.695 417.188 473.327 405.813C473.26 403.613 473.895 401.428 474.028 399.228C474.129 397.869 475.865 397.189 477.902 396.461C498.272 389.164 521.547 386.623 546.392 386.656Z" fill="#FF5D5D"/>
</svg>
