<svg width="1075" height="1075" viewBox="0 0 1075 1075" fill="none" xmlns="http://www.w3.org/2000/svg">
<path d="M601.923 1027.66C595.184 1027.13 588.509 1026.54 581.802 1025.98C575.769 1025.48 569.769 1024.92 563.736 1024.6C547.466 1023.76 531.164 1024.14 514.895 1024.73C505.236 1025.07 495.545 1025.48 485.725 1027.57C481.746 1020.86 478.794 1013.87 475.809 1006.89C467.947 988.48 463.551 969.139 460.503 949.549C458.577 937.164 457.839 924.655 457.486 912.114C456.491 876.583 462.107 841.987 472.536 808.046C475.745 797.627 480.783 787.894 485.982 777.943C486.174 777.662 486.142 777.631 486.174 777.631C487.201 776.664 487.747 775.416 488.453 773.981C488.645 773.794 488.613 773.731 488.645 773.731C489.223 773.139 489.576 772.452 490.089 771.61C490.25 771.454 490.25 771.392 490.282 771.392C490.828 770.861 491.18 770.206 491.726 769.364C491.919 769.177 491.919 769.052 491.983 769.052C492.111 768.896 492.207 768.74 492.496 768.428C492.689 768.272 492.689 768.21 492.689 768.21C493.266 767.711 493.587 767.087 494.165 766.276C494.39 766.089 494.389 765.933 494.454 765.901C494.582 765.714 494.646 765.558 494.903 765.309C495.128 765.184 495.095 765.09 495.16 765.09C495.32 764.934 495.384 764.81 495.705 764.498C495.898 764.342 495.898 764.279 495.93 764.279C496.09 764.154 496.187 763.999 496.507 763.687C496.7 763.499 496.7 763.468 496.7 763.468C497.502 762.751 498.24 761.971 499.01 760.879C499.235 760.723 499.363 760.474 499.652 760.255C499.941 760.037 500.101 759.725 500.422 759.506C500.743 759.257 500.904 758.945 501.225 758.726C501.546 758.508 501.738 758.165 502.027 758.009C502.701 757.448 503.086 757.042 503.76 756.543C504.562 755.825 505.461 755.732 506.199 755.014C506.359 754.858 506.359 754.827 506.391 754.827C506.552 754.702 506.68 754.578 507.001 754.234C507.193 754.047 507.193 754.016 507.193 754.016C507.322 753.891 507.482 753.766 507.803 753.454C507.996 753.267 507.996 753.236 507.996 753.236C508.124 753.111 508.252 752.987 508.605 752.706C508.83 752.55 508.83 752.487 508.894 752.487C509.022 752.363 509.087 752.207 509.44 752.02C516.211 747.215 523.976 746.248 531.71 745.188C541.626 743.846 551.542 743.69 561.393 745.687C576.026 748.65 585.974 758.009 594.606 769.021C598.682 774.231 602.051 779.877 605.1 786.054C605.292 786.428 605.42 786.522 605.581 786.834C605.709 787.177 605.773 787.333 605.934 787.676C606.126 787.988 606.223 788.081 606.383 788.393C606.479 788.736 606.576 788.892 606.736 789.267C606.929 789.579 607.057 789.672 607.185 789.953C607.282 790.327 607.346 790.483 607.506 790.889C607.731 791.201 607.859 791.263 607.924 791.544C607.956 791.918 608.052 792.074 608.244 792.542C608.629 793.01 608.79 793.26 608.886 793.853C609.015 794.258 609.079 794.383 609.207 794.757C609.4 795.069 609.496 795.163 609.624 795.475C609.721 795.849 609.785 796.005 609.913 796.442C610.266 796.91 610.427 797.19 610.491 797.783C610.619 798.189 610.683 798.313 610.812 798.719C611.004 799.031 611.1 799.125 611.197 799.437C611.261 799.811 611.357 799.998 611.486 800.404C611.839 800.871 612.031 801.121 612.063 801.714C612.159 802.119 612.224 802.275 612.352 802.681C612.673 803.18 612.833 803.461 612.897 804.053C612.994 804.459 613.058 804.615 613.186 805.02C613.507 805.52 613.636 805.832 613.732 806.424C613.86 806.83 613.892 806.986 614.021 807.391C614.341 807.89 614.47 808.171 614.534 808.795C614.63 809.201 614.694 809.357 614.823 809.793C615.721 812.975 616.556 815.908 617.583 819.09C617.807 819.682 617.903 820.025 618.032 820.649C619.091 826.015 620.503 831.037 621.69 836.372C621.883 836.965 621.979 837.339 622.075 837.932C623.327 844.514 624.707 850.815 625.862 857.46C625.99 858.115 626.054 858.489 626.118 859.144C626.086 860.579 626.407 861.671 626.664 863.044C626.792 863.637 626.824 864.011 626.889 864.666C627.306 869.158 627.787 873.401 628.301 877.924C628.429 878.829 628.493 879.453 628.525 880.388C628.461 884.132 629.135 887.563 629.103 891.307C629.231 892.711 629.295 893.865 629.295 895.331C629.488 901.414 629.36 907.185 629.327 913.268C629.295 914.735 629.263 915.858 629.231 917.324C628.942 921.348 628.525 925.029 628.525 929.022C628.493 929.708 628.493 930.083 628.429 930.738C628.14 933.171 627.723 935.292 627.723 937.694C627.691 938.349 627.659 938.724 627.595 939.379C626.728 943.06 626.728 946.554 626.086 950.266C626.022 950.921 625.99 951.296 625.926 951.951C625.092 954.602 625.156 957.098 624.514 959.749C624.45 960.373 624.418 960.748 624.321 961.372C623.327 964.803 622.909 968.047 622.075 971.51C621.979 972.134 621.947 972.477 621.818 973.07C620.888 975.722 620.374 978.217 619.668 980.931C619.572 981.555 619.54 981.898 619.38 982.491C618.064 986.515 616.78 990.259 615.625 994.283C615.529 994.907 615.433 995.281 615.208 995.905C615.144 996.31 615.176 996.435 615.015 996.685C614.791 996.965 614.759 997.09 614.63 997.496C613.283 1000.02 612.577 1002.49 611.742 1005.2C611.518 1005.58 611.486 1005.73 611.325 1006.11C610.747 1007.17 610.362 1008.04 610.106 1009.16C609.881 1009.51 609.817 1009.66 609.656 1010.07C609.528 1010.44 609.528 1010.6 609.335 1010.85C609.111 1011.13 609.079 1011.28 608.918 1011.63C608.02 1013.16 607.218 1014.47 606.832 1016.21C606.608 1016.56 606.544 1016.74 606.351 1017.15C606.223 1017.52 606.223 1017.68 606.062 1017.93C605.806 1018.21 605.773 1018.37 605.581 1018.74C605.453 1019.11 605.453 1019.24 605.26 1019.52C605.035 1019.8 605.003 1019.96 604.843 1020.3C604.233 1021.33 603.848 1022.2 603.591 1023.36C603.399 1023.7 603.335 1023.86 603.206 1024.23C602.597 1025.29 602.212 1026.16 601.987 1027.32C601.987 1027.51 601.955 1027.63 601.923 1027.66Z" fill="#FFA9D7"/>
<path d="M390.544 721.259C229.373 654.12 194.023 495.275 346.302 393.004C356.454 384.839 371.476 381.374 378.648 370.326C394.324 336.405 410.243 301.128 437.113 274.476C473.819 235.564 530.394 242.324 537.275 300.692C547.936 236.412 605.989 237.163 643.883 280.509C657.257 295.41 667.579 312.588 676.786 330.275C687.35 345.467 689.942 367.346 704.989 378.636C868.462 468.526 866.863 635.731 696.678 716.171C694.885 716.946 693.044 718.23 695.321 719.83C714.026 736.959 730.381 756.536 742.253 778.997C753.737 800.343 761.878 823.578 765.101 847.662C765.295 851.539 766.918 854.01 770.673 855.439C770.843 855.803 771.57 855.803 771.861 856.069C772.273 856.554 773.242 856.699 773.726 857.257C775.471 858.42 777.603 859.316 779.202 860.939C779.832 861.569 781.043 861.981 781.649 862.781C782.764 863.726 784.29 864.671 785.332 865.834C785.38 866.003 785.841 866.318 785.986 866.415C788.651 868.523 791.244 870.849 793.303 873.781C834.008 918.314 820.779 986.664 769.971 1012.27C794.03 1021.89 789.863 1042.17 764.374 1044.18C744.53 1046.87 724.59 1044.89 704.795 1042.92C703.05 1042.78 702.445 1043.12 702.663 1045.06C697.211 1102.36 607.903 1065.36 588.883 1033.77C584.473 1028.12 587.114 1021.7 590.046 1015.88C592.711 1009.92 595.619 1004.08 597.606 997.858C613.742 951.096 612.87 899.439 599.084 852.169C590.385 817.884 564.266 789.1 526.445 802.475C492.888 818.66 486.903 862.999 481.718 896.144C478.035 930.016 480.652 965.1 491.919 997.446C493.978 1004.47 497.661 1010.84 500.205 1017.68C504.905 1024.7 503.452 1031.78 498.145 1037.33C477.236 1066.67 391.683 1101 386.983 1044.91C387.201 1043.14 386.595 1042.78 384.996 1042.92C363.02 1045.01 340.705 1047.65 318.851 1042.92C293.846 1035.7 302.108 1020.58 320.668 1011.11C266.395 989.935 257.672 913.686 296.342 873.757C298.401 871.067 300.824 868.475 303.659 866.391C303.853 866.391 304.192 865.931 304.289 865.834C305.379 864.84 306.663 863.653 307.972 862.781C308.626 862.151 309.523 861.472 310.419 860.939C312.018 859.534 313.932 858.323 315.895 857.257C316.355 856.845 317.203 856.505 317.76 856.069C318.003 855.851 318.657 855.706 318.972 855.415C320.086 854.47 321.952 853.84 323.285 853.016C326.192 840.417 328.373 826.534 332.443 813.935C332.928 813.596 332.589 812.481 333.049 812.094C333.533 811.754 333.194 810.64 333.679 810.276C334.163 809.937 333.824 808.799 334.309 808.459C335.496 807.224 335.423 805.067 336.126 803.565C336.998 802.911 336.78 801.336 337.337 800.512C338.234 799.882 337.967 798.283 338.573 797.459C339.688 796.514 339.639 794.358 340.415 793.195C341.311 791.62 342.256 790.142 342.813 788.277C343.128 788.083 343.177 787.332 343.419 787.041C343.855 786.435 344.17 785.199 344.63 784.594C344.97 784.424 344.994 783.673 345.236 783.382C345.551 783.188 345.6 782.462 345.842 782.171C346.157 781.977 346.205 781.274 346.448 780.959C347.417 780.136 347.756 778.464 348.313 777.325C348.58 777.107 348.628 776.259 348.943 776.114C349.016 775.968 349.355 775.581 349.476 775.435C350.203 775.047 350.179 773.642 350.736 773.036C350.833 772.94 351.196 772.455 351.293 772.358C351.657 772.213 351.681 771.486 351.948 771.171C352.505 770.807 352.844 769.984 353.135 769.305C353.498 769.16 353.522 768.457 353.789 768.118C354.055 767.924 354.152 767.1 354.443 766.931C354.54 766.81 354.879 766.422 355 766.252C355.848 765.574 355.994 764.048 356.866 763.224C357.011 763.151 357.302 762.691 357.423 762.57C357.787 762.4 357.787 761.746 358.077 761.382C358.611 760.97 358.732 760.025 359.313 759.541C359.434 759.468 359.798 758.984 359.87 758.863C360.5 758.596 360.573 757.506 361.106 757.07C361.397 756.876 361.494 756.052 361.785 755.907C370.168 744.543 379.423 733.955 389.696 724.263C390.472 723.537 391.974 722.834 390.496 721.235L390.544 721.259Z" fill="#FD349F"/>
<path d="M470.133 426.583C458.281 415.49 472.378 397.002 480.907 389.144C487.373 399.128 506.047 409.019 514.577 412.717C504.7 421.961 481.985 437.676 470.133 426.583Z" fill="#FFA7AE"/>
<path d="M540.617 734.488H445.259C521.546 778.369 599.805 752.771 629.399 734.488H540.617Z" fill="#DB0E7B"/>
<path d="M468.164 301.478L511.997 324.684L468.164 347.889" stroke="black" stroke-width="4" stroke-linecap="round"/>
<path d="M609.977 301.478L566.144 324.684L609.977 347.889" stroke="black" stroke-width="4" stroke-linecap="round"/>
<path d="M474.956 380.611C484.129 399.682 521.657 432.344 598.384 410.428" stroke="black" stroke-width="2.5" stroke-linecap="round"/>
<path d="M500.392 240.483C504.454 244.112 508.407 247.674 512.24 251.345C520.251 259.039 528.21 266.786 536.195 274.507C538.352 276.592 538.26 277.403 535.617 278.724C513.569 289.735 491.515 300.73 469.462 311.725C441.168 325.822 412.869 339.903 384.57 353.985C382.503 355.008 381.973 354.77 381.703 352.572C379.987 338.533 378.64 324.456 377.428 310.213C377.618 309.178 378.434 308.974 379.077 308.619C402.702 295.899 426.18 282.9 449.518 269.635C465.531 260.53 481.425 251.222 497.271 241.826C498.211 241.267 499.077 240.543 500.428 240.488L500.392 240.483Z" fill="#FFEC00"/>
<path d="M460.643 201.577C467.377 207.949 473.961 214.338 480.498 220.742C483.446 223.635 486.358 226.576 489.359 229.625C489.055 230.94 487.918 231.322 487.01 231.87C474.766 239.398 462.413 246.702 450.023 254.001C426.749 267.712 403.203 280.925 379.455 293.79C378.489 294.323 377.534 294.886 376.219 294.946C375.12 289.195 374.842 283.411 374.293 277.648C373.474 269.064 372.773 260.474 372.042 251.739C372.138 250.632 372.99 250.485 373.639 250.145C400.788 235.376 427.686 220.17 454.449 204.715C456.396 203.593 458.138 202.019 460.643 201.577Z" fill="#FFEC00"/>
<path d="M370.904 236.466C369.882 230.741 369.63 225.035 369.113 219.365C368.442 212.049 367.906 204.722 367.322 197.255C367.71 196.188 368.561 195.833 369.34 195.415C380.641 189.106 391.925 182.75 403.194 176.4C408.717 173.279 414.178 170.076 419.654 166.919C420.775 166.282 421.792 165.386 423.34 165.3C428.756 169.913 433.57 174.954 438.601 179.766C442.383 183.385 446.076 187.103 449.879 190.889C449.762 192.038 448.848 192.362 448.095 192.805C433.609 201.398 419.101 209.981 404.438 218.303C394.113 224.163 383.763 229.997 373.324 235.671C372.607 236.067 371.902 236.547 370.878 236.492L370.904 236.466Z" fill="#FFEC00"/>
<path d="M375.989 295.039C393.701 285.467 411.195 275.76 428.568 265.799C448.92 254.127 469.106 242.164 489.296 229.852C493.404 232.946 496.827 236.685 500.51 240.372C460.155 264.553 419.205 287.686 377.577 309.988C376.485 305.136 376.198 300.153 375.995 295.054L375.989 295.039Z" fill="#A64A97"/>
<path d="M361.739 130.092C361.752 124.557 360.94 119.247 360.657 113.915C360.592 112.689 360.47 111.447 360.472 110.215C360.476 109.399 360.604 108.541 361.502 108.118C362.416 107.69 363.087 108.193 363.738 108.737C368.539 112.655 372.868 117.079 377.482 121.216C377.68 121.392 377.899 121.579 378.227 121.781C389.461 132.415 400.556 143.045 411.661 153.654C411.963 153.934 412.228 154.26 412.583 154.696C412.243 155.903 411.256 156.321 410.389 156.837C396.811 164.882 383.139 172.751 369.425 180.547C368.48 181.089 367.546 181.715 366.247 181.77C365.172 175.369 364.913 168.972 364.364 162.586C363.451 151.813 362.636 141.026 361.754 130.087L361.739 130.092Z" fill="#FFEC00"/>
<path d="M370.682 236.539C397.421 221.942 423.685 206.758 449.829 191.061C453.885 194.05 457.214 197.717 460.757 201.399C448.642 208.589 436.512 215.679 424.288 222.645C407.101 232.44 389.795 242.032 372.228 251.52C371.118 247.645 371.244 243.581 370.731 239.575C370.604 238.629 370.643 237.662 370.667 236.545L370.682 236.539Z" fill="#A64A97"/>
<path d="M366.007 181.832C378.138 175.105 390.009 168.119 401.895 161.18C405.404 159.135 408.882 157.048 412.51 154.893C414.856 155.995 416.29 158.045 418.092 159.693C419.962 161.389 421.66 163.246 423.484 165.165C405.026 176.079 386.376 186.573 367.486 197.026C366.368 192.096 366.175 187.029 366.007 181.832Z" fill="#A64A97"/>
</svg>
