<svg width="1075" height="1080" viewBox="0 0 1075 1080" fill="none" xmlns="http://www.w3.org/2000/svg">
<path d="M241.543 933.58C234.678 932.15 227.364 934.9 223.699 939.884C212.905 934.858 197.532 927.234 186.112 919.626C174.591 911.96 161.436 900.714 152.564 892.776C155.163 887.707 155.146 880.65 152.107 874.964C148.137 867.551 140.535 865.283 135.125 869.912C129.716 874.532 128.548 884.297 132.518 891.71C132.899 892.429 133.331 893.081 133.779 893.707C133.322 893.572 132.865 893.453 132.383 893.352C124.324 891.676 115.63 895.746 112.963 902.448C110.297 909.15 114.673 915.937 122.732 917.612C129.674 919.059 137.081 916.224 140.704 911.13C152.234 916.233 168.53 923.857 177.613 929.908C186.993 936.153 201.841 949.294 211.737 958.348C209.104 963.426 209.104 970.517 212.16 976.229C216.13 983.641 223.732 985.909 229.142 981.28C234.551 976.66 235.719 966.895 231.749 959.482C231.368 958.763 230.937 958.111 230.488 957.485C230.945 957.621 231.402 957.739 231.885 957.841C239.944 959.516 248.637 955.446 251.304 948.744C253.971 942.042 249.594 935.256 241.535 933.58H241.543Z" fill="#D8D8D8" stroke="#AAAAAA" stroke-miterlimit="10"/>
<path d="M176.598 1001.03C172.991 996.647 166.871 994.667 161.876 995.937C157.694 987.305 152.006 974.722 148.806 964.153C145.58 953.491 143.227 939.757 141.839 930.28C146.198 928.41 149.974 923.975 151.075 918.864C152.514 912.196 148.89 906.916 142.982 907.077C137.064 907.238 131.105 912.772 129.657 919.44C129.513 920.083 129.437 920.718 129.395 921.335C129.174 921.022 128.946 920.709 128.692 920.405C124.46 915.26 116.756 913.406 111.482 916.258C106.208 919.11 105.353 925.592 109.586 930.737C113.234 935.171 119.456 937.151 124.485 935.788C129.081 944.843 135.371 957.891 137.911 966.303C140.535 974.985 142.948 990.766 144.395 1001.47C140.01 1003.32 136.209 1007.77 135.1 1012.91C133.661 1019.58 137.284 1024.86 143.193 1024.7C149.111 1024.54 155.07 1019 156.518 1012.34C156.661 1011.69 156.738 1011.06 156.78 1010.44C157 1010.75 157.229 1011.07 157.483 1011.37C161.715 1016.52 169.419 1018.37 174.693 1015.52C179.967 1012.67 180.822 1006.18 176.589 1001.04L176.598 1001.03Z" fill="#D8D8D8" stroke="#AAAAAA" stroke-miterlimit="10"/>
<path d="M168.843 1017.74C168.564 1017.72 168.284 1017.71 167.997 1017.71C162.807 1017.76 112.032 1018.7 106.538 1037.07C101.569 1053.7 164.094 1049.55 181.88 1048.05C185.02 1047.79 187.746 1045.83 188.965 1042.94C192.275 1035.11 195.069 1019.99 168.843 1017.74Z" fill="#D8D8D8" stroke="#AAAAAA" stroke-miterlimit="10"/>
<path d="M445.187 933.58C452.052 932.15 459.366 934.9 463.032 939.884C473.825 934.858 489.198 927.234 500.618 919.626C512.139 911.96 525.295 900.714 534.166 892.776C531.567 887.707 531.584 880.65 534.623 874.964C538.594 867.551 546.195 865.283 551.604 869.912C557.014 874.532 558.182 884.297 554.212 891.71C553.831 892.429 553.399 893.081 552.951 893.707C553.408 893.572 553.865 893.453 554.347 893.352C562.406 891.676 571.1 895.746 573.767 902.448C576.434 909.15 572.057 915.937 563.998 917.612C557.056 919.059 549.649 916.224 546.026 911.13C534.496 916.233 518.2 923.857 509.117 929.908C499.737 936.153 484.889 949.294 474.993 958.348C477.626 963.426 477.626 970.517 474.57 976.229C470.6 983.641 462.998 985.909 457.589 981.28C452.179 976.66 451.011 966.895 454.981 959.482C455.362 958.763 455.794 958.111 456.242 957.485C455.785 957.621 455.328 957.739 454.846 957.841C446.787 959.516 438.093 955.446 435.426 948.744C432.76 942.042 437.136 935.256 445.195 933.58H445.187Z" fill="#D8D8D8" stroke="#AAAAAA" stroke-miterlimit="10"/>
<path d="M510.142 1001.03C513.748 996.647 519.868 994.667 524.863 995.937C529.045 987.305 534.734 974.722 537.933 964.153C541.159 953.491 543.512 939.757 544.9 930.28C540.541 928.41 536.765 923.975 535.665 918.864C534.226 912.196 537.849 906.916 543.758 907.077C549.675 907.238 555.635 912.772 557.082 919.44C557.226 920.083 557.302 920.718 557.345 921.335C557.565 921.022 557.793 920.709 558.047 920.405C562.28 915.26 569.984 913.406 575.257 916.258C580.531 919.11 581.386 925.592 577.153 930.737C573.505 935.171 567.283 937.151 562.254 935.788C557.658 944.843 551.368 957.891 548.828 966.303C546.204 974.985 543.791 990.766 542.344 1001.47C546.729 1003.32 550.53 1007.77 551.639 1012.91C553.078 1019.58 549.455 1024.86 543.546 1024.7C537.629 1024.54 531.669 1019 530.222 1012.34C530.078 1011.69 530.001 1011.06 529.959 1010.44C529.739 1010.75 529.51 1011.07 529.256 1011.37C525.024 1016.52 517.32 1018.37 512.046 1015.52C506.772 1012.67 505.918 1006.18 510.15 1001.04L510.142 1001.03Z" fill="#D8D8D8" stroke="#AAAAAA" stroke-miterlimit="10"/>
<path d="M517.887 1017.74C518.166 1017.72 518.446 1017.71 518.734 1017.71C523.923 1017.76 574.698 1018.7 580.192 1037.07C585.161 1053.7 522.636 1049.55 504.85 1048.05C501.709 1047.79 498.984 1045.83 497.765 1042.94C494.455 1035.11 491.661 1019.99 517.887 1017.74Z" fill="#D8D8D8" stroke="#AAAAAA" stroke-miterlimit="10"/>
<path d="M278.032 923.73C271.691 922.537 267.416 921.133 266.536 920.845C266.231 920.743 255.929 918.027 225.242 905.334C166.933 881.217 158.281 869.134 157.621 859.673C157.375 856.119 158.306 849.485 167.347 845.017C183.398 837.079 210.927 837.215 249.173 845.423C276.745 851.338 299.661 859.241 300.617 859.571C305.036 861.103 307.373 865.926 305.84 870.335C304.308 874.752 299.492 877.088 295.073 875.556C294.844 875.48 272.038 867.619 245.457 861.932C212.857 854.96 188.172 854.207 175.711 859.783C179.174 863.582 191.44 873.238 234.461 890.822C263.624 902.745 271.717 906.443 279.361 909.557C283.687 911.317 303.64 918.628 298.196 921.852C294.98 923.764 287.716 924.797 278.032 923.722V923.73Z" fill="#D8D8D8" stroke="#AAAAAA" stroke-miterlimit="10"/>
<path d="M278.032 880.278C271.691 879.085 267.416 877.681 266.536 877.393C266.231 877.291 255.929 874.575 225.242 861.882C166.933 837.765 158.281 825.681 157.621 816.221C157.375 812.667 158.306 806.033 167.347 801.565C183.398 793.627 210.927 793.763 249.173 801.971C276.745 807.886 299.661 815.789 300.617 816.119C305.036 817.651 307.373 822.474 305.84 826.883C304.308 831.3 299.492 833.636 295.073 832.104C294.844 832.028 272.038 824.167 245.457 818.48C212.857 811.507 188.172 810.754 175.711 816.331C179.174 820.13 191.44 829.785 234.461 847.37C263.624 859.293 271.717 862.99 279.361 866.104C283.687 867.865 303.64 875.176 298.196 878.4C294.98 880.312 287.716 881.345 278.032 880.27V880.278Z" fill="#D8D8D8" stroke="#AAAAAA" stroke-miterlimit="10"/>
<path d="M278.032 840.388C271.691 839.195 267.416 837.79 266.536 837.503C266.231 837.401 255.929 834.685 225.242 821.992C166.933 797.875 158.281 785.791 157.621 776.331C157.375 772.777 158.306 766.142 167.347 761.674C183.398 753.737 210.927 753.872 249.173 762.081C276.745 767.996 299.661 775.899 300.617 776.229C305.036 777.761 307.373 782.584 305.84 786.993C304.308 791.41 299.492 793.746 295.073 792.214C294.844 792.138 272.038 784.277 245.457 778.59C212.857 771.617 188.172 770.864 175.711 776.441C179.174 780.24 191.44 789.895 234.461 807.479C263.624 819.402 271.717 823.1 279.361 826.214C283.687 827.974 303.64 835.286 298.196 838.51C294.98 840.422 287.716 841.454 278.032 840.38V840.388Z" fill="#D8D8D8" stroke="#AAAAAA" stroke-miterlimit="10"/>
<path d="M408.703 923.73C415.043 922.537 419.318 921.133 420.198 920.845C420.503 920.743 430.806 918.027 461.492 905.334C519.802 881.217 528.453 869.134 529.114 859.673C529.359 856.119 528.428 849.485 519.387 845.017C503.337 837.079 475.807 837.215 437.561 845.423C409.989 851.338 387.074 859.241 386.117 859.571C381.698 861.103 379.362 865.926 380.894 870.335C382.426 874.752 387.243 877.088 391.662 875.556C391.89 875.48 414.696 867.619 441.277 861.932C473.877 854.96 498.562 854.207 511.023 859.783C507.561 863.582 495.295 873.238 452.274 890.822C423.11 902.745 415.018 906.443 407.373 909.557C403.048 911.317 383.095 918.628 388.538 921.852C391.755 923.764 399.018 924.797 408.703 923.722V923.73Z" fill="#D8D8D8" stroke="#AAAAAA" stroke-miterlimit="10"/>
<path d="M408.703 880.278C415.043 879.085 419.318 877.681 420.198 877.393C420.503 877.291 430.806 874.575 461.492 861.882C519.802 837.765 528.453 825.681 529.114 816.221C529.359 812.667 528.428 806.033 519.387 801.565C503.337 793.627 475.807 793.763 437.561 801.971C409.989 807.886 387.074 815.789 386.117 816.119C381.698 817.651 379.362 822.474 380.894 826.883C382.426 831.3 387.243 833.636 391.662 832.104C391.89 832.028 414.696 824.167 441.277 818.48C473.877 811.507 498.562 810.754 511.023 816.331C507.561 820.13 495.295 829.785 452.274 847.37C423.11 859.293 415.018 862.99 407.373 866.104C403.048 867.865 383.095 875.176 388.538 878.4C391.755 880.312 399.018 881.345 408.703 880.27V880.278Z" fill="#D8D8D8" stroke="#AAAAAA" stroke-miterlimit="10"/>
<path d="M408.703 840.388C415.043 839.195 419.318 837.79 420.198 837.503C420.503 837.401 430.806 834.685 461.492 821.992C519.802 797.875 528.453 785.791 529.114 776.331C529.359 772.777 528.428 766.142 519.387 761.674C503.337 753.737 475.807 753.872 437.561 762.081C409.989 767.996 387.074 775.899 386.117 776.229C381.698 777.761 379.362 782.584 380.894 786.993C382.426 791.41 387.243 793.746 391.662 792.214C391.89 792.138 414.696 784.277 441.277 778.59C473.877 771.617 498.562 770.864 511.023 776.441C507.561 780.24 495.295 789.895 452.274 807.479C423.11 819.402 415.018 823.1 407.373 826.214C403.048 827.974 383.095 835.286 388.538 838.51C391.755 840.422 399.018 841.454 408.703 840.38V840.388Z" fill="#D8D8D8" stroke="#AAAAAA" stroke-miterlimit="10"/>
<path d="M359.62 764.264H325.809C320.198 764.264 315.65 768.81 315.65 774.418V808.215C315.65 813.824 320.198 818.37 325.809 818.37H359.62C365.23 818.37 369.778 813.824 369.778 808.215V774.418C369.778 768.81 365.23 764.264 359.62 764.264Z" fill="#D8D8D8" stroke="#AAAAAA" stroke-miterlimit="10"/>
<path d="M359.62 827.559H325.809C320.198 827.559 315.65 832.106 315.65 837.714V871.511C315.65 877.119 320.198 881.666 325.809 881.666H359.62C365.23 881.666 369.778 877.119 369.778 871.511V837.714C369.778 832.106 365.23 827.559 359.62 827.559Z" fill="#D8D8D8" stroke="#AAAAAA" stroke-miterlimit="10"/>
<path d="M359.62 890.856H325.809C320.198 890.856 315.65 895.402 315.65 901.01V934.808C315.65 940.416 320.198 944.962 325.809 944.962H359.62C365.23 944.962 369.778 940.416 369.778 934.808V901.01C369.778 895.402 365.23 890.856 359.62 890.856Z" fill="#D8D8D8" stroke="#AAAAAA" stroke-miterlimit="10"/>
<path d="M430.865 951.994C403.615 932.7 384.399 957.071 369.78 965.177V964.077C369.78 958.492 365.208 953.923 359.621 953.923H325.81C320.223 953.923 315.652 958.492 315.652 964.077V967.386C300.414 964.179 279.878 930.17 249.064 951.985C218.25 973.8 220.104 1010.47 225.318 1020.64C237.686 1044.78 263.268 1051.24 300.778 1035.62C300.778 1035.62 320.147 1023.84 329.654 1023.26C339.16 1022.69 339.973 1022.78 339.973 1022.78C339.973 1022.78 340.786 1022.69 350.292 1023.26C359.799 1023.84 379.168 1035.62 379.168 1035.62C416.678 1051.25 442.26 1044.79 454.628 1020.64C459.834 1010.47 461.688 973.8 430.882 951.985L430.865 951.994ZM273.774 1017.39C264.784 1019.39 255.463 1011.88 252.966 1000.62C250.46 989.353 255.726 978.607 264.716 976.61C273.706 974.612 283.027 982.118 285.524 993.381C288.03 1004.64 282.764 1015.39 273.774 1017.39ZM432.465 1000.62C429.96 1011.88 420.648 1019.39 411.658 1017.39C402.667 1015.39 397.411 1004.64 399.908 993.381C402.414 982.118 411.725 974.612 420.716 976.61C429.706 978.607 434.963 989.353 432.465 1000.62Z" fill="#D8D8D8" stroke="#AAAAAA" stroke-miterlimit="10"/>
<path d="M180.561 873.331C185.023 866.578 193.649 862.795 201.259 863.777C205.745 850.94 211.705 832.281 214.372 816.864C217.064 801.319 217.885 781.577 218.105 767.987C211.324 766.058 204.916 760.413 202.3 753.381C198.889 744.217 203.206 736.187 211.942 735.459C220.678 734.731 230.524 741.568 233.935 750.733C234.265 751.621 234.502 752.493 234.689 753.356C234.943 752.874 235.222 752.4 235.535 751.926C240.775 743.997 251.763 740.138 260.085 743.312C268.406 746.485 270.903 755.48 265.663 763.409C261.151 770.238 252.373 774.037 244.703 772.929C239.675 786.434 232.936 805.846 230.812 818.107C228.619 830.767 228.111 853.403 228.035 868.727C234.849 870.631 241.3 876.292 243.924 883.358C247.336 892.522 243.019 900.544 234.282 901.281C225.546 902.008 215.701 895.171 212.289 886.007C211.959 885.118 211.722 884.247 211.536 883.384C211.282 883.866 210.994 884.34 210.689 884.814C205.449 892.742 194.461 896.601 186.14 893.428C177.818 890.255 175.321 881.26 180.561 873.331Z" fill="#D8D8D8" stroke="#AAAAAA" stroke-miterlimit="10"/>
<path d="M215.439 1005.25C215.87 998.721 220.179 992.831 225.58 990.783C223.76 979.808 220.747 964.06 216.768 951.866C212.789 939.673 205.932 924.906 201.005 914.93C195.791 915.987 189.45 914.202 185.09 910.039C179.41 904.606 179.283 897.193 184.794 893.487C190.305 889.781 199.38 891.185 205.06 896.618C205.611 897.143 206.093 897.693 206.542 898.251C206.542 897.811 206.542 897.363 206.576 896.906C207.084 889.231 212.925 882.435 219.612 881.716C226.308 881.005 231.32 886.65 230.812 894.325C230.372 900.933 225.978 906.891 220.484 908.871C222.194 920.532 224.971 937.109 228.137 946.806C231.404 956.817 239.514 973.478 245.186 984.665C250.409 983.574 256.792 985.359 261.169 989.539C266.849 994.972 266.976 1002.38 261.465 1006.09C255.954 1009.8 246.879 1008.39 241.199 1002.96C240.649 1002.44 240.166 1001.89 239.717 1001.33C239.717 1001.77 239.717 1002.22 239.684 1002.67C239.176 1010.35 233.335 1017.14 226.647 1017.86C219.951 1018.57 214.939 1012.93 215.456 1005.25H215.439Z" fill="#D8D8D8" stroke="#AAAAAA" stroke-miterlimit="10"/>
<path d="M291.017 1026.27C296.215 1043.15 279.157 1061.34 253.566 1069.21C227.975 1077.08 198.668 1078.88 193.471 1062.01C188.273 1045.14 202.274 1031.55 230.396 1017.19C261.498 1001.33 285.819 1009.39 291.008 1026.27H291.017Z" fill="#D8D8D8" stroke="#AAAAAA" stroke-miterlimit="10"/>
<path d="M211.814 1074.49V1055.66" stroke="#AAAAAA" stroke-miterlimit="10"/>
<path d="M230.742 1074.49V1046.44" stroke="#AAAAAA" stroke-miterlimit="10"/>
<path d="M249.832 1070.58V1038.61" stroke="#AAAAAA" stroke-miterlimit="10"/>
<path d="M586.407 740.172C578.407 741.408 571.364 747.67 569.087 754.989C555.543 753.711 536.089 751.342 520.962 747.34C505.707 743.303 487.413 735.814 474.969 730.339C476.044 723.375 473.581 715.201 468.282 709.895C461.365 702.973 452.274 703.549 447.965 711.181C443.656 718.814 445.772 730.61 452.68 737.532C453.349 738.201 454.043 738.784 454.754 739.309C454.212 739.343 453.662 739.402 453.103 739.487C443.707 740.934 435.622 749.311 435.03 758.196C434.445 767.081 441.582 773.098 450.979 771.651C459.071 770.398 466.191 764.01 468.375 756.58C482.749 757.646 503.21 759.618 515.247 762.8C527.666 766.091 548.465 775.07 562.433 781.391C561.324 788.38 563.779 796.597 569.104 801.928C576.02 808.85 585.112 808.275 589.421 800.642C593.73 793.009 591.613 781.213 584.705 774.291C584.037 773.623 583.343 773.039 582.632 772.514C583.174 772.48 583.724 772.421 584.282 772.336C593.679 770.889 601.763 762.512 602.356 753.627C602.94 744.742 595.804 738.725 586.407 740.172Z" fill="#D8D8D8" stroke="#AAAAAA" stroke-miterlimit="10"/>
<path d="M566.022 853.809C567.377 848.808 565.675 843.299 562.162 840.379C566.344 832.637 572.651 821.636 578.762 813.546C584.925 805.389 593.805 796.165 600.053 789.98C603.676 792.112 608.882 792.408 613.208 790.411C618.854 787.805 620.861 782.296 617.686 778.116C614.52 773.927 607.367 772.649 601.729 775.256C601.179 775.51 600.679 775.797 600.205 776.102C600.324 775.772 600.434 775.433 600.527 775.087C602.118 769.214 599.503 762.63 594.678 760.38C589.852 758.129 584.654 761.057 583.063 766.929C581.692 771.989 583.453 777.566 587.042 780.46C582.767 788.736 576.426 800.422 571.567 806.861C566.547 813.504 556.202 823.887 549.083 830.792C545.46 828.634 540.228 828.33 535.877 830.335C530.231 832.941 528.225 838.45 531.399 842.63C534.565 846.819 541.718 848.097 547.356 845.491C547.906 845.237 548.406 844.949 548.88 844.644C548.761 844.974 548.651 845.313 548.558 845.66C546.967 851.532 549.582 858.116 554.408 860.367C559.233 862.618 564.431 859.69 566.022 853.817V853.809Z" fill="#D8D8D8" stroke="#AAAAAA" stroke-miterlimit="10"/>
<path d="M744.123 323.679L729.182 370.06C729.182 370.06 947.41 469.59 1031.2 622.973C963.156 416.499 744.123 323.688 744.123 323.688V323.679Z" fill="#EFEFEF"/>
<path d="M729.19 370.06L713.936 417.405C713.936 417.405 778.518 438.746 846.046 477.206C941.696 531.676 1031.2 622.973 1031.2 622.973C947.41 469.599 729.181 370.06 729.181 370.06H729.19Z" fill="#CECECE"/>
<path d="M729.156 318.162L488.791 1064.46" stroke="#898989" stroke-width="30" stroke-miterlimit="10" stroke-linecap="round"/>
<path d="M712.414 302.632L676.029 415.574C674.847 419.244 676.865 423.177 680.536 424.359L706.724 432.789C710.396 433.971 714.331 431.954 715.513 428.284L751.898 315.341C753.08 311.671 751.062 307.738 747.391 306.556L721.203 298.126C717.531 296.945 713.597 298.962 712.414 302.632Z" fill="black"/>
<path d="M510.913 374.342C476.924 299.021 436.198 247.902 392.567 247.902C348.937 247.902 347.396 287.962 343.959 298.759C343.367 300.612 342.715 300.57 342.715 300.57C342.715 300.57 342.063 300.612 341.47 298.759C338.033 287.962 336.484 247.902 292.862 247.902C249.24 247.902 208.505 299.021 174.517 374.342C174.517 374.342 106.218 410.593 67.6836 467.576C81.499 459.614 106.667 445.744 136.736 431.994C198.397 403.807 250.247 389.514 290.847 389.514C292.947 389.514 294.699 390.885 295.004 392.958C295.063 393.221 297.061 401.141 311.139 401.141C327.477 401.141 339.464 392.138 339.582 392.044C340.505 391.342 341.623 391.071 342.689 391.215C343.773 391.071 344.907 391.334 345.847 392.053C345.957 392.137 357.944 401.141 374.282 401.141C388.368 401.141 390.358 393.212 390.434 392.882C390.747 390.809 392.482 389.514 394.573 389.514C435.173 389.514 487.023 403.807 548.685 431.994C578.754 445.736 603.913 459.614 617.737 467.576C579.203 410.593 510.904 374.342 510.904 374.342H510.913ZM296.477 330.052C290.517 334.807 279.317 336.364 271.224 330.331C256.266 316.521 261.439 294.342 279.351 286.642C290.365 281.911 301.057 288.435 305.272 298.505C309.971 309.751 306.068 322.394 296.477 330.043V330.052ZM423.88 317.02C420.071 325.406 413.197 329.747 404.266 330.399C394.929 331.084 387.522 327.268 383.078 318.856C380.03 313.085 380.165 306.857 381.308 300.485C382.451 294.105 385.397 289.121 390.831 285.66C396.224 282.224 401.972 281.454 407.889 284.12C413.18 286.506 418.192 289.358 421.527 294.689C425.413 301.949 427.41 309.252 423.88 317.02Z" fill="#D8D8D8" stroke="#AAAAAA" stroke-miterlimit="10"/>
<path d="M626.643 499.292C626.025 498.539 625.331 498.311 624.73 497.938C623.392 497.109 491.409 416.796 397.469 415.137C395.225 419.597 389.291 426.739 374.282 426.739C359.273 426.739 347.261 420.249 342.715 417.304C338.169 420.249 326.411 426.739 311.139 426.739C295.868 426.739 290.196 419.597 287.952 415.137C194.012 416.788 62.5624 497.033 60.8863 498.048C60.2852 498.412 60.8861 498.048 58.7782 499.284C49.9065 504.539 42 521.42 42 543.396C42 642.131 150.881 714.058 187.875 725.431C187.875 725.431 316.946 787.915 497.546 725.431C536.978 710.868 643.421 642.131 643.421 543.396C643.421 521.412 638.096 509.167 626.643 499.284V499.292Z" fill="#D8D8D8" stroke="#AAAAAA" stroke-miterlimit="10"/>
<path d="M601.956 748.693C579.193 740.73 552.027 761.124 538.144 793.229C524.269 825.334 518.361 862.677 541.124 870.639C563.887 878.602 584.323 861.763 607.467 826.916C633.058 788.389 624.719 756.656 601.956 748.693Z" fill="#D8D8D8" stroke="#AAAAAA" stroke-miterlimit="10"/>
<path d="M526.242 848.427L552.316 849.891" stroke="#AAAAAA" stroke-miterlimit="10"/>
<path d="M528.443 824.217L567.282 826.41" stroke="#AAAAAA" stroke-miterlimit="10"/>
<path d="M536.088 800.117L580.345 802.606" stroke="#AAAAAA" stroke-miterlimit="10"/>
</svg>
