<svg width="1075" height="1091" viewBox="0 0 1075 1091" fill="none" xmlns="http://www.w3.org/2000/svg">
<path d="M286.762 353.88C286.762 353.88 646.66 204.372 815.231 259.223C983.81 314.074 611.1 438.503 611.1 438.503H312.174C312.174 438.503 187.753 421.778 286.754 353.88H286.762Z" fill="black"/>
<path d="M515.266 1035.21C515.266 1035.21 550.98 1006.07 592.24 1035.21L630.788 929.56L590.949 799.952L522.962 795.17L471.44 922.124L515.266 1035.2V1035.21Z" fill="#C6C6C6"/>
<path d="M515.266 1035.21C515.266 1035.21 523.758 1027.1 516.516 1017.28C509.274 1007.45 493.182 970.746 496.462 911.641C499.742 852.537 524.521 803.954 553.749 803.954C582.976 803.954 607.755 852.537 611.035 911.641C614.315 970.746 598.224 1007.45 590.982 1017.28C583.74 1027.1 592.232 1035.21 592.232 1035.21C631.836 1075.51 673.558 1076.36 689.941 1067.82C706.325 1059.29 704.247 1047.64 704.149 1044.1C704.052 1040.56 706.845 1041.44 706.845 1041.44C784.907 1049.18 785.094 1035.02 788.139 1028.16C791.191 1021.3 770.87 1010.67 770.87 1010.67C805.375 992.432 818.722 972.053 818.722 931.605C818.722 891.158 778.664 860.444 772.518 858.983C766.372 857.521 766.526 850.401 766.526 850.401C762.621 777.186 702.233 727.742 702.233 727.742C768.45 695.178 842.136 647.821 842.136 553.091C842.136 458.361 715.045 390.877 715.045 390.877C682.448 318.612 643.388 269.566 601.544 269.566C559.7 269.566 558.222 308 554.926 318.36C554.358 320.138 553.732 320.097 553.732 320.097C553.732 320.097 553.107 320.138 552.539 318.36C549.243 308 547.757 269.566 505.921 269.566C464.085 269.566 425.017 318.612 392.42 390.877C392.42 390.877 265.328 458.361 265.328 553.091C265.328 647.821 339.015 695.17 405.232 727.742C405.232 727.742 344.844 777.186 340.939 850.401C340.939 850.401 341.093 857.513 334.947 858.983C328.801 860.444 288.743 891.158 288.743 931.605C288.743 972.053 302.09 992.44 336.595 1010.67C336.595 1010.67 316.282 1021.3 319.326 1028.16C322.379 1035.02 322.558 1049.18 400.62 1041.44" fill="#727272"/>
<path d="M516.329 411.808C552.661 393.419 584.219 403.486 584.219 403.486" stroke="black" stroke-width="9" stroke-miterlimit="10" stroke-linecap="round"/>
<path d="M591.175 386.509C591.175 386.509 579.898 406.49 583.576 420.998" stroke="black" stroke-width="9" stroke-miterlimit="10" stroke-linecap="round"/>
<path d="M415.429 259.004L503.063 32.8548C503.526 31.6695 504.524 30.7683 505.75 30.4436L619.308 0.144136C622.888 -0.813883 625.713 3.20494 623.619 6.24949L598.248 43.1332C597.582 44.0994 597.379 45.309 597.687 46.4376L645.329 222.128C645.946 224.402 644.468 226.716 642.138 227.105L419.813 264.379C416.768 264.89 414.324 261.886 415.437 259.004H415.429Z" fill="black"/>
<path d="M404.679 306.442L407.042 265.183C407.269 261.156 409.591 257.551 413.147 255.659C436.765 243.075 530.675 198.251 646.335 212.784C650.484 213.303 654.024 216.039 655.591 219.92L670.619 257.153C673.347 263.908 669.206 271.466 662.045 272.806L418.327 318.458C410.963 319.838 404.257 313.936 404.688 306.458L404.679 306.442Z" fill="#53247C"/>
<path d="M594.772 256.211L530.212 266.051L527.605 213.328L585.768 206.33L594.772 256.211Z" stroke="#FFD400" stroke-width="10" stroke-linecap="round" stroke-linejoin="round"/>
<path d="M511.515 243.448L542.699 237.262" stroke="#FFD400" stroke-width="10" stroke-linecap="round" stroke-linejoin="round"/>
<path d="M286.762 353.88C286.762 353.88 342.124 319.854 423.344 294.45C520.583 264.029 654.819 241.897 774.442 250.211L811.715 273.057C811.715 273.057 477.57 280.648 314.828 365.271L286.762 353.88Z" fill="black"/>
<path d="M221.137 487.134L410.548 1075.47" stroke="#7A5A00" stroke-width="30" stroke-miterlimit="10" stroke-linecap="round"/>
<path d="M67.6836 315.844L245.266 255.342C245.266 255.342 318.214 529.766 242.944 554.163C167.675 578.56 67.6836 315.844 67.6836 315.844Z" fill="#B59D61"/>
<path d="M220.732 553.741L260.863 540.458L268.276 563.938L227.512 577.058L220.732 553.741Z" fill="black"/>
<path d="M227.512 577.057L224.881 617.765L237.579 606.74L260.393 609.078L274.032 597.566L289.652 598.58L268.276 563.938L227.512 577.057Z" fill="#B59D61"/>
<path d="M116.217 299.306L187.078 468.372" stroke="#9E8044" stroke-width="5" stroke-miterlimit="10"/>
<path d="M190.568 273.975L221.542 398.907" stroke="#9E8044" stroke-width="5" stroke-miterlimit="10"/>
<path d="M368.941 753.658C368.941 753.658 345.819 705.66 298.778 710.547C251.738 715.435 258.363 779.135 258.363 779.135C258.363 779.135 264.249 841.438 319.035 854.469C373.82 867.5 368.941 753.658 368.941 753.658Z" fill="#727272"/>
<path d="M301.497 746.952C301.497 746.952 357.996 749.314 404.663 705.66C451.321 662.013 428.914 806.625 428.914 806.625L361.665 831.891L301.497 746.952Z" fill="#727272"/>
<path d="M483.871 350.097C469.525 336.847 474.486 315.567 491.665 308.179C502.228 303.641 512.482 309.901 516.525 319.562C521.031 330.352 517.288 342.481 508.09 349.821C502.374 354.383 491.633 355.877 483.871 350.088V350.097Z" fill="#040C06"/>
<path d="M501.643 330.457C497.34 327.356 496.577 322.679 499.557 318.855C502.057 315.656 506.515 315.218 509.827 317.832C513.473 320.714 514.357 326.771 511.621 330.051C509.551 332.535 506.474 332.69 501.643 330.449V330.457Z" fill="#FEFFFE"/>
<path d="M628.021 315.892C631.747 322.858 633.664 329.864 630.278 337.317C626.625 345.363 620.032 349.528 611.467 350.153C602.512 350.811 595.408 347.149 591.145 339.079C588.222 333.542 588.352 327.567 589.449 321.453C590.545 315.332 593.37 310.55 598.582 307.229C603.754 303.933 609.266 303.194 614.941 305.752C620.016 308.041 624.822 310.777 628.021 315.892Z" fill="#040C06"/>
<path d="M622.378 326.285C618.879 329.638 615.761 330.003 612.481 327.608C609.412 325.359 608.341 320.918 609.981 317.248C611.515 313.822 614.47 312.434 618.245 313.367C623.287 314.61 625.244 320.471 622.378 326.285Z" fill="#FEFFFE"/>
<path d="M475.466 740.263C475.466 740.263 545.158 752.766 623.707 740.263C623.707 740.263 591.013 764.676 551.117 764.676C511.221 764.676 475.466 740.263 475.466 740.263Z" fill="#595959"/>
</svg>
