<svg width="1075" height="1075" viewBox="0 0 1075 1075" fill="none" xmlns="http://www.w3.org/2000/svg">
<path d="M498.613 1037.98C498.613 1037.98 534.269 1008.89 575.461 1037.98L613.946 932.507L574.172 803.111L506.297 798.336L454.859 925.082L498.613 1037.98V1037.98Z" fill="#E0E1E9"/>
<path d="M755.46 862.054C749.325 860.595 749.479 853.486 749.479 853.486C745.58 780.391 685.291 731.028 685.291 731.028C751.399 698.517 824.965 651.238 824.965 556.663C824.965 462.088 698.082 394.715 698.082 394.715C665.538 322.568 626.543 273.603 584.767 273.603C542.991 273.603 541.516 311.974 538.225 322.317C537.657 324.092 537.033 324.051 537.033 324.051C537.033 324.051 536.409 324.092 535.842 322.317C532.551 311.974 531.068 273.603 489.3 273.603C447.532 273.603 408.529 322.568 375.985 394.715C375.985 394.715 249.102 462.088 249.102 556.663C249.102 651.238 322.667 698.509 388.776 731.028C388.776 731.028 328.487 780.391 324.588 853.486C324.588 853.486 324.742 860.587 318.606 862.054C312.47 863.521 272.478 894.176 272.478 934.558C272.478 974.939 285.803 995.292 320.252 1013.49C320.252 1013.49 299.972 1024.11 303.011 1030.96C306.059 1037.81 306.237 1051.94 384.172 1044.22C384.172 1044.22 386.952 1043.33 386.863 1046.87C386.765 1050.4 384.69 1062.03 401.047 1070.55C417.404 1079.07 459.058 1078.23 498.597 1037.99C498.597 1037.99 507.075 1029.89 499.845 1020.09C492.615 1010.28 476.55 973.634 479.825 914.626C483.099 855.618 507.837 807.115 537.017 807.115C566.197 807.115 590.935 855.618 594.21 914.626C597.484 973.634 581.419 1010.28 574.189 1020.09C566.959 1029.89 575.437 1037.99 575.437 1037.99C614.976 1078.23 656.63 1079.07 672.987 1070.55C689.344 1062.03 687.269 1050.4 687.172 1046.87C687.074 1043.33 689.863 1044.22 689.863 1044.22C767.797 1051.94 767.983 1037.81 771.023 1030.96C774.071 1024.11 753.783 1013.49 753.783 1013.49C788.231 995.284 801.556 974.939 801.556 934.558C801.556 894.176 761.564 863.513 755.428 862.054H755.46ZM482.694 422.403C461.012 422.403 443.431 396.814 443.431 365.243C443.431 333.672 461.012 308.083 482.694 308.083C504.376 308.083 521.957 333.672 521.957 365.243C521.957 396.814 504.376 422.403 482.694 422.403ZM592.41 422.403C570.728 422.403 553.147 396.814 553.147 365.243C553.147 333.672 570.728 308.083 592.41 308.083C614.092 308.083 631.673 333.672 631.673 365.243C631.673 396.814 614.092 422.403 592.41 422.403Z" fill="#E0E1E9"/>
<path d="M482.695 422.403C504.379 422.403 521.958 396.812 521.958 365.243C521.958 333.675 504.379 308.083 482.695 308.083C461.01 308.083 443.432 333.675 443.432 365.243C443.432 396.812 461.01 422.403 482.695 422.403Z" fill="#E0E1E9"/>
<path d="M592.409 422.403C614.094 422.403 631.673 396.812 631.673 365.243C631.673 333.675 614.094 308.083 592.409 308.083C570.725 308.083 553.146 333.675 553.146 365.243C553.146 396.812 570.725 422.403 592.409 422.403Z" fill="#E0E1E9"/>
<path d="M475.06 312.038C457.9 319.406 452.948 340.659 467.278 353.887C475.027 359.666 485.751 358.167 491.457 353.62C500.641 346.292 504.377 334.183 499.879 323.41C495.85 313.765 485.605 307.516 475.06 312.047V312.038Z" fill="#E0E1E9"/>
<path d="M493.192 321.676C489.885 319.066 485.436 319.504 482.939 322.697C479.956 326.515 480.726 331.175 485.022 334.28C489.837 336.509 492.917 336.355 494.984 333.883C497.715 330.608 496.832 324.553 493.192 321.684V321.676Z" fill="#E0E1E9"/>
<path d="M588.018 308.448C589.314 308.237 590.619 308.124 591.949 308.099C590.627 308.043 589.314 308.164 588.018 308.448Z" fill="#E0E1E9"/>
<path d="M572.684 325.299C571.589 331.403 571.46 337.369 574.378 342.896C578.625 350.953 585.725 354.609 594.666 353.952C603.217 353.32 609.799 349.162 613.446 341.138C616.826 333.697 614.913 326.702 611.193 319.747C607.999 314.641 603.209 311.909 598.135 309.623C596.052 308.683 593.985 308.197 591.95 308.108C590.621 308.132 589.308 308.245 588.019 308.456C585.904 308.918 583.821 309.81 581.802 311.099C576.599 314.414 573.778 319.196 572.684 325.299Z" fill="#E0E1E9"/>
<path d="M601.425 317.218C597.656 316.286 594.697 317.672 593.174 321.092C591.536 324.756 592.598 329.19 595.67 331.435C598.945 333.834 602.065 333.461 605.551 330.114C608.42 324.31 606.458 318.458 601.425 317.218Z" fill="#E0E1E9"/>
<path d="M482.695 409.2C504.379 409.2 521.958 383.021 521.958 350.727C521.958 318.433 504.379 292.254 482.695 292.254C461.01 292.254 443.432 318.433 443.432 350.727C443.432 383.021 461.01 409.2 482.695 409.2Z" fill="#E0E1E9"/>
<path d="M537.203 300.78L537.041 295.115L536.871 300.821L537.203 300.78Z" fill="#E0E1E9"/>
<path d="M592.409 409.2C614.094 409.2 631.673 383.021 631.673 350.727C631.673 318.433 614.094 292.254 592.409 292.254C570.725 292.254 553.146 318.433 553.146 350.727C553.146 383.021 570.725 409.2 592.409 409.2Z" fill="#E0E1E9"/>
<path d="M842.87 706.834L746.066 718.36L723.695 635.27L835.381 608.563C830.777 550.422 826.821 505.728 824.965 497.574C818.878 470.915 786.375 434.724 763.104 418.537C742.005 403.858 715.8 375.213 711.099 370.002C710.612 369.458 710.183 368.851 709.826 368.21C592.613 154.792 537.033 295.115 537.033 295.115L537.195 300.781L536.871 300.821L537.033 295.115C537.033 295.115 481.462 154.792 364.24 368.21C363.883 368.851 363.462 369.458 362.967 370.002C358.266 375.213 332.061 403.858 310.963 418.537C288.673 434.043 257.928 467.884 250.025 494.137L367.377 537.988L343.174 659.238L235.525 649.333C227.071 760.006 217.636 896.235 215.123 932.775C214.694 938.975 215.391 945.209 217.166 951.15L217.579 952.544C218.382 955.235 220.311 957.432 222.84 958.542C267.242 977.947 291.201 973.375 305.029 964.621C317.204 956.913 319.068 947.519 330.051 946.133C352.544 943.288 359.579 980.792 394.003 990.218C413.457 995.544 439.605 991.353 452.396 975.993C462.649 963.681 460.404 948.888 467.691 947.551C474.621 946.279 480.749 958.907 488.87 967.75C488.87 967.75 541.613 1038.15 592.418 958.785C597.306 952.309 601.667 946.676 606.408 947.551C613.687 948.888 611.45 963.681 621.703 975.993C634.494 991.353 660.642 995.544 680.095 990.218C714.519 980.792 721.555 943.288 744.048 946.133C755.031 947.519 756.895 956.913 769.069 964.621C782.905 973.383 806.857 977.955 851.259 958.542C853.788 957.44 855.709 955.235 856.52 952.544L856.933 951.15C858.708 945.201 859.405 938.975 858.976 932.775C856.884 902.387 850.011 803.07 842.886 706.834H842.87ZM482.694 292.254C504.376 292.254 521.957 318.434 521.957 350.727C521.957 383.019 504.376 409.2 482.694 409.2C461.012 409.2 443.431 383.019 443.431 350.727C443.431 318.434 461.012 292.254 482.694 292.254ZM425.193 845.722L402.822 733.874L518.131 705.115L537.041 818.56L425.193 845.722ZM592.41 409.2C570.728 409.2 553.147 383.019 553.147 350.727C553.147 318.434 570.728 292.254 592.41 292.254C614.092 292.254 631.673 318.434 631.673 350.727C631.673 383.019 614.092 409.2 592.41 409.2Z" fill="#E0E1E9"/>
<path d="M367.386 537.988L250.034 494.137C249.686 495.296 249.361 496.447 249.11 497.574C246.833 507.544 241.418 572.242 235.525 649.333L343.175 659.238L367.378 537.988H367.386Z" fill="#E0E1E9"/>
<path d="M402.822 733.874L425.194 845.722L537.041 818.56L518.131 705.115L402.822 733.874Z" fill="#E0E1E9"/>
<path d="M746.066 718.352L842.87 706.826C840.341 672.596 837.772 638.764 835.389 608.555L723.703 635.262L746.074 718.352H746.066Z" fill="#E0E1E9"/>
<path d="M475.179 423.812C486.731 412.157 500.489 405.341 516.104 402.31C536.9 398.258 557.43 399.246 577.106 407.602C602.283 418.286 616.042 437.761 619.368 464.739C621.675 483.528 617.73 500.793 606.429 516.199C601.999 522.227 596.984 527.737 591.45 532.744C585.565 538.069 579.58 543.294 573.646 548.569C570.001 551.801 566.591 555.25 563.632 559.135C559.335 564.762 557.079 570.958 557.848 578.159C558.232 581.726 558.082 581.809 554.22 581.809C540.461 581.843 526.686 581.843 512.927 581.809C508.648 581.809 508.631 581.759 508.363 577.623C507.243 560.291 512.559 545.086 523.526 531.739C530.347 523.433 538.455 516.45 546.563 509.467C550.993 505.666 555.307 501.731 559.269 497.444C565.788 490.394 569.784 482.406 568.915 472.425C567.878 460.569 560.673 451.175 549.338 447.775C542.551 445.732 535.613 445.565 528.709 447.256C514.95 450.622 506.24 461.323 505.622 475.506C505.321 482.171 506.357 488.736 507.427 495.183C506.558 496.489 505.338 496.104 504.284 496.104C489.874 496.137 475.463 496.087 461.036 496.154C458.712 496.171 457.224 495.97 456.706 493.073C452.058 467.217 456.489 443.807 475.179 423.812Z" fill="white"/>
<path d="M552.279 601.066C566.271 609.522 569.799 626.285 565.368 639.581C561.022 652.643 548.5 660.664 533.989 659.894C528.422 659.593 523.123 658.454 518.241 655.641C507.007 649.21 501.256 635.428 504.082 621.663C508.863 598.269 532.151 592.542 548.049 598.989C549.386 599.542 550.657 600.262 552.279 601.066Z" fill="white"/>
</svg>
