<svg width="1075" height="1075" viewBox="0 0 1075 1075" fill="none" xmlns="http://www.w3.org/2000/svg">
<path d="M623.895 332.731C623.895 332.731 720.992 259.716 793.057 283.968L818.124 292.161L785.578 306.848L805.06 332.117L793.157 328.222C784.081 325.253 774.449 324.487 765.238 326.035C738.018 330.62 681.019 343.565 662.706 373.638C638.337 413.661 623.903 332.723 623.903 332.723L623.895 332.731Z" fill="#E0E1E9"/>
<path d="M351.409 888.652C351.409 888.652 298.641 805.754 240.995 806.309H221L240.995 826.354L221 841.311H230.497C237.74 841.311 244.856 843.195 251.131 846.804C269.663 857.47 307.692 882.47 313.799 910.994C321.934 948.965 351.409 888.661 351.409 888.661V888.652Z" fill="#E0E1E9"/>
<path d="M592.031 1015.7C599.534 1005.52 616.206 967.488 612.808 906.25C609.409 845.012 583.736 794.675 553.454 794.675C523.171 794.675 497.498 845.012 494.1 906.25C490.701 967.488 507.374 1005.52 514.877 1015.7C520.017 1022.66 517.51 1028.79 515.424 1031.97L516.315 1034.28C516.315 1034.28 550.333 1006.53 590.827 1030.86C588.96 1027.48 587.446 1021.93 592.039 1015.7H592.031Z" fill="#E0E1E9"/>
<path d="M780.127 851.691C773.759 850.177 773.919 842.799 773.919 842.799C769.873 766.942 707.305 715.714 707.305 715.714C775.912 681.974 852.258 632.907 852.258 534.758C852.258 436.609 720.579 366.69 720.579 366.69C686.806 291.816 646.336 241 602.982 241C559.627 241 558.096 280.822 554.681 291.555C554.092 293.397 553.445 293.355 553.445 293.355C553.445 293.355 552.797 293.397 552.208 291.555C548.793 280.822 547.253 241 503.907 241C460.561 241 420.083 291.816 386.31 366.69C386.31 366.69 254.631 436.609 254.631 534.758C254.631 632.907 330.977 681.965 399.584 715.714C399.584 715.714 337.016 766.942 332.97 842.799C332.97 842.799 333.13 850.168 326.762 851.691C320.395 853.205 278.891 885.027 278.891 926.935C278.891 968.842 292.72 989.965 328.47 1008.85C328.47 1008.85 307.424 1019.87 310.578 1026.98C313.741 1034.08 313.926 1048.75 394.806 1040.74C394.806 1040.74 397.691 1039.81 397.599 1043.49C397.498 1047.16 395.344 1059.23 412.319 1068.07C429.294 1076.91 472.523 1076.03 513.556 1034.28C513.556 1034.28 514.431 1033.44 515.398 1031.97L470.883 917.11L524.264 785.574L594.705 790.528L635.982 924.815L596.042 1034.28C594.284 1033.03 592.534 1031.91 590.801 1030.86C591.987 1033.01 593.308 1034.28 593.308 1034.28C634.341 1076.03 677.569 1076.91 694.545 1068.07C711.52 1059.23 709.366 1047.16 709.265 1043.49C709.164 1039.82 712.058 1040.74 712.058 1040.74C792.938 1048.75 793.131 1034.08 796.286 1026.98C799.449 1019.87 778.394 1008.85 778.394 1008.85C814.144 989.956 827.973 968.842 827.973 926.935C827.973 885.027 786.469 853.205 780.101 851.691H780.127Z" fill="#E0E1E9"/>
<path d="M635.997 924.815L594.72 790.529L524.28 785.574L470.898 917.11L515.414 1031.97C517.508 1028.79 520.006 1022.66 514.867 1015.7C507.363 1005.52 490.691 967.488 494.09 906.25C497.488 845.012 523.161 794.676 553.444 794.676C583.735 794.676 609.399 845.012 612.798 906.25C616.196 967.488 599.524 1005.52 592.02 1015.7C587.427 1021.92 588.942 1027.48 590.809 1030.86C592.542 1031.91 594.291 1033.03 596.05 1034.28L635.989 924.815H635.997Z" fill="#E0E1E9"/>
<path d="M592.03 1015.7C599.533 1005.52 616.205 967.488 612.807 906.25C609.409 845.012 583.736 794.675 553.453 794.675C583.744 794.675 609.409 845.012 612.807 906.25C616.205 967.488 599.533 1005.52 592.03 1015.7C587.437 1021.92 588.951 1027.48 590.818 1030.86C588.951 1027.48 587.437 1021.93 592.03 1015.7Z" fill="#E0E1E9"/>
<path d="M481.043 324.328C466.179 310.6 471.319 288.552 489.118 280.898C500.062 276.195 510.686 282.681 514.875 292.691C519.544 303.87 515.666 316.438 506.135 324.042C500.213 328.769 489.084 330.317 481.043 324.319V324.328Z" fill="#E0E1E9"/>
<path d="M499.464 303.98C495.006 300.766 494.215 295.921 497.302 291.959C499.893 288.645 504.511 288.191 507.943 290.899C511.72 293.885 512.637 300.161 509.802 303.559C507.657 306.133 504.469 306.293 499.464 303.971V303.98Z" fill="#E0E1E9"/>
<path d="M630.404 288.88C634.265 296.098 636.25 303.357 632.742 311.079C628.957 319.415 622.127 323.731 613.252 324.378C603.974 325.06 596.613 321.266 592.197 312.905C589.169 307.168 589.304 300.977 590.439 294.642C591.575 288.3 594.502 283.345 599.903 279.905C605.261 276.49 610.972 275.724 616.852 278.374C622.11 280.746 627.089 283.581 630.404 288.88Z" fill="#E0E1E9"/>
<path d="M624.55 299.647C620.924 303.121 617.694 303.5 614.296 301.018C611.116 298.688 610.005 294.087 611.705 290.285C613.294 286.735 616.357 285.297 620.268 286.264C625.492 287.551 627.519 293.624 624.55 299.647Z" fill="#E0E1E9"/>
<mask id="mask0_2130_24625" style="mask-type:luminance" maskUnits="userSpaceOnUse" x="254" y="241" width="599" height="832">
<path d="M780.129 851.691C773.761 850.177 773.921 842.799 773.921 842.799C769.875 766.942 707.307 715.714 707.307 715.714C775.914 681.974 852.26 632.907 852.26 534.758C852.26 436.609 720.581 366.69 720.581 366.69C686.808 291.816 646.338 241 602.984 241C559.629 241 558.098 280.822 554.683 291.555C554.094 293.397 553.447 293.355 553.447 293.355C553.447 293.355 552.799 293.397 552.21 291.555C548.795 280.822 547.255 241 503.909 241C460.563 241 420.085 291.816 386.312 366.69C386.312 366.69 254.633 436.609 254.633 534.758C254.633 632.907 330.97 681.965 399.586 715.714C399.586 715.714 337.018 766.942 332.972 842.799C332.972 842.799 333.132 850.168 326.764 851.691C320.397 853.205 278.893 885.027 278.893 926.935C278.893 968.842 292.722 989.965 328.472 1008.85C328.472 1008.85 307.425 1019.87 310.58 1026.98C313.743 1034.08 313.928 1048.75 394.808 1040.74C394.808 1040.74 397.701 1039.81 397.601 1043.49C397.5 1047.16 395.346 1059.23 412.321 1068.07C429.296 1076.91 472.525 1076.03 513.558 1034.28C513.558 1034.28 514.433 1033.44 515.4 1031.97C515.661 1031.8 555.255 1005.77 590.803 1030.86C591.989 1033.01 593.31 1034.28 593.31 1034.28C634.343 1076.03 677.571 1076.91 694.547 1068.07C711.522 1059.23 709.368 1047.16 709.267 1043.49C709.166 1039.82 712.06 1040.74 712.06 1040.74C792.94 1048.75 793.133 1034.08 796.288 1026.98C799.451 1019.87 778.396 1008.85 778.396 1008.85C814.146 989.956 827.975 968.842 827.975 926.935C827.975 885.027 786.471 853.205 780.103 851.691H780.129ZM593.108 1032.29C594.168 1032.89 595.219 1033.37 596.254 1033.75L596.061 1034.28C595.077 1033.58 594.093 1032.92 593.108 1032.29Z" fill="white"/>
</mask>
<g mask="url(#mask0_2130_24625)">
<path d="M675.644 230.334H389.76V262.366H675.644V230.334Z" fill="#E0E1E9"/>
<path d="M839.338 253.618H553.453V285.65H839.338V253.618Z" fill="#E0E1E9"/>
<path d="M835.92 307.421L550.697 287.976L547.857 329.636L833.08 349.08L835.92 307.421Z" fill="#E0E1E9"/>
<path d="M828.232 418.761L263.217 380.242L258.807 444.922L823.823 483.441L828.232 418.761Z" fill="#E0E1E9"/>
<path d="M721.67 318.252L339.883 345.217L343.721 399.565L725.509 372.6L721.67 318.252Z" fill="#E0E1E9"/>
<path d="M714.75 293.846L436.441 228.467L429.116 259.65L707.424 325.029L714.75 293.846Z" fill="#E0E1E9"/>
<path d="M818.595 369.978H314.49V402.011H818.595V369.978Z" fill="#E0E1E9"/>
<path d="M806.907 403.865L305.473 352.047L302.18 383.909L803.614 435.727L806.907 403.865Z" fill="#E0E1E9"/>
<path d="M854.533 541.913L257.051 611.361L260.749 643.18L858.232 573.731L854.533 541.913Z" fill="#E0E1E9"/>
<path d="M880.096 912.902L273.236 871.53L269.593 924.973L876.453 966.344L880.096 912.902Z" fill="#E0E1E9"/>
<path d="M829.549 997.071L279.582 867.875L270.854 905.028L820.822 1034.22L829.549 997.071Z" fill="#E0E1E9"/>
<path d="M867.965 864.586H273.08V909.926H867.965V864.586Z" fill="#E0E1E9"/>
<path d="M823.516 704.845L282.602 671.383L285.723 629.727L826.637 663.19L823.516 704.845Z" fill="#E0E1E9"/>
<path d="M815.947 624.832H261.094V656.864H815.947V624.832Z" fill="#E0E1E9"/>
<path d="M858.568 504.475H238.717V576.329H858.568V504.475Z" fill="#E0E1E9"/>
<path d="M858.568 1009.51H238.717V1081.36H858.568V1009.51Z" fill="#E0E1E9"/>
<path d="M864.55 444.945H244.699V516.799H864.55V444.945Z" fill="#E0E1E9"/>
<path d="M848.309 605.084L238.254 714.85L250.978 785.569L861.033 675.802L848.309 605.084Z" fill="#E0E1E9"/>
<path d="M855.6 825.794L241.037 744.995L235.063 790.431L849.626 871.231L855.6 825.794Z" fill="#E0E1E9"/>
<path d="M867.998 890.36L257.943 1000.13L267.919 1055.57L877.974 945.804L867.998 890.36Z" fill="#E0E1E9"/>
<path d="M874.311 502.466L324.344 373.27L315.616 410.423L865.583 539.619L874.311 502.466Z" fill="#E0E1E9"/>
<path d="M807.908 720.484L259.846 857.538L269.104 894.562L817.166 757.509L807.908 720.484Z" fill="#E0E1E9"/>
</g>
<path d="M589.785 374.344C594.369 373.175 598.045 370.744 601.797 368.439C603.488 367.396 605.599 365.832 607.332 367.834C609.014 369.768 607.862 372.023 606.347 373.638C601.082 379.257 594.403 382.218 586.849 382.966C577.344 383.9 568.326 381.814 559.805 377.575C558.358 376.851 557.197 376.944 555.784 377.701C545.513 383.219 534.569 386.407 522.869 385.961C514.65 385.65 507.256 382.739 501.545 376.498C499.669 374.445 497.978 372.199 499.088 369.07C499.576 367.682 500.358 366.748 501.915 366.681C503.479 366.605 505.238 366.429 505.986 368.12C509.275 375.581 516.139 377.272 522.961 377.591C534.014 378.104 544.731 375.85 554.505 370.265C556.474 369.137 558.35 369.129 560.352 370.08C567.771 373.596 575.552 375.446 583.796 375.32C585.764 375.287 587.665 374.967 589.785 374.37V374.344Z" fill="#E0E1E9"/>
<path d="M500.179 418.812C511.731 407.157 525.489 400.341 541.104 397.31C561.9 393.258 582.43 394.246 602.106 402.602C627.283 413.286 641.042 432.761 644.368 459.739C646.675 478.528 642.73 495.793 631.429 511.199C626.999 517.227 621.984 522.737 616.45 527.744C610.565 533.069 604.58 538.294 598.646 543.569C595.001 546.801 591.591 550.25 588.632 554.135C584.335 559.762 582.079 565.958 582.848 573.159C583.232 576.726 583.082 576.809 579.22 576.809C565.461 576.843 551.686 576.843 537.927 576.809C533.648 576.809 533.631 576.759 533.363 572.623C532.243 555.291 537.559 540.086 548.526 526.739C555.347 518.433 563.455 511.45 571.563 504.467C575.993 500.666 580.307 496.731 584.269 492.444C590.788 485.394 594.784 477.406 593.915 467.425C592.878 455.569 585.673 446.175 574.338 442.775C567.551 440.732 560.613 440.565 553.709 442.256C539.95 445.622 531.24 456.323 530.622 470.506C530.321 477.171 531.357 483.736 532.427 490.183C531.558 491.489 530.338 491.104 529.284 491.104C514.874 491.137 500.463 491.087 486.036 491.154C483.712 491.171 482.224 490.97 481.706 488.073C477.058 462.217 481.489 438.807 500.179 418.812Z" fill="white"/>
<path d="M577.279 596.066C591.271 604.522 594.799 621.285 590.368 634.581C586.022 647.643 573.5 655.664 558.989 654.894C553.422 654.593 548.123 653.454 543.241 650.641C532.007 644.21 526.256 630.428 529.082 616.663C533.863 593.269 557.151 587.542 573.049 593.989C574.386 594.542 575.657 595.262 577.279 596.066Z" fill="white"/>
</svg>
