<svg width="1099" height="1075" viewBox="0 0 1099 1075" fill="none" xmlns="http://www.w3.org/2000/svg">
<path d="M566.022 853.809C567.377 848.808 565.675 843.299 562.162 840.379C566.344 832.637 572.651 821.636 578.762 813.546C584.925 805.389 593.805 796.165 600.053 789.98C603.676 792.112 608.882 792.408 613.208 790.411C618.854 787.805 620.861 782.296 617.686 778.116C614.52 773.927 607.367 772.649 601.729 775.256C601.179 775.51 600.679 775.797 600.205 776.102C600.324 775.772 600.434 775.433 600.527 775.087C602.118 769.214 599.503 762.63 594.678 760.38C589.852 758.129 584.654 761.057 583.063 766.929C581.692 771.989 583.453 777.566 587.042 780.46C582.767 788.736 576.426 800.422 571.567 806.861C566.547 813.504 556.202 823.887 549.083 830.792C545.46 828.634 540.228 828.33 535.877 830.335C530.231 832.941 528.225 838.45 531.399 842.63C534.565 846.819 541.718 848.097 547.356 845.491C547.906 845.237 548.406 844.949 548.88 844.644C548.761 844.974 548.651 845.313 548.558 845.66C546.967 851.532 549.582 858.116 554.408 860.367C559.233 862.618 564.431 859.69 566.022 853.817V853.809Z" fill="#727384" stroke="#727384" stroke-miterlimit="10"/>
<path d="M643.083 721.726C620.32 713.763 593.154 734.157 579.271 766.262C565.396 798.367 559.488 835.71 582.251 843.672C605.014 851.635 625.45 834.796 648.594 799.949C674.185 761.422 665.846 729.689 643.083 721.726Z" fill="#E0E1E9" stroke="#E0E1E9" stroke-miterlimit="10"/>
<path d="M526.242 848.427L552.316 849.891" stroke="#E0E1E9" stroke-miterlimit="10"/>
<path d="M528.443 824.217L567.282 826.41" stroke="#E0E1E9" stroke-miterlimit="10"/>
<path d="M536.088 800.117L580.345 802.606" stroke="#E0E1E9" stroke-miterlimit="10"/>
<path d="M781.123 284.56L766.182 330.921C766.182 330.921 984.41 430.41 1068.2 583.728C1000.16 377.341 781.123 284.569 781.123 284.569V284.56Z" fill="#E0E1E9"/>
<path d="M766.19 330.921L750.936 378.247C750.936 378.247 815.518 399.579 883.046 438.023C978.696 492.47 1068.2 583.728 1068.2 583.728C984.41 430.418 766.181 330.921 766.181 330.921H766.19Z" fill="#E0E1E9"/>
<path d="M766.156 279.045L525.791 1025.03" stroke="#E0E1E9" stroke-width="30" stroke-miterlimit="10" stroke-linecap="round"/>
<path d="M749.414 263.521L713.029 376.417C711.847 380.085 713.865 384.017 717.536 385.198L743.724 393.624C747.396 394.806 751.331 392.789 752.513 389.121L788.898 276.226C790.08 272.557 788.062 268.626 784.391 267.444L758.203 259.018C754.531 257.837 750.597 259.853 749.414 263.521Z" fill="#E0E1E9"/>
<path d="M403.281 1036.51C403.281 1036.51 367.74 1006.15 326.681 1036.51L288.321 926.447L327.965 791.428L395.621 786.446L446.893 918.7L403.281 1036.5V1036.51Z" fill="#E0E1E9"/>
<path d="M403.279 1036.51C403.279 1036.51 394.828 1028.06 402.035 1017.82C409.242 1007.59 425.255 969.353 421.991 907.78C418.727 846.208 394.069 795.597 364.984 795.597C335.898 795.597 311.24 846.208 307.976 907.78C304.712 969.353 320.725 1007.59 327.932 1017.82C335.138 1028.06 326.687 1036.51 326.687 1036.51C287.277 1078.49 245.758 1079.37 229.454 1070.48C213.15 1061.59 215.218 1049.46 215.315 1045.77C215.412 1042.08 212.632 1043 212.632 1043C134.95 1051.06 134.764 1036.31 131.735 1029.17C128.697 1022.02 148.919 1010.94 148.919 1010.94C114.582 991.943 101.3 970.714 101.3 928.578C101.3 886.441 141.163 854.446 147.279 852.923C153.395 851.401 153.242 843.984 153.242 843.984C157.128 767.712 217.221 716.204 217.221 716.204C151.327 682.28 77.9995 632.946 77.9995 534.261C77.9995 435.576 204.472 365.276 204.472 365.276C236.91 289.993 275.78 238.9 317.421 238.9C359.061 238.9 360.532 278.939 363.812 289.731C364.377 291.583 365 291.541 365 291.541C365 291.541 365.622 291.583 366.187 289.731C369.467 278.939 370.946 238.9 412.578 238.9C454.211 238.9 493.089 289.993 525.527 365.276C525.527 365.276 652 435.576 652 534.261C652 632.946 578.672 682.272 512.778 716.204C512.778 716.204 572.871 767.712 576.757 843.984C576.757 843.984 576.604 851.393 582.72 852.923C588.836 854.446 628.699 886.441 628.699 928.578C628.699 970.714 615.417 991.952 581.08 1010.94C581.08 1010.94 601.294 1022.02 598.264 1029.17C595.227 1036.31 595.049 1051.06 517.367 1043" fill="#E0E1E9"/>
<path d="M616.008 736.215C616.008 736.215 559.784 738.677 513.345 693.2C466.913 647.731 489.212 798.38 489.212 798.38L556.132 824.7L616.008 736.215Z" fill="#E0E1E9"/>
<path d="M303.179 418.812C314.731 407.157 328.489 400.341 344.104 397.31C364.9 393.258 385.43 394.246 405.106 402.602C430.283 413.286 444.042 432.761 447.368 459.739C449.675 478.528 445.73 495.793 434.429 511.199C429.999 517.227 424.984 522.737 419.45 527.744C413.565 533.069 407.58 538.294 401.646 543.569C398.001 546.801 394.591 550.25 391.632 554.135C387.335 559.762 385.079 565.958 385.848 573.159C386.232 576.726 386.082 576.809 382.22 576.809C368.461 576.843 354.686 576.843 340.927 576.809C336.648 576.809 336.631 576.759 336.363 572.623C335.243 555.291 340.559 540.086 351.526 526.739C358.347 518.433 366.455 511.45 374.563 504.467C378.993 500.666 383.307 496.731 387.269 492.444C393.788 485.394 397.784 477.406 396.915 467.425C395.878 455.569 388.673 446.175 377.338 442.775C370.551 440.732 363.613 440.565 356.709 442.256C342.95 445.622 334.24 456.323 333.622 470.506C333.321 477.171 334.357 483.736 335.427 490.183C334.558 491.489 333.338 491.104 332.284 491.104C317.874 491.137 303.463 491.087 289.036 491.154C286.712 491.171 285.224 490.97 284.706 488.073C280.058 462.217 284.489 438.807 303.179 418.812Z" fill="white"/>
<path d="M380.279 596.066C394.271 604.522 397.799 621.285 393.368 634.581C389.022 647.643 376.5 655.664 361.989 654.894C356.422 654.592 351.123 653.454 346.241 650.64C335.007 644.21 329.256 630.428 332.082 616.663C336.863 593.269 360.151 587.542 376.049 593.989C377.386 594.542 378.657 595.262 380.279 596.066Z" fill="white"/>
</svg>
