<svg width="1075" height="1075" viewBox="0 0 1075 1075" fill="none" xmlns="http://www.w3.org/2000/svg">
<path d="M286.762 348.858C286.762 348.858 646.66 201.472 815.231 255.544C983.81 309.616 611.1 432.279 611.1 432.279H312.174C312.174 432.279 187.753 415.792 286.754 348.858H286.762Z" fill="#E0E1E9"/>
<path d="M515.267 1020.52C515.267 1020.52 550.981 991.794 592.241 1020.52L630.789 916.368L590.95 788.599L522.963 783.885L471.441 909.037L515.267 1020.51V1020.52Z" fill="#E0E1E9"/>
<path d="M515.266 1020.52C515.266 1020.52 523.758 1012.52 516.516 1002.84C509.274 993.154 493.182 956.97 496.462 898.704C499.742 840.438 524.521 792.544 553.749 792.544C582.976 792.544 607.755 840.438 611.035 898.704C614.315 956.97 598.224 993.154 590.982 1002.84C583.74 1012.52 592.232 1020.52 592.232 1020.52C631.836 1060.25 673.558 1061.08 689.941 1052.67C706.325 1044.26 704.247 1032.77 704.149 1029.28C704.052 1025.79 706.845 1026.66 706.845 1026.66C784.907 1034.29 785.094 1020.33 788.139 1013.57C791.191 1006.81 770.87 996.323 770.87 996.323C805.375 978.347 818.722 958.258 818.722 918.384C818.722 878.511 778.664 848.233 772.518 846.792C766.372 845.352 766.526 838.333 766.526 838.333C762.621 766.156 702.233 717.415 702.233 717.415C768.45 685.312 842.136 638.627 842.136 545.241C842.136 451.856 715.045 385.33 715.045 385.33C682.448 314.09 643.388 265.74 601.544 265.74C559.7 265.74 558.222 303.629 554.926 313.842C554.358 315.595 553.732 315.555 553.732 315.555C553.732 315.555 553.107 315.595 552.539 313.842C549.243 303.629 547.757 265.74 505.921 265.74C464.085 265.74 425.017 314.09 392.42 385.33C392.42 385.33 265.328 451.856 265.328 545.241C265.328 638.627 339.015 685.304 405.232 717.415C405.232 717.415 344.844 766.156 340.939 838.333C340.939 838.333 341.093 845.344 334.947 846.792C328.801 848.233 288.743 878.511 288.743 918.384C288.743 958.258 302.09 978.355 336.595 996.323C336.595 996.323 316.282 1006.81 319.326 1013.57C322.379 1020.33 322.558 1034.29 400.62 1026.66" fill="#E0E1E9"/>
<path d="M516.328 405.964C552.66 387.835 584.218 397.76 584.218 397.76L516.328 405.964Z" fill="#E0E1E9"/>
<path d="M516.328 405.964C552.66 387.835 584.218 397.76 584.218 397.76" stroke="#E0E1E9" stroke-width="9" stroke-miterlimit="10" stroke-linecap="round"/>
<path d="M591.174 381.024C591.174 381.024 579.897 400.721 583.575 415.023L591.174 381.024Z" fill="#E0E1E9"/>
<path d="M591.174 381.024C591.174 381.024 579.897 400.721 583.575 415.023" stroke="#E0E1E9" stroke-width="9" stroke-miterlimit="10" stroke-linecap="round"/>
<path d="M415.43 255.328L503.064 32.3886C503.527 31.22 504.525 30.3317 505.751 30.0115L619.309 0.14209C622.889 -0.802333 625.714 3.15946 623.62 6.1608L598.249 42.5211C597.583 43.4735 597.38 44.666 597.688 45.7785L645.33 218.976C645.947 221.217 644.469 223.498 642.139 223.882L419.814 260.627C416.769 261.131 414.325 258.17 415.438 255.328H415.43Z" fill="#E0E1E9"/>
<path d="M404.679 302.093L407.042 261.419C407.269 257.449 409.591 253.896 413.147 252.031C436.765 239.625 530.675 195.438 646.335 209.764C650.484 210.276 654.024 212.974 655.591 216.799L670.619 253.504C673.347 260.163 669.206 267.614 662.045 268.935L418.327 313.939C410.963 315.299 404.257 309.481 404.688 302.109L404.679 302.093Z" fill="#E0E1E9"/>
<path d="M594.772 252.575L530.212 262.276L527.605 210.3L585.768 203.401L594.772 252.575Z" fill="#E0E1E9" stroke="#E0E1E9" stroke-width="10" stroke-linecap="round" stroke-linejoin="round"/>
<path d="M511.516 239.993L542.7 233.895" stroke="#E0E1E9" stroke-width="10" stroke-linecap="round" stroke-linejoin="round"/>
<path d="M286.762 348.858C286.762 348.858 342.124 315.315 423.344 290.272C520.583 260.282 654.819 238.464 774.442 246.66L811.715 269.182C811.715 269.182 477.57 276.666 314.828 360.087L286.762 348.858Z" fill="#E0E1E9"/>
<path fill-rule="evenodd" clip-rule="evenodd" d="M216.54 466.146C224.426 463.643 232.876 467.916 235.415 475.69L424.827 1055.68C427.365 1063.45 423.031 1071.78 415.145 1074.28C407.259 1076.79 398.809 1072.51 396.27 1064.74L206.859 484.753C204.32 476.979 208.654 468.648 216.54 466.146Z" fill="#E0E1E9"/>
<path d="M67.6836 311.361L245.266 251.719C245.266 251.719 318.214 522.248 242.944 546.299C167.675 570.349 67.6836 311.361 67.6836 311.361Z" fill="#E0E1E9"/>
<path d="M220.732 545.882L260.863 532.789L268.276 555.935L227.512 568.869L220.732 545.882Z" fill="#E0E1E9"/>
<path d="M227.512 568.868L224.881 608.998L237.579 598.129L260.393 600.434L274.032 589.085L289.652 590.086L268.276 555.935L227.512 568.868Z" fill="#E0E1E9"/>
<path d="M116.217 295.058L187.078 461.725" stroke="#E0E1E9" stroke-width="5" stroke-miterlimit="10"/>
<path d="M190.568 270.087L221.542 393.246" stroke="#E0E1E9" stroke-width="5" stroke-miterlimit="10"/>
<path d="M368.941 742.963C368.941 742.963 345.819 695.645 298.778 700.464C251.738 705.282 258.363 768.078 258.363 768.078C258.363 768.078 264.249 829.497 319.035 842.343C373.82 855.189 368.941 742.963 368.941 742.963Z" fill="#E0E1E9"/>
<path d="M301.496 736.352C301.496 736.352 357.995 738.681 404.662 695.646C451.32 652.618 428.913 795.178 428.913 795.178L361.664 820.085L301.496 736.352Z" fill="#E0E1E9"/>
<path d="M483.87 345.128C469.524 332.066 474.485 311.089 491.665 303.806C502.227 299.332 512.481 305.503 516.524 315.027C521.03 325.664 517.287 337.621 508.089 344.856C502.373 349.354 491.632 350.827 483.87 345.12V345.128Z" fill="#E0E1E9"/>
<path d="M501.642 325.767C497.339 322.71 496.576 318.1 499.556 314.33C502.056 311.177 506.514 310.745 509.826 313.322C513.472 316.163 514.356 322.134 511.62 325.367C509.55 327.816 506.473 327.968 501.642 325.759V325.767Z" fill="#E0E1E9"/>
<path d="M628.019 311.409C631.745 318.276 633.662 325.183 630.276 332.53C626.623 340.462 620.03 344.568 611.465 345.184C602.51 345.832 595.406 342.223 591.143 334.267C588.221 328.809 588.351 322.918 589.447 316.891C590.543 310.857 593.368 306.143 598.58 302.869C603.752 299.62 609.264 298.891 614.94 301.412C620.014 303.669 624.82 306.367 628.019 311.409Z" fill="#E0E1E9"/>
<path d="M622.377 321.654C618.878 324.96 615.76 325.32 612.48 322.959C609.412 320.742 608.34 316.364 609.98 312.746C611.514 309.369 614.469 308 618.244 308.921C623.286 310.145 625.243 315.924 622.377 321.654Z" fill="#E0E1E9"/>
<path d="M475.467 729.757C475.467 729.757 545.159 742.083 623.708 729.757C623.708 729.757 591.014 753.824 551.118 753.824C511.222 753.824 475.467 729.757 475.467 729.757Z" fill="#E0E1E9"/>
<path d="M472.179 422.474C483.731 410.984 497.489 404.265 513.104 401.277C533.9 397.282 554.43 398.256 574.106 406.494C599.283 417.026 613.042 436.225 616.368 462.82C618.675 481.342 614.73 498.362 603.429 513.55C598.999 519.493 593.984 524.924 588.45 529.86C582.565 535.11 576.58 540.26 570.646 545.46C567.001 548.646 563.591 552.047 560.632 555.877C556.335 561.424 554.079 567.532 554.848 574.63C555.232 578.147 555.082 578.229 551.22 578.229C537.461 578.262 523.686 578.262 509.927 578.229C505.648 578.229 505.631 578.18 505.363 574.102C504.243 557.016 509.559 542.027 520.526 528.87C527.347 520.681 535.455 513.798 543.563 506.914C547.993 503.166 552.307 499.287 556.269 495.061C562.788 488.111 566.784 480.236 565.915 470.397C564.878 458.71 557.673 449.448 546.338 446.097C539.551 444.083 532.613 443.918 525.709 445.586C511.95 448.904 503.24 459.452 502.622 473.435C502.321 480.005 503.357 486.476 504.427 492.832C503.558 494.12 502.338 493.74 501.284 493.74C486.874 493.773 472.463 493.724 458.036 493.79C455.712 493.806 454.224 493.608 453.706 490.752C449.058 465.263 453.489 442.185 472.179 422.474Z" fill="white"/>
<path d="M549.279 597.213C563.271 605.549 566.799 622.074 562.368 635.182C558.022 648.058 545.5 655.966 530.989 655.206C525.422 654.909 520.123 653.787 515.241 651.013C504.007 644.674 498.256 631.088 501.082 617.518C505.863 594.456 529.151 588.81 545.049 595.166C546.386 595.711 547.657 596.42 549.279 597.213Z" fill="white"/>
</svg>
