<svg width="224" height="320" viewBox="0 0 224 320" fill="none" xmlns="http://www.w3.org/2000/svg">
<path d="M136.876 301.64C134.262 301.435 131.674 301.205 129.073 300.987C126.733 300.794 124.406 300.576 122.066 300.455C115.756 300.128 109.433 300.273 103.124 300.503C99.3774 300.636 95.6188 300.794 91.8105 301.604C90.2672 299.003 89.1222 296.293 87.9648 293.583C84.9156 286.444 83.2105 278.943 82.0282 271.345C81.2815 266.542 80.9952 261.691 80.8583 256.827C80.4725 243.046 82.6505 229.629 86.6953 216.466C87.9399 212.425 89.8938 208.65 91.91 204.79C91.9847 204.681 91.9722 204.669 91.9847 204.669C92.383 204.294 92.5945 203.81 92.8683 203.254C92.943 203.181 92.9306 203.157 92.943 203.157C93.167 202.927 93.3039 202.661 93.5031 202.334C93.5653 202.274 93.5653 202.25 93.5777 202.25C93.7893 202.044 93.9262 201.79 94.1378 201.463C94.2125 201.391 94.2125 201.342 94.2373 201.342C94.2871 201.282 94.3245 201.221 94.4365 201.1C94.5112 201.04 94.5112 201.016 94.5112 201.016C94.7352 200.822 94.8596 200.58 95.0837 200.265C95.1708 200.193 95.1708 200.132 95.1957 200.12C95.2455 200.048 95.2703 199.987 95.3699 199.89C95.457 199.842 95.4446 199.806 95.4695 199.806C95.5317 199.745 95.5566 199.697 95.681 199.576C95.7557 199.515 95.7557 199.491 95.7682 199.491C95.8304 199.443 95.8677 199.382 95.9922 199.261C96.0669 199.189 96.0669 199.177 96.0669 199.177C96.378 198.898 96.6643 198.596 96.9629 198.172C97.0501 198.112 97.0998 198.015 97.2119 197.93C97.3239 197.846 97.3861 197.725 97.5106 197.64C97.635 197.543 97.6972 197.422 97.8217 197.338C97.9462 197.253 98.0208 197.12 98.1328 197.059C98.3942 196.842 98.5435 196.684 98.8049 196.491C99.116 196.212 99.4645 196.176 99.7508 195.898C99.813 195.837 99.813 195.825 99.8254 195.825C99.8877 195.777 99.9375 195.728 100.062 195.595C100.137 195.523 100.137 195.511 100.137 195.511C100.186 195.462 100.249 195.414 100.373 195.293C100.448 195.22 100.448 195.208 100.448 195.208C100.498 195.16 100.547 195.111 100.684 195.003C100.771 194.942 100.771 194.918 100.796 194.918C100.846 194.869 100.871 194.809 101.008 194.736C103.634 192.873 106.646 192.498 109.645 192.087C113.491 191.566 117.336 191.506 121.157 192.28C126.832 193.43 130.691 197.059 134.038 201.33C135.619 203.351 136.926 205.54 138.108 207.936C138.183 208.081 138.233 208.118 138.295 208.239C138.345 208.372 138.37 208.432 138.432 208.565C138.506 208.686 138.544 208.722 138.606 208.843C138.643 208.977 138.681 209.037 138.743 209.182C138.818 209.303 138.867 209.339 138.917 209.448C138.954 209.594 138.979 209.654 139.042 209.811C139.129 209.932 139.179 209.957 139.203 210.065C139.216 210.211 139.253 210.271 139.328 210.453C139.477 210.634 139.539 210.731 139.577 210.961C139.627 211.118 139.651 211.166 139.701 211.312C139.776 211.433 139.813 211.469 139.863 211.59C139.9 211.735 139.925 211.796 139.975 211.965C140.112 212.146 140.174 212.255 140.199 212.485C140.249 212.642 140.274 212.691 140.324 212.848C140.398 212.969 140.436 213.005 140.473 213.126C140.498 213.272 140.535 213.344 140.585 213.501C140.722 213.683 140.796 213.78 140.809 214.01C140.846 214.167 140.871 214.227 140.921 214.385C141.045 214.578 141.108 214.687 141.132 214.917C141.17 215.074 141.195 215.135 141.244 215.292C141.369 215.486 141.419 215.607 141.456 215.836C141.506 215.994 141.518 216.054 141.568 216.212C141.693 216.405 141.742 216.514 141.767 216.756C141.805 216.913 141.829 216.974 141.879 217.143C142.228 218.377 142.551 219.514 142.95 220.749C143.037 220.978 143.074 221.112 143.124 221.353C143.534 223.434 144.082 225.382 144.543 227.451C144.617 227.681 144.655 227.826 144.692 228.056C145.177 230.609 145.712 233.053 146.161 235.63C146.21 235.884 146.235 236.029 146.26 236.283C146.248 236.84 146.372 237.263 146.472 237.796C146.521 238.025 146.534 238.171 146.559 238.425C146.721 240.167 146.907 241.812 147.106 243.567C147.156 243.918 147.181 244.16 147.194 244.522C147.169 245.974 147.43 247.305 147.418 248.757C147.467 249.301 147.492 249.749 147.492 250.318C147.567 252.677 147.517 254.915 147.505 257.275C147.492 257.843 147.48 258.279 147.467 258.847C147.355 260.408 147.194 261.836 147.194 263.384C147.181 263.651 147.181 263.796 147.156 264.05C147.044 264.993 146.882 265.816 146.882 266.748C146.87 267.002 146.857 267.147 146.833 267.401C146.497 268.829 146.497 270.184 146.248 271.624C146.223 271.878 146.21 272.023 146.185 272.277C145.862 273.305 145.887 274.273 145.638 275.302C145.613 275.544 145.6 275.689 145.563 275.931C145.177 277.262 145.016 278.52 144.692 279.863C144.655 280.105 144.642 280.238 144.592 280.468C144.231 281.496 144.032 282.464 143.758 283.517C143.721 283.759 143.709 283.892 143.646 284.122C143.136 285.682 142.638 287.134 142.19 288.695C142.153 288.937 142.116 289.082 142.029 289.324C142.004 289.481 142.016 289.53 141.954 289.626C141.867 289.735 141.854 289.784 141.805 289.941C141.282 290.921 141.008 291.877 140.684 292.929C140.597 293.075 140.585 293.135 140.523 293.28C140.299 293.692 140.149 294.03 140.05 294.466C139.963 294.599 139.938 294.659 139.875 294.817C139.826 294.962 139.826 295.022 139.751 295.119C139.664 295.228 139.651 295.289 139.589 295.422C139.241 296.015 138.93 296.523 138.78 297.2C138.693 297.333 138.668 297.406 138.594 297.563C138.544 297.708 138.544 297.769 138.482 297.866C138.382 297.975 138.37 298.035 138.295 298.18C138.245 298.325 138.245 298.374 138.17 298.483C138.083 298.592 138.071 298.652 138.009 298.785C137.772 299.184 137.623 299.523 137.523 299.971C137.449 300.104 137.424 300.164 137.374 300.31C137.137 300.721 136.988 301.06 136.901 301.507C136.901 301.58 136.889 301.628 136.876 301.64Z" fill="#BEE6F5"/>
<path d="M54.896 182.806C-7.6121 156.768 -21.3222 95.1615 37.7373 55.4972C41.6746 52.3305 47.5007 50.9867 50.2822 46.7017C56.362 33.5461 62.5357 19.8642 72.9569 9.52762C87.1932 -5.56379 109.135 -2.94206 111.804 19.6951C115.938 -5.2349 138.453 -4.9436 153.15 11.8674C158.337 17.6465 162.34 24.3089 165.911 31.1687C170.008 37.0605 171.013 45.5459 176.849 49.9249C240.25 84.7874 239.63 149.635 173.626 180.833C172.93 181.134 172.216 181.632 173.1 182.252C180.354 188.896 186.697 196.488 191.301 205.199C195.756 213.478 198.913 222.489 200.163 231.83C200.238 233.334 200.867 234.292 202.324 234.846C202.39 234.987 202.672 234.987 202.784 235.091C202.944 235.279 203.32 235.335 203.508 235.551C204.185 236.002 205.011 236.35 205.632 236.98C205.876 237.224 206.346 237.384 206.581 237.694C207.013 238.06 207.605 238.427 208.009 238.878C208.028 238.943 208.206 239.066 208.263 239.103C209.296 239.921 210.302 240.823 211.101 241.96C226.887 259.231 221.757 285.74 202.051 295.673C211.383 299.403 209.766 307.268 199.881 308.048C192.185 309.091 184.451 308.321 176.774 307.56C176.097 307.503 175.862 307.635 175.947 308.387C173.833 330.61 139.196 316.261 131.819 304.008C130.109 301.818 131.133 299.328 132.27 297.073C133.304 294.761 134.431 292.496 135.202 290.081C141.46 271.945 141.122 251.911 135.775 233.578C132.402 220.281 122.272 209.118 107.603 214.305C94.5885 220.582 92.2675 237.778 90.2566 250.633C88.8282 263.77 89.8431 277.377 94.2127 289.922C95.0114 292.647 96.4397 295.118 97.4264 297.768C99.2494 300.493 98.6856 303.237 96.6277 305.389C88.5181 316.769 55.3377 330.084 53.5147 308.33C53.5993 307.644 53.3644 307.503 52.7442 307.56C44.2212 308.368 35.5666 309.392 27.0906 307.56C17.393 304.759 20.5974 298.896 27.7954 295.221C6.74636 287.009 3.36347 257.437 18.3609 241.95C19.1597 240.907 20.0993 239.902 21.1988 239.094C21.274 239.094 21.4055 238.915 21.4431 238.878C21.866 238.492 22.364 238.032 22.8714 237.694C23.1251 237.449 23.4728 237.186 23.8205 236.98C24.4407 236.434 25.1831 235.965 25.9442 235.551C26.1228 235.391 26.4516 235.26 26.6678 235.091C26.7617 235.006 27.0155 234.95 27.1376 234.837C27.5699 234.471 28.2934 234.226 28.8103 233.907C29.9379 229.02 30.7836 223.636 32.3623 218.75C32.5502 218.618 32.4187 218.186 32.5972 218.035C32.7852 217.904 32.6536 217.472 32.8415 217.331C33.0295 217.199 32.8979 216.757 33.0859 216.626C33.5463 216.147 33.5181 215.31 33.7906 214.728C34.1289 214.474 34.0443 213.863 34.2605 213.544C34.6082 213.299 34.5048 212.679 34.7397 212.36C35.172 211.993 35.1532 211.157 35.4539 210.706C35.8016 210.095 36.168 209.522 36.3842 208.798C36.5063 208.723 36.5251 208.432 36.6191 208.319C36.7882 208.084 36.9104 207.605 37.0889 207.37C37.2205 207.304 37.2299 207.013 37.3239 206.9C37.446 206.825 37.4648 206.543 37.5588 206.43C37.6809 206.355 37.6997 206.082 37.7937 205.96C38.1696 205.641 38.3011 204.992 38.5173 204.551C38.6206 204.466 38.6394 204.137 38.7616 204.081C38.7898 204.025 38.9213 203.874 38.9683 203.818C39.2502 203.667 39.2408 203.122 39.457 202.888C39.4945 202.85 39.6355 202.662 39.6731 202.624C39.814 202.568 39.8234 202.286 39.9268 202.164C40.1429 202.023 40.2745 201.704 40.3872 201.44C40.5282 201.384 40.5376 201.112 40.641 200.98C40.7443 200.905 40.7819 200.585 40.8947 200.52C40.9323 200.473 41.0638 200.322 41.1108 200.256C41.4397 199.993 41.4961 199.401 41.8344 199.082C41.8907 199.054 42.0035 198.875 42.0505 198.828C42.1914 198.762 42.1914 198.509 42.3042 198.368C42.5109 198.208 42.5579 197.841 42.7835 197.653C42.8304 197.625 42.9714 197.437 42.9996 197.39C43.2439 197.287 43.2721 196.864 43.4788 196.695C43.5916 196.62 43.6292 196.3 43.7419 196.244C46.9933 191.837 50.5829 187.73 54.5672 183.972C54.8679 183.69 55.4505 183.417 54.8773 182.797L54.896 182.806Z" fill="#6BCEF5"/>
<path d="M96.9741 7.71444C118.789 21.5801 88.4515 55.2282 76.1264 29.2013C70.9964 17.0402 84.3376 1.15857 96.9741 7.71444Z" fill="#001602"/>
<path d="M88.1728 20.2206C82.9696 12.8275 96.5523 6.72018 100.167 14.899C103.929 21.8635 94.0656 26.0958 88.1728 20.2206Z" fill="#EBECED"/>
<path d="M82.2168 31.9023C79.2923 27.0543 86.9266 23.0495 88.9585 28.4127C91.0727 32.9797 85.529 35.755 82.2168 31.9023Z" fill="#EBECED"/>
<path d="M123.346 35.5368C112.301 26.3073 119.442 2.67714 134.972 6.3929C160.846 13.5162 146.599 50.5711 123.346 35.5368Z" fill="#001602"/>
<path d="M143.956 16.1821C145.08 27.6405 124.037 23.1287 130.099 13.8725C133.306 8.7341 142.856 11.0974 143.956 16.1821Z" fill="#EBECED"/>
<path d="M132.404 29.2543C132.993 36.7681 121.954 33.8096 125.134 27.7398C126.817 24.3703 131.827 25.9201 132.404 29.2543Z" fill="#EBECED"/>
<path d="M113.1 187.937H76.1162C105.703 204.956 136.055 195.028 147.533 187.937H113.1Z" fill="#25C1FF"/>
<path d="M160.085 174.792C154.028 167.49 125.909 187.817 112.606 198.893C125.592 209.285 153.108 228.19 159.287 220.675C165.465 213.16 159.79 201.973 156.97 198.115C160.006 192.852 166.142 182.093 160.085 174.792Z" fill="#FF6B00" stroke="#FF6B00" stroke-width="2"/>
<path d="M65.5656 174.549C71.7467 167.352 99.5134 188.158 112.624 199.461C99.4622 209.628 71.6263 228.059 65.5772 220.439C59.5281 212.819 65.3941 201.731 68.2808 197.922C65.3352 192.608 59.3844 181.745 65.5656 174.549Z" fill="#FF6B00" stroke="#FF6B00" stroke-width="2"/>
<rect x="100.338" y="182.029" width="24.4164" height="33.3876" rx="3" transform="rotate(-0.280062 100.338 182.029)" fill="#FF6B00" stroke="#FF6B00" stroke-width="2"/>
<path d="M115.339 53.0001C122.177 53.0127 128.757 53.5837 134.96 55.0647C136.346 55.3973 137.136 55.8429 136.981 56.5896C136.126 60.8067 135.517 65.0363 133.121 69.1403C131.127 72.5541 128.575 75.855 123.939 78.6663C120.986 80.4548 117.411 81.7664 112.477 81.9735C108.022 82.1617 104.318 81.3334 101.054 79.9716C96.7024 78.1643 93.9826 75.8111 91.8586 73.2821C88.4136 69.1654 87.1444 64.8417 87.0019 60.4301C86.976 59.5767 87.2221 58.7295 87.2739 57.8761C87.3127 57.3489 87.9862 57.0854 88.7762 56.803C96.6765 53.9728 105.703 52.9876 115.339 53.0001Z" fill="#FF5D5D"/>
</svg>
