<svg width="140" height="140" viewBox="0 0 140 140" fill="none" xmlns="http://www.w3.org/2000/svg">
<g id="icon-plus-circle" clip-path="url(#clip0_3403_6962)">
<path id="Vector" fill-rule="evenodd" clip-rule="evenodd" d="M98.3207 76.3065H76.2554V98.3717C76.2554 100.044 75.5912 101.647 74.4089 102.83C73.2266 104.012 71.6231 104.676 69.9511 104.676C68.2791 104.676 66.6755 104.012 65.4932 102.83C64.3109 101.647 63.6467 100.044 63.6467 98.3717V76.3065H41.5815C39.9095 76.3065 38.306 75.6423 37.1237 74.46C35.9414 73.2777 35.2772 71.6742 35.2772 70.0021C35.2772 68.3301 35.9414 66.7266 37.1237 65.5443C38.306 64.362 39.9095 63.6978 41.5815 63.6978H63.6467V41.6326C63.6467 39.9605 64.3109 38.357 65.4932 37.1747C66.6755 35.9924 68.2791 35.3282 69.9511 35.3282C71.6231 35.3282 73.2266 35.9924 74.4089 37.1747C75.5912 38.357 76.2554 39.9605 76.2554 41.6326V63.6978H98.3207C99.9927 63.6978 101.596 64.362 102.779 65.5443C103.961 66.7266 104.625 68.3301 104.625 70.0021C104.625 71.6742 103.961 73.2777 102.779 74.46C101.596 75.6423 99.9927 76.3065 98.3207 76.3065ZM70.0015 0.654297C31.7026 0.654297 0.653687 31.7032 0.653687 70.0021C0.653687 108.301 31.7026 139.35 70.0015 139.35C108.3 139.35 139.349 108.301 139.349 70.0021C139.349 31.7032 108.3 0.654297 70.0015 0.654297Z" fill="#E0E1E9"/>
</g>
<defs>
<clipPath id="clip0_3403_6962">
<rect width="138.696" height="138.696" fill="white" transform="translate(0.653687 0.654297)"/>
</clipPath>
</defs>
</svg>
