<svg width="24" height="24" fill="none" xmlns="http://www.w3.org/2000/svg"><g fill-rule="evenodd" clip-rule="evenodd"><path d="m2.924 5.31 8.09-4.67a1.029 1.029 0 0 1 1.543.89v1.44a5.14 5.14 0 0 0 2.57 4.452l5.953 3.438a1.028 1.028 0 0 1 0 1.78l-5.395 3.114c.047.056.104.097.14.16L19.28 21.9a1.2 1.2 0 0 1-2.078 1.2l-3.456-5.985c-.037-.064-.044-.134-.067-.201l-5.396 3.113a1.03 1.03 0 0 1-1.542-.89v-6.873a5.139 5.139 0 0 0-2.57-4.452l-1.248-.72a1.028 1.028 0 0 1 0-1.782Z" fill="#FF6464"/><path d="m16.035 15.552-.35.203c.016.019.034.037.052.054a.48.48 0 0 1 .088.106L19.28 21.9a1.2 1.2 0 0 1-2.078 1.2l-3.456-5.985c-.024-.042-.036-.086-.047-.13a.862.862 0 0 0-.02-.072l-.173.1L13.5 17l2.5-1.5.035.052Z" fill="#B3B6C5"/></g></svg>