<svg width="24" height="24" fill="none" xmlns="http://www.w3.org/2000/svg"><g clip-path="url(#a)"><path d="M5.034 8.094c.074-.315.166-.622.282-.923.092-.24.204-.471.322-.7.132-.256.287-.497.453-.73a6.852 6.852 0 0 1 1.094-1.188c.224-.186.454-.363.7-.52a6.704 6.704 0 0 1 .939-.501c.122-.054.248-.099.373-.146a5.91 5.91 0 0 1 1.107-.294c.256-.043.513-.08.773-.086.373-.01.746-.013 1.117.034.258.032.512.076.765.135.29.069.571.16.85.265a6.15 6.15 0 0 1 1.582.882c.176.136.35.273.51.427.26.25.51.513.73.802a6.542 6.542 0 0 1 1.217 2.618c.041.199.07.4.1.6.04.271.035.544.05.815.008.127-.016.256-.018.383a3.723 3.723 0 0 1-.105.726c-.065.3-.16.59-.284.87-.115.264-.25.518-.402.761a8.41 8.41 0 0 1-.747 1c-.235.273-.48.537-.723.803-.143.157-.29.308-.432.465-.15.169-.297.341-.444.513-.1.117-.205.232-.296.357-.145.197-.292.392-.423.598-.13.205-.258.411-.363.63a.597.597 0 0 1-.11-.007v.014H9.224v-.02c-.042.008-.081.031-.125.015l-.018-.048c.006-.01.002-.014-.007-.017-.06-.108-.114-.22-.18-.323a9.902 9.902 0 0 0-1.001-1.35 20.768 20.768 0 0 0-.506-.56c-.207-.219-.408-.444-.61-.668-.161-.181-.326-.36-.477-.55-.191-.238-.377-.479-.546-.734a5.817 5.817 0 0 1-.533-.995 4.579 4.579 0 0 1-.271-.946 4.497 4.497 0 0 1-.074-.597 6.622 6.622 0 0 1 .157-1.81Z" fill="#85DCFF"/><path d="M11.735 16.74a.404.404 0 0 0 .013-.118c0-1.033 0-2.066-.003-3.1a.3.3 0 0 1 .05-.15c.1-.179.22-.347.318-.528.064-.12.126-.241.195-.358.061-.104.124-.206.182-.312.063-.114.13-.226.197-.34l.28-.483c.081-.144.16-.289.243-.432.036-.062.078-.122.106-.19.079-.186-.034-.417-.26-.42-.15-.003-.247.06-.316.194-.082.162-.18.315-.271.472l-.194.334c-.03.05-.072.089-.097.144a3.527 3.527 0 0 1-.24.435c-.043.067-.07.143-.122.203-.013.015-.023.04-.05.03-.026-.012-.032-.037-.03-.064.004-.042.01-.083.01-.125.002-.435.002-.87.001-1.304 0-.186-.147-.352-.337-.329a.315.315 0 0 0-.251.17.456.456 0 0 0-.045.23V12.085c0 .021-.01.04-.029.045-.023.006-.032-.014-.04-.03-.062-.132-.137-.256-.207-.382-.071-.128-.147-.254-.222-.38-.098-.163-.185-.333-.285-.495-.092-.148-.163-.309-.272-.445a.21.21 0 0 0-.166-.089c-.08 0-.162-.01-.236.043-.115.085-.176.241-.103.387.064.127.149.244.21.373.074.153.18.286.257.436.113.219.248.425.365.641.09.167.193.325.288.489.106.18.209.36.313.542.021.038.037.08.065.114.06.072.063.154.063.242v3.087l.001.076.06.006c.01-.022.03-.02.049-.02h.426c.017 0 .035-.002.045.016l.039-.001Z" fill="#313239"/><path d="M9.123 17.084c.006-.131.03-.264-.023-.393.053.02.1-.017.151-.017.615.002 1.229.002 1.843.002l.022-.001.06.006c.174.008.347.016.52-.004l.039-.001.052-.001c.589 0 1.177.001 1.765-.001.071 0 .139.02.21.016-.001.047-.034.084-.033.135.004.353.005.706.002 1.059-.003.324.024.65-.035.972-.018.098-.03.2-.062.292a2.7 2.7 0 0 1-.118.285 2.333 2.333 0 0 1-.681.843 2.182 2.182 0 0 1-.724.38c-.041.013-.094.013-.118.063-.086.182-.256.242-.433.27a.795.795 0 0 1-.516-.086.33.33 0 0 1-.155-.15.149.149 0 0 0-.11-.092c-.047-.011-.09-.03-.135-.045a2.268 2.268 0 0 1-.555-.295 2.2 2.2 0 0 1-.585-.61 2.23 2.23 0 0 1-.227-.444c-.041-.109-.083-.217-.096-.333-.019-.162-.05-.323-.055-.486a5.233 5.233 0 0 1 0-.433c.008-.172.01-.344-.002-.516a3.54 3.54 0 0 1-.001-.415Zm2.316.938 2.196-.001H9.236h2.203Z" fill="#00CE4C"/><path d="m11.526 17.508 2.109.001c.055 0 .08-.012.077-.073-.005-.09 0-.181-.002-.271 0-.065-.019-.079-.08-.067a.342.342 0 0 1-.062.005H9.301c-.021 0-.044.002-.063-.004-.063-.023-.073.014-.074.063 0 .094.002.189 0 .283-.001.05.019.064.067.064l1.32-.001h.975ZM11.439 18.023l-2.203-.001c-.05 0-.074.012-.072.066.003.09 0 .181.001.271 0 .049.009.088.077.071.035-.008.075-.002.112-.002 1.427 0 2.854 0 4.28.002.057 0 .08-.016.077-.075a2.586 2.586 0 0 1 0-.259c.004-.059-.019-.075-.076-.075-.732.002-1.464.002-2.196.002ZM10.65 19.36c.406 0 .81.004 1.216-.003.126-.003.254-.007.38-.005.32.005.64.006.96.008h.245c.055.002.083-.023.097-.077a1.16 1.16 0 0 1 .06-.175.39.39 0 0 0 .024-.077c.016-.077-.003-.094-.08-.08a.394.394 0 0 1-.07.003H9.38a.38.38 0 0 1-.094-.01c-.042-.01-.067.007-.058.052.022.122.063.238.12.347.014.026.042.017.064.017h1.24Z" fill="#727484"/></g><defs><clipPath id="a"><path fill="#fff" transform="matrix(-1 0 0 1 18 3)" d="M0 0h13.13v18H0z"/></clipPath></defs></svg>