<svg width="932" height="1013" viewBox="0 0 932 1013" fill="none" xmlns="http://www.w3.org/2000/svg">
<path d="M79.16 548.116C79.16 548.116 149.986 643.503 262.465 648.665L252.05 689.643C252.05 689.643 148.862 702.631 126.691 751.12L135.774 667.372L56.2479 718.259L94.8454 630.665L0 682.117L79.16 548.116Z" fill="#574040"/>
<path d="M732.637 548.116C732.637 548.116 661.811 643.503 549.332 648.665L559.747 689.643C559.747 689.643 662.935 702.631 685.106 751.12L676.023 667.372L755.549 718.259L716.952 630.665L811.797 682.117L732.637 548.116Z" fill="#574040"/>
<path d="M311.153 226.763C311.153 226.763 139.953 249.076 139.953 100.88C139.953 100.88 72.882 198.082 175.162 262.722C247.079 308.171 311.153 308.129 311.153 308.129V226.772V226.763Z" fill="#574040"/>
<path d="M500.643 226.763C500.643 226.763 671.842 249.076 671.842 100.88C671.842 100.88 738.913 198.082 636.633 262.722C564.717 308.171 500.643 308.129 500.643 308.129V226.772V226.763Z" fill="#574040"/>
<path d="M360.516 954.222C360.516 954.222 397.14 924.342 439.451 954.222L478.981 845.881L438.127 712.971L368.409 708.067L315.574 838.255L360.516 954.214V954.222Z" fill="#FFB0B0"/>
<path d="M562.902 960.625C642.953 968.559 643.144 954.039 646.267 947.004C649.397 939.969 628.558 929.062 628.558 929.062C663.942 910.363 677.629 889.466 677.629 847.987C677.629 806.509 636.551 775.013 630.248 773.515C623.946 772.016 624.104 764.715 624.104 764.715C620.099 689.634 558.173 638.931 558.173 638.931C626.077 605.537 701.64 556.974 701.64 459.831C701.64 362.687 571.311 293.485 571.311 293.485C537.884 219.379 497.829 169.083 454.919 169.083C412.009 169.083 410.493 208.497 407.113 219.12C406.53 220.944 405.889 220.902 405.889 220.902C405.889 220.902 405.248 220.944 404.666 219.12C401.285 208.497 399.762 169.083 356.86 169.083C313.958 169.083 273.895 219.379 240.468 293.485C240.468 293.485 110.139 362.687 110.139 459.831C110.139 556.974 185.702 605.529 253.606 638.931C253.606 638.931 191.68 689.634 187.675 764.715C187.675 764.715 187.833 772.008 181.531 773.515C175.228 775.013 134.15 806.509 134.15 847.987C134.15 889.466 147.837 910.371 183.221 929.062C183.221 929.062 162.39 939.969 165.512 947.004C168.643 954.039 168.826 968.559 248.877 960.625C248.877 960.625 251.732 959.709 251.641 963.347C251.541 966.977 249.41 978.924 266.211 987.674C283.012 996.425 325.797 995.559 366.409 954.23C366.409 954.23 375.118 945.913 367.691 935.839C360.265 925.765 343.764 888.125 347.127 827.515C350.491 766.904 375.901 717.084 405.873 717.084C435.845 717.084 461.255 766.904 464.618 827.515C467.982 888.125 451.481 925.765 444.054 935.839C436.628 945.913 445.336 954.23 445.336 954.23" fill="#DD5050"/>
<path d="M328.327 251.548C313.615 237.961 318.702 216.139 336.319 208.563C347.151 203.909 357.666 210.328 361.812 220.235C366.433 231.3 362.595 243.739 353.162 251.265C347.301 255.944 336.286 257.476 328.327 251.54V251.548Z" fill="#040C06"/>
<path d="M346.552 231.409C342.139 228.228 341.356 223.433 344.412 219.511C346.976 216.231 351.547 215.782 354.944 218.462C358.682 221.418 359.59 227.629 356.784 230.993C354.661 233.54 351.505 233.698 346.552 231.4V231.409Z" fill="#FEFFFE"/>
<path d="M476.148 216.473C479.969 223.616 481.934 230.801 478.462 238.444C474.716 246.695 467.955 250.966 459.172 251.607C449.989 252.281 442.704 248.526 438.333 240.251C435.336 234.573 435.469 228.445 436.593 222.176C437.717 215.898 440.614 210.994 445.959 207.589C451.262 204.209 456.916 203.451 462.735 206.074C467.939 208.422 472.867 211.228 476.148 216.473Z" fill="#040C06"/>
<path d="M470.364 227.13C466.776 230.568 463.578 230.943 460.215 228.487C457.068 226.18 455.969 221.626 457.651 217.863C459.224 214.35 462.255 212.926 466.126 213.883C471.296 215.157 473.303 221.168 470.364 227.13Z" fill="#FEFFFE"/>
<path d="M333.931 309.045L334.838 366.159L368.973 319.394L333.931 309.045Z" fill="white"/>
<path d="M480.628 307.78L479.712 364.885L445.577 318.128L480.628 307.78Z" fill="white"/>
<path d="M460.688 305.066C467.606 303.301 473.151 299.646 478.804 296.157C481.36 294.584 484.532 292.228 487.146 295.25C489.677 298.172 487.946 301.561 485.656 304C477.713 312.475 467.648 316.946 456.258 318.062C441.922 319.469 428.326 316.322 415.479 309.928C413.29 308.837 411.55 308.979 409.418 310.119C393.933 318.437 377.423 323.24 359.789 322.566C347.401 322.092 336.245 317.704 327.636 308.296C324.805 305.199 322.258 301.819 323.931 297.09C324.672 295 325.838 293.593 328.194 293.485C330.55 293.368 333.206 293.102 334.33 295.649C339.283 306.897 349.632 309.453 359.923 309.928C376.599 310.702 392.75 307.305 407.487 298.88C410.459 297.181 413.29 297.173 416.304 298.597C427.485 303.892 439.224 306.697 451.654 306.506C454.626 306.464 457.49 305.965 460.688 305.066Z" fill="#001D08"/>
<path d="M565.377 997.623L759.614 394.308L670.654 280.497L773.342 112.469L722.931 272.746L773.342 347.709L759.614 394.308" stroke="#574040" stroke-width="30" stroke-miterlimit="10" stroke-linecap="round"/>
<path d="M759.934 394.308L670.975 280.497L773.654 112.47L723.243 272.746L773.654 347.71L759.934 394.308Z" fill="#574040"/>
<path d="M565.372 997.625L756.27 393.244L894.692 351.949L908.238 155.489L856.552 315.358L772.055 347.303L756.27 393.244" stroke="#574040" stroke-width="30" stroke-miterlimit="10" stroke-linecap="round"/>
<path d="M756.012 393.061L894.433 351.757L907.979 155.306L856.294 315.175L771.789 347.12L756.012 393.061Z" fill="#574040"/>
<path d="M880.654 16.0596L756.012 331.825L800.878 345.313L880.654 16.0596Z" fill="#574040"/>
<path d="M601.487 684.673C601.487 684.673 625.199 635.452 673.438 640.464C721.676 645.476 714.882 710.799 714.882 710.799C714.882 710.799 708.846 774.69 652.665 788.052C596.484 801.415 601.487 684.673 601.487 684.673Z" fill="#DD5050"/>
<path d="M670.649 677.796C670.649 677.796 612.711 680.219 564.856 635.452C517.008 590.694 539.987 738.989 539.987 738.989L608.948 764.899L670.649 677.796Z" fill="#DD5050"/>
<path d="M329.894 650.638C329.894 650.638 401.361 663.459 481.911 650.638C481.911 650.638 448.384 675.673 407.472 675.673C366.56 675.673 329.894 650.638 329.894 650.638Z" fill="#B23D3D"/>
</svg>
