<svg width="341" height="366" viewBox="0 0 341 366" fill="none" xmlns="http://www.w3.org/2000/svg">
<path d="M29.0969 195.57C29.0969 195.57 55.1305 230.631 96.4746 232.529L92.6462 247.591C92.6462 247.591 54.7174 252.365 46.5679 270.188L49.9067 239.405L20.6751 258.109L34.8625 225.912L0 244.825L29.0969 195.57Z" fill="black"/>
<path d="M269.297 195.57C269.297 195.57 243.263 230.631 201.919 232.529L205.747 247.591C205.747 247.591 243.676 252.365 251.826 270.188L248.487 239.405L277.718 258.109L263.531 225.912L298.394 244.825L269.297 195.57Z" fill="black"/>
<path d="M114.371 77.4509C114.371 77.4509 51.4434 85.6524 51.4434 31.1798C51.4434 31.1798 26.7899 66.9083 64.3852 90.6682C90.8197 107.374 114.371 107.359 114.371 107.359V77.4539V77.4509Z" fill="black"/>
<path d="M184.023 77.4509C184.023 77.4509 246.951 85.6524 246.951 31.1798C246.951 31.1798 271.605 66.9083 234.01 90.6682C207.575 107.374 184.023 107.359 184.023 107.359V77.4539V77.4509Z" fill="black"/>
<path d="M132.515 344.843C132.515 344.843 145.977 333.86 161.53 344.843L176.06 305.02L161.043 256.166L135.416 254.363L115.996 302.216L132.515 344.84V344.843Z" fill="#FFB0B0"/>
<path d="M206.907 347.196C236.332 350.113 236.402 344.776 237.55 342.19C238.7 339.604 231.04 335.595 231.04 335.595C244.047 328.721 249.078 321.04 249.078 305.794C249.078 290.548 233.978 278.971 231.662 278.42C229.345 277.869 229.403 275.185 229.403 275.185C227.931 247.588 205.169 228.951 205.169 228.951C230.128 216.676 257.903 198.826 257.903 163.119C257.903 127.412 209.998 101.975 209.998 101.975C197.711 74.7354 182.988 56.2484 167.216 56.2484C151.443 56.2484 150.886 70.7357 149.644 74.6405C149.43 75.3107 149.194 75.2954 149.194 75.2954C149.194 75.2954 148.958 75.3107 148.744 74.6405C147.502 70.7357 146.942 56.2484 131.172 56.2484C115.403 56.2484 100.677 74.7354 88.3896 101.975C88.3896 101.975 40.4844 127.412 40.4844 163.119C40.4844 198.826 68.2593 216.673 93.2187 228.951C93.2187 228.951 70.4565 247.588 68.9845 275.185C68.9845 275.185 69.0427 277.866 66.7261 278.42C64.4095 278.971 49.3101 290.548 49.3101 305.794C49.3101 321.04 54.3412 328.724 67.3473 335.595C67.3473 335.595 59.6905 339.604 60.8381 342.19C61.9888 344.776 62.0561 350.113 91.4805 347.196C91.4805 347.196 92.5302 346.86 92.4965 348.197C92.4598 349.531 91.6763 353.923 97.8519 357.139C104.028 360.355 119.754 360.037 134.682 344.846C134.682 344.846 137.883 341.789 135.153 338.086C132.424 334.383 126.358 320.547 127.595 298.269C128.831 275.99 138.171 257.678 149.188 257.678C160.205 257.678 169.545 275.99 170.781 298.269C172.017 320.547 165.952 334.383 163.222 338.086C160.492 341.789 163.693 344.846 163.693 344.846" fill="#DD5050"/>
<path d="M120.683 86.5615C115.275 81.5671 117.145 73.5462 123.62 70.7614C127.602 69.0507 131.467 71.4101 132.991 75.0519C134.689 79.1189 133.279 83.691 129.811 86.4575C127.657 88.1773 123.608 88.7404 120.683 86.5584V86.5615Z" fill="#040C06"/>
<path d="M127.381 79.1589C125.759 77.9898 125.471 76.2271 126.594 74.7857C127.537 73.58 129.217 73.4147 130.466 74.4001C131.84 75.4865 132.173 77.7695 131.142 79.0058C130.362 79.9423 129.202 80.0004 127.381 79.1558V79.1589Z" fill="#FEFFFE"/>
<path d="M175.017 73.6687C176.422 76.2944 177.144 78.9354 175.868 81.7447C174.491 84.7774 172.006 86.3473 168.777 86.583C165.402 86.8309 162.724 85.4507 161.117 82.4088C160.016 80.3217 160.065 78.0694 160.478 75.765C160.891 73.4575 161.956 71.655 163.92 70.4034C165.87 69.1609 167.948 68.8824 170.087 69.8464C172 70.7094 173.811 71.7408 175.017 73.6687Z" fill="#040C06"/>
<path d="M172.891 77.5859C171.572 78.8498 170.397 78.9875 169.161 78.0847C168.004 77.237 167.6 75.5631 168.218 74.1798C168.796 72.8884 169.91 72.3651 171.333 72.717C173.234 73.1852 173.971 75.3947 172.891 77.5859Z" fill="#FEFFFE"/>
<path d="M122.743 107.695L123.077 128.688L135.624 111.499L122.743 107.695Z" fill="white"/>
<path d="M176.665 107.23L176.328 128.22L163.781 111.034L176.665 107.23Z" fill="white"/>
<path d="M169.336 106.232C171.879 105.583 173.917 104.24 175.995 102.958C176.935 102.379 178.101 101.513 179.061 102.624C179.992 103.698 179.355 104.944 178.514 105.841C175.594 108.956 171.894 110.599 167.708 111.009C162.438 111.527 157.441 110.37 152.719 108.019C151.914 107.619 151.274 107.671 150.491 108.09C144.799 111.147 138.73 112.913 132.249 112.665C127.695 112.49 123.594 110.878 120.43 107.42C119.389 106.281 118.453 105.039 119.068 103.301C119.341 102.532 119.769 102.015 120.635 101.975C121.501 101.933 122.477 101.835 122.89 102.771C124.711 106.906 128.515 107.845 132.298 108.019C138.427 108.304 144.364 107.055 149.781 103.959C150.873 103.334 151.914 103.331 153.022 103.854C157.132 105.801 161.447 106.832 166.016 106.762C167.108 106.746 168.161 106.563 169.336 106.232Z" fill="#001D08"/>
<path fill-rule="evenodd" clip-rule="evenodd" d="M299.877 1.07767L270.769 93.6226L289.27 121.135L284.281 138.068L284.326 138.125L283.585 140.427C283.582 140.438 283.578 140.449 283.575 140.459L212.185 362.203C211.408 364.616 208.822 365.943 206.408 365.166C203.995 364.389 202.669 361.803 203.446 359.389L274.096 139.944L240.937 97.5215L299.877 1.07767ZM277.331 129.175L279.245 122.678L260.686 95.0809L268.638 69.7999L252.088 96.8803L277.331 129.175Z" fill="black"/>
<path d="M279.333 139.034L246.634 97.2006L284.376 35.4385L265.846 94.3514L284.376 121.906L279.333 139.034Z" fill="black"/>
<path fill-rule="evenodd" clip-rule="evenodd" d="M341.001 14.1926L333.226 126.952L281.63 142.345L212.194 362.178C211.431 364.595 208.852 365.936 206.435 365.172C204.017 364.409 202.676 361.83 203.44 359.413L273.603 137.277C273.606 137.266 273.61 137.256 273.613 137.246L274.342 134.939L274.412 134.918L280.148 118.224L311.158 106.5L341.001 14.1926ZM285.228 131.691L287.429 125.286L318.535 113.526L326.688 88.3077L324.505 119.974L285.228 131.691Z" fill="black"/>
<path d="M277.892 138.574L328.771 123.392L333.75 51.1822L314.752 109.945L283.691 121.687L277.892 138.574Z" fill="black"/>
<path d="M323.707 0L277.892 116.066L294.383 121.024L323.707 0Z" fill="black"/>
<path d="M221.092 245.764C221.092 245.764 229.808 227.672 247.539 229.514C265.27 231.356 262.773 255.367 262.773 255.367C262.773 255.367 260.554 278.851 239.903 283.763C219.253 288.675 221.092 245.764 221.092 245.764Z" fill="#DD5050"/>
<path d="M246.514 243.236C246.514 243.236 225.218 244.127 207.627 227.672C190.04 211.22 198.486 265.729 198.486 265.729L223.834 275.252L246.514 243.236Z" fill="#DD5050"/>
<path d="M121.26 233.254C121.26 233.254 147.529 237.967 177.137 233.254C177.137 233.254 164.813 242.456 149.775 242.456C134.737 242.456 121.26 233.254 121.26 233.254Z" fill="#B23D3D"/>
</svg>
