<svg width="289" height="334" viewBox="0 0 289 334" fill="none" xmlns="http://www.w3.org/2000/svg">
<path d="M23.7568 316.989C23.7568 316.989 40.2734 291.684 62.7346 308.95C85.1927 326.216 229.591 302.922 229.591 302.922L258.87 316.993C258.87 316.993 269.661 288.658 288.997 308.796L275.106 251.818L23.7568 232.037V316.989Z" fill="#8B0F18"/>
<path d="M23.7568 206.281C23.7568 206.281 34.6589 195.29 60.0261 204.347C85.3901 213.407 70.1723 219.565 70.1723 219.565L23.7568 206.278V206.281Z" fill="black"/>
<path d="M285.227 245.703C285.227 245.703 290.638 229.27 210.301 212.821L211.856 227.175L285.227 245.703Z" fill="black"/>
<path d="M277.548 262.541C277.548 262.541 280.025 309.493 270.94 316.989C270.94 316.989 283.928 303.839 288.999 308.793L285.23 245.7L277.551 262.538L277.548 262.541Z" fill="black"/>
<path d="M16.7788 227.814C16.7788 227.814 12.5155 280.248 0 289.188C0 289.188 20.5578 291.869 23.2417 314.216C25.9256 336.563 26.817 216.588 26.817 216.588L16.7788 227.814Z" fill="black"/>
<path d="M107.682 197.47C107.682 197.47 71.3602 212.938 46.2182 201.931C21.0763 190.924 17.3466 218.102 17.3466 218.102C17.3466 218.102 11.1121 236.075 38.9842 244.45C66.8532 252.826 107.503 247.186 107.503 247.186L107.685 197.473L107.682 197.47Z" fill="#B2C9D8"/>
<path d="M207.692 211.571C207.692 211.571 238.322 236.479 265.524 232.854C292.727 229.229 288.8 256.376 288.8 256.376C288.8 256.376 289.821 275.37 260.721 275.712C231.621 276.055 194.118 259.396 194.118 259.396L207.689 211.571H207.692Z" fill="#B2C9D8"/>
<path d="M23.7568 158.095C23.7568 158.095 151.472 70.9375 285.227 158.095C285.227 158.095 263.654 228.305 200.661 214.586C137.667 200.868 108.326 216.363 108.326 216.363C108.326 216.363 34.1129 223.461 23.7599 158.095H23.7568Z" fill="#8B0F18"/>
<path d="M224.371 3.9209L205.513 12.5648L197.227 1.69052L185.15 10.4702L176.651 2.43399L169.275 8.89994L162.065 0L154.878 9.94572L153.875 11.226L152.873 9.94572L145.688 0L138.475 8.89994L130.791 2.68385L122.6 10.4702L108.974 0L102.237 12.5648L83.3789 5.90451V88.3485V95.2803L100.229 99.1735L153.875 62.42L207.522 99.1735L224.371 95.2803V88.3485V3.9209Z" fill="black"/>
<path d="M139.25 329.646C139.25 329.646 152.82 318.575 168.498 329.646L183.145 289.503L168.007 240.255L142.174 238.438L122.598 286.677L139.25 329.643V329.646Z" fill="#DCEBF4"/>
<path d="M139.25 329.647C139.25 329.647 142.477 326.565 139.725 322.832C136.973 319.099 130.859 305.152 132.105 282.694C133.352 260.236 142.767 241.776 153.872 241.776C164.978 241.776 174.393 260.236 175.639 282.694C176.886 305.152 170.772 319.099 168.02 322.832C165.268 326.565 168.495 329.647 168.495 329.647C188.652 331.223 183.944 330.603 193.078 331.124C207.439 331.942 203.24 331.615 210.101 332.207C212.695 332.432 214.651 332.463 214.651 332.463C244.312 335.403 241.774 329.582 242.934 326.975C244.093 324.368 236.372 320.327 236.372 320.327C249.483 313.398 254.554 305.655 254.554 290.286C254.554 274.917 239.334 263.247 236.998 262.692C234.663 262.137 234.722 259.431 234.722 259.431C233.238 231.611 210.292 212.824 210.292 212.824C235.453 200.451 263.451 182.457 263.451 146.462C263.451 110.467 215.16 84.8256 215.16 84.8256C202.774 57.3668 187.933 38.731 172.033 38.731C156.134 38.731 155.572 53.3348 154.32 57.2712C154.104 57.9468 153.866 57.9314 153.866 57.9314C153.866 57.9314 153.629 57.9468 153.413 57.2712C152.16 53.3348 151.596 38.731 135.699 38.731C119.803 38.731 104.958 57.3668 92.5723 84.8256C92.5723 84.8256 44.2812 110.467 44.2812 146.462C44.2812 182.457 72.2799 200.448 97.4403 212.824C97.4403 212.824 74.4948 231.611 73.0109 259.431C73.0109 259.431 73.0696 262.133 70.7343 262.692C68.399 263.247 53.1781 274.917 53.1781 290.286C53.1781 305.655 58.2497 313.402 71.3605 320.327C71.3605 320.327 63.6421 324.368 64.7989 326.975C65.9589 329.582 66.0267 334.962 95.688 332.022" fill="#B2C9D8"/>
<path d="M127.324 69.2837C121.873 64.2491 123.758 56.1636 130.286 53.3563C134.299 51.6318 138.195 54.0103 139.732 57.6813C141.444 61.7812 140.022 66.39 136.526 69.1788C134.355 70.9125 130.273 71.4801 127.324 69.2806V69.2837Z" fill="#040C06"/>
<path d="M134.077 61.8213C132.442 60.6429 132.152 58.866 133.284 57.413C134.235 56.1976 135.928 56.031 137.187 57.0243C138.572 58.1195 138.908 60.4207 137.869 61.667C137.082 62.611 135.913 62.6696 134.077 61.8182V61.8213Z" fill="#FEFFFE"/>
<path d="M182.097 56.2868C183.513 58.9336 184.241 61.5959 182.955 64.4279C181.566 67.485 179.062 69.0675 175.807 69.305C172.404 69.5549 169.705 68.1637 168.086 65.0973C166.975 62.9934 167.024 60.7229 167.441 58.3999C167.857 56.0739 168.931 54.2569 170.911 52.9952C172.876 51.7427 174.971 51.462 177.127 52.4337C179.055 53.3037 180.882 54.3433 182.097 56.2868Z" fill="#040C06"/>
<path d="M179.952 60.2359C178.623 61.51 177.438 61.6488 176.192 60.7387C175.026 59.8842 174.619 58.1968 175.242 56.8024C175.825 55.5006 176.948 54.9731 178.382 55.3279C180.298 55.7998 181.041 58.0271 179.952 60.2359Z" fill="#FEFFFE"/>
<path d="M124.131 88.3485C124.131 88.3485 142.902 86.1243 153.644 86.1243C164.386 86.1243 183.623 88.3485 183.623 88.3485C183.623 88.3485 176.423 116.924 153.878 116.924C131.334 116.924 124.134 88.3485 124.134 88.3485H124.131Z" fill="#E26969"/>
<path d="M83.3789 89.663L91.9888 123.464L92.5812 83.9899L83.3789 89.663Z" fill="black"/>
<path d="M224.371 89.663L215.761 123.464L215.169 83.9899L224.371 89.663Z" fill="black"/>
<path d="M23.7568 158.095C23.7568 158.095 144.522 302.731 285.227 158.095C285.227 158.095 261.52 230.726 199.041 214.586C136.621 198.458 106.707 216.363 106.707 216.363C106.707 216.363 34.1129 223.461 23.7568 158.095Z" fill="black"/>
<path d="M129.548 87.7564L134.561 97.8966L138.476 86.9174L129.548 87.7564Z" fill="white"/>
<path d="M177.702 87.7564L172.689 97.8966L168.774 86.9174L177.702 87.7564Z" fill="white"/>
</svg>
