<svg width="812" height="937" viewBox="0 0 812 937" fill="none" xmlns="http://www.w3.org/2000/svg">
<path d="M66.748 891.266C66.748 891.266 113.155 820.192 176.264 868.687C239.364 917.182 645.078 851.756 645.078 851.756L727.343 891.275C727.343 891.275 757.662 811.692 811.99 868.253L772.96 708.221L66.748 652.664V891.266Z" fill="#8B0F18"/>
<path d="M66.748 580.325C66.748 580.325 97.3795 549.453 168.653 574.892C239.919 600.34 197.161 617.634 197.161 617.634L66.748 580.316V580.325Z" fill="black"/>
<path d="M801.4 691.048C801.4 691.048 816.603 644.892 590.881 598.693L595.249 639.009L801.4 691.048Z" fill="#3C3948"/>
<path d="M779.826 738.338C779.826 738.338 786.786 870.212 761.26 891.266C761.26 891.266 797.751 854.33 812 868.245L801.408 691.039L779.835 738.33L779.826 738.338Z" fill="#3C3948"/>
<path d="M47.1433 640.802C47.1433 640.802 35.1646 788.072 0 813.182C0 813.182 57.7611 820.711 65.302 883.477C72.8428 946.242 75.3476 609.272 75.3476 609.272L47.1433 640.802Z" fill="#3C3948"/>
<path d="M302.552 555.579C302.552 555.579 200.5 599.023 129.858 568.108C59.2172 537.193 48.738 613.527 48.738 613.527C48.738 613.527 31.2208 664.006 109.533 687.53C187.836 711.054 302.05 695.216 302.05 695.216L302.561 555.588L302.552 555.579Z" fill="#B2C9D8"/>
<path d="M583.548 595.185C583.548 595.185 669.608 665.141 746.039 654.961C822.471 644.78 811.437 721.027 811.437 721.027C811.437 721.027 814.306 774.374 732.544 775.336C650.782 776.298 545.41 729.51 545.41 729.51L583.539 595.185H583.548Z" fill="#B2C9D8"/>
<path d="M66.748 444.985C66.748 444.985 425.588 200.188 801.399 444.985C801.399 444.985 740.786 642.18 563.793 603.649C386.8 565.118 304.362 608.64 304.362 608.64C304.362 608.64 95.8453 628.577 66.7567 444.985H66.748Z" fill="#8B0F18"/>
<path d="M630.414 11.9617L577.429 36.2396L554.147 5.69733L520.213 30.3565L496.334 7.78549L475.61 25.9462L455.354 0.949219L435.158 28.8834L432.341 32.4792L429.524 28.8834L409.337 0.949219L389.072 25.9462L367.481 8.48726L344.469 30.3565L306.184 0.949219L287.254 36.2396L234.269 17.533V249.091V268.56L281.611 279.494L432.341 176.266L583.071 279.494L630.414 268.56V249.091V11.9617Z" fill="#3C3948"/>
<path d="M391.246 926.817C391.246 926.817 429.375 895.72 473.424 926.817L514.578 814.066L472.046 675.747L399.463 670.643L344.458 806.129L391.246 926.808V926.817Z" fill="#DCEBF4"/>
<path d="M391.247 926.817C391.247 926.817 400.313 918.161 392.582 907.677C384.85 897.193 367.671 858.021 371.173 794.943C374.675 731.866 401.128 680.018 432.331 680.018C463.535 680.018 489.988 731.866 493.49 794.943C496.992 858.021 479.813 897.193 472.081 907.677C464.35 918.161 473.416 926.817 473.416 926.817C530.05 931.244 516.824 929.503 542.488 930.967C582.836 933.263 571.039 932.344 590.316 934.008C597.606 934.641 603.101 934.727 603.101 934.727C686.44 942.984 679.307 926.634 682.566 919.313C685.825 911.991 664.13 900.641 664.13 900.641C700.967 881.181 715.217 859.433 715.217 816.267C715.217 773.1 672.451 740.323 665.89 738.763C659.328 737.203 659.492 729.605 659.492 729.605C655.323 651.468 590.854 598.702 590.854 598.702C661.547 563.949 740.214 513.409 740.214 412.312C740.214 311.215 604.531 239.196 604.531 239.196C569.731 162.073 528.031 109.731 483.358 109.731C438.685 109.731 437.107 150.749 433.588 161.805C432.982 163.702 432.314 163.659 432.314 163.659C432.314 163.659 431.647 163.702 431.04 161.805C427.521 150.749 425.935 109.731 381.271 109.731C336.606 109.731 294.898 162.073 260.097 239.196C260.097 239.196 124.414 311.215 124.414 412.312C124.414 513.409 203.081 563.94 273.775 598.702C273.775 598.702 209.305 651.468 205.136 729.605C205.136 729.605 205.3 737.195 198.739 738.763C192.178 740.323 149.412 773.1 149.412 816.267C149.412 859.433 163.661 881.189 200.499 900.641C200.499 900.641 178.812 911.991 182.062 919.313C185.321 926.634 185.512 941.745 268.851 933.488" fill="#B2C9D8"/>
<path d="M357.737 195.545C342.422 181.405 347.717 158.695 366.058 150.81C377.334 145.967 388.282 152.647 392.598 162.958C397.409 174.473 393.413 187.418 383.592 195.251C377.49 200.12 366.024 201.714 357.737 195.537V195.545Z" fill="#040C06"/>
<path d="M376.711 174.586C372.117 171.276 371.303 166.286 374.484 162.205C377.153 158.791 381.912 158.323 385.448 161.113C389.34 164.189 390.285 170.652 387.364 174.153C385.153 176.804 381.868 176.969 376.711 174.577V174.586Z" fill="#FEFFFE"/>
<path d="M511.632 159.042C515.61 166.476 517.656 173.953 514.041 181.907C510.141 190.494 503.103 194.938 493.958 195.606C484.398 196.307 476.814 192.4 472.264 183.787C469.143 177.878 469.282 171.501 470.452 164.977C471.622 158.444 474.639 153.341 480.203 149.797C485.724 146.279 491.61 145.49 497.668 148.22C503.086 150.663 508.217 153.583 511.632 159.042Z" fill="#040C06"/>
<path d="M505.606 170.132C501.87 173.711 498.542 174.101 495.04 171.544C491.764 169.144 490.619 164.405 492.37 160.489C494.009 156.832 497.164 155.351 501.194 156.347C506.577 157.673 508.665 163.929 505.606 170.132Z" fill="#FEFFFE"/>
<path d="M348.768 249.09C348.768 249.09 401.51 242.843 431.691 242.843C461.871 242.843 515.923 249.09 515.923 249.09C515.923 249.09 495.692 329.349 432.349 329.349C369.006 329.349 348.776 249.09 348.776 249.09H348.768Z" fill="#E26969"/>
<path d="M234.269 252.782L258.46 347.718L260.124 236.848L234.269 252.782Z" fill="#3C3948"/>
<path d="M630.413 252.782L606.222 347.718L604.558 236.848L630.413 252.782Z" fill="#3C3948"/>
<path d="M66.748 444.986C66.748 444.986 406.06 851.219 801.399 444.986C801.399 444.986 734.788 648.982 559.243 603.65C383.862 558.352 299.812 608.64 299.812 608.64C299.812 608.64 95.8453 628.577 66.748 444.986Z" fill="#3C3948"/>
<path d="M363.987 247.428L378.072 275.908L389.071 245.071L363.987 247.428Z" fill="white"/>
<path d="M499.289 247.428L485.204 275.908L474.205 245.071L499.289 247.428Z" fill="white"/>
</svg>
