<svg width="716" height="828" viewBox="0 0 716 828" fill="none" xmlns="http://www.w3.org/2000/svg">
<path d="M612.442 103.504H463.777V161.754H612.442V103.504Z" fill="#AFAFAF"/>
<path d="M472.9 94.729L490.137 172.285" stroke="#939393" stroke-width="8" stroke-miterlimit="10" stroke-linecap="round"/>
<path d="M497.446 94.729L514.683 172.285" stroke="#939393" stroke-width="8" stroke-miterlimit="10" stroke-linecap="round"/>
<path d="M520.873 94.729L538.118 172.285" stroke="#939393" stroke-width="8" stroke-miterlimit="10" stroke-linecap="round"/>
<path d="M545.327 94.729L562.572 172.285" stroke="#939393" stroke-width="8" stroke-miterlimit="10" stroke-linecap="round"/>
<path d="M569.276 94.729L586.513 172.285" stroke="#939393" stroke-width="8" stroke-miterlimit="10" stroke-linecap="round"/>
<path d="M593.217 94.729L610.453 172.285" stroke="#939393" stroke-width="8" stroke-miterlimit="10" stroke-linecap="round"/>
<path d="M715.181 31.8557H612.45V99.0378H715.181V31.8557Z" fill="#D1D1D1"/>
<path d="M715.181 99.0378H612.45V166.22H715.181V99.0378Z" fill="#AFAFAF"/>
<path d="M715.181 166.22H612.45V233.402H715.181V166.22Z" fill="#8E8E8E"/>
<path d="M102.732 161.754L251.396 161.754V103.504L102.732 103.504V161.754Z" fill="#AFAFAF"/>
<path d="M242.28 94.7292L225.035 172.285" stroke="#939393" stroke-width="8" stroke-miterlimit="10" stroke-linecap="round"/>
<path d="M217.726 94.7292L200.489 172.285" stroke="#939393" stroke-width="8" stroke-miterlimit="10" stroke-linecap="round"/>
<path d="M194.3 94.7292L177.063 172.285" stroke="#939393" stroke-width="8" stroke-miterlimit="10" stroke-linecap="round"/>
<path d="M169.846 94.7292L152.609 172.285" stroke="#939393" stroke-width="8" stroke-miterlimit="10" stroke-linecap="round"/>
<path d="M145.905 94.7292L128.669 172.285" stroke="#939393" stroke-width="8" stroke-miterlimit="10" stroke-linecap="round"/>
<path d="M121.965 94.7292L104.729 172.285" stroke="#939393" stroke-width="8" stroke-miterlimit="10" stroke-linecap="round"/>
<path d="M-0.000541687 99.0381L102.73 99.0381L102.73 31.856L-0.000541687 31.856L-0.000541687 99.0381Z" fill="#D1D1D1"/>
<path d="M-0.000541687 166.22H102.73L102.73 99.0381L-0.000541687 99.0381L-0.000541687 166.22Z" fill="#AFAFAF"/>
<path d="M-0.000541687 233.394H102.73L102.73 166.212H-0.000541687L-0.000541687 233.394Z" fill="#8E8E8E"/>
<path d="M318.304 790.281C318.304 790.281 354.758 760.543 396.871 790.281L436.216 682.456L395.553 550.18L326.16 545.3L273.572 674.867L318.304 790.272V790.281Z" fill="#CFD1A6"/>
<path d="M406.392 8.90356C363.682 8.90356 362.174 48.129 358.809 58.7018C358.229 60.5164 357.591 60.475 357.591 60.475C357.591 60.475 356.953 60.5164 356.373 58.7018C353.009 48.129 351.492 8.90356 308.791 8.90356C282.074 8.90356 256.46 28.4997 232.884 61.2291H482.299C458.723 28.4997 433.109 8.90356 406.392 8.90356Z" fill="#84894F"/>
<path d="M580.894 610.436C574.621 608.944 574.779 601.677 574.779 601.677C570.793 526.955 509.156 476.494 509.156 476.494C576.743 443.259 651.953 394.928 651.953 298.248C651.953 201.568 522.232 132.695 522.232 132.695C512.073 110.174 501.3 89.8653 490.014 72.5146H225.152C213.865 89.8653 203.093 110.174 192.933 132.695C192.933 132.695 63.2119 201.568 63.2119 298.248C63.2119 394.928 138.423 443.251 206.01 476.494C206.01 476.494 144.372 526.955 140.386 601.677C140.386 601.677 140.544 608.936 134.271 610.436C127.998 611.927 87.111 643.273 87.111 684.553C87.111 725.833 100.734 746.639 135.953 765.241C135.953 765.241 115.22 776.096 118.327 783.097C121.443 790.099 121.625 804.549 201.302 796.653C201.302 796.653 204.145 795.742 204.054 799.362C203.954 802.975 201.833 814.865 218.556 823.574C235.278 832.282 277.864 831.42 318.287 790.289C318.287 790.289 326.955 782.012 319.563 771.986C312.171 761.96 295.747 724.499 299.095 664.178C302.442 603.856 327.734 554.274 357.566 554.274C387.398 554.274 412.69 603.856 416.038 664.178C419.385 724.499 402.961 761.96 395.569 771.986C388.177 782.012 396.845 790.289 396.845 790.289C437.268 831.42 479.854 832.282 496.577 823.574C513.299 814.865 511.178 802.975 511.078 799.362C510.979 795.75 513.83 796.653 513.83 796.653C593.507 804.549 593.697 790.099 596.805 783.097C599.913 776.096 579.179 765.241 579.179 765.241C614.398 746.631 628.021 725.833 628.021 684.553C628.021 643.273 587.134 611.927 580.861 610.436H580.894Z" fill="#84894F"/>
<path d="M482.29 61.2207H232.875C230.273 64.8334 227.695 68.6034 225.151 72.5309H490.013C487.461 68.6116 484.892 64.8334 482.29 61.2207Z" fill="#686845"/>
<path d="M286.78 91.3405C286.432 91.1002 286.101 90.8266 285.794 90.5283C271.723 76.9808 276.861 55.6447 294.222 48.1874C305.003 43.5556 315.469 49.9441 319.596 59.8043C324.195 70.8163 320.375 83.1954 310.986 90.6859C305.276 95.2431 294.661 96.8009 286.78 91.3322V91.3405Z" fill="#040C06"/>
<path d="M305.642 71.4545C304.772 71.1065 303.951 70.6176 303.263 69.9796C299.899 66.8558 299.518 62.6134 302.277 59.0753C304.83 55.8107 309.379 55.3632 312.76 58.0313C316.481 60.9728 317.384 67.154 314.592 70.5015C312.661 72.8133 309.868 73.1448 305.642 71.4462V71.4545Z" fill="#FEFFFE"/>
<path d="M433.166 55.6945C433.324 55.9265 433.464 56.175 433.597 56.4236C437.268 63.4086 439.091 70.4433 435.702 77.9172C431.973 86.1285 425.244 90.3792 416.502 91.0173C407.361 91.6884 400.11 87.9516 395.76 79.7154C392.777 74.0644 392.909 67.9659 394.028 61.7266C395.146 55.479 398.03 50.5986 403.35 47.2097C408.629 43.8456 414.256 43.0917 420.048 45.7017C425.111 47.9803 429.909 50.6981 433.166 55.6945Z" fill="#040C06"/>
<path d="M428.89 62.6629C428.508 65.4635 426.776 67.9824 424.174 69.0762C421.929 70.0208 419.766 69.6479 417.528 68.0073C414.396 65.7121 413.302 61.1797 414.976 57.4344C416.542 53.9378 419.559 52.521 423.412 53.4739C427.381 54.4516 429.486 58.2465 428.881 62.6546L428.89 62.6629Z" fill="#FEFFFE"/>
<path d="M413.965 0.974121C364.626 0.974121 362.885 46.1322 358.991 58.3125C358.328 60.4006 357.59 60.3508 357.59 60.3508C357.59 60.3508 356.853 60.3923 356.19 58.3125C352.303 46.1405 350.555 0.974121 301.215 0.974121C274.267 0.974121 248.296 18.1673 224.016 47.6071C219.541 53.0344 223.353 61.2126 230.38 61.2126H484.792C491.828 61.2126 495.639 53.0261 491.156 47.6071C466.876 18.1673 440.905 0.974121 413.957 0.974121H413.965Z" fill="#84894F"/>
<path d="M393.381 140.235C397.898 139.083 401.519 136.689 405.215 134.419C406.88 133.391 408.96 131.85 410.668 133.822C412.325 135.728 411.189 137.948 409.698 139.539C404.51 145.074 397.931 147.991 390.489 148.728C381.125 149.648 372.242 147.593 363.847 143.417C362.422 142.704 361.278 142.796 359.886 143.541C349.768 148.977 338.987 152.117 327.46 151.678C319.364 151.372 312.08 148.505 306.453 142.356C304.605 140.335 302.939 138.123 304.033 135.04C304.514 133.673 305.285 132.753 306.818 132.687C308.359 132.612 310.091 132.438 310.829 134.104C314.069 141.453 320.831 143.119 327.551 143.434C338.44 143.939 348.997 141.719 358.627 136.217C360.566 135.106 362.414 135.098 364.386 136.034C371.695 139.498 379.36 141.321 387.481 141.197C389.42 141.163 391.293 140.848 393.381 140.26V140.235Z" fill="#001D08"/>
<path d="M395.594 771.53C402.986 761.504 419.41 724.043 416.062 663.722C412.714 603.401 387.423 553.818 357.591 553.818C327.758 553.818 302.467 603.401 299.119 663.722C295.771 724.043 312.196 761.504 319.588 771.53C326.979 781.556 318.312 789.834 318.312 789.834C318.312 789.834 354.765 760.095 396.878 789.834C396.878 789.834 388.21 781.556 395.602 771.53H395.594Z" fill="#CFD1A6"/>
<mask id="mask0_1916_24966" style="mask-type:luminance" maskUnits="userSpaceOnUse" x="298" y="553" width="119" height="237">
<path d="M395.594 771.53C402.986 761.504 419.41 724.043 416.062 663.722C412.714 603.401 387.423 553.818 357.591 553.818C327.758 553.818 302.467 603.401 299.119 663.722C295.771 724.043 312.196 761.504 319.588 771.53C326.979 781.556 318.312 789.834 318.312 789.834C318.312 789.834 354.765 760.095 396.878 789.834C396.878 789.834 388.21 781.556 395.602 771.53H395.594Z" fill="white"/>
</mask>
<g mask="url(#mask0_1916_24966)">
<path d="M666.305 724.433L89.2812 649.114" stroke="#AFAF87" stroke-width="5" stroke-miterlimit="10"/>
<path d="M369.308 662.587L361.386 707.712" stroke="#AFAF87" stroke-width="5" stroke-miterlimit="10"/>
</g>
<mask id="mask1_1916_24966" style="mask-type:luminance" maskUnits="userSpaceOnUse" x="63" y="72" width="589" height="757">
<path d="M580.894 610.436C574.621 608.944 574.779 601.677 574.779 601.677C570.793 526.955 509.156 476.494 509.156 476.494C576.743 443.259 651.953 394.928 651.953 298.248C651.953 201.568 522.232 132.695 522.232 132.695C512.073 110.174 501.3 89.8653 490.014 72.5146H225.152C213.865 89.8653 203.093 110.174 192.933 132.695C192.933 132.695 63.2119 201.568 63.2119 298.248C63.2119 394.928 138.423 443.251 206.01 476.494C206.01 476.494 144.372 526.955 140.386 601.677C140.386 601.677 140.544 608.936 134.271 610.436C127.998 611.927 87.111 643.273 87.111 684.553C87.111 725.833 100.734 746.639 135.953 765.241C135.953 765.241 115.22 776.096 118.327 783.097C121.443 790.099 121.625 804.549 201.302 796.653C201.302 796.653 204.145 795.742 204.054 799.362C203.954 802.975 201.833 814.865 218.556 823.574C235.278 832.282 277.864 831.42 318.287 790.289C318.287 790.289 326.955 782.012 319.563 771.986C312.171 761.96 295.747 724.499 299.095 664.178C302.442 603.856 327.734 554.274 357.566 554.274C387.398 554.274 412.69 603.856 416.038 664.178C419.385 724.499 402.961 761.96 395.569 771.986C388.177 782.012 396.845 790.289 396.845 790.289C437.268 831.42 479.854 832.282 496.577 823.574C513.299 814.865 511.178 802.975 511.078 799.362C510.979 795.75 513.83 796.653 513.83 796.653C593.507 804.549 593.697 790.099 596.805 783.097C599.913 776.096 579.179 765.241 579.179 765.241C614.398 746.631 628.021 725.833 628.021 684.553C628.021 643.273 587.134 611.927 580.861 610.436H580.894Z" fill="white"/>
</mask>
<g mask="url(#mask1_1916_24966)">
<path d="M76.8271 395.897L653.86 320.578" stroke="#4B4C3B" stroke-width="5" stroke-miterlimit="10"/>
<path d="M126.258 363.167L134.188 408.292" stroke="#4B4C3B" stroke-width="5" stroke-miterlimit="10"/>
<path d="M206.283 354.749L214.205 399.866" stroke="#4B4C3B" stroke-width="5" stroke-miterlimit="10"/>
<path d="M288.819 345.146L296.742 390.271" stroke="#4B4C3B" stroke-width="5" stroke-miterlimit="10"/>
<path d="M373.833 334.051L381.755 379.176" stroke="#4B4C3B" stroke-width="5" stroke-miterlimit="10"/>
<path d="M456.99 323.197L464.912 368.322" stroke="#4B4C3B" stroke-width="5" stroke-miterlimit="10"/>
<path d="M540.538 312.292L548.46 357.417" stroke="#4B4C3B" stroke-width="5" stroke-miterlimit="10"/>
<path d="M625.659 301.181L633.581 346.298" stroke="#4B4C3B" stroke-width="5" stroke-miterlimit="10"/>
<path d="M666.305 724.433L89.2812 649.114" stroke="#4B4C3B" stroke-width="5" stroke-miterlimit="10"/>
<path d="M616.875 691.703L608.953 736.828" stroke="#4B4C3B" stroke-width="5" stroke-miterlimit="10"/>
<path d="M536.85 683.285L528.928 728.402" stroke="#4B4C3B" stroke-width="5" stroke-miterlimit="10"/>
<path d="M454.322 673.69L446.399 718.807" stroke="#4B4C3B" stroke-width="5" stroke-miterlimit="10"/>
<path d="M369.308 662.587L361.386 707.712" stroke="#4B4C3B" stroke-width="5" stroke-miterlimit="10"/>
<path d="M286.15 651.732L278.22 696.857" stroke="#4B4C3B" stroke-width="5" stroke-miterlimit="10"/>
<path d="M202.602 640.828L194.68 685.953" stroke="#4B4C3B" stroke-width="5" stroke-miterlimit="10"/>
<path d="M117.473 629.717L109.551 674.842" stroke="#4B4C3B" stroke-width="5" stroke-miterlimit="10"/>
</g>
<path d="M282.587 497.871C282.587 497.871 353.721 510.632 433.895 497.871C433.895 497.871 400.524 522.787 359.803 522.787C319.082 522.787 282.587 497.871 282.587 497.871Z" fill="#686845"/>
</svg>
