<svg width="262" height="303" viewBox="0 0 262 303" fill="none" xmlns="http://www.w3.org/2000/svg">
<path d="M223.702 37.4547H169.4V58.7334H223.702V37.4547Z" fill="#AFAFAF"/>
<path fill-rule="evenodd" clip-rule="evenodd" d="M172.471 33.067C173.124 32.9219 173.77 33.3335 173.915 33.9863L180.211 62.3175C180.356 62.9702 179.945 63.617 179.292 63.762C178.639 63.9071 177.992 63.4955 177.847 62.8427L171.552 34.5115C171.406 33.8588 171.818 33.212 172.471 33.067Z" fill="#939393"/>
<path fill-rule="evenodd" clip-rule="evenodd" d="M181.436 33.067C182.088 32.9219 182.735 33.3335 182.88 33.9863L189.176 62.3175C189.321 62.9702 188.91 63.617 188.257 63.762C187.604 63.9071 186.957 63.4955 186.812 62.8427L180.516 34.5115C180.371 33.8588 180.783 33.212 181.436 33.067Z" fill="#939393"/>
<path fill-rule="evenodd" clip-rule="evenodd" d="M189.993 33.067C190.646 32.9219 191.293 33.3334 191.438 33.9861L197.737 62.3173C197.882 62.9701 197.47 63.6169 196.818 63.762C196.165 63.9071 195.518 63.4956 195.373 62.8429L189.074 34.5117C188.929 33.8589 189.34 33.2121 189.993 33.067Z" fill="#939393"/>
<path fill-rule="evenodd" clip-rule="evenodd" d="M198.925 33.067C199.578 32.9219 200.224 33.3334 200.369 33.9861L206.668 62.3173C206.813 62.9701 206.402 63.6169 205.749 63.762C205.096 63.9071 204.45 63.4956 204.305 62.8429L198.006 34.5117C197.861 33.8589 198.272 33.2121 198.925 33.067Z" fill="#939393"/>
<path fill-rule="evenodd" clip-rule="evenodd" d="M207.673 33.067C208.326 32.9219 208.972 33.3335 209.118 33.9863L215.413 62.3175C215.558 62.9702 215.147 63.617 214.494 63.762C213.841 63.9071 213.195 63.4955 213.05 62.8427L206.754 34.5115C206.609 33.8588 207.02 33.212 207.673 33.067Z" fill="#939393"/>
<path fill-rule="evenodd" clip-rule="evenodd" d="M216.417 33.067C217.07 32.9219 217.717 33.3335 217.862 33.9863L224.157 62.3175C224.302 62.9702 223.891 63.617 223.238 63.762C222.585 63.9071 221.939 63.4955 221.794 62.8427L215.498 34.5115C215.353 33.8588 215.764 33.212 216.417 33.067Z" fill="#939393"/>
<path d="M261.229 11.2825H223.705V35.8241H261.229V11.2825Z" fill="#D1D1D1"/>
<path d="M261.229 35.8244H223.705V60.366H261.229V35.8244Z" fill="#AFAFAF"/>
<path d="M261.229 60.3662H223.705V84.9078H261.229V60.3662Z" fill="#8E8E8E"/>
<path d="M37.5237 58.7325L91.8252 58.7325V37.4538L37.5237 37.4538V58.7325Z" fill="#AFAFAF"/>
<path fill-rule="evenodd" clip-rule="evenodd" d="M88.7589 33.0668C89.4117 33.212 89.8232 33.8587 89.6781 34.5115L83.3792 62.8427C83.2341 63.4954 82.5873 63.9069 81.9346 63.7618C81.2818 63.6167 80.8703 62.9699 81.0154 62.3172L87.3143 33.9859C87.4594 33.3332 88.1062 32.9217 88.7589 33.0668Z" fill="#939393"/>
<path fill-rule="evenodd" clip-rule="evenodd" d="M79.789 33.0668C80.4418 33.2119 80.8533 33.8586 80.7083 34.5114L74.4124 62.8426C74.2674 63.4953 73.6206 63.9069 72.9679 63.7618C72.3151 63.6168 71.9036 62.97 72.0486 62.3173L78.3445 33.9861C78.4895 33.3333 79.1363 32.9218 79.789 33.0668Z" fill="#939393"/>
<path fill-rule="evenodd" clip-rule="evenodd" d="M71.2324 33.0668C71.8851 33.2119 72.2967 33.8586 72.1516 34.5114L65.8558 62.8426C65.7107 63.4953 65.064 63.9069 64.4112 63.7618C63.7585 63.6168 63.3469 62.97 63.492 62.3173L69.7878 33.9861C69.9329 33.3333 70.5796 32.9218 71.2324 33.0668Z" fill="#939393"/>
<path fill-rule="evenodd" clip-rule="evenodd" d="M62.2997 33.0668C62.9525 33.2119 63.3641 33.8586 63.219 34.5114L56.9232 62.8426C56.7781 63.4953 56.1314 63.9069 55.4786 63.7618C54.8259 63.6168 54.4143 62.97 54.5594 62.3173L60.8552 33.9861C61.0003 33.3333 61.647 32.9218 62.2997 33.0668Z" fill="#939393"/>
<path fill-rule="evenodd" clip-rule="evenodd" d="M53.5556 33.0668C54.2084 33.2119 54.6199 33.8586 54.4749 34.5114L48.179 62.8426C48.034 63.4953 47.3872 63.9069 46.7345 63.7618C46.0817 63.6168 45.6702 62.97 45.8152 62.3173L52.1111 33.9861C52.2561 33.3333 52.9029 32.9218 53.5556 33.0668Z" fill="#939393"/>
<path fill-rule="evenodd" clip-rule="evenodd" d="M44.8114 33.0668C45.4641 33.2119 45.8757 33.8586 45.7306 34.5114L39.4349 62.8426C39.2898 63.4953 38.6431 63.9069 37.9903 63.7618C37.3376 63.6168 36.926 62.97 37.0711 62.3173L43.3668 33.9861C43.5119 33.3333 44.1586 32.9218 44.8114 33.0668Z" fill="#939393"/>
<path d="M-0.000232697 35.8242L37.5234 35.8242V11.2826L-0.000232697 11.2826V35.8242Z" fill="#D1D1D1"/>
<path d="M-0.000232697 60.3652L37.5234 60.3652V35.8236H-0.000232697V60.3652Z" fill="#AFAFAF"/>
<path d="M-0.000232697 84.9044H37.5234V60.3628H-0.000232697V84.9044Z" fill="#8E8E8E"/>
<path d="M116.265 288.333C116.265 288.333 129.58 277.47 144.962 288.333L159.333 248.945L144.481 200.624L119.134 198.842L99.9258 246.172L116.265 288.33V288.333Z" fill="#CFD1A6"/>
<path d="M148.439 2.89673C132.839 2.89673 132.288 17.2258 131.059 21.088C130.847 21.7509 130.614 21.7357 130.614 21.7357C130.614 21.7357 130.381 21.7509 130.169 21.088C128.94 17.2258 128.387 2.89673 112.789 2.89673C103.031 2.89673 93.6748 10.0552 85.0635 22.0112H176.165C167.554 10.0552 158.198 2.89673 148.439 2.89673Z" fill="#84894F"/>
<path d="M212.178 222.636C209.887 222.091 209.945 219.437 209.945 219.437C208.489 192.141 185.975 173.707 185.975 173.707C210.662 161.566 238.133 143.911 238.133 108.594C238.133 73.2767 190.751 48.1177 190.751 48.1177C187.04 39.8907 183.106 32.4719 178.983 26.1337H82.2393C78.1167 32.4719 74.1819 39.8907 70.471 48.1177C70.471 48.1177 23.0889 73.2767 23.0889 108.594C23.0889 143.911 50.5604 161.563 75.2473 173.707C75.2473 173.707 52.7337 192.141 51.2778 219.437C51.2778 219.437 51.3353 222.088 49.044 222.636C46.7527 223.181 31.8183 234.631 31.8183 249.711C31.8183 264.791 36.7944 272.391 49.6584 279.186C49.6584 279.186 42.0853 283.151 43.2204 285.709C44.3584 288.267 44.425 293.546 73.528 290.661C73.528 290.661 74.5662 290.328 74.5329 291.651C74.4966 292.971 73.7218 297.314 79.8299 300.495C85.9381 303.676 101.493 303.362 116.258 288.336C116.258 288.336 119.424 285.313 116.724 281.65C114.024 277.988 108.025 264.303 109.248 242.268C110.471 220.233 119.708 202.12 130.605 202.12C141.502 202.12 150.74 220.233 151.962 242.268C153.185 264.303 147.186 277.988 144.486 281.65C141.786 285.313 144.952 288.336 144.952 288.336C159.717 303.362 175.272 303.676 181.38 300.495C187.488 297.314 186.714 292.971 186.677 291.651C186.641 290.331 187.682 290.661 187.682 290.661C216.785 293.546 216.855 288.267 217.99 285.709C219.125 283.151 211.552 279.186 211.552 279.186C224.416 272.388 229.392 264.791 229.392 249.711C229.392 234.631 214.457 223.181 212.166 222.636H212.178Z" fill="#84894F"/>
<path d="M176.162 22.0082H85.0603C84.1099 23.3279 83.1685 24.7051 82.2393 26.1398H178.983C178.051 24.7081 177.112 23.3279 176.162 22.0082Z" fill="#686845"/>
<path d="M104.75 33.0107C104.623 32.9229 104.502 32.8229 104.39 32.714C99.2507 27.7651 101.127 19.971 107.469 17.2469C111.406 15.5549 115.229 17.8886 116.737 21.4905C118.417 25.5132 117.021 30.0353 113.592 32.7715C111.506 34.4363 107.629 35.0054 104.75 33.0076V33.0107Z" fill="#040C06"/>
<path d="M111.64 25.7461C111.322 25.619 111.023 25.4404 110.772 25.2073C109.543 24.0662 109.403 22.5164 110.411 21.224C111.344 20.0314 113.005 19.868 114.24 20.8426C115.599 21.9171 115.929 24.1751 114.909 25.398C114.204 26.2424 113.184 26.3636 111.64 25.7431V25.7461Z" fill="#FEFFFE"/>
<path d="M158.22 19.9892C158.277 20.074 158.329 20.1648 158.377 20.2556C159.718 22.8072 160.384 25.377 159.146 28.1072C157.784 31.1068 155.326 32.6596 152.133 32.8926C148.794 33.1378 146.146 31.7727 144.557 28.7641C143.467 26.6998 143.515 24.472 143.924 22.1928C144.333 19.9105 145.386 18.1277 147.329 16.8898C149.257 15.6609 151.312 15.3854 153.428 16.3389C155.278 17.1713 157.03 18.1641 158.22 19.9892Z" fill="#040C06"/>
<path d="M156.658 22.5344C156.519 23.5575 155.886 24.4777 154.936 24.8772C154.116 25.2223 153.326 25.086 152.508 24.4867C151.364 23.6483 150.965 21.9926 151.576 20.6245C152.148 19.3472 153.25 18.8296 154.657 19.1777C156.107 19.5349 156.876 20.9211 156.655 22.5314L156.658 22.5344Z" fill="#FEFFFE"/>
<path d="M151.206 0C133.184 0 132.549 16.4962 131.126 20.9457C130.884 21.7085 130.615 21.6903 130.615 21.6903C130.615 21.6903 130.345 21.7054 130.103 20.9457C128.683 16.4993 128.045 0 110.023 0C100.18 0 90.6936 6.28066 81.825 17.035C80.1905 19.0176 81.5828 22.0051 84.1496 22.0051H177.076C179.646 22.0051 181.039 19.0146 179.401 17.035C170.532 6.28066 161.046 0 151.203 0H151.206Z" fill="#84894F"/>
<path d="M143.688 50.8715C145.337 50.4508 146.66 49.5761 148.01 48.7467C148.618 48.3714 149.378 47.8083 150.002 48.5287C150.607 49.2249 150.192 50.0361 149.647 50.6173C147.753 52.6392 145.349 53.7046 142.631 53.974C139.211 54.31 135.966 53.5593 132.9 52.0338C132.379 51.7735 131.962 51.8069 131.453 52.0793C127.757 54.0649 123.819 55.212 119.609 55.0516C116.652 54.9396 113.991 53.8923 111.936 51.6464C111.261 50.9078 110.653 50.0997 111.052 48.9737C111.228 48.4743 111.509 48.1383 112.069 48.1141C112.632 48.0868 113.265 48.0233 113.534 48.6317C114.718 51.3165 117.188 51.9249 119.642 52.0399C123.62 52.2245 127.476 51.4133 130.993 49.4035C131.701 48.9979 132.376 48.9949 133.097 49.3369C135.766 50.6022 138.566 51.2681 141.532 51.2226C142.241 51.2105 142.925 51.0955 143.688 50.8806V50.8715Z" fill="#001D08"/>
<path d="M144.496 281.484C147.195 277.821 153.195 264.137 151.972 242.102C150.749 220.066 141.511 201.954 130.614 201.954C119.718 201.954 110.48 220.066 109.257 242.102C108.034 264.137 114.033 277.821 116.733 281.484C119.433 285.146 116.267 288.17 116.267 288.17C116.267 288.17 129.582 277.307 144.965 288.17C144.965 288.17 141.799 285.146 144.499 281.484H144.496Z" fill="#CFD1A6"/>
<mask id="mask0_1916_25909" style="mask-type:luminance" maskUnits="userSpaceOnUse" x="109" y="201" width="44" height="88">
<path d="M144.497 281.483C147.196 277.82 153.196 264.136 151.973 242.101C150.75 220.065 141.512 201.953 130.615 201.953C119.719 201.953 110.481 220.065 109.258 242.101C108.035 264.136 114.034 277.82 116.734 281.483C119.434 285.145 116.268 288.169 116.268 288.169C116.268 288.169 129.583 277.306 144.966 288.169C144.966 288.169 141.8 285.145 144.499 281.483H144.497Z" fill="white"/>
</mask>
<g mask="url(#mask0_1916_25909)">
<path fill-rule="evenodd" clip-rule="evenodd" d="M32.7115 236.013L243.476 263.527L243.28 265.028L32.5156 237.514L32.7115 236.013Z" fill="#AFAF87"/>
<path fill-rule="evenodd" clip-rule="evenodd" d="M131.258 258.039L134.151 241.555L135.642 241.816L132.748 258.3L131.258 258.039Z" fill="#AFAF87"/>
</g>
<mask id="mask1_1916_25909" style="mask-type:luminance" maskUnits="userSpaceOnUse" x="23" y="26" width="216" height="277">
<path d="M212.178 222.636C209.887 222.091 209.945 219.436 209.945 219.436C208.489 192.14 185.975 173.707 185.975 173.707C210.662 161.566 238.133 143.911 238.133 108.594C238.133 73.2766 190.751 48.1176 190.751 48.1176C187.04 39.8906 183.106 32.4718 178.983 26.1336H82.2393C78.1167 32.4718 74.1819 39.8906 70.471 48.1176C70.471 48.1176 23.0889 73.2766 23.0889 108.594C23.0889 143.911 50.5604 161.563 75.2473 173.707C75.2473 173.707 52.7337 192.14 51.2778 219.436C51.2778 219.436 51.3353 222.088 49.044 222.636C46.7527 223.181 31.8183 234.631 31.8183 249.711C31.8183 264.791 36.7944 272.391 49.6584 279.186C49.6584 279.186 42.0853 283.151 43.2204 285.709C44.3584 288.267 44.425 293.546 73.528 290.661C73.528 290.661 74.5662 290.328 74.5329 291.651C74.4966 292.97 73.7218 297.314 79.8299 300.495C85.9381 303.676 101.493 303.361 116.258 288.336C116.258 288.336 119.424 285.312 116.724 281.65C114.024 277.988 108.025 264.303 109.248 242.268C110.471 220.232 119.708 202.12 130.605 202.12C141.502 202.12 150.74 220.232 151.962 242.268C153.185 264.303 147.186 277.988 144.486 281.65C141.786 285.312 144.952 288.336 144.952 288.336C159.717 303.361 175.272 303.676 181.38 300.495C187.488 297.314 186.714 292.97 186.677 291.651C186.641 290.331 187.682 290.661 187.682 290.661C216.785 293.546 216.855 288.267 217.99 285.709C219.125 283.151 211.552 279.186 211.552 279.186C224.416 272.388 229.392 264.791 229.392 249.711C229.392 234.631 214.457 223.181 212.166 222.636H212.178Z" fill="white"/>
</mask>
<g mask="url(#mask1_1916_25909)">
<path fill-rule="evenodd" clip-rule="evenodd" d="M238.927 117.5L28.1598 145.014L27.9639 143.513L238.732 115.999L238.927 117.5Z" fill="#4B4C3B"/>
<path fill-rule="evenodd" clip-rule="evenodd" d="M48.2687 148.923L45.3721 132.439L46.8626 132.177L49.7593 148.661L48.2687 148.923Z" fill="#4B4C3B"/>
<path fill-rule="evenodd" clip-rule="evenodd" d="M77.4952 145.844L74.6016 129.363L76.0922 129.101L78.9859 145.582L77.4952 145.844Z" fill="#4B4C3B"/>
<path fill-rule="evenodd" clip-rule="evenodd" d="M107.643 142.339L104.749 125.855L106.24 125.593L109.133 142.078L107.643 142.339Z" fill="#4B4C3B"/>
<path fill-rule="evenodd" clip-rule="evenodd" d="M138.695 138.286L135.802 121.802L137.292 121.54L140.186 138.024L138.695 138.286Z" fill="#4B4C3B"/>
<path fill-rule="evenodd" clip-rule="evenodd" d="M169.069 134.321L166.176 117.837L167.666 117.576L170.56 134.06L169.069 134.321Z" fill="#4B4C3B"/>
<path fill-rule="evenodd" clip-rule="evenodd" d="M199.586 130.338L196.692 113.854L198.183 113.592L201.077 130.076L199.586 130.338Z" fill="#4B4C3B"/>
<path fill-rule="evenodd" clip-rule="evenodd" d="M230.678 126.276L227.784 109.795L229.275 109.533L232.168 126.014L230.678 126.276Z" fill="#4B4C3B"/>
<path fill-rule="evenodd" clip-rule="evenodd" d="M32.7096 236.014L243.474 263.528L243.278 265.028L32.5137 237.514L32.7096 236.014Z" fill="#4B4C3B"/>
<path fill-rule="evenodd" clip-rule="evenodd" d="M221.683 268.675L224.576 252.191L226.067 252.453L223.173 268.937L221.683 268.675Z" fill="#4B4C3B"/>
<path fill-rule="evenodd" clip-rule="evenodd" d="M192.452 265.597L195.346 249.116L196.836 249.378L193.943 265.859L192.452 265.597Z" fill="#4B4C3B"/>
<path fill-rule="evenodd" clip-rule="evenodd" d="M162.308 262.092L165.201 245.611L166.692 245.872L163.798 262.354L162.308 262.092Z" fill="#4B4C3B"/>
<path fill-rule="evenodd" clip-rule="evenodd" d="M131.256 258.039L134.149 241.555L135.64 241.817L132.746 258.301L131.256 258.039Z" fill="#4B4C3B"/>
<path fill-rule="evenodd" clip-rule="evenodd" d="M100.878 254.074L103.775 237.589L105.265 237.851L102.369 254.336L100.878 254.074Z" fill="#4B4C3B"/>
<path fill-rule="evenodd" clip-rule="evenodd" d="M70.3643 250.091L73.2579 233.607L74.7486 233.869L71.8549 250.353L70.3643 250.091Z" fill="#4B4C3B"/>
<path fill-rule="evenodd" clip-rule="evenodd" d="M39.2705 246.032L42.1642 229.548L43.6548 229.809L40.7611 246.293L39.2705 246.032Z" fill="#4B4C3B"/>
</g>
<path d="M103.218 181.516C103.218 181.516 129.2 186.177 158.485 181.516C158.485 181.516 146.296 190.617 131.422 190.617C116.548 190.617 103.218 181.516 103.218 181.516Z" fill="#686845"/>
</svg>
