<svg width="236" height="302" viewBox="0 0 236 302" fill="none" xmlns="http://www.w3.org/2000/svg">
<path d="M103.638 288.006C103.638 288.006 116.667 277.376 131.72 288.006L145.783 249.463L131.249 202.178L106.446 200.434L87.6494 246.75L103.638 288.003V288.006Z" fill="#D1FF6C"/>
<path d="M197.496 223.718C195.254 223.185 195.31 220.587 195.31 220.587C193.885 193.876 171.854 175.838 171.854 175.838C196.012 163.958 222.894 146.681 222.894 112.121C222.894 77.5613 176.528 52.9417 176.528 52.9417C164.636 26.5776 150.386 8.68453 135.121 8.68453C119.855 8.68453 119.316 22.7063 118.113 26.4858C117.906 27.1344 117.678 27.1196 117.678 27.1196C117.678 27.1196 117.45 27.1344 117.242 26.4858C116.04 22.7063 115.498 8.68453 100.235 8.68453C84.9721 8.68453 70.7192 26.5776 58.8271 52.9417C58.8271 52.9417 12.4609 77.5613 12.4609 112.121C12.4609 146.681 39.3435 163.955 63.501 175.838C63.501 175.838 41.4702 193.876 40.0455 220.587C40.0455 220.587 40.1017 223.182 37.8595 223.718C35.6173 224.254 21.0032 235.456 21.0032 250.212C21.0032 264.969 25.8726 272.406 38.4608 279.056C38.4608 279.056 31.05 282.936 32.1608 285.439C33.2744 287.942 33.3396 293.107 61.8186 290.284C61.8186 290.284 62.8345 289.959 62.8019 291.253C62.7664 292.544 62.0082 296.795 67.9853 299.908C73.9625 303.021 89.1839 302.713 103.632 288.01C103.632 288.01 106.73 285.051 104.088 281.467C101.446 277.883 95.5757 264.492 96.7723 242.929C97.969 221.366 107.009 203.642 117.672 203.642C128.335 203.642 137.375 221.366 138.571 242.929C139.768 264.492 133.897 277.883 131.255 281.467C128.613 285.051 131.711 288.01 131.711 288.01C146.16 302.713 161.381 303.021 167.358 299.908C173.335 296.795 172.577 292.544 172.542 291.253C172.506 289.962 173.525 290.284 173.525 290.284C202.004 293.107 202.072 287.942 203.183 285.439C204.296 282.936 196.883 279.056 196.883 279.056C209.471 272.403 214.34 264.969 214.34 250.212C214.34 235.456 199.726 224.251 197.484 223.718H197.496ZM97.8209 63.0597C89.8977 63.0597 83.4733 53.7089 83.4733 42.1722C83.4733 30.6354 89.8977 21.2846 97.8209 21.2846C105.744 21.2846 112.169 30.6354 112.169 42.1722C112.169 53.7089 105.744 63.0597 97.8209 63.0597ZM137.914 63.0597C129.99 63.0597 123.566 53.7089 123.566 42.1722C123.566 30.6354 129.99 21.2846 137.914 21.2846C145.837 21.2846 152.261 30.6354 152.261 42.1722C152.261 53.7089 145.837 63.0597 137.914 63.0597Z" fill="#00D32F"/>
<path d="M97.8202 63.0597C105.744 63.0597 112.168 53.7081 112.168 42.1722C112.168 30.6363 105.744 21.2846 97.8202 21.2846C89.8963 21.2846 83.4727 30.6363 83.4727 42.1722C83.4727 53.7081 89.8963 63.0597 97.8202 63.0597Z" fill="#00D32F"/>
<path d="M137.913 63.0597C145.837 63.0597 152.261 53.7081 152.261 42.1722C152.261 30.6363 145.837 21.2846 137.913 21.2846C129.989 21.2846 123.565 30.6363 123.565 42.1722C123.565 53.7081 129.989 63.0597 137.913 63.0597Z" fill="#00D32F"/>
<path d="M95.0318 22.7284C88.7614 25.4208 86.9516 33.187 92.1883 38.0208C95.02 40.1327 98.9386 39.5848 101.024 37.9231C104.38 35.2455 105.745 30.8204 104.101 26.884C102.629 23.3593 98.8853 21.0756 95.0318 22.7313V22.7284Z" fill="#040C06"/>
<path d="M101.658 26.2502C100.449 25.2964 98.8232 25.4564 97.9109 26.6234C96.8209 28.0185 97.1023 29.7216 98.6721 30.856C100.432 31.6705 101.557 31.6143 102.312 30.7109C103.311 29.5142 102.988 27.3017 101.658 26.2532V26.2502Z" fill="#FEFFFE"/>
<path d="M136.309 21.4165C136.783 21.3395 137.259 21.298 137.745 21.2891C137.262 21.2684 136.783 21.3128 136.309 21.4165Z" fill="#040C06"/>
<path d="M130.705 27.5746C130.305 29.8049 130.258 31.9849 131.324 34.0049C132.876 36.9491 135.471 38.2849 138.738 38.045C141.863 37.814 144.268 36.2945 145.601 33.3622C146.836 30.6431 146.137 28.087 144.777 25.5456C143.61 23.6796 141.86 22.6814 140.006 21.8462C139.245 21.5026 138.489 21.3249 137.746 21.2923C137.26 21.3012 136.78 21.3426 136.309 21.4197C135.536 21.5885 134.775 21.9143 134.037 22.3853C132.136 23.5967 131.105 25.3442 130.705 27.5746Z" fill="#040C06"/>
<path d="M141.209 24.6209C139.832 24.2803 138.751 24.7868 138.194 26.0367C137.595 27.3755 137.983 28.9957 139.106 29.8162C140.303 30.6929 141.443 30.5566 142.717 29.3334C143.765 27.2126 143.048 25.0741 141.209 24.6209Z" fill="#FEFFFE"/>
<path d="M229.438 166.997L194.064 171.208L185.889 140.846L226.701 131.086C225.019 109.84 223.573 93.5081 222.895 90.5284C220.671 80.7866 208.793 67.5615 200.289 61.6466C192.58 56.2825 183.004 45.815 181.286 43.9105C181.108 43.7121 180.951 43.4899 180.821 43.2559C137.988 -34.7318 117.678 16.5452 117.678 16.5452L117.737 18.6156L117.619 18.6304L117.678 16.5452C117.678 16.5452 97.3712 -34.7318 54.5357 43.2559C54.4054 43.4899 54.2513 43.7121 54.0707 43.9105C52.3527 45.815 42.7768 56.2825 35.0669 61.6466C26.9216 67.3127 15.6869 79.6788 12.799 89.2725L55.6819 105.297L46.8376 149.604L7.50018 145.985C4.41088 186.427 0.963215 236.208 0.0450158 249.561C-0.111967 251.826 0.142765 254.104 0.791429 256.275L0.94249 256.785C1.23572 257.768 1.94066 258.571 2.86478 258.977C19.0903 266.067 27.8457 264.397 32.8988 261.198C37.3476 258.381 38.0289 254.948 42.0423 254.442C50.2617 253.402 52.8326 267.107 65.4119 270.552C72.5206 272.498 82.0758 270.966 86.7497 265.354C90.4965 260.854 89.676 255.449 92.3388 254.96C94.8713 254.495 97.1105 259.11 100.078 262.341C100.078 262.341 119.352 288.066 137.917 259.065C139.703 256.699 141.297 254.64 143.029 254.96C145.689 255.449 144.872 260.854 148.619 265.354C153.292 270.966 162.848 272.498 169.956 270.552C182.536 267.107 185.107 253.402 193.326 254.442C197.339 254.948 198.021 258.381 202.469 261.198C207.525 264.4 216.278 266.07 232.503 258.977C233.428 258.574 234.13 257.768 234.426 256.785L234.577 256.275C235.225 254.101 235.48 251.826 235.323 249.561C234.559 238.456 232.047 202.164 229.444 166.997H229.438ZM97.8214 15.4997C105.745 15.4997 112.169 25.0667 112.169 36.867C112.169 48.6674 105.745 58.2344 97.8214 58.2344C89.8982 58.2344 83.4738 48.6674 83.4738 36.867C83.4738 25.0667 89.8982 15.4997 97.8214 15.4997ZM76.8094 217.749L68.6345 176.878L110.771 166.369L117.681 207.824L76.8094 217.749ZM137.914 58.2344C129.991 58.2344 123.567 48.6674 123.567 36.867C123.567 25.0667 129.991 15.4997 137.914 15.4997C145.837 15.4997 152.262 25.0667 152.262 36.867C152.262 48.6674 145.837 58.2344 137.914 58.2344Z" fill="#E5E5E5"/>
<path d="M55.6857 105.297L12.8028 89.273C12.6754 89.6966 12.557 90.1172 12.4652 90.5289C11.6329 94.172 9.6543 117.814 7.50098 145.985L46.8384 149.605L55.6827 105.297H55.6857Z" fill="#BFBAB6"/>
<path d="M68.6338 176.878L76.8088 217.75L117.68 207.824L110.77 166.369L68.6338 176.878Z" fill="#C69E9E"/>
<path d="M194.063 171.206L229.437 166.994C228.513 154.486 227.574 142.123 226.703 131.084L185.891 140.843L194.066 171.206H194.063Z" fill="#A0AFA3"/>
<path d="M23.708 99.4555L26.9661 88.5407" stroke="#9B9B9B" stroke-width="10" stroke-miterlimit="10" stroke-linecap="round"/>
<path d="M38.0674 104.018L40.8812 94.5484" stroke="#9B9B9B" stroke-width="10" stroke-miterlimit="10" stroke-linecap="round"/>
<path d="M90.1857 176.064L88.3701 166.352" stroke="#9B9B9B" stroke-width="10" stroke-miterlimit="10" stroke-linecap="round"/>
<path d="M203.743 141.29L201.928 131.575" stroke="#9B9B9B" stroke-width="10" stroke-miterlimit="10" stroke-linecap="round"/>
<path d="M215.609 138.998L213.793 129.286" stroke="#9B9B9B" stroke-width="10" stroke-miterlimit="10" stroke-linecap="round"/>
<path d="M215.609 173.62L213.793 163.908" stroke="#9B9B9B" stroke-width="10" stroke-miterlimit="10" stroke-linecap="round"/>
<path d="M183.934 157.925L193.317 154.83" stroke="#9B9B9B" stroke-width="10" stroke-miterlimit="10" stroke-linecap="round"/>
<path d="M67.8555 198.292L77.3899 195.704" stroke="#9B9B9B" stroke-width="10" stroke-miterlimit="10" stroke-linecap="round"/>
<path d="M97.3652 208.099L99.492 217.749" stroke="#9B9B9B" stroke-width="10" stroke-miterlimit="10" stroke-linecap="round"/>
<path d="M119.023 185.058L109.376 187.197" stroke="#9B9B9B" stroke-width="10" stroke-miterlimit="10" stroke-linecap="round"/>
<path d="M46.459 126.057L55.6854 127.553" stroke="#9B9B9B" stroke-width="10" stroke-miterlimit="10" stroke-linecap="round"/>
<path d="M25.7639 141.797L24.2148 152.845" stroke="#9B9B9B" stroke-width="10" stroke-miterlimit="10" stroke-linecap="round"/>
<path d="M42.043 254.442L47.3063 173.445" stroke="#BCBCBC" stroke-width="3" stroke-miterlimit="10"/>
<path d="M92.0518 254.442L93.207 222.186" stroke="#BCBCBC" stroke-width="3" stroke-miterlimit="10"/>
<path d="M142.624 254.443L140.557 144.975" stroke="#BCBCBC" stroke-width="3" stroke-miterlimit="10"/>
<path d="M193.08 254.442L186.454 177.586" stroke="#BCBCBC" stroke-width="3" stroke-miterlimit="10"/>
</svg>
