<svg width="231" height="302" viewBox="0 0 231 302" fill="none" xmlns="http://www.w3.org/2000/svg">
<path d="M148.054 33.2537C148.054 33.2537 183.253 6.78484 209.377 15.5763L218.464 18.5464L206.666 23.8707L213.729 33.0311L209.414 31.6192C206.123 30.5428 202.632 30.2653 199.293 30.8264C189.425 32.4883 168.762 37.1813 162.124 48.0829C153.289 62.592 148.057 33.2506 148.057 33.2506L148.054 33.2537Z" fill="#EFEFEF" stroke="#C1C1C1" stroke-miterlimit="10"/>
<path d="M49.2749 234.783C49.2749 234.783 30.146 204.731 9.24844 204.932H2L9.24844 212.199L2 217.621H5.44279C8.06833 217.621 10.6481 218.304 12.923 219.612C19.6408 223.479 33.4272 232.542 35.6411 242.882C38.5898 256.647 49.2749 234.786 49.2749 234.786V234.783Z" fill="#EFEFEF" stroke="#C1C1C1" stroke-miterlimit="10"/>
<path d="M136.503 280.838C139.223 277.148 145.267 263.362 144.035 241.162C142.803 218.963 133.496 200.715 122.518 200.715C111.54 200.715 102.233 218.963 101.001 241.162C99.7695 263.362 105.813 277.148 108.534 280.838C110.397 283.363 109.488 285.586 108.732 286.739L109.055 287.574C109.055 287.574 121.387 277.514 136.067 286.336C135.39 285.11 134.841 283.098 136.506 280.838H136.503Z" fill="#D1FF6C"/>
<path d="M204.691 221.384C202.382 220.835 202.44 218.161 202.44 218.161C200.974 190.661 178.292 172.09 178.292 172.09C203.163 159.859 230.84 142.072 230.84 106.491C230.84 70.9109 183.104 45.5642 183.104 45.5642C170.861 18.4215 156.19 0 140.473 0C124.757 0 124.202 14.4359 122.964 18.3269C122.75 18.9947 122.516 18.9795 122.516 18.9795C122.516 18.9795 122.281 18.9947 122.067 18.3269C120.829 14.4359 120.271 0 104.558 0C88.8439 0 74.1702 18.4215 61.9268 45.5642C61.9268 45.5642 14.1914 70.9109 14.1914 106.491C14.1914 142.072 41.8678 159.856 66.7388 172.09C66.7388 172.09 44.0573 190.661 42.5906 218.161C42.5906 218.161 42.6485 220.832 40.3401 221.384C38.0317 221.933 22.9859 233.469 22.9859 248.661C22.9859 263.853 27.9991 271.51 40.9591 278.356C40.9591 278.356 33.3295 282.35 34.473 284.927C35.6196 287.504 35.6867 292.822 65.0067 289.916C65.0067 289.916 66.0527 289.581 66.0192 290.913C65.9826 292.243 65.2019 296.619 71.3556 299.824C77.5093 303.029 93.1803 302.711 108.055 287.574C108.055 287.574 108.372 287.269 108.723 286.739L92.5856 245.099L111.937 197.415L137.473 199.212L152.436 247.892L137.958 287.574C137.32 287.123 136.686 286.714 136.058 286.336C136.488 287.114 136.967 287.574 136.967 287.574C151.842 302.711 167.512 303.029 173.666 299.824C179.82 296.619 179.039 292.243 179.003 290.913C178.966 289.584 180.015 289.916 180.015 289.916C209.335 292.822 209.405 287.504 210.549 284.927C211.695 282.35 204.063 278.356 204.063 278.356C217.023 271.507 222.036 263.853 222.036 248.661C222.036 233.469 206.99 221.933 204.682 221.384H204.691Z" fill="#00D32F"/>
<path d="M152.442 247.892L137.479 199.211L111.943 197.415L92.5918 245.099L108.729 286.739C109.489 285.586 110.394 283.363 108.531 280.838C105.811 277.148 99.767 263.362 100.999 241.162C102.231 218.962 111.538 200.715 122.516 200.715C133.496 200.715 142.8 218.962 144.032 241.162C145.264 263.362 139.22 277.148 136.5 280.838C134.835 283.095 135.384 285.11 136.061 286.336C136.689 286.714 137.323 287.123 137.961 287.574L152.439 247.892H152.442Z" fill="#00D32F"/>
<path d="M136.503 280.838C139.223 277.148 145.267 263.362 144.035 241.162C142.803 218.963 133.496 200.715 122.519 200.715C133.499 200.715 142.803 218.963 144.035 241.162C145.267 263.362 139.223 277.148 136.503 280.838C134.838 283.095 135.387 285.11 136.064 286.336C135.387 285.11 134.838 283.098 136.503 280.838Z" fill="#00D32F"/>
<path d="M96.2699 30.2073C90.8816 25.2307 92.7448 17.2382 99.1973 14.4632C103.165 12.7586 107.016 15.1097 108.535 18.7385C110.227 22.7912 108.821 27.347 105.366 30.1036C103.22 31.8174 99.1851 32.3785 96.2699 30.2043V30.2073Z" fill="#040C06"/>
<path d="M102.948 22.8313C101.332 21.6665 101.045 19.91 102.164 18.4737C103.103 17.2723 104.778 17.1076 106.022 18.0895C107.391 19.1721 107.723 21.4469 106.696 22.6789C105.918 23.612 104.762 23.6699 102.948 22.8283V22.8313Z" fill="#FEFFFE"/>
<path d="M150.416 17.3575C151.815 19.9739 152.535 22.6055 151.263 25.4049C149.891 28.4269 147.415 29.9912 144.198 30.226C140.834 30.473 138.166 29.0977 136.565 26.0666C135.467 23.9869 135.516 21.7426 135.928 19.4464C136.34 17.1471 137.401 15.351 139.358 14.1038C141.301 12.8657 143.371 12.5882 145.503 13.5488C147.409 14.4087 149.214 15.4364 150.416 17.3575Z" fill="#040C06"/>
<path d="M148.292 21.261C146.978 22.5204 145.807 22.6576 144.575 21.758C143.422 20.9133 143.02 19.2453 143.636 17.867C144.212 16.5801 145.322 16.0587 146.74 16.4094C148.634 16.8759 149.369 19.0776 148.292 21.261Z" fill="#FEFFFE"/>
<mask id="mask0_1916_25434" style="mask-type:luminance" maskUnits="userSpaceOnUse" x="14" y="0" width="217" height="302">
<path d="M204.691 221.384C202.382 220.835 202.44 218.161 202.44 218.161C200.974 190.661 178.292 172.09 178.292 172.09C203.163 159.859 230.84 142.072 230.84 106.491C230.84 70.9109 183.104 45.5642 183.104 45.5642C170.861 18.4215 156.19 0 140.473 0C124.757 0 124.202 14.4359 122.964 18.3269C122.75 18.9947 122.516 18.9795 122.516 18.9795C122.516 18.9795 122.281 18.9947 122.067 18.3269C120.829 14.4359 120.271 0 104.558 0C88.8439 0 74.1702 18.4215 61.9268 45.5642C61.9268 45.5642 14.1914 70.9109 14.1914 106.491C14.1914 142.072 41.8648 159.856 66.7388 172.09C66.7388 172.09 44.0573 190.661 42.5906 218.161C42.5906 218.161 42.6485 220.832 40.3401 221.384C38.0317 221.933 22.9859 233.469 22.9859 248.661C22.9859 263.853 27.9991 271.51 40.9591 278.356C40.9591 278.356 33.3295 282.35 34.473 284.927C35.6196 287.504 35.6867 292.822 65.0067 289.916C65.0067 289.916 66.0558 289.581 66.0192 290.913C65.9826 292.243 65.2019 296.619 71.3556 299.824C77.5093 303.029 93.1803 302.711 108.055 287.574C108.055 287.574 108.372 287.269 108.723 286.739C108.818 286.675 123.171 277.24 136.058 286.336C136.488 287.114 136.967 287.574 136.967 287.574C151.842 302.711 167.512 303.029 173.666 299.824C179.82 296.619 179.039 292.243 179.003 290.913C178.966 289.584 180.015 289.916 180.015 289.916C209.335 292.822 209.405 287.504 210.549 284.927C211.695 282.35 204.063 278.356 204.063 278.356C217.023 271.507 222.036 263.853 222.036 248.661C222.036 233.469 206.99 221.933 204.682 221.384H204.691ZM136.893 286.854C137.278 287.071 137.659 287.245 138.034 287.382L137.964 287.574C137.607 287.321 137.25 287.083 136.893 286.854Z" fill="white"/>
</mask>
<g mask="url(#mask0_1916_25434)">
<path d="M166.814 -3.86703H63.1768V7.7451H166.814V-3.86703Z" fill="#EFEFEF" stroke="#9E9E9E" stroke-miterlimit="10"/>
<path d="M226.156 4.57391H122.519V16.186H226.156V4.57391Z" fill="#EFEFEF" stroke="#9E9E9E" stroke-miterlimit="10"/>
<path d="M224.916 24.0784L121.519 17.0295L120.489 32.1317L223.886 39.1806L224.916 24.0784Z" fill="#EFEFEF" stroke="#9E9E9E" stroke-miterlimit="10"/>
<path d="M222.128 64.4409L17.3027 50.4773L15.7043 73.9246L220.53 87.8882L222.128 64.4409Z" fill="#EFEFEF" stroke="#9E9E9E" stroke-miterlimit="10"/>
<path d="M183.499 28.0047L45.0957 37.7799L46.4872 57.4818L184.89 47.7067L183.499 28.0047Z" fill="#EFEFEF" stroke="#9E9E9E" stroke-miterlimit="10"/>
<path d="M180.99 19.1573L80.0996 -4.54355L77.444 6.76086L178.335 30.4617L180.99 19.1573Z" fill="#EFEFEF" stroke="#9E9E9E" stroke-miterlimit="10"/>
<path d="M218.635 46.7567H35.8906V58.3689H218.635V46.7567Z" fill="#EFEFEF" stroke="#9E9E9E" stroke-miterlimit="10"/>
<path d="M214.399 59.0406L32.6221 40.2558L31.4284 51.8064L213.205 70.5912L214.399 59.0406Z" fill="#EFEFEF" stroke="#9E9E9E" stroke-miterlimit="10"/>
<path d="M231.664 109.085L15.0684 134.261L16.4091 145.795L233.005 120.619L231.664 109.085Z" fill="#EFEFEF" stroke="#9E9E9E" stroke-miterlimit="10"/>
<path d="M240.931 243.573L20.9355 228.576L19.6148 247.949L239.61 262.947L240.931 243.573Z" fill="#EFEFEF" stroke="#9E9E9E" stroke-miterlimit="10"/>
<path d="M222.607 274.086L23.2363 227.251L20.0724 240.719L219.443 287.555L222.607 274.086Z" fill="#EFEFEF" stroke="#9E9E9E" stroke-miterlimit="10"/>
<path d="M236.533 226.058H20.8789V242.495H236.533V226.058Z" fill="#EFEFEF" stroke="#9E9E9E" stroke-miterlimit="10"/>
<path d="M220.42 168.15L24.3311 156.019L25.4624 140.919L221.551 153.049L220.42 168.15Z" fill="#EFEFEF" stroke="#9E9E9E" stroke-miterlimit="10"/>
<path d="M217.675 139.144H16.5332V150.756H217.675V139.144Z" fill="#EFEFEF" stroke="#9E9E9E" stroke-miterlimit="10"/>
<path d="M233.126 95.5135H8.42188V121.562H233.126V95.5135Z" fill="#EFEFEF" stroke="#9E9E9E" stroke-miterlimit="10"/>
<path d="M233.126 278.594H8.42188V304.642H233.126V278.594Z" fill="#EFEFEF" stroke="#9E9E9E" stroke-miterlimit="10"/>
<path d="M235.294 73.9325H10.5898V99.9806H235.294V73.9325Z" fill="#EFEFEF" stroke="#9E9E9E" stroke-miterlimit="10"/>
<path d="M229.406 131.986L8.25293 171.777L12.8656 197.414L234.019 157.622L229.406 131.986Z" fill="#EFEFEF" stroke="#9E9E9E" stroke-miterlimit="10"/>
<path d="M232.05 211.995L9.2627 182.705L7.09711 199.176L229.884 228.467L232.05 211.995Z" fill="#EFEFEF" stroke="#9E9E9E" stroke-miterlimit="10"/>
<path d="M236.545 235.401L15.3916 275.193L19.008 295.292L240.161 255.501L236.545 235.401Z" fill="#EFEFEF" stroke="#9E9E9E" stroke-miterlimit="10"/>
<path d="M238.834 94.785L39.4629 47.9496L36.2989 61.4181L235.67 108.254L238.834 94.785Z" fill="#EFEFEF" stroke="#9E9E9E" stroke-miterlimit="10"/>
<path d="M214.762 173.819L16.082 223.503L19.4384 236.925L218.118 187.241L214.762 173.819Z" fill="#EFEFEF" stroke="#9E9E9E" stroke-miterlimit="10"/>
</g>
<path d="M135.689 48.339C137.351 47.9151 138.683 47.0339 140.043 46.1983C140.656 45.8202 141.422 45.253 142.05 45.9788C142.66 46.6801 142.242 47.4974 141.693 48.0829C139.784 50.1199 137.363 51.1932 134.624 51.4646C131.179 51.8031 127.91 51.0469 124.821 49.51C124.296 49.2477 123.875 49.2813 123.363 49.5557C119.64 51.5561 115.672 52.7118 111.431 52.5502C108.451 52.4374 105.771 51.3823 103.7 49.1196C103.02 48.3756 102.407 47.5614 102.81 46.427C102.987 45.9239 103.27 45.5854 103.835 45.561C104.402 45.5335 105.039 45.4695 105.311 46.0824C106.503 48.7873 108.991 49.4002 111.464 49.5161C115.471 49.7021 119.356 48.8848 122.899 46.86C123.613 46.4514 124.293 46.4484 125.019 46.7929C127.708 48.0676 130.529 48.7385 133.518 48.6927C134.231 48.6805 134.92 48.5647 135.689 48.3482V48.339Z" fill="#999999"/>
<path d="M42.749 87.8227L46.5638 94.754" stroke="#999999" stroke-miterlimit="10"/>
<path d="M41.459 90.9849L45.2707 97.1264" stroke="#999999" stroke-miterlimit="10"/>
<path d="M46.5977 89.4327L49.3574 94.449" stroke="#999999" stroke-miterlimit="10"/>
<path d="M162.887 107.455L166.698 114.389" stroke="#999999" stroke-miterlimit="10"/>
<path d="M161.594 110.617L165.408 116.761" stroke="#999999" stroke-miterlimit="10"/>
<path d="M166.732 109.068L169.492 114.084" stroke="#999999" stroke-miterlimit="10"/>
<path d="M98.5254 165.156L102.337 172.087" stroke="#999999" stroke-miterlimit="10"/>
<path d="M97.2324 168.318L101.047 174.46" stroke="#999999" stroke-miterlimit="10"/>
<path d="M102.37 166.766L105.13 171.785" stroke="#999999" stroke-miterlimit="10"/>
<path d="M191.24 248.361L195.052 255.296" stroke="#999999" stroke-miterlimit="10"/>
<path d="M189.947 251.524L193.762 257.668" stroke="#999999" stroke-miterlimit="10"/>
<path d="M195.085 249.974L197.845 254.991" stroke="#999999" stroke-miterlimit="10"/>
<path d="M71.1543 272.845L74.9661 279.78" stroke="#999999" stroke-miterlimit="10"/>
<path d="M69.8613 276.011L73.6761 282.152" stroke="#999999" stroke-miterlimit="10"/>
<path d="M74.999 274.458L77.7588 279.475" stroke="#999999" stroke-miterlimit="10"/>
<path d="M161.506 32.9518L165.321 39.8831" stroke="#999999" stroke-miterlimit="10"/>
<path d="M160.216 36.1139L164.028 42.2554" stroke="#999999" stroke-miterlimit="10"/>
<path d="M165.354 34.5618L168.113 39.5811" stroke="#999999" stroke-miterlimit="10"/>
</svg>
