<svg width="281" height="348" viewBox="0 0 281 348" fill="none" xmlns="http://www.w3.org/2000/svg">
<path d="M222.998 225.14C222.998 225.14 201.763 226.028 184.223 209.62C166.686 193.216 175.108 247.568 175.108 247.568L200.384 257.065L222.998 225.14Z" fill="#00D32F"/>
<path d="M134.011 142.674C183.901 142.674 224.344 125.546 224.344 104.418C224.344 83.2895 183.901 66.1616 134.011 66.1616C84.1221 66.1616 43.6787 83.2895 43.6787 104.418C43.6787 125.546 84.1221 142.674 134.011 142.674Z" fill="black"/>
<path d="M118.582 333.479C118.582 333.479 132.006 322.527 147.513 333.479L162.002 293.77L147.028 245.057L121.475 243.259L102.11 290.975L118.582 333.476V333.479Z" fill="#D1FF6C"/>
<path d="M190.591 335.826C219.931 338.734 220.001 333.412 221.145 330.834C222.289 328.255 214.655 324.258 214.655 324.258C227.623 317.404 232.64 309.745 232.64 294.543C232.64 279.34 217.584 267.797 215.274 267.247C212.964 266.698 213.022 264.022 213.022 264.022C211.554 236.504 188.857 217.92 188.857 217.92C213.745 205.681 241.44 187.882 241.44 152.277C241.44 116.672 193.673 91.3086 193.673 91.3086C181.421 64.1474 166.74 45.7135 151.013 45.7135C135.286 45.7135 134.73 60.1592 133.492 64.0528C133.278 64.7211 133.043 64.7058 133.043 64.7058C133.043 64.7058 132.808 64.7211 132.594 64.0528C131.355 60.1592 130.797 45.7135 115.073 45.7135C99.3486 45.7135 84.6649 64.1474 72.4133 91.3086C72.4133 91.3086 24.6455 116.672 24.6455 152.277C24.6455 187.882 52.3407 205.678 77.2285 217.92C77.2285 217.92 54.5316 236.504 53.0639 264.022C53.0639 264.022 53.1218 266.695 50.8119 267.247C48.5019 267.8 33.4459 279.34 33.4459 294.543C33.4459 309.745 38.4626 317.407 51.4313 324.258C51.4313 324.258 43.7965 328.255 44.9408 330.834C46.0882 333.412 46.1553 338.734 75.4952 335.826C75.4952 335.826 76.5419 335.49 76.5083 336.824C76.4717 338.154 75.6906 342.533 81.8484 345.74C88.0063 348.947 103.688 348.63 118.573 333.483C118.573 333.483 121.765 330.434 119.043 326.742C116.321 323.05 110.273 309.254 111.506 287.039C112.738 264.824 122.052 246.564 133.037 246.564C144.022 246.564 153.335 264.824 154.568 287.039C155.801 309.254 149.753 323.05 147.031 326.742C144.309 330.434 147.501 333.483 147.501 333.483" fill="#00D32F"/>
<path d="M106.781 75.9406C101.389 70.9606 103.253 62.9627 109.71 60.1859C113.68 58.4801 117.534 60.8328 119.054 64.464C120.747 68.5194 119.341 73.0783 115.883 75.8369C113.735 77.5518 109.698 78.1133 106.781 75.9376V75.9406Z" fill="#040C06"/>
<path d="M113.464 68.5596C111.846 67.394 111.56 65.6363 112.679 64.1991C113.619 62.9968 115.295 62.832 116.54 63.8146C117.91 64.8979 118.242 67.1743 117.214 68.4071C116.436 69.3408 115.279 69.3988 113.464 68.5566V68.5596Z" fill="#FEFFFE"/>
<path d="M160.96 63.0852C162.36 65.7033 163.081 68.3368 161.808 71.138C160.435 74.162 157.957 75.7274 154.738 75.9624C151.372 76.2095 148.702 74.8333 147.1 71.8002C146.001 69.7191 146.05 67.4732 146.462 65.1754C146.874 62.8746 147.936 61.0773 149.895 59.8292C151.839 58.5904 153.911 58.3127 156.044 59.2739C157.951 60.1344 159.758 61.1627 160.96 63.0852Z" fill="#040C06"/>
<path d="M158.839 66.9913C157.524 68.2516 156.352 68.3889 155.119 67.4887C153.966 66.6434 153.563 64.9743 154.179 63.595C154.756 62.3073 155.867 61.7855 157.286 62.1364C159.18 62.6033 159.916 64.8065 158.839 66.9913Z" fill="#FEFFFE"/>
<path d="M113.05 110.591C113.05 110.591 131.627 105.031 151.065 109.556C151.065 109.556 143.781 145.121 132.491 145.121C121.2 145.121 113.05 110.591 113.05 110.591Z" fill="#E26969"/>
<path d="M195.648 269.999C195.648 269.999 187.208 242.326 221.448 236.101C255.689 229.876 260.58 256.158 260.58 256.158" stroke="black" stroke-width="10" stroke-miterlimit="10"/>
<path d="M193.957 269.999C193.957 269.999 234.972 257.241 261.977 256.158L264.33 260.598L194.07 275.205L193.957 269.999Z" fill="black"/>
<path d="M261.978 256.158C261.978 256.158 231.161 270.982 193.958 269.999C193.958 269.999 174.004 353.378 243.785 337.623C313.566 321.868 261.978 256.158 261.978 256.158Z" fill="#EE9748"/>
<path d="M221.274 283.883C222.871 280.303 222.538 276.675 220.53 275.779C218.522 274.882 215.598 277.058 214.001 280.637C212.403 284.217 212.736 287.845 214.745 288.742C216.753 289.638 219.676 287.463 221.274 283.883Z" fill="black"/>
<path d="M249.848 281.702C251.403 280.146 250.416 276.639 247.645 273.867C244.873 271.095 241.365 270.109 239.81 271.664C238.255 273.219 239.241 276.727 242.013 279.498C244.785 282.27 248.292 283.257 249.848 281.702Z" fill="black"/>
<path d="M232.635 285.806L229.145 299.812L234.808 294.982L241.57 296.19L232.635 285.806Z" fill="black"/>
<mask id="mask0_1916_25353" style="mask-type:luminance" maskUnits="userSpaceOnUse" x="191" y="256" width="90" height="84">
<path d="M261.98 256.16C261.98 256.16 231.163 270.984 193.96 270.001C193.96 270.001 174.006 353.38 243.787 337.625C313.568 321.87 261.98 256.16 261.98 256.16Z" fill="white"/>
</mask>
<g mask="url(#mask0_1916_25353)">
<path d="M209.796 268.055C209.796 268.055 192.271 316.455 229.115 340.372" stroke="#CC8148" stroke-width="3" stroke-miterlimit="10"/>
<path d="M242.499 261.791C242.499 261.791 271.924 299.006 258.406 333.705" stroke="#CC8148" stroke-width="3" stroke-miterlimit="10"/>
</g>
<path d="M205.004 302.406C205.004 302.406 242.177 318.646 263.833 285.803C263.833 285.803 274.66 312.149 244.344 322.256C214.027 332.362 205.004 302.406 205.004 302.406Z" fill="black"/>
<path d="M246.324 235.634C247.392 251.578 236.41 257.08 221.567 259.887C206.725 262.698 196.164 255.536 193.897 239.885C191.791 225.36 244.261 204.863 246.327 235.634H246.324Z" fill="#00D32F"/>
<path d="M106.152 222.626C106.152 222.626 132.346 227.325 161.869 222.626C161.869 222.626 149.581 231.802 134.586 231.802C119.591 231.802 106.152 222.626 106.152 222.626Z" fill="#00BA23"/>
<path d="M79.6161 52.7691L36.749 88.4072L49.3577 177.22L180.071 210.576L224.344 120.231L227.652 83.5371L181.996 52.7691H79.6161Z" fill="black"/>
<path d="M137.569 29.6751L139.443 4.32959C139.443 4.32959 146.727 -0.784677 149.827 13.9387C149.827 13.9387 167.031 -2.95427 174.16 0.454219C181.288 3.86271 160.831 20.2918 160.831 20.2918L170.284 21.0669C170.284 21.0669 176.32 29.8277 138.433 31.4144L137.569 29.6751Z" fill="#9B9D4A"/>
<path d="M115.19 47.5233C115.19 47.5233 119.972 23.9202 105.63 14.0609C105.63 14.0609 114.891 2.70638 126.246 8.38517C137.6 14.0609 150.059 47.5233 150.059 47.5233H115.193H115.19Z" fill="#353B54"/>
<path d="M181.685 40.419C175.463 41.7403 132.055 42.2041 132.055 42.2041C132.055 42.2041 88.6513 41.7403 82.4263 40.419C76.2044 39.0977 0 67.3666 0 119.275C0 171.184 32.2846 212.83 73.095 215.848C113.905 218.866 132.055 218.384 132.055 218.384C132.055 218.384 150.203 218.866 191.016 215.848C231.826 212.83 264.111 171.184 264.111 119.275C264.111 67.3666 187.907 39.0977 181.685 40.419ZM143.248 55.6275C149.135 51.1663 161.456 53.2748 170.773 60.336C180.089 67.3971 182.869 76.7376 176.985 81.1989C171.099 85.6601 158.777 83.5516 149.461 76.4904C140.145 69.4293 137.365 60.0888 143.248 55.6275ZM132.852 80.0851L146.001 107.783L133.087 98.0308L112.392 105.571L132.852 80.0881V80.0851ZM94.4949 60.336C103.811 53.2748 116.136 51.1663 122.019 55.6275C127.905 60.0888 125.123 69.4293 115.806 76.4904C106.49 83.5516 94.1654 85.6601 88.2821 81.1989C82.3959 76.7376 85.1788 67.3971 94.4949 60.336ZM194.171 147.77L176.308 134.777L179.189 161.767C169.14 168.001 155.82 171.492 138.165 170.061C40.1726 162.109 55.1371 94.2409 55.1371 94.2409C55.1371 94.2409 63.8307 100.524 77.9895 106.819L80.8183 124.801L90.8271 111.875C121.729 122.519 167.91 127.441 209.703 88.4064C209.703 88.4064 211.977 123.504 194.171 147.77Z" fill="#EE9748"/>
<mask id="mask1_1916_25353" style="mask-type:luminance" maskUnits="userSpaceOnUse" x="0" y="40" width="265" height="179">
<path d="M181.685 40.4182C175.463 41.7395 132.055 42.2033 132.055 42.2033C132.055 42.2033 88.6513 41.7395 82.4263 40.4182C76.2044 39.0969 0 67.3657 0 119.274C0 171.183 32.2846 212.829 73.095 215.847C113.905 218.865 132.055 218.383 132.055 218.383C132.055 218.383 150.203 218.865 191.016 215.847C231.826 212.829 264.111 171.183 264.111 119.274C264.111 67.3657 187.907 39.0969 181.685 40.4182ZM143.248 55.6267C149.135 51.1654 161.456 53.274 170.773 60.3351C180.089 67.3962 182.869 76.7368 176.985 81.198C171.099 85.6593 158.777 83.5507 149.461 76.4896C140.145 69.4285 137.365 60.0879 143.248 55.6267ZM132.852 80.0843L146.001 107.782L133.087 98.03L112.392 105.57L132.852 80.0873V80.0843ZM94.4949 60.3351C103.811 53.274 116.136 51.1654 122.019 55.6267C127.905 60.0879 125.123 69.4285 115.806 76.4896C106.49 83.5507 94.1654 85.6593 88.2821 81.198C82.3959 76.7368 85.1788 67.3962 94.4949 60.3351ZM194.171 147.769L176.308 134.776L179.189 161.766C169.14 168 155.82 171.491 138.165 170.06C40.1726 162.108 55.1371 94.24 55.1371 94.24C55.1371 94.24 63.8307 100.523 77.9895 106.818L80.8183 124.801L90.8271 111.874C121.729 122.518 167.91 127.44 209.703 88.4056C209.703 88.4056 211.977 123.504 194.171 147.769Z" fill="white"/>
</mask>
<g mask="url(#mask1_1916_25353)">
<path d="M105.63 31.418C105.63 31.418 -4.19232 139.886 102.112 225.788" stroke="#CC8148" stroke-width="10" stroke-miterlimit="10"/>
<path d="M160.114 31.418C160.114 31.418 269.937 139.886 163.633 225.788" stroke="#CC8148" stroke-width="10" stroke-miterlimit="10"/>
</g>
</svg>
