<svg width="728" height="903" viewBox="0 0 728 903" fill="none" xmlns="http://www.w3.org/2000/svg">
<path d="M579.098 585.606C579.098 585.606 523.953 587.912 478.404 545.306C432.863 502.708 454.734 643.845 454.734 643.845L520.371 668.504L579.098 585.606Z" fill="#00D32F"/>
<path d="M348.01 371.467C477.567 371.467 582.593 326.991 582.593 272.128C582.593 217.264 477.567 172.788 348.01 172.788C218.454 172.788 113.428 217.264 113.428 272.128C113.428 326.991 218.454 371.467 348.01 371.467Z" fill="black"/>
<path d="M307.945 866.929C307.945 866.929 342.804 838.491 383.075 866.929L420.7 763.818L381.815 637.324L315.457 632.657L265.17 756.56L307.945 866.921V866.929Z" fill="#D1FF6C"/>
<path d="M494.942 873.023C571.134 880.574 571.317 866.755 574.288 860.06C577.26 853.364 557.433 842.984 557.433 842.984C591.111 825.187 604.139 805.299 604.139 765.823C604.139 726.347 565.04 696.372 559.042 694.945C553.043 693.519 553.194 686.57 553.194 686.57C549.382 615.114 490.441 566.859 490.441 566.859C555.072 535.077 626.993 488.857 626.993 396.404C626.993 303.95 502.946 238.088 502.946 238.088C471.13 167.559 433.006 119.692 392.164 119.692C351.323 119.692 349.88 157.202 346.663 167.313C346.108 169.048 345.498 169.009 345.498 169.009C345.498 169.009 344.888 169.048 344.333 167.313C341.116 157.202 339.666 119.692 298.832 119.692C257.998 119.692 219.867 167.559 188.051 238.088C188.051 238.088 64.0039 303.95 64.0039 396.404C64.0039 488.857 135.925 535.069 200.555 566.859C200.555 566.859 141.614 615.114 137.803 686.57C137.803 686.57 137.953 693.511 131.955 694.945C125.956 696.38 86.8575 726.347 86.8575 765.823C86.8575 805.299 99.8851 825.195 133.563 842.984C133.563 842.984 113.737 853.364 116.708 860.06C119.688 866.755 119.862 880.574 196.054 873.023C196.054 873.023 198.772 872.151 198.685 875.614C198.59 879.069 196.561 890.439 212.553 898.767C228.544 907.095 269.267 906.271 307.921 866.938C307.921 866.938 316.21 859.022 309.142 849.434C302.073 839.846 286.367 804.023 289.569 746.339C292.77 688.654 316.955 641.238 345.482 641.238C374.01 641.238 398.195 688.654 401.396 746.339C404.598 804.023 388.892 839.846 381.823 849.434C374.755 859.022 383.043 866.938 383.043 866.938" fill="#00D32F"/>
<path d="M277.304 198.184C263.302 185.253 268.143 164.485 284.911 157.274C295.221 152.845 305.229 158.954 309.175 168.383C313.573 178.914 309.92 190.752 300.942 197.915C295.363 202.368 284.879 203.826 277.304 198.176V198.184Z" fill="#040C06"/>
<path d="M294.659 179.017C290.459 175.99 289.714 171.426 292.622 167.694C295.063 164.572 299.413 164.144 302.646 166.695C306.204 169.508 307.068 175.419 304.398 178.62C302.377 181.045 299.374 181.196 294.659 179.009V179.017Z" fill="#FEFFFE"/>
<path d="M417.999 164.802C421.637 171.6 423.507 178.438 420.202 185.712C416.637 193.565 410.202 197.63 401.842 198.24C393.101 198.882 386.168 195.308 382.007 187.432C379.155 182.028 379.281 176.196 380.351 170.229C381.421 164.255 384.179 159.588 389.266 156.347C394.314 153.13 399.694 152.409 405.233 154.905C410.186 157.139 414.877 159.81 417.999 164.802Z" fill="#040C06"/>
<path d="M412.492 174.944C409.076 178.217 406.033 178.573 402.832 176.236C399.836 174.041 398.79 169.707 400.391 166.125C401.889 162.781 404.773 161.426 408.458 162.338C413.379 163.55 415.289 169.271 412.492 174.944Z" fill="#FEFFFE"/>
<path d="M293.58 288.158C293.58 288.158 341.823 273.721 392.301 285.471C392.301 285.471 373.386 377.822 344.066 377.822C314.746 377.822 293.58 288.158 293.58 288.158Z" fill="#E26969"/>
<path d="M508.076 702.093C508.076 702.093 486.157 630.233 575.075 614.068C663.994 597.904 676.696 666.151 676.696 666.151" stroke="black" stroke-width="10" stroke-miterlimit="10"/>
<path d="M503.686 702.093C503.686 702.093 610.196 668.964 680.326 666.151L686.435 677.68L503.979 715.611L503.686 702.093Z" fill="black"/>
<path d="M680.325 666.151C680.325 666.151 600.298 704.644 503.685 702.093C503.685 702.093 451.868 918.6 633.081 877.69C814.293 836.78 680.325 666.151 680.325 666.151Z" fill="#EE9748"/>
<path d="M574.623 738.144C578.772 728.849 577.907 719.427 572.691 717.099C567.476 714.772 559.885 720.421 555.736 729.716C551.588 739.011 552.453 748.433 557.668 750.761C562.884 753.088 570.475 747.439 574.623 738.144Z" fill="black"/>
<path d="M648.824 732.48C652.863 728.442 650.301 719.333 643.103 712.136C635.905 704.938 626.796 702.377 622.758 706.415C618.719 710.453 621.281 719.561 628.479 726.759C635.677 733.957 644.786 736.518 648.824 732.48Z" fill="black"/>
<path d="M604.124 743.138L595.059 779.508L609.766 766.964L627.326 770.102L604.124 743.138Z" fill="black"/>
<mask id="mask0_1916_25049" style="mask-type:luminance" maskUnits="userSpaceOnUse" x="496" y="666" width="232" height="217">
<path d="M680.325 666.151C680.325 666.151 600.298 704.645 503.685 702.093C503.685 702.093 451.868 918.601 633.081 877.691C814.293 836.78 680.325 666.151 680.325 666.151Z" fill="white"/>
</mask>
<g mask="url(#mask0_1916_25049)">
<path d="M544.813 697.046C544.813 697.046 499.303 822.724 594.981 884.83" stroke="#CC8148" stroke-width="3" stroke-miterlimit="10"/>
<path d="M629.738 680.778C629.738 680.778 706.152 777.416 671.047 867.516" stroke="#CC8148" stroke-width="3" stroke-miterlimit="10"/>
</g>
<path d="M532.371 786.243C532.371 786.243 628.905 828.413 685.143 743.13C685.143 743.13 713.259 811.543 634.531 837.787C555.803 864.03 532.371 786.243 532.371 786.243Z" fill="black"/>
<path d="M639.673 612.856C642.446 654.257 613.927 668.544 575.383 675.834C536.839 683.131 509.413 664.534 503.525 623.894C498.058 586.177 634.316 532.953 639.681 612.856H639.673Z" fill="#00D32F"/>
<path d="M275.662 579.076C275.662 579.076 343.684 591.279 420.352 579.076C420.352 579.076 388.441 602.903 349.501 602.903C310.561 602.903 275.662 579.076 275.662 579.076Z" fill="#00BA23"/>
<path d="M206.752 138.011L95.4316 230.553L128.175 461.172L467.619 547.786L582.593 313.189L591.183 217.906L472.62 138.011H206.752Z" fill="black"/>
<path d="M357.25 78.0445L362.116 12.2301C362.116 12.2301 381.031 -1.05001 389.082 37.1819C389.082 37.1819 433.759 -6.68378 452.27 2.16701C470.781 11.0178 417.657 53.6791 417.657 53.6791L442.206 55.6917C442.206 55.6917 457.88 78.4407 359.493 82.561L357.25 78.0445Z" fill="#9B9D4A"/>
<path d="M299.133 124.39C299.133 124.39 311.551 63.1005 274.307 37.4989C274.307 37.4989 298.357 8.01478 327.843 22.7608C357.329 37.4989 389.684 124.39 389.684 124.39H299.141H299.133Z" fill="#353B54"/>
<path d="M471.812 105.944C455.654 109.375 342.931 110.579 342.931 110.579C342.931 110.579 230.216 109.375 214.051 105.944C197.893 102.513 0 175.918 0 310.709C0 445.499 83.8389 553.642 189.818 561.478C295.798 569.315 342.931 568.063 342.931 568.063C342.931 568.063 390.057 569.315 496.044 561.478C602.024 553.642 685.863 445.499 685.863 310.709C685.863 175.918 487.969 102.513 471.812 105.944ZM371.998 145.436C387.284 133.851 419.282 139.327 443.475 157.662C467.667 175.997 474.887 200.252 459.609 211.836C444.323 223.421 412.324 217.946 388.131 199.61C363.939 181.275 356.72 157.02 371.998 145.436ZM345 208.944L379.145 280.868L345.61 255.544L291.867 275.123L345 208.952V208.944ZM245.391 157.662C269.584 139.327 301.59 133.851 316.868 145.436C332.154 157.02 324.927 181.275 300.734 199.61C276.542 217.946 244.536 223.421 229.257 211.836C213.972 200.252 221.198 175.997 245.391 157.662ZM504.238 384.7L457.849 350.961L465.33 421.046C439.235 437.234 404.646 446.299 358.796 442.583C104.323 421.934 143.184 245.702 143.184 245.702C143.184 245.702 165.76 262.017 202.529 278.364L209.875 325.058L235.866 291.494C316.116 319.132 436.042 331.912 544.573 230.552C544.573 230.552 550.476 321.691 504.238 384.7Z" fill="#EE9748"/>
<mask id="mask1_1916_25049" style="mask-type:luminance" maskUnits="userSpaceOnUse" x="0" y="105" width="686" height="464">
<path d="M471.812 105.944C455.654 109.375 342.931 110.579 342.931 110.579C342.931 110.579 230.216 109.375 214.051 105.944C197.893 102.513 0 175.918 0 310.709C0 445.499 83.8389 553.642 189.818 561.478C295.798 569.315 342.931 568.063 342.931 568.063C342.931 568.063 390.057 569.315 496.044 561.478C602.024 553.642 685.863 445.499 685.863 310.709C685.863 175.918 487.969 102.513 471.812 105.944ZM371.998 145.436C387.284 133.851 419.282 139.327 443.475 157.662C467.667 175.997 474.887 200.252 459.609 211.836C444.323 223.421 412.324 217.946 388.131 199.61C363.939 181.275 356.72 157.02 371.998 145.436ZM345 208.944L379.145 280.868L345.61 255.544L291.867 275.123L345 208.952V208.944ZM245.391 157.662C269.584 139.327 301.59 133.851 316.868 145.436C332.154 157.02 324.927 181.275 300.734 199.61C276.542 217.946 244.536 223.421 229.257 211.836C213.972 200.252 221.198 175.997 245.391 157.662ZM504.238 384.7L457.849 350.961L465.33 421.046C439.235 437.234 404.646 446.299 358.796 442.583C104.323 421.934 143.184 245.702 143.184 245.702C143.184 245.702 165.76 262.017 202.529 278.364L209.875 325.058L235.866 291.494C316.116 319.132 436.042 331.912 544.573 230.552C544.573 230.552 550.476 321.691 504.238 384.7Z" fill="white"/>
</mask>
<g mask="url(#mask1_1916_25049)">
<path d="M274.305 82.5681C274.305 82.5681 -10.8897 364.224 265.169 587.285" stroke="#CC8148" stroke-width="10" stroke-miterlimit="10"/>
<path d="M415.793 82.5681C415.793 82.5681 700.988 364.224 424.93 587.285" stroke="#CC8148" stroke-width="10" stroke-miterlimit="10"/>
</g>
</svg>
