<svg width="224" height="389" viewBox="0 0 224 389" fill="none" xmlns="http://www.w3.org/2000/svg">
<path d="M136.876 370.64C134.262 370.435 131.674 370.205 129.073 369.987C126.733 369.794 124.406 369.576 122.066 369.455C115.756 369.128 109.433 369.273 103.124 369.503C99.3774 369.636 95.6188 369.794 91.8105 370.604C90.2672 368.003 89.1222 365.293 87.9648 362.583C84.9156 355.444 83.2105 347.943 82.0282 340.345C81.2815 335.542 80.9952 330.691 80.8583 325.827C80.4725 312.046 82.6505 298.629 86.6953 285.466C87.9399 281.425 89.8938 277.65 91.91 273.79C91.9847 273.681 91.9722 273.669 91.9847 273.669C92.383 273.294 92.5945 272.81 92.8683 272.254C92.943 272.181 92.9306 272.157 92.943 272.157C93.167 271.927 93.3039 271.661 93.5031 271.334C93.5653 271.274 93.5653 271.25 93.5777 271.25C93.7893 271.044 93.9262 270.79 94.1378 270.463C94.2125 270.391 94.2125 270.342 94.2373 270.342C94.2871 270.282 94.3245 270.221 94.4365 270.1C94.5112 270.04 94.5112 270.016 94.5112 270.016C94.7352 269.822 94.8596 269.58 95.0837 269.265C95.1708 269.193 95.1708 269.132 95.1957 269.12C95.2455 269.048 95.2703 268.987 95.3699 268.89C95.457 268.842 95.4446 268.806 95.4695 268.806C95.5317 268.745 95.5566 268.697 95.681 268.576C95.7557 268.515 95.7557 268.491 95.7682 268.491C95.8304 268.443 95.8677 268.382 95.9922 268.261C96.0669 268.189 96.0669 268.177 96.0669 268.177C96.378 267.898 96.6643 267.596 96.9629 267.172C97.0501 267.112 97.0998 267.015 97.2119 266.93C97.3239 266.846 97.3861 266.725 97.5106 266.64C97.635 266.543 97.6972 266.422 97.8217 266.338C97.9462 266.253 98.0208 266.12 98.1328 266.059C98.3942 265.842 98.5435 265.684 98.8049 265.491C99.116 265.212 99.4645 265.176 99.7508 264.898C99.813 264.837 99.813 264.825 99.8254 264.825C99.8877 264.777 99.9375 264.728 100.062 264.595C100.137 264.523 100.137 264.511 100.137 264.511C100.186 264.462 100.249 264.414 100.373 264.293C100.448 264.22 100.448 264.208 100.448 264.208C100.498 264.16 100.547 264.111 100.684 264.003C100.771 263.942 100.771 263.918 100.796 263.918C100.846 263.869 100.871 263.809 101.008 263.736C103.634 261.873 106.646 261.498 109.645 261.087C113.491 260.566 117.336 260.506 121.157 261.28C126.832 262.43 130.691 266.059 134.038 270.33C135.619 272.351 136.926 274.54 138.108 276.936C138.183 277.081 138.233 277.118 138.295 277.239C138.345 277.372 138.37 277.432 138.432 277.565C138.506 277.686 138.544 277.722 138.606 277.843C138.643 277.977 138.681 278.037 138.743 278.182C138.818 278.303 138.867 278.339 138.917 278.448C138.954 278.594 138.979 278.654 139.042 278.811C139.129 278.932 139.179 278.957 139.203 279.065C139.216 279.211 139.253 279.271 139.328 279.453C139.477 279.634 139.539 279.731 139.577 279.961C139.627 280.118 139.651 280.166 139.701 280.312C139.776 280.433 139.813 280.469 139.863 280.59C139.9 280.735 139.925 280.796 139.975 280.965C140.112 281.146 140.174 281.255 140.199 281.485C140.249 281.642 140.274 281.691 140.324 281.848C140.398 281.969 140.436 282.005 140.473 282.126C140.498 282.272 140.535 282.344 140.585 282.501C140.722 282.683 140.796 282.78 140.809 283.01C140.846 283.167 140.871 283.227 140.921 283.385C141.045 283.578 141.108 283.687 141.132 283.917C141.17 284.074 141.195 284.135 141.244 284.292C141.369 284.486 141.419 284.607 141.456 284.836C141.506 284.994 141.518 285.054 141.568 285.212C141.693 285.405 141.742 285.514 141.767 285.756C141.805 285.913 141.829 285.974 141.879 286.143C142.228 287.377 142.551 288.514 142.95 289.749C143.037 289.978 143.074 290.112 143.124 290.353C143.534 292.434 144.082 294.382 144.543 296.451C144.617 296.681 144.655 296.826 144.692 297.056C145.177 299.609 145.712 302.053 146.161 304.63C146.21 304.884 146.235 305.029 146.26 305.283C146.248 305.84 146.372 306.263 146.472 306.796C146.521 307.025 146.534 307.171 146.559 307.425C146.721 309.167 146.907 310.812 147.106 312.567C147.156 312.918 147.181 313.16 147.194 313.522C147.169 314.974 147.43 316.305 147.418 317.757C147.467 318.301 147.492 318.749 147.492 319.318C147.567 321.677 147.517 323.915 147.505 326.275C147.492 326.843 147.48 327.279 147.467 327.847C147.355 329.408 147.194 330.836 147.194 332.384C147.181 332.651 147.181 332.796 147.156 333.05C147.044 333.993 146.882 334.816 146.882 335.748C146.87 336.002 146.857 336.147 146.833 336.401C146.497 337.829 146.497 339.184 146.248 340.624C146.223 340.878 146.21 341.023 146.185 341.277C145.862 342.305 145.887 343.273 145.638 344.302C145.613 344.544 145.6 344.689 145.563 344.931C145.177 346.262 145.016 347.52 144.692 348.863C144.655 349.105 144.642 349.238 144.592 349.468C144.231 350.496 144.032 351.464 143.758 352.517C143.721 352.759 143.709 352.892 143.646 353.122C143.136 354.682 142.638 356.134 142.19 357.695C142.153 357.937 142.116 358.082 142.029 358.324C142.004 358.481 142.016 358.53 141.954 358.626C141.867 358.735 141.854 358.784 141.805 358.941C141.282 359.921 141.008 360.877 140.684 361.929C140.597 362.075 140.585 362.135 140.523 362.28C140.299 362.692 140.149 363.03 140.05 363.466C139.963 363.599 139.938 363.659 139.875 363.817C139.826 363.962 139.826 364.022 139.751 364.119C139.664 364.228 139.651 364.289 139.589 364.422C139.241 365.015 138.93 365.523 138.78 366.2C138.693 366.333 138.668 366.406 138.594 366.563C138.544 366.708 138.544 366.769 138.482 366.866C138.382 366.975 138.37 367.035 138.295 367.18C138.245 367.325 138.245 367.374 138.17 367.483C138.083 367.592 138.071 367.652 138.009 367.785C137.772 368.184 137.623 368.523 137.523 368.971C137.449 369.104 137.424 369.164 137.374 369.31C137.137 369.721 136.988 370.06 136.901 370.507C136.901 370.58 136.889 370.628 136.876 370.64Z" fill="#FFA9D7"/>
<path d="M54.896 251.806C-7.6121 225.768 -21.3222 164.162 37.7373 124.497C41.6746 121.33 47.5007 119.987 50.2822 115.702C56.362 102.546 62.5357 88.8642 72.9569 78.5276C87.1932 63.4362 109.135 66.0579 111.804 88.6951C115.938 63.7651 138.453 64.0564 153.15 80.8674C158.337 86.6465 162.34 93.3089 165.911 100.169C170.008 106.061 171.013 114.546 176.849 118.925C240.25 153.787 239.63 218.635 173.626 249.833C172.93 250.134 172.216 250.632 173.1 251.252C180.354 257.896 186.697 265.488 191.301 274.199C195.756 282.478 198.913 291.489 200.163 300.83C200.238 302.334 200.867 303.292 202.324 303.846C202.39 303.987 202.672 303.987 202.784 304.091C202.944 304.279 203.32 304.335 203.508 304.551C204.185 305.002 205.011 305.35 205.632 305.98C205.876 306.224 206.346 306.384 206.581 306.694C207.013 307.06 207.605 307.427 208.009 307.878C208.028 307.943 208.206 308.066 208.263 308.103C209.296 308.921 210.302 309.823 211.101 310.96C226.887 328.231 221.757 354.74 202.051 364.673C211.383 368.403 209.766 376.268 199.881 377.048C192.185 378.091 184.451 377.321 176.774 376.56C176.097 376.503 175.862 376.635 175.947 377.387C173.833 399.61 139.196 385.261 131.819 373.008C130.109 370.818 131.133 368.328 132.27 366.073C133.304 363.761 134.431 361.496 135.202 359.081C141.46 340.945 141.122 320.911 135.775 302.578C132.402 289.281 122.272 278.118 107.603 283.305C94.5885 289.582 92.2675 306.778 90.2566 319.633C88.8282 332.77 89.8431 346.377 94.2127 358.922C95.0114 361.647 96.4397 364.118 97.4264 366.768C99.2494 369.493 98.6856 372.237 96.6277 374.389C88.5181 385.769 55.3377 399.084 53.5147 377.33C53.5993 376.644 53.3644 376.503 52.7442 376.56C44.2212 377.368 35.5666 378.392 27.0906 376.56C17.393 373.759 20.5974 367.896 27.7954 364.221C6.74636 356.009 3.36347 326.437 18.3609 310.95C19.1597 309.907 20.0993 308.902 21.1988 308.094C21.274 308.094 21.4055 307.915 21.4431 307.878C21.866 307.492 22.364 307.032 22.8714 306.694C23.1251 306.449 23.4728 306.186 23.8205 305.98C24.4407 305.434 25.1831 304.965 25.9442 304.551C26.1228 304.391 26.4516 304.26 26.6678 304.091C26.7617 304.006 27.0155 303.95 27.1376 303.837C27.5699 303.471 28.2934 303.226 28.8103 302.907C29.9379 298.02 30.7836 292.636 32.3623 287.75C32.5502 287.618 32.4187 287.186 32.5972 287.035C32.7852 286.904 32.6536 286.472 32.8415 286.331C33.0295 286.199 32.8979 285.757 33.0859 285.626C33.5463 285.147 33.5181 284.31 33.7906 283.728C34.1289 283.474 34.0443 282.863 34.2605 282.544C34.6082 282.299 34.5048 281.679 34.7397 281.36C35.172 280.993 35.1532 280.157 35.4539 279.706C35.8016 279.095 36.168 278.522 36.3842 277.798C36.5063 277.723 36.5251 277.432 36.6191 277.319C36.7882 277.084 36.9104 276.605 37.0889 276.37C37.2205 276.304 37.2299 276.013 37.3239 275.9C37.446 275.825 37.4648 275.543 37.5588 275.43C37.6809 275.355 37.6997 275.082 37.7937 274.96C38.1696 274.641 38.3011 273.992 38.5173 273.551C38.6206 273.466 38.6394 273.137 38.7616 273.081C38.7898 273.025 38.9213 272.874 38.9683 272.818C39.2502 272.667 39.2408 272.122 39.457 271.888C39.4945 271.85 39.6355 271.662 39.6731 271.624C39.814 271.568 39.8234 271.286 39.9268 271.164C40.1429 271.023 40.2745 270.704 40.3872 270.44C40.5282 270.384 40.5376 270.112 40.641 269.98C40.7443 269.905 40.7819 269.585 40.8947 269.52C40.9323 269.473 41.0638 269.322 41.1108 269.256C41.4397 268.993 41.4961 268.401 41.8344 268.082C41.8907 268.054 42.0035 267.875 42.0505 267.828C42.1914 267.762 42.1914 267.509 42.3042 267.368C42.5109 267.208 42.5579 266.841 42.7835 266.653C42.8304 266.625 42.9714 266.437 42.9996 266.39C43.2439 266.287 43.2721 265.864 43.4788 265.695C43.5916 265.62 43.6292 265.3 43.7419 265.244C46.9933 260.837 50.5829 256.73 54.5672 252.972C54.8679 252.69 55.4505 252.417 54.8773 251.797L54.896 251.806Z" fill="#FD349F"/>
<path d="M85.7632 137.52C81.1666 133.218 86.6337 126.047 89.9419 123C92.4493 126.872 99.6921 130.708 103 132.142C99.1696 135.728 90.3597 141.823 85.7632 137.52Z" fill="#FFA7AE"/>
<path d="M113.1 256.937H76.1162C105.703 273.956 136.055 264.028 147.533 256.937H113.1Z" fill="#DB0E7B"/>
<path d="M85 89L102 98L85 107" stroke="black" stroke-width="4" stroke-linecap="round"/>
<path d="M140 89L123 98L140 107" stroke="black" stroke-width="4" stroke-linecap="round"/>
<path d="M87.6338 119.691C91.1914 127.087 105.746 139.755 135.504 131.255" stroke="black" stroke-width="2.5" stroke-linecap="round"/>
<path d="M97.4986 65.3438C99.074 66.7513 100.607 68.1326 102.094 69.5564C105.201 72.5408 108.288 75.5453 111.384 78.5397C112.221 79.3482 112.185 79.6627 111.16 80.175C102.609 84.4455 94.056 88.7099 85.5028 92.9743C74.5294 98.4416 63.5539 103.903 52.5785 109.364C51.7771 109.761 51.5713 109.669 51.4666 108.816C50.8012 103.371 50.2789 97.9117 49.8089 92.3877C49.8826 91.9864 50.1988 91.907 50.4485 91.7694C59.611 86.8364 68.7167 81.7947 77.7679 76.6503C83.9784 73.1188 90.1424 69.5088 96.2883 65.8646C96.6526 65.6481 96.9886 65.3672 97.5127 65.3458L97.4986 65.3438Z" fill="#FFEC00"/>
<path d="M82.0824 50.255C84.6943 52.7265 87.2478 55.2041 89.7831 57.6878C90.9265 58.81 92.0559 59.9504 93.2196 61.133C93.1019 61.6432 92.6607 61.7914 92.3085 62.0038C87.56 64.9232 82.7689 67.7561 77.9637 70.5869C68.9372 75.9046 59.8054 81.0291 50.5947 86.0186C50.2202 86.2251 49.8498 86.4436 49.3399 86.467C48.9136 84.2365 48.8057 81.9932 48.593 79.7583C48.2751 76.429 48.0035 73.0976 47.7197 69.7098C47.7571 69.2804 48.0875 69.2232 48.3392 69.0916C58.8685 63.3633 69.3008 57.4659 79.6803 51.4719C80.4353 51.0368 81.1112 50.4265 82.0824 50.255Z" fill="#FFEC00"/>
<path d="M47.2778 63.7862C46.8818 61.5658 46.784 59.3527 46.5836 57.154C46.3232 54.3165 46.1152 51.4747 45.8889 48.5786C46.0392 48.1651 46.3694 48.0273 46.6714 47.8653C51.0542 45.4184 55.4308 42.9534 59.8014 40.4904C61.9434 39.2801 64.0612 38.0377 66.185 36.8134C66.6198 36.5665 67.0141 36.2189 67.6148 36.1853C69.7152 37.9745 71.5821 39.9296 73.5335 41.7958C75.0001 43.1995 76.4325 44.6415 77.9073 46.1097C77.862 46.5553 77.5075 46.681 77.2156 46.853C71.5972 50.1856 65.9707 53.5142 60.2836 56.7421C56.2794 59.0148 52.2651 61.2775 48.2165 63.4777C47.9386 63.6315 47.6649 63.8176 47.2678 63.7963L47.2778 63.7862Z" fill="#FFEC00"/>
<path d="M49.2509 86.5028C56.1202 82.7904 62.9047 79.0258 69.6427 75.1626C77.5361 70.6356 85.3649 65.9959 93.1953 61.2211C94.7884 62.4209 96.116 63.8712 97.5444 65.3012C81.8932 74.6794 66.0113 83.651 49.8667 92.3006C49.4432 90.4189 49.332 88.4861 49.2529 86.5088L49.2509 86.5028Z" fill="#A64A97"/>
<path d="M43.7238 22.5301C43.729 20.3834 43.4139 18.324 43.3045 16.2561C43.2792 15.7804 43.2317 15.2988 43.2327 14.8211C43.234 14.5046 43.2836 14.1719 43.632 14.0078C43.9864 13.8417 44.2468 14.0367 44.4993 14.2478C46.3612 15.7675 48.0402 17.4831 49.8297 19.0876C49.9065 19.156 49.9913 19.2283 50.1185 19.3067C54.4757 23.4311 58.7785 27.5536 63.0853 31.6681C63.2025 31.7767 63.3056 31.9034 63.443 32.0725C63.3111 32.5404 62.9284 32.7025 62.5923 32.9028C57.3261 36.023 52.0236 39.0747 46.7048 42.0982C46.3385 42.3086 45.9762 42.5513 45.4723 42.5726C45.0555 40.0902 44.9551 37.6091 44.7419 35.1322C44.3878 30.9544 44.072 26.7705 43.7298 22.5281L43.7238 22.5301Z" fill="#FFEC00"/>
<path d="M47.193 63.8144C57.5633 58.153 67.7496 52.2643 77.8891 46.1761C79.4619 47.3356 80.7532 48.7578 82.1271 50.1859C77.4287 52.9742 72.7242 55.7242 67.9832 58.4259C61.3177 62.2244 54.6056 65.9445 47.7927 69.6245C47.3619 68.1217 47.4108 66.5453 47.2118 64.9916C47.1626 64.6248 47.1778 64.2499 47.1869 63.8165L47.193 63.8144Z" fill="#A64A97"/>
<path d="M45.3786 42.5971C50.0835 39.9882 54.6874 37.2788 59.2973 34.5875C60.6582 33.7942 62.0069 32.9849 63.414 32.1492C64.3241 32.5765 64.8802 33.3715 65.5791 34.0109C66.3042 34.6684 66.9629 35.3885 67.6701 36.1328C60.5117 40.3658 53.2784 44.4358 45.9523 48.4898C45.5186 46.5779 45.4436 44.6127 45.3786 42.5971Z" fill="#A64A97"/>
</svg>
