<svg width="363" height="304" viewBox="0 0 363 304" fill="none" xmlns="http://www.w3.org/2000/svg">
<path d="M73.8753 251.516C71.368 250.994 68.697 251.999 67.3583 253.819C63.4164 251.983 57.8019 249.197 53.6312 246.418C49.4235 243.617 44.6191 239.508 41.379 236.608C42.3282 234.756 42.322 232.178 41.2121 230.1C39.7621 227.392 36.9858 226.563 35.0102 228.255C33.0346 229.943 32.6081 233.51 34.0581 236.219C34.1972 236.481 34.3548 236.72 34.5187 236.948C34.3517 236.899 34.1848 236.856 34.0086 236.818C31.0653 236.206 27.8902 237.693 26.9163 240.142C25.9425 242.591 27.5409 245.07 30.4841 245.682C33.0193 246.211 35.7245 245.175 37.0477 243.314C41.2585 245.178 47.21 247.964 50.5273 250.174C53.9529 252.456 59.3755 257.257 62.9897 260.565C62.0281 262.42 62.0281 265.011 63.1442 267.098C64.5942 269.806 67.3705 270.635 69.3461 268.944C71.3217 267.256 71.7483 263.688 70.2984 260.98C70.1592 260.717 70.0016 260.479 69.8378 260.25C70.0047 260.3 70.1716 260.343 70.3479 260.38C73.2911 260.992 76.4662 259.505 77.4401 257.056C78.414 254.608 76.8156 252.128 73.8723 251.516H73.8753Z" fill="#D8D8D8" stroke="#AAAAAA" stroke-miterlimit="10"/>
<path d="M50.1566 276.16C48.8396 274.558 46.6043 273.835 44.7802 274.299C43.2529 271.145 41.1753 266.548 40.0067 262.686C38.8288 258.791 37.9693 253.773 37.4623 250.31C39.0545 249.627 40.4334 248.007 40.8353 246.14C41.3609 243.704 40.0376 241.774 37.8797 241.833C35.7186 241.892 33.542 243.914 33.0133 246.35C32.9608 246.585 32.9329 246.817 32.9175 247.043C32.8371 246.928 32.7538 246.814 32.661 246.702C31.1152 244.823 28.3017 244.146 26.3756 245.188C24.4495 246.229 24.1372 248.598 25.683 250.477C27.0155 252.097 29.2879 252.821 31.1244 252.323C32.8032 255.631 35.1002 260.398 36.0277 263.472C36.9861 266.644 37.8673 272.41 38.396 276.32C36.7945 276.998 35.4063 278.624 35.0013 280.5C34.4757 282.937 35.799 284.866 37.957 284.807C40.118 284.748 42.2945 282.726 42.8232 280.29C42.8757 280.055 42.9036 279.823 42.919 279.598C42.9994 279.712 43.0829 279.826 43.1756 279.938C44.7215 281.817 47.5349 282.494 49.461 281.453C51.3871 280.411 51.6993 278.043 50.1534 276.163L50.1566 276.16Z" fill="#D8D8D8" stroke="#AAAAAA" stroke-miterlimit="10"/>
<path d="M47.3247 282.266C47.2227 282.256 47.1207 282.253 47.0156 282.253C45.1204 282.272 26.5766 282.615 24.5701 289.327C22.7553 295.402 45.5903 293.887 52.0858 293.34C53.2328 293.244 54.2284 292.527 54.6736 291.472C55.8824 288.61 56.9027 283.085 47.3247 282.266Z" fill="#D8D8D8" stroke="#AAAAAA" stroke-miterlimit="10"/>
<path d="M148.25 251.516C150.757 250.994 153.428 251.999 154.767 253.82C158.709 251.983 164.323 249.198 168.494 246.418C172.701 243.617 177.506 239.508 180.746 236.608C179.797 234.757 179.803 232.178 180.913 230.1C182.363 227.392 185.139 226.564 187.115 228.255C189.09 229.943 189.517 233.511 188.067 236.219C187.928 236.482 187.77 236.72 187.606 236.949C187.773 236.899 187.94 236.856 188.116 236.819C191.06 236.206 194.235 237.694 195.209 240.142C196.183 242.591 194.584 245.07 191.641 245.682C189.106 246.211 186.401 245.175 185.077 243.314C180.866 245.178 174.915 247.964 171.598 250.175C168.172 252.456 162.749 257.258 159.135 260.566C160.097 262.421 160.097 265.011 158.981 267.098C157.531 269.807 154.754 270.635 152.779 268.944C150.803 267.256 150.377 263.688 151.827 260.98C151.966 260.717 152.123 260.479 152.287 260.25C152.12 260.3 151.953 260.343 151.777 260.38C148.834 260.992 145.659 259.505 144.685 257.057C143.711 254.608 145.309 252.129 148.253 251.516H148.25Z" fill="#D8D8D8" stroke="#AAAAAA" stroke-miterlimit="10"/>
<path d="M171.972 276.16C173.289 274.558 175.524 273.835 177.348 274.299C178.876 271.145 180.953 266.548 182.122 262.686C183.3 258.791 184.159 253.773 184.666 250.31C183.074 249.627 181.695 248.007 181.293 246.14C180.768 243.704 182.091 241.774 184.249 241.833C186.41 241.892 188.587 243.914 189.115 246.35C189.168 246.585 189.196 246.817 189.211 247.043C189.291 246.928 189.375 246.814 189.468 246.703C191.014 244.823 193.827 244.146 195.753 245.188C197.679 246.229 197.991 248.598 196.445 250.477C195.113 252.097 192.841 252.821 191.004 252.323C189.325 255.631 187.028 260.399 186.101 263.472C185.142 266.644 184.261 272.41 183.733 276.321C185.334 276.998 186.722 278.624 187.127 280.5C187.653 282.937 186.33 284.866 184.172 284.807C182.011 284.748 179.834 282.726 179.305 280.29C179.253 280.055 179.225 279.823 179.21 279.598C179.129 279.712 179.046 279.826 178.953 279.938C177.407 281.818 174.594 282.495 172.668 281.453C170.741 280.411 170.429 278.043 171.975 276.163L171.972 276.16Z" fill="#D8D8D8" stroke="#AAAAAA" stroke-miterlimit="10"/>
<path d="M174.801 282.266C174.903 282.256 175.005 282.253 175.11 282.253C177.005 282.272 195.549 282.615 197.555 289.327C199.37 295.402 176.535 293.887 170.04 293.34C168.893 293.244 167.897 292.527 167.452 291.472C166.243 288.61 165.223 283.085 174.801 282.266Z" fill="#D8D8D8" stroke="#AAAAAA" stroke-miterlimit="10"/>
<path d="M87.2015 247.918C84.8858 247.482 83.3245 246.969 83.003 246.864C82.8917 246.826 79.1292 245.834 67.922 241.197C46.6266 232.385 43.467 227.97 43.2259 224.514C43.1362 223.216 43.4762 220.792 46.7781 219.159C52.6399 216.259 62.694 216.309 76.6621 219.308C86.7316 221.469 95.1007 224.356 95.45 224.477C97.0639 225.036 97.9172 226.799 97.3576 228.409C96.798 230.023 95.0389 230.877 93.4251 230.317C93.3416 230.289 85.0126 227.417 75.3048 225.339C63.3988 222.792 54.3837 222.517 49.8328 224.554C51.0973 225.942 55.577 229.47 71.2888 235.894C81.9396 240.25 84.8952 241.602 87.6869 242.739C89.2668 243.382 96.5538 246.054 94.5659 247.231C93.391 247.93 90.7383 248.307 87.2015 247.915V247.918Z" fill="#D8D8D8" stroke="#AAAAAA" stroke-miterlimit="10"/>
<path d="M87.2015 232.043C84.8858 231.607 83.3245 231.093 83.003 230.988C82.8917 230.951 79.1292 229.959 67.922 225.321C46.6266 216.51 43.467 212.095 43.2259 208.639C43.1362 207.34 43.4762 204.916 46.7781 203.284C52.6399 200.384 62.694 200.434 76.6621 203.432C86.7316 205.593 95.1007 208.481 95.45 208.602C97.0639 209.161 97.9172 210.923 97.3576 212.534C96.798 214.148 95.0389 215.001 93.4251 214.442C93.3416 214.414 85.0126 211.542 75.3048 209.464C63.3988 206.917 54.3837 206.642 49.8328 208.679C51.0973 210.067 55.577 213.595 71.2888 220.019C81.9396 224.375 84.8952 225.726 87.6869 226.864C89.2668 227.507 96.5538 230.178 94.5659 231.356C93.391 232.055 90.7383 232.432 87.2015 232.039V232.043Z" fill="#D8D8D8" stroke="#AAAAAA" stroke-miterlimit="10"/>
<path d="M87.2015 217.468C84.8858 217.032 83.3245 216.519 83.003 216.414C82.8917 216.377 79.1292 215.384 67.922 210.747C46.6266 201.936 43.467 197.521 43.2259 194.064C43.1362 192.766 43.4762 190.342 46.7781 188.71C52.6399 185.81 62.694 185.859 76.6621 188.858C86.7316 191.019 95.1007 193.907 95.45 194.027C97.0639 194.587 97.9172 196.349 97.3576 197.96C96.798 199.574 95.0389 200.427 93.4251 199.867C93.3416 199.84 85.0126 196.967 75.3048 194.89C63.3988 192.342 54.3837 192.067 49.8328 194.105C51.0973 195.493 55.577 199.02 71.2888 205.445C81.9396 209.801 84.8952 211.152 87.6869 212.29C89.2668 212.933 96.5538 215.604 94.5659 216.782C93.391 217.481 90.7383 217.858 87.2015 217.465V217.468Z" fill="#D8D8D8" stroke="#AAAAAA" stroke-miterlimit="10"/>
<path d="M134.924 247.918C137.24 247.482 138.801 246.969 139.123 246.863C139.234 246.826 142.997 245.834 154.204 241.196C175.499 232.385 178.659 227.97 178.9 224.514C178.99 223.215 178.65 220.792 175.348 219.159C169.486 216.259 159.432 216.309 145.464 219.308C135.394 221.469 127.025 224.356 126.676 224.477C125.062 225.036 124.209 226.799 124.768 228.409C125.328 230.023 127.087 230.877 128.701 230.317C128.784 230.289 137.113 227.417 146.821 225.339C158.727 222.792 167.742 222.517 172.293 224.554C171.029 225.942 166.549 229.47 150.837 235.894C140.186 240.25 137.231 241.601 134.439 242.739C132.859 243.382 125.572 246.053 127.56 247.231C128.735 247.93 131.388 248.307 134.924 247.915V247.918Z" fill="#D8D8D8" stroke="#AAAAAA" stroke-miterlimit="10"/>
<path d="M134.924 232.042C137.24 231.606 138.801 231.093 139.123 230.987C139.234 230.95 142.997 229.958 154.204 225.32C175.499 216.509 178.659 212.094 178.9 208.638C178.99 207.339 178.65 204.916 175.348 203.283C169.486 200.383 159.432 200.433 145.464 203.432C135.394 205.593 127.025 208.48 126.676 208.601C125.062 209.16 124.209 210.923 124.768 212.533C125.328 214.147 127.087 215.001 128.701 214.441C128.784 214.413 137.113 211.541 146.821 209.463C158.727 206.916 167.742 206.641 172.293 208.678C171.029 210.066 166.549 213.594 150.837 220.018C140.186 224.374 137.231 225.725 134.439 226.863C132.859 227.506 125.572 230.177 127.56 231.355C128.735 232.054 131.388 232.431 134.924 232.039V232.042Z" fill="#D8D8D8" stroke="#AAAAAA" stroke-miterlimit="10"/>
<path d="M134.924 217.468C137.24 217.032 138.801 216.519 139.123 216.414C139.234 216.377 142.997 215.384 154.204 210.747C175.499 201.936 178.659 197.521 178.9 194.064C178.99 192.766 178.65 190.342 175.348 188.71C169.486 185.81 159.432 185.859 145.464 188.858C135.394 191.019 127.025 193.907 126.676 194.027C125.062 194.587 124.209 196.349 124.768 197.96C125.328 199.574 127.087 200.427 128.701 199.867C128.784 199.84 137.113 196.967 146.821 194.89C158.727 192.342 167.742 192.067 172.293 194.105C171.029 195.493 166.549 199.02 150.837 205.445C140.186 209.801 137.231 211.152 134.439 212.29C132.859 212.933 125.572 215.604 127.56 216.782C128.735 217.48 131.388 217.858 134.924 217.465V217.468Z" fill="#D8D8D8" stroke="#AAAAAA" stroke-miterlimit="10"/>
<path d="M116.999 189.656H104.65C102.601 189.656 100.94 191.317 100.94 193.366V205.714C100.94 207.763 102.601 209.424 104.65 209.424H116.999C119.048 209.424 120.709 207.763 120.709 205.714V193.366C120.709 191.317 119.048 189.656 116.999 189.656Z" fill="#D8D8D8" stroke="#AAAAAA" stroke-miterlimit="10"/>
<path d="M116.999 212.782H104.65C102.601 212.782 100.94 214.443 100.94 216.492V228.84C100.94 230.889 102.601 232.55 104.65 232.55H116.999C119.048 232.55 120.709 230.889 120.709 228.84V216.492C120.709 214.443 119.048 212.782 116.999 212.782Z" fill="#D8D8D8" stroke="#AAAAAA" stroke-miterlimit="10"/>
<path d="M116.999 235.907H104.65C102.601 235.907 100.94 237.568 100.94 239.617V251.965C100.94 254.014 102.601 255.675 104.65 255.675H116.999C119.048 255.675 120.709 254.014 120.709 251.965V239.617C120.709 237.568 119.048 235.907 116.999 235.907Z" fill="#D8D8D8" stroke="#AAAAAA" stroke-miterlimit="10"/>
<path d="M143.019 258.244C133.067 251.195 126.049 260.099 120.709 263.061V262.659C120.709 260.619 119.04 258.949 116.999 258.949H104.651C102.611 258.949 100.941 260.619 100.941 262.659V263.868C95.3762 262.696 87.876 250.271 76.6223 258.241C65.3687 266.212 66.0457 279.608 67.9502 283.324C72.4671 292.144 81.8101 294.506 95.5092 288.799C95.5092 288.799 102.583 284.493 106.055 284.282C109.527 284.072 109.824 284.106 109.824 284.106C109.824 284.106 110.12 284.072 113.592 284.282C117.064 284.493 124.138 288.799 124.138 288.799C137.837 294.509 147.18 292.147 151.697 283.324C153.598 279.608 154.275 266.212 143.025 258.241L143.019 258.244ZM85.6469 282.137C82.3635 282.866 78.9596 280.124 78.0476 276.009C77.1324 271.894 79.0554 267.968 82.3387 267.238C85.6221 266.508 89.026 269.251 89.938 273.366C90.8532 277.481 88.9302 281.407 85.6469 282.137ZM143.603 276.009C142.688 280.124 139.287 282.866 136.004 282.137C132.72 281.407 130.8 277.481 131.712 273.366C132.628 269.251 136.028 266.508 139.312 267.238C142.595 267.968 144.515 271.894 143.603 276.009Z" fill="#D8D8D8" stroke="#AAAAAA" stroke-miterlimit="10"/>
<path d="M51.6046 229.504C53.2339 227.037 56.3842 225.655 59.1636 226.014C60.8021 221.324 62.9787 214.507 63.9526 208.874C64.9358 203.194 65.2355 195.981 65.3159 191.016C62.8395 190.311 60.4992 188.249 59.5438 185.68C58.2979 182.332 59.8747 179.398 63.0653 179.132C66.2559 178.866 69.8514 181.364 71.0974 184.712C71.218 185.037 71.3046 185.355 71.3726 185.671C71.4653 185.494 71.5674 185.321 71.6817 185.148C73.5955 182.251 77.6084 180.842 80.6475 182.001C83.6866 183.16 84.5986 186.447 82.6849 189.344C81.037 191.839 77.8311 193.227 75.03 192.822C73.1936 197.756 70.7326 204.848 69.9566 209.328C69.1558 213.953 68.9703 222.223 68.9424 227.822C71.4312 228.518 73.7871 230.586 74.7455 233.168C75.9914 236.516 74.4148 239.447 71.2242 239.716C68.0336 239.982 64.438 237.484 63.1921 234.135C63.0715 233.811 62.9849 233.492 62.9169 233.177C62.8241 233.353 62.719 233.526 62.6077 233.7C60.694 236.596 56.681 238.006 53.6419 236.847C50.6028 235.687 49.6908 232.401 51.6046 229.504Z" fill="#D8D8D8" stroke="#AAAAAA" stroke-miterlimit="10"/>
<path d="M64.3418 277.703C64.4995 275.316 66.0731 273.165 68.0456 272.416C67.3809 268.406 66.2803 262.653 64.8273 258.198C63.3742 253.743 60.8699 248.348 59.0706 244.703C57.1661 245.089 54.8504 244.437 53.2582 242.916C51.1837 240.931 51.1374 238.223 53.1501 236.869C55.1628 235.514 58.477 236.028 60.5515 238.012C60.7524 238.204 60.9287 238.405 61.0925 238.609C61.0925 238.448 61.0925 238.285 61.1049 238.118C61.2904 235.313 63.4236 232.831 65.866 232.568C68.3115 232.308 70.1418 234.37 69.9563 237.175C69.7955 239.589 68.1909 241.766 66.1844 242.489C66.8089 246.749 67.823 252.806 68.9793 256.349C70.1726 260.006 73.1345 266.094 75.2059 270.181C77.1134 269.782 79.4445 270.435 81.0429 271.962C83.1174 273.947 83.1638 276.655 81.1511 278.009C79.1385 279.363 75.8242 278.85 73.7497 276.865C73.5488 276.674 73.3726 276.473 73.2087 276.269C73.2087 276.429 73.2087 276.593 73.1963 276.76C73.0108 279.564 70.8776 282.047 68.4352 282.31C65.9897 282.569 64.1594 280.507 64.348 277.703H64.3418Z" fill="#D8D8D8" stroke="#AAAAAA" stroke-miterlimit="10"/>
<path d="M91.944 285.382C93.8423 291.547 87.6125 298.194 78.2664 301.069C68.9204 303.945 58.2172 304.603 56.3189 298.438C54.4206 292.274 59.5341 287.308 69.8046 282.065C81.1633 276.268 90.0456 279.215 91.9408 285.382H91.944Z" fill="#D8D8D8" stroke="#AAAAAA" stroke-miterlimit="10"/>
<path d="M63.0186 302.998V296.119" stroke="#AAAAAA" stroke-miterlimit="10"/>
<path d="M69.9316 302.998V292.75" stroke="#AAAAAA" stroke-miterlimit="10"/>
<path d="M76.9033 301.57V289.89" stroke="#AAAAAA" stroke-miterlimit="10"/>
<path d="M199.824 180.854C196.902 181.306 194.33 183.594 193.498 186.268C188.551 185.801 181.447 184.935 175.922 183.473C170.351 181.998 163.67 179.262 159.125 177.262C159.518 174.717 158.618 171.731 156.683 169.792C154.157 167.263 150.836 167.474 149.263 170.262C147.689 173.051 148.462 177.361 150.985 179.89C151.229 180.134 151.483 180.347 151.742 180.539C151.544 180.551 151.343 180.573 151.139 180.604C147.708 181.133 144.755 184.193 144.539 187.44C144.325 190.686 146.932 192.884 150.363 192.355C153.319 191.898 155.919 189.563 156.717 186.849C161.966 187.239 169.439 187.959 173.835 189.121C178.371 190.324 185.967 193.604 191.068 195.914C190.663 198.467 191.56 201.469 193.504 203.417C196.03 205.946 199.351 205.736 200.924 202.947C202.498 200.159 201.725 195.849 199.202 193.32C198.958 193.076 198.704 192.862 198.445 192.671C198.643 192.658 198.843 192.637 199.048 192.606C202.479 192.077 205.432 189.016 205.648 185.77C205.862 182.524 203.255 180.326 199.824 180.854Z" fill="#D8D8D8" stroke="#AAAAAA" stroke-miterlimit="10"/>
<path d="M192.38 222.372C192.874 220.545 192.253 218.532 190.97 217.465C192.497 214.637 194.8 210.617 197.032 207.662C199.283 204.681 202.526 201.312 204.808 199.052C206.131 199.831 208.033 199.939 209.612 199.209C211.675 198.257 212.407 196.244 211.248 194.717C210.092 193.187 207.479 192.72 205.42 193.672C205.219 193.765 205.037 193.87 204.864 193.981C204.907 193.861 204.947 193.737 204.981 193.61C205.562 191.465 204.607 189.059 202.845 188.237C201.083 187.415 199.184 188.484 198.603 190.63C198.102 192.479 198.745 194.516 200.056 195.573C198.495 198.597 196.179 202.867 194.405 205.219C192.571 207.646 188.793 211.44 186.193 213.963C184.87 213.174 182.959 213.063 181.37 213.796C179.308 214.748 178.575 216.761 179.735 218.288C180.891 219.818 183.503 220.285 185.562 219.333C185.763 219.24 185.946 219.135 186.119 219.024C186.076 219.144 186.036 219.268 186.002 219.395C185.42 221.54 186.376 223.946 188.138 224.768C189.9 225.59 191.798 224.521 192.38 222.375V222.372Z" fill="#D8D8D8" stroke="#AAAAAA" stroke-miterlimit="10"/>
<path d="M257.425 28.6851L251.968 45.6304C251.968 45.6304 331.667 81.9944 362.269 138.034C337.418 62.5974 257.425 28.6882 257.425 28.6882V28.6851Z" fill="#EFEFEF"/>
<path d="M251.971 45.6302L246.399 62.928C246.399 62.928 269.986 70.7251 294.648 84.7767C329.58 104.678 362.268 138.034 362.268 138.034C331.667 81.9973 251.967 45.6302 251.967 45.6302H251.971Z" fill="#CECECE"/>
<path fill-rule="evenodd" clip-rule="evenodd" d="M253.379 22.2558C255.817 23.0407 257.158 25.6534 256.373 28.0914L168.588 300.757C167.803 303.195 165.191 304.535 162.753 303.75C160.315 302.965 158.975 300.352 159.76 297.914L247.544 25.249C248.329 22.811 250.941 21.4709 253.379 22.2558Z" fill="#898989"/>
<path d="M245.844 20.9957L232.556 62.2599C232.124 63.6008 232.861 65.0378 234.202 65.4696L243.766 68.5495C245.107 68.9813 246.544 68.2444 246.976 66.9035L260.264 25.6393C260.696 24.2984 259.959 22.8614 258.618 22.4296L249.054 19.3497C247.713 18.9179 246.276 19.6548 245.844 20.9957Z" fill="black"/>
<path d="M172.253 47.1955C159.84 19.6767 144.966 1 129.031 1C113.097 1 112.534 15.6359 111.279 19.5808C111.063 20.2579 110.825 20.2424 110.825 20.2424C110.825 20.2424 110.587 20.2579 110.37 19.5808C109.115 15.6359 108.549 1 92.6179 1C76.6866 1 61.8096 19.6767 49.3966 47.1955C49.3966 47.1955 24.4531 60.4401 10.3799 81.2593C15.4255 78.3501 24.617 73.2828 35.5986 68.2589C58.1182 57.9606 77.0545 52.7388 91.8821 52.7388C92.6488 52.7388 93.2888 53.2397 93.4001 53.9971C93.4218 54.093 94.1514 56.9868 99.2928 56.9868C105.26 56.9868 109.637 53.6972 109.681 53.6632C110.018 53.4066 110.426 53.3077 110.815 53.3602C111.211 53.3077 111.625 53.4035 111.969 53.6663C112.009 53.6972 116.387 56.9868 122.353 56.9868C127.498 56.9868 128.224 54.0899 128.252 53.9693C128.367 53.2118 129 52.7388 129.764 52.7388C144.592 52.7388 163.528 57.9606 186.048 68.2589C197.029 73.2798 206.218 78.3501 211.266 81.2593C197.193 60.4401 172.25 47.1955 172.25 47.1955H172.253ZM93.938 31.0138C91.7615 32.7513 87.6712 33.3201 84.7156 31.1158C79.2526 26.0702 81.1416 17.967 87.6836 15.1536C91.7058 13.4254 95.6106 15.809 97.1503 19.4881C98.8661 23.5969 97.4408 28.2158 93.938 31.0107V31.0138ZM140.467 26.2526C139.076 29.3164 136.566 30.9025 133.304 31.1405C129.894 31.3909 127.189 29.9966 125.566 26.9235C124.453 24.815 124.502 22.5396 124.919 20.2115C125.337 17.8804 126.413 16.0594 128.398 14.795C130.367 13.5397 132.466 13.2584 134.627 14.2323C136.559 15.1041 138.39 16.146 139.608 18.0937C141.027 20.7464 141.757 23.4145 140.467 26.2526Z" fill="#D8D8D8" stroke="#AAAAAA" stroke-miterlimit="10"/>
<path d="M214.519 92.8467C214.293 92.5715 214.04 92.488 213.82 92.352C213.332 92.049 165.13 62.7061 130.822 62.1002C130.002 63.7295 127.835 66.3388 122.354 66.3388C116.872 66.3388 112.485 63.9675 110.825 62.8916C109.165 63.9675 104.87 66.3388 99.293 66.3388C93.7156 66.3388 91.6442 63.7295 90.8249 62.1002C56.5168 62.703 8.50964 92.0212 7.8975 92.3922C7.67799 92.5251 7.89742 92.3922 7.1276 92.8436C3.88755 94.7635 1 100.931 1 108.96C1 145.034 40.7648 171.313 54.2753 175.468C54.2753 175.468 101.414 198.297 167.371 175.468C181.772 170.147 220.647 145.034 220.647 108.96C220.647 100.928 218.702 96.4546 214.519 92.8436V92.8467Z" fill="#D8D8D8" stroke="#AAAAAA" stroke-miterlimit="10"/>
<path d="M205.503 183.968C197.19 181.059 187.269 188.509 182.198 200.239C177.131 211.969 174.973 225.612 183.287 228.522C191.6 231.431 199.063 225.278 207.516 212.547C216.862 198.471 213.817 186.877 205.503 183.968Z" fill="#D8D8D8" stroke="#AAAAAA" stroke-miterlimit="10"/>
<path d="M177.852 220.406L187.374 220.941" stroke="#AAAAAA" stroke-miterlimit="10"/>
<path d="M178.655 211.561L192.84 212.362" stroke="#AAAAAA" stroke-miterlimit="10"/>
<path d="M181.447 202.756L197.61 203.665" stroke="#AAAAAA" stroke-miterlimit="10"/>
</svg>
