<svg width="991" height="833" viewBox="0 0 991 833" fill="none" xmlns="http://www.w3.org/2000/svg">
<path d="M200.543 686.58C193.678 685.15 186.364 687.9 182.699 692.884C171.905 687.858 156.532 680.234 145.112 672.626C133.591 664.96 120.436 653.714 111.564 645.776C114.163 640.707 114.146 633.65 111.107 627.964C107.137 620.551 99.5347 618.283 94.1254 622.912C88.716 627.532 87.5481 637.297 91.5184 644.71C91.8993 645.429 92.3308 646.081 92.7795 646.707C92.3224 646.572 91.8653 646.453 91.3828 646.352C83.3238 644.676 74.6299 648.746 71.9633 655.448C69.2967 662.15 73.6734 668.937 81.7324 670.612C88.674 672.059 96.0811 669.224 99.7043 664.13C111.234 669.233 127.53 676.857 136.613 682.908C145.993 689.153 160.841 702.294 170.737 711.348C168.104 716.426 168.104 723.517 171.16 729.229C175.13 736.641 182.732 738.909 188.142 734.28C193.551 729.66 194.719 719.895 190.749 712.482C190.368 711.763 189.937 711.111 189.488 710.485C189.945 710.621 190.402 710.739 190.885 710.841C198.944 712.516 207.637 708.446 210.304 701.744C212.971 695.042 208.594 688.256 200.535 686.58H200.543Z" fill="#D8D8D8" stroke="#AAAAAA" stroke-miterlimit="10"/>
<path d="M135.598 754.031C131.991 749.647 125.871 747.667 120.876 748.937C116.694 740.305 111.006 727.722 107.806 717.153C104.58 706.491 102.227 692.757 100.839 683.28C105.198 681.41 108.974 676.975 110.075 671.864C111.514 665.196 107.89 659.916 101.982 660.077C96.0644 660.238 90.1046 665.772 88.657 672.44C88.5131 673.083 88.4369 673.718 88.3945 674.335C88.1744 674.022 87.9462 673.709 87.6923 673.405C83.4596 668.26 75.7561 666.406 70.4821 669.258C65.2082 672.11 64.353 678.592 68.5857 683.737C72.2343 688.171 78.4564 690.151 83.4848 688.788C88.0815 697.843 94.3711 710.891 96.9107 719.303C99.535 727.985 101.948 743.766 103.395 754.471C99.0103 756.324 95.2094 760.775 94.1004 765.911C92.6613 772.579 96.2845 777.86 102.193 777.699C108.111 777.538 114.07 772.004 115.518 765.336C115.661 764.693 115.738 764.058 115.78 763.44C116 763.753 116.229 764.067 116.483 764.371C120.715 769.516 128.419 771.369 133.693 768.518C138.967 765.666 139.822 759.184 135.589 754.039L135.598 754.031Z" fill="#D8D8D8" stroke="#AAAAAA" stroke-miterlimit="10"/>
<path d="M127.843 770.743C127.564 770.718 127.284 770.709 126.997 770.709C121.807 770.76 71.0321 771.7 65.5381 790.071C60.5689 806.698 123.094 802.552 140.88 801.054C144.02 800.792 146.746 798.829 147.965 795.943C151.275 788.107 154.069 772.986 127.843 770.743Z" fill="#D8D8D8" stroke="#AAAAAA" stroke-miterlimit="10"/>
<path d="M404.187 686.58C411.052 685.15 418.366 687.9 422.032 692.884C432.825 687.858 448.198 680.234 459.618 672.626C471.139 664.96 484.295 653.714 493.166 645.776C490.567 640.707 490.584 633.65 493.623 627.964C497.594 620.551 505.195 618.283 510.604 622.912C516.014 627.532 517.182 637.297 513.212 644.71C512.831 645.429 512.399 646.081 511.951 646.707C512.408 646.572 512.865 646.453 513.347 646.352C521.406 644.676 530.1 648.746 532.767 655.448C535.434 662.15 531.057 668.937 522.998 670.612C516.056 672.059 508.649 669.224 505.026 664.13C493.496 669.233 477.2 676.857 468.117 682.908C458.737 689.153 443.889 702.294 433.993 711.348C436.626 716.426 436.626 723.517 433.57 729.229C429.6 736.641 421.998 738.909 416.589 734.28C411.179 729.66 410.011 719.895 413.981 712.482C414.362 711.763 414.794 711.111 415.242 710.485C414.785 710.621 414.328 710.739 413.846 710.841C405.787 712.516 397.093 708.446 394.426 701.744C391.76 695.042 396.136 688.256 404.195 686.58H404.187Z" fill="#D8D8D8" stroke="#AAAAAA" stroke-miterlimit="10"/>
<path d="M469.142 754.031C472.748 749.647 478.868 747.667 483.863 748.937C488.045 740.305 493.734 727.722 496.933 717.153C500.159 706.491 502.512 692.757 503.9 683.28C499.541 681.41 495.765 676.975 494.665 671.864C493.226 665.196 496.849 659.916 502.758 660.077C508.675 660.238 514.635 665.772 516.082 672.44C516.226 673.083 516.302 673.718 516.345 674.335C516.565 674.022 516.793 673.709 517.047 673.405C521.28 668.26 528.984 666.406 534.257 669.258C539.531 672.11 540.386 678.592 536.153 683.737C532.505 688.171 526.283 690.151 521.254 688.788C516.658 697.843 510.368 710.891 507.828 719.303C505.204 727.985 502.791 743.766 501.344 754.471C505.729 756.324 509.53 760.775 510.639 765.911C512.078 772.579 508.455 777.86 502.546 777.699C496.629 777.538 490.669 772.004 489.222 765.336C489.078 764.693 489.001 764.058 488.959 763.44C488.739 763.753 488.51 764.067 488.256 764.371C484.024 769.516 476.32 771.369 471.046 768.518C465.772 765.666 464.918 759.184 469.15 754.039L469.142 754.031Z" fill="#D8D8D8" stroke="#AAAAAA" stroke-miterlimit="10"/>
<path d="M476.887 770.743C477.166 770.718 477.446 770.709 477.734 770.709C482.923 770.76 533.698 771.7 539.192 790.071C544.161 806.698 481.636 802.552 463.85 801.054C460.709 800.792 457.984 798.829 456.765 795.943C453.455 788.107 450.661 772.986 476.887 770.743Z" fill="#D8D8D8" stroke="#AAAAAA" stroke-miterlimit="10"/>
<path d="M237.032 676.73C230.691 675.537 226.416 674.133 225.536 673.845C225.231 673.743 214.929 671.027 184.242 658.334C125.933 634.217 117.281 622.134 116.621 612.673C116.375 609.119 117.306 602.485 126.347 598.017C142.398 590.079 169.927 590.215 208.173 598.423C235.745 604.338 258.661 612.241 259.617 612.571C264.036 614.103 266.373 618.926 264.84 623.335C263.308 627.752 258.492 630.088 254.073 628.556C253.844 628.48 231.038 620.619 204.457 614.932C171.857 607.96 147.172 607.207 134.711 612.783C138.174 616.582 150.44 626.238 193.461 643.822C222.624 655.745 230.717 659.443 238.361 662.557C242.687 664.317 262.64 671.628 257.196 674.852C253.98 676.764 246.716 677.797 237.032 676.722V676.73Z" fill="#D8D8D8" stroke="#AAAAAA" stroke-miterlimit="10"/>
<path d="M237.032 633.278C230.691 632.085 226.416 630.681 225.536 630.393C225.231 630.291 214.929 627.575 184.242 614.882C125.933 590.765 117.281 578.681 116.621 569.221C116.375 565.667 117.306 559.033 126.347 554.565C142.398 546.627 169.927 546.763 208.173 554.971C235.745 560.886 258.661 568.789 259.617 569.119C264.036 570.651 266.373 575.474 264.84 579.883C263.308 584.3 258.492 586.636 254.073 585.104C253.844 585.028 231.038 577.167 204.457 571.48C171.857 564.507 147.172 563.754 134.711 569.331C138.174 573.13 150.44 582.785 193.461 600.37C222.624 612.293 230.717 615.99 238.361 619.104C242.687 620.865 262.64 628.176 257.196 631.4C253.98 633.312 246.716 634.345 237.032 633.27V633.278Z" fill="#D8D8D8" stroke="#AAAAAA" stroke-miterlimit="10"/>
<path d="M237.032 593.388C230.691 592.195 226.416 590.79 225.536 590.503C225.231 590.401 214.929 587.685 184.242 574.992C125.933 550.875 117.281 538.791 116.621 529.331C116.375 525.777 117.306 519.142 126.347 514.674C142.398 506.737 169.927 506.872 208.173 515.081C235.745 520.996 258.661 528.899 259.617 529.229C264.036 530.761 266.373 535.584 264.84 539.993C263.308 544.41 258.492 546.746 254.073 545.214C253.844 545.138 231.038 537.277 204.457 531.59C171.857 524.617 147.172 523.864 134.711 529.441C138.174 533.24 150.44 542.895 193.461 560.479C222.624 572.402 230.717 576.1 238.361 579.214C242.687 580.974 262.64 588.286 257.196 591.51C253.98 593.422 246.716 594.454 237.032 593.38V593.388Z" fill="#D8D8D8" stroke="#AAAAAA" stroke-miterlimit="10"/>
<path d="M367.703 676.73C374.043 675.537 378.318 674.133 379.198 673.845C379.503 673.743 389.806 671.027 420.492 658.334C478.802 634.217 487.453 622.134 488.114 612.673C488.359 609.119 487.428 602.485 478.387 598.017C462.337 590.079 434.807 590.215 396.561 598.423C368.989 604.338 346.074 612.241 345.117 612.571C340.698 614.103 338.362 618.926 339.894 623.335C341.426 627.752 346.243 630.088 350.662 628.556C350.89 628.48 373.696 620.619 400.277 614.932C432.877 607.96 457.562 607.207 470.023 612.783C466.561 616.582 454.295 626.238 411.274 643.822C382.11 655.745 374.018 659.443 366.373 662.557C362.048 664.317 342.095 671.628 347.538 674.852C350.755 676.764 358.018 677.797 367.703 676.722V676.73Z" fill="#D8D8D8" stroke="#AAAAAA" stroke-miterlimit="10"/>
<path d="M367.703 633.278C374.043 632.085 378.318 630.681 379.198 630.393C379.503 630.291 389.806 627.575 420.492 614.882C478.802 590.765 487.453 578.681 488.114 569.221C488.359 565.667 487.428 559.033 478.387 554.565C462.337 546.627 434.807 546.763 396.561 554.971C368.989 560.886 346.074 568.789 345.117 569.119C340.698 570.651 338.362 575.474 339.894 579.883C341.426 584.3 346.243 586.636 350.662 585.104C350.89 585.028 373.696 577.167 400.277 571.48C432.877 564.507 457.562 563.754 470.023 569.331C466.561 573.13 454.295 582.785 411.274 600.37C382.11 612.293 374.018 615.99 366.373 619.104C362.048 620.865 342.095 628.176 347.538 631.4C350.755 633.312 358.018 634.345 367.703 633.27V633.278Z" fill="#D8D8D8" stroke="#AAAAAA" stroke-miterlimit="10"/>
<path d="M367.703 593.388C374.043 592.195 378.318 590.79 379.198 590.503C379.503 590.401 389.806 587.685 420.492 574.992C478.802 550.875 487.453 538.791 488.114 529.331C488.359 525.777 487.428 519.142 478.387 514.674C462.337 506.737 434.807 506.872 396.561 515.081C368.989 520.996 346.074 528.899 345.117 529.229C340.698 530.761 338.362 535.584 339.894 539.993C341.426 544.41 346.243 546.746 350.662 545.214C350.89 545.138 373.696 537.277 400.277 531.59C432.877 524.617 457.562 523.864 470.023 529.441C466.561 533.24 454.295 542.895 411.274 560.479C382.11 572.402 374.018 576.1 366.373 579.214C362.048 580.974 342.095 588.286 347.538 591.51C350.755 593.422 358.018 594.454 367.703 593.38V593.388Z" fill="#D8D8D8" stroke="#AAAAAA" stroke-miterlimit="10"/>
<path d="M318.62 517.264H284.809C279.198 517.264 274.65 521.81 274.65 527.418V561.215C274.65 566.824 279.198 571.37 284.809 571.37H318.62C324.23 571.37 328.778 566.824 328.778 561.215V527.418C328.778 521.81 324.23 517.264 318.62 517.264Z" fill="#D8D8D8" stroke="#AAAAAA" stroke-miterlimit="10"/>
<path d="M318.62 580.559H284.809C279.198 580.559 274.65 585.106 274.65 590.714V624.511C274.65 630.119 279.198 634.666 284.809 634.666H318.62C324.23 634.666 328.778 630.119 328.778 624.511V590.714C328.778 585.106 324.23 580.559 318.62 580.559Z" fill="#D8D8D8" stroke="#AAAAAA" stroke-miterlimit="10"/>
<path d="M318.62 643.856H284.809C279.198 643.856 274.65 648.402 274.65 654.01V687.808C274.65 693.416 279.198 697.962 284.809 697.962H318.62C324.23 697.962 328.778 693.416 328.778 687.808V654.01C328.778 648.402 324.23 643.856 318.62 643.856Z" fill="#D8D8D8" stroke="#AAAAAA" stroke-miterlimit="10"/>
<path d="M389.865 704.994C362.615 685.7 343.399 710.071 328.78 718.177V717.077C328.78 711.492 324.208 706.923 318.621 706.923H284.81C279.223 706.923 274.652 711.492 274.652 717.077V720.386C259.414 717.179 238.878 683.17 208.064 704.985C177.25 726.8 179.104 763.466 184.318 773.637C196.686 797.78 222.268 804.245 259.778 788.624C259.778 788.624 279.147 776.836 288.654 776.261C298.16 775.685 298.973 775.778 298.973 775.778C298.973 775.778 299.786 775.685 309.292 776.261C318.799 776.836 338.168 788.624 338.168 788.624C375.678 804.253 401.26 797.788 413.628 773.637C418.834 763.466 420.688 726.8 389.882 704.985L389.865 704.994ZM232.774 770.388C223.784 772.385 214.463 764.879 211.966 753.616C209.46 742.353 214.726 731.607 223.716 729.61C232.706 727.612 242.027 735.118 244.524 746.381C247.03 757.644 241.764 768.391 232.774 770.388ZM391.465 753.616C388.96 764.879 379.648 772.385 370.658 770.388C361.667 768.391 356.411 757.644 358.908 746.381C361.414 735.118 370.725 727.612 379.716 729.61C388.706 731.607 393.963 742.353 391.465 753.616Z" fill="#D8D8D8" stroke="#AAAAAA" stroke-miterlimit="10"/>
<path d="M139.561 626.331C144.023 619.578 152.649 615.795 160.259 616.777C164.745 603.94 170.705 585.281 173.372 569.864C176.064 554.319 176.885 534.577 177.105 520.987C170.324 519.058 163.916 513.413 161.3 506.381C157.889 497.217 162.206 489.187 170.942 488.459C179.678 487.731 189.524 494.568 192.935 503.733C193.265 504.621 193.502 505.493 193.689 506.356C193.943 505.874 194.222 505.4 194.535 504.926C199.775 496.997 210.763 493.138 219.085 496.312C227.406 499.485 229.903 508.48 224.663 516.409C220.151 523.238 211.373 527.037 203.703 525.929C198.675 539.434 191.936 558.846 189.812 571.107C187.619 583.767 187.111 606.403 187.035 621.727C193.849 623.631 200.3 629.292 202.924 636.358C206.336 645.522 202.019 653.544 193.282 654.281C184.546 655.008 174.701 648.171 171.289 639.007C170.959 638.118 170.722 637.247 170.536 636.384C170.282 636.866 169.994 637.34 169.689 637.814C164.449 645.742 153.461 649.601 145.14 646.428C136.818 643.255 134.321 634.26 139.561 626.331Z" fill="#D8D8D8" stroke="#AAAAAA" stroke-miterlimit="10"/>
<path d="M174.439 758.253C174.87 751.721 179.179 745.831 184.58 743.783C182.76 732.808 179.747 717.06 175.768 704.866C171.789 692.673 164.932 677.906 160.005 667.93C154.791 668.987 148.45 667.202 144.09 663.039C138.41 657.606 138.283 650.193 143.794 646.487C149.305 642.781 158.38 644.185 164.06 649.618C164.611 650.143 165.093 650.693 165.542 651.251C165.542 650.811 165.542 650.363 165.576 649.906C166.084 642.231 171.925 635.435 178.612 634.716C185.308 634.005 190.32 639.65 189.812 647.325C189.372 653.933 184.978 659.891 179.484 661.871C181.194 673.532 183.971 690.109 187.137 699.806C190.404 709.817 198.514 726.478 204.186 737.665C209.409 736.574 215.792 738.359 220.169 742.539C225.849 747.972 225.976 755.385 220.465 759.091C214.954 762.797 205.879 761.393 200.199 755.96C199.649 755.435 199.166 754.885 198.717 754.327C198.717 754.767 198.717 755.215 198.684 755.672C198.176 763.347 192.335 770.142 185.647 770.862C178.951 771.572 173.939 765.928 174.456 758.253H174.439Z" fill="#D8D8D8" stroke="#AAAAAA" stroke-miterlimit="10"/>
<path d="M250.017 779.273C255.215 796.147 238.157 814.34 212.566 822.21C186.975 830.079 157.668 831.882 152.471 815.008C147.273 798.135 161.274 784.545 189.396 770.194C220.498 754.327 244.819 762.392 250.008 779.273H250.017Z" fill="#D8D8D8" stroke="#AAAAAA" stroke-miterlimit="10"/>
<path d="M170.814 827.49V808.662" stroke="#AAAAAA" stroke-miterlimit="10"/>
<path d="M189.742 827.49V799.438" stroke="#AAAAAA" stroke-miterlimit="10"/>
<path d="M208.832 823.58V791.611" stroke="#AAAAAA" stroke-miterlimit="10"/>
<path d="M545.407 493.172C537.407 494.408 530.364 500.67 528.087 507.989C514.543 506.711 495.089 504.342 479.962 500.34C464.707 496.303 446.413 488.814 433.969 483.339C435.044 476.375 432.581 468.201 427.282 462.895C420.365 455.973 411.274 456.549 406.965 464.181C402.656 471.814 404.772 483.61 411.68 490.532C412.349 491.201 413.043 491.784 413.754 492.309C413.212 492.343 412.662 492.402 412.103 492.487C402.707 493.934 394.622 502.311 394.03 511.196C393.445 520.081 400.582 526.098 409.979 524.651C418.071 523.398 425.191 517.01 427.375 509.58C441.749 510.646 462.21 512.618 474.247 515.8C486.666 519.091 507.465 528.07 521.433 534.391C520.324 541.38 522.779 549.597 528.104 554.928C535.02 561.85 544.112 561.275 548.421 553.642C552.73 546.009 550.613 534.213 543.705 527.291C543.037 526.623 542.343 526.039 541.632 525.514C542.174 525.48 542.724 525.421 543.282 525.336C552.679 523.889 560.763 515.512 561.356 506.627C561.94 497.742 554.804 491.725 545.407 493.172Z" fill="#D8D8D8" stroke="#AAAAAA" stroke-miterlimit="10"/>
<path d="M525.022 606.809C526.377 601.808 524.675 596.299 521.162 593.379C525.344 585.637 531.651 574.636 537.762 566.546C543.925 558.389 552.805 549.165 559.053 542.98C562.676 545.112 567.882 545.408 572.208 543.411C577.854 540.805 579.861 535.296 576.686 531.116C573.52 526.927 566.367 525.649 560.729 528.256C560.179 528.51 559.679 528.797 559.205 529.102C559.324 528.772 559.434 528.433 559.527 528.087C561.118 522.214 558.503 515.63 553.678 513.38C548.852 511.129 543.654 514.057 542.063 519.929C540.692 524.989 542.453 530.566 546.042 533.46C541.767 541.736 535.426 553.422 530.567 559.861C525.547 566.504 515.202 576.887 508.083 583.792C504.46 581.634 499.228 581.33 494.877 583.335C489.231 585.941 487.225 591.45 490.399 595.63C493.565 599.819 500.718 601.097 506.356 598.491C506.906 598.237 507.406 597.949 507.88 597.644C507.761 597.974 507.651 598.313 507.558 598.66C505.967 604.532 508.582 611.116 513.408 613.367C518.233 615.618 523.431 612.69 525.022 606.817V606.809Z" fill="#D8D8D8" stroke="#AAAAAA" stroke-miterlimit="10"/>
<path d="M703.123 76.6794L688.182 123.06C688.182 123.06 906.41 222.59 990.2 375.973C922.156 169.499 703.123 76.6879 703.123 76.6879V76.6794Z" fill="#EFEFEF"/>
<path d="M688.19 123.06L672.936 170.405C672.936 170.405 737.518 191.746 805.046 230.206C900.696 284.676 990.2 375.973 990.2 375.973C906.41 222.599 688.181 123.06 688.181 123.06H688.19Z" fill="#CECECE"/>
<path d="M688.156 71.1621L447.791 817.462" stroke="#898989" stroke-width="30" stroke-miterlimit="10" stroke-linecap="round"/>
<path d="M671.414 55.6316L635.029 168.574C633.847 172.244 635.865 176.177 639.536 177.359L665.724 185.789C669.396 186.971 673.331 184.954 674.513 181.284L710.898 68.3414C712.08 64.6714 710.062 60.7382 706.391 59.5564L680.203 51.1264C676.531 49.9446 672.597 51.9616 671.414 55.6316Z" fill="#454545"/>
<path d="M469.913 127.342C435.924 52.0214 395.198 0.902344 351.567 0.902344C307.937 0.902344 306.396 40.9615 302.959 51.7591C302.367 53.6123 301.715 53.57 301.715 53.57C301.715 53.57 301.063 53.6123 300.47 51.7591C297.033 40.9615 295.484 0.902344 251.862 0.902344C208.24 0.902344 167.505 52.0214 133.517 127.342C133.517 127.342 65.2179 163.593 26.6836 220.576C40.499 212.614 65.6668 198.744 95.7357 184.994C157.397 156.807 209.247 142.514 249.847 142.514C251.947 142.514 253.699 143.885 254.004 145.958C254.063 146.221 256.061 154.141 270.139 154.141C286.477 154.141 298.464 145.138 298.582 145.044C299.505 144.342 300.623 144.071 301.689 144.215C302.773 144.071 303.907 144.334 304.847 145.053C304.957 145.137 316.944 154.141 333.282 154.141C347.368 154.141 349.358 146.212 349.434 145.882C349.747 143.809 351.482 142.514 353.573 142.514C394.173 142.514 446.023 156.807 507.685 184.994C537.754 198.736 562.913 212.614 576.737 220.576C538.203 163.593 469.904 127.342 469.904 127.342H469.913ZM255.477 83.0517C249.517 87.8073 238.317 89.3643 230.224 83.3309C215.266 69.5209 220.439 47.3419 238.351 39.6415C249.365 34.9112 260.057 41.4354 264.272 51.5052C268.971 62.7513 265.068 75.3935 255.477 83.0432V83.0517ZM382.88 70.0201C379.071 78.406 372.197 82.747 363.266 83.3986C353.929 84.084 346.522 80.2676 342.078 71.8564C339.03 66.0853 339.165 59.8573 340.308 53.4854C341.451 47.105 344.397 42.1209 349.831 38.6599C355.224 35.2243 360.972 34.4543 366.889 37.1198C372.18 39.5061 377.192 42.3578 380.527 47.6888C384.413 54.9493 386.41 62.252 382.88 70.0201Z" fill="#D8D8D8" stroke="#AAAAAA" stroke-miterlimit="10"/>
<path d="M585.643 252.292C585.025 251.539 584.331 251.311 583.73 250.938C582.392 250.109 450.409 169.796 356.469 168.137C354.225 172.597 348.291 179.739 333.282 179.739C318.273 179.739 306.261 173.249 301.715 170.304C297.169 173.249 285.411 179.739 270.139 179.739C254.868 179.739 249.196 172.597 246.952 168.137C153.012 169.788 21.5624 250.033 19.8863 251.048C19.2852 251.412 19.8861 251.048 17.7782 252.284C8.90649 257.539 1 274.42 1 296.396C1 395.131 109.881 467.058 146.875 478.431C146.875 478.431 275.946 540.915 456.546 478.431C495.978 463.868 602.421 395.131 602.421 296.396C602.421 274.412 597.096 262.167 585.643 252.284V252.292Z" fill="#D8D8D8" stroke="#AAAAAA" stroke-miterlimit="10"/>
<path d="M560.956 501.693C538.193 493.73 511.027 514.124 497.144 546.229C483.269 578.334 477.361 615.677 500.124 623.639C522.887 631.602 543.323 614.763 566.467 579.916C592.058 541.389 583.719 509.656 560.956 501.693Z" fill="#D8D8D8" stroke="#AAAAAA" stroke-miterlimit="10"/>
<path d="M485.242 601.427L511.316 602.891" stroke="#AAAAAA" stroke-miterlimit="10"/>
<path d="M487.443 577.217L526.282 579.41" stroke="#AAAAAA" stroke-miterlimit="10"/>
<path d="M495.088 553.117L539.345 555.606" stroke="#AAAAAA" stroke-miterlimit="10"/>
</svg>
