<svg width="299" height="412" viewBox="0 0 299 412" fill="none" xmlns="http://www.w3.org/2000/svg">
<path d="M82.7793 134.1C82.7793 134.1 218.767 77.6089 282.461 98.3342C346.159 119.059 205.33 166.075 205.33 166.075H92.3811C92.3811 166.075 45.3688 159.755 82.7762 134.1H82.7793Z" fill="black"/>
<path d="M169.119 391.541C169.119 391.541 182.614 380.531 198.204 391.541L212.769 351.621L197.716 302.649L172.027 300.842L152.56 348.811L169.119 391.538V391.541Z" fill="#C6C6C6"/>
<path d="M169.119 391.541C169.119 391.541 172.327 388.476 169.591 384.765C166.855 381.053 160.774 367.184 162.014 344.851C163.253 322.518 172.616 304.161 183.659 304.161C194.703 304.161 204.066 322.518 205.305 344.851C206.544 367.184 200.464 381.053 197.728 384.765C194.991 388.476 198.2 391.541 198.2 391.541C213.164 406.769 228.929 407.088 235.12 403.864C241.31 400.64 240.525 396.238 240.488 394.9C240.451 393.563 241.507 393.897 241.507 393.897C271.003 396.821 271.073 391.471 272.224 388.878C273.377 386.286 265.699 382.267 265.699 382.267C278.736 375.377 283.78 367.678 283.78 352.394C283.78 337.111 268.644 325.506 266.321 324.954C263.999 324.402 264.057 321.711 264.057 321.711C262.582 294.047 239.764 275.365 239.764 275.365C264.784 263.06 292.627 245.166 292.627 209.372C292.627 173.579 244.605 148.08 244.605 148.08C232.288 120.775 217.53 102.243 201.719 102.243C185.908 102.243 185.35 116.765 184.104 120.68C183.889 121.351 183.653 121.336 183.653 121.336C183.653 121.336 183.417 121.351 183.202 120.68C181.957 116.765 181.395 102.243 165.588 102.243C149.78 102.243 135.018 120.775 122.701 148.08C122.701 148.08 74.6797 173.579 74.6797 209.372C74.6797 245.166 102.522 263.057 127.542 275.365C127.542 275.365 104.725 294.047 103.249 321.711C103.249 321.711 103.307 324.399 100.985 324.954C98.6629 325.506 83.527 337.111 83.527 352.394C83.527 367.678 88.5703 375.381 101.608 382.267C101.608 382.267 93.9326 386.286 95.083 388.878C96.2364 391.471 96.3039 396.821 125.8 393.897" fill="#727272"/>
<path fill-rule="evenodd" clip-rule="evenodd" d="M187.47 153.191C182.949 153.112 176.768 153.868 170.144 157.221C169.464 157.565 168.633 157.293 168.289 156.612C167.944 155.932 168.217 155.102 168.897 154.757C176.001 151.161 182.646 150.345 187.519 150.431C189.954 150.474 191.951 150.742 193.347 151.002C194.046 151.132 194.596 151.26 194.976 151.357C195.166 151.406 195.314 151.447 195.418 151.477C195.47 151.492 195.51 151.504 195.539 151.513C195.554 151.517 195.566 151.521 195.574 151.524L195.585 151.527L195.589 151.528L195.591 151.529C195.591 151.529 195.592 151.529 195.172 152.844L195.592 151.529C196.318 151.761 196.719 152.538 196.488 153.264C196.256 153.99 195.481 154.391 194.755 154.16C194.754 154.16 194.754 154.16 194.753 154.16L194.736 154.155C194.72 154.149 194.691 154.141 194.653 154.13C194.575 154.107 194.453 154.074 194.291 154.032C193.965 153.948 193.476 153.834 192.842 153.716C191.574 153.48 189.731 153.231 187.47 153.191Z" fill="black"/>
<path fill-rule="evenodd" clip-rule="evenodd" d="M199.004 147.108C199.004 147.108 199.004 147.109 199.004 147.109L199.003 147.11L198.996 147.122C198.99 147.133 198.98 147.152 198.966 147.177C198.939 147.227 198.897 147.305 198.844 147.406C198.737 147.609 198.584 147.91 198.404 148.289C198.042 149.049 197.574 150.116 197.149 151.342C196.277 153.858 195.677 156.791 196.268 159.123C196.456 159.862 196.009 160.613 195.269 160.8C194.53 160.987 193.779 160.54 193.592 159.801C192.794 156.651 193.629 153.067 194.54 150.438C195.007 149.092 195.517 147.929 195.911 147.102C196.108 146.688 196.277 146.356 196.398 146.125C196.459 146.009 196.508 145.919 196.542 145.856C196.559 145.824 196.573 145.8 196.582 145.782L196.594 145.762L196.597 145.755L196.599 145.752C196.599 145.752 196.599 145.752 197.802 146.43L196.599 145.752C196.974 145.088 197.816 144.853 198.48 145.228C199.144 145.603 199.378 146.444 199.004 147.108C199.004 147.108 199.004 147.108 199.004 147.108L199.004 147.108Z" fill="black"/>
<path d="M131.395 98.2523L164.508 12.8019C164.683 12.354 165.06 12.0135 165.523 11.8908L208.431 0.442157C209.784 0.0801697 210.851 1.59868 210.06 2.74906L200.473 16.6856C200.222 17.0506 200.145 17.5077 200.262 17.9341L218.263 84.3189C218.496 85.1779 217.938 86.0522 217.057 86.1994L133.052 100.283C131.901 100.476 130.978 99.3414 131.398 98.2523H131.395Z" fill="black"/>
<path d="M127.333 116.177L128.226 100.587C128.312 99.0652 129.189 97.7031 130.533 96.9883C139.457 92.2334 174.941 75.2967 218.643 80.7879C220.211 80.9842 221.548 82.018 222.14 83.4844L227.819 97.5528C228.849 100.105 227.285 102.961 224.579 103.467L132.49 120.717C129.708 121.238 127.174 119.008 127.337 116.183L127.333 116.177Z" fill="#53247C"/>
<path fill-rule="evenodd" clip-rule="evenodd" d="M195.575 76.8267C196.381 76.7297 197.123 77.2779 197.267 78.0771L200.669 96.9249C200.743 97.3324 200.649 97.7523 200.408 98.0892C200.167 98.4261 199.8 98.6513 199.391 98.7137L174.997 102.432C174.568 102.497 174.131 102.378 173.795 102.103C173.459 101.829 173.255 101.425 173.234 100.991L172.249 81.0696C172.209 80.2653 172.798 79.5672 173.598 79.471L195.575 76.8267ZM175.383 82.346L176.214 99.1432L197.37 95.9186L194.505 80.0451L175.383 82.346Z" fill="#FFD400"/>
<path fill-rule="evenodd" clip-rule="evenodd" d="M180.989 89.7383C181.154 90.5693 180.614 91.3765 179.783 91.5413L168 93.8789C167.169 94.0438 166.361 93.5038 166.197 92.6729C166.032 91.8419 166.572 91.0347 167.403 90.8699L179.186 88.5323C180.017 88.3675 180.824 88.9074 180.989 89.7383Z" fill="#FFD400"/>
<path d="M82.7783 134.1C82.7783 134.1 103.697 121.244 134.386 111.645C171.128 100.15 221.849 91.7878 267.048 94.9291L281.132 103.562C281.132 103.562 154.875 106.43 93.3833 138.404L82.7783 134.1Z" fill="black"/>
<path fill-rule="evenodd" clip-rule="evenodd" d="M56.5725 180.07C58.9916 179.291 61.584 180.621 62.3628 183.04L133.932 405.343C134.711 407.762 133.381 410.354 130.962 411.133C128.543 411.912 125.95 410.582 125.172 408.163L53.6025 185.86C52.8237 183.441 54.1534 180.849 56.5725 180.07Z" fill="#7A5A00"/>
<path d="M0 119.728L67.0995 96.8673C67.0995 96.8673 94.6628 200.558 66.2222 209.777C37.7817 218.995 0 119.728 0 119.728Z" fill="#B59D61"/>
<path d="M57.8291 209.617L72.9926 204.599L75.7935 213.47L60.3907 218.428L57.8291 209.617Z" fill="black"/>
<path d="M60.3915 218.428L59.3975 233.809L64.1954 229.643L72.8156 230.527L77.9693 226.177L83.8714 226.56L75.7943 213.471L60.3915 218.428Z" fill="#B59D61"/>
<path fill-rule="evenodd" clip-rule="evenodd" d="M44.4066 177.657L17.6318 113.776L19.0465 113.183L45.8212 177.065L44.4066 177.657Z" fill="#9E8044"/>
<path fill-rule="evenodd" clip-rule="evenodd" d="M57.3917 151.298L45.6885 104.092L47.1773 103.723L58.8805 150.929L57.3917 151.298Z" fill="#9E8044"/>
<path d="M113.83 285.157C113.83 285.157 105.094 267.021 87.3195 268.867C69.5453 270.714 72.0486 294.783 72.0486 294.783C72.0486 294.783 74.2727 318.325 94.9735 323.248C115.674 328.172 113.83 285.157 113.83 285.157Z" fill="#727272"/>
<path d="M88.3467 282.623C88.3467 282.623 109.695 283.515 127.328 267.02C144.958 250.528 136.491 305.17 136.491 305.17L111.081 314.717L88.3467 282.623Z" fill="#727272"/>
<path d="M157.257 132.669C151.836 127.663 153.71 119.623 160.202 116.831C164.193 115.116 168.067 117.481 169.595 121.132C171.297 125.209 169.883 129.792 166.408 132.565C164.248 134.289 160.189 134.854 157.257 132.666V132.669Z" fill="#040C06"/>
<path d="M163.971 125.25C162.346 124.078 162.057 122.311 163.183 120.866C164.128 119.657 165.812 119.492 167.064 120.479C168.441 121.568 168.775 123.857 167.742 125.096C166.959 126.035 165.797 126.093 163.971 125.247V125.25Z" fill="#FEFFFE"/>
<path d="M211.724 119.746C213.132 122.378 213.856 125.025 212.577 127.841C211.196 130.881 208.705 132.455 205.469 132.691C202.085 132.94 199.401 131.556 197.79 128.507C196.686 126.415 196.735 124.157 197.149 121.847C197.563 119.534 198.631 117.727 200.6 116.473C202.555 115.227 204.637 114.948 206.782 115.914C208.699 116.779 210.515 117.813 211.724 119.746Z" fill="#040C06"/>
<path d="M209.591 123.672C208.268 124.939 207.09 125.077 205.851 124.172C204.691 123.322 204.287 121.644 204.906 120.258C205.486 118.963 206.603 118.438 208.029 118.791C209.934 119.261 210.673 121.476 209.591 123.672Z" fill="#FEFFFE"/>
<path d="M154.081 280.094C154.081 280.094 180.414 284.819 210.094 280.094C210.094 280.094 197.74 289.319 182.666 289.319C167.591 289.319 154.081 280.094 154.081 280.094Z" fill="#595959"/>
</svg>
