<svg width="792" height="1091" viewBox="0 0 792 1091" fill="none" xmlns="http://www.w3.org/2000/svg">
<path d="M219.762 353.88C219.762 353.88 579.66 204.372 748.231 259.223C916.81 314.074 544.1 438.503 544.1 438.503H245.174C245.174 438.503 120.753 421.778 219.754 353.88H219.762Z" fill="#424242"/>
<path d="M448.266 1035.21C448.266 1035.21 483.98 1006.07 525.24 1035.21L563.788 929.56L523.949 799.952L455.962 795.17L404.44 922.123L448.266 1035.2V1035.21Z" fill="#C6C6C6"/>
<path d="M448.266 1035.21C448.266 1035.21 456.758 1027.1 449.516 1017.28C442.274 1007.45 426.182 970.746 429.462 911.641C432.742 852.537 457.521 803.954 486.749 803.954C515.976 803.954 540.755 852.537 544.035 911.641C547.315 970.746 531.224 1007.45 523.982 1017.28C516.74 1027.1 525.232 1035.21 525.232 1035.21C564.836 1075.51 606.558 1076.36 622.941 1067.82C639.325 1059.29 637.247 1047.64 637.149 1044.1C637.052 1040.56 639.845 1041.44 639.845 1041.44C717.907 1049.18 718.094 1035.02 721.139 1028.16C724.191 1021.3 703.87 1010.67 703.87 1010.67C738.375 992.432 751.722 972.053 751.722 931.605C751.722 891.158 711.664 860.444 705.518 858.983C699.372 857.521 699.526 850.401 699.526 850.401C695.621 777.186 635.233 727.742 635.233 727.742C701.45 695.178 775.136 647.821 775.136 553.091C775.136 458.361 648.045 390.877 648.045 390.877C615.448 318.612 576.388 269.566 534.544 269.566C492.7 269.566 491.222 308 487.926 318.36C487.358 320.138 486.732 320.097 486.732 320.097C486.732 320.097 486.107 320.138 485.539 318.36C482.243 308 480.757 269.566 438.921 269.566C397.085 269.566 358.017 318.612 325.42 390.877C325.42 390.877 198.328 458.361 198.328 553.091C198.328 647.821 272.015 695.17 338.232 727.742C338.232 727.742 277.844 777.186 273.939 850.401C273.939 850.401 274.093 857.513 267.947 858.983C261.801 860.444 221.743 891.158 221.743 931.605C221.743 972.053 235.09 992.44 269.595 1010.67C269.595 1010.67 249.282 1021.3 252.326 1028.16C255.379 1035.02 255.558 1049.18 333.62 1041.44" fill="#727272"/>
<path d="M449.329 411.808C485.661 393.419 517.219 403.486 517.219 403.486" stroke="black" stroke-width="9" stroke-miterlimit="10" stroke-linecap="round"/>
<path d="M524.175 386.509C524.175 386.509 512.898 406.49 516.576 420.998" stroke="black" stroke-width="9" stroke-miterlimit="10" stroke-linecap="round"/>
<path d="M348.429 259.004L436.063 32.8548C436.526 31.6695 437.524 30.7683 438.75 30.4436L552.308 0.144136C555.888 -0.813883 558.713 3.20494 556.619 6.24949L531.248 43.1332C530.582 44.0994 530.379 45.309 530.687 46.4376L578.329 222.128C578.946 224.402 577.468 226.716 575.138 227.105L352.813 264.379C349.768 264.89 347.324 261.886 348.437 259.004H348.429Z" fill="#424242"/>
<path d="M337.679 306.442L340.042 265.183C340.269 261.156 342.591 257.551 346.147 255.659C369.765 243.075 463.675 198.251 579.335 212.784C583.484 213.303 587.024 216.039 588.591 219.92L603.619 257.153C606.347 263.908 602.206 271.466 595.045 272.806L351.327 318.458C343.963 319.838 337.257 313.936 337.688 306.458L337.679 306.442Z" fill="#53247C"/>
<path d="M527.772 256.211L463.212 266.051L460.605 213.328L518.768 206.33L527.772 256.211Z" stroke="#FFD400" stroke-width="10" stroke-linecap="round" stroke-linejoin="round"/>
<path d="M444.515 243.448L475.699 237.262" stroke="#FFD400" stroke-width="10" stroke-linecap="round" stroke-linejoin="round"/>
<path d="M219.762 353.88C219.762 353.88 275.124 319.854 356.344 294.45C453.583 264.029 587.819 241.897 707.442 250.211L744.715 273.057C744.715 273.057 410.57 280.648 247.828 365.271L219.762 353.88Z" fill="#424242"/>
<path d="M154.137 487.134L343.548 1075.47" stroke="#7A5A00" stroke-width="30" stroke-miterlimit="10" stroke-linecap="round"/>
<path d="M0.683594 315.844L178.266 255.342C178.266 255.342 251.214 529.766 175.944 554.163C100.675 578.56 0.683594 315.844 0.683594 315.844Z" fill="#B59D61"/>
<path d="M153.732 553.741L193.863 540.458L201.276 563.938L160.512 577.058L153.732 553.741Z" fill="black"/>
<path d="M160.512 577.057L157.881 617.765L170.579 606.74L193.393 609.078L207.032 597.566L222.652 598.58L201.276 563.938L160.512 577.057Z" fill="#B59D61"/>
<path d="M49.2168 299.306L120.078 468.372" stroke="#9E8044" stroke-width="5" stroke-miterlimit="10"/>
<path d="M123.568 273.975L154.542 398.907" stroke="#9E8044" stroke-width="5" stroke-miterlimit="10"/>
<path d="M301.941 753.658C301.941 753.658 278.819 705.66 231.778 710.547C184.738 715.435 191.363 779.135 191.363 779.135C191.363 779.135 197.249 841.438 252.035 854.469C306.82 867.5 301.941 753.658 301.941 753.658Z" fill="#727272"/>
<path d="M234.497 746.952C234.497 746.952 290.996 749.315 337.663 705.66C384.321 662.013 361.914 806.625 361.914 806.625L294.665 831.891L234.497 746.952Z" fill="#727272"/>
<path d="M416.871 350.097C402.525 336.847 407.486 315.567 424.665 308.179C435.228 303.641 445.482 309.901 449.525 319.562C454.031 330.352 450.288 342.481 441.09 349.821C435.374 354.383 424.633 355.877 416.871 350.088V350.097Z" fill="#040C06"/>
<path d="M434.643 330.457C430.34 327.356 429.577 322.679 432.557 318.855C435.057 315.656 439.515 315.218 442.827 317.832C446.473 320.714 447.357 326.771 444.621 330.051C442.551 332.535 439.474 332.69 434.643 330.449V330.457Z" fill="#FEFFFE"/>
<path d="M561.021 315.892C564.747 322.858 566.664 329.864 563.278 337.317C559.625 345.363 553.032 349.528 544.467 350.153C535.512 350.811 528.408 347.149 524.145 339.079C521.222 333.542 521.352 327.567 522.449 321.453C523.545 315.332 526.37 310.55 531.582 307.229C536.754 303.933 542.266 303.194 547.941 305.752C553.016 308.041 557.822 310.777 561.021 315.892Z" fill="#040C06"/>
<path d="M555.378 326.285C551.879 329.638 548.761 330.003 545.481 327.608C542.412 325.359 541.341 320.918 542.981 317.248C544.515 313.822 547.47 312.434 551.245 313.367C556.287 314.61 558.244 320.471 555.378 326.285Z" fill="#FEFFFE"/>
<path d="M408.466 740.262C408.466 740.262 478.158 752.765 556.707 740.262C556.707 740.262 524.013 764.676 484.117 764.676C444.221 764.676 408.466 740.262 408.466 740.262Z" fill="#595959"/>
</svg>
