<svg width="319" height="257" fill="none" xmlns="http://www.w3.org/2000/svg"><path d="M190.941 172.187c2.817 2.214 3.041 5.239 2.464 8.36-1.332 7.252-3.755 14.168-6.812 20.859-1.179 2.576-3.153 4.517-5.335 6.25-3.795 3.017-7.59 6.058-11.947 8.264-1.853.939-1.885.947-1.371 2.936.497 1.934.762 3.9.738 5.889 0 .69.248.987.842 1.284 4.228 2.126 7.052 5.343 7.782 10.149.698 4.557-1.267 9.844-6.041 11.898-.12.048-.217.145-.337.225.329.457.867.561 1.26.866.569.45 1.123.915 1.027 1.733-.097.851-.73 1.268-1.444 1.525-1.886.674-3.852.682-5.801.545-6.571-.457-13.005-1.781-19.416-3.225-.128-.032-.249-.096-.441-.201-.128-.77.329-1.323.57-1.933 1.805-4.525 2.423-9.211 1.965-14.048-.321-3.434-.93-6.796-2.463-9.933a10.01 10.01 0 0 0-1.725-2.479c-.938-.995-2.062-1.613-3.482-1.565-.104 0-.2.008-.305 0-3.425-.393-5.463 1.469-6.803 4.301-1.444 3.049-1.958 6.346-2.327 9.668-.417 3.698.048 7.308.907 10.895.297 1.251.746 2.447 1.291 3.61.185.393.418.778.434 1.308.353.987.184 1.797-.466 2.511-2.944 3.273-6.546 5.111-11.015 5.055a5.225 5.225 0 0 1-2.68-.795c-.722-.449-1.147-1.099-1.46-1.877-.201-.514.257-1.308-.417-1.533-.498-.168-1.123.073-1.693.113-1.982.12-3.972.329-5.953.048a10.628 10.628 0 0 1-1.581-.313c-.89-.265-1.797-.61-1.901-1.701-.096-1.035.714-1.516 1.476-1.982.281-.176.57-.345.995-.593-1.998-.819-3.554-1.998-4.702-3.683-3.827-5.6-1.957-13.856 3.98-17.41.682-.409.979-.85 1.019-1.644.24-4.766 1.58-9.203 4.14-13.246.377-.594.77-1.196 1.243-1.709.554-.602.49-.851-.289-1.14-3.313-1.203-6.41-2.832-9.242-4.942-4.365-3.257-7.662-7.309-9.018-12.676-1.428-5.664-.24-10.959 2.56-15.966 2.599-4.645 6.257-8.336 10.558-11.409.842-.601 1.372-1.283 1.692-2.27 1.14-3.53 2.407-7.012 4.229-10.261 1.251-2.223 2.792-4.213 4.934-5.673 1.364-.93 2.872-1.54 4.533-1.548 2.655-.016 4.541 1.292 5.704 3.65.321.658.562 1.348.955 2.295.12-.586.224-.915.257-1.252.505-5.223 4.99-7.349 9.723-5.504 2.857 1.108 5.015 3.129 6.924 5.432 2.046 2.471 3.819 5.143 5.416 7.919.594 1.027 1.364 1.653 2.439 2.11 4.846 2.038 9.178 4.854 12.692 8.793 3.915 4.389 6.194 9.443 5.929 15.436-.136 3.041-1.019 5.897-2.399 8.601-.144.289-.393.546-.377.915 1.043-.249 1.797-.915 2.223-2.046 1.115-2.961 1.949-6.018 3.177-8.938.642-1.516 1.227-3.057 1.821-4.597.578-1.492 1.436-2.816 2.423-4.156.521-.032.618.369.802.674 1.188 1.998 2.199 4.092 3.362 6.105.273.466.529.947.874 1.356.474.57.891.514 1.236-.144.176-.329.241-.698.329-1.059a2210.26 2210.26 0 0 1 1.749-6.956c.104-.417.128-.883.602-1.196l-.033.025Z" fill="#00CF4B"/><path d="M136 165.5h-4.5l2-1.5 2.5 1.5Z" fill="#E13A40"/><path d="M134.242 249.44c-1.773-2.968-2.535-6.234-2.888-9.595-.545-5.063.064-10.013 1.773-14.811.249-.69.57-1.372.947-2.006 2.038-3.474 3.795-4.019 7.558-3.674 1.853.168 3.056 1.444 4.043 2.92 1.749 2.616 2.407 5.608 2.913 8.641.834 5.022.561 9.997-.955 14.875-.393 1.251-.931 2.447-1.549 3.674-3.939-.441-7.838-.537-11.826-.016l-.016-.008Z" fill="#DBFF9E"/><path d="M125.259 148.192c2.522 1.293 3.392 3.847 2.239 6.313-.75 1.6-2.305 2.587-3.925 2.488-1.522-.098-2.816-1.271-3.37-3.003-1.077-3.387 2.359-6.85 5.056-5.798ZM139.359 146.058c2.832.131 4.682 2.095 4.655 4.817-.019 1.767-1.025 3.309-2.541 3.891-1.426.541-3.09.01-4.312-1.336-2.383-2.636-.692-7.213 2.198-7.372Z" fill="#221714"/><path d="M135 174.5c-4 .4-5.167-5.5-6-9l9.5-1.5c.667 4 .5 10.1-3.5 10.5Z" fill="#E13A40"/><path d="M124.273 152.357c-.441-.823-.353-1.495.298-2.048.43-.357.927-.401 1.434-.151.64.314.96.834.993 1.527.022.488-.132.921-.596 1.149-.761.368-1.434.087-2.118-.477h-.011ZM140.226 150.275c-.743-.567-.941-1.215-.578-1.987.243-.504.677-.749 1.242-.732.713.02 1.219.361 1.537.978.222.435.261.893-.066 1.293-.54.65-1.269.673-2.125.443l-.01.005Z" fill="#FEFEFE"/><path d="M126 164.5c.5.5 1.8 1 3 1 1.5 0 3.5-1.5 4.5-1.5s1 .5 4 .5c2.4 0 3.333-1 3.5-1.5" stroke="#000" stroke-linecap="round"/><path d="m140.866 206.187-16.371 3.468c14.341 3.102 27.05-3.172 31.612-6.696l-15.241 3.228Z" fill="#00C62E"/><path d="M164.893 126.371a164.794 164.794 0 0 1-1.759-5.445c-1.128-3.79-2.231-7.587-3.346-11.381-.301-1.024-.13-1.259.92-1.204 8.761.466 17.521.938 26.282 1.409 11.237.608 22.473 1.222 33.709 1.836.82.046.942.213.64.941-1.937 4.648-3.993 9.243-6.121 13.866-.241.287-.53.207-.791.204a1250.05 1250.05 0 0 0-28.66-.311c-6.558.005-13.114.094-19.672.218-.388.008-.784.08-1.212-.141l.01.008ZM170.363 145.402a562.434 562.434 0 0 1-2.779-9.422 258.92 258.92 0 0 1-1.182-4.308c.325-.354.744-.272 1.122-.282 5.113-.179 10.221-.269 15.34-.352 9.615-.155 19.227-.107 28.841.083.392.005.787-.001 1.205.211-.671 1.974-1.601 3.813-2.444 5.694-1.255 2.802-2.548 5.584-3.856 8.417-.225.326-.514.222-.775.213-11.001-.199-22.001-.218-33.003-.137-.8.006-1.616.187-2.469-.117ZM204.278 150.372c-.69 1.952-1.614 3.763-2.451 5.609-1.078 2.383-2.199 4.746-3.331 7.16-.307.263-.633.223-.948.215-4.607-.032-9.218-.048-13.823-.062-2.258-.005-4.512.028-6.762.043-.459 0-.932.098-1.426-.147-.866-2.38-1.471-4.787-2.183-7.161-.534-1.785-1.024-3.585-1.536-5.425.238-.335.578-.275.889-.28 5.995-.115 11.995-.222 17.997-.222 4.226 0 8.456.013 12.685.091.292.003.595-.021.902.176l-.013.003Z" fill="#FFF500"/><path d="M212.996 131.343a851.079 851.079 0 0 0-21.417-.187c-8.353.037-16.705.193-25.119.456-.728-1.679-1.131-3.439-1.623-5.227 16.744-.395 33.487-.36 50.295.051-.515 1.694-1.302 3.287-2.135 4.901l-.001.006Z" fill="#6BCEF5"/><path d="M188.421 184.916c-.977 1.712-1.658 3.498-2.508 5.199-.195.391-.376.797-.593 1.178-.144.252-.335.495-.687.468-.358-.028-.478-.302-.584-.584-.797-2.057-1.36-4.188-2.062-6.279a1.724 1.724 0 0 0-.131-.306c-1.609-5.267-3.176-10.508-4.75-15.744a3.586 3.586 0 0 1-.102-.485c.317-.313.696-.269 1.055-.277a937.31 937.31 0 0 1 16.85-.141c.387-.002.787-.032 1.199.179-.793 2.171-1.837 4.197-2.789 6.271-1.61 3.496-3.254 6.979-4.903 10.52l.005.001Z" fill="#FFF500"/><path d="M204.358 150.388c-10.844-.18-21.643-.095-32.496.171-.731-1.639-1.117-3.359-1.567-5.122 5.015-.097 10.016-.16 15.025-.168a927.85 927.85 0 0 1 21.192.209c-.337 1.395-1.09 2.631-1.635 3.962-.127.315-.309.607-.513.949l-.006-.001ZM196.192 168.147c-4.938-.049-9.841.027-14.741.087-1.446.016-2.889.051-4.391.081-.533-.754-.616-1.64-.885-2.467-.281-.854-.48-1.727-.707-2.642 7.632-.135 15.251-.106 22.936-.023-.52 1.723-1.351 3.326-2.212 4.964Z" fill="#6BCEF5"/><path fill-rule="evenodd" clip-rule="evenodd" d="M104.382 95.786c1.605 1.135 3.093 1.724 4.212 1.652 4.53-.289 15.117-12.152 15.139-25.953.021-13.802-6.722-24.559-15.061-24.026-4.829.308-9.135 4.334-11.908 10.348-3.68-3.064-7.78-4.4-11.552-3.326-6.108 1.739-9.615 9.3-9.359 18.557-4.515-2.178-8.98-2.591-12.446-.737-7.368 3.94-7.433 16.636-.143 28.356 7.289 11.719 22.537 16.225 26.54 14.084 2.326-1.244 4.459-6.662 4.406-13.282 1.875.72 3.487.953 4.564.646 1.712-.487 3.853-2.845 5.608-6.319Z" fill="#FF8BCA"/><path fill-rule="evenodd" clip-rule="evenodd" d="M166.448 60.189a13.74 13.74 0 0 1-.929-.642c-1.64 5.935-4.928 10.238-7.326 10.758-4.125.895-16.618-7.02-20.153-19.36s-.243-23.68 7.352-25.328c3.573-.776 7.461.731 10.945 3.829 2.13-8.346 7.192-14.216 13.099-14.216 6.809 0 12.496 7.8 13.861 18.2 1.45-.353 2.895-.398 4.291-.095 7.595 1.648 10.887 12.988 7.352 25.329-3.535 12.34-16.028 20.255-20.153 19.36-3.277-.712-8.215-8.485-8.339-17.835Z" fill="#6BCEF5"/><path d="M208.77 33.506c-2.892 10.094.73 19.571 3.286 20.126 2.557.555 10.866-6.333 13.758-16.427 2.891-10.093 1.419-19.104-3.287-20.125-4.707-1.022-10.866 6.333-13.757 16.426Z" fill="#FB7A35"/><path d="M116.923 22.628c2.891 10.093-.73 19.57-3.287 20.125-2.556.555-10.866-6.333-13.757-16.427-2.892-10.093-1.42-19.104 3.287-20.125 4.706-1.021 10.865 6.333 13.757 16.427Z" fill="#FFF500"/><path d="M46.963 116.568c6.986 4.899 10.03 11.032 8.909 11.959-1.123.927-9.404-.882-16.39-5.781-6.987-4.898-10.975-10.252-8.91-11.958 2.066-1.706 9.405.882 16.39 5.78ZM271.781 132.081c-6.987 4.899-10.032 11.032-8.909 11.959 1.122.926 9.404-.882 16.39-5.781 6.986-4.898 10.974-10.252 8.909-11.958-2.066-1.706-9.404.882-16.39 5.78Z" fill="#6BCEF5"/><path d="M83.405 11.115c4.32 6.138 4.32 12.606 2.82 13.245-1.5.639-8.503-2.847-12.823-8.985-4.32-6.139-5.582-12.069-2.82-13.245 2.763-1.177 8.504 2.846 12.823 8.985ZM246.447 29.33c-5.079 5.868-5.898 12.312-4.483 13.034 1.414.723 8.832-2.348 13.911-8.216 5.08-5.869 7.088-11.704 4.484-13.035-2.603-1.33-8.832 2.348-13.912 8.216Z" fill="#FF8BCA"/><path d="M1.513 75.141A1 1 0 0 0 .487 76.86l1.026-1.718ZM.487 76.86l77 45.999 1.026-1.716-77-46-1.026 1.717ZM268.226 124.058a1 1 0 0 1-1.066-1.692l1.066 1.692Zm50.051-31.548-50.051 31.548-1.066-1.692 50.051-31.548 1.066 1.692Z" fill="#FB7A35"/><path d="M122.951 18.69a1 1 0 0 0-1.902.62l1.902-.62Zm-1.902.62 26 80 1.902-.62-26-80-1.902.62Z" fill="#6BCEF5"/><path d="M197.212 100.607a1 1 0 1 1-1.704-1.046l1.704 1.046Zm38.75-63.096-38.75 63.096-1.704-1.046 38.749-63.097 1.705 1.047Z" fill="#FF8BCA"/><path fill-rule="evenodd" clip-rule="evenodd" d="M233.722 99.102c-1.87 1.032-3.479 1.574-4.553 1.519-4.346-.222-11.52-10.786-7.86-23.18 3.66-12.395 13.113-22.112 21.113-21.705 4.633.236 7.763 3.816 8.867 9.194 4.411-2.784 8.77-4.018 12.167-3.085 5.5 1.51 6.907 8.27 4.189 16.585 4.989-1.992 9.457-2.4 12.346-.765 6.144 3.477 2.821 14.878-7.422 25.464-10.243 10.587-26.334 14.761-29.671 12.873-1.939-1.098-2.577-5.945-.761-11.891-2.021.662-3.655.885-4.625.618-1.542-.423-3.003-2.522-3.79-5.627Z" fill="#FFF500"/></svg>