<svg width="138" height="80" viewBox="0 0 138 80" fill="none" xmlns="http://www.w3.org/2000/svg">
<rect x="91.3896" y="32.8418" width="6.06553" height="50.6099" transform="rotate(98.7017 91.3896 32.8418)" fill="#9F613E"/>
<path d="M43.5512 25.178L40.8381 24.7628C40.2922 24.6792 39.9174 24.1689 40.0009 23.623L40.6143 19.6151L41.5336 13.6086C41.6172 13.0626 41.2424 12.5523 40.6964 12.4688L28.1055 10.5417C24.7649 10.0304 21.352 10.7448 18.4968 12.5531L3.54149 22.0246C3.0214 22.354 2.91959 23.0706 3.32734 23.5318L14.876 36.5947C17.046 39.0492 20.0081 40.665 23.2466 41.1606L36.0062 43.1135C36.5521 43.1971 37.0624 42.8222 37.146 42.2763L38.6787 32.2619C38.7623 31.7159 39.2726 31.3411 39.8185 31.4247L42.5316 31.8399C43.0775 31.9235 43.5878 31.5486 43.6714 31.0027L44.3884 26.3178C44.472 25.7719 44.0971 25.2616 43.5512 25.178Z" fill="#CECDCD"/>
<path d="M121.126 47.6285L123.42 32.6415C124.121 28.0617 119.587 24.4493 115.28 26.1554L100.82 31.8821C96.4778 33.602 95.6791 39.4056 99.3957 42.2347L111.561 51.495C115.184 54.2526 120.437 52.1289 121.126 47.6285Z" fill="#CECDCD"/>
<path d="M116.88 44.003L118.21 35.3141C118.557 33.047 116.335 31.2449 114.188 32.0522L105.49 35.324C103.261 36.1623 102.85 39.1386 104.769 40.5491L112.138 45.9663C113.954 47.3015 116.539 46.2314 116.88 44.003Z" fill="#F5F6F9"/>
<rect x="100.974" y="32.9434" width="8.76132" height="11.8617" rx="2" transform="rotate(98.7017 100.974 32.9434)" fill="#CECDCD"/>
<mask id="mask0_4451_17506" style="mask-type:alpha" maskUnits="userSpaceOnUse" x="0" y="0" width="138" height="80">
<path d="M0 0H138V80H0V0Z" fill="#D9D9D9"/>
</mask>
<g mask="url(#mask0_4451_17506)">
<path d="M100.176 65.6655C99.4936 67.7294 98.697 69.7494 97.7773 71.721C96.0917 75.3472 94.1246 78.7975 91.4973 81.8428C91.11 82.3225 90.7272 82.8022 90.3355 83.2775C90.0186 83.5811 89.7502 83.9288 89.4465 84.2413C88.5752 85.1478 87.6202 85.9488 86.608 86.6969C86.2031 86.9962 85.7939 87.2954 85.4462 87.6651C84.9709 87.9247 84.9929 88.2636 85.1822 88.7301C85.8203 90.3188 86.2119 91.9735 86.4408 93.6678C86.4628 93.8306 86.5068 93.967 86.652 94.0506C88.8568 95.2433 90.4763 96.9948 91.3301 99.3404C92.5623 102.72 92.2234 105.937 89.9482 108.837C89.5433 109.352 89.0549 109.783 88.5136 110.153C88.0251 110.492 87.5014 110.765 86.9513 110.989C86.8281 111.042 86.5904 111.082 86.8589 111.271C87.3518 111.5 87.827 111.755 88.2231 112.134C88.9096 112.789 88.8392 113.581 88.0515 114.109C87.4442 114.514 86.7488 114.655 86.0447 114.726C82.995 115.025 80.0156 114.712 77.0935 113.775C75.1835 113.159 73.2252 112.701 71.236 112.428C69.9026 112.244 68.5603 112.138 67.2181 112.059C67.1125 111.891 67.2181 111.768 67.3061 111.645C67.5658 111.333 67.6846 110.95 67.8386 110.584C68.5779 108.837 69.0312 107.015 69.2645 105.132C69.3613 104.335 69.4273 103.534 69.4669 102.733C69.4933 102.183 69.5373 101.633 69.5109 101.083C69.4229 99.292 69.2513 97.5053 68.8288 95.7537C68.6792 95.1332 68.5559 94.5039 68.3667 93.8922C68.3403 93.8042 68.3271 93.7206 68.3535 93.6326C68.4063 93.5093 68.5207 93.4653 68.6396 93.4257C68.8816 93.3465 69.128 93.2849 69.3745 93.2321C70.6199 92.9768 71.7597 92.4575 72.9479 91.8722C72.5475 91.7666 72.2086 91.8238 71.8829 91.859C70.1138 92.0483 68.3447 92.1495 66.5668 92.1143C65.3653 92.0923 64.1683 91.9647 62.9757 91.8282C61.1098 91.617 59.2702 91.2561 57.4395 90.8557C56.929 90.7456 56.4625 90.5124 55.9652 90.376C55.9696 90.376 55.9476 90.3848 55.952 90.3892C56.3261 90.7104 56.7354 90.9657 57.1535 91.2165C57.3031 91.3089 57.4615 91.4014 57.4791 91.6038C57.4791 91.6962 57.4571 91.7798 57.4131 91.8634C57.0082 92.5808 56.7706 93.3597 56.5373 94.1431C56.1325 95.5293 55.864 96.9508 55.6748 98.3766C55.5868 99.0411 55.534 99.7101 55.5076 100.383C55.4856 100.955 55.4327 101.528 55.4591 102.1C55.534 103.627 55.6308 105.154 55.9608 106.65C56.2205 108.12 56.6606 109.537 57.2767 110.897C57.4131 111.196 57.5495 111.5 57.6683 111.808C57.7036 111.909 57.774 112.01 57.6683 112.112C56.1017 112.301 54.5614 112.622 53.0211 112.952C51.318 113.317 49.6589 113.863 47.9558 114.224C44.9808 114.853 41.9795 114.91 38.9605 114.717C38.4765 114.686 38.0012 114.576 37.5391 114.409C37.2662 114.312 37.011 114.184 36.7866 113.999C36.1616 113.489 36.1044 112.802 36.6545 112.213C37.0638 111.777 37.5787 111.504 38.1112 111.253C38.3796 111.06 38.142 111.02 38.0188 110.972C37.4687 110.747 36.945 110.474 36.4565 110.136C34.3177 108.578 33.2043 106.421 33.0195 103.834C32.7158 99.5208 34.5157 96.2774 38.2344 94.0902C38.2608 94.0726 38.2872 94.0506 38.3136 94.033C38.4985 93.9362 38.5161 93.7558 38.5381 93.5842C38.7801 91.7622 39.251 90.0019 39.9375 88.2944C40.4348 87.0534 41.0333 85.8651 41.7462 84.7297C41.9619 84.3865 41.9707 84.3821 41.6494 84.1356C40.3688 83.1543 39.229 82.0188 38.1112 80.8614C37.9044 80.505 37.5787 80.2541 37.3102 79.9505C36.7337 79.2904 36.1968 78.6038 35.6643 77.9129C35.5895 77.7985 35.4839 77.7105 35.3959 77.6092C34.2385 75.9809 33.1999 74.2778 32.3329 72.4779C30.8059 69.3225 29.7717 66.0043 29.16 62.5541C28.8255 60.6662 28.6143 58.7606 28.5174 56.8507C28.4382 55.3016 28.4338 53.7481 28.4954 52.1902C28.5571 50.5707 28.6891 48.96 28.8519 47.3493C28.8739 47.1381 28.8123 47.0457 28.6231 46.9929C28.0466 46.8256 27.5009 46.5968 26.9992 46.2623C26.1718 45.6638 25.4985 44.9333 25.1156 43.9695C24.6403 42.7681 24.8648 41.6767 25.7053 40.7129C26.7835 39.4763 28.2182 38.8866 29.7717 38.5345C31.7652 38.0856 33.75 38.1033 35.7128 38.7326C37.165 39.1991 38.4765 39.934 39.6867 40.8538C39.9243 41.0342 40.1136 41.2674 40.3688 41.4215C41.9179 42.8121 42.9741 44.5284 43.6914 46.4692C43.9643 47.2129 44.2019 47.9698 44.3559 48.7444C44.4263 49.1053 44.4659 49.4749 44.6244 49.8138C44.8048 49.937 44.9324 49.8006 45.0777 49.7302C45.3329 49.6333 45.5882 49.5365 45.8346 49.4133C45.9446 49.3693 46.0634 49.3385 46.1647 49.2725C46.1911 49.2593 46.2219 49.2505 46.2527 49.2417C46.5827 49.1405 46.8996 49.0172 47.2032 48.85C47.7754 48.6212 48.3563 48.4187 48.9504 48.2471C49.3332 48.2383 49.6149 48.0535 49.8349 47.7542C50.3542 47.0325 50.8999 46.3327 51.4148 45.611C51.6921 45.2193 52.0265 44.8717 52.2862 44.4668C52.5458 44.1235 52.7967 43.7715 53.1003 43.4678C53.1795 43.4106 53.2676 43.3622 53.2896 43.2522C53.338 43.1598 53.4128 43.0894 53.4964 43.0277C53.5888 42.9749 53.6504 42.9001 53.6812 42.7945C53.7296 42.6977 53.8044 42.6273 53.8925 42.5657C54.0245 42.4909 54.1169 42.3808 54.1609 42.2356C54.5702 41.6371 55.1159 41.1662 55.6396 40.6865C56.0445 40.3169 56.4625 39.9604 56.8894 39.6171C57.7784 38.9042 58.7157 38.2837 59.7631 37.826C60.2868 37.5972 60.7973 37.3507 61.3694 37.2495C61.4794 37.2495 61.5895 37.2407 61.6819 37.1703C61.8535 37.0823 62.0428 37.1879 62.2188 37.1175C62.43 37.1043 62.6413 37.1395 62.8437 37.0603C63.0065 37.0471 63.1694 37.0339 63.3278 37.0911C63.4466 37.1219 63.5698 37.1087 63.693 37.1219C63.8691 37.1923 64.0539 37.1791 64.2343 37.1835C64.2652 37.1835 64.3004 37.1923 64.3312 37.2011C64.4632 37.2583 64.5996 37.3023 64.7404 37.3375C65.0793 37.4519 65.427 37.5444 65.735 37.7336C66.9893 38.4861 67.6934 39.6171 68.0058 41.021C68.1423 41.6239 68.1775 42.2312 68.1335 42.8429C68.1159 43.0938 68.2303 43.3402 68.1467 43.591C68.1291 43.6395 68.1643 43.7055 68.2303 43.7143C68.2919 43.7275 68.3403 43.6835 68.3667 43.6351C68.4811 43.4326 68.5779 43.2258 68.666 43.0101C68.9916 42.2532 69.3217 41.5007 69.8762 40.867C70.3779 40.2904 70.972 39.8548 71.6409 39.5027C72.3846 39.1858 73.1504 39.111 73.9601 39.1991C74.4178 39.2475 74.8403 39.3663 75.2716 39.4895C76.1077 39.7315 76.8427 40.1628 77.4852 40.7349C78.3345 41.4919 79.087 42.35 79.7032 43.3006C80.2049 44.0751 80.6405 44.8937 81.0058 45.743C81.2435 46.2975 81.4591 46.8652 81.6835 47.4241C81.7231 47.5342 81.7847 47.6354 81.8288 47.741C81.8772 48.0315 81.9872 48.2999 82.0884 48.5728C82.1148 48.7312 82.1544 48.8852 82.2204 49.0348C82.2336 49.0656 82.238 49.1009 82.2424 49.1317C82.5505 50.2671 82.8893 51.3937 83.1842 52.5335C83.259 52.8283 83.259 53.1496 83.4614 53.4048C83.479 53.4356 83.4922 53.4664 83.4966 53.5017C83.5098 53.8053 83.6199 54.0914 83.6815 54.3906C83.7475 54.6943 83.8267 54.9891 84.1128 55.1696C84.5264 55.5788 84.9929 55.9353 85.4066 56.3402C85.5562 56.4898 85.631 56.415 85.6838 56.261C85.7411 56.0937 85.7895 55.9265 85.7939 55.7461C86.1987 54.0694 86.7665 52.4499 87.563 50.9228C88.5488 49.0304 89.7238 47.2613 91.2289 45.7298C92.0782 44.8673 93.0684 44.1896 94.1114 43.5866C94.5383 43.3402 94.9783 43.107 95.4448 42.9353C96.4746 42.5305 97.5264 42.2092 98.631 42.0948C100.154 41.9363 101.672 41.9187 103.133 42.4556C104.66 43.0145 105.668 44.0487 105.857 45.7122C106.007 47.0105 105.69 48.2031 104.836 49.2285C104.665 49.4309 104.506 49.6422 104.304 49.8138C103.432 50.5399 102.961 51.4817 102.746 52.5775C102.614 53.2684 102.429 53.9505 102.323 54.6503C102.024 56.1509 101.883 57.6736 101.65 59.1875C101.324 61.2999 100.889 63.3859 100.237 65.4278C100.215 65.4982 100.237 65.5863 100.171 65.6435L100.176 65.6655Z" fill="#00CE4C"/>
<path fill-rule="evenodd" clip-rule="evenodd" d="M77.2703 44.0751C77.5356 44.5129 77.3286 45.0717 76.8081 45.3231L73.1041 47.1121L77.1881 49.6251C77.6526 49.9109 77.7418 50.48 77.3874 50.8962C77.033 51.3124 76.3692 51.4181 75.9048 51.1323L69.147 46.9739L75.8476 43.7376C76.3681 43.4862 77.0051 43.6373 77.2703 44.0751Z" fill="#0E0E0E"/>
<path fill-rule="evenodd" clip-rule="evenodd" d="M59.675 42.7484C59.3173 43.0737 59.3233 43.5917 59.6884 43.9053L62.2871 46.1369L58.0608 47.5215C57.5801 47.679 57.3318 48.15 57.5061 48.5735C57.6803 48.9971 58.2113 49.2128 58.6919 49.0553L65.6851 46.7642L60.9841 42.7272C60.6189 42.4136 60.0328 42.4231 59.675 42.7484Z" fill="#0E0E0E"/>
<path d="M69.3645 53.5021C67.5694 51.9192 64.8767 51.523 62.4085 52.6222C61.0624 57.4587 63.3059 60.5371 65.3254 60.9768C67.345 61.4165 71.6084 55.4807 69.3645 53.5021Z" fill="#FF6464"/>
</g>
</svg>
