<svg xmlns="http://www.w3.org/2000/svg" width="120" height="119" fill="none"><path fill="#DBFF9E" d="M71.124 77.48c-1.562.62-3.209 1.095-4.844 1.6-1.424.443-2.854.865-4.352 1.226-.038-.081-.023-.164.009-.284 1.056-.736 2.106-1.413 3.292-1.846 1.895-.694 3.839-1.001 5.895-.696Z"/><path fill="#00C62E" d="M64.245 76.59c.213-1.025.631-1.996 1.006-3.026a60.133 60.133 0 0 0 9.508-1.06c.566-.111 1.125-.24 1.688-.355.113-.023.23-.09.383.049-3.773 2.674-8.01 3.94-12.585 4.392Z"/><path fill="#00CF4B" d="M29.513 31.854c.11-.164.24-.269.341-.395 2.228-2.792 4.838-5.18 7.713-7.267.842-.613 1.37-1.315 1.676-2.324.963-3.183 2.107-6.303 3.547-9.304.923-1.923 2.04-3.728 3.495-5.301 1.203-1.298 2.552-2.39 4.218-3.042 1.474-.576 2.987-.777 4.528-.35 1.83.508 3.1 1.718 3.963 3.39.371.717.611 1.485.89 2.238.04.111.048.248.222.325.223-.12.187-.36.201-.568.062-.824.149-1.648.376-2.444.556-1.946 1.663-3.44 3.554-4.262 1.532-.666 3.12-.672 4.716-.311 2.16.484 3.99 1.62 5.653 3.037 1.525 1.3 2.858 2.791 4.054 4.4 1.71 2.301 3.336 4.664 4.77 7.148.443.769 1.035 1.223 1.84 1.528 2 .764 3.92 1.706 5.754 2.822 3.889 2.369 7.298 5.267 9.989 8.992 1.292 1.788 2.221 3.747 2.983 5.805.532 1.438.919 2.915 1.086 4.44.393 3.568-.199 6.991-1.564 10.295-1.472 3.562-3.647 6.64-6.36 9.348a38.28 38.28 0 0 1-2.398 2.228c-.314.265-.314.289-.038.58.41.436.832.859 1.252 1.286 3.437 3.492 6.023 7.564 8.102 11.982a57.936 57.936 0 0 1 3.136 8.198c.143.477.353.655.866.746 4.294.756 7.048 3.317 8.209 7.492 1.044 3.754.265 7.278-1.767 10.55-.261.418-.556.819-.866 1.203-.176.22-.197.365.025.566.382.346.739.717 1.099 1.086 1.356 1.39 2.634 2.841 3.677 4.489.688 1.086 1.263 2.221 1.479 3.511.291 1.733-.375 3.158-1.901 4.006-.969.537-2.028.77-3.117.9-2.036.246-4.065.096-6.083-.196-5.391-.781-10.576-2.361-15.666-4.254-1.244-.463-2.402-.657-3.686-.262-1.018.314-2.085.444-3.191.6-.295-.248-.161-.506-.053-.745 1.1-2.399 1.71-4.935 2.024-7.543.223-1.861.214-3.733.083-5.609-.214-3-.887-5.893-1.893-8.718-.042-.12-.042-.244-.042-.417.042-.508.382-.772.675-1.052 2.121-2.019 3.861-4.332 5.264-6.902 1.631-2.986 2.79-6.155 3.609-9.455.594-2.395.978-4.81.861-7.288-.008-.165.004-.331-.017-.496-.1-.764-.312-.95-1.073-.962-1.03-.015-1.97.38-2.937.649-3.359.934-6.29 2.706-9.121 4.684-1.585 1.108-3.187 2.194-4.507 3.64-.384.42-.925.605-1.43.836-2.062.939-4.192 1.686-6.422 2.299-2.998-.318-5.735.292-8.243 1.897-.325.207-.624.48-1.095.435-.125-.096-.178-.2-.153-.296.25-.986.412-2.009 1.108-2.869 1.379-.435 2.777-.555 4.13-.898 2.572-.656 4.961-1.716 7.195-3.14.172-.109.368-.18.465-.267-1.01.318-2.124.487-3.225.709-2.215.446-4.462.634-6.704.856-.249.025-.495.021-.76-.135-.331-.437-.1-.828.023-1.208 1.906-5.907 3.853-11.8 5.824-17.684.754-2.25 1.433-4.52 2.19-6.768.38-1.13.28-1.33-.857-1.723-3.3-1.141-6.592-2.305-9.89-3.45-7.14-2.48-14.275-4.972-21.42-7.432a2108.93 2108.93 0 0 1-9.37-3.253c-.373-.13-.79-.173-1.016-.606Z"/><path fill="#FE49A9" d="M24.34 29.885a.996.996 0 0 1 1.196-.64l39.612 10.443c.563.148.882.745.693 1.296L43.52 105.998a.996.996 0 0 1-1.27.618L3.657 93.207a1.004 1.004 0 0 1-.62-1.274L24.34 29.885Z"/><path fill="#fff" fill-rule="evenodd" d="M63.422 40.267 24.252 30.14 2.34 93.964 40.441 107.2l22.98-66.933Zm0 0 8.458 6.42-9.525-3.31 1.067-3.11Z" clip-rule="evenodd"/><path fill="#FE49A9" d="m24.352 29.855 2.679.93-22.61 65.85-2.097-2.626 22.028-64.154Z"/><rect width="69.528" height="51.89" fill="#FE49A9" rx="1" transform="matrix(-.32474 .9458 .94461 .32818 25.387 30.314)"/><path fill="#DBFF9E" d="M55.036 102.694c.664-.057 1.3-.076 1.98-.113.153-.318.418-.301.657-.32 7.37-.548 14.41-2.332 21.018-5.698 2.517-1.28 4.901-2.775 7.032-4.649.201-.177.413-.343.753-.311.912 2.298 1.553 4.64 1.886 7.06.707 5.118.329 10.118-1.663 14.933-.149.361-.308.72-.467 1.121-1.252.303-2.523.388-3.783.555-4.318.572-8.659.845-13.01.935-2.935.059-5.87.017-8.84-.267-.976-.636-1.421-1.633-1.964-2.54-1.82-3.048-2.99-6.349-3.67-9.83-.052-.282-.128-.564.071-.876Z"/><path fill="#00CF4B" d="M20.578 40.665c1.288.46 2.42 1.091 3.384 2.037 1.188 1.163 1.8 2.588 2.052 4.198.44 2.813-.083 5.504-1.06 8.13-.97 2.611-2.318 5.01-4.158 7.11-.96 1.098-2.081 1.992-3.424 2.575-1.526.66-3.058.75-4.628-.026-.116-.087-.182-.17-.265-.228-.963-.666-1.61-1.584-2.052-2.653a19.916 19.916 0 0 1-1.391-5.372c-.342-3.018-.155-5.976.825-8.862.849-2.497 2.247-4.578 4.515-5.997 1.778-1.114 3.685-1.451 5.73-.967.14.032.285.043.472.055ZM55.018 102.64c.77 4.392 2.295 8.454 4.784 12.133.242.359.5.705.753 1.102-1.538-.043-3.06-.286-4.58-.521a53.932 53.932 0 0 1-1.64-.28c-.361-.068-.692.024-1.028.128a74.695 74.695 0 0 1-8.671 2.137c-3.1.561-6.22.915-9.38.815-1.67-.053-3.319-.243-4.918-.758-.787-.251-1.536-.589-2.203-1.088-1.51-1.129-2.058-2.621-1.646-4.467.163-.734.473-1.407.849-2.051.585-1.003 1.32-1.891 2.134-2.715.42-.425.87-.822 1.252-1.345.54.035 1.012.254 1.496.421 5.77 1.989 11.538 3.987 17.307 5.98.233.081.466.164.704.224.58.15.942-.034 1.18-.595.08-.19.14-.389.206-.585l2.654-7.989c.184-.55.189-.548.747-.546Z"/><path fill="#FFB6DD" d="M34.895 71.85c1.553-4.085 2.963-8.142 4.765-12.25-2.698 1.41-5.472 2.107-8.152 3.06-.176.061-.358.11-.532.176-.31.119-.445-.012-.536-.308-.245-.806-.52-1.602-.775-2.401-.268-.832-.528-1.664-.792-2.496-.267-.841-.27-.845.598-1.126 2.047-.666 4.097-1.33 6.143-1.995 2.462-.802 4.93-1.596 7.385-2.417.5-.168.945-.163 1.436.027 1.426.557 2.863 1.075 4.296 1.612.703.262.709.272.444.983-2.574 6.921-5.149 13.842-7.726 20.763-.969 2.6-1.944 5.196-2.912 7.795-.085.23-.157.466-.246.728.736.411 1.524.615 2.273.907 1.194.465 2.398.891 3.601 1.33.294.107.487.236.346.612-.71 1.86-1.403 3.725-2.127 5.651-1.36-.499-2.672-.977-3.984-1.462-4.97-1.847-9.94-3.694-14.913-5.544-.176-.064-.348-.14-.527-.198-.31-.097-.36-.276-.243-.573.338-.87.65-1.75.98-2.628.306-.816.649-1.622.912-2.453.154-.495.385-.545.822-.38 1.663.636 3.333 1.248 4.999 1.868.176.064.358.115.527.194.264.132.399.042.488-.216.1-.294.225-.58.335-.874 1.029-2.765 2.061-5.537 3.115-8.385Z"/><path fill="#00CF4B" d="M86.547 91.58c-.075.07-.134.093-.179.134-3.721 3.287-8.011 5.596-12.62 7.325a56.501 56.501 0 0 1-16.625 3.521c-.923-.066-1.785-.023-2.646-.027-2.05-.011-4.008-.416-5.786-1.473-2.24-1.332-3.406-3.35-3.558-5.946-.126-2.102.136-4.16.844-6.153 1.042-2.933 3.007-4.911 5.941-5.931 1.653-.577 3.344-1.01 5.035-1.443 1.612-.414 3.225-.824 4.88-1.255.276-.273.587-.376.906-.463a115.922 115.922 0 0 0 6.948-2.128c.457-.156.917-.2 1.433-.228.498-.073.914-.26 1.34-.404 1.91-.638 3.813-1.293 5.638-2.158.34-.162.65-.345.9-.63.78-.883 1.695-1.61 2.65-2.298a91.742 91.742 0 0 1 5.121-3.438c2.404-1.498 5.035-2.408 7.747-3.125.48-.126.974-.14 1.464-.185.399-.037.666.127.84.486.149.303.206.623.231.956.136 1.806-.05 3.588-.377 5.36-.688 3.713-1.836 7.28-3.51 10.664-1.648 3.345-3.857 6.275-6.617 8.838Z"/><path fill="#FF5D5D" d="M65.332 24.792c-.64.292-1.151.691-1.663 1.096-.736.578-.79 1.67-.274 2.62 1.245 2.297 2.69 4.434 4.516 6.23.83.816 1.713 1.52 2.714 1.963 2.055.91 3.64.053 4.046-2.198.162-.911.13-1.865-.013-2.834-.345-2.338-1.155-4.563-2.232-6.706-.355-.71-.875-1.242-1.627-1.324a5.116 5.116 0 0 0-1.39.009c-1.396.226-2.753.548-4.077 1.144Z"/><path fill="#000" fill-rule="evenodd" d="M47.596 14.93a1.06 1.06 0 0 1 1.29-.77l10.459 2.687-8.146 6.746c-.452.375-1.12.31-1.493-.145a1.071 1.071 0 0 1 .145-1.502l4.916-4.072-6.406-1.646a1.068 1.068 0 0 1-.765-1.298ZM74.608 16.588a1.06 1.06 0 0 1-1.276.793l-8.64-2.052 6.795-5.296a1.057 1.057 0 0 1 1.488.19 1.071 1.071 0 0 1-.189 1.497l-3.283 2.559 4.316 1.025c.57.136.924.71.789 1.284Z" clip-rule="evenodd"/><path fill="#fff" d="m4.589 36.733 1.695-11.268 12.933 8.312-14.628 2.956ZM24.448 26.744l-4.55-20.042L28.41 4.1l-3.962 22.644ZM20.648 29.822 9.24 2.072 3.678 9.395l16.97 20.427Z"/></svg>