<svg width="390" height="239" viewBox="0 0 390 239" fill="none" xmlns="http://www.w3.org/2000/svg">
<g clip-path="url(#clip0_2958_40544)">
<g clip-path="url(#clip1_2958_40544)">
<rect width="390" height="238" fill="#E6FBEE"/>
<mask id="mask0_2958_40544" style="mask-type:alpha" maskUnits="userSpaceOnUse" x="0" y="0" width="390" height="238">
<rect width="390" height="238" fill="#E6FBEE"/>
</mask>
<g mask="url(#mask0_2958_40544)">
<g opacity="0.5">
<mask id="mask1_2958_40544" style="mask-type:alpha" maskUnits="userSpaceOnUse" x="0" y="0" width="391" height="232">
<rect y="0.912109" width="391" height="230.233" fill="#F3EFEC"/>
</mask>
<g mask="url(#mask1_2958_40544)">
<path d="M20.2046 105.437C46.7851 105.437 68.4091 85.6807 68.4091 61.3962C68.4091 37.1116 46.7851 17.3555 20.2046 17.3555C-6.37597 17.3555 -28 37.1116 -28 61.3962C-28 85.6807 -6.37597 105.437 20.2046 105.437Z" fill="#00C62E" fill-opacity="0.2"/>
<path d="M168.615 105.437C195.195 105.437 216.819 85.6807 216.819 61.3962C216.819 37.1116 195.195 17.3555 168.615 17.3555C142.034 17.3555 120.41 37.1116 120.41 61.3962C120.41 85.6807 142.034 105.437 168.615 105.437Z" fill="#00C62E" fill-opacity="0.2"/>
<path d="M317.023 105.437C343.603 105.437 365.227 85.6807 365.227 61.3962C365.227 37.1116 343.603 17.3555 317.023 17.3555C290.442 17.3555 268.818 37.1116 268.818 61.3962C268.818 85.6807 290.442 105.437 317.023 105.437Z" fill="#00C62E" fill-opacity="0.2"/>
<path d="M94.6147 215.445C121.195 215.445 142.819 195.689 142.819 171.404C142.819 147.119 121.195 127.363 94.6147 127.363C68.0342 127.363 46.4102 147.119 46.4102 171.404C46.4102 195.689 68.0342 215.445 94.6147 215.445Z" fill="#00C62E" fill-opacity="0.2"/>
<path d="M243.023 215.445C269.603 215.445 291.227 195.689 291.227 171.404C291.227 147.119 269.603 127.363 243.023 127.363C216.442 127.363 194.818 147.119 194.818 171.404C194.818 195.689 216.442 215.445 243.023 215.445Z" fill="#00C62E" fill-opacity="0.2"/>
<path d="M391.431 215.445C418.012 215.445 439.636 195.689 439.636 171.404C439.636 147.119 418.012 127.363 391.431 127.363C364.851 127.363 343.227 147.119 343.227 171.404C343.227 195.689 364.851 215.445 391.431 215.445Z" fill="#00C62E" fill-opacity="0.2"/>
</g>
</g>
</g>
<ellipse cx="195" cy="288.5" rx="230" ry="100.5" fill="white"/>
</g>
<path d="M139.552 42.864H142.744V65.16H139.552V42.864ZM130.768 44.424C131.904 44.424 132.912 44.752 133.792 45.408C134.672 46.048 135.36 46.968 135.856 48.168C136.368 49.352 136.624 50.752 136.624 52.368C136.624 54 136.368 55.416 135.856 56.616C135.36 57.8 134.672 58.72 133.792 59.376C132.912 60.016 131.904 60.336 130.768 60.336C129.648 60.336 128.648 60.016 127.768 59.376C126.888 58.72 126.192 57.8 125.68 56.616C125.184 55.416 124.936 54 124.936 52.368C124.936 50.752 125.184 49.352 125.68 48.168C126.192 46.968 126.888 46.048 127.768 45.408C128.648 44.752 129.648 44.424 130.768 44.424ZM130.768 47.328C130.224 47.328 129.744 47.52 129.328 47.904C128.912 48.288 128.584 48.856 128.344 49.608C128.12 50.344 128.008 51.264 128.008 52.368C128.008 53.456 128.12 54.384 128.344 55.152C128.584 55.904 128.912 56.472 129.328 56.856C129.744 57.24 130.224 57.432 130.768 57.432C131.328 57.432 131.816 57.24 132.232 56.856C132.648 56.472 132.968 55.904 133.192 55.152C133.432 54.384 133.552 53.456 133.552 52.368C133.552 51.264 133.432 50.344 133.192 49.608C132.968 48.856 132.648 48.288 132.232 47.904C131.816 47.52 131.328 47.328 130.768 47.328ZM155.788 47.28H158.164V47.952C158.164 49.136 157.996 50.264 157.66 51.336C157.324 52.392 156.796 53.328 156.076 54.144C155.356 54.944 154.412 55.568 153.244 56.016L151.804 53.664C152.732 53.312 153.484 52.84 154.06 52.248C154.652 51.656 155.084 50.992 155.356 50.256C155.644 49.52 155.788 48.752 155.788 47.952V47.28ZM156.46 47.28H158.812V47.952C158.812 48.704 158.948 49.432 159.22 50.136C159.508 50.824 159.948 51.44 160.54 51.984C161.132 52.528 161.884 52.96 162.796 53.28L161.404 55.656C160.236 55.24 159.284 54.648 158.548 53.88C157.828 53.112 157.3 52.216 156.964 51.192C156.628 50.168 156.46 49.088 156.46 47.952V47.28ZM152.404 45.408H162.148V47.904H152.404V45.408ZM155.788 43.104H158.812V46.536H155.788V43.104ZM167.716 42.912H170.764V56.544H167.716V42.912ZM165.076 48.456H168.604V51.024H165.076V48.456ZM163.108 43.272H166.084V56.424H163.108V43.272ZM155.476 57.48H170.764V65.136H167.572V60.024H155.476V57.48ZM183.962 43.2C186.49 43.2 188.458 43.528 189.866 44.184C191.29 44.84 192.002 45.784 192.002 47.016C192.002 48.232 191.29 49.168 189.866 49.824C188.458 50.48 186.49 50.808 183.962 50.808C181.418 50.808 179.434 50.48 178.01 49.824C176.602 49.168 175.898 48.232 175.898 47.016C175.898 45.784 176.602 44.84 178.01 44.184C179.434 43.528 181.418 43.2 183.962 43.2ZM183.938 45.552C182.882 45.552 182.002 45.608 181.298 45.72C180.594 45.816 180.066 45.976 179.714 46.2C179.378 46.408 179.21 46.68 179.21 47.016C179.21 47.352 179.378 47.632 179.714 47.856C180.066 48.064 180.594 48.216 181.298 48.312C182.002 48.408 182.882 48.456 183.938 48.456C185.01 48.456 185.898 48.408 186.602 48.312C187.306 48.216 187.826 48.064 188.162 47.856C188.498 47.632 188.666 47.352 188.666 47.016C188.666 46.68 188.498 46.408 188.162 46.2C187.826 45.976 187.306 45.816 186.602 45.72C185.898 45.608 185.01 45.552 183.938 45.552ZM173.882 51.84H193.994V54.36H173.882V51.84ZM176.186 55.608H191.546V61.296H179.378V63.264H176.21V59.088H188.402V57.96H176.186V55.608ZM176.21 62.568H192.146V64.992H176.21V62.568ZM216.686 42.912H219.878V54.384H216.686V42.912ZM203.965 62.52H205.454C206.622 62.52 207.622 62.512 208.454 62.496C209.286 62.48 210.054 62.44 210.758 62.376C211.462 62.296 212.166 62.192 212.87 62.064L213.182 64.416C212.43 64.56 211.686 64.664 210.95 64.728C210.23 64.792 209.43 64.832 208.55 64.848C207.686 64.88 206.654 64.896 205.454 64.896H203.965V62.52ZM203.942 55.32H211.598V61.104H207.038V63.888H203.965V58.896H208.502V57.672H203.942V55.32ZM212.438 55.32H219.878V65.064H216.71V57.84H212.438V55.32ZM207.662 43.776C208.814 43.776 209.83 44 210.71 44.448C211.606 44.896 212.31 45.504 212.822 46.272C213.35 47.024 213.614 47.904 213.614 48.912C213.614 49.904 213.35 50.784 212.822 51.552C212.31 52.32 211.606 52.928 210.71 53.376C209.83 53.808 208.814 54.024 207.662 54.024C206.542 54.024 205.534 53.808 204.638 53.376C203.742 52.928 203.03 52.32 202.502 51.552C201.99 50.784 201.734 49.904 201.734 48.912C201.734 47.904 201.99 47.024 202.502 46.272C203.03 45.504 203.742 44.896 204.638 44.448C205.534 44 206.542 43.776 207.662 43.776ZM207.662 46.368C207.134 46.368 206.654 46.472 206.222 46.68C205.79 46.872 205.446 47.16 205.19 47.544C204.95 47.912 204.83 48.368 204.83 48.912C204.83 49.424 204.95 49.88 205.19 50.28C205.446 50.664 205.79 50.96 206.222 51.168C206.654 51.36 207.134 51.456 207.662 51.456C208.222 51.456 208.71 51.36 209.126 51.168C209.558 50.96 209.894 50.664 210.134 50.28C210.39 49.88 210.518 49.424 210.518 48.912C210.518 48.368 210.39 47.912 210.134 47.544C209.894 47.16 209.558 46.872 209.126 46.68C208.71 46.472 208.222 46.368 207.662 46.368ZM238.812 42.888H242.004V65.112H238.812V42.888ZM232.26 45.192H235.404C235.404 46.888 235.236 48.512 234.9 50.064C234.58 51.6 234.036 53.048 233.268 54.408C232.516 55.768 231.476 57.032 230.148 58.2C228.836 59.352 227.196 60.408 225.228 61.368L223.548 58.848C225.692 57.808 227.396 56.664 228.66 55.416C229.94 54.152 230.86 52.728 231.42 51.144C231.98 49.544 232.26 47.752 232.26 45.768V45.192ZM224.748 45.192H233.748V47.736H224.748V45.192ZM245.578 60.096H265.714V62.688H245.578V60.096ZM254.026 55.872H257.194V61.128H254.026V55.872ZM247.858 44.328H263.434V51.744H251.05V55.464H247.882V49.248H260.266V46.872H247.858V44.328ZM247.882 54.216H263.938V56.76H247.882V54.216ZM78.3368 76.888H81.5528V88.048H78.3368V76.888ZM70.9448 77.728H74.4248C74.4248 79.696 74.0408 81.408 73.2728 82.864C72.5208 84.304 71.3928 85.496 69.8888 86.44C68.3848 87.368 66.5128 88.08 64.2728 88.576L63.1928 86.008C65.0648 85.64 66.5608 85.136 67.6808 84.496C68.8168 83.84 69.6408 83.088 70.1528 82.24C70.6808 81.376 70.9448 80.456 70.9448 79.48V77.728ZM64.4888 77.728H72.2648V80.272H64.4888V77.728ZM73.5608 79.672H78.7448V82.096H73.5608V79.672ZM73.4168 83.992H78.6488V86.392H73.4168V83.992ZM66.8648 88.864H81.5528V95.008H70.0808V97.744H66.8888V92.632H78.3368V91.36H66.8648V88.864ZM66.8888 96.4H81.9848V98.92H66.8888V96.4ZM100.295 76.912H103.487V89.464H100.295V76.912ZM88.7029 90.472H103.487V98.896H88.7029V90.472ZM100.367 92.992H91.8469V96.376H100.367V92.992ZM90.2389 77.728H92.8789V79.84C92.8789 81.216 92.6469 82.528 92.1829 83.776C91.7189 85.024 91.0149 86.112 90.0709 87.04C89.1269 87.952 87.9189 88.632 86.4469 89.08L84.9109 86.584C85.8389 86.296 86.6389 85.912 87.3109 85.432C87.9829 84.952 88.5349 84.416 88.9669 83.824C89.3989 83.216 89.7189 82.576 89.9269 81.904C90.1349 81.216 90.2389 80.528 90.2389 79.84V77.728ZM90.8869 77.728H93.4789V79.84C93.4789 80.528 93.5829 81.192 93.7909 81.832C93.9989 82.472 94.3109 83.08 94.7269 83.656C95.1429 84.216 95.6709 84.712 96.3109 85.144C96.9669 85.576 97.7509 85.928 98.6629 86.2L97.1269 88.672C96.0549 88.368 95.1269 87.928 94.3429 87.352C93.5749 86.776 92.9269 86.104 92.3989 85.336C91.8869 84.552 91.5029 83.696 91.2469 82.768C91.0069 81.84 90.8869 80.864 90.8869 79.84V77.728ZM121.389 76.912H124.581V93.52H121.389V76.912ZM123.693 83.68H127.533V86.32H123.693V83.68ZM107.109 79.24H120.165V81.736H107.109V79.24ZM113.637 82.528C114.709 82.528 115.653 82.712 116.469 83.08C117.301 83.432 117.949 83.936 118.413 84.592C118.877 85.232 119.109 85.968 119.109 86.8C119.109 87.648 118.877 88.4 118.413 89.056C117.949 89.696 117.301 90.2 116.469 90.568C115.653 90.92 114.709 91.096 113.637 91.096C112.581 91.096 111.637 90.92 110.805 90.568C109.973 90.2 109.325 89.696 108.861 89.056C108.397 88.4 108.165 87.648 108.165 86.8C108.165 85.968 108.397 85.232 108.861 84.592C109.325 83.936 109.973 83.432 110.805 83.08C111.637 82.712 112.581 82.528 113.637 82.528ZM113.637 84.952C112.933 84.952 112.357 85.112 111.909 85.432C111.461 85.752 111.237 86.216 111.237 86.824C111.237 87.416 111.461 87.872 111.909 88.192C112.357 88.512 112.933 88.672 113.637 88.672C114.357 88.672 114.933 88.512 115.365 88.192C115.813 87.872 116.037 87.416 116.037 86.824C116.037 86.216 115.813 85.752 115.365 85.432C114.933 85.112 114.357 84.952 113.637 84.952ZM112.053 76.888H115.221V80.44H112.053V76.888ZM110.253 96.184H125.373V98.752H110.253V96.184ZM110.253 92.272H113.469V97.288H110.253V92.272ZM149.865 76.864H153.057V99.16H149.865V76.864ZM141.081 78.424C142.217 78.424 143.225 78.752 144.105 79.408C144.985 80.048 145.673 80.968 146.169 82.168C146.681 83.352 146.937 84.752 146.937 86.368C146.937 88 146.681 89.416 146.169 90.616C145.673 91.8 144.985 92.72 144.105 93.376C143.225 94.016 142.217 94.336 141.081 94.336C139.961 94.336 138.961 94.016 138.081 93.376C137.201 92.72 136.505 91.8 135.993 90.616C135.497 89.416 135.249 88 135.249 86.368C135.249 84.752 135.497 83.352 135.993 82.168C136.505 80.968 137.201 80.048 138.081 79.408C138.961 78.752 139.961 78.424 141.081 78.424ZM141.081 81.328C140.537 81.328 140.057 81.52 139.641 81.904C139.225 82.288 138.897 82.856 138.657 83.608C138.433 84.344 138.321 85.264 138.321 86.368C138.321 87.456 138.433 88.384 138.657 89.152C138.897 89.904 139.225 90.472 139.641 90.856C140.057 91.24 140.537 91.432 141.081 91.432C141.641 91.432 142.129 91.24 142.545 90.856C142.961 90.472 143.281 89.904 143.505 89.152C143.745 88.384 143.865 87.456 143.865 86.368C143.865 85.264 143.745 84.344 143.505 83.608C143.281 82.856 142.961 82.288 142.545 81.904C142.129 81.52 141.641 81.328 141.081 81.328ZM161.239 90.952H164.479V99.112H161.239V90.952ZM168.919 90.952H172.159V99.112H168.919V90.952ZM156.703 89.272H176.815V91.84H156.703V89.272ZM166.711 77.656C168.295 77.656 169.687 77.856 170.887 78.256C172.103 78.656 173.047 79.232 173.719 79.984C174.391 80.736 174.727 81.616 174.727 82.624C174.727 83.632 174.391 84.512 173.719 85.264C173.047 86 172.103 86.576 170.887 86.992C169.687 87.392 168.295 87.592 166.711 87.592C165.127 87.592 163.727 87.392 162.511 86.992C161.311 86.576 160.367 86 159.679 85.264C159.007 84.512 158.671 83.632 158.671 82.624C158.671 81.616 159.007 80.736 159.679 79.984C160.367 79.232 161.311 78.656 162.511 78.256C163.727 77.856 165.127 77.656 166.711 77.656ZM166.711 80.176C165.735 80.176 164.887 80.272 164.167 80.464C163.463 80.656 162.919 80.936 162.535 81.304C162.151 81.656 161.959 82.096 161.959 82.624C161.959 83.152 162.151 83.6 162.535 83.968C162.919 84.32 163.463 84.592 164.167 84.784C164.887 84.96 165.735 85.048 166.711 85.048C167.687 85.048 168.527 84.96 169.231 84.784C169.935 84.592 170.479 84.32 170.863 83.968C171.263 83.6 171.463 83.152 171.463 82.624C171.463 82.096 171.263 81.656 170.863 81.304C170.479 80.936 169.935 80.656 169.231 80.464C168.527 80.272 167.687 80.176 166.711 80.176ZM192.965 76.864H196.181V99.088H192.965V76.864ZM195.365 85.384H199.277V88H195.365V85.384ZM187.133 79.168H190.277C190.277 81.392 189.957 83.496 189.317 85.48C188.693 87.464 187.653 89.288 186.197 90.952C184.757 92.6 182.805 94.04 180.341 95.272L178.541 92.848C180.493 91.84 182.101 90.704 183.365 89.44C184.645 88.176 185.589 86.744 186.197 85.144C186.821 83.528 187.133 81.728 187.133 79.744V79.168ZM179.765 79.168H188.789V81.736H179.765V79.168ZM206.297 89.32H226.409V91.888H206.297V89.32ZM214.673 90.952H217.865V99.136H214.673V90.952ZM208.601 77.992H224.009V86.944H208.601V77.992ZM220.889 80.488H211.745V84.448H220.889V80.488ZM243.759 76.912H246.975V91.792H243.759V76.912ZM239.199 82.576H244.455V85.144H239.199V82.576ZM234.495 78.304C235.615 78.304 236.615 78.536 237.495 79C238.375 79.464 239.071 80.112 239.583 80.944C240.111 81.776 240.375 82.728 240.375 83.8C240.375 84.856 240.111 85.8 239.583 86.632C239.071 87.464 238.375 88.12 237.495 88.6C236.615 89.064 235.615 89.296 234.495 89.296C233.407 89.296 232.415 89.064 231.519 88.6C230.639 88.12 229.935 87.464 229.407 86.632C228.895 85.8 228.639 84.856 228.639 83.8C228.639 82.728 228.895 81.776 229.407 80.944C229.935 80.112 230.639 79.464 231.519 79C232.415 78.536 233.407 78.304 234.495 78.304ZM234.495 80.992C233.967 80.992 233.487 81.104 233.055 81.328C232.623 81.552 232.287 81.872 232.047 82.288C231.807 82.704 231.687 83.208 231.687 83.8C231.687 84.376 231.807 84.88 232.047 85.312C232.287 85.728 232.623 86.048 233.055 86.272C233.487 86.496 233.967 86.608 234.495 86.608C235.039 86.608 235.519 86.496 235.935 86.272C236.367 86.048 236.703 85.728 236.943 85.312C237.183 84.88 237.303 84.376 237.303 83.8C237.303 83.208 237.183 82.704 236.943 82.288C236.703 81.872 236.367 81.552 235.935 81.328C235.519 81.104 235.039 80.992 234.495 80.992ZM237.879 90.448H240.591V91.072C240.591 92 240.407 92.896 240.039 93.76C239.671 94.624 239.119 95.424 238.383 96.16C237.663 96.88 236.767 97.488 235.695 97.984C234.639 98.496 233.423 98.848 232.047 99.04L230.871 96.544C232.039 96.368 233.055 96.088 233.919 95.704C234.799 95.32 235.527 94.872 236.103 94.36C236.695 93.848 237.135 93.312 237.423 92.752C237.727 92.176 237.879 91.616 237.879 91.072V90.448ZM238.431 90.448H241.143V91.072C241.143 91.664 241.287 92.248 241.575 92.824C241.863 93.384 242.295 93.92 242.871 94.432C243.463 94.928 244.199 95.36 245.079 95.728C245.959 96.096 246.991 96.368 248.175 96.544L246.999 99.04C245.623 98.832 244.399 98.48 243.327 97.984C242.255 97.504 241.359 96.912 240.639 96.208C239.919 95.504 239.367 94.72 238.983 93.856C238.615 92.976 238.431 92.048 238.431 91.072V90.448ZM265.717 76.912H268.909V92.872H265.717V76.912ZM254.101 96.184H269.485V98.752H254.101V96.184ZM254.101 91.288H257.293V97.24H254.101V91.288ZM256.813 78.328C257.949 78.328 258.973 78.568 259.885 79.048C260.797 79.528 261.517 80.192 262.045 81.04C262.589 81.888 262.861 82.864 262.861 83.968C262.861 85.04 262.589 86.008 262.045 86.872C261.517 87.72 260.797 88.392 259.885 88.888C258.973 89.368 257.949 89.608 256.813 89.608C255.677 89.608 254.653 89.368 253.741 88.888C252.829 88.392 252.101 87.72 251.557 86.872C251.029 86.008 250.765 85.04 250.765 83.968C250.765 82.864 251.029 81.888 251.557 81.04C252.101 80.192 252.829 79.528 253.741 79.048C254.653 78.568 255.677 78.328 256.813 78.328ZM256.813 81.064C256.269 81.064 255.773 81.184 255.325 81.424C254.877 81.648 254.525 81.976 254.269 82.408C254.013 82.824 253.885 83.344 253.885 83.968C253.885 84.56 254.013 85.072 254.269 85.504C254.525 85.92 254.877 86.248 255.325 86.488C255.773 86.712 256.269 86.824 256.813 86.824C257.357 86.824 257.853 86.712 258.301 86.488C258.749 86.248 259.101 85.92 259.357 85.504C259.613 85.072 259.741 84.56 259.741 83.968C259.741 83.344 259.613 82.824 259.357 82.408C259.101 81.976 258.749 81.648 258.301 81.424C257.853 81.184 257.357 81.064 256.813 81.064ZM286.715 76.864H289.931V99.088H286.715V76.864ZM289.115 85.384H293.027V88H289.115V85.384ZM280.883 79.168H284.027C284.027 81.392 283.707 83.496 283.067 85.48C282.443 87.464 281.403 89.288 279.947 90.952C278.507 92.6 276.555 94.04 274.091 95.272L272.291 92.848C274.243 91.84 275.851 90.704 277.115 89.44C278.395 88.176 279.339 86.744 279.947 85.144C280.571 83.528 280.883 81.728 280.883 79.744V79.168ZM273.515 79.168H282.539V81.736H273.515V79.168ZM299.025 88.192H302.217V94.408H299.025V88.192ZM307.089 88.192H310.281V94.408H307.089V88.192ZM294.609 93.952H314.745V96.544H294.609V93.952ZM304.641 77.992C306.241 77.992 307.665 78.24 308.913 78.736C310.177 79.232 311.161 79.928 311.865 80.824C312.585 81.704 312.945 82.752 312.945 83.968C312.945 85.168 312.585 86.216 311.865 87.112C311.161 87.992 310.177 88.68 308.913 89.176C307.665 89.672 306.241 89.92 304.641 89.92C303.057 89.92 301.633 89.672 300.369 89.176C299.121 88.68 298.137 87.992 297.417 87.112C296.697 86.216 296.337 85.168 296.337 83.968C296.337 82.752 296.697 81.704 297.417 80.824C298.137 79.928 299.121 79.232 300.369 78.736C301.633 78.24 303.057 77.992 304.641 77.992ZM304.641 80.464C303.617 80.464 302.713 80.608 301.929 80.896C301.161 81.168 300.561 81.56 300.129 82.072C299.697 82.584 299.481 83.216 299.481 83.968C299.481 84.688 299.697 85.312 300.129 85.84C300.561 86.352 301.161 86.752 301.929 87.04C302.713 87.312 303.617 87.448 304.641 87.448C305.681 87.448 306.585 87.312 307.353 87.04C308.137 86.752 308.737 86.352 309.153 85.84C309.585 85.312 309.801 84.688 309.801 83.968C309.801 83.216 309.585 82.584 309.153 82.072C308.737 81.56 308.137 81.168 307.353 80.896C306.585 80.608 305.681 80.464 304.641 80.464ZM319.951 90.952C319.839 90.168 319.879 89.472 320.071 88.864C320.279 88.256 320.567 87.712 320.935 87.232C321.303 86.736 321.679 86.272 322.063 85.84C322.447 85.408 322.775 84.984 323.047 84.568C323.319 84.152 323.455 83.712 323.455 83.248C323.455 82.848 323.367 82.504 323.191 82.216C323.031 81.912 322.799 81.68 322.495 81.52C322.207 81.36 321.847 81.28 321.415 81.28C320.887 81.28 320.407 81.408 319.975 81.664C319.543 81.904 319.135 82.232 318.751 82.648L316.783 80.848C317.407 80.128 318.143 79.544 318.991 79.096C319.855 78.648 320.807 78.424 321.847 78.424C322.807 78.424 323.663 78.592 324.415 78.928C325.183 79.264 325.783 79.776 326.215 80.464C326.647 81.136 326.863 81.984 326.863 83.008C326.863 83.696 326.719 84.304 326.431 84.832C326.159 85.36 325.815 85.856 325.399 86.32C324.999 86.768 324.599 87.216 324.199 87.664C323.815 88.112 323.503 88.6 323.263 89.128C323.023 89.656 322.943 90.264 323.023 90.952H319.951ZM321.511 97.336C320.871 97.336 320.343 97.112 319.927 96.664C319.511 96.216 319.303 95.672 319.303 95.032C319.303 94.36 319.511 93.808 319.927 93.376C320.343 92.944 320.871 92.728 321.511 92.728C322.135 92.728 322.655 92.944 323.071 93.376C323.487 93.808 323.695 94.36 323.695 95.032C323.695 95.672 323.487 96.216 323.071 96.664C322.655 97.112 322.135 97.336 321.511 97.336Z" fill="#313239"/>
<g clip-path="url(#clip2_2958_40544)">
<path d="M193.792 235.639C192.326 235.874 190.89 236.148 189.458 236.429C187.359 236.843 185.315 237.47 183.241 237.982C179.352 238.939 175.407 239.075 171.434 238.782C170.653 238.723 169.89 238.541 169.214 238.118C168.183 237.479 168.088 236.494 168.974 235.664C169.486 235.182 170.125 234.904 170.724 234.574C170.687 234.429 170.57 234.42 170.477 234.383C167.06 232.938 165.192 230.271 164.603 226.697C163.63 220.795 167.048 216.155 170.712 214.3C170.955 214.176 171.057 214.001 171.091 213.735C171.576 210.17 172.752 206.842 174.576 203.743C174.709 203.518 174.758 203.373 174.484 203.203C169.032 199.798 164.967 195.047 161.507 189.726C159.025 185.91 156.923 181.898 155.543 177.539C154.209 173.328 153.706 169.01 154.012 164.608C154.145 162.688 153.641 160.994 152.601 159.416C152.373 159.07 152.16 158.712 151.965 158.345C150.839 156.231 152.12 153.835 154.114 153.147C156.386 152.363 158.667 152.409 160.899 153.354C161.781 153.727 162.467 154.348 163.041 155.113C164.059 156.465 164.856 157.931 165.458 159.512C165.714 160.188 166.017 160.845 166.291 161.503C166.51 161.478 166.575 161.321 166.671 161.207C169.471 157.873 172.835 155.237 176.632 153.144C177.395 152.724 177.91 152.19 178.277 151.384C179.768 148.121 181.324 144.886 183.451 141.972C184.877 140.019 186.547 138.321 188.742 137.231C190.384 136.416 192.119 136.055 193.928 136.555C196.119 137.16 197.363 138.716 197.984 140.83C198.16 141.423 198.286 142.031 198.444 142.661C198.746 142.544 198.697 142.284 198.74 142.087C199.058 140.556 199.527 139.108 200.685 137.969C202.077 136.598 203.756 136.154 205.645 136.413C208.59 136.817 210.726 138.565 212.597 140.713C214.631 143.05 216.032 145.785 217.431 148.517C217.934 149.501 218.425 150.501 218.841 151.526C219.138 152.249 219.619 152.702 220.289 153.067C222.885 154.483 225.296 156.166 227.469 158.175C228.553 159.175 229.574 160.234 230.51 161.376C230.602 161.487 230.664 161.707 230.843 161.651C230.982 161.605 230.976 161.392 231.037 161.253C231.926 159.231 232.649 157.138 233.951 155.304C235.047 153.764 236.464 152.863 238.291 152.563C239.758 152.323 241.23 152.341 242.666 152.755C244.397 153.255 245.481 154.36 245.74 156.206C245.857 157.033 245.549 157.734 245.178 158.425C244.829 159.08 244.465 159.731 244.07 160.361C243.388 161.45 243.224 162.66 243.292 163.895C243.434 166.482 243.369 169.056 243.03 171.625C242.511 175.545 241.292 179.243 239.573 182.787C236.801 188.503 233.325 193.729 228.809 198.23C227.321 199.715 225.722 201.064 223.981 202.246C223.7 202.437 223.626 202.564 223.833 202.888C225.944 206.209 227.321 209.809 227.83 213.72C227.88 214.093 228.105 214.238 228.389 214.389C233.788 217.266 236.072 224.385 233.34 229.839C232.3 231.916 230.732 233.444 228.574 234.34C228.463 234.386 228.358 234.441 228.25 234.497C228.238 234.503 228.235 234.528 228.21 234.574C228.722 234.877 229.278 235.111 229.75 235.488C230.081 235.753 230.371 236.05 230.503 236.46C230.698 237.056 230.426 237.67 229.775 238.087C228.818 238.698 227.725 238.803 226.636 238.88C223.197 239.118 219.854 238.649 216.566 237.615C214.035 236.818 211.455 236.216 208.8 235.957C207.578 235.84 206.361 235.716 205.09 235.645C204.92 235.472 205.031 235.343 205.102 235.207C206.457 232.623 207.142 229.848 207.488 226.965C207.707 225.135 207.75 223.295 207.661 221.464C207.537 218.949 207.074 216.476 206.352 214.056C205.867 212.432 205.195 210.908 204.164 209.546C202.833 207.79 201.077 207.117 198.922 207.385C198.87 207.392 198.82 207.404 198.768 207.404C196.909 207.407 195.616 208.395 194.57 209.812C193.273 211.565 192.662 213.599 192.134 215.677C191.335 218.831 191.122 222.045 191.288 225.274C191.458 228.552 192.15 231.728 193.566 234.716C193.705 234.991 193.863 235.269 193.792 235.639Z" fill="#00CE4C"/>
<path d="M193.804 235.691C193.344 234.601 192.856 233.543 192.498 232.444C190.807 227.227 190.68 221.933 191.791 216.587C192.214 214.543 192.764 212.546 193.798 210.712C194.39 209.657 195.15 208.749 196.113 208.011C196.536 207.687 197.023 207.515 197.536 207.413C198.663 207.187 199.799 207.104 200.944 207.274C202.311 207.477 203.321 208.262 204.166 209.293C205.33 210.712 206.037 212.364 206.537 214.108C208.124 219.67 208.343 225.267 206.911 230.897C206.494 232.527 205.92 234.101 205.055 235.595C201.759 235.293 198.468 235.237 195.178 235.626C194.733 235.673 194.282 235.679 193.804 235.691Z" fill="#DBFF9E"/>
<path d="M180.514 191.16C181.69 191.629 182.841 192.191 183.922 192.879C185.363 193.799 186.987 194.311 188.549 194.966C190.765 195.895 193.077 196.398 195.479 196.549C198.664 196.75 201.825 196.7 204.946 195.929C206.227 195.611 207.462 195.166 208.65 194.605C210.903 193.543 213.132 192.422 215.207 191.03C215.771 190.65 216.33 190.258 217.003 189.789C216.796 190.527 216.262 190.811 215.895 191.212C213.327 194.009 210.308 196.21 206.881 197.839C205.174 198.651 203.418 199.34 201.538 199.608C199.933 199.837 198.325 199.898 196.689 199.793C194.605 199.661 192.623 199.21 190.725 198.386C187.694 197.071 184.863 195.432 182.449 193.132C181.789 192.505 181.079 191.925 180.514 191.16Z" fill="#00C62E"/>
<path d="M180.502 191.129C180.487 191.114 180.474 191.095 180.465 191.076C180.477 191.079 180.487 191.082 180.508 191.101C180.515 191.117 180.508 191.126 180.502 191.129Z" fill="#018133"/>
<path d="M191.181 141.109C192.443 140.98 193.643 141.837 193.943 143.118C194.258 144.468 193.919 145.64 192.836 146.549C191.577 147.605 189.714 147.131 188.976 145.574C188.11 143.742 189.171 141.561 191.181 141.109Z" fill="black"/>
<path d="M191.096 146.867C190.448 146.81 189.965 146.531 189.569 146.054C188.808 145.139 188.748 144.125 189.15 143.073C189.539 142.053 190.661 141.021 192.113 141.429C192.449 141.522 192.77 141.711 193.069 142.104C192.608 141.918 192.233 141.897 191.861 141.996C191.429 142.11 191.258 142.476 191.141 142.845C190.979 143.355 191.342 144.155 191.795 144.269C192.713 144.5 193.216 144.677 193.708 143.463C194.119 144.713 193.342 146.075 192.362 146.594C192.002 146.78 191.606 147.068 191.096 146.867Z" fill="#030903"/>
<path d="M193.328 142.829C193.286 143.498 193.016 143.77 192.458 143.74C191.732 143.701 191.343 143.285 191.403 142.607C191.448 142.1 191.876 141.734 192.383 141.77C192.854 141.806 193.196 142.178 193.328 142.829Z" fill="white"/>
<path d="M205.868 147.102C204.606 147.231 203.406 146.374 203.106 145.093C202.791 143.743 203.13 142.571 204.213 141.662C205.472 140.606 207.335 141.08 208.073 142.637C208.939 144.469 207.878 146.65 205.868 147.102Z" fill="black"/>
<path d="M205.953 141.344C206.601 141.401 207.083 141.68 207.479 142.157C208.241 143.072 208.301 144.085 207.899 145.138C207.509 146.158 206.388 147.19 204.936 146.782C204.6 146.689 204.279 146.5 203.979 146.107C204.441 146.293 204.816 146.314 205.188 146.215C205.62 146.101 205.791 145.735 205.908 145.366C206.07 144.856 205.707 144.055 205.254 143.941C204.336 143.711 203.832 143.534 203.341 144.748C202.93 143.498 203.706 142.136 204.687 141.617C205.047 141.431 205.443 141.143 205.953 141.344Z" fill="#030903"/>
<path d="M205.385 142.54C205.427 141.872 205.697 141.599 206.255 141.629C206.98 141.668 207.37 142.085 207.31 142.762C207.265 143.269 206.837 143.635 206.33 143.599C205.859 143.563 205.517 143.191 205.385 142.54Z" fill="white"/>
<path d="M202.639 152.166C199.611 151.424 196.774 151.683 194.73 152.184C193.329 152.528 192.664 154.007 193.213 155.341C194.218 157.781 196.111 161.25 198.749 161.25C201.347 161.25 203.221 157.889 204.238 155.457C204.815 154.075 204.094 152.523 202.639 152.166Z" fill="#FF5D5D"/>
<path d="M161.235 136.313C160.341 135.076 159.265 133.327 158.438 131.458C158.101 130.694 157.825 129.925 157.751 129.152C157.626 127.812 158.367 127.302 159.576 127.947C160.847 128.622 161.866 129.758 162.89 130.876C164.46 132.59 165.794 134.499 167.038 136.452C167.937 137.863 168.788 139.328 169.376 140.878C169.596 141.459 169.777 142.035 169.828 142.608C169.922 143.698 169.38 144.097 168.375 143.663C167.753 143.395 167.173 142.97 166.615 142.497C164.68 140.853 163.048 138.877 161.229 136.311L161.235 136.313Z" fill="#FFBA14"/>
<path d="M154.274 141.604C153.507 141.058 152.529 140.25 151.666 139.325C151.314 138.946 150.995 138.553 150.789 138.119C150.433 137.367 150.743 136.931 151.56 137.075C152.42 137.225 153.235 137.689 154.05 138.142C155.299 138.836 156.457 139.688 157.572 140.583C158.379 141.229 159.17 141.916 159.831 142.702C160.078 142.996 160.302 143.296 160.453 143.618C160.737 144.231 160.517 144.565 159.859 144.505C159.451 144.468 159.034 144.332 158.62 144.164C157.18 143.579 155.84 142.745 154.27 141.604L154.274 141.604Z" fill="#FE2F2F"/>
<path d="M170.034 131.032C170.403 131.932 170.984 133.105 171.706 134.189C172.002 134.631 172.32 135.043 172.704 135.351C173.37 135.882 173.873 135.67 173.916 134.811C173.962 133.908 173.686 132.979 173.421 132.052C173.015 130.631 172.432 129.267 171.796 127.935C171.337 126.973 170.835 126.017 170.205 125.169C169.969 124.852 169.722 124.557 169.436 124.331C168.892 123.903 168.51 124.049 168.421 124.727C168.365 125.148 168.406 125.6 168.479 126.057C168.733 127.645 169.257 129.189 170.033 131.036L170.034 131.032Z" fill="#6785FA"/>
<path d="M238.396 136.143C236.767 136.338 235.14 136.539 233.511 136.725C232.856 136.801 232.721 137.087 232.949 137.715C233.294 138.661 233.753 139.549 234.33 140.565C233.33 140.095 232.513 139.661 231.659 139.322C230.78 138.972 230.584 139.103 230.449 140.135C230.158 142.388 229.908 144.644 229.639 146.898C229.607 147.167 229.672 147.453 229.444 147.805C229.151 147.268 229.193 146.73 229.129 146.225C228.875 144.216 228.658 142.203 228.375 140.198C228.186 138.852 227.987 138.758 226.702 139.271C226.201 139.47 225.728 139.741 225.119 140.038C225.413 139.206 225.867 138.561 226.078 137.811C226.248 137.204 226.159 136.937 225.48 136.819C223.021 136.393 220.538 136.187 218.068 135.859C217.831 135.828 217.594 135.798 217.342 135.586C218.823 135.411 220.304 135.245 221.782 135.059C222.988 134.908 224.188 134.714 225.396 134.582C225.993 134.515 226.088 134.255 225.923 133.724C225.617 132.735 225.119 131.843 224.398 130.768C225.444 131.242 226.233 131.631 227.049 131.959C228.065 132.368 228.22 132.296 228.364 131.227C228.667 128.978 228.912 126.72 229.196 124.468C229.236 124.155 229.18 123.802 229.517 123.438C229.711 125.131 229.884 126.729 230.075 128.326C230.2 129.362 230.338 130.396 230.49 131.428C230.605 132.215 230.94 132.552 231.799 132.208C232.443 131.948 233.033 131.583 233.832 131.221C233.418 132.067 232.985 132.722 232.781 133.479C232.619 134.089 232.686 134.462 233.436 134.545C235.277 134.747 237.112 135.011 238.949 135.249C239.795 135.452 240.726 135.184 241.709 135.783C240.485 135.94 239.438 136.049 238.393 136.146L238.396 136.143Z" fill="#FE49A9"/>
<path d="M120.047 180.181C120.543 177.484 121.803 175.246 123.677 173.355C126.173 170.835 129.108 169.035 132.623 168.333C137.119 167.432 140.866 168.822 143.88 172.23C145.977 174.604 147.065 177.358 146.958 180.549C146.915 181.799 146.742 183.032 146.45 184.244C146.139 185.534 145.805 186.819 145.483 188.107C145.284 188.896 145.138 189.694 145.096 190.509C145.034 191.69 145.308 192.758 146.096 193.679C146.487 194.134 146.474 194.16 145.939 194.524C144.038 195.826 142.131 197.125 140.223 198.418C139.63 198.822 139.623 198.817 139.195 198.271C137.4 195.986 136.697 193.387 136.952 190.511C137.11 188.722 137.572 186.994 138.034 185.266C138.287 184.324 138.512 183.374 138.655 182.409C138.89 180.822 138.687 179.343 137.623 178.048C136.357 176.51 134.471 175.894 132.58 176.493C131.447 176.852 130.471 177.483 129.675 178.367C128.089 180.129 127.896 182.427 129.153 184.442C129.742 185.39 130.506 186.198 131.264 186.986C131.268 187.248 131.062 187.31 130.916 187.41C128.925 188.773 126.925 190.125 124.934 191.495C124.614 191.716 124.389 191.829 124.043 191.478C120.953 188.349 119.351 184.702 120.047 180.181Z" fill="#778F64"/>
<path d="M147.493 197.364C150.231 197.211 152.305 199.191 152.95 201.443C153.584 203.655 152.61 205.943 150.528 207.205C149.729 207.688 148.888 208.031 147.946 208.103C145.782 208.275 143.682 206.916 142.771 204.751C141.219 201.073 143.901 198.086 146.711 197.476C146.949 197.427 147.193 197.406 147.493 197.364Z" fill="#778F64"/>
<path d="M259.572 140.578C261.284 140.109 262.943 140.214 264.573 140.776C266.744 141.523 268.619 142.729 270.017 144.581C271.806 146.95 272.049 149.526 270.908 152.241C270.113 154.132 268.813 155.54 266.922 156.375C266.181 156.701 265.414 156.947 264.624 157.117C263.785 157.299 262.942 157.465 262.1 157.639C261.584 157.745 261.078 157.884 260.591 158.089C259.884 158.385 259.339 158.845 259.023 159.563C258.867 159.919 258.848 159.919 258.486 159.709C257.192 158.967 255.898 158.22 254.608 157.471C254.206 157.238 254.207 157.233 254.405 156.83C255.233 155.14 256.551 154 258.3 153.34C259.388 152.93 260.525 152.713 261.663 152.497C262.283 152.38 262.9 152.244 263.503 152.056C264.495 151.747 265.301 151.213 265.756 150.228C266.297 149.058 266.127 147.784 265.245 146.85C264.718 146.29 264.076 145.898 263.336 145.683C261.863 145.253 260.469 145.786 259.647 147.086C259.259 147.696 259.003 148.369 258.757 149.032C258.605 149.108 258.511 149.006 258.412 148.949C257.057 148.17 255.706 147.384 254.348 146.608C254.129 146.484 254 146.384 254.107 146.084C255.063 143.403 256.74 141.443 259.572 140.578Z" fill="#778F64"/>
<path d="M257.266 161.415C258.125 162.968 257.554 164.734 256.421 165.743C255.31 166.735 253.702 166.81 252.381 165.951C251.874 165.621 251.438 165.226 251.131 164.697C250.422 163.484 250.624 161.877 251.631 160.737C253.34 158.798 255.835 159.522 256.981 160.99C257.077 161.115 257.157 161.251 257.266 161.415Z" fill="#778F64"/>
<path d="M267.328 169.49C268.493 169.636 269.479 170.119 270.333 170.873C271.47 171.877 272.311 173.087 272.697 174.571C273.192 176.469 272.691 178.104 271.309 179.474C270.346 180.428 269.197 180.96 267.831 180.993C267.296 181.005 266.766 180.962 266.241 180.867C265.682 180.766 265.125 180.655 264.567 180.548C264.225 180.483 263.881 180.44 263.532 180.442C263.026 180.445 262.576 180.588 262.202 180.947C262.017 181.125 262.006 181.12 261.837 180.901C261.235 180.121 260.633 179.338 260.034 178.555C259.847 178.312 259.849 178.309 260.072 178.112C261.004 177.289 262.097 176.925 263.331 176.964C264.099 176.988 264.848 177.142 265.598 177.297C266.006 177.382 266.417 177.455 266.833 177.492C267.517 177.554 268.144 177.431 268.671 176.945C269.296 176.366 269.513 175.546 269.211 174.753C269.03 174.278 268.736 173.876 268.339 173.558C267.548 172.924 266.562 172.898 265.732 173.484C265.342 173.759 265.015 174.105 264.697 174.448C264.585 174.456 264.554 174.37 264.508 174.31C263.876 173.493 263.25 172.672 262.616 171.855C262.514 171.724 262.46 171.631 262.601 171.474C263.862 170.078 265.38 169.304 267.328 169.49Z" fill="#778F64"/>
<path d="M260.662 181.634C260.794 182.799 260 183.734 259.054 184.064C258.125 184.39 257.124 184.03 256.534 183.171C256.307 182.842 256.14 182.491 256.087 182.091C255.96 181.171 256.489 180.24 257.391 179.798C258.924 179.045 260.265 180.117 260.595 181.303C260.622 181.403 260.637 181.507 260.662 181.634Z" fill="#778F64"/>
</g>
</g>
<defs>
<clipPath id="clip0_2958_40544">
<rect width="390" height="239" fill="white"/>
</clipPath>
<clipPath id="clip1_2958_40544">
<rect width="390" height="238" fill="white"/>
</clipPath>
<clipPath id="clip2_2958_40544">
<rect width="160.001" height="117.942" fill="white" transform="translate(115 121)"/>
</clipPath>
</defs>
</svg>
