<svg width="90" height="120" fill="none" xmlns="http://www.w3.org/2000/svg"><path d="M54.605 119.907H37.342l7.88-5.818 9.383 5.818Z" fill="#DBFF9E"/><path d="M55.04 119.719c-1.044-.082-2.077-.174-3.116-.261-.935-.077-1.864-.164-2.799-.213-2.52-.13-5.045-.072-7.565.02-1.496.053-2.997.116-4.518.439-.616-1.039-1.074-2.121-1.536-3.203-1.218-2.851-1.899-5.847-2.37-8.881-.3-1.919-.413-3.856-.468-5.799-.154-5.504.716-10.862 2.331-16.12.497-1.613 1.277-3.12 2.083-4.662.03-.044.025-.049.03-.049.159-.15.243-.343.352-.565.03-.029.025-.039.03-.039.09-.091.145-.198.224-.328.025-.024.025-.034.03-.034.084-.082.139-.184.224-.314.03-.029.03-.048.04-.048.02-.025.034-.049.079-.097.03-.024.03-.034.03-.034.09-.077.139-.174.228-.3.035-.028.035-.052.045-.057.02-.03.03-.053.07-.092.034-.02.03-.034.04-.034.024-.024.034-.044.084-.092.03-.024.03-.034.035-.034.025-.019.04-.043.09-.091.029-.03.029-.034.029-.034.124-.111.239-.232.358-.401.035-.025.054-.063.1-.097.044-.034.069-.082.118-.116.05-.039.075-.087.125-.12.05-.035.08-.088.124-.112.104-.087.164-.15.268-.227.125-.111.264-.126.378-.237.025-.024.025-.029.03-.029a.79.79 0 0 0 .094-.092c.03-.028.03-.033.03-.033.02-.02.045-.039.095-.087.03-.03.03-.034.03-.034.02-.02.04-.039.094-.082.035-.024.035-.034.045-.034.02-.02.03-.044.084-.073 1.049-.744 2.252-.894 3.45-1.058 1.536-.208 3.072-.232 4.598.078 2.266.458 3.807 1.908 5.144 3.614.631.807 1.153 1.681 1.625 2.638.03.058.05.073.075.12.02.054.03.078.055.131.03.049.044.063.07.111.014.054.03.078.054.136.03.048.05.063.07.106.014.058.024.082.05.145.034.048.054.058.064.102.005.058.02.082.05.154.06.073.084.111.099.203.02.063.03.082.05.14.03.049.044.063.064.111.015.058.025.082.045.15a.36.36 0 0 1 .09.208c.02.063.03.082.05.145.029.048.044.063.059.111.01.058.025.087.045.15.054.072.084.11.089.203.015.063.025.087.045.15a.42.42 0 0 1 .084.212c.015.063.025.087.045.15.05.077.07.126.085.217.02.063.024.087.044.15.05.078.07.121.08.218.015.062.025.087.044.154.14.493.269.947.428 1.44.035.092.05.145.07.242.164.83.382 1.609.566 2.435.03.092.045.15.06.242.194 1.02.407 1.995.586 3.025.02.101.03.159.04.26-.005.223.045.392.085.604.02.092.025.15.034.252.065.696.14 1.353.22 2.053.019.14.029.237.034.382-.01.58.094 1.111.09 1.691.02.218.03.396.03.624.029.942.01 1.836.004 2.778l-.015.628c-.045.623-.11 1.194-.11 1.812-.004.106-.004.164-.014.266-.045.377-.11.705-.11 1.077-.004.102-.01.16-.02.261-.133.57-.133 1.112-.233 1.687l-.025.261c-.129.41-.119.797-.218 1.208-.01.096-.015.154-.03.251-.154.531-.219 1.034-.348 1.57-.015.097-.02.15-.04.242-.144.411-.224.797-.333 1.218-.015.096-.02.149-.045.241-.203.623-.402 1.203-.581 1.827-.015.096-.03.154-.065.251-.01.063-.005.082-.03.121-.035.043-.04.062-.06.125-.208.392-.317.773-.447 1.194-.035.058-.04.082-.064.14-.09.164-.15.3-.19.473a.643.643 0 0 0-.069.141c-.02.058-.02.082-.05.12-.034.044-.04.068-.064.121-.14.237-.264.44-.323.711-.035.053-.045.082-.075.144-.02.058-.02.083-.044.121-.04.044-.045.068-.075.126-.02.058-.02.077-.05.121-.035.043-.04.067-.064.12-.095.16-.154.295-.194.474a.652.652 0 0 0-.06.135c-.094.165-.154.3-.189.479 0 .029-.005.048-.01.053Z" fill="#DBFF9E"/><path d="M21.918 73.01c.233.247 0 .356-.124.468a36.504 36.504 0 0 0-4.323 4.902c-.045.022-.06.15-.105.18-.083.064-.094.236-.192.278a.802.802 0 0 1-.086.105c-.09.075-.105.221-.191.285-.045.056-.045.158-.102.184-.018.019-.067.09-.086.101-.135.128-.158.364-.289.47l-.086.104c-.045.027-.056.154-.102.184-.04.05-.045.162-.1.184-.046.11-.099.233-.185.29-.041.048-.045.16-.101.183-.011.015-.068.09-.086.105-.087.094-.083.312-.196.372-.018.022-.075.082-.082.105-.049.022-.06.154-.098.188-.086.172-.139.431-.289.562-.041.05-.045.158-.094.188-.04.045-.045.161-.093.188-.042.045-.045.161-.094.187-.072.094-.12.286-.188.38-.037.044-.045.16-.094.19-.086.29-.232.519-.371.763-.12.18-.113.514-.285.66-.094.124-.057.376-.192.473-.086.128-.052.375-.188.473-.108.233-.1.567-.28.758-.076.056-.023.229-.098.282-.072.056-.02.228-.098.28-.071.061-.019.234-.094.286-.63 1.952-.972 4.098-1.418 6.054-.203.127-.492.225-.668.371-.046.041-.147.064-.188.101-.086.064-.218.117-.29.184a4.41 4.41 0 0 0-.847.57 2.321 2.321 0 0 0-.38.286 5.446 5.446 0 0 0-.57.473c-.015.019-.067.09-.097.086a5.44 5.44 0 0 0-1.134 1.141c-5.99 6.181-4.642 17.996 3.768 21.276-1.175.596-2.083 1.343-2.48 2.09h30.71a2.498 2.498 0 0 0-.42-1.073c-.395-1.059-.965-2.046-1.284-3.134-1.749-5.01-2.15-10.444-1.58-15.691.803-5.134 1.726-11.998 6.928-14.509 5.858-2.075 9.904 2.383 11.251 7.697 2.14 7.322 2.27 15.324-.229 22.567-.307.964-.758 1.869-1.17 2.792-.222.435-.428.897-.511 1.351H83.02c-.3-.709-1.058-1.407-2.323-1.914 7.866-3.967 9.919-14.554 3.614-21.452-.32-.454-.72-.814-1.134-1.14-.022-.012-.093-.064-.1-.09-.162-.18-.399-.327-.571-.474-.09-.124-.278-.187-.38-.285-.247-.251-.581-.386-.848-.57-.075-.087-.229-.11-.288-.184-.05-.041-.162-.045-.184-.098-.586-.221-.834-.608-.864-1.205-.499-3.726-1.756-7.329-3.539-10.635-1.839-3.48-4.376-6.512-7.27-9.165-.352-.248-.067-.447.211-.567 26.36-12.463 26.612-38.359 1.287-52.282-2.33-1.745-2.728-5.134-4.368-7.49-1.426-2.74-3.025-5.401-5.097-7.71-5.865-6.713-14.857-6.83-16.512 3.127-1.066-9.041-9.833-10.088-15.515-4.06-4.159 4.131-6.628 9.592-9.056 14.846-1.11 1.711-3.438 2.248-5.01 3.512-23.587 15.842-18.116 40.446 6.853 50.85l-.008-.005Z" fill="#00CE4C"/><path d="M38.362 6.023c2.3 1.232 2.988 3.48 1.786 5.562-.782 1.35-2.287 2.134-3.8 1.975-1.421-.153-2.575-1.226-3.01-2.75-.84-2.977 2.55-5.819 5.024-4.787ZM51.743 5.987c2.567.233 4.155 1.95 4 4.216a3.502 3.502 0 0 1-2.494 3.13c-1.322.388-2.808-.127-3.855-1.302-2.04-2.3-.285-6.037 2.349-6.044Z" fill="#0E0E0E"/><path d="M37.48 9.754c-.72-.259-.985-.712-.787-1.397.134-.449.47-.743.957-.867.614-.156 1.099-.015 1.462.386.254.282.355.628.133 1.015-.367.634-.99.828-1.757.857l-.008.006ZM52.329 9.538c-.648-.504-.797-1.053-.43-1.68.245-.41.65-.595 1.163-.556.647.048 1.091.354 1.35.882.181.372.195.755-.121 1.074-.522.518-1.186.505-1.953.277l-.009.003Z" fill="#fff"/><path d="M49.626 22.979c1.104-.06 1.888-.702 2.8-1.175 1.389-.172-.034 1.464-.646 1.64-1.944 1.119-4.195.755-6.117-.18-1.925.248-3.73 1.652-5.937 1.25-1.148.064-4.496-1.539-3.006-2.815.349-.105.544.094.71.387 1.504 2.109 4.762 1.317 6.777.484 1.843-.92 3.441.863 5.423.409h-.004Z" fill="#0E0E0E"/><path d="M45.169 74.684h-14.77c11.816 6.797 23.938 2.832 28.522 0H45.169Z" fill="#00C62E"/></svg>