<svg width="120" height="120" viewBox="0 0 120 120" fill="none" xmlns="http://www.w3.org/2000/svg">
<path d="M101.74 50.3927C101.603 51.4011 101.28 52.3146 100.948 53.2745C100.924 53.4333 100.877 53.5414 100.773 53.5767C99.9837 53.8371 99.8886 54.6226 99.5502 55.2118C99.3489 55.5626 99.6298 55.7678 99.9616 55.8362C100.422 55.9311 100.888 55.9841 101.353 56.0547C102.178 56.1782 102.965 56.4474 103.802 56.699C104.695 57.0697 105.545 57.436 106.418 57.8728C107.292 58.6628 108.307 59.1857 109.159 59.9227C109.555 60.2647 109.896 60.7082 110.53 60.7347C111.256 61.368 111.878 62.0388 112.541 62.736C112.888 64.2453 114.147 65.1389 114.824 66.3922C114.968 66.6592 115.288 66.5577 115.545 66.6989C116.074 67.5109 116.521 68.3207 116.923 69.2055C116.684 70.589 117.624 71.5996 117.923 72.7867C118.047 73.2744 118.246 73.7046 118.775 73.9518C119.031 74.8807 119.263 75.7699 119.509 76.7143C118.974 77.7073 119.279 78.6847 119.376 79.6534C119.427 80.1609 119.436 80.675 119.394 81.1803C119.334 81.8886 119.458 82.5131 120 83.0603C119.998 84.0312 119.768 84.916 119.558 85.8603C119.518 85.9729 119.476 86.0567 119.425 86.0523C118.595 85.9994 118.441 86.6547 118.224 87.2107C117.766 88.378 117.065 89.382 116.22 90.2932C115.994 90.5382 115.815 90.7853 115.872 91.1406C115.901 91.3193 115.85 91.4781 115.665 91.6172C114.802 92.1026 113.97 92.5505 113.008 92.8153C112.457 92.5991 111.948 92.6542 111.406 92.7006C110.325 92.7932 109.221 92.9058 108.184 92.4247C107.938 92.3122 107.673 92.3917 107.392 92.2703C106.496 91.7893 105.912 91.0721 105.396 90.2182C105.299 90.088 105.237 89.9711 105.284 89.8806C105.591 89.2849 105.31 88.7729 105.071 88.2522C104.83 87.7293 104.671 87.1754 104.501 86.6304C104.408 86.337 104.279 86.0832 104.003 85.8648C103.731 84.8718 103.481 83.9164 103.213 82.9058C103.149 82.7492 103.118 82.6212 103.187 82.5462C103.658 82.0409 103.448 81.5378 103.215 81.0214C102.884 80.2867 102.528 79.5651 102.07 78.8944C101.851 78.5744 101.592 78.3626 101.165 78.2986C100.517 77.5528 99.8643 76.8776 98.995 76.3613C98.3955 75.0572 97.1104 74.9999 96.0287 74.6225C95.5775 74.4659 95.6483 75.0396 95.3651 75.2183C94.3941 75.194 93.465 75.1521 92.4807 75.1102C92.1047 75.1698 92.1002 74.9094 92.0449 74.7218C91.9454 74.3975 91.7109 74.2849 91.4079 74.3158C90.6425 74.3909 89.886 74.5232 89.1981 74.8961C88.7004 75.1675 88.6296 75.4301 88.8995 75.942C89.2468 76.5996 89.6095 77.2483 89.9634 77.9014C90.1249 78.1993 90.3793 78.3758 90.6558 78.6053C91.1446 79.4526 91.5185 80.3087 91.8835 81.2178C91.7662 81.9791 92.1577 82.5815 92.3347 83.228C92.5714 84.0863 92.8036 84.9446 92.9275 85.8295C92.9784 86.1935 93.0779 86.5378 93.454 86.7783C93.5579 87.1997 93.6486 87.5881 93.6929 87.983C93.7305 88.3118 93.8831 88.5148 94.1795 88.6538C94.4626 88.7884 94.7281 88.9671 95.0377 89.1569C94.8519 89.7659 95.0753 90.1145 95.5708 90.4654C96.5286 91.145 97.3382 92.0099 97.9753 92.9896C98.3048 93.4971 98.8379 93.3603 99.2449 93.6604C99.7205 94.5011 100.101 95.3351 100.362 96.2729C99.8333 97.0231 100.077 97.7778 100.201 98.5324C100.293 99.0973 100.262 99.6732 100.236 100.242C100.207 100.832 100.278 101.368 100.7 101.864C100.568 102.822 100.313 103.696 99.9439 104.589C99.913 104.675 99.8997 104.735 99.8687 104.742C99.0038 104.909 98.7384 105.662 98.3358 106.284C98.2318 106.443 98.1522 106.628 98.0084 106.747C97.6081 107.076 97.6258 107.509 97.6479 107.994C96.9533 108.687 96.2012 109.238 95.3319 109.704C95.1528 109.874 94.9847 109.808 94.8143 109.803C94.2901 109.79 93.5579 110.256 93.3677 110.717C93.1819 111.165 93.454 111.403 93.8101 111.564C94.3542 111.811 94.9072 112.041 95.3983 112.387C96.1172 112.895 96.0862 113.493 95.3187 113.916C94.8254 114.188 94.2812 114.307 93.7349 114.408C93.3721 114.474 93.0248 114.569 92.7329 114.883C91.7286 115.033 90.7598 114.964 89.7356 114.98C89.5918 114.986 89.4835 115.02 89.4304 114.96C88.9216 114.406 88.216 114.408 87.5546 114.305C86.86 114.196 86.1832 114.024 85.5152 113.808C84.5994 113.51 84.5994 113.508 83.9822 114.208C82.9824 114.022 82.0622 113.707 81.0823 113.418C81.0558 113.329 81.0116 113.272 81.0071 113.215C80.9452 112.164 80.1754 111.966 79.3481 111.831C79.242 111.813 79.1424 111.769 79.0362 111.756C78.6536 111.705 78.2886 111.544 77.8993 111.557C77.3574 111.575 77.5852 112.217 77.1959 112.414C76.2204 112.264 75.2891 112.1 74.3004 111.919C74.2119 111.824 74.1212 111.758 74.119 111.688C74.1057 110.757 73.4421 110.633 72.7387 110.593C72.23 110.567 71.7323 110.454 71.2235 110.439C70.4449 110.412 70.352 110.536 70.5953 111.262C70.6152 111.321 70.6174 111.385 70.6064 111.493C69.4938 111.549 68.3944 111.418 67.2375 111.306C66.9898 110.22 66.2532 110.059 65.3396 110.181C65.2136 110.198 65.0808 110.198 64.9548 110.181C64.196 110.079 63.6121 110.267 63.3688 111.125C62.4176 111.204 61.5019 111.253 60.5286 111.302C60.4268 111.297 60.3649 111.29 60.3538 111.26C60.0641 110.45 59.4535 110.556 58.79 110.664C58.31 110.743 57.8255 110.825 57.3367 110.851C56.6974 110.884 56.1466 111.063 55.8215 111.714C54.8438 111.802 53.9457 112.08 52.9702 112.208C52.2934 111.549 51.5457 111.767 50.8047 111.928C50.1986 112.058 49.5837 112.151 48.9732 112.259C48.4887 112.343 48.1083 112.508 48.1083 113.089C48.1083 113.226 47.9999 113.316 47.8605 113.42C46.8895 113.691 45.9627 113.949 44.9651 114.135C44.7306 114.075 44.6333 113.945 44.6089 113.762C44.5359 113.223 44.1754 113.197 43.7551 113.283C43.065 113.422 42.3748 113.576 41.6803 113.689C41.1273 113.779 40.6915 113.958 40.6384 114.602C40.6296 114.713 40.5389 114.786 40.3951 114.85C39.4307 114.947 38.5105 115.002 37.5284 114.98C36.9223 114.391 36.2078 114.466 35.5309 114.567C34.8275 114.673 34.0732 114.561 33.4273 114.98C33.3566 115.026 33.2614 114.986 33.1442 114.925C32.5226 114.805 31.9387 114.715 31.3768 114.527C30.9123 114.373 30.4766 114.168 30.0917 113.779C30.3416 113.071 30.2222 112.292 30.6137 111.659C31.0119 111.017 31.6202 110.637 32.328 110.403C32.4496 110.364 32.5713 110.324 32.6841 110.264C32.839 110.183 32.9849 110.086 32.9606 109.881C32.9407 109.713 32.8146 109.618 32.6664 109.576C31.9431 109.377 31.2552 109.093 30.5938 108.746C30.2023 108.541 29.855 108.936 29.448 108.757C28.6959 108.135 28.05 107.473 27.4837 106.672C27.3709 106.187 27.1409 105.814 26.8931 105.443C26.3335 104.609 25.9464 103.7 25.7407 102.672C25.4576 101.738 25.4377 100.816 25.4 99.8387C25.7031 98.3007 25.973 96.8069 26.6498 95.4366C26.8246 95.0836 26.6742 94.7769 26.6587 94.4018C27.0546 93.5236 27.5501 92.7579 28.1429 91.9901C29.1073 91.8555 29.6227 91.156 30.2111 90.5646C30.888 89.8828 31.702 89.3577 32.3767 88.6693C32.7151 88.325 32.892 87.9676 32.7903 87.4667C32.7018 87.0254 32.7571 86.5753 32.9186 86.1009C33.0889 85.0859 33.3765 84.1459 33.6729 83.1618C33.7945 82.1644 34.3232 81.3635 34.6594 80.4941C34.7368 80.2955 34.8629 80.1168 34.9138 79.9094C35.0155 79.4945 34.8209 79.1878 34.4028 79.232C33.7636 79.2981 33.1221 79.2915 32.4828 79.3313C31.9674 79.3643 31.7396 79.7726 31.3459 80.0219C30.3704 80.0263 29.4458 79.927 28.4592 79.8674C27.9814 79.3533 27.424 79.2452 26.8047 79.2937C26.3999 79.3246 26.0061 79.2055 25.608 79.1569C25.0992 79.0952 24.6059 79.0687 24.0795 79.2695C23.1195 79.1194 22.2236 78.8944 21.2835 78.6539C19.9984 77.8065 18.4987 77.6278 17.1582 77.0475C16.9569 76.9592 16.7401 77.1291 16.4835 77.0519C15.5965 76.69 14.7693 76.3017 13.9309 75.8251C12.8094 74.5122 11.2898 73.7995 9.9427 72.7889C9.20832 72.1535 8.60224 71.4584 7.96298 70.7258C6.77957 69.4505 5.67136 68.1817 4.97016 66.5665C4.47689 65.6927 4.08094 64.8212 3.64961 63.9187C3.18509 63.3627 3.0391 62.7117 2.84887 62.0873C2.60113 61.2753 2.36666 60.4589 2.12776 59.5961C1.82914 58.6672 1.61016 57.7625 1.39338 56.7983C1.53937 55.9267 1.34472 55.1081 1.3779 54.2917C1.39559 53.8283 1.30933 53.4113 1.01071 52.9964C0.979741 52.0454 1.01956 51.143 1.0837 50.1809C1.09476 50.0309 1.11025 49.9161 1.18324 49.8919C1.86675 49.6536 1.93532 49.0247 2.09679 48.4642C2.19633 48.1156 2.30914 47.7692 2.45735 47.4404C2.72057 46.8623 2.88647 46.2996 2.47062 45.6818C2.89974 44.8036 3.45938 44.0689 4.17606 43.3981C4.23799 43.3076 4.29329 43.2326 4.34417 43.2458C5.0697 43.4223 5.51873 42.9082 6.03413 42.5706C6.46104 42.2926 6.90344 42.0344 7.37901 41.8645C7.82583 41.7057 8.21736 41.4894 8.59782 41.1562C9.56003 40.9841 10.4714 41.0614 11.4424 41.196C11.7897 41.9638 12.5219 42.211 13.1302 42.6037C13.4155 42.7869 13.7208 42.9678 13.942 43.2127C14.3689 43.6871 14.8334 43.9409 15.5191 43.7467C16.1119 44.6094 16.3951 45.5649 16.6915 46.5688C16.572 48.0119 16.9857 49.3314 17.3241 50.6575C17.4413 51.1165 17.4834 51.6394 17.9965 51.9505C18.4323 52.8795 18.742 53.8327 19.2729 54.7374C19.9741 55.9068 20.7283 56.9682 21.9538 57.6588C22.8386 58.1663 23.7455 58.4907 24.7542 58.6893C25.2806 59.21 25.8292 59.2254 26.4308 58.9607C26.7604 58.815 26.9949 58.612 26.8622 58.2325C26.7361 57.8706 26.5171 57.5816 26.0526 57.7382C25.9486 57.7735 25.8491 57.7934 25.6987 57.7537C25.066 56.988 24.6347 56.1429 24.1702 55.2581C24.0906 55.1478 24.033 55.0551 24.0684 54.9867C24.5175 54.0997 23.8318 53.4355 23.6216 52.6809C23.5353 52.3742 23.1637 52.4073 22.958 52.1668C22.6174 51.2731 22.4404 50.3795 22.2568 49.4351C22.2413 49.3645 22.2236 49.3314 22.2303 49.3248C22.9735 48.5481 22.5001 47.6081 22.5886 46.7432C22.6373 46.2599 22.2148 46.0613 22.0157 45.6818C22.0821 44.7087 22.144 43.782 22.3652 42.82C23.0288 42.5419 23.2345 42.019 23.3274 41.4122C23.354 41.2467 23.3938 41.0812 23.4535 40.9224C23.7145 40.2163 24.022 39.5124 23.5177 38.7467C23.907 37.8244 24.2985 36.9506 24.7962 36.0812C25.4509 36.0371 25.7451 35.6223 25.9973 35.128C26.1322 34.8632 26.2804 34.5985 26.4596 34.3602C26.8356 33.8571 27.1475 33.343 27.0192 32.6457C27.6187 31.8558 28.2336 31.1386 28.9215 30.4193C30.2487 30.0067 31.034 29.1108 31.5449 27.8752C32.2594 27.211 32.9938 26.6418 33.7857 26.0636C34.8585 25.9202 35.5531 25.1788 36.3715 24.6713C36.5861 24.5389 36.6038 24.2719 36.763 24.0491C37.5571 23.5129 38.3623 23.0782 39.2028 22.6171C40.227 22.8046 40.6141 22.2022 40.8685 21.4167C40.9083 21.2954 40.9569 21.1784 41.0167 21.0659C41.375 20.4061 41.6051 19.7309 41.291 18.9542C41.7533 18.0937 42.1868 17.2662 42.6557 16.3969C43.5273 16.3373 43.7507 15.6445 44.0913 15.0818C44.213 14.881 44.2019 14.6736 44.0736 14.4772C43.9674 14.3139 43.8546 14.1551 43.9741 13.9145C44.4762 13.0717 44.985 12.2883 45.5512 11.4874C45.6154 11.4278 45.6685 11.3903 45.695 11.4079C46.5134 11.9132 46.8696 11.2535 47.2655 10.768C47.5752 10.3885 47.8915 10.0134 48.2543 9.68244C48.6414 9.32719 48.94 8.96752 48.5883 8.4181C48.5175 8.30777 48.5463 8.17097 48.6325 8.0121C49.3072 7.30822 50.0615 6.78086 50.9064 6.29543C51.0104 6.25571 51.0945 6.22041 51.1343 6.2535C51.7028 6.71687 52.1629 6.41017 52.676 6.10567C53.7135 5.49446 54.8504 5.14362 56.0935 5.00241C57.1354 5.10832 58.06 5.42606 58.9559 5.96445C59.5332 6.13435 59.8119 6.58448 60.0972 6.99269C60.6524 7.78483 61.0395 8.66302 61.2829 9.603C61.4687 10.3267 61.6147 11.0615 61.8602 11.7676C61.9288 11.9618 61.9575 12.1824 62.1898 12.3413C62.5304 11.8559 62.5946 11.302 62.7317 10.7813C63.0635 9.51916 63.3776 8.25482 64.1208 7.15156C64.2513 6.95738 64.3664 6.74997 64.5942 6.58448C65.2976 5.87398 66.1249 5.46357 67.076 5.17893C67.9431 4.82147 68.7483 5.08184 69.5513 5.25174C69.8808 5.32235 70.2149 5.42164 70.5135 5.5761C70.9161 5.78572 71.2722 5.78793 71.6792 5.51873C72.6746 5.81441 73.4864 6.35942 74.3424 6.9309C74.6322 7.1339 74.6455 7.38986 74.5902 7.64582C74.5017 8.05402 74.6676 8.32322 74.9795 8.57256C75.4573 8.9587 75.924 9.37573 76.2823 9.86999C76.6916 10.4304 77.1008 10.8254 77.8816 10.5033C78.5585 11.2116 79.0385 12.0125 79.5892 12.8245C79.7197 12.9702 79.7441 13.1158 79.6689 13.2151C79.2973 13.6939 79.5362 14.0822 79.8193 14.4794C80.2772 15.1193 80.682 15.7945 81.0492 16.4873C81.2858 16.9353 81.5668 17.2398 82.1043 17.3457C82.5356 18.204 82.936 19.0271 83.3518 19.8964C83.3916 20.362 83.1572 20.7283 83.3408 21.2159C83.7146 22.2133 84.3339 22.8752 85.3116 23.2481C85.9354 23.4864 86.4641 24.0116 87.2538 23.8814C88.0567 24.4065 88.8221 24.9096 89.625 25.4392C90.3727 26.666 91.6755 27.2397 92.6068 28.2062C92.8103 28.418 93.1199 28.3827 93.4141 28.493C94.0976 29.1793 94.748 29.8324 95.4226 30.523C95.5554 31.3085 96.0376 31.8469 96.4844 32.4118C97.0396 33.1157 97.5307 33.8659 98.0084 34.6227C98.2385 34.989 98.5172 35.2384 98.9773 35.3399C99.5458 36.132 99.9284 36.9749 100.338 37.8597C100.364 37.9259 100.384 37.9502 100.38 37.9634C99.986 38.8107 100.439 39.5499 100.687 40.3111C100.857 40.8363 101.001 41.3681 101.114 41.9065C101.209 42.3544 101.391 42.6964 101.879 42.8751C102.121 43.8438 102.163 44.7926 102.205 45.7966C102.213 45.8738 102.224 45.9025 102.216 45.9135C101.262 47.0521 101.86 48.4929 101.464 49.7418C101.375 49.9911 101.645 50.139 101.74 50.3927Z" fill="#E0E1E9"/>
<path d="M64.2376 6.52817C64.3393 6.77181 64.2553 6.93349 64.1359 7.0974C63.4549 8.02987 63.0878 9.09525 62.8291 10.2071C62.65 10.9779 62.4333 11.7376 62.1857 12.4885C62.1525 12.5904 62.1259 12.6945 62.0839 12.7919C62.0198 12.9425 61.9977 13.1485 61.77 13.1375C61.582 13.1286 61.5555 12.9536 61.5002 12.8185C61.4515 12.6989 61.4162 12.5771 61.3764 12.4553C61.1221 11.6845 60.9054 10.9026 60.7196 10.1119C60.3924 8.72093 59.8838 7.41856 58.8269 6.39749C58.7318 6.30668 58.6677 6.19815 58.6367 6.02317C58.6478 5.60012 58.6721 5.21694 58.6942 4.83819C58.9043 4.72523 59.0193 4.89578 59.1431 4.98438C60.2774 5.7906 60.985 6.91356 61.498 8.18271C61.582 8.39091 61.5798 8.65227 61.8407 8.80509C62.2608 7.65777 62.7473 6.55918 63.645 5.67321C63.9258 5.92571 64.001 6.25573 64.2376 6.52817Z" fill="#B3B6C4"/>
<path d="M92.3237 115.368C92.2883 115.24 92.2773 115.153 92.2529 115.074C92.1711 114.806 92.2618 114.673 92.547 114.646C93.0799 114.597 93.6062 114.498 94.1214 114.352C94.4508 114.259 94.7781 114.146 95.0567 113.94C95.3596 113.716 95.3729 113.528 95.1031 113.253C94.829 112.974 94.4862 112.792 94.1391 112.626C93.7919 112.46 93.4271 112.332 93.0843 112.154C92.4298 111.816 92.3414 111.315 92.8146 110.744C93.1816 110.301 93.6924 110.068 94.1833 109.809C94.5039 109.638 94.6299 109.955 94.8643 110.108C95.0191 110.278 95.1341 110.429 95.2601 110.593C95.1142 110.885 94.714 110.89 94.5481 111.18C94.6764 111.379 94.8931 111.435 95.0678 111.543C95.5609 111.853 96.023 112.197 96.3547 112.684C96.8809 113.457 96.7748 114.248 96.0628 114.854C95.751 115.12 95.384 115.295 95.0036 115.444C94.4022 115.678 93.772 115.802 93.1396 115.906C92.5559 116.006 92.5537 115.995 92.3237 115.368Z" fill="#B3B6C4"/>
<path d="M29.04 109.156C29.6172 108.596 30.1633 108.674 30.7714 109.066C31.2004 109.34 31.7156 109.462 32.2064 109.611C32.39 109.666 32.5779 109.721 32.7438 109.817C33.1904 110.071 33.2059 110.488 32.7836 110.782C32.5713 110.931 32.3258 111.01 32.0826 111.092C31.5895 111.254 31.1318 111.484 30.7736 111.872C30.411 112.264 30.1456 112.7 30.3203 113.263C30.3911 113.493 30.3004 113.626 30.1368 113.755C30.0019 113.859 29.8781 113.978 29.7277 114.125C29.4889 114.297 29.3275 114.291 29.1926 114.027C28.8366 113.327 28.8433 112.625 29.1484 111.921C29.4093 111.316 29.8493 110.851 30.4154 110.432C29.8891 110.036 29.2678 109.881 28.8034 109.475C28.7968 109.318 28.9383 109.281 29.04 109.156Z" fill="#B3B6C4"/>
<path d="M32.5184 86.3789C32.7417 86.4609 32.7904 86.6048 32.7639 86.7953C32.7042 87.2206 32.7285 87.6458 32.7727 88.0711C32.8103 88.4521 32.7042 88.7843 32.4079 89.0479C32.1713 89.2605 31.9656 89.5152 31.7135 89.7079C30.6809 90.5031 29.7146 91.3691 28.8656 92.3614C28.6997 92.5541 28.5361 92.6095 28.3106 92.4898C28.1801 92.419 28.043 92.3592 27.8661 92.2861C27.4814 91.9782 27.4747 91.9693 27.7423 91.657C28.7638 90.4721 29.8716 89.3801 31.2028 88.5429C31.4416 88.3923 31.5013 88.2439 31.4703 87.9736C31.4305 87.6148 31.4394 87.2494 31.4615 86.8883C31.4902 86.4365 31.5079 86.4365 31.9524 86.4144C32.1248 86.4077 32.2951 86.3988 32.5184 86.3789Z" fill="#B3B6C4"/>
<path d="M30.9461 80.3558C31.2026 79.4122 31.2026 79.4122 32.1733 79.3303C32.7903 79.2793 33.4094 79.224 34.0285 79.1797C34.7936 79.1265 35.1651 79.6227 34.8511 80.3204C34.4398 81.2373 34.013 82.1499 33.6592 83.0934C33.6128 83.2175 33.5421 83.3216 33.3718 83.3969C32.9716 83.3858 32.62 83.5763 32.2153 83.4345C32.4254 82.4533 32.9163 81.5873 33.332 80.6614C32.9605 80.5396 32.6288 80.677 32.3016 80.677C31.9191 80.677 31.5365 80.7013 31.154 80.708C30.9483 80.7102 30.9063 80.5861 30.9461 80.3558Z" fill="#B3B6C4"/>
<path d="M115.258 91.9965C114.929 91.1593 115.329 90.6432 115.871 90.0873C116.79 89.1437 117.374 87.9698 117.821 86.7317C117.872 86.5922 117.925 86.4504 117.967 86.3087C118.04 86.0606 118.168 85.9543 118.438 86.0606C118.635 86.1359 118.849 86.1691 119.101 86.2201C119.274 86.3264 119.3 86.446 119.247 86.6121C118.57 88.7738 117.463 90.6499 115.687 92.0962C115.535 92.218 115.369 92.3753 115.258 91.9965Z" fill="#B3B6C4"/>
<path d="M90.3317 78.9096C89.686 79.0447 89.686 79.0447 89.403 78.522C88.9851 77.7512 88.5649 76.9826 88.1492 76.2074C87.8021 75.5585 87.8728 75.3148 88.4986 74.9582C89.4185 74.4355 90.429 74.2982 91.4616 74.2339C91.7579 74.2162 91.895 74.3536 91.9281 74.6326C91.9525 74.8453 91.9834 75.0579 92.0232 75.3215C91.9215 75.5363 91.7468 75.5252 91.5766 75.5452C90.9176 75.6183 90.2587 75.6958 89.602 75.7822C89.2836 75.8242 89.1841 75.9682 89.3123 76.2451C89.4008 76.4356 89.5423 76.6039 89.6683 76.7744C90.1128 77.3725 90.5705 77.9639 90.9132 78.6571C90.7142 78.7479 90.5417 78.821 90.3317 78.9096Z" fill="#B3B6C4"/>
<path d="M103.457 56.8828C103.294 57.1198 103.115 57.1463 102.88 57.0622C101.825 56.6856 100.735 56.4774 99.6232 56.3778C99.475 56.3645 99.3269 56.3224 99.1898 56.2714C98.648 56.0655 98.5375 55.7687 98.8404 55.288C99.0681 54.9226 99.2981 54.5527 99.4308 54.1496C99.6033 53.6268 99.9349 53.4519 100.497 53.5139C100.715 53.5272 100.881 53.5493 101.102 53.5781C100.994 54.0078 100.795 54.3755 100.636 54.7587C100.488 55.1131 100.505 55.1529 100.879 55.2083C101.828 55.3545 102.75 55.5959 103.65 55.9304C103.727 55.9591 103.8 56.0057 103.877 56.0433C103.82 56.36 103.57 56.5638 103.457 56.8828Z" fill="#B3B6C4"/>
<path d="M98.6433 35.4479C98.5593 35.5055 98.4996 35.5299 98.4465 35.5631C97.9711 35.8577 97.9645 35.8621 97.6837 35.3903C96.8965 34.0769 96.0143 32.8299 95.0391 31.6471C94.692 31.2241 94.6986 31.2196 95.0391 30.6859C95.1364 30.5729 95.2337 30.5153 95.2956 30.4311C95.4858 30.1676 95.6273 30.2672 95.7931 30.4644C96.9319 31.8066 97.9468 33.2352 98.8623 34.7369C99.0789 35.0957 98.8667 35.2308 98.6433 35.4479Z" fill="#B3B6C4"/>
<path d="M119.654 83.3989C119.546 83.3745 119.493 83.3391 119.433 83.3169C118.652 83.0334 118.652 83.0334 118.681 82.1718C118.725 80.8274 118.659 79.4896 118.46 78.1606C118.345 77.3965 118.354 77.3942 119.086 77.0642C119.579 76.9557 119.59 76.9535 119.661 77.3522C119.981 79.2038 120.074 81.0688 119.942 82.9426C119.928 83.1109 119.986 83.3479 119.654 83.3989Z" fill="#B3B6C4"/>
<path d="M98.9084 94.0081C98.7735 94.0479 98.6608 94.0413 98.5635 94.0767C97.8426 94.3314 97.8758 94.2473 97.4889 93.6869C96.6442 92.4665 95.616 91.4299 94.4087 90.5683C94.2384 90.4465 94.035 90.3601 93.9023 90.1408C94.0615 89.8551 94.3844 89.7576 94.6541 89.5362C94.8708 89.4232 95.0389 89.4099 95.2224 89.5428C96.7835 90.6658 98.0682 92.0434 99.0566 93.698C99.1495 93.8552 99.0765 93.9261 98.9084 94.0081Z" fill="#B3B6C4"/>
<path d="M86.922 23.9194C86.8401 24.0435 86.7605 24.1165 86.7053 24.2051C86.5792 24.4067 86.4333 24.4333 86.2232 24.3225C85.4891 23.9371 84.744 23.5717 84.0143 23.1819C83.5123 22.9139 83.1342 22.5262 82.9463 21.9659C82.8313 21.6248 82.6699 21.297 82.5328 20.9625C82.3227 20.4509 82.3227 20.4509 82.7672 20.1519C82.8202 20.1164 82.8755 20.0832 82.9573 20.0168C83.4659 19.8307 83.4703 19.8285 83.6627 20.2715C83.7976 20.5838 83.9524 20.8894 84.0474 21.2128C84.1845 21.6846 84.4963 21.9504 84.9231 22.1497C85.5378 22.4376 86.137 22.7588 86.734 23.0778C87.2205 23.3435 87.216 23.3546 86.922 23.9194Z" fill="#B3B6C4"/>
<path d="M106.933 92.6088C107.36 92.1946 107.36 92.1946 107.86 92.4427C108.287 92.6531 108.736 92.7749 109.211 92.7926C110.067 92.8281 110.918 92.8037 111.752 92.5866C112.32 92.4405 112.426 92.4626 112.548 93.1049C112.601 93.7207 112.601 93.7207 112.068 93.8558C111.006 94.1238 109.925 94.1836 108.842 94.0972C108.136 94.0418 107.491 93.7539 106.88 93.3907C106.577 93.2113 106.558 93.0385 106.805 92.8059C106.852 92.7638 106.876 92.6996 106.933 92.6088Z" fill="#B3B6C4"/>
<path d="M26.274 94.6952C26.955 95.1005 26.955 95.1005 26.6388 95.7606C26.0728 96.95 25.6925 98.197 25.52 99.5037C25.4846 99.7673 25.4713 100.026 25.0999 100.122C24.8412 100.175 24.6311 100.206 24.4232 100.248C24.1822 100.297 24.127 100.188 24.1446 99.9689C24.295 98.1615 24.8146 96.4649 25.6129 94.8436C25.7898 94.4781 25.9954 94.6132 26.274 94.6952Z" fill="#B3B6C4"/>
<path d="M93.1264 87.0776C93.0247 87.1551 92.9495 87.1928 92.8721 87.2304C92.463 87.432 92.41 87.4165 92.3547 86.9558C92.1535 85.3079 91.7599 83.7109 91.1584 82.1649C91.039 81.8593 91.0877 81.6732 91.4636 81.5713C92.295 81.4495 92.295 81.4495 92.567 82.2136C93.0335 83.5271 93.3674 84.8715 93.5664 86.2514C93.6504 86.8583 93.5686 86.8539 93.1264 87.0776Z" fill="#B3B6C4"/>
<path d="M83.5808 114.676C83.5764 114.401 83.5919 114.169 83.6228 113.936C83.6847 113.458 83.74 113.42 84.1867 113.564C84.6908 113.728 85.1906 113.912 85.6969 114.067C86.4708 114.302 87.258 114.492 88.0651 114.539C88.6333 114.572 89.0269 114.798 89.2635 115.367C89.2923 115.591 89.4714 115.75 89.3608 116.003C87.384 115.888 85.4692 115.434 83.5808 114.676Z" fill="#B3B6C4"/>
<path d="M100.364 102.279C99.5057 102.049 99.5057 102.049 99.5588 101.134C99.6295 99.9512 99.5521 98.7818 99.2669 97.6278C99.1033 96.9722 99.1121 96.97 99.7799 96.764C99.8197 96.7507 99.8617 96.7374 99.9435 96.6975C100.218 96.6222 100.375 96.6421 100.452 96.9323C100.899 98.6001 101.027 100.288 100.806 102.002C100.775 102.259 100.647 102.33 100.364 102.279Z" fill="#B3B6C4"/>
<path d="M17.6968 52.0952C17.5597 52.2436 17.5111 52.4385 17.3032 52.454C17.1086 52.3277 17.0821 52.1018 17.0091 51.9091C16.662 50.97 16.3944 50.0065 16.233 49.0165C16.1755 48.6599 16.1291 48.2944 16.0119 47.9555C15.8505 47.4926 15.9168 47.1294 16.3414 46.8082C16.5094 46.6554 16.6575 46.538 16.8367 46.3984C17.0976 46.7838 17.2148 47.2091 17.301 47.6366C17.5354 48.806 17.7012 49.991 18.1258 51.1162C18.1965 51.3045 18.1567 51.444 18.0152 51.5702C17.8671 51.7031 17.783 51.8737 17.6968 52.0952Z" fill="#B3B6C4"/>
<path d="M101.547 43.0251C100.704 43.2998 100.704 43.2998 100.514 42.4515C100.273 41.3883 99.9634 40.3451 99.5765 39.324C99.289 38.5665 99.289 38.5665 99.9369 38.0527C100.408 37.8267 100.417 37.8223 100.56 38.1745C101.124 39.5522 101.567 40.9653 101.881 42.4205C101.949 42.735 101.865 42.9011 101.547 43.0251Z" fill="#B3B6C4"/>
<path d="M47.497 113.874C47.4505 113.599 47.4505 113.344 47.4351 113.09C47.4085 112.624 47.4129 112.591 47.8839 112.503C49.2217 112.252 50.5617 112.013 51.9016 111.781C52.4588 111.683 52.4633 111.696 52.5163 112.259C52.5252 112.343 52.5274 112.43 52.5451 112.569C52.5318 112.837 52.5185 113.034 52.2289 113.083C50.6612 113.344 49.1001 113.621 47.497 113.874Z" fill="#B3B6C4"/>
<path d="M55.7576 4.94023C55.7311 5.25031 55.5564 5.32783 55.322 5.36106C53.9688 5.5604 52.7659 6.13406 51.6249 6.86277C51.1783 7.14849 51.1716 7.14185 50.893 6.70772C50.8134 6.58147 50.7316 6.45744 50.6144 6.30239C50.4972 6.03218 50.6609 5.93029 50.8267 5.82397C52.1468 4.98452 53.5332 4.31119 55.1009 4.08305C55.72 3.99224 55.7178 3.9856 55.7311 4.63235C55.7377 4.71652 55.7443 4.80069 55.7576 4.94023Z" fill="#B3B6C4"/>
<path d="M4.58447 66.8007C4.85202 66.7519 4.92941 66.9446 5.02892 67.1063C5.73207 68.2581 6.53693 69.3367 7.4214 70.3534C7.54523 70.4951 7.70664 70.6258 7.60493 70.896C7.36391 71.184 7.13837 71.4298 6.91947 71.669C6.75584 71.6513 6.68729 71.5339 6.60548 71.4409C5.64804 70.3822 4.80116 69.2415 4.02725 68.041C3.83046 67.7353 3.80614 67.5249 4.11128 67.2924C4.27712 67.1661 4.40979 66.9911 4.58447 66.8007Z" fill="#B3B6C4"/>
<path d="M81.7833 17.3873C81.0138 17.7638 81.0138 17.7616 80.6158 17.0395C80.0895 16.0849 79.5235 15.1524 78.9198 14.2443C78.4865 13.5931 78.5019 13.6928 79.0392 13.1435C79.0989 13.0815 79.1542 13.0172 79.2228 12.9176C79.3687 12.7913 79.497 12.7337 79.6141 12.9087C79.791 13.1767 79.9768 13.4403 80.1515 13.7083C80.7971 14.6939 81.3897 15.7106 81.9624 16.7405C82.1216 17.024 82.126 17.2145 81.7833 17.3873Z" fill="#B3B6C4"/>
<path d="M16.0913 77.3587C16.4605 76.816 16.4605 76.8138 17.0023 77.0331C18.1698 77.5048 19.3594 77.9212 20.58 78.2291C20.9492 78.3221 21.0222 78.5015 20.8917 78.8714C20.5291 79.6134 20.5291 79.6156 19.7729 79.4008C18.6275 79.0752 17.5042 78.6854 16.4031 78.2335C15.806 77.9877 15.806 77.9855 16.0913 77.3587Z" fill="#B3B6C4"/>
<path d="M118.431 74.2141C117.664 74.4622 117.664 74.4622 117.412 73.6936C117.067 72.6371 116.665 71.6005 116.205 70.5883C115.86 69.8308 115.977 69.9526 116.512 69.5318C116.691 69.4277 116.844 69.359 117.021 69.2793C117.306 69.74 117.494 70.2384 117.706 70.7256C118.104 71.647 118.434 72.595 118.756 73.5452C118.878 73.8974 118.774 74.0635 118.431 74.2141Z" fill="#B3B6C4"/>
<path d="M9.55284 73.0525C9.79386 72.7645 9.99508 72.8487 10.225 73.037C11.2002 73.8388 12.2372 74.5564 13.3207 75.2054C13.7718 75.4756 13.7673 75.4822 13.5462 76.0293C13.1327 76.6517 13.1327 76.6517 12.4915 76.2641C11.4721 75.6484 10.4926 74.9728 9.56611 74.222C9.40248 74.0891 9.21232 73.985 9.1084 73.79C9.17252 73.5087 9.43344 73.3471 9.55284 73.0525Z" fill="#B3B6C4"/>
<path d="M110.188 60.9355C109.701 61.3386 109.694 61.3474 109.279 60.9731C108.35 60.1425 107.366 59.3894 106.316 58.7228C106.121 58.5987 105.869 58.4946 106.061 58.1358C106.32 57.9143 106.338 57.4669 106.639 57.4448C106.944 57.4204 107.194 57.7194 107.459 57.8944C108.565 58.6231 109.595 59.4493 110.559 60.364C110.506 60.6032 110.305 60.7184 110.188 60.9355Z" fill="#B3B6C4"/>
<path d="M115.207 66.935C114.52 67.3625 114.52 67.3625 114.088 66.6869C113.489 65.7478 112.837 64.8464 112.131 63.9803C111.793 63.5639 111.722 63.513 112.156 63.0257C112.258 62.9172 112.353 62.8596 112.419 62.7776C112.594 62.5716 112.729 62.6226 112.881 62.8086C113.452 63.5019 114.004 64.2107 114.513 64.9505C114.803 65.3735 115.059 65.8209 115.371 66.2285C115.61 66.543 115.479 66.7246 115.207 66.935Z" fill="#B3B6C4"/>
<path d="M1.72333 59.7933C2.0351 59.6737 2.13461 59.8287 2.19873 60.0657C2.35793 60.6593 2.53041 61.2507 2.69182 61.8443C2.83776 62.3781 3.01023 62.9008 3.21145 63.4146C3.28663 63.6073 3.4193 63.7956 3.29989 64.0614C2.9439 64.2541 2.75595 64.593 2.44859 64.7879C2.21421 64.7214 2.20979 64.4977 2.14566 64.3338C1.67026 63.1201 1.23466 61.8908 0.902985 60.6283C0.748203 60.0347 0.770314 60.1676 1.27225 59.9793C1.41155 59.9328 1.55086 59.8752 1.72333 59.7933Z" fill="#B3B6C4"/>
<path d="M8.28581 41.239C8.26149 41.7993 8.02489 42.0585 7.49642 42.1892C6.59205 42.4106 5.81814 42.9267 5.09951 43.5115C4.64844 43.8769 4.65507 43.8858 4.11554 43.6089C4.05805 43.5801 4.00056 43.5535 3.90327 43.5181C3.7507 43.4184 3.63572 43.3254 3.52295 43.2302C4.68381 41.8503 6.12107 41.0596 7.83031 40.7428C8.26149 40.6631 8.26149 40.6609 8.28581 41.239Z" fill="#B3B6C4"/>
<path d="M93.0778 28.562C93.0092 28.6418 92.9606 28.6838 92.9141 28.7259C92.5979 29.0117 92.5935 29.0205 92.2552 28.7171C91.3354 27.8931 90.389 27.1024 89.3939 26.3693C89.0092 26.0858 89.0136 26.0791 89.2635 25.5719C89.4094 25.3703 89.5443 25.2087 89.6902 25.0359C89.8782 25.0027 89.9865 25.1555 90.117 25.2485C91.1363 25.9839 92.1093 26.7746 93.0335 27.6251C93.4713 28.0305 93.4691 28.0305 93.0778 28.562Z" fill="#B3B6C4"/>
<path d="M71.3512 5.46957C71.3401 5.5338 71.3291 5.55373 71.3246 5.57367C71.1654 6.3666 71.1677 6.36439 70.4579 6.0388C69.4628 5.58252 68.4324 5.2813 67.3224 5.31895C67.1544 5.3256 66.9797 5.3411 66.7895 5.19049C66.5994 4.8516 66.4534 4.54595 66.2876 4.19599C66.9134 3.94571 67.5458 3.98558 68.1693 4.04316C69.1555 4.13619 70.0864 4.43963 70.9885 4.84939C71.2495 4.969 71.4308 5.10411 71.3512 5.46957Z" fill="#B3B6C4"/>
<path d="M40.0253 115.314C39.9965 115.194 40.0076 115.11 40.0098 115.024C40.0407 113.96 39.8108 114.085 41.038 113.852C41.9844 113.673 42.9263 113.48 43.8705 113.3C44.483 113.183 44.5139 113.21 44.5427 113.854C44.5515 114.047 44.5515 114.24 44.5515 114.492C43.0701 114.911 41.5775 115.194 40.0253 115.314Z" fill="#B3B6C4"/>
<path d="M55.4214 112.181C55.4125 112.026 55.4258 111.918 55.4192 111.812C55.375 111.214 55.3705 111.196 55.9322 111.114C57.0753 110.948 58.2207 110.791 59.3661 110.653C60.0206 110.573 60.0228 110.596 60.0582 111.278C60.0626 111.384 60.0693 111.493 60.087 111.654C60.0648 111.891 59.9344 111.927 59.773 111.949C58.5038 112.115 57.2368 112.292 55.9675 112.454C55.7663 112.48 55.4767 112.629 55.4214 112.181Z" fill="#B3B6C4"/>
<path d="M101.409 50.6031C100.631 50.5655 100.631 50.5655 100.755 49.8434C100.903 48.9774 101.029 48.1025 100.974 47.2276C100.934 46.5919 101.133 46.2065 101.781 46.0227C102.325 45.9142 102.331 45.9142 102.345 46.3616C102.38 47.5997 102.254 48.8246 102.095 50.0516C102.042 50.468 101.812 50.5766 101.409 50.6031Z" fill="#B3B6C4"/>
<path d="M77.5621 10.4884C77.3742 10.6922 77.1995 10.8494 77.0403 11.02C76.859 11.2149 76.702 11.2415 76.514 11.0222C75.7335 10.1163 74.9176 9.24142 74.0154 8.45513C73.8319 8.29344 73.8031 8.09853 73.8474 7.87482C73.9026 7.60239 73.9513 7.32995 74.0044 7.00879C74.0928 6.87147 74.1768 6.86261 74.2785 6.94677C75.4792 7.91912 76.5627 9.01107 77.5467 10.2027C77.6064 10.2736 77.5997 10.3599 77.5621 10.4884Z" fill="#B3B6C4"/>
<path d="M15.2225 43.8805C15.0346 44.0665 14.8488 44.2105 14.6852 44.3766C14.4973 44.5671 14.3381 44.5848 14.1545 44.3678C13.3961 43.4752 12.4807 42.793 11.395 42.3456C11.1916 42.2614 11.0965 42.1241 11.123 41.9004C11.1407 41.752 11.1429 41.6036 11.1495 41.3998C11.2999 40.9192 11.3021 40.9125 11.6846 41.0498C13.0335 41.5327 14.17 42.3234 15.0965 43.4176C15.2004 43.5372 15.3707 43.6479 15.2225 43.8805Z" fill="#B3B6C4"/>
<path d="M70.2697 111.95C70.0884 111.822 69.8164 111.871 69.7766 111.632C69.7235 111.295 69.7036 110.949 69.7899 110.615C69.8274 110.471 69.9844 110.469 70.1149 110.478C71.2846 110.568 72.4499 110.706 73.6108 110.885C73.9115 110.932 74.0044 111.096 73.98 111.37C73.9557 111.647 73.9292 111.922 73.885 112.254C72.6843 112.194 71.4969 112.077 70.2697 111.95Z" fill="#B3B6C4"/>
<path d="M48.255 7.96094C48.412 8.19793 48.5138 8.43936 48.6663 8.64091C48.9029 8.94879 48.8211 9.1592 48.5624 9.40727C47.773 10.1626 47.0699 10.9976 46.3844 11.8481C46.0682 12.2401 46.0594 12.2335 45.7056 11.899C45.5663 11.7662 45.427 11.6333 45.2501 11.4826C45.1484 11.3342 45.1771 11.2235 45.2655 11.1105C46.1367 10.0009 47.05 8.93107 48.1025 7.9853C48.1334 7.96315 48.1821 7.96094 48.255 7.96094Z" fill="#B3B6C4"/>
<path d="M2.09452 45.7909C2.35323 46.019 2.77998 46.0389 2.8618 46.3645C2.93919 46.679 2.66721 46.9559 2.55223 47.2505C2.26036 48.008 2.00828 48.7766 1.81812 49.5651C1.64565 50.2805 1.68987 50.1675 1.02652 50.2295C0.9624 50.2362 0.900487 50.245 0.794351 50.2716C0.486998 50.234 0.312316 50.1786 0.394129 49.7998C0.677159 48.5108 1.05748 47.2571 1.62133 46.0633C1.70093 45.895 1.74294 45.6137 2.09452 45.7909Z" fill="#B3B6C4"/>
<path d="M25.3317 103.018C25.6125 102.987 25.7076 103.122 25.7629 103.333C26.0614 104.453 26.5677 105.474 27.2886 106.383C27.4964 106.644 27.3881 106.799 27.136 106.983C26.906 107.138 26.707 107.26 26.4948 107.393C26.3157 107.368 26.2471 107.195 26.152 107.067C25.4069 106.09 24.8718 105.007 24.5312 103.827C24.3787 103.297 24.3831 103.297 24.9204 103.149C25.042 103.116 25.1636 103.076 25.3317 103.018Z" fill="#B3B6C4"/>
<path d="M100.724 78.6018C101.144 77.9971 101.102 77.9595 101.566 78.5353C102.378 79.5431 102.924 80.6971 103.369 81.9042C103.576 82.4668 103.568 82.469 103.097 82.8699C103.015 82.9386 102.935 83.0095 102.829 83.1113C102.555 83.1977 102.535 83.0161 102.486 82.8478C102.126 81.6074 101.551 80.469 100.764 79.4523C100.532 79.1511 100.578 78.9229 100.724 78.6018Z" fill="#B3B6C4"/>
<path d="M23.6802 79.5995C23.9809 78.9616 23.9809 78.9527 24.5868 79.048C25.5509 79.1986 26.5238 79.2672 27.4967 79.3448C28.2308 79.4046 28.1578 79.378 28.0473 80.0956C27.8173 80.7069 27.8173 80.7202 27.1739 80.6671C26.1368 80.5829 25.102 80.4965 24.0738 80.3238C23.5188 80.2285 23.5188 80.2351 23.6802 79.5995Z" fill="#B3B6C4"/>
<path d="M76.8215 112.862C76.8105 112.521 76.8436 112.202 76.8746 111.883C76.9011 111.61 77.0493 111.513 77.3124 111.571C77.8342 111.686 78.3561 111.797 78.8757 111.921C79.4152 112.051 79.9503 112.202 80.4898 112.335C80.7861 112.408 80.9343 112.55 80.8503 112.882C80.7817 113.15 80.7574 113.429 80.6866 113.757C79.3931 113.504 78.1283 113.194 76.8215 112.862Z" fill="#B3B6C4"/>
<path d="M32.7261 115.349C32.8698 115.227 33.0069 115.158 33.1064 115.052C33.3474 114.797 33.6371 114.748 33.971 114.735C34.7338 114.706 35.4989 114.664 36.2595 114.591C37.0644 114.514 37.0644 114.496 37.102 115.342C37.071 115.625 37.0644 115.856 36.7327 115.889C35.2468 116.028 33.7609 116.203 32.2573 115.918C32.3038 115.636 32.5824 115.577 32.7261 115.349Z" fill="#B3B6C4"/>
<path d="M40.9229 18.9453C41.615 19.4503 41.5796 20.0107 41.186 20.6574C40.9671 21.0185 40.8146 21.4282 40.6863 21.8336C40.5138 22.374 40.1777 22.7505 39.6957 23.0274C39.3154 23.2467 39.3198 23.2622 39.0523 22.879C39.0169 22.8258 38.9837 22.7705 38.9152 22.6885C38.7427 22.3541 38.6189 22.0728 39.1164 21.9554C39.311 21.9089 39.3309 21.6586 39.406 21.4836C39.7576 20.6619 40.1158 19.8446 40.4608 19.0206C40.5713 18.7637 40.7018 18.7615 40.9229 18.9453Z" fill="#B3B6C4"/>
<path d="M23.1431 38.8081C23.3642 39.116 23.8617 39.1448 23.8728 39.5235C23.8816 39.827 23.7069 40.1348 23.6096 40.4405C23.3885 41.1337 23.2006 41.8337 23.0414 42.5424C22.9109 43.125 22.9043 43.125 22.3271 42.981C22.2652 42.9655 22.2055 42.9433 22.0906 42.9168C21.8075 42.8304 21.6129 42.7573 21.6881 42.425C21.9601 41.2445 22.2896 40.0817 22.7097 38.9454C22.7849 38.7306 22.8866 38.6176 23.1431 38.8081Z" fill="#B3B6C4"/>
<path d="M62.9971 111.6C62.9618 111.478 62.9684 111.392 62.9618 111.305C62.8733 110.216 62.9441 110.34 63.9037 110.306C64.7174 110.278 65.5312 110.278 66.3449 110.286C66.8203 110.291 66.8534 110.335 66.8667 110.807C66.8733 111.064 66.8512 111.321 66.8247 111.635C65.551 111.675 64.2907 111.655 62.9971 111.6Z" fill="#B3B6C4"/>
<path d="M103.561 86.1646C103.771 86.0783 103.886 85.8833 104.083 85.8789C104.189 85.9166 104.207 86.0052 104.22 86.0849C104.397 87.0838 104.724 88.0362 105.182 88.9333C105.469 89.4981 105.518 89.9721 104.996 90.4571C104.872 90.5701 104.77 90.6432 104.611 90.7561C104.366 90.3863 104.213 89.9787 104.036 89.5845C103.656 88.7251 103.457 87.8147 103.271 86.9C103.209 86.5965 103.26 86.3618 103.561 86.1646Z" fill="#B3B6C4"/>
<path d="M26.6521 32.7028C27.1762 33.3916 27.1651 33.3828 26.6942 34.1226C26.2586 34.8092 25.8451 35.5091 25.4294 36.209C25.1375 36.7007 25.1441 36.7051 24.6975 36.3264C24.6488 36.2843 24.6002 36.2422 24.5139 36.1824C24.1889 35.8901 24.1977 35.6265 24.4034 35.281C24.9982 34.282 25.5996 33.2898 26.2873 32.375C26.5062 32.406 26.504 32.5987 26.6521 32.7028Z" fill="#B3B6C4"/>
<path d="M94.9618 75.5406C94.933 75.3745 94.9485 75.2461 94.9308 75.1198C94.8114 74.2693 94.9154 74.3734 95.5964 74.5395C96.5715 74.7787 97.5046 75.1397 98.3692 75.6625C98.8468 75.9504 98.8446 75.9526 98.5815 76.5551C98.5019 76.6813 98.4289 76.7611 98.3803 76.8519C98.283 77.0313 98.1768 77.0911 97.9822 76.9648C97.1398 76.4244 96.2199 76.0589 95.2537 75.8153C95.1099 75.7798 95.0348 75.7045 94.9618 75.5406Z" fill="#B3B6C4"/>
<path d="M97.2727 108.442C96.711 107.794 96.711 107.794 97.2506 107.114C97.6066 106.664 97.9714 106.205 98.1903 105.678C98.438 105.085 98.8205 104.874 99.4816 105.018C99.7492 105.111 99.9614 105.16 99.7912 105.506C99.2671 106.562 98.637 107.541 97.8719 108.438C97.6574 108.693 97.4982 108.644 97.2727 108.442Z" fill="#B3B6C4"/>
<path d="M0.611281 53.1406C0.768274 53.1406 0.874411 53.1583 0.980547 53.1561C1.21714 53.1539 1.33212 53.2624 1.32991 53.5017C1.32107 54.4585 1.33876 55.4131 1.48027 56.3611C1.5245 56.6623 1.32549 56.7731 1.07784 56.9148C0.774908 57.0012 0.547157 57.205 0.217693 57.1563C0.0098427 55.9314 -0.0100577 54.6999 0.00320934 53.464C0.00542051 53.0232 0.345941 53.2049 0.611281 53.1406Z" fill="#B3B6C4"/>
<path d="M21.6478 57.8492C21.4488 58.0464 21.2785 58.0774 21.0685 57.9068C20.2282 57.2335 19.5229 56.4406 18.9037 55.5657C18.7799 55.3929 18.7335 55.2224 18.9214 55.0053C19.1779 54.786 19.4145 54.6088 19.6489 54.4316C19.8457 54.518 19.9164 54.7085 20.027 54.8591C20.5555 55.5834 21.1481 56.2479 21.8402 56.8237C22.1939 57.1183 22.1895 57.1205 21.891 57.5015C21.8114 57.6034 21.7384 57.7075 21.6478 57.8492Z" fill="#B3B6C4"/>
<path d="M31.196 27.8912C31.4679 28.5756 31.4635 28.5711 30.9594 29.0695C30.4574 29.5679 29.9665 30.0751 29.4712 30.5801C29.0666 30.9943 29.0666 30.9965 28.6332 30.5003C28.5425 30.3652 28.4983 30.2434 28.4254 30.1415C28.3037 29.971 28.3303 29.8359 28.4674 29.6897C29.2059 28.8967 29.9621 28.1237 30.7714 27.4238C31.0146 27.5013 31.0323 27.7317 31.196 27.8912Z" fill="#B3B6C4"/>
<path d="M36.4034 24.0578C36.4808 24.2018 36.5206 24.3236 36.5714 24.4388C36.6576 24.6293 36.5979 24.7555 36.4299 24.8663C35.6516 25.3846 34.8732 25.9029 34.1015 26.43C33.7411 26.6759 33.6792 26.3436 33.5023 26.1376C33.1839 25.4333 33.1795 25.4267 33.8163 24.9881C34.3757 24.6027 34.9418 24.2284 35.5145 23.8607C36.0208 23.5373 36.0253 23.544 36.4034 24.0578Z" fill="#B3B6C4"/>
<path d="M21.6084 45.776C22.5548 46.0839 22.5481 46.0839 22.5658 47.0563C22.5747 47.5258 22.6056 47.9954 22.6454 48.465C22.7228 49.4085 22.6896 49.2335 21.9356 49.5193C21.6017 49.5968 21.4049 49.5857 21.3607 49.1759C21.2479 48.1416 21.228 47.1072 21.2502 46.0684C21.2546 45.8713 21.2502 45.6631 21.6084 45.776Z" fill="#B3B6C4"/>
<path d="M22.5437 52.3288C23.342 52.1539 23.3375 52.1561 23.625 52.918C23.7908 53.3543 23.9744 53.7863 24.1623 54.2137C24.3901 54.7387 24.3967 54.7364 24.0097 55.1418C23.9522 55.2038 23.8948 55.268 23.8174 55.3677C23.3928 55.6534 23.3862 55.6556 23.2027 55.299C22.8135 54.5415 22.5039 53.753 22.2054 52.9557C22.0772 52.6079 22.1811 52.4374 22.5437 52.3288Z" fill="#B3B6C4"/>
<path d="M25.2855 57.9688C25.3187 57.9245 25.3364 57.9134 25.3563 57.9024C25.6083 57.754 25.71 57.3841 26.0528 57.3907C26.2429 57.3929 26.9063 58.3741 26.9218 58.6156C26.9395 58.8725 26.8422 59.0785 26.6321 59.2224C25.9466 59.6987 25.1838 59.7496 24.4187 59.5215C23.9964 59.3952 24.3966 59.1671 24.4453 58.9456C24.7814 58.6554 25.0578 58.3564 25.2855 57.9688Z" fill="#B3B6C4"/>
<path d="M43.5942 13.8859C43.7822 14.2402 44.2753 14.3754 44.2399 14.7674C44.2067 15.1218 43.8949 15.3964 43.718 15.7132C43.5611 15.9922 43.3886 16.2647 43.236 16.546C43.0989 16.8007 42.9508 16.9181 42.7053 16.6611C42.6169 16.5703 42.5063 16.5017 42.3648 16.4064C42.0774 16.1517 42.0331 15.9147 42.241 15.6046C42.5837 15.093 42.8866 14.5548 43.2117 14.032C43.2869 13.908 43.3554 13.7463 43.5942 13.8859Z" fill="#B3B6C4"/>
</svg>
