<svg width="77" height="108" fill="none" xmlns="http://www.w3.org/2000/svg"><path d="M46.945 101.804c-.882-.07-1.755-.147-2.633-.221-.79-.065-1.575-.139-2.365-.18-2.13-.11-4.263-.061-6.393.017-1.264.045-2.533.098-3.818.371-.521-.878-.908-1.792-1.298-2.707-1.03-2.409-1.605-4.94-2.004-7.505-.252-1.621-.348-3.258-.395-4.9-.13-4.65.605-9.18 1.97-13.622.42-1.364 1.08-2.638 1.76-3.94.026-.037.021-.041.026-.041.134-.127.205-.29.298-.478.025-.024.02-.032.025-.032.076-.078.122-.168.19-.278.02-.02.02-.029.024-.029.072-.07.118-.155.19-.265.025-.025.025-.041.033-.041.017-.02.03-.04.067-.082.025-.02.025-.028.025-.028.076-.066.118-.147.194-.253.029-.025.029-.045.037-.05.017-.024.026-.044.06-.077.029-.016.024-.029.033-.029.02-.02.03-.036.071-.077.025-.02.025-.029.03-.029.02-.016.033-.037.075-.077.025-.025.025-.029.025-.029a1.92 1.92 0 0 0 .303-.339c.03-.02.046-.053.084-.081.038-.03.059-.07.1-.099.043-.032.064-.073.106-.102.042-.028.067-.073.105-.094.088-.073.138-.126.226-.191.105-.094.223-.107.32-.2.02-.02.02-.025.025-.025a.666.666 0 0 0 .08-.078c.025-.024.025-.028.025-.028.017-.016.038-.033.08-.074.025-.024.025-.028.025-.028a.88.88 0 0 1 .08-.07c.03-.02.03-.028.038-.028.016-.017.025-.037.07-.061.887-.63 1.904-.756 2.916-.895 1.298-.175 2.596-.196 3.885.066 1.916.388 3.218 1.612 4.348 3.054.533.682.974 1.42 1.373 2.23.026.048.042.06.063.102.017.044.026.065.047.11.025.04.037.053.058.094.013.045.025.065.046.114.026.04.042.053.06.09.012.049.02.07.041.122.03.041.046.05.055.086.004.05.017.07.042.13.05.062.071.095.084.172.017.053.025.07.042.119.025.04.038.053.054.094.013.049.021.069.038.126a.304.304 0 0 1 .076.176c.017.053.025.07.042.122.025.041.038.053.05.094.009.05.021.074.038.127.046.061.072.094.076.171.012.053.02.074.038.127a.355.355 0 0 1 .071.18c.013.053.021.073.038.126a.412.412 0 0 1 .071.184l.038.126a.35.35 0 0 1 .067.184c.013.053.021.074.038.13.118.417.227.801.361 1.218.03.077.042.122.06.204.138.702.322 1.36.478 2.058.025.077.038.126.05.204.164.862.345 1.686.496 2.556.017.086.025.135.034.22-.005.188.037.331.071.511.017.078.021.127.03.212.054.588.117 1.144.184 1.736.017.118.025.2.03.322-.009.49.08.94.075 1.43a5.4 5.4 0 0 1 .025.526c.026.796.009 1.552.005 2.348l-.013.531c-.038.527-.092 1.009-.092 1.531-.005.09-.005.14-.013.225-.038.318-.092.596-.092.91a3.9 3.9 0 0 1-.017.22c-.114.483-.114.94-.198 1.426l-.02.22c-.11.347-.102.674-.185 1.021-.009.082-.013.131-.026.213-.13.449-.184.874-.294 1.327-.012.081-.017.126-.033.204-.122.347-.19.674-.282 1.029-.012.082-.017.126-.038.204-.172.527-.34 1.017-.491 1.543a.986.986 0 0 1-.055.213c-.008.053-.004.07-.025.102-.03.037-.033.053-.05.106-.177.33-.269.653-.378 1.009-.03.049-.034.07-.055.118a1.479 1.479 0 0 0-.16.4.522.522 0 0 0-.058.119c-.017.049-.017.07-.042.102-.03.037-.034.057-.055.102-.117.2-.222.371-.273.6-.03.045-.038.069-.063.123-.017.049-.017.069-.038.102-.033.036-.038.057-.063.106-.017.049-.017.065-.042.102-.03.037-.033.057-.054.102-.08.135-.13.249-.164.4a.559.559 0 0 0-.05.114c-.08.139-.13.254-.16.405 0 .024-.004.041-.009.045Z" fill="#DBFF9E"/><path d="M19.277 61.697c-21.096-8.788-25.723-29.58-5.79-42.967 1.328-1.069 3.295-1.522 4.233-2.968 2.052-4.44 4.136-9.058 7.653-12.546 4.805-5.094 12.21-4.209 13.11 3.431 1.396-8.414 8.995-8.315 13.955-2.642 1.75 1.95 3.102 4.2 4.307 6.514 1.383 1.989 1.722 4.853 3.692 6.33 21.397 11.767 21.188 33.653-1.088 44.182-.235.102-.476.27-.178.479 2.449 2.242 4.59 4.805 6.143 7.745 1.504 2.794 2.57 5.835 2.99 8.988.026.507.239.83.73 1.018.022.047.118.047.156.082.054.063.18.083.244.156.228.152.507.27.717.482.082.082.24.136.32.24.146.124.346.248.482.4.006.022.067.064.086.076.349.276.688.58.957.964 5.329 5.83 3.597 14.776-3.054 18.129 3.15 1.259 2.604 3.913-.732 4.176-2.598.352-5.208.092-7.799-.165-.228-.019-.308.026-.279.279-.713 7.501-12.404 2.658-14.893-1.477-.577-.739-.232-1.58.152-2.341.349-.78.73-1.544.99-2.36 2.112-6.12 1.998-12.882.193-19.07-1.138-4.487-4.557-8.255-9.508-6.504-4.392 2.118-5.176 7.922-5.854 12.26-.482 4.434-.14 9.027 1.335 13.26.27.92.751 1.754 1.084 2.649.616.919.425 1.845-.27 2.572-2.736 3.84-13.934 8.334-14.55.992.029-.231-.05-.279-.26-.26-2.876.273-5.797.619-8.658 0-3.273-.945-2.191-2.924.238-4.164-7.104-2.772-8.246-12.752-3.184-17.979.27-.352.587-.691.958-.964.025 0 .07-.06.082-.073.143-.13.31-.285.482-.4.086-.082.203-.17.32-.24.21-.184.46-.343.717-.482.06-.054.171-.099.244-.156.032-.028.118-.047.159-.086.146-.123.39-.206.564-.314.381-1.649.666-3.466 1.2-5.115.063-.044.018-.19.079-.241.063-.044.019-.19.082-.238.063-.044.019-.193.082-.238.156-.162.146-.444.238-.64.114-.086.086-.292.159-.4.117-.082.082-.292.162-.4.146-.123.14-.406.24-.558.118-.206.242-.4.315-.644.04-.025.047-.123.079-.161.057-.08.098-.241.159-.32.044-.023.047-.121.079-.16.041-.025.047-.12.08-.158.04-.025.047-.117.078-.158.127-.108.172-.327.245-.476.034-.029.04-.14.082-.159.01-.019.054-.07.07-.088.095-.051.092-.235.165-.314.012-.013.06-.077.073-.09.047-.018.05-.113.085-.155.073-.047.118-.155.156-.244.047-.019.05-.11.085-.155.035-.026.048-.133.086-.156.013-.016.057-.066.073-.088.11-.09.13-.29.244-.397.02-.01.057-.07.073-.085.048-.023.048-.108.086-.156.07-.054.085-.177.161-.24a.502.502 0 0 0 .073-.09c.083-.035.092-.177.162-.234.038-.026.05-.134.089-.153a30.848 30.848 0 0 1 3.653-4.142c.102-.095.299-.187.105-.396l.006.003Z" fill="#00CE4C"/><path d="M33.026 4.52c2.07 1.11 2.69 3.133 1.607 5.006-.703 1.216-2.058 1.92-3.42 1.778-1.279-.138-2.318-1.104-2.708-2.474-.757-2.68 2.294-5.238 4.521-4.31ZM45.069 4.488c2.31.21 3.74 1.755 3.6 3.794a3.152 3.152 0 0 1-2.245 2.818c-1.19.35-2.527-.114-3.47-1.172-1.836-2.07-.256-5.433 2.115-5.44Z" fill="#0E0E0E"/><path d="M32.232 7.879c-.648-.233-.887-.641-.709-1.258.122-.404.424-.669.862-.78.553-.14.989-.013 1.316.347.228.255.32.565.12.914-.331.57-.89.745-1.582.771l-.007.006ZM45.596 7.684c-.583-.454-.717-.947-.387-1.512.22-.368.586-.535 1.047-.5.582.043.982.319 1.215.794.163.334.176.68-.11.966-.469.466-1.066.455-1.756.25l-.009.002Z" fill="#fff"/><path d="M42.692 19.422c.932-.051 1.595-.593 2.366-.993 1.173-.146-.029 1.237-.546 1.386-1.643.945-3.546.637-5.17-.152-1.626.21-3.152 1.395-5.017 1.056-.97.054-3.799-1.3-2.54-2.379.295-.088.46.08.6.327 1.271 1.782 4.024 1.113 5.727.41 1.557-.778 2.908.728 4.583.345h-.003Z" fill="#0E0E0E"/><path d="M38.92 63.429H26.438c9.986 5.744 20.23 2.393 24.103 0h-11.62Z" fill="#00C62E"/></svg>