<svg xmlns="http://www.w3.org/2000/svg" width="127" height="62" fill="none"><path fill="#00CE4B" fill-rule="evenodd" d="M90.974 62h-55.62a42.691 42.691 0 0 1-1.69-2.087c-.048-.075-.11-.138-.171-.2a2.41 2.41 0 0 1-.097-.104c-1.157-1.628-2.196-3.331-3.063-5.131-1.527-3.156-2.561-6.474-3.173-9.924a46.071 46.071 0 0 1-.643-5.703 51.434 51.434 0 0 1-.022-4.66c.062-1.62.194-3.231.357-4.842.022-.21-.04-.303-.229-.356a5.805 5.805 0 0 1-1.624-.73c-.827-.6-1.5-1.33-1.883-2.294-.476-1.2-.251-2.292.59-3.256 1.078-1.237 2.512-1.826 4.066-2.178 1.993-.45 3.978-.432 5.94.198 1.453.466 2.764 1.201 3.975 2.12.097.075.187.158.276.24.128.12.255.238.406.329 1.549 1.39 2.605 3.106 3.322 5.047.273.744.51 1.5.665 2.275.014.075.028.15.04.225.052.288.103.576.228.845.143.097.253.032.365-.034.029-.018.058-.035.089-.05.255-.097.51-.194.757-.317l.094-.035c.081-.029.163-.058.236-.105a.518.518 0 0 1 .088-.031 4.97 4.97 0 0 0 .95-.392 18.614 18.614 0 0 1 1.747-.603c.383-.009.665-.194.885-.493.247-.343.5-.681.753-1.02.278-.372.557-.745.827-1.123.12-.17.251-.332.382-.493.171-.211.342-.422.49-.651l.114-.152c.22-.294.44-.588.7-.847l.029-.02c.07-.05.14-.1.16-.196a.674.674 0 0 1 .206-.224.38.38 0 0 0 .185-.233.62.62 0 0 1 .212-.23.557.557 0 0 0 .268-.33c.367-.536.844-.97 1.317-1.4l.162-.149c.404-.37.822-.726 1.25-1.069.888-.713 1.826-1.333 2.873-1.791l.188-.083c.459-.203.915-.404 1.418-.493.11 0 .22-.01.313-.08.09-.046.184-.039.28-.032a.563.563 0 0 0 .257-.02c.063-.005.125-.004.188-.004.148.001.295.002.437-.054.163-.013.325-.026.484.031.074.02.15.021.227.023.046.002.092.003.138.008.145.058.297.06.447.06.031 0 .063 0 .094.002.031 0 .066.008.097.017.132.057.269.101.41.136.062.022.125.042.188.062.277.09.555.18.806.335 1.254.752 1.958 1.883 2.27 3.287.137.603.172 1.21.129 1.822-.008.1.007.2.02.3.022.149.043.298-.007.448-.018.049.017.114.083.123.062.014.11-.03.137-.079.114-.202.21-.41.299-.625.326-.757.656-1.51 1.21-2.143.502-.577 1.096-1.012 1.765-1.364.744-.317 1.51-.392 2.32-.304.457.048.88.167 1.31.29a5.692 5.692 0 0 1 2.214 1.246 12.71 12.71 0 0 1 2.218 2.566c.502.774.938 1.593 1.303 2.442.164.382.317.77.47 1.158l.207.523c.023.063.053.123.083.183.022.044.044.089.063.134.042.253.13.489.22.725l.04.107c.026.158.065.312.131.462a.359.359 0 0 1 .022.091v.006c.127.466.259.931.39 1.396.19.667.378 1.334.552 2.005.02.08.035.162.05.244.04.22.08.442.227.628.018.03.031.061.036.097.008.2.06.394.11.588.027.1.054.2.075.3.066.304.145.6.43.78.212.209.438.404.663.6.215.186.43.372.632.57.15.15.224.075.277-.079.057-.167.106-.335.11-.515.405-1.677.972-3.296 1.769-4.823.986-1.893 2.16-3.662 3.666-5.193.85-.863 1.84-1.54 2.882-2.143.427-.247.867-.48 1.334-.652 1.03-.404 2.081-.726 3.186-.84 1.523-.159 3.041-.176 4.502.36 1.527.56 2.535 1.594 2.724 3.257.15 1.299-.167 2.491-1.021 3.517a9.106 9.106 0 0 0-.107.128 3.57 3.57 0 0 1-.425.457c-.872.726-1.343 1.668-1.558 2.764-.053.274-.113.547-.174.82-.093.415-.185.83-.249 1.252-.189.95-.315 1.909-.441 2.868-.073.557-.146 1.114-.232 1.67-.326 2.112-.761 4.198-1.413 6.24a.364.364 0 0 0-.012.075c-.005.05-.01.102-.054.14l.005.023a55.524 55.524 0 0 1-2.399 6.055c-1.354 2.913-2.89 5.712-4.803 8.279Z" clip-rule="evenodd"/><path fill="#000" fill-rule="evenodd" d="M75.27 26.075c.265.438.058.997-.463 1.248l-3.704 1.79 4.084 2.512c.465.286.554.855.2 1.271a1.19 1.19 0 0 1-1.483.236l-6.758-4.158 6.7-3.236c.521-.252 1.158-.1 1.423.337ZM57.675 24.75a.753.753 0 0 0 .013 1.156l2.6 2.232-4.227 1.384c-.48.158-.73.629-.555 1.053.174.423.705.639 1.186.481l6.993-2.29-4.7-4.038a1.014 1.014 0 0 0-1.31.021Z" clip-rule="evenodd"/><path fill="#313239" d="M.827 9.9a9.242 9.242 0 0 1 9.71-8.75L127 7.21l-.96 18.459-116.464-6.06a9.242 9.242 0 0 1-8.749-9.71Z"/><path fill="#E3E3E3" d="M4.344 10.082a5.721 5.721 0 0 1 6.01-5.417l116.464 6.06-.594 11.427L9.76 16.092a5.721 5.721 0 0 1-5.416-6.01Z"/><path fill="#FF5D5D" d="M67.364 35.502c-1.795-1.583-4.488-1.979-6.956-.88-1.346 4.837.897 7.915 2.917 8.355 2.02.44 6.283-5.496 4.039-7.475Z"/></svg>