<svg xmlns="http://www.w3.org/2000/svg" width="278" height="362" fill="none"><ellipse cx="139.5" cy="347.5" fill="#000" fill-opacity=".3" rx="70.5" ry="14.5"/><mask id="a" width="278" height="347" x="0" y="0" maskUnits="userSpaceOnUse" style="mask-type:alpha"><path fill="#D9D9D9" d="M0 0h278v347H0z"/></mask><g mask="url(#a)"><path fill="#00CE4C" d="M129.506 342.005c-3.602.47-7.116 1.207-10.599 2.078-2.655.667-5.278 1.46-7.978 1.946-2.441.439-4.889.751-7.372.76-2.438.008-4.878.174-7.31-.09-.922-.102-1.83-.262-2.703-.588-.558-.208-1.076-.481-1.507-.9-.815-.79-.9-1.788-.237-2.708.4-.554.944-.942 1.522-1.282.521-.31 1.065-.582 1.592-.866.017-.149-.096-.166-.18-.2-5.048-2.005-7.885-5.835-8.937-11.02-1.552-7.663 2.162-15.382 9.089-19.099.32-.172.498-.374.55-.754.687-5.179 2.358-10.027 4.973-14.549.316-.545.2-.734-.31-1.001-4.562-2.401-8.987-5.028-13.028-8.245-6.662-5.3-11.703-11.796-14.578-19.858-1.39-3.892-1.933-7.921-1.685-12.038.256-4.241 1.6-8.146 3.844-11.757 1.316-2.115 2.666-4.201 4.204-6.164.575-.734.57-.748.017-1.53-1.031-1.456-2.063-2.913-3.11-4.361-.52-.717-.95-1.485-1.413-2.236-.845-1.369-.927-2.843-.69-4.369.603-3.912 2.223-7.452 4.075-10.894 1.014-1.887 2.807-2.908 4.661-3.81.265-.13.535-.239.843-.374.318.194.25.472.174.736-.668 2.329-.808 4.713-.676 7.106.166 2.998.904 5.877 2.13 8.625a24.573 24.573 0 0 0 4.901 7.215 24.782 24.782 0 0 0 5.45 4.182c2.852 1.625 5.91 2.668 9.162 3.059 3.345.399 6.662.214 9.922-.728 5.377-1.55 9.739-4.561 13.124-8.993.378-.495.814-.765 1.451-.714.761.059 1.533-.096 2.328.121.279.23.344.512.392.807a19.783 19.783 0 0 0 2.584 7.021c.476.791.989 1.553 1.736 2.132 1.223.95 2.451.902 3.613-.16.915-.841 1.516-1.893 1.992-3.023.843-2.002 1.31-4.103 1.623-6.24.025-.175.042-.349.147-.551.225-.259.493-.321.775-.329.648-.02 1.296-.017 1.944 0 .395.011.713.18.984.466.4.431.772.889 1.172 1.319 4.007 4.314 8.928 6.937 14.761 7.747 6.794.945 12.977-.672 18.503-4.729.79-.58 1.536-1.221 2.224-1.924.225-.23.459-.514.896-.326 6.383 7.874 9.435 16.591 7.15 26.767-.15.332-.401.265-.629.242-1.446-.14-2.883-.36-4.323-.543-2.003-.255-4.01-.511-6.014-.773-2.277-.295-4.556-.568-6.831-.869-2.062-.275-4.128-.509-6.191-.779-2.607-.343-5.222-.613-7.823-1.001-2.717-.405-5.442-.759-8.164-1.113-.651-.085-.741-.017-.876.641-.451 2.165-.953 4.322-1.423 6.484-.919 4.229-1.838 8.459-2.737 12.691-.868 4.08-1.724 8.16-2.59 12.24-.994 4.694-1.964 9.392-2.959 14.086-.047.23-.121.455-.338.66-.684.203-1.324-.014-1.964-.002-1.984.033-4.004-.003-5.715 1.212-1.443 1.026-2.525 2.393-3.399 3.931-1.521 2.677-2.305 5.601-2.978 8.571-.941 4.139-1.243 8.334-1.026 12.552.251 4.879 1.147 9.64 3.224 14.119.273.611.699 1.198.561 1.974Z"/><path fill="#FFF500" d="M140.646 299.64c.533-1.766.82-3.543 1.195-5.301 1.722-8.098 3.418-16.202 5.146-24.301 1.18-5.531 2.395-11.054 3.596-16.579.211-.973.217-.993 1.186-.861 3.303.453 6.603.942 9.908 1.378 2.959.391 5.924.726 8.886 1.097 2.981.371 5.96.753 8.939 1.133 2.902.368 5.802.74 8.705 1.108 1.13.143 2.257.287 3.429.425.643.258 1.037.073 1.502-.417 5.62-5.927 11.447-11.65 17.258-17.386 1.339-1.322 2.644-2.683 4.061-3.928.296-.259.561-.321.896-.119.355.211.217.501.135.779-2.372 8.076-4.317 16.271-6.549 24.386-.679 2.474-1.319 4.957-1.987 7.483-.112.286-.341.289-.552.326-1.981.334-3.328 1.462-4.179 3.253-.772 1.626-1.122 3.38-1.612 5.087-1.618 5.627-3.244 11.254-4.76 16.909-.313 1.172-.603 2.348-.727 3.562-.169 1.634.386 3.605 2.184 4.435.178.081.355.174.457.41a956.223 956.223 0 0 1-2.449 8.858c-.471 1.676-.908 3.361-1.505 4.997a1.55 1.55 0 0 1-.581.773 338.913 338.913 0 0 0-3.621 2.689c-.172.489-.586.675-.933.922-1.183.841-2.465 1.566-3.539 2.528-.967.863-2.023 1.156-3.249 1.249-2.348.18-4.667.601-7 .899-2.528.324-5.056.664-7.581.999-2.488.329-4.974.666-7.465.989-2.294.299-4.588.611-6.885.886-.837.101-1.671.222-2.561.301-3.12.413-6.194.787-9.272 1.125-1.831.2-3.658.439-5.503.458a5.268 5.268 0 0 1-.471-.008c-.634-.048-.902-.338-.772-.968.358-1.743.727-3.484 1.085-5.227a4445.71 4445.71 0 0 1 2.485-12.066c.804-3.87 1.607-7.736 2.415-11.602.051-.223.048-.476.285-.681Z"/><path fill="#FF8BCA" d="M131.301 228.885c-1.023-.169-2.003-.059-2.984-.062-.327 0-.44.304-.598.515-3.122 4.153-7.132 7.108-12.058 8.787-15.384 5.239-31.571-5.233-33.082-21.394-.261-2.795-.118-5.565.71-8.273a.866.866 0 0 0 .02-.331c.38-.678.544-1.415.798-2.109 2.314-6.341 6.71-10.866 12.45-14.218 2.686-1.569 5.673-2.038 8.708-2.275 6.065-.475 11.56 1.108 16.511 4.615.209.146.409.309.707.385.536.169.854.565 1.215.886 2.598 2.328 4.743 5.008 6.279 8.152a24.37 24.37 0 0 1 1.381 3.433c.14.456.369.67.882.653 2.804-.096 5.61-.166 8.412-.29 1.496-.065 1.18.231 1.75-1.313 1.271-3.462 3.204-6.53 5.613-9.313a36.343 36.343 0 0 1 1.778-1.879c.169-.169.344-.323.615-.416.273-.087.465-.222.639-.385 8.401-7.747 20.336-6.502 27.324-2.478 10.281 5.92 15.424 18.596 11.884 29.746-1.054 3.32-2.818 6.245-5.146 8.838-.194.216-.436.402-.51.75-.293-.005-.434.208-.6.366-10.799 10.323-27.589 9.336-37.077-2.191-.293-.357-.598-.517-1.054-.486-.781.053-1.57-.034-2.393.121-.301.245-.617.242-.933.242-1.53.003-3.06.033-4.587-.009-1.922-.05-3.839.158-5.758.124-.293 0-.597.042-.896-.191Z"/><path fill="#00CF4B" d="M150.308 328.488c1.164-.315 2.322-.371 3.467-.526 3.207-.435 6.416-.84 9.623-1.259 3.092-.405 6.183-.813 9.275-1.224 2.722-.362 5.438-.739 8.161-1.099a23.83 23.83 0 0 1 2.048-.191c.598-.028 1.06-.237 1.514-.641 1.186-1.061 2.581-1.848 3.863-2.784.412-.301.84-.577 1.294-.875 2.663 7.221.087 17.446-8.452 20.41.116.213.347.241.53.334.829.416 1.64.855 2.297 1.521 1.082 1.1.981 2.408-.254 3.33-.842.63-1.831.883-2.843 1.068-.851.155-1.713.22-2.579.268-5.033.284-9.914-.448-14.716-1.983a57.485 57.485 0 0 0-9.987-2.255 78.536 78.536 0 0 0-7.073-.636c-.212-.222-.121-.419-.017-.613 1.981-3.74 3.001-7.761 3.542-11.925.037-.312.057-.633.307-.92Z"/><path fill="#DBFF9E" d="M150.298 328.446c-.42 4.395-1.46 8.619-3.396 12.604-.138.284-.443.458-.476.84-1.669-.056-3.326-.222-4.988-.306-3.855-.197-7.682.124-11.509.478-.116.011-.234.003-.403-.006-.195-.413-.299-.838-.488-1.223-1.989-4.097-2.993-8.453-3.41-12.958-.614-6.611.13-13.078 2.193-19.385.766-2.346 1.879-4.519 3.536-6.395 1.46-1.653 3.281-2.486 5.465-2.618 1.259-.076 2.513-.11 3.813.13-.026 1.141-.341 2.235-.57 3.346-1.719 8.351-3.446 16.697-5.174 25.046-.098.478-.205.959-.321 1.434-.093.386.039.526.442.537 1.539.04 3.064-.129 4.585-.303 3.416-.391 6.826-.816 10.239-1.224.135-.022.273-.011.462.003Z"/><path fill="#00CE4C" d="M197.821 302.573c-2.271-.782-3.162-2.697-2.914-5.008.271-2.523 1.102-4.904 1.77-7.325 1.561-5.661 3.137-11.319 4.808-16.948.682-2.298 2.023-4.12 4.607-4.609.251-.048.508-.054.809-.087 2.742.171 4.424 1.757 5.521 4.043 1.118 2.331 1.054 4.789.445 7.233a151.803 151.803 0 0 1-4.472 14.805c-.322.888-.958 1.561-1.547 2.264-1.364 1.625-2.773 3.205-4.512 4.454-1.339.959-2.787 1.524-4.515 1.178ZM150.401 194.401c.014.256-.183.374-.335.523-3.539 3.408-6.208 7.376-7.741 12.061-.116.357-.257.554-.679.568-3.205.093-6.406.202-9.607.329-.474.019-.682-.115-.829-.582-1.555-4.896-4.334-8.976-8.293-12.261-.15-.123-.336-.213-.384-.466 3.072-1.328 6.161-1.637 9.176.07 1.837 1.04 3.055 2.663 3.785 4.643.38 1.032.606 2.103.848 3.169.037.166.017.399.256.396.232-.003.229-.239.26-.402.262-1.389.586-2.761 1.209-4.041 1.834-3.768 5.582-5.478 9.519-4.769.947.172 1.871.405 2.815.762ZM131.259 228.89a170.13 170.13 0 0 1 5.76-.157c2.099-.023 4.199-.017 6.354-.006-.281 2.649-.822 5.228-2.009 7.629-.358.723-.78 1.406-1.338 1.997-1.618 1.712-3.506 1.661-4.986-.186-1.552-1.937-2.558-4.156-3.207-6.538-.242-.886-.386-1.797-.574-2.739Z"/><path fill="#0E0E0E" d="M152.732 226.331c-2.792-3.045-4.489-6.557-4.878-10.64-.614-6.431 1.64-11.749 6.369-16.09 2.156-1.98 4.551-3.521 7.42-4.266 5.236-1.358 10.193-.689 14.784 2.151 4.931 3.051 7.842 7.508 8.631 13.244.905 6.569-1.163 12.165-5.996 16.67-2.985 2.781-6.6 4.333-10.689 4.744-4.963.5-9.413-.807-13.395-3.766-.803-.598-1.521-1.296-2.246-2.047ZM100.034 231.579c-4.292-1.89-7.499-4.879-9.488-9.061-2.438-5.12-2.463-10.325-.195-15.527 1.3-2.978 3.402-5.298 5.853-7.407 2.601-2.241 5.583-3.484 8.914-3.926 4.421-.585 8.575.295 12.354 2.68 4.884 3.082 7.789 7.505 8.576 13.219.901 6.569-1.167 12.165-6 16.667-2.984 2.781-6.603 4.316-10.689 4.746-3.224.341-6.304-.151-9.325-1.391Z"/><path fill="#88A1FF" fill-rule="evenodd" d="M52.652 83.537c11.24 0 20.661 7.777 23.174 18.241.19-.005.382-.007.574-.007 13.161 0 23.831 10.665 23.831 23.82 0 8.608-4.568 16.15-11.414 20.335a23.746 23.746 0 0 1 1.739 8.949c0 13.156-10.67 23.82-23.831 23.82a23.731 23.731 0 0 1-14.073-4.595 23.732 23.732 0 0 1-14.074 4.595c-13.161 0-23.83-10.664-23.83-23.82 0-3.165.617-6.186 1.738-8.949-6.846-4.185-11.414-11.727-11.414-20.335 0-13.155 10.67-23.82 23.832-23.82.192 0 .383.002.574.007 2.512-10.464 11.935-18.241 23.174-18.241Z" clip-rule="evenodd"/><path fill="#A0FF56" d="m139 6 15.597 20.477 25.735-.572-6.285 24.962L190.54 70.63l-23.434 10.65-5.169 25.217L139 94.815l-22.938 11.682-5.168-25.217-23.435-10.65 16.493-19.763-6.284-24.962 25.734.572L139 6Z"/><path fill="#FB7A35" fill-rule="evenodd" d="M237.691 83.537h-24.686v17.723l-12.429-12.428-17.456 17.455 12.485 12.486h-17.837v24.686h18.048L183.1 156.176l17.456 17.455 12.449-12.449v17.513h24.686v-17.837l12.716 12.717 17.456-17.456-12.659-12.66h17.723v-24.686h-17.513l12.429-12.429-17.456-17.456-12.696 12.696V83.537Z" clip-rule="evenodd"/></g></svg>