<svg xmlns="http://www.w3.org/2000/svg" width="278" height="362" fill="none"><ellipse cx="139.5" cy="347.5" fill="#000" fill-opacity=".3" rx="70.5" ry="14.5"/><mask id="a" width="278" height="347" x="0" y="0" maskUnits="userSpaceOnUse" style="mask-type:alpha"><path fill="#D9D9D9" d="M0 0h278v347H0z"/></mask><g mask="url(#a)"><path fill="#FFEC00" d="m43.524 71.191 93.651 10.998v83.401l-93.65-9.634V71.191Z"/><path fill="#FFEC00" d="m52.976 63.93 84.2 11.844v89.817l-84.2-10.376V63.93Z"/><path fill="#F5F6F9" d="m64.748 55.942 72.427 12.775v96.873l-72.427-15.134V55.942Z"/><path fill="#FFEC00" d="M230.826 71.191 137.175 82.19v83.401l93.651-9.634V71.191Z"/><path fill="#FFEC00" d="m221.374 63.93-84.2 11.844v89.817l84.2-10.376V63.93Z"/><path fill="#F5F6F9" d="m209.602 55.942-72.426 12.775v96.873l72.426-15.134V55.942Z"/><path stroke="#fff" stroke-linecap="round" stroke-width="2" d="M137.256 76.63v75.749"/><path fill="#FF8BCA" fill-rule="evenodd" d="M80.49 99.546c1.665 1.18 3.209 1.792 4.37 1.717 4.702-.3 15.691-12.629 15.713-26.972.022-14.343-6.976-25.522-15.632-24.969-5.012.32-9.48 4.504-12.358 10.755-3.82-3.185-8.075-4.574-11.99-3.457-6.34 1.807-9.98 9.665-9.714 19.285-4.686-2.263-9.32-2.692-12.916-.766-7.648 4.096-7.715 17.29-.15 29.469 7.566 12.18 23.392 16.862 27.546 14.638 2.415-1.294 4.629-6.924 4.574-13.804 1.945.748 3.618.99 4.736.672 1.777-.507 3.999-2.957 5.82-6.568Z" clip-rule="evenodd"/><path fill="#78D9FF" fill-rule="evenodd" d="M144.907 62.551a14.362 14.362 0 0 1-.964-.667c-1.702 6.168-5.114 10.64-7.603 11.181-4.282.93-17.248-7.295-20.917-20.12-3.669-12.825-.252-24.61 7.631-26.323 3.707-.805 7.743.76 11.359 3.98 2.21-8.673 7.465-14.774 13.595-14.774 7.067 0 12.97 8.106 14.387 18.915 1.505-.367 3.004-.414 4.454-.1 7.883 1.713 11.299 13.499 7.63 26.324-3.669 12.824-16.635 21.05-20.917 20.12-3.4-.74-8.526-8.818-8.655-18.536Z" clip-rule="evenodd"/><path fill="#FB7A35" d="M188.832 34.822c-3.001 10.49.758 20.338 3.411 20.915 2.654.577 11.278-6.582 14.279-17.072 3.001-10.49 1.474-19.854-3.411-20.915-4.885-1.062-11.278 6.582-14.279 17.072ZM93.505 23.516c3 10.49-.758 20.339-3.412 20.915-2.653.577-11.277-6.581-14.278-17.071-3.001-10.49-1.474-19.854 3.411-20.916 4.885-1.061 11.278 6.582 14.279 17.072Z"/><path fill="#78D9FF" d="M20.893 121.144c7.251 5.091 10.412 11.465 9.247 12.428-1.165.963-9.76-.917-17.011-6.008-7.251-5.09-11.39-10.655-9.247-12.427 2.144-1.773 9.76.916 17.011 6.007ZM254.231 137.266c-7.251 5.091-10.411 11.465-9.246 12.428 1.164.963 9.76-.917 17.011-6.008 7.251-5.09 11.391-10.654 9.246-12.427-2.144-1.773-9.76.916-17.011 6.007Z"/><path fill="#FF8BCA" d="M58.716 11.55c4.483 6.38 4.484 13.102 2.927 13.766-1.557.664-8.825-2.958-13.309-9.338-4.483-6.38-5.793-12.542-2.926-13.765 2.867-1.222 8.825 2.958 13.308 9.338ZM227.938 30.48c-5.273 6.1-6.122 12.796-4.654 13.547 1.468.752 9.167-2.44 14.439-8.538 5.272-6.1 7.356-12.164 4.654-13.547-2.703-1.383-9.167 2.44-14.439 8.539Z"/><path stroke="#FB7A35" stroke-linecap="round" stroke-width="2" d="m5.308 97.769 39.584 29.947M278 111.862l-47.501 25.543"/><path stroke="#78D9FF" stroke-linecap="round" stroke-width="2" d="m98.775 19.746 26.985 83.14"/><path stroke="#FF8BCA" stroke-linecap="round" stroke-width="2" d="m216.17 38.44-40.217 65.572"/><path fill="#FB7A35" fill-rule="evenodd" d="M214.73 102.992c-1.94 1.073-3.61 1.636-4.725 1.579-4.511-.23-11.956-11.21-8.158-24.09 3.799-12.881 13.61-22.98 21.914-22.556 4.808.245 8.057 3.964 9.202 9.553 4.579-2.892 9.102-4.175 12.628-3.205 5.708 1.57 7.169 8.595 4.348 17.237 5.177-2.071 9.815-2.496 12.814-.796 6.377 3.613 2.928 15.462-7.703 26.464-10.631 11.002-27.331 15.34-30.795 13.377-2.013-1.14-2.675-6.178-.79-12.357-2.098.688-3.794.919-4.801.643-1.6-.441-3.117-2.622-3.934-5.849Z" clip-rule="evenodd"/><path fill="#00CF4B" d="M129.389 341.902c-2.261.362-4.474.786-6.683 1.22-3.237.639-6.388 1.606-9.586 2.398-5.998 1.477-12.081 1.687-18.207 1.234-1.204-.091-2.38-.372-3.422-1.025-1.59-.986-1.738-2.507-.371-3.789.79-.743 1.775-1.172 2.698-1.682-.057-.224-.238-.239-.38-.296-5.27-2.23-8.15-6.348-9.059-11.867-1.499-9.113 3.77-16.277 9.42-19.141.376-.191.533-.462.586-.872.747-5.505 2.56-10.643 5.374-15.428.204-.348.28-.572-.143-.834-8.406-5.257-14.675-12.592-20.01-20.809-3.828-5.891-7.07-12.087-9.197-18.816-2.056-6.501-2.832-13.169-2.36-19.966.204-2.964-.572-5.581-2.176-8.016a19.947 19.947 0 0 1-.98-1.654c-1.738-3.265.238-6.963 3.313-8.026 3.503-1.211 7.02-1.139 10.462.319 1.361.577 2.418 1.535 3.303 2.717a27.42 27.42 0 0 1 3.727 6.791c.395 1.044.862 2.059 1.285 3.075.338-.038.438-.282.586-.458 4.317-5.147 9.505-9.218 15.36-12.449 1.175-.648 1.97-1.473 2.537-2.717 2.299-5.037 4.698-10.032 7.977-14.531 2.199-3.017 4.774-5.639 8.159-7.321 2.532-1.258 5.207-1.816 7.996-1.044 3.38.934 5.298 3.336 6.255 6.601.271.915.466 1.854.709 2.826.466-.181.39-.581.457-.886.49-2.364 1.214-4.599 2.999-6.358 2.146-2.116 4.736-2.803 7.649-2.402 4.541.624 7.835 3.322 10.719 6.639 3.137 3.608 5.298 7.831 7.454 12.049.776 1.52 1.533 3.064 2.175 4.647.457 1.115 1.2 1.815 2.233 2.378 4.003 2.188 7.72 4.785 11.071 7.888a48.994 48.994 0 0 1 4.689 4.942c.142.172.238.51.514.424.214-.071.204-.4.3-.614 1.37-3.122 2.484-6.354 4.493-9.185 1.69-2.378 3.874-3.77 6.692-4.232 2.261-.372 4.532-.343 6.745.295 2.67.773 4.341 2.479 4.741 5.329.181 1.277-.295 2.359-.867 3.427a48.542 48.542 0 0 1-1.708 2.988c-1.052 1.683-1.305 3.551-1.2 5.457.219 3.994.119 7.969-.404 11.935-.8 6.053-2.68 11.762-5.331 17.234-4.275 8.827-9.634 16.896-16.598 23.845-2.294 2.292-4.76 4.375-7.445 6.2-.433.296-.547.491-.228.992 3.256 5.128 5.379 10.685 6.164 16.724.076.577.424.801.862 1.034 8.325 4.442 11.847 15.433 7.634 23.855-1.604 3.207-4.022 5.566-7.349 6.949-.171.071-.333.157-.5.243-.019.009-.023.047-.062.119.791.467 1.647.829 2.376 1.411.509.409.956.867 1.161 1.501.3.92-.119 1.868-1.123 2.512-1.476.943-3.161 1.105-4.841 1.224-5.303.367-10.458-.357-15.527-1.954-3.903-1.229-7.882-2.159-11.976-2.559-1.885-.181-3.76-.372-5.721-.481-.262-.267-.09-.467.019-.677 2.09-3.989 3.146-8.274 3.679-12.726.338-2.826.405-5.667.267-8.493-.19-3.884-.904-7.702-2.018-11.439-.747-2.506-1.785-4.861-3.375-6.963-2.051-2.712-4.76-3.751-8.082-3.336-.081.009-.157.029-.238.029-2.866.004-4.86 1.529-6.474 3.717-1.999 2.707-2.941 5.848-3.755 9.056-1.233 4.871-1.561 9.832-1.304 14.818.261 5.061 1.328 9.965 3.512 14.579.215.424.457.853.348 1.425Z"/><path fill="#DBFF9E" d="M129.408 341.984c-.709-1.683-1.461-3.318-2.013-5.014-2.609-8.055-2.804-16.229-1.09-24.484.652-3.155 1.499-6.239 3.094-9.07.913-1.63 2.084-3.031 3.569-4.17.653-.5 1.405-.767 2.195-.925 1.737-.347 3.489-.476 5.255-.214 2.108.315 3.665 1.525 4.969 3.117 1.794 2.192 2.884 4.742 3.656 7.435 2.446 8.589 2.784 17.23.576 25.923-.643 2.516-1.528 4.947-2.861 7.254-5.084-.467-10.158-.553-15.232.048-.685.071-1.38.081-2.118.1Z"/><path fill="#0A1006" d="M143.397 216.94c-1.214.052-2.37.071-3.536-.091a4.983 4.983 0 0 1-2.518-1.096c-.391-.315-.6-.276-.933.033-1.205 1.116-2.647 1.654-4.284 1.649-.314 0-.629-.09-1.005-.138-.599-.343-1.228-.534-1.666-1.029-.395-.448-.723-.915-.637-1.559.085-.005.171-.024.181-.009 1.175 2.531 5.573 2.035 7.216.29.694-.738.704-.724 1.394 0 1.795 1.888 5.85 1.607 7.349-.519.157-.224.286-.515.61-.334.333.191.138.486.014.701-.514.891-1.152 1.659-2.185 2.102Z"/><path fill="#FF8BCA" d="M131.56 220.607c-.986-.163-1.931-.057-2.877-.06-.315 0-.424.293-.576.497-3.01 4.009-6.876 6.862-11.625 8.482-14.83 5.057-30.435-5.051-31.891-20.651-.253-2.698-.114-5.372.684-7.986a.842.842 0 0 0 .02-.32c.366-.654.524-1.365.768-2.036 2.23-6.121 6.469-10.488 12.003-13.724 2.589-1.514 5.468-1.968 8.394-2.196 5.847-.458 11.144 1.07 15.918 4.455.201.141.394.298.682.372.516.162.823.545 1.17.855 2.505 2.247 4.573 4.834 6.053 7.869a23.496 23.496 0 0 1 1.332 3.314c.135.44.355.646.85.63 2.703-.093 5.409-.16 8.109-.28 1.443-.062 1.139.223 1.687-1.268 1.226-3.341 3.089-6.302 5.412-8.99a35.415 35.415 0 0 1 1.714-1.813c.163-.163.332-.312.593-.402.263-.084.448-.214.616-.371 8.099-7.479 19.604-6.276 26.342-2.392 9.91 5.714 14.868 17.951 11.456 28.713-1.016 3.206-2.717 6.029-4.961 8.532-.187.209-.421.388-.491.724-.283-.005-.419.201-.579.353-10.411 9.965-26.597 9.012-35.744-2.114-.283-.345-.576-.5-1.016-.47-.753.052-1.513-.033-2.307.117-.29.236-.595.233-.899.233-1.475.003-2.95.033-4.423-.008-1.852-.049-3.7.152-5.55.12-.282 0-.576.04-.864-.185Z"/><path fill="#0E0E0E" d="M152.22 218.142c-2.692-2.94-4.327-6.33-4.702-10.271-.593-6.208 1.581-11.341 6.14-15.532 2.078-1.911 4.387-3.399 7.153-4.118 5.047-1.311 9.826-.665 14.252 2.077 4.754 2.945 7.56 7.247 8.321 12.784.872 6.341-1.122 11.743-5.781 16.091-2.877 2.685-6.363 4.183-10.305 4.58-4.784.483-9.074-.779-12.912-3.635-.775-.578-1.467-1.251-2.166-1.976ZM101.418 223.208c-4.137-1.824-7.229-4.71-9.147-8.746-2.35-4.943-2.374-9.967-.187-14.989 1.252-2.875 3.279-5.114 5.642-7.15 2.508-2.163 5.382-3.363 8.593-3.789 4.263-.565 8.267.285 11.91 2.587 4.709 2.975 7.509 7.245 8.267 12.76.87 6.341-1.124 11.743-5.783 16.089-2.877 2.684-6.366 4.166-10.305 4.581-3.108.329-6.077-.146-8.99-1.343Z"/></g></svg>