<svg width="390" height="433" viewBox="0 0 390 433" fill="none" xmlns="http://www.w3.org/2000/svg">
<rect y="332" width="390" height="101" fill="#0E0E0E"/>
<path d="M185.506 336.005C181.904 336.475 178.39 337.212 174.907 338.083C172.252 338.75 169.629 339.543 166.929 340.029C164.488 340.468 162.04 340.78 159.557 340.789C157.119 340.797 154.679 340.963 152.247 340.699C151.325 340.597 150.418 340.437 149.544 340.111C148.986 339.903 148.468 339.63 148.037 339.211C147.222 338.421 147.138 337.423 147.8 336.503C148.2 335.949 148.744 335.561 149.322 335.221C149.843 334.911 150.387 334.639 150.914 334.355C150.931 334.206 150.818 334.189 150.733 334.155C145.686 332.15 142.849 328.32 141.797 323.135C140.245 315.472 143.959 307.753 150.886 304.036C151.207 303.864 151.384 303.662 151.435 303.282C152.123 298.103 153.794 293.255 156.409 288.733C156.725 288.188 156.609 287.999 156.099 287.732C151.537 285.331 147.112 282.704 143.071 279.487C136.409 274.187 131.368 267.691 128.493 259.629C127.104 255.737 126.56 251.708 126.808 247.591C127.064 243.35 128.409 239.445 130.652 235.834C131.968 233.719 133.318 231.633 134.856 229.67C135.431 228.936 135.426 228.922 134.873 228.14C133.842 226.684 132.811 225.227 131.762 223.779C131.244 223.062 130.813 222.294 130.35 221.543C129.505 220.174 129.423 218.7 129.66 217.174C130.263 213.262 131.883 209.722 133.735 206.28C134.749 204.393 136.542 203.372 138.396 202.47C138.661 202.34 138.931 202.231 139.239 202.096C139.557 202.29 139.489 202.568 139.413 202.832C138.745 205.161 138.604 207.545 138.737 209.938C138.903 212.936 139.642 215.815 140.867 218.563C142.071 221.259 143.708 223.672 145.768 225.778C147.38 227.423 149.206 228.812 151.218 229.96C154.07 231.585 157.128 232.628 160.38 233.019C163.725 233.418 167.042 233.233 170.302 232.291C175.679 230.741 180.041 227.73 183.426 223.298C183.804 222.803 184.24 222.533 184.877 222.584C185.638 222.643 186.41 222.488 187.205 222.705C187.484 222.935 187.549 223.217 187.597 223.512C188.017 226.014 188.868 228.36 190.181 230.533C190.657 231.324 191.17 232.086 191.917 232.665C193.14 233.615 194.369 233.567 195.53 232.505C196.445 231.664 197.046 230.612 197.522 229.482C198.365 227.48 198.832 225.379 199.145 223.242C199.17 223.068 199.187 222.893 199.292 222.691C199.517 222.432 199.785 222.37 200.067 222.362C200.715 222.342 201.363 222.345 202.011 222.362C202.406 222.373 202.724 222.542 202.995 222.828C203.395 223.259 203.767 223.717 204.167 224.147C208.174 228.461 213.095 231.084 218.928 231.894C225.722 232.839 231.905 231.222 237.431 227.165C238.221 226.585 238.967 225.944 239.655 225.241C239.88 225.011 240.114 224.727 240.551 224.915C246.934 232.789 249.986 241.506 247.701 251.682C247.551 252.014 247.3 251.947 247.072 251.924C245.626 251.784 244.189 251.564 242.749 251.381C240.746 251.126 238.739 250.87 236.735 250.608C234.458 250.313 232.179 250.04 229.904 249.739C227.842 249.464 225.776 249.23 223.713 248.96C221.106 248.617 218.491 248.347 215.89 247.959C213.173 247.554 210.448 247.2 207.726 246.846C207.075 246.761 206.985 246.829 206.85 247.487C206.399 249.652 205.897 251.809 205.427 253.971C204.508 258.2 203.589 262.43 202.69 266.662C201.822 270.742 200.966 274.822 200.1 278.902C199.106 283.596 198.136 288.294 197.141 292.988C197.094 293.218 197.02 293.443 196.803 293.648C196.119 293.851 195.479 293.634 194.839 293.646C192.855 293.679 190.835 293.643 189.124 294.858C187.681 295.884 186.599 297.251 185.725 298.789C184.204 301.466 183.42 304.39 182.747 307.36C181.806 311.499 181.504 315.694 181.721 319.912C181.972 324.791 182.868 329.552 184.945 334.031C185.218 334.642 185.644 335.229 185.506 336.005Z" fill="#00CE4C"/>
<path d="M196.646 293.64C197.179 291.874 197.466 290.097 197.841 288.339C199.563 280.241 201.259 272.137 202.987 264.038C204.167 258.507 205.382 252.984 206.583 247.459C206.794 246.486 206.8 246.466 207.769 246.598C211.072 247.051 214.372 247.54 217.677 247.976C220.636 248.367 223.601 248.702 226.563 249.073C229.544 249.444 232.523 249.826 235.502 250.206C238.404 250.574 241.304 250.946 244.207 251.314C245.337 251.457 246.464 251.601 247.636 251.739C248.279 251.997 248.673 251.812 249.138 251.322C254.758 245.395 260.585 239.672 266.396 233.936C267.735 232.614 269.04 231.253 270.457 230.008C270.753 229.749 271.018 229.687 271.353 229.889C271.708 230.1 271.57 230.39 271.488 230.668C269.116 238.744 267.171 246.939 264.939 255.054C264.26 257.528 263.62 260.011 262.952 262.537C262.84 262.823 262.611 262.826 262.4 262.863C260.419 263.197 259.072 264.325 258.221 266.116C257.449 267.742 257.099 269.496 256.609 271.203C254.991 276.83 253.365 282.457 251.849 288.112C251.536 289.284 251.246 290.46 251.122 291.674C250.953 293.308 251.508 295.279 253.306 296.109C253.484 296.19 253.661 296.283 253.763 296.519C252.954 299.503 252.14 302.442 251.314 305.377C250.843 307.053 250.406 308.738 249.809 310.374C249.688 310.709 249.507 310.945 249.228 311.147C248.025 312.025 246.833 312.916 245.607 313.836C245.435 314.325 245.021 314.511 244.674 314.758C243.491 315.599 242.209 316.324 241.135 317.286C240.168 318.149 239.112 318.442 237.886 318.535C235.538 318.715 233.219 319.136 230.886 319.434C228.358 319.758 225.83 320.098 223.305 320.433C220.817 320.762 218.331 321.099 215.84 321.422C213.546 321.721 211.252 322.033 208.955 322.308C208.118 322.409 207.284 322.53 206.394 322.609C203.274 323.022 200.2 323.396 197.122 323.734C195.291 323.934 193.464 324.173 191.619 324.192C191.461 324.195 191.303 324.195 191.148 324.184C190.514 324.136 190.246 323.846 190.376 323.216C190.734 321.473 191.103 319.732 191.461 317.989C192.284 313.965 193.112 309.944 193.946 305.923C194.75 302.053 195.553 298.187 196.361 294.321C196.412 294.098 196.409 293.845 196.646 293.64Z" fill="#FFF500"/>
<path d="M187.301 222.885C186.278 222.716 185.298 222.826 184.317 222.823C183.99 222.823 183.877 223.127 183.719 223.338C180.597 227.491 176.587 230.446 171.661 232.125C156.277 237.364 140.09 226.892 138.58 210.731C138.317 207.936 138.461 205.166 139.29 202.458C139.318 202.366 139.321 202.267 139.309 202.127C139.69 201.449 139.853 200.712 140.107 200.018C142.421 193.677 146.817 189.152 152.557 185.8C155.243 184.231 158.23 183.762 161.265 183.525C167.33 183.05 172.825 184.633 177.776 188.14C177.985 188.286 178.185 188.449 178.483 188.525C179.019 188.694 179.337 189.09 179.698 189.411C182.296 191.739 184.441 194.419 185.977 197.563C186.518 198.674 186.991 199.815 187.358 200.996C187.498 201.452 187.727 201.666 188.24 201.649C191.044 201.553 193.85 201.483 196.652 201.359C198.148 201.294 197.832 201.59 198.402 200.046C199.673 196.584 201.606 193.516 204.015 190.733C204.582 190.077 205.185 189.464 205.793 188.854C205.962 188.685 206.137 188.531 206.408 188.438C206.681 188.351 206.873 188.216 207.047 188.053C215.448 180.306 227.383 181.551 234.371 185.575C244.652 191.495 249.795 204.171 246.255 215.321C245.201 218.641 243.437 221.566 241.109 224.159C240.915 224.375 240.673 224.561 240.599 224.909C240.306 224.904 240.165 225.117 239.999 225.275C229.2 235.598 212.41 234.611 202.922 223.084C202.629 222.727 202.324 222.567 201.868 222.598C201.087 222.651 200.298 222.564 199.475 222.719C199.174 222.964 198.858 222.961 198.542 222.961C197.012 222.964 195.482 222.994 193.955 222.952C192.033 222.902 190.116 223.11 188.197 223.076C187.904 223.076 187.6 223.118 187.301 222.885Z" fill="#FF8BCA"/>
<path d="M206.308 322.488C207.472 322.173 208.63 322.117 209.775 321.962C212.982 321.527 216.191 321.122 219.398 320.703C222.49 320.298 225.581 319.89 228.673 319.479C231.395 319.117 234.111 318.74 236.834 318.38C237.513 318.29 238.198 318.22 238.882 318.189C239.48 318.161 239.942 317.952 240.396 317.548C241.582 316.487 242.977 315.7 244.259 314.764C244.671 314.463 245.099 314.187 245.553 313.889C248.216 321.11 245.64 331.335 237.101 334.299C237.217 334.512 237.448 334.54 237.631 334.633C238.46 335.049 239.271 335.488 239.928 336.154C241.01 337.254 240.909 338.562 239.674 339.484C238.832 340.114 237.843 340.367 236.831 340.552C235.98 340.707 235.118 340.772 234.252 340.82C229.219 341.104 224.338 340.372 219.536 338.837C216.282 337.797 212.942 337.029 209.549 336.582C207.221 336.275 204.882 336.045 202.476 335.946C202.264 335.724 202.355 335.527 202.459 335.333C204.44 331.593 205.46 327.572 206.001 323.408C206.038 323.096 206.058 322.775 206.308 322.488Z" fill="#00CF4B"/>
<path d="M206.298 322.446C205.878 326.841 204.838 331.065 202.902 335.05C202.764 335.334 202.459 335.508 202.426 335.89C200.757 335.834 199.1 335.668 197.438 335.584C193.583 335.387 189.756 335.708 185.929 336.062C185.813 336.073 185.695 336.065 185.526 336.056C185.331 335.643 185.227 335.218 185.038 334.833C183.049 330.736 182.045 326.38 181.628 321.875C181.014 315.264 181.758 308.797 183.821 302.49C184.587 300.144 185.7 297.971 187.357 296.095C188.817 294.442 190.638 293.609 192.822 293.477C194.081 293.401 195.335 293.367 196.635 293.607C196.609 294.748 196.294 295.842 196.065 296.953C194.346 305.304 192.619 313.65 190.891 321.999C190.793 322.477 190.686 322.958 190.57 323.433C190.477 323.819 190.609 323.959 191.012 323.97C192.551 324.01 194.076 323.841 195.597 323.667C199.013 323.276 202.423 322.851 205.836 322.443C205.971 322.421 206.109 322.432 206.298 322.446Z" fill="#DBFF9E"/>
<path d="M253.821 296.573C251.55 295.791 250.659 293.876 250.907 291.565C251.178 289.042 252.009 286.661 252.677 284.24C254.238 278.579 255.814 272.921 257.485 267.292C258.167 264.994 259.508 263.172 262.092 262.683C262.343 262.635 262.6 262.629 262.901 262.596C265.643 262.767 267.325 264.353 268.422 266.639C269.54 268.97 269.476 271.428 268.867 273.872C267.621 278.88 266.145 283.818 264.395 288.677C264.073 289.565 263.437 290.238 262.848 290.941C261.484 292.566 260.075 294.146 258.336 295.395C256.997 296.354 255.549 296.919 253.821 296.573Z" fill="#00CE4C"/>
<path d="M206.401 188.401C206.415 188.657 206.218 188.775 206.066 188.924C202.527 192.332 199.858 196.3 198.325 200.985C198.209 201.342 198.068 201.539 197.646 201.553C194.441 201.646 191.24 201.755 188.039 201.882C187.565 201.901 187.357 201.767 187.21 201.3C185.655 196.404 182.876 192.324 178.917 189.039C178.767 188.916 178.581 188.826 178.533 188.573C181.605 187.245 184.694 186.936 187.709 188.643C189.546 189.683 190.764 191.306 191.494 193.286C191.874 194.318 192.1 195.389 192.342 196.455C192.379 196.621 192.359 196.854 192.598 196.851C192.83 196.848 192.827 196.612 192.858 196.449C193.12 195.06 193.444 193.688 194.067 192.408C195.901 188.64 199.649 186.93 203.586 187.639C204.533 187.811 205.457 188.044 206.401 188.401Z" fill="#00CE4C"/>
<path d="M187.259 222.89C189.178 222.806 191.097 222.752 193.019 222.733C195.118 222.71 197.218 222.716 199.373 222.727C199.092 225.376 198.551 227.955 197.364 230.356C197.006 231.079 196.584 231.762 196.026 232.353C194.408 234.065 192.52 234.014 191.04 232.167C189.488 230.23 188.482 228.011 187.833 225.629C187.591 224.743 187.447 223.832 187.259 222.89Z" fill="#00CE4C"/>
<path d="M208.732 220.331C205.94 217.286 204.243 213.774 203.854 209.691C203.24 203.26 205.494 197.942 210.223 193.601C212.379 191.621 214.774 190.08 217.643 189.335C222.879 187.977 227.836 188.646 232.427 191.486C237.358 194.537 240.269 198.994 241.058 204.73C241.963 211.299 239.895 216.895 235.062 221.4C232.077 224.181 228.462 225.733 224.373 226.144C219.41 226.644 214.96 225.337 210.978 222.378C210.175 221.78 209.457 221.082 208.732 220.331Z" fill="#0E0E0E"/>
<path d="M156.034 225.579C151.742 223.689 148.535 220.7 146.546 216.518C144.108 211.398 144.083 206.193 146.351 200.991C147.65 198.013 149.753 195.693 152.204 193.584C154.805 191.343 157.787 190.1 161.118 189.658C165.539 189.073 169.693 189.953 173.472 192.338C178.356 195.42 181.261 199.843 182.048 205.557C182.949 212.126 180.881 217.722 176.048 222.224C173.064 225.005 169.445 226.54 165.359 226.97C162.135 227.311 159.055 226.819 156.034 225.579Z" fill="#0E0E0E"/>
<path fill-rule="evenodd" clip-rule="evenodd" d="M108.652 77.5366C119.891 77.5366 129.313 85.3136 131.826 95.7776C132.017 95.7731 132.208 95.7708 132.4 95.7708C145.561 95.7708 156.231 106.436 156.231 119.591C156.231 128.199 151.663 135.741 144.817 139.926C145.938 142.689 146.556 145.71 146.556 148.875C146.556 162.031 135.886 172.695 122.725 172.695C117.461 172.695 112.595 170.989 108.652 168.1C104.708 170.989 99.8425 172.695 94.5785 172.695C81.4168 172.695 70.7472 162.031 70.7472 148.875C70.7472 145.71 71.3647 142.689 72.4859 139.926C65.6405 135.741 61.0723 128.199 61.0723 119.591C61.0723 106.436 71.7419 95.7708 84.9036 95.7708C85.0956 95.7708 85.2871 95.7731 85.478 95.7776C87.9905 85.3136 97.4126 77.5366 108.652 77.5366Z" fill="#88A1FF"/>
<path d="M195 0L210.597 20.4772L236.332 19.9046L230.047 44.8666L246.54 64.6298L223.106 75.2798L217.937 100.497L195 88.8149L172.062 100.497L166.894 75.2798L143.459 64.6298L159.952 44.8666L153.667 19.9046L179.402 20.4772L195 0Z" fill="#A0FF56"/>
<path fill-rule="evenodd" clip-rule="evenodd" d="M293.691 77.5366H269.005V95.2602L256.576 82.8315L239.12 100.287L251.605 112.773H233.768L233.768 137.459L251.816 137.459L239.1 150.176L256.556 167.631L269.005 155.182V172.695H293.691V154.858L306.407 167.575L323.863 150.119L311.204 137.459L328.927 137.459V112.773H311.414L323.843 100.344L306.387 82.8881L293.691 95.5842V77.5366Z" fill="#FB7A35"/>
</svg>
