<svg xmlns="http://www.w3.org/2000/svg" width="120" height="120" fill="none"><path fill="#00CF4B" d="M87.521 9.57c0-.019-.002-.032.004-.032.064-.063.11-.137.207-.185.173-.06.26-.188.358-.325.015-.11.114-.147.137-.253a.17.17 0 0 1 .053-.063c.124-.044.227-.078.312-.185a.5.5 0 0 0 .2-.12c.133-.148.295-.207.47-.283.052-.046.105-.063.154-.116.019-.025.027-.038.048-.063a.232.232 0 0 1 .065-.046c.1-.026.171-.064.262-.11a.534.534 0 0 0 .094-.072l.07-.07a.458.458 0 0 1 .084-.054c.032-.013.042-.015.074-.023.057-.002.093 0 .145-.013a.322.322 0 0 0 .062-.038.377.377 0 0 1 .06-.04.376.376 0 0 1 .108-.034c.044-.002.068-.002.112-.006.067-.013.116-.027.183-.044.156-.023.285-.082.447-.078a.425.425 0 0 0 .183-.089.272.272 0 0 1 .08-.025h.209a.402.402 0 0 0 .232-.044.49.49 0 0 1 .166-.007c.135.093.247.057.38-.006.284-.04.537.044.817.06.162.04.287.16.468.073.065-.013.111-.015.179-.027a.438.438 0 0 1 .139-.009 1.094 1.094 0 0 1 .318.09c.474.279.961.48 1.442.68.385.16.735.379 1.076.6 1.397.902 2.476 2.133 3.42 3.478.725 1.035 1.302 2.156 1.793 3.322.35.832.664 1.675.951 2.53.653 1.957 1.057 3.976 1.513 5.98.305 1.345.518 2.711.746 4.073.082.493.193.984.236 1.483.044.513.396.825.718 1.145.468.464.948.913 1.389 1.408.396.447.8.885 1.197 1.332a49.28 49.28 0 0 1 1.799 2.194c.569.73 1.119 1.473 1.627 2.245.493.746.978 1.496 1.407 2.282.266.487.557.964.814 1.457.35.674.666 1.366.971 2.061.323.736.626 1.48.896 2.234.417 1.164.784 2.344 1.043 3.556.088.413.215.82.253 1.242.038.442.122.878.17 1.321.026.234.007.487.114.712.009.02.017.04.013.06-.078.392.095.767.067 1.154-.046.66-.012 1.318-.012 1.977 0 .456-.057.913-.116 1.37-.068.527-.163 1.048-.24 1.594.002.116-.07.19-.064.306v.086c-.057.16-.092.306-.122.472l-.004.08c-.011.074-.057.112-.059.188 0 .034-.002.046-.004.078a.586.586 0 0 0-.072.221c-.008.019-.013.015-.008.015-.078.12-.076.261-.114.415-.009.021-.013.019-.011.017-.033.019-.04.053-.04.107v.072a.493.493 0 0 1-.025.137c-.006.027-.006.04-.013.067-.019.047-.036.076-.048.125-.007.027-.007.038-.015.065-.019.047-.036.076-.048.122-.007.028-.007.038-.015.066-.019.046-.036.076-.049.124-.006.028-.006.038-.014.066-.021.046-.036.075-.049.126-.006.027-.008.04-.021.065a.41.41 0 0 0-.093.146c-.008.014-.012.012-.01.012-.04.03-.034.076-.038.142-.398 1.119-.927 2.151-1.521 3.155a20.244 20.244 0 0 1-1.956 2.731c-.63.746-1.262 1.497-2.048 2.13-.337.06-.609-.098-.894-.178-2.151-.594-4.338-1.01-6.542-1.349-1.427-.219-2.858-.41-4.29-.586-.88-.107-1.766-.141-2.65-.213-1.02-.082-2.043-.008-3.06-.076-1.166-.078-2.334-.065-3.497-.031a67.15 67.15 0 0 0-5.704.394c-1.013.116-2.025.255-3.038.373a.52.52 0 0 1-.35-.067 2.61 2.61 0 0 1-.759-.71c-.048-.068-.11-.123-.168-.182-1.66-1.623-3.258-3.311-4.887-4.966-.978-.992-1.98-1.96-2.927-2.982-.843-.91-1.757-1.747-2.598-2.656-.948-1.022-1.972-1.968-2.92-2.989-.88-.946-1.834-1.816-2.71-2.763-.927-1-1.933-1.922-2.858-2.923-.861-.934-1.801-1.79-2.663-2.723-.967-1.048-2.02-2.009-2.988-3.054-.828-.894-1.73-1.716-2.556-2.61-.954-1.03-1.99-1.98-2.944-3.012-.9-.97-1.875-1.863-2.77-2.832-.926-1.002-1.935-1.92-2.86-2.92-.891-.963-1.857-1.852-2.752-2.81-.487-.52-.984-1.028-1.481-1.538-.095-.097-.184-.198-.194-.364.063-.304.345-.38.514-.563.194-.21.423-.38.668-.565.013-.019.017-.013.013-.015.018-.006.035-.017.058-.046.009-.015.011-.008.009-.01a.175.175 0 0 0 .057-.05c.01-.01.01-.008.01-.01.028-.027.068-.03.104-.065.004-.019.002-.013 0-.013.008-.002.019-.004.035-.019a.503.503 0 0 1 .024-.059.187.187 0 0 1 .063-.046.376.376 0 0 0 .072-.036c.012-.01.012-.008.012-.008l.055-.049c.013-.008.008-.012.01-.01a.373.373 0 0 0 .051-.063.19.19 0 0 1 .042-.049.368.368 0 0 1 .076-.036.26.26 0 0 0 .074-.038c.012-.01.017-.02.023-.02.017 0 .027 0 .05-.01.02-.016.024-.027.034-.05.013-.023.017-.034.047-.061.046-.021.067-.027.096-.046.013-.01.017-.02.022-.02.033.005.059-.001.082-.044.002-.02.002-.016 0-.016.008-.003.019-.005.036-.021a.476.476 0 0 1 .023-.06.177.177 0 0 1 .05-.038c.026-.01.036-.012.062-.018.037-.003.058-.009.077-.038.002-.017.02-.005.011-.009.015 0 .036-.008.057-.042.006-.017.01-.01.006-.01a.261.261 0 0 0 .068-.051c.012-.013.017-.023.02-.023.034.006.06 0 .087-.04.006-.021.01-.009.006-.013.02-.004.038-.015.062-.046.006-.015.01-.007.008-.01.032-.022.072-.026.107-.062.002-.019.002-.013-.002-.015.009 0 .02 0 .038-.015l.023-.059a.12.12 0 0 1 .051-.04.228.228 0 0 1 .061-.018c.038-.003.06-.009.08-.038.004-.017.002-.011 0-.011.009-.004.02-.006.036-.025a.175.175 0 0 1 .032-.06c.023-.016.033-.02.059-.033a.281.281 0 0 0 .054-.044c.021-.021.03-.032.053-.05.027-.014.04-.018.07-.028.065-.032.099-.07.151-.12.278-.207.554-.378.841-.574a.362.362 0 0 1 .11-.048.211.211 0 0 0 .065-.04.674.674 0 0 1 .057-.053.168.168 0 0 1 .072-.023.2.2 0 0 0 .139-.055c.012-.015.012-.01.012-.013a.69.69 0 0 0 .125-.139c.294-.177.564-.358.864-.529.06-.038.115-.044.172-.088a.374.374 0 0 1 .06-.042l.063-.036c.023-.017.033-.026.059-.042.037-.017.058-.024.099-.036.027-.009.037-.01.067-.017.053-.006.082-.023.11-.07a.151.151 0 0 1 .046-.05l.061-.034c.025-.015.036-.019.061-.032a.538.538 0 0 0 .093-.046.555.555 0 0 1 .063-.027.343.343 0 0 0 .124-.07.35.35 0 0 1 .095-.061c.156-.05.297-.086.443-.164.012-.015.017-.024.02-.021.028-.003.047-.011.07-.038a.198.198 0 0 1 .028-.061.14.14 0 0 1 .052-.04c.026-.011.036-.017.062-.026a.347.347 0 0 0 .086-.048.312.312 0 0 1 .055-.036l.063-.023a2.13 2.13 0 0 1 .063-.026c.025-.012.036-.017.06-.033.022-.017.03-.024.056-.04l.061-.03c.025-.015.034-.021.061-.034.026-.012.038-.014.063-.027.026-.015.036-.021.062-.034.025-.012.037-.015.063-.027l.06-.034c.028-.01.039-.015.066-.023l.066-.025c.027-.01.037-.017.063-.03.027-.015.038-.019.065-.032a.764.764 0 0 1 .175-.078c.25-.067.45-.196.678-.311a.359.359 0 0 1 .068-.049c.219-.031.386-.141.575-.246.26-.148.525-.226.79-.359.15-.044.287-.057.42-.143.027-.02.038-.028.067-.042.089-.043.173-.028.253-.09a.307.307 0 0 1 .067-.039c.076-.034.148-.027.215-.082.152-.065.283-.133.447-.17a.528.528 0 0 0 .076-.026.436.436 0 0 1 .074-.025c.094-.013.179.01.248-.078a.142.142 0 0 1 .061-.045c.083-.02.146-.035.22-.08.117-.046.208-.107.337-.124.031-.01.044-.017.075-.032a.487.487 0 0 1 .079-.03c.265-.06.497-.153.75-.246.027-.019.04-.025.07-.04a.82.82 0 0 0 .223-.076.461.461 0 0 1 .217-.067.384.384 0 0 0 .07-.025.474.474 0 0 1 .069-.026.5.5 0 0 0 .143-.048c.03-.01.042-.013.074-.02.092-.029.175-.02.259-.075a.275.275 0 0 1 .07-.038.644.644 0 0 0 .151-.05c.032-.013.044-.015.078-.022.186-.035.344-.084.516-.158l.082-.023c.116-.038.222-.019.331-.076.175-.055.327-.107.512-.122.036-.01.051-.015.085-.03a.682.682 0 0 1 .086-.025c.226.023.407-.067.62-.118a.333.333 0 0 1 .134-.025c.388-.072.776-.049 1.107-.251.305-.186.474-.502.7-.76 1.205-1.394 2.4-2.791 3.678-4.12.917-.95 1.842-1.89 2.782-2.813.99-.974 2.086-1.83 3.211-2.643a19.548 19.548 0 0 1 2.874-1.724c.841-.411 1.714-.727 2.618-.98.684-.192 1.376-.272 2.075-.363.832-.107 1.629.057 2.444.12.81.061 1.511.413 2.192.767 1.144.599 1.997 1.514 2.585 2.684.422.836.679 1.72.763 2.632.055.61.1 1.237-.004 1.863-.07.418-.023.852-.027 1.318.219-.1.303-.247.377-.386.328-.618.647-1.24 1.045-1.817.031-.044.044-.093.023-.169-.015-.164.055-.259.192-.33.09-.022.141-.06.175-.146a.211.211 0 0 1 .078-.088c.086-.022.145-.045.16-.146 0-.036.006-.048.008-.08Z"/><path fill="#FF3631" d="M40.215 26.38c.468.575.997 1.068 1.503 1.584 7.312 7.476 14.63 14.95 21.942 22.424 5.826 5.954 11.65 11.913 17.49 17.888.025.289-.21.26-.357.285-.417.07-.834.133-1.252.194-1.531.223-3.042.56-4.53.98-1.86.525-3.664 1.212-5.375 2.12-1.456.774-2.828 1.663-3.962 2.88-1.117 1.197-1.833 2.569-1.789 4.246.026.98.295 1.91.68 2.81.69 1.61 1.676 3.025 2.829 4.333a19.992 19.992 0 0 0 4.962 4.104c1.136.662 2.33 1.2 3.557 1.663 1.922.727 3.886 1.326 5.904 1.722 1.153.228 2.316.384 3.488.483.895.076 1.789.105 2.686.12.803.013 1.608.019 2.409-.021a36.977 36.977 0 0 0 4.69-.563c2.145-.39 4.242-.968 6.324-1.602.582-.177 1.159-.375 1.736-.567a.87.87 0 0 1 .386-.063c.131.046.225.11.305.19.991.978 1.977 1.962 2.868 3.033.158.19.329.368.479.567.103.137.181.278.105.478a.477.477 0 0 1-.306.173 23.026 23.026 0 0 0-5.409 1.912 26.18 26.18 0 0 0-7.36 5.518 24.82 24.82 0 0 0-3.673 5.069 20.795 20.795 0 0 0-2.231 6.23c-.09.487-.127.98-.205 1.467-.014.093-.02.185-.122.263-.282.019-.421-.177-.552-.352a6.327 6.327 0 0 0-.632-.693c-.693-.527-1.203-1.208-1.779-1.821-.33-.352-.663-.706-.996-1.056-.763-.797-1.507-1.61-2.263-2.413-.892-.945-1.775-1.895-2.66-2.844-1.117-1.199-2.23-2.398-3.352-3.593-.854-.909-1.707-1.817-2.548-2.738-1.02-1.12-2.099-2.184-3.076-3.341-.02-.023-.053-.034-.1-.057-1.103-1.14-2.16-2.297-3.232-3.438-1.156-1.23-2.305-2.47-3.457-3.705-.85-.912-1.703-1.82-2.55-2.734-1.193-1.283-2.392-2.558-3.589-3.838-.83-.887-1.662-1.774-2.484-2.668-.67-.727-1.368-1.43-2.014-2.18-.062-.069-.133-.128-.22-.204-.364-.518-.828-.919-1.24-1.366-.742-.803-1.497-1.593-2.239-2.396-1.224-1.324-2.473-2.624-3.679-3.965-.343-.383-.706-.752-1.062-1.123-1.03-1.069-2.01-2.186-3.047-3.248a.569.569 0 0 1-.179-.308c-.057-.223.04-.381.141-.541a13.992 13.992 0 0 0 1.64-3.691c.36-1.292.541-2.603.463-3.944-.09-1.568-.385-3.09-1.148-4.485a22.333 22.333 0 0 0-2.735-3.964c-1.31-1.508-2.832-2.768-4.52-3.82-1.907-1.188-3.955-2.05-6.195-2.383-.97-.144-1.945-.218-2.927-.097-.306.038-.615.036-.925.06-1.24.1-2.305.59-3.252 1.37-.103.087-.195.19-.37.15-.702-.729-1.387-1.443-2.063-2.166-.98-1.048-1.95-2.104-2.927-3.151-2.609-2.8-5.22-5.598-7.83-8.397-.458-.491-.902-.993-1.36-1.482-.2-.215-.332-.445-.295-.774.02-.984.367-1.863.736-2.719.518-1.201 1.115-2.369 1.89-3.433a38.93 38.93 0 0 1 2.352-2.945 36.303 36.303 0 0 1 1.978-2.086 34.883 34.883 0 0 1 3.918-3.257 22.375 22.375 0 0 1 2.707-1.671c1.357-.704 2.746-1.332 4.297-1.496a.837.837 0 0 1 .356.027c.217-.015.345.103.482.217 1.954 1.6 3.629 3.484 5.397 5.273 2.406 2.437 4.8 4.888 7.196 7.333.592.605 1.178 1.214 1.77 1.82.093.094.2.176.322.275.055.036.064.076.08.137Z"/><path fill="#00CF4B" d="M41.094 66.173c1.968 2.104 3.913 4.195 5.862 6.284l5.36 5.745c.076.082.169.154.207.289 0 .202-.15.25-.274.316-1.616.852-3.055 1.94-4.385 3.191-1.892 1.781-3.443 3.823-4.762 6.05a33.108 33.108 0 0 0-3.526 8.483 33.45 33.45 0 0 0-.935 5.223c-.143 1.42-.152 2.845-.089 4.261.106 2.327.544 4.602 1.41 6.777.558 1.406 1.275 2.725 2.238 3.901.086.105.166.213.154.379-.571.021-1.107-.143-1.648-.261-2.375-.514-4.695-1.218-6.935-2.167a.632.632 0 0 0-.556.015c-4.872 2.198-9.957 3.705-15.216 4.624-2.364.414-4.745.656-7.152.46-1.032-.084-2.048-.251-3.028-.605a5.055 5.055 0 0 1-1.108-.548c-1.073-.723-1.385-1.741-.9-2.942.27-.671.695-1.242 1.195-1.756 1.542-1.587 3.44-2.576 5.516-3.261.574-.189 1.162-.341 1.75-.514-.077-.135-.21-.154-.317-.204-2.2-1.052-4.288-2.277-6.064-3.969-2.607-2.485-4.19-5.497-4.598-9.09-.306-2.7.133-5.308 1.269-7.761 2.79-6.022 7.421-9.936 13.795-11.749 2.375-.674 4.762-.56 7.085.338.242.094.305-.032.4-.186a54.664 54.664 0 0 1 4.223-6.032c.604-.744 1.247-1.459 1.854-2.234.143-.203.312-.12.461-.072.56.18 1.13.314 1.71.417 1.877.34 3.489-.234 4.93-1.416.62-.506 1.113-1.126 1.6-1.75.115-.147.227-.303.474-.236ZM103.586 91.506c-.267.002-.482.116-.705.19-2.862.956-5.761 1.768-8.75 2.236a37.35 37.35 0 0 1-4.991.43c-4.078.084-8.041-.513-11.9-1.836-2.522-.867-4.947-1.925-7.06-3.585-2.291-1.8-4.207-3.927-5.507-6.562-.516-1.045-.876-2.141-.925-3.317-.063-1.507.47-2.808 1.414-3.96 1.058-1.29 2.385-2.245 3.822-3.057 2.818-1.589 5.859-2.546 9.017-3.168.912-.179 1.83-.324 2.748-.455.128-.019.272-.006.396-.114.245.103.483.034.712-.002 4.272-.634 8.566-.803 12.88-.687 5.265.143 10.44.9 15.544 2.194.32.08.624.217.982.26.103-.034.164-.007.232.065 1.213.438 2.402.887 3.525 1.488 1.395.746 2.676 1.637 3.647 2.915 1.652 2.17 1.777 4.654.327 6.963-.9 1.434-2.105 2.59-3.39 3.67-2.436 2.047-5.209 3.522-8.121 4.753a4.64 4.64 0 0 0-.3.143c-.212.274-.524.319-.794.428-.792.32-1.591.62-2.392.917-.126.05-.253.082-.411.09Z"/><path fill="#DBFF9E" d="M42.363 117.101c-2.518-3.005-3.646-6.544-3.882-10.357-.543-8.747 2.082-16.484 7.702-23.193 1.751-2.091 3.848-3.794 6.324-5.033.381.257.649.615.95.938a32166.58 32166.58 0 0 1 16.43 17.605c.063.068.116.146.183.236.196.236.082.48.049.702a34.114 34.114 0 0 1-2.413 8.439 32.772 32.772 0 0 1-3.146 5.7 27.837 27.837 0 0 1-2.181 2.761 27.103 27.103 0 0 1-2.194 2.175c-.183.162-.375.322-.645.394-1.367.232-2.726.331-4.087.407-4.25.238-8.48.044-12.68-.679-.13-.023-.26-.059-.41-.095Z"/><path fill="#00CF4B" d="M41.115 66.165c-.192.012-.26.168-.35.288-.55.725-1.134 1.417-1.854 1.98-1.667 1.302-3.526 1.67-5.57 1.135-.457-.12-.912-.242-1.386-.362a27.604 27.604 0 0 1-1.121-.48 13.39 13.39 0 0 1-4.792-3.74c-2.672-3.286-4.724-6.91-5.925-10.99-.548-1.858-.77-3.755-.502-5.692.18-1.294.675-2.439 1.564-3.427.383-.291.72-.612 1.12-.852.85-.508 1.771-.763 2.753-.847 1.953-.169 3.875-.047 5.755.548 2.17.687 4.125 1.772 5.923 3.161 2.366 1.83 4.208 4.093 5.592 6.734 1.016 1.94 1.237 4.03 1.048 6.17-.196 2.196-.947 4.215-2.145 6.066-.064.086-.119.175-.11.308Z"/><path fill="#F7E5AD" d="M24.976 11.3a.825.825 0 0 1-.284.102c-2.07.26-3.884 1.179-5.622 2.25-2.708 1.667-5.068 3.755-7.177 6.133-1.064 1.2-2.071 2.443-2.925 3.798-.967 1.537-1.723 3.172-2.111 4.96-.021.098-.063.193-.108.311-.44-1.304-.87-2.628-1.293-3.954A6452.94 6452.94 0 0 1 1.85 13.576c-.097-.304-.206-.607-.242-.953a.56.56 0 0 1 .074-.411c1.171-2.093 2.754-3.773 4.911-4.871.25-.127.504-.24.816-.209.954.127 1.86.375 2.777.578 4.351.959 8.699 1.941 13.025 3.007.47.116.935.253 1.4.386.125.036.258.072.365.196Z"/><path fill="#00CF4B" d="M59.545 117.476c.963-.849 1.915-1.735 2.777-2.715 3.125-3.545 5.26-7.63 6.62-12.136.521-1.722.899-3.476 1.135-5.286.204.042.305.221.436.362 4.836 5.181 9.672 10.362 14.505 15.545.536.573 1.069 1.146 1.602 1.722.061.067.11.147.166.242-1.61-.415-3.196-.938-4.79-1.442a478.1 478.1 0 0 1-4.976-1.604.742.742 0 0 0-.618.053c-5.143 2.65-10.586 4.376-16.31 5.215-.172.027-.347.033-.547.044Z"/><path fill="#F7E5AD" d="M87.992 116.315c.244-3.463 1.422-6.61 3.3-9.495 3.063-4.713 7.21-8.121 12.459-10.168 1.127-.44 2.297-.746 3.5-1.024.356.076.341.365.367.61.057.577-.019 1.152-.064 1.725-.094 1.191-.273 2.369-.602 3.522-.47 1.646-1.168 3.191-2.04 4.658-.141.238-.291.475-.445.706a1.187 1.187 0 0 1-.356.369c-.153.219-.29.418-.44.635.021.162-.084.25-.158.341-.658.805-1.321 1.604-2.071 2.329-1.296 1.252-2.744 2.297-4.295 3.206a22.988 22.988 0 0 1-4.01 1.838c-.788.276-1.597.478-2.417.632-.2.038-.41.025-.636-.004-.497.084-.986.067-1.458.183-.203.053-.41.007-.635-.063Z"/><path fill="#00CF4B" d="M90.088 116.219c.111-.097.272-.091.423-.122 4.828-.989 8.85-3.36 12.114-7.038.342-.384.614-.826 1.018-1.176 2.695 1.357 5.18 2.989 7.255 5.187.548.579 1.039 1.205 1.414 1.912.215.404.379.828.428 1.285.097.881-.245 1.575-.946 2.093-.816.603-1.77.824-2.75.951-2.139.272-4.269.099-6.389-.203-4.263-.611-8.418-1.688-12.567-2.889ZM104.121 107.242c0-.217.16-.362.27-.533 1.471-2.285 2.499-4.74 2.876-7.444.133-.95.221-1.906.211-2.867-.004-.259-.023-.516-.19-.759-.055-.206-.177-.343-.297-.486-1.06-1.274-2.213-2.46-3.414-3.626.03-.105.114-.14.203-.172a77.045 77.045 0 0 0 3.222-1.246c.035-.015.08-.015.143-.02 1.761 1.763 3.057 3.801 3.858 6.147.531 1.553.813 3.147.483 4.78-.567 2.795-2.299 4.614-4.904 5.655a9.122 9.122 0 0 1-2.461.571Z"/><path fill="#080505" d="M7.407 7.13c-1.875.679-3.308 1.95-4.539 3.488-.485.607-.883 1.267-1.258 1.967-.154-.186-.177-.428-.24-.656C.875 10.15.38 8.371.023 6.56c-.13-.664.3-1.08.947-.913 1.987.517 4.007.892 6.007 1.351.14.032.287.038.43.133Z"/><path fill="#FF5D5D" d="M66.384 30.4a18.857 18.857 0 0 1 1.463-3.74c.306-.594.748-.909 1.39-1.038 1.273-.257 2.554-.325 3.844-.285 1.654.053 3.289.274 4.883.739.918.268 1.8.618 2.64 1.074.161.087.305.2.428.331.165.173.242.372.172.621-.176.624-.465 1.202-.772 1.763-1.324 2.423-2.895 4.672-4.887 6.598-.98.947-2.135 1.624-3.486 1.917-2.9.629-5.44-1.076-5.964-3.998-.193-1.082-.098-2.15.118-3.216.051-.248.11-.495.171-.767Z"/><path fill="#080703" d="M102.601 103.125a3.276 3.276 0 0 1-.468 1.267c-1.391 2.282-3.262 4.082-5.525 5.488a3.664 3.664 0 0 1-1.382.523c-.875.135-1.36-.398-1.128-1.254a4.62 4.62 0 0 1 .691-1.442c1.254-1.787 2.816-3.258 4.598-4.504.44-.308.902-.58 1.399-.79.249-.106.502-.192.77-.23.72-.103 1.059.194 1.045.942Z"/><path fill="#000" fill-rule="evenodd" d="M97.754 14.98c.283.707-.158 1.478-.984 1.72l-5.88 1.726 5.39 4.69c.612.533.605 1.39-.018 1.916-.622.525-1.623.518-2.236-.015l-8.917-7.759 10.636-3.121c.826-.243 1.726.134 2.009.842ZM72.222 8.74c-.605.39-.723 1.153-.263 1.703l3.275 3.913-6.549 1.004c-.744.115-1.224.746-1.071 1.411.152.665.88 1.111 1.625.997l10.835-1.661-5.924-7.08c-.46-.55-1.323-.678-1.928-.287Z" clip-rule="evenodd"/><path fill="#FF3631" d="M40.153 19.782 38.055 5.276l7.173-.81-5.075 15.316ZM16.134 46.89l-12.1-3.529-2.521 9.58 14.622-6.05ZM17.647 53.445l-12.605 9.58 1.513 8.572 11.092-18.152Z"/></svg>