<svg viewBox="0 0 252 56" fill="none" xmlns="http://www.w3.org/2000/svg"><mask id="a" style="mask-type:alpha" maskUnits="userSpaceOnUse" x="0" y="0" width="252" height="56"><path fill="#D9D9D9" d="M0 0h252v56H0z"/></mask><g mask="url(#a)"><rect y="8" width="104" height="26" rx="13" fill="#fff"/><path d="M16.86 16.518v2.776h1.065v-3.72h1.413v10.014h-1.413v-5.096H16.86v2.904h-4.243v-6.878h4.243Zm-2.842 5.706h1.446v-4.53h-1.446v4.53Zm6.112 3.857V15.408h1.43V26.08h-1.43Zm12.314-2.47v1.22H22.69v-1.22h4.115v-2.187h-3.083v-5.225h7.637v5.225h-3.075v2.188h4.16Zm-7.247-3.36h4.687v-2.855h-4.687v2.855Zm16.276-4.844v3.966h1.574v1.222h-1.574v5.511h-1.496V15.407h1.496Zm-7.99 8.105v-7.11h5.002v1.206h-3.514v4.674c1.546-.013 2.826-.096 4.235-.34l.166 1.251c-1.653.282-3.108.324-4.993.32h-.895Zm12.357-6.998-.158 5.946h-1.495l-.158-5.946h1.81Zm-1.886 7.608a.975.975 0 0 1 .983-.978c.526 0 .982.439.986.978a.999.999 0 0 1-.986.982.976.976 0 0 1-.983-.982Zm15.083-8.714V26.08H57.6v-5.428h-.977v4.952h-1.389v-9.916h1.389v3.763h.977v-4.045h1.438Zm-9.327 7.441c2.171-1.268 3.108-2.83 3.306-4.922H50.25v-1.198h4.226c-.004 2.975-.89 5.412-3.903 7.156l-.862-1.036Zm19.106-7.023v.725c0 .655 0 1.517-.195 2.544h1.347v1.156h-4.16v1.011h2.962v2.855h-5.958v.726h6.24v1.156h-7.728v-2.897h5.967v-.683h-5.975v-1.157h3.012v-1.01h-4.114v-1.157h6.899c.165-.85.199-1.512.207-2.096h-5.913v-1.173h7.409Zm10.963-.418V26.08h-1.437v-5.428h-.978v4.952h-1.388v-9.916h1.388v3.763h.978v-4.045h1.437Zm-9.327 7.441c2.171-1.268 3.108-2.83 3.307-4.922H70.99v-1.198h4.226c-.004 2.975-.89 5.412-3.903 7.156l-.862-1.036Zm19.106-7.023v.725c0 .655 0 1.517-.195 2.544h1.347v1.156h-4.16v1.011h2.962v2.855h-5.958v.726h6.24v1.156h-7.728v-2.897h5.967v-.683h-5.975v-1.157h3.012v-1.01h-4.114v-1.157h6.899c.166-.85.199-1.512.207-2.096H82.15v-1.173h7.409Z" fill="#313239"/><path d="m73 43-4.572-9H54l19 9ZM93.057 52.025c.004-.375.023-.75.047-1.12.877-6.091 3.951-11.383 8.525-16.096 4.913-5.069 11.015-8.882 17.939-11.807.444-.186.761-.43.985-.799 1.03-1.681 2.054-3.367 3.12-5.035 2.089-3.278 4.043-6.629 6.844-9.548 2.351-2.452 4.962-4.653 8.372-6.063 2.823-1.168 5.741-1.615 8.739-.433 2.521.996 4.058 2.761 5.128 4.844 1.17 2.27 1.638 4.665 1.781 7.116.009.168-.094.436.227.456.337.02.239-.254.261-.421.034-.23.031-.459.059-.684.324-2.887 1.026-5.692 2.977-8.151 2.037-2.573 4.846-3.944 8.624-3.59 2.276.214 4.288 1.025 6.136 2.122 4.191 2.49 7.202 5.829 9.669 9.543 2.248 3.386 4.227 6.894 6.323 10.345.218.359.457.657.918.855a57.984 57.984 0 0 1 7.535 3.912c6.43 3.955 11.722 8.744 15.215 14.82 1.72 2.997 2.84 6.073 3.303 9.228.032.517.054 1.033.05 1.554-.17 19.98-27.79 35.944-61.694 35.656-33.903-.288-61.247-16.72-61.077-36.7l-.006-.004Z" fill="#fff"/><path d="M144.451 12.995c4.598 2.687 5.975 7.59 3.572 12.129-1.564 2.945-4.574 4.653-7.6 4.308-2.842-.336-5.15-2.675-6.017-5.996-1.682-6.494 5.098-12.69 10.045-10.44ZM166.011 12.22c5.298.525 8.575 4.388 8.257 9.487-.21 3.311-2.249 6.103-5.148 7.044-2.728.875-5.796-.284-7.956-2.928-4.211-5.175-.589-13.587 4.847-13.603Z" fill="#0E0E0E"/><path d="M142.652 20.476c-.663-1.409-.458-2.52.674-3.382.748-.558 1.578-.587 2.402-.128 1.038.58 1.525 1.473 1.519 2.63-.005.813-.3 1.521-1.092 1.86-1.299.546-2.395.019-3.485-.979h-.018ZM167.221 20.21c-1.338-1.135-1.645-2.369-.888-3.781.506-.92 1.343-1.337 2.401-1.251 1.335.109 2.251.797 2.786 1.986.374.836.402 1.7-.251 2.415-1.077 1.167-2.446 1.138-4.029.624l-.019.007Z" fill="#fff"/><path d="M155.623 39.19c-1.716 1.1-3.537 1.836-5.528 2.01-1.703.152-3.284-.254-4.508-1.545-.311-.33-.505-.724-.18-1.157.298-.397.75-.41 1.048.005.84 1.179 2.1 1.366 3.382 1.317 1.707-.067 3.379-.558 4.788-1.456 1.056-.674 1.933-.647 3.044-.366 1.576.397 3.188.402 4.733-.286.614-.272 1.106-.71 1.635-1.103.325-.241.718-.567 1.052-.241.361.348.036.786-.23 1.098-1.138 1.34-2.638 1.979-4.377 2.086-1.3.08-2.569-.125-3.793-.567-.402-.147-.737-.147-1.066.205ZM188.802 9.997a1 1 0 0 1 .919-.996l36.012-2.914a1 1 0 0 1 1.081.997v64.123a1 1 0 0 1-1 1h-36.012a1 1 0 0 1-1-1V9.997Z" fill="#0E0E0E"/><path fill-rule="evenodd" clip-rule="evenodd" d="m224.577 7.117-35.775 3.073v63.087h35.775V7.117Zm.001 0 8.944 3.073h-8.944V7.117Z" fill="#E0E1E9"/><path d="M188.802 9.91h2.515V75l-2.515-1.677V9.91Z" fill="#0E0E0E"/><rect width="65" height="46.024" rx="1" transform="matrix(0 1 1 0 189.802 10)" fill="#0E0E0E"/><rect x="193.804" y="27" width="12" height="38.02" rx="1" transform="rotate(-90 193.804 27)" fill="#fff"/><path d="M233.512 35.02c-8.114 0-14.694 3.685-14.694 8.224 0 1.904 1.154 3.657 3.096 5.047a.632.632 0 0 1 0 1.017c-1.942 1.396-3.096 3.15-3.096 5.048 0 1.899 1.154 3.657 3.096 5.047a.632.632 0 0 1 0 1.018c-1.942 1.395-3.096 3.148-3.096 5.047 0 4.545 6.58 8.223 14.694 8.223.59 0 1.17-.027 1.739-.065v-.01C244.534 73.378 252 64.83 252 54.313c0-10.517-7.673-19.314-17.142-19.314-.192 0-.373.01-.559.016-.264-.01-.523-.016-.793-.016l.006.021Z" fill="#fff"/></g></svg>