<svg width="197" height="196" viewBox="0 0 197 196" fill="none" xmlns="http://www.w3.org/2000/svg">
<mask id="mask0_4148_15988" style="mask-type:alpha" maskUnits="userSpaceOnUse" x="21" y="100" width="158" height="96">
<rect x="21" y="100" width="158" height="96" fill="#D9D9D9"/>
</mask>
<g mask="url(#mask0_4148_15988)">
<path d="M145.43 263.611C147.161 264.128 148.734 264.96 150.183 266.013C152.119 267.416 153.206 269.336 153.468 271.699C153.749 274.236 152.196 276.996 149.802 278.222C147.331 279.49 144.667 279.78 141.941 279.652C139.705 279.548 137.465 279.448 135.237 279.244C133.148 279.055 131.089 278.685 129.08 278.022C126.632 277.212 124.238 276.291 121.964 275.072C120.125 274.086 118.421 272.906 116.802 271.576C113.783 269.093 110.518 266.954 107.187 264.914C107.068 264.841 106.956 264.76 106.84 264.683C106.335 264.344 106.32 264.332 106.744 263.8C108.34 261.811 109.797 259.725 111.166 257.578C113.876 253.326 116.077 248.842 117.33 243.935C117.939 241.556 118.259 239.131 118.132 236.672C117.939 232.955 116.867 229.528 114.566 226.56C112.619 224.05 110.079 222.481 106.898 222.088C104.585 221.802 102.334 222.2 100.163 223.021C97.9889 223.846 96.0344 225.029 94.261 226.544C91.7051 228.726 89.8161 231.394 88.328 234.378C86.9864 237.073 86.0805 239.902 85.6217 242.878C85.267 245.168 85.2169 247.462 85.4367 249.771C85.6834 252.323 86.2501 254.802 86.971 257.25C87.0288 257.447 87.1021 257.62 86.89 257.759C86.8438 257.79 86.7937 257.813 86.7397 257.828C86.3889 257.886 86.0226 257.775 85.6795 257.917C85.6256 257.933 85.5716 257.944 85.5138 257.944C84.8083 257.983 84.1105 258.091 83.4204 258.253C80.2824 258.777 77.1867 259.494 74.1335 260.381C71.0648 261.275 67.9846 262.127 64.8465 262.74C64.673 262.775 64.5227 262.867 64.3569 262.929C60.6483 263.63 56.9242 263.842 53.1809 263.23C51.7854 262.902 50.3667 262.671 48.9827 262.3C46.342 261.591 43.8516 260.554 41.6156 258.958C40.6055 258.237 39.7497 257.377 39.2254 256.225C39.129 256.013 39.0442 255.805 39.0905 255.569C38.89 253.962 39.4297 252.909 40.8754 252.111C42.0512 251.464 43.3311 251.217 44.6534 251.124C44.9079 251.105 45.1816 251.159 45.4206 250.993C45.3589 250.751 45.1469 250.635 44.9927 250.477C43.6819 249.128 42.6333 247.62 42.1013 245.789C41.6079 244.089 41.712 242.435 42.456 240.824C42.5524 240.716 42.5524 240.534 42.7143 240.477C43.3542 240.75 43.8091 241.275 44.3489 241.683C47.0359 243.73 49.8424 245.592 52.7761 247.269C56.4886 249.39 60.4054 251.078 64.3492 252.705C65.4479 253.16 66.5389 253.626 67.653 254.047C68.2159 254.259 68.7749 254.27 69.3493 254.112C69.8119 253.985 70.1974 253.738 70.3979 253.31C70.9915 252.05 71.8281 250.951 72.6107 249.818C72.7803 249.575 72.9461 249.328 73.0348 249.039C73.6207 248.037 74.3301 247.123 75.0394 246.205C75.2283 246.067 75.3478 245.874 75.475 245.685C77.2908 242.944 79.1413 240.222 80.9262 237.458C81.0418 237.281 81.1459 237.1 81.2153 236.903C81.7859 235.958 82.3757 235.029 82.9463 234.085C84.2647 231.992 85.2786 229.756 86.1653 227.454C86.9633 225.384 87.2794 223.275 87.0867 221.051C86.8823 218.718 86.5546 216.413 86.1113 214.119C85.9571 213.317 85.8067 212.512 85.5947 211.721C85.5832 211.544 85.6217 211.363 85.5446 211.193C85.5215 211.151 85.4983 211.105 85.4791 211.058C85.4559 211.012 85.4405 210.966 85.4251 210.919C85.3904 210.746 85.3711 210.569 85.3017 210.403C85.1244 209.798 84.9779 209.189 84.9239 208.556C84.9663 208.163 84.8276 207.797 84.7543 207.423C84.5693 206.463 84.3418 205.511 84.1105 204.559C83.7597 203.144 82.8576 202.619 81.4428 202.936C79.0025 203.475 76.5506 203.953 74.1065 204.47C72.4835 204.813 70.8605 205.16 69.2298 205.476C67.6183 205.788 66.0185 206.162 64.4032 206.444C64.3492 206.467 64.2952 206.482 64.2374 206.498C63.7092 206.567 63.5627 206.498 63.4432 206.008C63.0539 204.404 62.6915 202.793 62.3869 201.17C62.2983 200.692 62.1017 200.237 62.0593 199.751C62.0477 198.976 61.8357 198.232 61.6776 197.481C61.2612 195.48 60.8796 193.475 60.4671 191.474C60.0931 189.682 59.7115 187.889 59.3067 186.1C58.8094 183.903 58.3005 181.709 57.8186 179.508C57.5758 178.402 57.329 177.291 57.0784 176.185C57.0283 175.996 57.0206 175.803 57.0476 175.607C57.0553 175.557 57.0669 175.506 57.0823 175.456C57.171 175.221 57.1209 174.967 57.1671 174.724C57.1748 174.674 57.1864 174.627 57.2018 174.581C57.2635 174.392 57.2404 174.192 57.2558 173.995C57.2596 173.918 57.2751 173.845 57.2943 173.768C57.3637 173.567 57.3406 173.359 57.3444 173.155C57.3444 172.804 57.4138 172.472 57.5526 172.152C57.649 172.006 57.6721 171.836 57.703 171.671C57.7145 171.624 57.73 171.578 57.7492 171.532C57.8418 171.358 57.888 171.177 57.8765 170.977C57.8996 170.468 58.0654 170.005 58.2967 169.562C58.4354 169.411 58.5125 169.234 58.5125 169.026C58.9944 167.642 59.6344 166.327 60.309 165.032C60.39 164.878 60.4941 164.735 60.5211 164.558C60.5866 164.365 60.6714 164.18 60.7871 164.01C61.0454 163.748 61.1841 163.405 61.4116 163.12C62.2173 162.002 62.9806 160.853 63.8596 159.789C64.0601 159.546 64.2567 159.303 64.515 159.118C64.6769 159.026 64.8002 158.895 64.8581 158.714C64.9544 158.509 65.1164 158.37 65.2937 158.243C65.6792 157.916 66.0724 157.603 66.3192 157.148C66.4194 156.944 66.5697 156.786 66.7779 156.686C67.1326 156.535 67.36 156.242 67.5875 155.949C67.9344 155.475 68.4202 155.155 68.8712 154.801C69.0524 154.739 69.1874 154.623 69.2837 154.454C69.9044 153.814 70.6407 153.316 71.3616 152.796C72.2213 152.171 73.1273 151.612 73.9523 150.942C74.943 150.321 75.9145 149.677 76.9631 149.153C77.8267 148.833 78.617 148.374 79.3726 147.85C80.267 147.433 80.7257 146.659 81.1228 145.803C81.516 144.951 81.9285 144.106 82.4181 143.301C82.7689 142.749 83.0118 142.14 83.3665 141.589C83.8946 140.845 84.311 140.035 84.7736 139.253C85.9417 137.279 87.1599 135.344 88.5863 133.543C88.7019 133.389 88.8022 133.224 88.9217 133.073C88.9679 133.019 89.0219 132.973 89.0874 132.938C89.3419 132.815 89.5424 132.638 89.6426 132.364C89.658 132.321 89.6811 132.279 89.7043 132.237C89.766 132.133 89.8392 132.04 89.951 131.982C90.4522 131.654 90.8338 131.2 91.2232 130.756C91.2502 130.718 91.2849 130.687 91.3196 130.656C91.4892 130.54 91.6434 130.409 91.759 130.236C91.786 130.197 91.8207 130.166 91.8593 130.139C92.025 130.058 92.1831 129.974 92.2872 129.812C92.318 129.773 92.3527 129.742 92.3913 129.715C92.7035 129.553 92.9965 129.361 93.224 129.087C93.2548 129.048 93.2857 129.018 93.3242 128.991C93.5517 128.89 93.7907 128.802 93.9256 128.563C94.1454 128.374 94.3998 128.235 94.6581 128.112C94.8894 128.058 95.1091 127.988 95.2595 127.788C95.4253 127.634 95.6219 127.533 95.8416 127.468C96.1385 127.433 96.4083 127.341 96.6358 127.14C96.7823 127.028 96.9596 127.021 97.1331 127.001C97.3952 126.944 97.6342 126.82 97.8964 126.766C97.9426 126.751 97.9928 126.739 98.0429 126.728C98.3243 126.705 98.5864 126.608 98.8525 126.523C98.9874 126.489 99.1262 126.485 99.265 126.481C100.19 126.4 101.112 126.381 102.025 126.589C102.079 126.589 102.133 126.604 102.183 126.616C102.349 126.674 102.519 126.708 102.692 126.731C102.738 126.743 102.785 126.758 102.827 126.774C102.993 126.863 103.166 126.913 103.351 126.951C103.598 127.032 103.822 127.167 104.057 127.271C104.199 127.352 104.35 127.422 104.496 127.491C104.762 127.645 105.024 127.803 105.252 128.015C105.53 128.301 105.815 128.578 106.092 128.86C106.142 128.91 106.185 128.967 106.227 129.025C106.358 129.253 106.563 129.419 106.736 129.611C106.833 129.723 106.902 129.85 106.971 129.977C107.083 130.197 107.179 130.421 107.341 130.61C107.954 131.631 108.182 132.776 108.394 133.925C108.494 134.469 108.594 135.008 108.695 135.625C109.042 135.317 109.088 134.97 109.165 134.638C109.408 133.601 109.678 132.572 110.171 131.62C110.661 130.772 111.17 129.943 111.883 129.253C113.116 128.058 114.543 127.36 116.285 127.186C118.598 126.955 120.657 127.603 122.627 128.705C123.949 129.492 125.129 130.463 126.224 131.539C126.374 131.685 126.528 131.824 126.621 132.017C127.029 132.641 127.523 133.197 128.009 133.756C128.04 133.79 128.07 133.829 128.097 133.871C128.252 134.141 128.437 134.392 128.656 134.615C128.687 134.654 128.714 134.692 128.741 134.735C129.25 135.602 129.836 136.423 130.368 137.279C130.418 137.36 130.461 137.445 130.503 137.53C130.619 137.784 130.746 138.031 130.912 138.258C130.962 138.343 131.008 138.428 131.054 138.517C131.937 140.259 132.797 142.013 133.622 143.783C133.687 143.925 133.764 144.06 133.803 144.214C134.181 145.344 134.724 146.404 135.183 147.499C135.326 147.838 135.476 148.174 135.599 148.517C135.865 149.272 136.34 149.858 137.014 150.282C138.317 151.096 139.62 151.913 140.869 152.815C142.569 154.041 144.196 155.356 145.738 156.786C146.741 157.715 147.658 158.714 148.61 159.689C148.892 159.978 149.108 160.321 149.405 160.595C149.775 160.942 149.809 160.942 150.187 160.533C150.357 160.263 150.642 160.09 150.812 159.816C151.228 159.357 151.641 158.899 152.057 158.44C153.441 157.006 154.505 155.321 155.766 153.787C156.895 152.414 158.028 151.042 159.193 149.7C160.257 148.474 161.29 147.221 162.47 146.103C163.857 144.789 165.426 143.771 167.261 143.204C168.935 142.688 170.6 142.676 172.223 143.42C172.948 143.752 173.568 144.222 174.116 144.797C174.224 144.912 174.316 145.039 174.451 145.124C174.513 145.171 174.567 145.228 174.613 145.29C174.713 145.475 174.864 145.622 174.987 145.787C176.101 147.403 176.706 149.222 177.057 151.127C177.724 154.766 177.308 158.363 176.498 161.929C175.654 165.641 174.37 169.207 172.913 172.719C172.315 174.157 171.706 175.587 171.055 177.002C170.346 178.452 169.686 179.924 168.981 181.378C168.896 181.551 168.784 181.705 168.723 181.887C168.106 183.213 167.42 184.5 166.726 185.784C165.974 186.979 165.365 188.255 164.621 189.454C164.27 190.133 163.846 190.765 163.468 191.428C163.271 191.671 163.129 191.945 162.99 192.222C162.975 192.268 162.955 192.307 162.928 192.346C162.805 192.511 162.697 192.685 162.635 192.885C162.288 193.467 161.922 194.038 161.556 194.608C160.214 196.609 158.846 198.587 157.396 200.511C155.97 202.404 154.505 204.269 152.951 206.062C151.475 207.766 149.991 209.462 148.383 211.047C148.306 211.12 148.24 211.201 148.213 211.305C147.623 212.037 146.895 212.643 146.259 213.329C145.445 214.212 144.59 215.041 143.645 215.781C143.506 215.889 143.375 216.001 143.213 216.07C142.616 216.498 142.612 216.525 142.92 217.172C144.532 220.573 145.634 224.135 146.189 227.859C146.394 229.22 146.506 230.592 146.556 231.972C146.644 234.509 146.502 237.022 146.012 239.513C145.896 240.103 146.093 240.484 146.463 240.912C147.886 242.543 148.98 244.378 149.698 246.429C149.987 247.242 150.195 248.075 150.368 248.919C150.407 249.124 150.334 249.343 150.465 249.528C150.488 249.887 150.557 250.238 150.592 250.592C150.592 251.286 150.592 251.976 150.592 252.67C150.488 254.32 150.118 255.916 149.539 257.458C148.826 259.367 147.728 261.036 146.359 262.532C146.135 262.778 145.893 263.006 145.627 263.206C145.511 263.295 145.268 263.368 145.465 263.6L145.43 263.611Z" fill="#00CD4A"/>
<path d="M110.093 146.207C112.128 146.215 114.086 146.566 115.933 147.475C116.346 147.68 116.581 147.953 116.534 148.412C116.28 151.003 116.099 153.601 115.386 156.122C114.792 158.22 114.032 160.247 112.652 161.975C111.773 163.073 110.709 163.879 109.241 164.006C107.914 164.122 106.812 163.613 105.84 162.776C104.545 161.666 103.735 160.22 103.103 158.667C102.078 156.138 101.7 153.482 101.658 150.772C101.65 150.247 101.723 149.727 101.739 149.203C101.75 148.879 101.951 148.717 102.186 148.543C104.537 146.805 107.224 146.199 110.093 146.207Z" fill="#FF5D5D"/>
<path d="M120.949 133.744C122.564 134.492 123.512 135.749 123.628 137.518C123.79 140.04 122.575 142.38 119.95 143.235C117.676 143.976 114.981 142.148 114.557 139.612C114.206 137.53 114.769 135.737 116.442 134.365C117.309 133.721 118.227 133.224 119.364 133.301C119.927 133.339 120.444 133.517 120.952 133.744H120.949Z" fill="black"/>
<path d="M94.1557 136.353C93.5505 136.18 92.9876 135.891 92.444 135.582C91.9082 135.278 91.7154 134.561 91.9699 134.025C92.2359 133.47 92.9529 133.219 93.6006 133.497C94.6762 133.959 95.7363 134.453 96.8042 134.935C98.5236 135.713 100.224 136.534 101.958 137.267C103.165 137.776 103.288 139.048 102.479 139.777C101.322 140.818 100.266 141.97 99.1519 143.061C98.6276 143.574 98.0725 144.052 97.5328 144.549C97.4865 144.588 97.4441 144.584 97.4017 144.542C97.3786 144.249 97.6176 144.117 97.7795 143.948C99.125 142.521 100.621 141.249 101.989 139.842C103.022 138.778 102.876 138.019 101.519 137.41C99.0286 136.292 96.542 135.162 94.0632 134.025C93.8704 133.936 93.6815 133.847 93.4772 133.797C92.8874 133.659 92.471 133.82 92.2783 134.264C92.1009 134.669 92.2821 135.077 92.791 135.393C93.1495 135.617 93.5505 135.752 93.9283 135.937C94.1172 136.029 94.3832 136.06 94.3832 136.365C94.3061 136.403 94.2328 136.403 94.1634 136.349L94.1557 136.353Z" fill="#009937"/>
<path d="M94.1553 136.353C94.2325 136.353 94.3095 136.346 94.3867 136.342C94.6257 136.203 94.8338 136.342 95.0266 136.438C96.5725 137.178 98.1454 137.853 99.6913 138.593C100.192 138.836 100.223 138.994 99.8494 139.407C99.0359 140.301 98.076 141.041 97.2394 141.909C96.5108 142.664 95.7591 143.397 95.015 144.137C94.7876 144.364 94.5948 144.615 94.564 144.943C94.51 145.525 95.1654 146.003 95.7012 145.771C96.1253 145.586 96.453 145.27 96.7807 144.95C96.958 144.777 97.0891 144.511 97.4091 144.538C97.4515 144.538 97.49 144.545 97.5324 144.549C97.1431 144.95 96.7691 145.367 96.3605 145.748C95.7475 146.319 95.0767 146.35 94.5948 145.872C94.0474 145.328 94.0435 144.646 94.6411 144.021C95.2194 143.416 95.8362 142.849 96.4337 142.263C97.4438 141.272 98.4499 140.274 99.4677 139.291C99.7337 139.037 99.7337 138.94 99.3675 138.778C97.7522 138.073 96.1562 137.325 94.5524 136.592C94.4136 136.527 94.2864 136.434 94.1515 136.353H94.1553Z" fill="#00A33B"/>
<path d="M57.7093 173.859C57.7093 173.928 57.7093 173.998 57.7054 174.063C57.5705 174.256 57.7324 174.499 57.6013 174.696C57.4548 174.962 57.6322 175.27 57.4972 175.536C57.3739 175.694 57.4972 175.895 57.4124 176.064C57.3623 176.095 57.3122 176.095 57.2621 176.064C57.2274 176.022 57.2004 175.975 57.185 175.921C57.077 175.482 57.3238 175.077 57.2929 174.645C57.2929 174.595 57.3006 174.545 57.3083 174.495C57.3854 174.318 57.4009 174.125 57.4047 173.932C57.4124 173.886 57.4278 173.84 57.4471 173.797C57.5474 173.601 57.4741 173.381 57.5127 173.177C57.5204 173.13 57.5396 173.084 57.5628 173.042C57.6437 172.88 57.5705 172.691 57.6514 172.529C58.1102 170.555 58.7424 168.643 59.5906 166.8C59.9105 166.103 60.2845 165.436 60.6392 164.757C60.7047 164.63 60.7702 164.495 60.9553 164.591C60.9977 164.78 60.8859 164.915 60.8011 165.069C60.111 166.33 59.5559 167.656 58.9815 168.971C58.9622 169.017 58.9737 169.075 58.9699 169.125C58.8774 169.291 58.8465 169.48 58.7617 169.649C58.5381 170.116 58.3377 170.59 58.3415 171.122C58.249 171.288 58.2181 171.477 58.1333 171.65C58.0023 171.808 58.1449 172.02 58.0292 172.178C57.8943 172.514 57.8056 172.857 57.8134 173.223C57.6784 173.42 57.8365 173.662 57.7131 173.859H57.7093Z" fill="#00CD4A"/>
<path d="M120.949 133.744C119.939 133.424 118.921 133.193 117.888 133.648C117.394 133.864 116.92 134.122 116.438 134.365C117.66 133.047 119.534 132.815 120.945 133.744H120.949Z" fill="#00AA3E"/>
<path d="M77.351 149.268C78.1027 148.748 78.92 148.347 79.7643 148.004C79.0125 148.524 78.253 149.037 77.351 149.268Z" fill="#00CD4A"/>
<path d="M65.6892 158.409C65.9051 157.9 66.3561 157.607 66.7417 157.256C66.5296 157.765 66.0747 158.058 65.6892 158.409Z" fill="#00CD4A"/>
<path d="M61.1865 164.092C61.1595 163.849 61.3947 163.695 61.3985 163.463C61.4563 163.386 61.518 163.305 61.5758 163.228C61.653 163.197 61.6876 163.07 61.8033 163.132C61.8033 163.17 61.8072 163.209 61.811 163.248C61.6028 163.529 61.5412 163.918 61.1903 164.088L61.1865 164.092Z" fill="#00CD4A"/>
<path d="M67.162 156.836C67.4049 156.551 67.6053 156.215 68.0024 156.1C67.7595 156.389 67.5591 156.724 67.162 156.836Z" fill="#00CD4A"/>
<path d="M57.4976 175.538C57.54 175.256 57.3897 174.956 57.6017 174.697C57.5593 174.979 57.6981 175.279 57.4976 175.538Z" fill="#28D466"/>
<path d="M57.3933 176.058C57.4203 175.884 57.3239 175.684 57.5012 175.537C57.5012 175.745 57.5012 175.953 57.5012 176.162C57.4704 176.2 57.4357 176.243 57.4048 176.281C57.3393 176.208 57.3316 176.135 57.3933 176.054V176.058Z" fill="#28D466"/>
<path d="M69.2634 154.947C69.356 154.781 69.4716 154.642 69.6798 154.631C69.5911 154.8 69.4755 154.939 69.2634 154.947Z" fill="#00CD4A"/>
<path d="M64.9528 159.248C64.9643 159.036 65.1031 158.925 65.2689 158.832C65.2612 159.044 65.1224 159.16 64.9528 159.248Z" fill="#00CD4A"/>
<path d="M58.7578 169.653C58.7539 169.449 58.804 169.268 58.9659 169.129C58.9737 169.333 58.9274 169.518 58.7578 169.653Z" fill="#28D466"/>
<path d="M58.1295 171.651C58.1218 171.443 58.1719 171.262 58.3377 171.123C58.3454 171.331 58.2915 171.512 58.1295 171.651Z" fill="#28D466"/>
<path d="M57.7097 173.861C57.7367 173.649 57.6249 173.414 57.8099 173.225C57.7829 173.437 57.887 173.672 57.7097 173.861Z" fill="#28D466"/>
<path d="M57.6015 174.697C57.6324 174.485 57.5167 174.249 57.7056 174.064C57.6786 174.276 57.7866 174.508 57.6015 174.697Z" fill="#28D466"/>
<path d="M58.0254 172.182C58.0447 172.001 57.9521 171.801 58.1295 171.65C58.1063 171.828 58.1911 172.028 58.0254 172.182Z" fill="#28D466"/>
<path d="M36.2553 192.67C36.159 192.519 36.0664 192.369 35.9701 192.219C35.3956 190.573 34.8212 188.927 34.401 187.23C33.8459 184.971 33.4719 182.685 33.3139 180.364C33.179 178.337 33.1481 176.316 33.5452 174.312C33.6454 173.803 33.8073 173.302 33.9423 172.801C34.0039 172.766 34.0579 172.774 34.1042 172.824C34.2044 172.986 34.189 173.163 34.1389 173.329C33.7842 174.501 33.6994 175.719 33.5413 176.922C33.4334 177.712 33.4411 178.506 33.5413 179.296C33.5837 179.508 33.5915 179.721 33.5915 179.936C33.5876 180.291 33.5413 180.646 33.6454 180.997C33.711 181.401 33.6763 181.814 33.7726 182.215C33.7919 182.411 33.7804 182.612 33.8497 182.805C34.2545 185.989 35.0795 189.061 36.2399 192.053C36.3132 192.246 36.4404 192.427 36.398 192.651C36.3556 192.705 36.3055 192.712 36.2476 192.674L36.2553 192.67Z" fill="#00CE4B"/>
<path d="M34.0659 172.807C34.0235 172.807 33.9849 172.803 33.9425 172.799C34.0543 171.943 34.3087 171.145 34.887 170.479C34.9063 170.498 34.9256 170.517 34.9448 170.536C34.9603 170.586 34.9834 170.644 34.9603 170.687C34.5632 171.354 34.4051 172.117 34.0659 172.807Z" fill="#2DD469"/>
<path d="M35.2337 169.885C35.7503 169.496 36.0664 168.875 36.6871 168.598C36.7411 168.686 36.7141 168.775 36.6524 168.833C36.2052 169.276 35.8583 169.824 35.2646 170.101C35.2453 170.086 35.2222 170.074 35.2029 170.059C35.2144 170.001 35.2222 169.943 35.2337 169.885Z" fill="#2DD469"/>
<path d="M34.8867 170.479C34.9291 170.294 35.0525 170.163 35.2028 170.059C35.2183 170.07 35.2337 170.086 35.2491 170.097C35.3108 170.363 35.1759 170.479 34.933 170.517C34.9176 170.506 34.9021 170.494 34.8867 170.479Z" fill="#2DD469"/>
<path d="M28.3872 154.426C28.4258 154.183 28.1791 154.141 28.0788 153.998C27.2654 153.274 26.6332 152.387 25.9932 151.52C24.3471 149.287 22.9785 146.905 22.1381 144.241C21.5213 142.29 21.1589 140.313 21.4365 138.258C21.6832 136.45 22.4773 134.9 23.6956 133.562C24.428 132.757 25.2916 132.101 26.1551 131.45C26.3248 131.323 26.5214 131.261 26.718 131.199C30.6849 128.69 35.1568 127.502 39.6095 126.269C42.0459 125.594 44.5402 125.22 47.0306 124.807C47.3351 124.757 47.6628 124.881 47.9481 124.688C48.3914 124.445 48.8926 124.491 49.3668 124.445C50.743 124.31 52.1193 124.141 53.5072 124.09C54.1664 123.994 54.8372 124.117 55.4964 124.021C55.8588 123.982 56.225 124.009 56.5912 124.006C57.4201 124.094 58.2605 124.048 59.0817 124.214C61.1711 124.634 63.2143 125.17 64.9993 126.407C65.5158 126.562 65.8898 126.939 66.2791 127.275C67.3162 128.177 68.2954 129.133 68.9469 130.374C69.4635 131.334 69.8259 132.348 70.0456 133.416C70.0572 133.524 70.0803 133.628 70.1034 133.732C70.1266 133.952 70.0803 134.175 70.1612 134.391C70.1844 134.476 70.2075 134.561 70.2114 134.646C70.2191 135.22 70.2191 135.795 70.2114 136.369C70.2114 136.458 70.1844 136.542 70.1612 136.623C70.0803 136.839 70.1266 137.067 70.0996 137.29C69.7333 139.349 69.0972 141.323 68.28 143.243C67.7865 144.496 67.1812 145.694 66.5105 146.863C65.936 147.769 65.4002 148.698 64.7988 149.584C64.6215 149.846 64.4364 150.101 64.2436 150.348C64.2012 150.409 64.155 150.471 64.1126 150.533C63.1719 151.947 62.1426 153.301 61.0246 154.584C59.552 156.408 57.9251 158.085 56.1441 159.611C56.0901 159.658 56.1672 159.619 56.1055 159.646C55.1494 160.078 55.2381 160.818 55.4501 161.659C55.9937 163.841 56.4293 166.049 56.865 168.255C57.0654 169.261 57.0076 170.225 56.279 171.042C56.1865 171.146 56.1402 171.285 56.0747 171.408C55.8703 171.678 55.6043 171.871 55.2998 172.009C54.4748 172.38 53.6344 172.707 52.7708 172.969C52.6359 173.008 52.501 173.039 52.3622 173.004C52.1 172.908 52.0384 172.653 51.9188 172.445C50.6004 170.151 48.8078 168.378 46.3212 167.368C45.4654 167.021 44.5594 166.948 43.6573 166.855C43.4839 166.836 43.3065 166.855 43.1408 166.794C43.0637 166.755 43.0097 166.701 42.9827 166.616C42.7668 165.575 42.5432 164.538 42.335 163.497C42.2579 163.112 42.042 162.9 41.6642 162.788C38.0096 161.682 34.7636 159.812 31.7643 157.476C31.5754 157.352 31.4366 157.167 31.24 157.052C31.001 156.913 30.8545 156.658 30.6039 156.535C30.5654 156.5 30.5307 156.47 30.4921 156.435C30.203 156.2 29.9833 155.887 29.6594 155.691C29.2007 155.309 28.7843 154.885 28.3949 154.434L28.3872 154.426Z" fill="#CECDCD"/>
<path d="M42.9714 166.611C43.0099 166.654 43.0485 166.696 43.087 166.739C43.033 167.039 42.7825 167.055 42.5666 167.059C40.9166 167.078 39.3476 167.448 37.8325 168.08C37.7053 168.134 37.5704 168.188 37.4354 168.08C37.9019 167.594 38.5341 167.436 39.1355 167.236C40.2882 166.858 41.491 166.773 42.6899 166.681C42.8017 166.727 42.8827 166.65 42.9714 166.611Z" fill="#2DD469"/>
<path d="M61.7995 163.135C61.7224 163.166 61.6491 163.196 61.572 163.231C62.1426 162.125 62.8943 161.146 63.6846 160.193C63.7232 160.193 63.7617 160.197 63.8041 160.201C63.2914 160.934 62.7787 161.662 62.2737 162.395C62.1079 162.638 61.9575 162.888 61.7995 163.135Z" fill="#00CD4A"/>
<path d="M38.488 196.432C37.7979 195.368 37.0732 194.323 36.5759 193.144C36.5103 192.986 36.4448 192.824 36.3792 192.662C35.3499 190.403 34.71 188.024 34.1857 185.611C33.9852 184.682 33.7616 183.749 33.7501 182.785C33.6305 182.623 33.7693 182.415 33.6498 182.253C33.4995 181.844 33.5612 181.42 33.5419 181C33.4031 180.657 33.5804 180.283 33.4455 179.94C33.4455 179.732 33.4416 179.527 33.4378 179.319C33.3568 178.514 33.3568 177.708 33.4378 176.906C33.4956 175.692 33.6575 174.493 33.9891 173.317C34.0353 173.147 34.0816 172.981 34.07 172.804C34.1433 171.96 34.5558 171.243 34.9374 170.514C35.0724 170.395 35.2111 170.283 35.2536 170.094C35.7316 169.593 36.279 169.157 36.6915 168.594C36.8496 168.517 36.9691 168.378 37.1194 168.29C37.2621 168.27 37.3623 168.193 37.4394 168.078C38.4803 167.65 39.5366 167.26 40.6546 167.087C41.2367 166.998 41.815 166.89 42.4125 166.917C42.6554 166.929 42.9021 166.929 43.091 166.728C45.3385 166.636 47.3008 167.376 49.0279 168.787C50.3733 169.882 51.4489 171.193 52.2238 172.75C52.2546 172.808 52.3086 172.854 52.351 172.908C52.6517 173.178 52.7481 173.564 52.8868 173.918C54.1089 177.068 54.8337 180.325 55.1498 183.691C55.2809 185.083 55.385 186.478 55.3888 187.87C55.4004 190.75 55.1112 193.595 53.7311 196.212C53.3456 196.945 52.8444 197.596 52.2893 198.202C52.085 198.425 51.8652 198.68 51.5029 198.653C51.2214 198.664 51.021 198.857 50.8128 199.003C49.1667 200.164 47.3278 200.657 45.3347 200.522C44.0779 200.434 42.879 200.06 41.7533 199.481C41.3562 199.181 40.9668 198.869 40.562 198.579C39.7293 197.993 39.1858 197.138 38.488 196.428V196.432Z" fill="#00CE4B"/>
<path d="M37.1157 168.289C37.0231 168.463 36.9152 168.609 36.6877 168.594C36.7764 168.42 36.9036 168.289 37.1157 168.289Z" fill="#2DD469"/>
<path d="M119.368 137.059C119.364 135.995 120.004 135.174 120.848 135.162C121.827 135.151 122.529 135.883 122.525 136.916C122.525 138.054 122.001 138.667 121.041 138.674C119.935 138.682 119.372 138.138 119.368 137.059Z" fill="#FEFEFE"/>
<path d="M56.0211 171.33C56.0211 172.544 56.4528 173.678 56.6996 174.846C56.9039 175.825 57.0812 176.816 57.4937 177.741C57.8253 178.077 57.806 178.539 57.8985 178.948C58.4999 181.704 59.163 184.445 59.749 187.202C60.0574 188.643 60.3504 190.093 60.6626 191.535C61.2255 194.102 61.7074 196.685 62.2509 199.257C62.2818 199.411 62.3589 199.557 62.2317 199.704C62.2317 199.812 62.2239 199.916 62.2201 200.024C59.9302 200.656 57.6017 201.146 55.2925 201.701C54.4829 201.893 53.6849 202.136 52.8676 202.302C52.4589 202.383 52.2855 202.556 52.3394 202.961C52.1313 201.866 51.9231 200.772 51.7149 199.677C51.6571 199.376 51.5877 199.079 51.5222 198.778C51.5144 198.74 51.5067 198.698 51.499 198.659C53.1644 197.414 53.9971 195.648 54.5484 193.721C55.011 192.101 55.1807 190.444 55.2038 188.755C55.2539 185.112 54.9031 181.515 54.0203 177.98C53.6348 176.438 53.1644 174.919 52.5206 173.462C52.4435 173.288 52.4011 173.1 52.3433 172.918C53.6348 172.544 54.9455 172.224 56.0172 171.338L56.0211 171.33Z" fill="#9F613E"/>
<path d="M97.4095 144.541C97.0394 144.885 96.6809 145.247 96.2915 145.567C95.6207 146.118 95.1196 146.13 94.6724 145.644C94.2483 145.181 94.3216 144.63 94.9268 144.04C96.4611 142.529 98.0032 141.033 99.5414 139.526C100.135 138.948 100.135 138.936 99.4065 138.601C97.8336 137.876 96.2607 137.159 94.6839 136.438C94.5914 136.396 94.4873 136.372 94.3871 136.342C93.8705 135.972 93.2421 135.833 92.7024 135.509C91.9083 135.035 91.835 134.086 92.5829 133.697C93.0185 133.47 93.4696 133.604 93.8936 133.801C95.0849 134.345 96.2761 134.892 97.4673 135.432C98.8667 136.068 100.27 136.696 101.666 137.332C101.824 137.406 101.974 137.494 102.12 137.591C102.961 138.134 103.084 138.871 102.39 139.599C101.658 140.37 100.871 141.091 100.108 141.839C99.1983 142.73 98.2576 143.593 97.4056 144.541H97.4095Z" fill="black"/>
<path d="M33.4335 176.906C33.4335 177.712 33.4335 178.518 33.4335 179.32C33.2639 178.514 33.2639 177.708 33.4335 176.906Z" fill="#2BD669"/>
<path d="M33.4411 179.939C33.6377 180.279 33.4989 180.649 33.5374 181C33.3254 180.66 33.4758 180.29 33.4411 179.939Z" fill="#2BD669"/>
<path d="M33.6498 182.252C33.8079 182.406 33.7308 182.603 33.7501 182.784C33.5766 182.634 33.6691 182.429 33.6498 182.252Z" fill="#2BD669"/>
<path d="M57.7019 137.086C57.9371 138.185 57.5824 139.207 57.1853 140.182C56.1599 142.699 54.799 145.036 53.0604 147.137C53.0257 147.175 53.0025 147.225 52.9755 147.268C52.0696 148.282 51.1521 149.276 50.0341 150.067C48.9624 150.822 47.7981 151.296 46.4874 151.493C44.2283 151.828 42.2391 151.088 40.3693 149.986C38.1179 148.659 36.3176 146.867 35.1958 144.461C34.8488 143.721 34.5134 142.969 34.4903 142.125C34.4055 141.809 34.4093 141.497 34.4903 141.18C34.5018 140.483 34.9375 139.993 35.4155 139.611C36.3986 138.829 37.5281 138.289 38.727 137.888C40.0455 137.453 41.3639 137.021 42.7094 136.685C43.7117 136.435 44.7256 136.261 45.7472 136.119C45.8127 136.111 45.8744 136.061 45.9361 136.03C46.1674 135.895 46.4411 136.065 46.6724 135.926C46.9886 135.891 47.3008 135.857 47.6169 135.822C47.8444 135.675 48.122 135.86 48.3494 135.71C48.5614 135.675 48.7696 135.641 48.9816 135.606C49.1744 135.479 49.4173 135.641 49.61 135.502C49.7874 135.467 49.9608 135.433 50.1382 135.398C50.3348 135.271 50.5777 135.417 50.7781 135.301C51.3371 135.228 51.8923 135.155 52.4512 135.082C52.9062 135.001 53.3611 134.997 53.816 135.082C53.974 135.209 54.1822 135.062 54.3441 135.186C54.5176 135.224 54.6949 135.259 54.8684 135.298C55.7358 135.336 56.4798 135.687 57.1661 136.188C57.4513 136.423 57.6518 136.709 57.7019 137.083V137.086Z" fill="#FEFEFE"/>
<path d="M34.4899 141.18C34.4899 141.496 34.4899 141.808 34.4899 142.124C34.3242 141.808 34.3242 141.496 34.4899 141.18Z" fill="#333333"/>
<path d="M141.389 134C142.589 123.2 152.555 117.5 157.389 116L153.889 109H160.889V100L167.389 107.5L179.889 105L172.889 114.5L179.889 124.5L167.389 121L164.889 128.5L160.889 121C152.489 121 144.389 129.667 141.389 134Z" fill="#FD349F"/>
</g>
<rect width="197" height="88" rx="20" fill="#EDEEF4"/>
<path d="M32.6125 25.3812V39.2707H31.4302V31.9116H29.4855V38.5635H28.3142V25.6796H29.4855V30.884H31.4302V25.3812H32.6125ZM21.2203 35.5249V27.0055H26.5462V35.5249H21.2203ZM22.3805 34.5414H25.386V27.9889H22.3805V34.5414ZM38.4738 25.8895C40.5511 25.9006 42.065 27.1602 42.076 28.9724C42.065 30.7845 40.5511 32.0331 38.4738 32.0331C36.3744 32.0331 34.8605 30.7845 34.8605 28.9724C34.8605 27.1602 36.3744 25.9006 38.4738 25.8895ZM36.065 28.9724C36.0539 30.1878 37.0815 31.0276 38.4738 31.0276C39.855 31.0276 40.8826 30.1878 40.8826 28.9724C40.8826 27.768 39.855 26.9171 38.4738 26.9282C37.0815 26.9171 36.0539 27.768 36.065 28.9724ZM36.971 34.1768V33.1823H46.0097V36.5304H38.2086V38.0884H46.5069V39.0829H37.0152V35.6022H44.7942V34.1768H36.971ZM44.7832 32.5083V25.3812H46.0097V32.5083H44.7832ZM63.2457 34.1547V39.0829H54.4722V34.1547H63.2457ZM52.9805 32.5193V26.0994H54.185V28.221H58.2292V26.0994H59.4446V32.5193H52.9805ZM54.185 31.5028H58.2292V29.1934H54.185V31.5028ZM55.6767 38.0773H62.0303V35.1492H55.6767V38.0773ZM62.0192 33.3923V25.3812H63.2457V28.6961H65.3341V29.7348H63.2457V33.3923H62.0192ZM74.6696 26.6851V38H73.2552V28.1547H73.1889L70.4375 29.9779V28.5635L73.2552 26.6851H74.6696ZM77.5758 38L77.5648 36.9724L81.4211 32.9061C82.7582 31.4807 83.399 30.7182 83.4101 29.6796C83.399 28.5083 82.4267 27.7569 81.1559 27.7569C79.8079 27.7569 78.9571 28.6077 78.9571 29.8785H77.62C77.609 27.8785 79.1559 26.5304 81.2001 26.5304C83.2554 26.5304 84.714 27.9116 84.725 29.6796C84.714 30.9392 84.1283 31.9227 82.1173 33.989L79.5316 36.663V36.7514H84.9239V38H77.5758ZM91.3543 29.116C91.3433 31.6464 93.067 34.1989 95.1112 35.1271L94.3598 36.0994C92.7797 35.326 91.4151 33.6796 90.7521 31.7017C90.1112 33.7956 88.7411 35.558 87.1112 36.3757L86.3378 35.3481C88.404 34.3978 90.1168 31.7459 90.1278 29.116V26.5856H91.3543V29.116ZM96.6361 39.2928V25.3812H97.8626V39.2928H96.6361ZM111.485 26.7514V35.779H105.065V26.7514H111.485ZM106.281 34.7735H110.292V27.7348H106.281V34.7735ZM114.48 39.2928V25.3812H115.706V39.2928H114.48ZM122.838 27.9558C122.838 29.9889 124.231 31.9116 126.242 32.6961L125.557 33.6575C124.032 33.0276 122.838 31.7569 122.247 30.1878C121.656 31.884 120.407 33.232 118.783 33.9006L118.12 32.9171C120.186 32.1215 121.623 30.1326 121.634 27.9558V26.1657H122.838V27.9558ZM120.617 38.9613V34.6851H121.855V37.9448H129.921V38.9613H120.617ZM125.512 31.3149V30.3094H128.374V28.4641H125.512V27.4475H128.374V25.3923H129.601V35.768H128.374V31.3149H125.512ZM148.649 36.4862V37.5138H135.931V36.4862H141.666V33.3039H142.87V36.4862H148.649ZM136.638 32.8287C139.317 32.3978 141.638 30.779 141.654 28.6077H137.113V27.5912H141.666V25.6796H142.87V27.5912H147.422V28.6077H142.892C142.898 30.779 145.218 32.3978 147.887 32.8287L147.411 33.7901C145.19 33.4033 143.152 32.2762 142.268 30.5359C141.389 32.2762 139.351 33.4033 137.124 33.7901L136.638 32.8287ZM161.24 25.3812V39.2707H160.013V25.3812H161.24ZM149.936 35.6575C153.693 33.8785 155.61 31.2044 155.88 27.8895H150.577V26.895H157.129C157.118 30.884 155.262 34.4199 150.599 36.663L149.936 35.6575ZM174.36 25.3812V31.2928H176.581V32.3315H174.36V39.2707H173.134V25.3812H174.36ZM163.41 35.5691C164.543 35.5635 165.869 35.558 167.244 35.5193V33.989C165.626 33.7956 164.57 32.8508 164.581 31.4696C164.57 29.9006 165.896 28.884 167.863 28.884C169.808 28.884 171.156 29.9006 171.167 31.4696C171.156 32.8508 170.084 33.8011 168.471 33.989V35.4696C169.764 35.4088 171.073 35.3039 172.283 35.1271L172.372 36.0552C169.333 36.5746 166.051 36.6077 163.62 36.6077L163.41 35.5691ZM163.664 28.0773V27.0829H167.244V25.4033H168.471V27.0829H172.04V28.0773H163.664ZM165.731 31.4696C165.731 32.4309 166.581 33.0608 167.863 33.0497C169.134 33.0608 169.985 32.4309 169.985 31.4696C169.985 30.4972 169.134 29.8453 167.863 29.8453C166.581 29.8453 165.731 30.4972 165.731 31.4696ZM36.6255 60.4972V61.547H23.9073V60.4972H29.6089V57.3039H25.0565V56.3094H27.2333V51.7459H25.0344V50.7293H35.41V51.7459H33.2001V56.3094H35.3769V57.3039H30.8134V60.4972H36.6255ZM28.4487 56.3094H31.9957V51.7459H28.4487V56.3094ZM49.205 49.3923V59.547H47.9785V49.3923H49.205ZM38.0559 53.768C38.0559 51.768 39.6249 50.3646 41.7023 50.3646C43.7796 50.3646 45.3376 51.768 45.3376 53.768C45.3376 55.7901 43.7796 57.1934 41.7023 57.1823C39.6249 57.1934 38.0559 55.7901 38.0559 53.768ZM39.2603 53.768C39.2492 55.1492 40.2989 56.1105 41.7023 56.1105C43.0835 56.1105 44.1443 55.1492 44.1443 53.768C44.1443 52.4088 43.0835 51.4365 41.7023 51.4365C40.2989 51.4365 39.2492 52.4088 39.2603 53.768ZM40.2326 62.9613V58.5083H41.4592V61.9448H49.636V62.9613H40.2326ZM62.8122 56.884V57.8895H53.2099V50.5856H62.6575V51.6022H54.4475V53.6685H62.3591V54.663H54.4475V56.884H62.8122ZM51.5635 61.4586V60.4309H64.2818V61.4586H51.5635ZM78.0878 55.8343V56.7956H65.3696V55.8343H78.0878ZM66.9055 58.8287V57.9116H76.4966V60.8619H68.1541V62.1878H76.9497V63.0829H66.9276V60.011H75.2812V58.8287H66.9055ZM66.9828 50.6851V49.8011H76.4524V52.674H68.2425V53.8895H76.6955V54.7845H67.027V51.8343H75.2259V50.6851H66.9828ZM94.7271 57.8674V58.8398H84.4177V57.8674H88.9592V56.5856H90.1746V57.8674H94.7271ZM83.2133 56.0442V55.0497H88.9923V53.6354H84.9813V49.5912H86.1967V52.6519H94.484V53.6354H90.2078V55.0497H95.9315V56.0442H83.2133ZM85.368 61.3702C85.368 60.1326 86.8708 59.4807 89.5559 59.4807C92.2409 59.4807 93.7658 60.1326 93.7658 61.3702C93.7658 62.5967 92.2409 63.2376 89.5559 63.2376C86.8708 63.2376 85.368 62.5967 85.368 61.3702ZM86.6387 61.3702C86.6277 62.0331 87.6995 62.3536 89.5559 62.3536C91.4122 62.3536 92.4951 62.0331 92.4951 61.3702C92.4951 60.6961 91.4122 60.3646 89.5559 60.3646C87.6995 60.3646 86.6277 60.6961 86.6387 61.3702ZM108.511 49.3812V63.2707H107.285V49.3812H108.511ZM97.3398 59.6243C99.4061 58.6851 100.986 56.3425 100.986 53.9006V52.7956H97.7155V51.8011H100.975V49.6354H102.191V51.8011H105.417V52.7956H102.191V53.9006C102.191 56.232 103.815 58.4862 105.903 59.3702L105.218 60.3315C103.616 59.6188 102.257 58.1105 101.61 56.2762C100.981 58.221 99.6381 59.8177 98.0359 60.5746L97.3398 59.6243ZM115.864 53.6464C115.864 56 117.577 58.3978 119.621 59.2818L118.936 60.2541C117.312 59.5138 115.914 57.9171 115.262 56C114.61 58.0331 113.207 59.8011 111.621 60.5967L110.892 59.6243C112.881 58.674 114.615 56.0442 114.626 53.6464V51.8343H111.345V50.8066H119.168V51.8343H115.864V53.6464ZM121.113 63.2707V49.3812H122.339V63.2707H121.113ZM135.719 50.7845V59.7348H129.31V50.7845H135.719ZM130.503 58.7293H134.492V51.768H130.503V58.7293ZM138.26 63.2707V49.3812H139.487V54.9282H141.807V55.9779H139.487V63.2707H138.26ZM146.685 53.326C146.685 55.5359 147.768 57.9227 149.613 59.0166L148.906 59.9669C147.564 59.1602 146.608 57.674 146.116 55.989C145.608 57.8287 144.58 59.4199 143.193 60.2652L142.409 59.3481C144.331 58.221 145.503 55.7569 145.503 53.3812V50.6851H146.685V53.326ZM148.077 55.4033V54.3646H150.431V49.6796H151.591V62.5635H150.431V55.4033H148.077ZM153.282 63.2707V49.3812H154.464V63.2707H153.282ZM169.11 60.453V61.4807H156.392V60.453H159.541V56.7072C158.359 56.0884 157.64 55.0884 157.64 53.8343C157.64 51.6796 159.751 50.2652 162.712 50.2541C165.684 50.2652 167.795 51.6796 167.795 53.8343C167.795 55.0718 167.099 56.0552 165.95 56.674V60.453H169.11ZM158.823 53.8343C158.823 55.3812 160.436 56.4199 162.712 56.4199C164.977 56.4199 166.613 55.3812 166.613 53.8343C166.613 52.2762 164.977 51.2486 162.712 51.2597C160.436 51.2486 158.823 52.2762 158.823 53.8343ZM160.745 60.453H164.712V57.1547C164.11 57.3094 163.436 57.3923 162.712 57.3923C161.999 57.3923 161.342 57.3094 160.745 57.1602V60.453ZM172.419 50.6851L172.308 58.8066H170.993L170.883 50.6851H172.419ZM170.651 61.0829C170.64 60.5304 171.104 60.0773 171.656 60.0773C172.209 60.0773 172.662 60.5304 172.662 61.0829C172.662 61.6354 172.209 62.0884 171.656 62.0884C171.104 62.0884 170.64 61.6354 170.651 61.0829Z" fill="#313239"/>
<path d="M98.5 100L113.222 85H83.7776L98.5 100Z" fill="#EDEEF4"/>
</svg>
