<svg width="282" height="196" viewBox="0 0 282 196" fill="none" xmlns="http://www.w3.org/2000/svg">
<mask id="mask0_4051_16307" style="mask-type:alpha" maskUnits="userSpaceOnUse" x="63" y="100" width="159" height="96">
<rect x="63.5" y="100" width="158" height="96" fill="#D9D9D9"/>
</mask>
<g mask="url(#mask0_4051_16307)">
<path d="M187.93 263.611C189.661 264.128 191.234 264.96 192.683 266.013C194.619 267.416 195.706 269.336 195.968 271.699C196.249 274.236 194.696 276.996 192.302 278.222C189.83 279.49 187.167 279.78 184.441 279.652C182.205 279.548 179.965 279.448 177.737 279.244C175.647 279.055 173.589 278.685 171.58 278.022C169.132 277.212 166.738 276.291 164.464 275.072C162.625 274.086 160.921 272.906 159.302 271.576C156.283 269.093 153.018 266.954 149.687 264.914C149.568 264.841 149.456 264.76 149.34 264.683C148.835 264.344 148.82 264.332 149.244 263.8C150.84 261.811 152.297 259.725 153.666 257.578C156.376 253.326 158.577 248.842 159.83 243.935C160.439 241.556 160.759 239.131 160.632 236.672C160.439 232.955 159.367 229.528 157.066 226.56C155.119 224.05 152.578 222.481 149.398 222.088C147.085 221.802 144.834 222.2 142.663 223.021C140.489 223.846 138.534 225.029 136.761 226.544C134.205 228.726 132.316 231.394 130.828 234.378C129.486 237.073 128.58 239.902 128.122 242.878C127.767 245.168 127.717 247.462 127.937 249.771C128.183 252.323 128.75 254.802 129.471 257.25C129.529 257.447 129.602 257.62 129.39 257.759C129.344 257.79 129.294 257.813 129.24 257.828C128.889 257.886 128.523 257.775 128.179 257.917C128.125 257.933 128.072 257.944 128.014 257.944C127.308 257.983 126.61 258.091 125.92 258.253C122.782 258.777 119.687 259.494 116.633 260.381C113.565 261.275 110.485 262.127 107.346 262.74C107.173 262.775 107.023 262.867 106.857 262.929C103.148 263.63 99.4242 263.842 95.6809 263.23C94.2853 262.902 92.8666 262.671 91.4826 262.3C88.8419 261.591 86.3515 260.554 84.1155 258.958C83.1055 258.237 82.2497 257.377 81.7254 256.225C81.629 256.013 81.5442 255.805 81.5904 255.569C81.39 253.962 81.9297 252.909 83.3753 252.111C84.5512 251.464 85.8311 251.217 87.1534 251.124C87.4078 251.105 87.6815 251.159 87.9205 250.993C87.8588 250.751 87.6468 250.635 87.4926 250.477C86.1819 249.128 85.1333 247.62 84.6013 245.789C84.1078 244.089 84.2119 242.435 84.9559 240.824C85.0523 240.716 85.0523 240.534 85.2142 240.477C85.8542 240.75 86.3091 241.275 86.8488 241.683C89.5358 243.73 92.3423 245.592 95.2761 247.269C98.9886 249.39 102.905 251.078 106.849 252.705C107.948 253.16 109.039 253.626 110.153 254.047C110.716 254.259 111.275 254.27 111.849 254.112C112.312 253.985 112.697 253.738 112.898 253.31C113.491 252.05 114.328 250.951 115.111 249.818C115.28 249.575 115.446 249.328 115.535 249.039C116.121 248.037 116.83 247.123 117.539 246.205C117.728 246.067 117.848 245.874 117.975 245.685C119.791 242.944 121.641 240.222 123.426 237.458C123.542 237.281 123.646 237.1 123.715 236.903C124.286 235.958 124.876 235.029 125.446 234.085C126.765 231.992 127.779 229.756 128.665 227.454C129.463 225.384 129.779 223.275 129.587 221.051C129.382 218.718 129.055 216.413 128.611 214.119C128.457 213.317 128.307 212.512 128.095 211.721C128.083 211.544 128.122 211.363 128.045 211.193C128.021 211.151 127.998 211.105 127.979 211.058C127.956 211.012 127.94 210.966 127.925 210.919C127.89 210.746 127.871 210.569 127.802 210.403C127.624 209.798 127.478 209.189 127.424 208.556C127.466 208.163 127.327 207.797 127.254 207.423C127.069 206.463 126.842 205.511 126.61 204.559C126.26 203.144 125.358 202.619 123.943 202.936C121.502 203.475 119.051 203.953 116.606 204.47C114.983 204.813 113.36 205.16 111.73 205.476C110.118 205.788 108.518 206.162 106.903 206.444C106.849 206.467 106.795 206.482 106.737 206.498C106.209 206.567 106.063 206.498 105.943 206.008C105.554 204.404 105.191 202.793 104.887 201.17C104.798 200.692 104.602 200.237 104.559 199.751C104.548 198.976 104.336 198.232 104.178 197.481C103.761 195.48 103.38 193.475 102.967 191.474C102.593 189.682 102.211 187.889 101.807 186.1C101.309 183.903 100.8 181.709 100.319 179.508C100.076 178.402 99.829 177.291 99.5784 176.185C99.5283 175.996 99.5206 175.803 99.5475 175.607C99.5553 175.557 99.5668 175.506 99.5822 175.456C99.6709 175.221 99.6208 174.967 99.6671 174.724C99.6748 174.674 99.6863 174.627 99.7017 174.581C99.7634 174.392 99.7403 174.192 99.7557 173.995C99.7596 173.918 99.775 173.845 99.7943 173.768C99.8637 173.567 99.8405 173.359 99.8444 173.155C99.8444 172.804 99.9138 172.472 100.053 172.152C100.149 172.006 100.172 171.836 100.203 171.671C100.214 171.624 100.23 171.578 100.249 171.532C100.342 171.358 100.388 171.177 100.376 170.977C100.4 170.468 100.565 170.005 100.797 169.562C100.935 169.411 101.012 169.234 101.012 169.026C101.494 167.642 102.134 166.327 102.809 165.032C102.89 164.878 102.994 164.735 103.021 164.558C103.087 164.365 103.171 164.18 103.287 164.01C103.545 163.748 103.684 163.405 103.912 163.12C104.717 162.002 105.481 160.853 106.36 159.789C106.56 159.546 106.757 159.303 107.015 159.118C107.177 159.026 107.3 158.895 107.358 158.714C107.454 158.509 107.616 158.37 107.794 158.243C108.179 157.916 108.572 157.603 108.819 157.148C108.919 156.944 109.07 156.786 109.278 156.686C109.633 156.535 109.86 156.242 110.087 155.949C110.434 155.475 110.92 155.155 111.371 154.801C111.552 154.739 111.687 154.623 111.784 154.454C112.404 153.814 113.141 153.316 113.862 152.796C114.721 152.171 115.627 151.612 116.452 150.942C117.443 150.321 118.414 149.677 119.463 149.153C120.327 148.833 121.117 148.374 121.873 147.85C122.767 147.433 123.226 146.659 123.623 145.803C124.016 144.951 124.428 144.106 124.918 143.301C125.269 142.749 125.512 142.14 125.866 141.589C126.395 140.845 126.811 140.035 127.274 139.253C128.442 137.279 129.66 135.344 131.086 133.543C131.202 133.389 131.302 133.224 131.422 133.073C131.468 133.019 131.522 132.973 131.587 132.938C131.842 132.815 132.042 132.638 132.143 132.364C132.158 132.321 132.181 132.279 132.204 132.237C132.266 132.133 132.339 132.04 132.451 131.982C132.952 131.654 133.334 131.2 133.723 130.756C133.75 130.718 133.785 130.687 133.82 130.656C133.989 130.54 134.143 130.409 134.259 130.236C134.286 130.197 134.321 130.166 134.359 130.139C134.525 130.058 134.683 129.974 134.787 129.812C134.818 129.773 134.853 129.742 134.891 129.715C135.203 129.553 135.496 129.361 135.724 129.087C135.755 129.048 135.786 129.018 135.824 128.991C136.052 128.89 136.291 128.802 136.426 128.563C136.645 128.374 136.9 128.235 137.158 128.112C137.389 128.058 137.609 127.988 137.759 127.788C137.925 127.634 138.122 127.533 138.342 127.468C138.638 127.433 138.908 127.341 139.136 127.14C139.282 127.028 139.46 127.021 139.633 127.001C139.895 126.944 140.134 126.82 140.396 126.766C140.443 126.751 140.493 126.739 140.543 126.728C140.824 126.705 141.086 126.608 141.352 126.523C141.487 126.489 141.626 126.485 141.765 126.481C142.69 126.4 143.611 126.381 144.525 126.589C144.579 126.589 144.633 126.604 144.683 126.616C144.849 126.674 145.019 126.708 145.192 126.731C145.238 126.743 145.285 126.758 145.327 126.774C145.493 126.863 145.666 126.913 145.851 126.951C146.098 127.032 146.322 127.167 146.557 127.271C146.699 127.352 146.85 127.422 146.996 127.491C147.262 127.645 147.524 127.803 147.752 128.015C148.029 128.301 148.315 128.578 148.592 128.86C148.642 128.91 148.685 128.967 148.727 129.025C148.858 129.253 149.063 129.419 149.236 129.611C149.332 129.723 149.402 129.85 149.471 129.977C149.583 130.197 149.679 130.421 149.841 130.61C150.454 131.631 150.682 132.776 150.894 133.925C150.994 134.469 151.094 135.008 151.194 135.625C151.541 135.317 151.588 134.97 151.665 134.638C151.908 133.601 152.178 132.572 152.671 131.62C153.161 130.772 153.669 129.943 154.383 129.253C155.616 128.058 157.043 127.36 158.785 127.186C161.098 126.955 163.157 127.603 165.127 128.705C166.449 129.492 167.629 130.463 168.724 131.539C168.874 131.685 169.028 131.824 169.121 132.017C169.529 132.641 170.023 133.197 170.509 133.756C170.539 133.79 170.57 133.829 170.597 133.871C170.751 134.141 170.937 134.392 171.156 134.615C171.187 134.654 171.214 134.692 171.241 134.735C171.75 135.602 172.336 136.423 172.868 137.279C172.918 137.36 172.96 137.445 173.003 137.53C173.119 137.784 173.246 138.031 173.412 138.258C173.462 138.343 173.508 138.428 173.554 138.517C174.437 140.259 175.297 142.013 176.122 143.783C176.187 143.925 176.264 144.06 176.303 144.214C176.681 145.344 177.224 146.404 177.683 147.499C177.826 147.838 177.976 148.174 178.099 148.517C178.365 149.272 178.84 149.858 179.514 150.282C180.817 151.096 182.12 151.913 183.369 152.815C185.069 154.041 186.696 155.356 188.238 156.786C189.241 157.715 190.158 158.714 191.11 159.689C191.392 159.978 191.608 160.321 191.905 160.595C192.275 160.942 192.309 160.942 192.687 160.533C192.857 160.263 193.142 160.09 193.312 159.816C193.728 159.357 194.14 158.899 194.557 158.44C195.941 157.006 197.005 155.321 198.265 153.787C199.395 152.414 200.528 151.042 201.693 149.7C202.757 148.474 203.79 147.221 204.969 146.103C206.357 144.789 207.926 143.771 209.761 143.204C211.435 142.688 213.1 142.676 214.723 143.42C215.448 143.752 216.068 144.222 216.616 144.797C216.724 144.912 216.816 145.039 216.951 145.124C217.013 145.171 217.067 145.228 217.113 145.29C217.213 145.475 217.364 145.622 217.487 145.787C218.601 147.403 219.206 149.222 219.557 151.127C220.224 154.766 219.808 158.363 218.998 161.929C218.154 165.641 216.87 169.207 215.413 172.719C214.815 174.157 214.206 175.587 213.555 177.002C212.845 178.452 212.186 179.924 211.481 181.378C211.396 181.551 211.284 181.705 211.222 181.887C210.606 183.213 209.919 184.5 209.226 185.784C208.474 186.979 207.865 188.255 207.121 189.454C206.77 190.133 206.346 190.765 205.968 191.428C205.771 191.671 205.629 191.945 205.49 192.222C205.475 192.268 205.455 192.307 205.428 192.346C205.305 192.511 205.197 192.685 205.135 192.885C204.788 193.467 204.422 194.038 204.056 194.608C202.714 196.609 201.346 198.587 199.896 200.511C198.47 202.404 197.005 204.269 195.451 206.062C193.975 207.766 192.49 209.462 190.883 211.047C190.806 211.12 190.74 211.201 190.713 211.305C190.123 212.037 189.395 212.643 188.759 213.329C187.945 214.212 187.089 215.041 186.145 215.781C186.006 215.889 185.875 216.001 185.713 216.07C185.116 216.498 185.112 216.525 185.42 217.172C187.032 220.573 188.134 224.135 188.689 227.859C188.894 229.22 189.005 230.592 189.056 231.972C189.144 234.509 189.002 237.022 188.512 239.513C188.396 240.103 188.593 240.484 188.963 240.912C190.386 242.543 191.48 244.378 192.197 246.429C192.487 247.242 192.695 248.075 192.868 248.919C192.907 249.124 192.834 249.343 192.965 249.528C192.988 249.887 193.057 250.238 193.092 250.592C193.092 251.286 193.092 251.976 193.092 252.67C192.988 254.32 192.618 255.916 192.039 257.458C191.326 259.367 190.228 261.036 188.859 262.532C188.635 262.778 188.392 263.006 188.126 263.206C188.011 263.295 187.768 263.368 187.965 263.6L187.93 263.611Z" fill="#00CD4A"/>
<path d="M152.593 146.207C154.628 146.215 156.586 146.566 158.433 147.475C158.846 147.68 159.081 147.953 159.034 148.412C158.78 151.003 158.599 153.601 157.886 156.122C157.292 158.22 156.532 160.247 155.152 161.975C154.273 163.073 153.209 163.879 151.741 164.006C150.414 164.122 149.312 163.613 148.34 162.776C147.045 161.666 146.235 160.22 145.603 158.667C144.578 156.138 144.2 153.482 144.158 150.772C144.15 150.247 144.223 149.727 144.239 149.203C144.25 148.879 144.451 148.717 144.686 148.543C147.037 146.805 149.724 146.199 152.593 146.207Z" fill="#FF5D5D"/>
<path d="M163.449 133.744C165.064 134.492 166.012 135.749 166.128 137.518C166.29 140.04 165.075 142.38 162.45 143.235C160.176 143.976 157.481 142.148 157.057 139.612C156.706 137.53 157.269 135.737 158.942 134.365C159.809 133.721 160.727 133.224 161.864 133.301C162.427 133.339 162.944 133.517 163.452 133.744H163.449Z" fill="black"/>
<path d="M136.656 136.353C136.05 136.18 135.488 135.891 134.944 135.582C134.408 135.278 134.215 134.561 134.47 134.025C134.736 133.47 135.453 133.219 136.101 133.497C137.176 133.959 138.236 134.453 139.304 134.935C141.024 135.713 142.724 136.534 144.458 137.267C145.665 137.776 145.788 139.048 144.979 139.777C143.822 140.818 142.766 141.97 141.652 143.061C141.128 143.574 140.573 144.052 140.033 144.549C139.987 144.588 139.944 144.584 139.902 144.542C139.879 144.249 140.118 144.117 140.28 143.948C141.625 142.521 143.121 141.249 144.489 139.842C145.522 138.778 145.376 138.019 144.019 137.41C141.529 136.292 139.042 135.162 136.563 134.025C136.37 133.936 136.182 133.847 135.977 133.797C135.387 133.659 134.971 133.82 134.778 134.264C134.601 134.669 134.782 135.077 135.291 135.393C135.65 135.617 136.05 135.752 136.428 135.937C136.617 136.029 136.883 136.06 136.883 136.365C136.806 136.403 136.733 136.403 136.663 136.349L136.656 136.353Z" fill="#009937"/>
<path d="M136.655 136.353C136.733 136.353 136.81 136.346 136.887 136.342C137.126 136.203 137.334 136.342 137.527 136.438C139.073 137.178 140.645 137.853 142.191 138.593C142.693 138.836 142.723 138.994 142.349 139.407C141.536 140.301 140.576 141.041 139.74 141.909C139.011 142.664 138.259 143.397 137.515 144.137C137.288 144.364 137.095 144.615 137.064 144.943C137.01 145.525 137.665 146.003 138.201 145.771C138.625 145.586 138.953 145.27 139.281 144.95C139.458 144.777 139.589 144.511 139.909 144.538C139.952 144.538 139.99 144.545 140.032 144.549C139.643 144.95 139.269 145.367 138.861 145.748C138.248 146.319 137.577 146.35 137.095 145.872C136.547 145.328 136.544 144.646 137.141 144.021C137.719 143.416 138.336 142.849 138.934 142.263C139.944 141.272 140.95 140.274 141.968 139.291C142.234 139.037 142.234 138.94 141.868 138.778C140.252 138.073 138.656 137.325 137.052 136.592C136.914 136.527 136.786 136.434 136.652 136.353H136.655Z" fill="#00A33B"/>
<path d="M100.209 173.859C100.209 173.928 100.209 173.998 100.205 174.063C100.071 174.256 100.232 174.499 100.101 174.696C99.9549 174.962 100.132 175.27 99.9973 175.536C99.8739 175.694 99.9973 175.895 99.9125 176.064C99.8624 176.095 99.8123 176.095 99.7621 176.064C99.7274 176.022 99.7005 175.975 99.685 175.921C99.5771 175.482 99.8238 175.077 99.793 174.645C99.793 174.595 99.8007 174.545 99.8084 174.495C99.8855 174.318 99.9009 174.125 99.9048 173.932C99.9125 173.886 99.9279 173.84 99.9472 173.797C100.047 173.601 99.9742 173.381 100.013 173.177C100.02 173.13 100.04 173.084 100.063 173.042C100.144 172.88 100.071 172.691 100.152 172.529C100.61 170.555 101.243 168.643 102.091 166.8C102.411 166.103 102.785 165.436 103.139 164.757C103.205 164.63 103.27 164.495 103.455 164.591C103.498 164.78 103.386 164.915 103.301 165.069C102.611 166.33 102.056 167.656 101.482 168.971C101.462 169.017 101.474 169.075 101.47 169.125C101.377 169.291 101.347 169.48 101.262 169.649C101.038 170.116 100.838 170.59 100.842 171.122C100.749 171.288 100.718 171.477 100.633 171.65C100.502 171.808 100.645 172.02 100.529 172.178C100.394 172.514 100.306 172.857 100.313 173.223C100.178 173.42 100.337 173.662 100.213 173.859H100.209Z" fill="#00CD4A"/>
<path d="M163.449 133.744C162.439 133.424 161.421 133.193 160.388 133.648C159.894 133.864 159.42 134.122 158.938 134.365C160.16 133.047 162.034 132.815 163.445 133.744H163.449Z" fill="#00AA3E"/>
<path d="M119.851 149.268C120.603 148.748 121.42 148.347 122.264 148.004C121.513 148.524 120.753 149.037 119.851 149.268Z" fill="#00CD4A"/>
<path d="M108.189 158.409C108.405 157.9 108.856 157.607 109.242 157.256C109.03 157.765 108.575 158.058 108.189 158.409Z" fill="#00CD4A"/>
<path d="M103.686 164.092C103.659 163.849 103.895 163.695 103.898 163.463C103.956 163.386 104.018 163.305 104.076 163.228C104.153 163.197 104.188 163.07 104.303 163.132C104.303 163.17 104.307 163.209 104.311 163.248C104.103 163.529 104.041 163.918 103.69 164.088L103.686 164.092Z" fill="#00CD4A"/>
<path d="M109.662 156.836C109.905 156.551 110.105 156.215 110.502 156.1C110.26 156.389 110.059 156.724 109.662 156.836Z" fill="#00CD4A"/>
<path d="M99.9977 175.538C100.04 175.256 99.8897 174.956 100.102 174.697C100.059 174.979 100.198 175.279 99.9977 175.538Z" fill="#28D466"/>
<path d="M99.8932 176.058C99.9202 175.884 99.8238 175.684 100.001 175.537C100.001 175.745 100.001 175.953 100.001 176.162C99.9703 176.2 99.9356 176.243 99.9048 176.281C99.8392 176.208 99.8315 176.135 99.8932 176.054V176.058Z" fill="#28D466"/>
<path d="M111.763 154.947C111.856 154.781 111.972 154.642 112.18 154.631C112.091 154.8 111.976 154.939 111.763 154.947Z" fill="#00CD4A"/>
<path d="M107.453 159.248C107.464 159.036 107.603 158.925 107.769 158.832C107.761 159.044 107.622 159.16 107.453 159.248Z" fill="#00CD4A"/>
<path d="M101.258 169.653C101.254 169.449 101.304 169.268 101.466 169.129C101.474 169.333 101.427 169.518 101.258 169.653Z" fill="#28D466"/>
<path d="M100.63 171.651C100.622 171.443 100.672 171.262 100.838 171.123C100.845 171.331 100.791 171.512 100.63 171.651Z" fill="#28D466"/>
<path d="M100.21 173.861C100.237 173.649 100.125 173.414 100.31 173.225C100.283 173.437 100.387 173.672 100.21 173.861Z" fill="#28D466"/>
<path d="M100.102 174.697C100.132 174.485 100.017 174.249 100.206 174.064C100.179 174.276 100.287 174.508 100.102 174.697Z" fill="#28D466"/>
<path d="M100.525 172.182C100.545 172.001 100.452 171.801 100.63 171.65C100.606 171.828 100.691 172.028 100.525 172.182Z" fill="#28D466"/>
<path d="M78.7553 192.67C78.659 192.519 78.5664 192.369 78.4701 192.219C77.8956 190.573 77.3212 188.927 76.901 187.23C76.3459 184.971 75.9719 182.685 75.8139 180.364C75.679 178.337 75.6481 176.316 76.0452 174.312C76.1454 173.803 76.3073 173.302 76.4423 172.801C76.5039 172.766 76.5579 172.774 76.6042 172.824C76.7044 172.986 76.689 173.163 76.6389 173.329C76.2842 174.501 76.1994 175.719 76.0413 176.922C75.9334 177.712 75.9411 178.506 76.0413 179.296C76.0837 179.508 76.0915 179.721 76.0915 179.936C76.0876 180.291 76.0413 180.646 76.1454 180.997C76.211 181.401 76.1763 181.814 76.2726 182.215C76.2919 182.411 76.2804 182.612 76.3497 182.805C76.7545 185.989 77.5795 189.061 78.7399 192.053C78.8132 192.246 78.9404 192.427 78.898 192.651C78.8556 192.705 78.8055 192.712 78.7476 192.674L78.7553 192.67Z" fill="#00CE4B"/>
<path d="M76.5659 172.807C76.5235 172.807 76.4849 172.803 76.4425 172.799C76.5543 171.943 76.8087 171.145 77.387 170.479C77.4063 170.498 77.4256 170.517 77.4448 170.536C77.4603 170.586 77.4834 170.644 77.4603 170.687C77.0632 171.354 76.9051 172.117 76.5659 172.807Z" fill="#2DD469"/>
<path d="M77.7338 169.885C78.2504 169.496 78.5665 168.875 79.1872 168.598C79.2411 168.686 79.2141 168.775 79.1525 168.833C78.7053 169.276 78.3583 169.824 77.7646 170.101C77.7453 170.086 77.7222 170.074 77.7029 170.059C77.7145 170.001 77.7222 169.943 77.7338 169.885Z" fill="#2DD469"/>
<path d="M77.3867 170.479C77.4291 170.294 77.5525 170.163 77.7028 170.059C77.7183 170.07 77.7337 170.086 77.7491 170.097C77.8108 170.363 77.6759 170.479 77.433 170.517C77.4176 170.506 77.4021 170.494 77.3867 170.479Z" fill="#2DD469"/>
<path d="M70.8873 154.426C70.9258 154.183 70.6791 154.141 70.5789 153.998C69.7655 153.274 69.1332 152.387 68.4933 151.52C66.8471 149.287 65.4786 146.905 64.6382 144.241C64.0213 142.29 63.659 140.313 63.9365 138.258C64.1833 136.45 64.9774 134.9 66.1956 133.562C66.9281 132.757 67.7916 132.101 68.6552 131.45C68.8248 131.323 69.0214 131.261 69.218 131.199C73.1849 128.69 77.6569 127.502 82.1095 126.269C84.546 125.594 87.0402 125.22 89.5306 124.807C89.8352 124.757 90.1629 124.881 90.4481 124.688C90.8915 124.445 91.3926 124.491 91.8668 124.445C93.2431 124.31 94.6194 124.141 96.0072 124.09C96.6664 123.994 97.3372 124.117 97.9965 124.021C98.3588 123.982 98.7251 124.009 99.0913 124.006C99.9202 124.094 100.761 124.048 101.582 124.214C103.671 124.634 105.714 125.17 107.499 126.407C108.016 126.562 108.39 126.939 108.779 127.275C109.816 128.177 110.795 129.133 111.447 130.374C111.964 131.334 112.326 132.348 112.546 133.416C112.557 133.524 112.58 133.628 112.603 133.732C112.627 133.952 112.58 134.175 112.661 134.391C112.684 134.476 112.708 134.561 112.711 134.646C112.719 135.22 112.719 135.795 112.711 136.369C112.711 136.458 112.684 136.542 112.661 136.623C112.58 136.839 112.627 137.067 112.6 137.29C112.233 139.349 111.597 141.323 110.78 143.243C110.287 144.496 109.681 145.694 109.011 146.863C108.436 147.769 107.9 148.698 107.299 149.584C107.122 149.846 106.936 150.101 106.744 150.348C106.701 150.409 106.655 150.471 106.613 150.533C105.672 151.947 104.643 153.301 103.525 154.584C102.052 156.408 100.425 158.085 98.6441 159.611C98.5901 159.658 98.6672 159.619 98.6056 159.646C97.6495 160.078 97.7382 160.818 97.9502 161.659C98.4938 163.841 98.9294 166.049 99.365 168.255C99.5655 169.261 99.5077 170.225 98.779 171.042C98.6865 171.146 98.6403 171.285 98.5747 171.408C98.3704 171.678 98.1044 171.871 97.7998 172.009C96.9749 172.38 96.1344 172.707 95.2709 172.969C95.136 173.008 95.001 173.039 94.8622 173.004C94.6001 172.908 94.5384 172.653 94.4189 172.445C93.1005 170.151 91.3078 168.378 88.8213 167.368C87.9655 167.021 87.0595 166.948 86.1574 166.855C85.9839 166.836 85.8066 166.855 85.6408 166.794C85.5637 166.755 85.5097 166.701 85.4828 166.616C85.2669 165.575 85.0433 164.538 84.8351 163.497C84.758 163.112 84.5421 162.9 84.1643 162.788C80.5097 161.682 77.2637 159.812 74.2644 157.476C74.0755 157.352 73.9367 157.167 73.7401 157.052C73.5011 156.913 73.3546 156.658 73.104 156.535C73.0654 156.5 73.0307 156.47 72.9922 156.435C72.7031 156.2 72.4833 155.887 72.1595 155.691C71.7007 155.309 71.2844 154.885 70.895 154.434L70.8873 154.426Z" fill="#CECDCD"/>
<path d="M85.4714 166.611C85.5099 166.654 85.5485 166.696 85.587 166.739C85.533 167.039 85.2825 167.055 85.0666 167.059C83.4166 167.078 81.8476 167.448 80.3325 168.08C80.2053 168.134 80.0704 168.188 79.9354 168.08C80.4019 167.594 81.0341 167.436 81.6355 167.236C82.7882 166.858 83.991 166.773 85.1899 166.681C85.3017 166.727 85.3827 166.65 85.4714 166.611Z" fill="#2DD469"/>
<path d="M104.3 163.135C104.222 163.166 104.149 163.196 104.072 163.231C104.643 162.125 105.394 161.146 106.185 160.193C106.223 160.193 106.262 160.197 106.304 160.201C105.791 160.934 105.279 161.662 104.774 162.395C104.608 162.638 104.458 162.888 104.3 163.135Z" fill="#00CD4A"/>
<path d="M80.9879 196.432C80.2979 195.368 79.5731 194.323 79.0758 193.144C79.0103 192.986 78.9447 192.824 78.8792 192.662C77.8499 190.403 77.2099 188.024 76.6856 185.611C76.4852 184.682 76.2616 183.749 76.25 182.785C76.1305 182.623 76.2693 182.415 76.1498 182.253C75.9994 181.844 76.0611 181.42 76.0418 181C75.903 180.657 76.0804 180.283 75.9454 179.94C75.9454 179.732 75.9416 179.527 75.9377 179.319C75.8568 178.514 75.8568 177.708 75.9377 176.906C75.9956 175.692 76.1575 174.493 76.489 173.317C76.5353 173.147 76.5815 172.981 76.57 172.804C76.6432 171.96 77.0557 171.243 77.4374 170.514C77.5723 170.395 77.7111 170.283 77.7535 170.094C78.2315 169.593 78.779 169.157 79.1914 168.594C79.3495 168.517 79.469 168.378 79.6194 168.29C79.762 168.27 79.8622 168.193 79.9393 168.078C80.9802 167.65 82.0365 167.26 83.1545 167.087C83.7366 166.998 84.3149 166.89 84.9124 166.917C85.1553 166.929 85.402 166.929 85.5909 166.728C87.8385 166.636 89.8007 167.376 91.5278 168.787C92.8732 169.882 93.9488 171.193 94.7237 172.75C94.7545 172.808 94.8085 172.854 94.8509 172.908C95.1516 173.178 95.248 173.564 95.3868 173.918C96.6089 177.068 97.3336 180.325 97.6497 183.691C97.7808 185.083 97.8849 186.478 97.8887 187.87C97.9003 190.75 97.6112 193.595 96.2311 196.212C95.8455 196.945 95.3444 197.596 94.7892 198.202C94.5849 198.425 94.3652 198.68 94.0028 198.653C93.7214 198.664 93.5209 198.857 93.3127 199.003C91.6666 200.164 89.8277 200.657 87.8346 200.522C86.5778 200.434 85.3789 200.06 84.2532 199.481C83.8561 199.181 83.4668 198.869 83.062 198.579C82.2293 197.993 81.6857 197.138 80.9879 196.428V196.432Z" fill="#00CE4B"/>
<path d="M79.6157 168.289C79.5231 168.463 79.4152 168.609 79.1877 168.594C79.2764 168.42 79.4036 168.289 79.6157 168.289Z" fill="#2DD469"/>
<path d="M161.868 137.059C161.864 135.995 162.504 135.174 163.348 135.162C164.327 135.151 165.029 135.883 165.025 136.916C165.025 138.054 164.501 138.667 163.541 138.674C162.435 138.682 161.872 138.138 161.868 137.059Z" fill="#FEFEFE"/>
<path d="M98.5211 171.33C98.5211 172.544 98.9529 173.678 99.1996 174.846C99.404 175.825 99.5813 176.816 99.9938 177.741C100.325 178.077 100.306 178.539 100.399 178.948C101 181.704 101.663 184.445 102.249 187.202C102.557 188.643 102.85 190.093 103.163 191.535C103.726 194.102 104.207 196.685 104.751 199.257C104.782 199.411 104.859 199.557 104.732 199.704C104.732 199.812 104.724 199.916 104.72 200.024C102.43 200.656 100.102 201.146 97.7925 201.701C96.9829 201.893 96.1849 202.136 95.3676 202.302C94.959 202.383 94.7855 202.556 94.8395 202.961C94.6313 201.866 94.4231 200.772 94.215 199.677C94.1571 199.376 94.0878 199.079 94.0222 198.778C94.0145 198.74 94.0068 198.698 93.9991 198.659C95.6645 197.414 96.4972 195.648 97.0485 193.721C97.5111 192.101 97.6807 190.444 97.7038 188.755C97.754 185.112 97.4032 181.515 96.5203 177.98C96.1348 176.438 95.6645 174.919 95.0207 173.462C94.9436 173.288 94.9012 173.1 94.8434 172.918C96.1348 172.544 97.4456 172.224 98.5173 171.338L98.5211 171.33Z" fill="#9F613E"/>
<path d="M139.909 144.541C139.539 144.885 139.181 145.247 138.791 145.567C138.121 146.118 137.62 146.13 137.172 145.644C136.748 145.181 136.821 144.63 137.427 144.04C138.961 142.529 140.503 141.033 142.041 139.526C142.635 138.948 142.635 138.936 141.906 138.601C140.334 137.876 138.761 137.159 137.184 136.438C137.091 136.396 136.987 136.372 136.887 136.342C136.37 135.972 135.742 135.833 135.202 135.509C134.408 135.035 134.335 134.086 135.083 133.697C135.518 133.47 135.97 133.604 136.394 133.801C137.585 134.345 138.776 134.892 139.967 135.432C141.367 136.068 142.77 136.696 144.165 137.332C144.324 137.406 144.474 137.494 144.62 137.591C145.461 138.134 145.584 138.871 144.89 139.599C144.158 140.37 143.371 141.091 142.608 141.839C141.698 142.73 140.758 143.593 139.906 144.541H139.909Z" fill="black"/>
<path d="M75.9335 176.906C75.9335 177.712 75.9335 178.518 75.9335 179.32C75.7639 178.514 75.7639 177.708 75.9335 176.906Z" fill="#2BD669"/>
<path d="M75.9411 179.939C76.1377 180.279 75.9989 180.649 76.0375 181C75.8255 180.66 75.9758 180.29 75.9411 179.939Z" fill="#2BD669"/>
<path d="M76.1498 182.252C76.3079 182.406 76.2308 182.603 76.2501 182.784C76.0766 182.634 76.1691 182.429 76.1498 182.252Z" fill="#2BD669"/>
<path d="M100.202 137.086C100.437 138.185 100.082 139.207 99.6854 140.182C98.6599 142.699 97.2991 145.036 95.5604 147.137C95.5257 147.175 95.5026 147.225 95.4756 147.268C94.5697 148.282 93.6521 149.276 92.5342 150.067C91.4624 150.822 90.2982 151.296 88.9874 151.493C86.7284 151.828 84.7391 151.088 82.8694 149.986C80.618 148.659 78.8177 146.867 77.6958 144.461C77.3489 143.721 77.0135 142.969 76.9903 142.125C76.9055 141.809 76.9094 141.497 76.9903 141.18C77.0019 140.483 77.4375 139.993 77.9156 139.611C78.8986 138.829 80.0282 138.289 81.2271 137.888C82.5456 137.453 83.864 137.021 85.2094 136.685C86.2118 136.435 87.2257 136.261 88.2473 136.119C88.3128 136.111 88.3745 136.061 88.4362 136.03C88.6675 135.895 88.9412 136.065 89.1725 135.926C89.4886 135.891 89.8009 135.857 90.117 135.822C90.3444 135.675 90.622 135.86 90.8495 135.71C91.0615 135.675 91.2697 135.641 91.4817 135.606C91.6745 135.479 91.9173 135.641 92.1101 135.502C92.2874 135.467 92.4609 135.433 92.6382 135.398C92.8349 135.271 93.0777 135.417 93.2782 135.301C93.8372 135.228 94.3923 135.155 94.9513 135.082C95.4062 135.001 95.8611 134.997 96.316 135.082C96.4741 135.209 96.6823 135.062 96.8442 135.186C97.0176 135.224 97.195 135.259 97.3685 135.298C98.2359 135.336 98.9799 135.687 99.6661 136.188C99.9514 136.423 100.152 136.709 100.202 137.083V137.086Z" fill="#FEFEFE"/>
<path d="M76.99 141.18C76.99 141.496 76.99 141.808 76.99 142.124C76.8242 141.808 76.8242 141.496 76.99 141.18Z" fill="#333333"/>
<path d="M183.889 134C185.089 123.2 195.055 117.5 199.889 116L196.389 109H203.389V100L209.889 107.5L222.389 105L215.389 114.5L222.389 124.5L209.889 121L207.389 128.5L203.389 121C194.989 121 186.889 129.667 183.889 134Z" fill="#FD349F"/>
</g>
<rect width="282" height="88" rx="20" fill="#EDEEF4"/>
<path d="M25.062 29.3039C25.062 31.5801 26.167 33.9337 28.0233 34.9392L27.283 35.9116C25.9349 35.1381 24.9736 33.7182 24.4763 32.0442C23.9625 33.8619 22.9349 35.4199 21.5482 36.2431L20.7526 35.3481C22.6863 34.232 23.8797 31.7569 23.8797 29.3812V26.6851H25.062V29.3039ZM28.5316 38.5635V25.6796H29.7139V30.9724H31.6255V25.3812H32.8078V39.2707H31.6255V31.989H29.7139V38.5635H28.5316ZM47.4536 36.5083V37.547H34.7354V36.5083H40.4481V33.8895H36.3266V29.6022H44.636V27.4254H36.2934V26.4088H45.8514V30.6077H37.542V32.8729H46.1719V33.8895H41.6636V36.5083H47.4536ZM61.2597 32.442V33.4586H55.6243V36.2983H54.3867V33.4586H48.5414V32.442H61.2597ZM49.989 28.5304C49.9779 26.8066 51.9227 25.7459 54.884 25.7348C57.8564 25.7459 59.779 26.8066 59.779 28.5304C59.779 30.2431 57.8564 31.3039 54.884 31.3039C51.9227 31.3039 49.9779 30.2431 49.989 28.5304ZM50.1878 38.9613V34.9061H51.4144V37.9227H59.8453V38.9613H50.1878ZM51.2928 28.5304C51.2818 29.6133 52.7293 30.2983 54.884 30.2983C57.0497 30.2983 58.4862 29.6133 58.4862 28.5304C58.4862 27.4254 57.0497 26.7403 54.884 26.7403C52.7293 26.7403 51.2818 27.4254 51.2928 28.5304ZM78.2636 25.3812V39.2707H77.0703V32H75.1366V38.5746H73.9763V25.7569H75.1366V30.9834H77.0703V25.3812H78.2636ZM66.4183 35.4144C69.6559 33.6133 70.9819 31.0718 71.1863 28.1989H66.9487V27.1823H72.3852C72.3741 30.7182 71.1366 34.0552 67.1366 36.2873L66.4183 35.4144ZM91.2188 26.2873V27.5028C91.2188 28.8177 91.2188 30.2541 90.821 32.2541H92.8984V33.2707H87.1525V39.2928H85.926V33.2707H80.2354V32.2541H89.5724C90.0034 30.2597 90.0034 28.7956 90.0034 27.5028V27.3039H81.8266V26.2873H91.2188ZM105.533 25.3812V39.2928H104.318V25.3812H105.533ZM94.8481 27.6906V26.674H101.312V31.6133H96.1298V34.895C98.4337 34.8895 100.483 34.7901 102.97 34.3867L103.091 35.4144C100.539 35.8232 98.4282 35.9227 96.0304 35.9227H94.8702V30.6077H100.075V27.6906H94.8481ZM120.566 31.2155V32.2099H107.892V31.2155H120.566ZM109.428 34.4088V33.4475H118.919V36.674H110.665V38.1105H119.339V39.105H109.461V35.7459H117.715V34.4088H109.428ZM109.582 30.0773V25.8564H118.908V26.8508H110.809V29.0718H119.052V30.0773H109.582ZM133.167 25.3812V39.2928H131.941V25.3812H133.167ZM122.239 31.2928C122.239 28.3425 123.709 26.4641 125.786 26.453C127.841 26.4641 129.333 28.3425 129.333 31.2928C129.333 34.2541 127.841 36.1326 125.786 36.1326C123.709 36.1326 122.239 34.2541 122.239 31.2928ZM123.421 31.2928C123.421 33.558 124.394 35.0387 125.786 35.0387C127.178 35.0387 128.14 33.558 128.14 31.2928C128.14 29.0387 127.178 27.558 125.786 27.547C124.394 27.558 123.421 29.0387 123.421 31.2928ZM146.635 26.7072V27.7348H141.497V34.8177C144 34.8122 145.652 34.7348 147.586 34.3646L147.729 35.3812C145.685 35.768 143.994 35.8564 141.331 35.8564H140.26V26.7072H146.635ZM145.807 31.4586V30.4309H149.862V25.3812H151.088V39.2928H149.862V31.4586H145.807ZM170.413 30.9282V31.9558H168.159V39.2597H166.932V25.3812H168.159V30.9282H170.413ZM157.982 35.7348V26.7514H159.197V34.7072C161.23 34.7017 163.308 34.5414 165.595 34.0663L165.75 35.116C163.352 35.5912 161.197 35.7348 159.087 35.7348H157.982ZM177.556 25.547C180.65 25.547 182.462 26.4088 182.462 27.9558C182.462 29.4144 180.876 30.2486 178.141 30.3646V31.4144H183.898V32.4199H171.235V31.4144H176.937V30.3591C174.219 30.2431 172.639 29.4088 172.639 27.9558C172.639 26.4088 174.462 25.547 177.556 25.547ZM172.771 34.5525V33.5912H182.263V36.7072H174.009V38.1436H182.683V39.116H172.804V35.8011H181.059V34.5525H172.771ZM173.92 27.9558C173.909 28.9061 175.258 29.4254 177.556 29.4365C179.865 29.4254 181.213 28.9061 181.213 27.9558C181.213 27.0387 179.865 26.4972 177.556 26.4862C175.258 26.4972 173.909 27.0387 173.92 27.9558ZM200.98 25.3812V39.2707H199.797V25.3812H200.98ZM189.256 31.3702C189.256 28.4199 190.427 26.5525 192.228 26.5525C193.422 26.5525 194.339 27.3591 194.831 28.7514H197.046V25.6796H198.217V38.5635H197.046V34H194.831C194.339 35.3978 193.422 36.2044 192.228 36.1989C190.427 36.2099 189.256 34.3315 189.256 31.3702ZM190.394 31.3702C190.383 33.6243 191.09 35.0497 192.228 35.0387C193.366 35.0497 194.096 33.6243 194.096 31.3702C194.096 29.116 193.366 27.7017 192.228 27.7017C191.09 27.7017 190.383 29.116 190.394 31.3702ZM195.096 29.768C195.184 30.2541 195.234 30.7901 195.234 31.3702C195.234 31.9448 195.184 32.4862 195.096 32.9724H197.046V29.768H195.096ZM214.421 25.3812V33.6575H213.195V30.0221H210.388V29.0055H213.195V25.3812H214.421ZM202.963 32.5525C205.029 31.8011 206.498 29.9227 206.498 27.9337V27.4144H203.36V26.3978H210.841V27.4144H207.736V27.9227C207.736 29.7348 209.128 31.4586 211.161 32.1547L210.521 33.1381C208.957 32.5746 207.747 31.4088 207.145 29.9779C206.548 31.6022 205.261 32.9006 203.603 33.5249L202.963 32.5525ZM205.161 36.674C205.15 35.0387 206.918 34.0884 209.813 34.0884C212.697 34.0884 214.465 35.0387 214.465 36.674C214.465 38.3094 212.697 39.2486 209.813 39.2597C206.918 39.2486 205.15 38.3094 205.161 36.674ZM206.377 36.674C206.366 37.6796 207.681 38.2873 209.813 38.2762C211.935 38.2873 213.25 37.6796 213.25 36.674C213.25 35.6575 211.935 35.0497 209.813 35.0497C207.681 35.0497 206.366 35.6575 206.377 36.674ZM228.183 25.3812V39.2928H226.956V25.3812H228.183ZM217.255 31.2928C217.255 28.3425 218.724 26.4641 220.802 26.453C222.857 26.4641 224.349 28.3425 224.349 31.2928C224.349 34.2541 222.857 36.1326 220.802 36.1326C218.724 36.1326 217.255 34.2541 217.255 31.2928ZM218.437 31.2928C218.437 33.558 219.409 35.0387 220.802 35.0387C222.194 35.0387 223.155 33.558 223.155 31.2928C223.155 29.0387 222.194 27.558 220.802 27.547C219.409 27.558 218.437 29.0387 218.437 31.2928ZM242.464 25.3812V39.2707H241.282V25.3812H242.464ZM230.74 31.3702C230.74 28.4199 231.912 26.5525 233.713 26.5525C235.403 26.5525 236.547 28.1768 236.702 30.7956H238.497V25.6796H239.68V38.5635H238.497V31.8122H236.707C236.586 34.5193 235.431 36.2099 233.713 36.1989C231.912 36.2099 230.74 34.3315 230.74 31.3702ZM231.89 31.3702C231.878 33.6243 232.597 35.0497 233.713 35.0387C234.851 35.0497 235.569 33.6243 235.569 31.3702C235.569 29.116 234.851 27.7017 233.713 27.7017C232.597 27.7017 231.878 29.116 231.89 31.3702ZM257.11 36.453V37.4807H244.392V36.453H247.541V32.7072C246.359 32.0884 245.64 31.0884 245.64 29.8343C245.64 27.6796 247.751 26.2652 250.712 26.2541C253.684 26.2652 255.795 27.6796 255.795 29.8343C255.795 31.0718 255.099 32.0552 253.95 32.674V36.453H257.11ZM246.823 29.8343C246.823 31.3812 248.436 32.4199 250.712 32.4199C252.977 32.4199 254.613 31.3812 254.613 29.8343C254.613 28.2762 252.977 27.2486 250.712 27.2597C248.436 27.2486 246.823 28.2762 246.823 29.8343ZM248.745 36.453H252.712V33.1547C252.11 33.3094 251.436 33.3923 250.712 33.3923C249.999 33.3923 249.342 33.3094 248.745 33.1602V36.453ZM260.419 26.6851L260.308 34.8066H258.993L258.883 26.6851H260.419ZM258.651 37.0829C258.64 36.5304 259.104 36.0773 259.656 36.0773C260.209 36.0773 260.662 36.5304 260.662 37.0829C260.662 37.6354 260.209 38.0884 259.656 38.0884C259.104 38.0884 258.64 37.6354 258.651 37.0829ZM129.683 49.3812V52.5193H131.772V53.547H129.683V56.4972H128.457V49.3812H129.683ZM119.418 55.9558V50.2983H125.838V55.9558H119.418ZM120.302 62.895V57.7459H121.495V61.8785C122.296 61.8453 123.368 61.7348 124.346 61.4033L124.545 62.3867C123.186 62.8398 121.871 62.895 120.965 62.895H120.302ZM120.611 54.9724H124.645V51.2928H120.611V54.9724ZM124.048 58.8287V57.8895H126.976V56.663H128.18V57.8895H131.075V58.8287H124.048ZM124.976 61.2818C124.965 60.0773 126.026 59.337 127.562 59.326C129.075 59.337 130.147 60.0773 130.158 61.2818C130.147 62.4862 129.075 63.2376 127.562 63.2376C126.026 63.2376 124.965 62.4862 124.976 61.2818ZM126.07 61.2818C126.07 61.9448 126.689 62.3757 127.562 62.3646C128.424 62.3757 129.042 61.9448 129.042 61.2818C129.042 60.6298 128.424 60.2099 127.562 60.1989C126.689 60.2099 126.07 60.6298 126.07 61.2818ZM140.351 50.453V51.1934C140.34 52.0994 140.34 53.4807 139.986 55.3039L138.76 55.2044C139.097 53.5359 139.13 52.3591 139.141 51.4807H133.423V50.453H140.351ZM132.572 56.5967C133.467 56.5912 134.484 56.5856 135.556 56.558V53.5359H136.771V56.5193C138.312 56.453 139.904 56.3425 141.346 56.1436L141.423 57.0497C138.517 57.547 135.169 57.6022 132.694 57.6133L132.572 56.5967ZM134.716 62.9613V58.884H135.942V61.9448H143.986V62.9613H134.716ZM142.296 59.8343V49.3812H143.533V53.9006H145.567V54.9503H143.533V59.8343H142.296ZM159.174 57.6243V58.6188H153.384V63.2707H152.179V58.6188H146.455V57.6243H159.174ZM148.091 55.9337V49.9558H149.306V51.8785H156.312V49.9558H157.538V55.9337H148.091ZM149.306 54.9392H156.312V52.8729H149.306V54.9392ZM162.505 50.6851L162.394 58.8066H161.079L160.969 50.6851H162.505ZM160.737 61.0829C160.726 60.5304 161.19 60.0773 161.742 60.0773C162.295 60.0773 162.748 60.5304 162.748 61.0829C162.748 61.6354 162.295 62.0884 161.742 62.0884C161.19 62.0884 160.726 61.6354 160.737 61.0829Z" fill="#313239"/>
<path d="M141 100L155.722 85H126.278L141 100Z" fill="#EDEEF4"/>
</svg>
