<svg xmlns="http://www.w3.org/2000/svg" width="254" height="172" fill="none"><mask id="a" width="159" height="96" x="49" y="76" maskUnits="userSpaceOnUse" style="mask-type:alpha"><path fill="#D9D9D9" d="M49.5 76h158v96h-158z"/></mask><g mask="url(#a)"><path fill="#00CD4A" d="M173.93 239.611c1.731.517 3.304 1.349 4.753 2.402 1.936 1.403 3.023 3.323 3.285 5.686.281 2.537-1.272 5.297-3.666 6.523-2.472 1.268-5.135 1.558-7.861 1.43-2.236-.104-4.476-.204-6.704-.408-2.089-.189-4.148-.559-6.157-1.222-2.448-.81-4.842-1.731-7.116-2.95-1.839-.986-3.543-2.166-5.162-3.496-3.019-2.483-6.284-4.622-9.615-6.662-.119-.073-.231-.154-.347-.231-.505-.339-.52-.351-.096-.883 1.596-1.989 3.053-4.075 4.422-6.222 2.71-4.252 4.911-8.736 6.164-13.643.609-2.379.929-4.804.802-7.263-.193-3.717-1.265-7.144-3.566-10.112-1.947-2.51-4.487-4.079-7.668-4.472-2.313-.286-4.564.112-6.735.933-2.174.825-4.129 2.008-5.902 3.523-2.556 2.182-4.445 4.85-5.933 7.834a28.769 28.769 0 0 0-2.706 8.5 27.657 27.657 0 0 0-.185 6.893c.246 2.552.813 5.031 1.534 7.479.058.197.131.37-.081.509a.512.512 0 0 1-.15.069c-.351.058-.717-.053-1.06.089a.577.577 0 0 1-.166.027c-.706.039-1.404.147-2.094.309a81.282 81.282 0 0 0-9.287 2.128c-3.068.894-6.148 1.746-9.286 2.359-.174.035-.324.127-.49.189-3.709.701-7.433.913-11.176.301-1.396-.328-2.814-.559-4.198-.93-2.641-.709-5.132-1.746-7.367-3.342-1.01-.721-1.866-1.581-2.39-2.733-.097-.212-.182-.42-.135-.656-.201-1.607.339-2.66 1.784-3.458 1.176-.647 2.456-.894 3.778-.987.255-.019.528.035.768-.131-.062-.242-.274-.358-.428-.516-1.311-1.349-2.36-2.857-2.892-4.688-.493-1.7-.39-3.354.355-4.965.096-.108.096-.29.258-.347.64.273 1.095.798 1.635 1.206a76.706 76.706 0 0 0 8.427 5.586c3.713 2.121 7.63 3.809 11.573 5.436 1.099.455 2.19.921 3.304 1.342a2.664 2.664 0 0 0 1.696.065c.463-.127.848-.374 1.049-.802.594-1.26 1.43-2.359 2.213-3.492.169-.243.335-.49.424-.779.586-1.003 1.295-1.916 2.004-2.834.189-.138.309-.331.436-.52 1.816-2.741 3.666-5.463 5.451-8.227.116-.177.22-.358.289-.555.571-.945 1.161-1.874 1.731-2.818 1.319-2.093 2.333-4.329 3.219-6.631.798-2.07 1.114-4.179.922-6.403a67.517 67.517 0 0 0-.976-6.932c-.154-.802-.304-1.607-.516-2.398-.012-.177.027-.358-.05-.528a1.127 1.127 0 0 1-.066-.135.95.95 0 0 1-.054-.139c-.035-.173-.054-.35-.123-.516-.178-.605-.324-1.214-.378-1.847.042-.393-.096-.759-.17-1.133a60.34 60.34 0 0 0-.644-2.864c-.35-1.415-1.252-1.94-2.667-1.623-2.441.539-4.892 1.017-7.337 1.534-1.623.343-3.246.69-4.876 1.006-1.612.312-3.212.686-4.827.968a1.289 1.289 0 0 1-.166.054c-.528.069-.674 0-.794-.49a94.077 94.077 0 0 1-1.056-4.838c-.089-.478-.285-.933-.328-1.419-.011-.775-.223-1.519-.381-2.27-.417-2.001-.798-4.006-1.21-6.007a327.777 327.777 0 0 0-1.161-5.374c-.498-2.197-1.007-4.391-1.488-6.592a514.04 514.04 0 0 0-.74-3.323 1.458 1.458 0 0 1-.031-.578c.007-.05.019-.101.034-.151.089-.235.039-.489.085-.732a.858.858 0 0 1 .035-.143c.061-.189.038-.389.054-.586.004-.077.019-.15.038-.227.07-.201.047-.409.05-.613 0-.351.07-.683.209-1.003.096-.146.12-.316.15-.481a.94.94 0 0 1 .046-.139c.093-.174.139-.355.127-.555.024-.509.19-.972.42-1.415a.77.77 0 0 0 .216-.536c.482-1.384 1.122-2.699 1.797-3.994.081-.154.185-.297.212-.474.066-.193.15-.378.266-.548.258-.262.397-.605.625-.89.805-1.118 1.569-2.267 2.448-3.331.2-.243.397-.486.655-.671a.71.71 0 0 0 .343-.404c.096-.205.258-.344.436-.471.385-.327.778-.64 1.025-1.095.1-.204.25-.362.459-.462.355-.151.582-.444.81-.737.346-.474.832-.794 1.283-1.148a.735.735 0 0 0 .413-.347c.62-.64 1.357-1.138 2.078-1.658.859-.625 1.765-1.184 2.59-1.854.991-.621 1.962-1.265 3.011-1.789.864-.32 1.654-.779 2.41-1.303.894-.417 1.353-1.191 1.75-2.047.393-.852.805-1.697 1.295-2.502.351-.552.594-1.161.948-1.712.529-.744.945-1.554 1.408-2.336 1.168-1.974 2.386-3.909 3.812-5.71.116-.154.216-.319.336-.47.046-.054.1-.1.165-.135.255-.123.455-.3.556-.574.015-.043.038-.085.061-.127a.631.631 0 0 1 .247-.255c.501-.328.883-.782 1.272-1.226a.611.611 0 0 1 .097-.1c.169-.116.323-.247.439-.42a.4.4 0 0 1 .1-.097c.166-.081.324-.165.428-.327a.5.5 0 0 1 .104-.097c.313-.162.606-.354.833-.628a.477.477 0 0 1 .1-.096c.228-.101.467-.189.602-.428a3.23 3.23 0 0 1 .732-.451c.231-.054.451-.124.601-.324.166-.154.363-.255.583-.32.296-.035.566-.127.794-.328.146-.112.324-.119.497-.139.262-.057.501-.181.763-.235.047-.015.097-.027.147-.038.281-.023.543-.12.809-.205.135-.034.274-.038.413-.042.925-.081 1.847-.1 2.76.108.054 0 .108.015.158.027.166.058.336.092.509.115.046.012.093.027.135.043.166.089.339.139.524.177.247.081.471.216.706.32.142.081.293.151.439.22.266.154.528.312.756.524.277.286.563.563.84.845.05.05.093.107.135.165.131.228.336.394.509.586.097.112.166.239.235.366.112.22.208.444.37.633.613 1.021.841 2.166 1.053 3.315.1.544.2 1.083.301 1.7.346-.308.393-.655.47-.987.243-1.037.513-2.066 1.006-3.018.49-.848.999-1.677 1.712-2.367 1.233-1.195 2.66-1.893 4.402-2.067 2.313-.231 4.372.417 6.342 1.519 1.322.787 2.502 1.758 3.597 2.834.15.146.304.285.397.478.408.624.902 1.18 1.388 1.739.03.034.061.073.088.115.155.27.34.521.559.744.031.039.058.077.085.12.509.867 1.095 1.688 1.627 2.544.05.081.092.166.135.251.116.254.243.501.409.728.05.085.096.17.142.259a177.667 177.667 0 0 1 2.568 5.266c.065.142.142.277.181.431.378 1.13.921 2.19 1.38 3.285.143.339.293.675.416 1.018a3.345 3.345 0 0 0 1.415 1.765c1.303.814 2.606 1.631 3.855 2.533a51.06 51.06 0 0 1 4.869 3.971c1.003.929 1.92 1.928 2.872 2.903.282.289.498.632.795.906.37.347.404.347.782-.062.17-.27.455-.443.625-.717.416-.459.828-.917 1.245-1.376 1.384-1.434 2.448-3.119 3.708-4.653a202.948 202.948 0 0 1 3.428-4.087c1.064-1.226 2.097-2.479 3.277-3.597 1.387-1.314 2.956-2.332 4.791-2.899 1.674-.516 3.339-.528 4.962.216a6.132 6.132 0 0 1 1.893 1.377c.108.115.2.242.335.327a.822.822 0 0 1 .162.166c.1.185.251.332.374.497 1.114 1.616 1.719 3.435 2.07 5.34.667 3.639.251 7.236-.559 10.802-.844 3.712-2.128 7.278-3.585 10.79a125.764 125.764 0 0 1-1.858 4.283c-.709 1.45-1.369 2.922-2.074 4.376-.085.173-.197.327-.258.509-.617 1.326-1.304 2.613-1.997 3.897-.752 1.195-1.361 2.471-2.105 3.67-.351.679-.775 1.311-1.153 1.974-.197.243-.339.517-.478.794a.465.465 0 0 1-.062.124 1.798 1.798 0 0 0-.293.539 61.31 61.31 0 0 1-1.079 1.723c-1.342 2.001-2.71 3.979-4.16 5.903-1.426 1.893-2.891 3.758-4.445 5.551-1.476 1.704-2.96 3.4-4.568 4.985a.552.552 0 0 0-.17.258c-.59.732-1.318 1.338-1.954 2.024-.814.883-1.669 1.712-2.614 2.452-.139.108-.27.22-.432.289-.597.428-.601.455-.293 1.102a37.875 37.875 0 0 1 3.269 10.687 36.68 36.68 0 0 1 .367 4.113c.088 2.537-.054 5.05-.544 7.541-.116.59.081.971.451 1.399a16.769 16.769 0 0 1 3.235 5.517c.289.813.497 1.646.67 2.49.039.205-.034.424.097.609.023.359.092.71.127 1.064v2.078c-.104 1.65-.474 3.246-1.053 4.788-.713 1.909-1.811 3.578-3.18 5.074a5.31 5.31 0 0 1-.732.674c-.116.089-.359.162-.162.394l-.035.011Z"/><path fill="#FF5D5D" d="M138.593 122.207c2.035.008 3.993.359 5.84 1.268.413.205.648.478.601.937-.254 2.591-.435 5.189-1.148 7.71-.594 2.098-1.354 4.125-2.734 5.853-.879 1.098-1.943 1.904-3.411 2.031-1.327.116-2.429-.393-3.401-1.23-1.295-1.11-2.105-2.556-2.737-4.109-1.025-2.529-1.403-5.185-1.445-7.895-.008-.525.065-1.045.08-1.569.012-.324.213-.486.448-.66 2.351-1.738 5.038-2.344 7.907-2.336Z"/><path fill="#000" d="M149.449 109.744c1.615.748 2.563 2.005 2.679 3.774.162 2.522-1.053 4.862-3.678 5.717-2.274.741-4.969-1.087-5.393-3.623-.351-2.082.212-3.875 1.885-5.247.867-.644 1.785-1.141 2.922-1.064.563.038 1.08.216 1.588.443h-.003Z"/><path fill="#009937" d="M122.656 112.353c-.606-.173-1.168-.462-1.712-.771-.536-.304-.729-1.021-.474-1.557.266-.555.983-.806 1.631-.528 1.075.462 2.135.956 3.203 1.438 1.72.778 3.42 1.599 5.154 2.332 1.207.509 1.331 1.781.521 2.51-1.157 1.041-2.213 2.193-3.327 3.284-.524.513-1.079.991-1.619 1.488-.046.039-.089.035-.131-.007-.023-.293.216-.425.378-.594 1.345-1.427 2.841-2.699 4.209-4.106 1.034-1.064.887-1.823-.47-2.432-2.49-1.118-4.977-2.248-7.456-3.385-.193-.089-.381-.178-.586-.228-.59-.138-1.006.023-1.199.467-.177.405.004.813.513 1.129.359.224.759.359 1.137.544.189.092.455.123.455.428-.077.038-.15.038-.22-.016l-.007.004Z"/><path fill="#00A33B" d="M122.655 112.353c.078 0 .155-.007.232-.011.239-.139.447 0 .64.096 1.546.74 3.118 1.415 4.664 2.155.502.243.532.401.158.814-.813.894-1.773 1.634-2.609 2.502-.729.755-1.481 1.488-2.225 2.228-.227.227-.42.478-.451.806-.054.582.601 1.06 1.137.828.424-.185.752-.501 1.08-.821.177-.173.308-.439.628-.412.043 0 .081.007.123.011-.389.401-.763.818-1.171 1.199-.613.571-1.284.602-1.766.124-.548-.544-.551-1.226.046-1.851.578-.605 1.195-1.172 1.793-1.758 1.01-.991 2.016-1.989 3.034-2.972.266-.254.266-.351-.1-.513-1.616-.705-3.212-1.453-4.816-2.186-.138-.065-.266-.158-.4-.239h.003Z"/><path fill="#00CD4A" d="M86.21 149.859c0 .069 0 .139-.005.204-.135.193.027.436-.104.633-.146.266.031.574-.104.84-.123.158 0 .359-.085.528a.133.133 0 0 1-.15 0 .392.392 0 0 1-.077-.143c-.108-.439.139-.844.108-1.276 0-.05.008-.1.015-.15.077-.177.093-.37.097-.563a.565.565 0 0 1 .042-.135c.1-.196.027-.416.066-.62a.43.43 0 0 1 .05-.135c.08-.162.007-.351.088-.513a29.757 29.757 0 0 1 1.94-5.729c.32-.697.694-1.364 1.048-2.043.066-.127.131-.262.316-.166.043.189-.07.324-.154.478-.69 1.261-1.245 2.587-1.82 3.902-.019.046-.007.104-.011.154-.093.166-.123.355-.208.524-.224.467-.424.941-.42 1.473-.093.166-.124.355-.209.528-.13.158.012.37-.104.528-.135.336-.223.679-.216 1.045-.135.197.023.439-.1.636h-.004Z"/><path fill="#00AA3E" d="M149.449 109.744c-1.01-.32-2.028-.551-3.061-.096-.494.216-.968.474-1.45.717 1.222-1.318 3.096-1.55 4.507-.621h.004Z"/><path fill="#00CD4A" d="M105.851 125.268c.752-.52 1.569-.921 2.413-1.264-.752.52-1.511 1.033-2.413 1.264ZM94.19 134.409c.215-.509.666-.802 1.052-1.153-.212.509-.667.802-1.053 1.153ZM89.686 140.092c-.027-.243.209-.397.212-.629l.178-.235c.077-.031.112-.158.227-.096 0 .038.004.077.008.116-.208.281-.27.67-.62.84l-.005.004ZM95.662 132.836c.243-.285.443-.621.84-.736-.242.289-.443.624-.84.736Z"/><path fill="#28D466" d="M85.998 151.538c.042-.282-.108-.582.104-.841-.043.282.096.582-.104.841ZM85.893 152.058c.027-.174-.07-.374.108-.521v.625l-.096.119c-.066-.073-.073-.146-.012-.227v.004Z"/><path fill="#00CD4A" d="M97.763 130.947c.093-.166.209-.305.417-.316-.089.169-.205.308-.417.316ZM93.453 135.248c.011-.212.15-.323.316-.416-.008.212-.147.328-.316.416Z"/><path fill="#28D466" d="M87.258 145.653c-.004-.204.046-.385.208-.524.008.204-.039.389-.208.524ZM86.63 147.651c-.008-.208.042-.389.208-.528.008.208-.046.389-.208.528ZM86.21 149.861c.027-.212-.085-.447.1-.636-.027.212.077.447-.1.636ZM86.102 150.697c.03-.212-.085-.448.104-.633-.027.212.08.444-.105.633ZM86.525 148.182c.02-.181-.073-.381.104-.532-.023.178.062.378-.104.532Z"/><path fill="#00CE4B" d="M64.755 168.67c-.096-.151-.189-.301-.285-.451-.574-1.646-1.149-3.292-1.569-4.989a40.154 40.154 0 0 1-1.087-6.866c-.135-2.027-.166-4.048.231-6.052.1-.509.262-1.01.397-1.511.062-.035.116-.027.162.023.1.162.085.339.035.505-.355 1.172-.44 2.39-.598 3.593-.108.79-.1 1.584 0 2.374.043.212.05.425.05.64-.003.355-.05.71.054 1.061.066.404.031.817.128 1.218.019.196.007.397.077.59.404 3.184 1.23 6.256 2.39 9.248.073.193.2.374.158.598-.042.054-.093.061-.15.023l.007-.004Z"/><path fill="#2DD469" d="M62.566 148.807c-.043 0-.081-.004-.123-.008.111-.856.366-1.654.944-2.32l.058.057c.015.05.038.108.015.151-.397.667-.555 1.43-.894 2.12ZM63.734 145.885c.516-.389.833-1.01 1.453-1.287.054.088.027.177-.034.235-.448.443-.795.991-1.388 1.268-.02-.015-.043-.027-.062-.042l.03-.174Z"/><path fill="#2DD469" d="M63.387 146.479c.042-.185.166-.316.316-.42.015.011.03.027.046.038.062.266-.073.382-.316.42a.386.386 0 0 1-.046-.038Z"/><path fill="#CECDCD" d="M56.887 130.426c.039-.243-.208-.285-.308-.428-.814-.724-1.446-1.611-2.086-2.478-1.646-2.233-3.015-4.615-3.855-7.279-.617-1.951-.98-3.928-.701-5.983.246-1.808 1.04-3.358 2.259-4.696.732-.805 1.596-1.461 2.46-2.112.169-.127.365-.189.562-.251 3.967-2.509 8.439-3.697 12.891-4.93 2.437-.675 4.931-1.049 7.422-1.462.304-.05.632.074.917-.119.444-.243.945-.197 1.419-.243 1.376-.135 2.752-.304 4.14-.355.66-.096 1.33.027 1.99-.069.362-.038.728-.012 1.094-.015.83.088 1.67.042 2.49.208 2.09.42 4.133.956 5.918 2.193.517.155.89.532 1.28.868 1.037.902 2.016 1.858 2.668 3.099.516.96.879 1.974 1.099 3.042.011.108.034.212.057.316.024.22-.023.443.058.659.023.085.046.17.05.255.008.574.008 1.149 0 1.723 0 .089-.027.173-.05.254-.08.216-.034.444-.061.667-.367 2.059-1.003 4.033-1.82 5.953-.493 1.253-1.099 2.451-1.77 3.62-.574.906-1.11 1.835-1.711 2.721-.178.262-.363.517-.555.764-.043.061-.089.123-.131.185a39.278 39.278 0 0 1-3.088 4.051 38.244 38.244 0 0 1-4.88 5.027c-.055.047.022.008-.04.035-.956.432-.867 1.172-.655 2.013.544 2.182.98 4.39 1.415 6.596.2 1.006.143 1.97-.586 2.787-.093.104-.139.243-.204.366-.205.27-.47.463-.775.601-.825.371-1.666.698-2.53.96-.134.039-.269.07-.408.035-.262-.096-.324-.351-.443-.559-1.319-2.294-3.111-4.067-5.598-5.077-.856-.347-1.761-.42-2.664-.513-.173-.019-.35 0-.516-.061a.29.29 0 0 1-.158-.178c-.216-1.041-.44-2.078-.648-3.119-.077-.385-.293-.597-.67-.709-3.655-1.106-6.901-2.976-9.9-5.312-.19-.124-.328-.309-.525-.424-.239-.139-.386-.394-.636-.517l-.112-.1c-.289-.235-.509-.548-.832-.744a10.839 10.839 0 0 1-1.265-1.257l-.008-.008Z"/><path fill="#2DD469" d="m71.471 142.611.116.128c-.054.3-.305.316-.52.32-1.65.019-3.22.389-4.734 1.021-.128.054-.263.108-.398 0 .467-.486 1.1-.644 1.7-.844 1.153-.378 2.356-.463 3.555-.555.112.046.193-.031.281-.07Z"/><path fill="#00CD4A" d="M90.3 139.135c-.078.031-.15.061-.228.096.57-1.106 1.322-2.085 2.113-3.038.038 0 .077.004.12.008-.514.733-1.026 1.461-1.531 2.194-.166.243-.316.493-.475.74Z"/><path fill="#00CE4B" d="M66.988 172.432c-.69-1.064-1.415-2.109-1.912-3.288-.066-.158-.131-.32-.197-.482-1.03-2.259-1.67-4.638-2.193-7.051-.2-.929-.424-1.862-.436-2.826-.12-.162.02-.37-.1-.532-.15-.409-.089-.833-.108-1.253-.139-.343.038-.717-.097-1.06 0-.208-.003-.413-.007-.621-.081-.805-.081-1.611 0-2.413.058-1.214.22-2.413.551-3.589.046-.17.093-.336.081-.513.073-.844.486-1.561.867-2.29.135-.119.274-.231.317-.42.477-.501 1.025-.937 1.437-1.5.159-.077.278-.216.428-.304a.447.447 0 0 0 .32-.212c1.041-.428 2.098-.818 3.216-.991.582-.089 1.16-.197 1.757-.17.243.012.49.012.679-.189 2.248-.092 4.21.648 5.937 2.059 1.345 1.095 2.42 2.406 3.196 3.963.03.058.084.104.127.158.3.27.397.656.536 1.01 1.222 3.15 1.947 6.407 2.263 9.773.13 1.392.235 2.787.239 4.179.011 2.88-.278 5.725-1.658 8.342-.385.733-.887 1.384-1.442 1.99-.204.223-.424.478-.786.451-.282.011-.482.204-.69.35-1.646 1.161-3.485 1.654-5.478 1.519-1.257-.088-2.456-.462-3.582-1.041-.397-.3-.786-.612-1.191-.902-.833-.586-1.376-1.441-2.074-2.151v.004Z"/><path fill="#2DD469" d="M65.616 144.289c-.093.174-.2.32-.428.305.088-.174.216-.305.428-.305Z"/><path fill="#FEFEFE" d="M147.868 113.059c-.004-1.064.636-1.885 1.48-1.897.979-.011 1.681.721 1.677 1.754 0 1.138-.524 1.751-1.484 1.758-1.106.008-1.669-.536-1.673-1.615Z"/><path fill="#9F613E" d="M84.521 147.33c0 1.214.432 2.348.679 3.516.204.979.381 1.97.794 2.895.331.336.312.798.404 1.207.602 2.756 1.265 5.497 1.851 8.254.308 1.441.601 2.891.914 4.333.563 2.567 1.044 5.15 1.588 7.722.03.154.108.3-.02.447 0 .108-.007.212-.01.32-2.29.632-4.62 1.122-6.928 1.677-.81.192-1.608.435-2.425.601-.409.081-.582.254-.528.659l-.625-3.284c-.058-.301-.127-.598-.193-.899l-.023-.119c1.666-1.245 2.498-3.011 3.05-4.938.462-1.62.632-3.277.655-4.966.05-3.643-.3-7.24-1.184-10.775-.385-1.542-.855-3.061-1.5-4.518-.076-.174-.119-.362-.177-.544 1.292-.374 2.602-.694 3.674-1.58l.004-.008Z"/><path fill="#000" d="M125.909 120.541c-.37.344-.728.706-1.118 1.026-.67.551-1.171.563-1.619.077-.424-.463-.35-1.014.255-1.604 1.534-1.511 3.076-3.007 4.614-4.514.594-.578.594-.59-.135-.925-1.572-.725-3.145-1.442-4.722-2.163-.093-.042-.197-.066-.297-.096-.517-.37-1.145-.509-1.685-.833-.794-.474-.867-1.423-.119-1.812.436-.227.887-.093 1.311.104 1.191.544 2.382 1.091 3.573 1.631 1.4.636 2.803 1.264 4.199 1.9.158.074.308.162.454.259.841.543.964 1.28.27 2.008-.732.771-1.519 1.492-2.282 2.24-.91.891-1.85 1.754-2.702 2.702h.003Z"/><path fill="#2BD669" d="M61.934 152.906v2.414a5.787 5.787 0 0 1 0-2.414ZM61.941 155.939c.197.34.058.71.096 1.061-.212-.34-.061-.71-.096-1.061ZM62.15 158.252c.158.154.08.351.1.532-.173-.15-.08-.355-.1-.532Z"/><path fill="#FEFEFE" d="M86.202 113.086c.235 1.099-.12 2.121-.517 3.096-1.025 2.517-2.386 4.854-4.125 6.955-.034.038-.057.088-.084.131-.906 1.014-1.824 2.008-2.942 2.799a8.14 8.14 0 0 1-3.547 1.426c-2.259.335-4.248-.405-6.118-1.507-2.251-1.327-4.051-3.119-5.173-5.525-.347-.74-.683-1.492-.706-2.336a1.826 1.826 0 0 1 0-.945c.012-.697.447-1.187.925-1.569.984-.782 2.113-1.322 3.312-1.723 1.319-.435 2.637-.867 3.982-1.203a29.033 29.033 0 0 1 3.038-.566c.066-.008.127-.058.19-.089.23-.135.504.035.736-.104l.944-.104c.227-.147.505.038.732-.112l.633-.104c.192-.127.435.035.628-.104l.528-.104c.197-.127.44.019.64-.097l1.673-.219a3.77 3.77 0 0 1 1.365 0c.158.127.366-.02.528.104.174.038.351.073.524.112.868.038 1.612.389 2.298.89.285.235.486.521.536.895v.003Z"/><path fill="#333" d="M62.99 117.18v.944a.958.958 0 0 1 0-.944Z"/><path fill="#FD349F" d="M169.889 110c1.2-10.8 11.166-16.5 16-18l-3.5-7h7v-9l6.5 7.5 12.5-2.5-7 9.5 7 10-12.5-3.5-2.5 7.5-4-7.5c-8.4 0-16.5 8.667-19.5 13Z"/></g><rect width="254" height="64" fill="#fff" rx="20"/><path fill="#313239" d="M27.807 26.707v1.028H22.67v7.083c2.503-.006 4.155-.083 6.088-.453l.144 1.016c-2.044.387-3.735.475-6.398.475h-1.072v-9.149h6.376Zm-.828 4.752V30.43h4.055v-5.05h1.226v13.912h-1.226v-7.834h-4.055ZM49.33 25.38v5.492h2.32V31.9h-2.32v7.392h-1.227V25.38h1.227ZM39.187 35.812V26.74h6.486v1.006h-5.26v7.027c2.514-.005 4.293-.105 6.354-.486l.155 1.061c-2.177.387-4 .464-6.641.464h-1.094Zm26.137-8.331v1.016H63.27v1.934h2.055v1.039H63.27v2.154h-1.226v-8.243h1.226v2.1h2.055Zm-12.651 2c-.012-1.934 1.535-3.271 3.646-3.26 2.11-.011 3.635 1.326 3.646 3.26-.01 1.933-1.536 3.26-3.646 3.27-2.11-.01-3.658-1.337-3.647-3.27Zm1.204 0c-.011 1.315 1.027 2.22 2.442 2.232 1.414-.011 2.442-.917 2.453-2.232-.011-1.304-1.039-2.232-2.453-2.221-1.415-.011-2.453.917-2.442 2.22Zm.331 7.17c0-1.646 1.768-2.596 4.608-2.607 2.829.011 4.575.962 4.575 2.608 0 1.624-1.746 2.586-4.575 2.586-2.84 0-4.608-.962-4.608-2.586Zm1.227 0c-.011 1.006 1.282 1.592 3.381 1.592 2.1 0 3.381-.586 3.381-1.591 0-1.006-1.281-1.602-3.38-1.602-2.1 0-3.393.596-3.382 1.602Zm21.662-11.259v4.575h2.089v1.039h-2.089V35.8h-1.226V25.392h1.226ZM66.27 28.1v-1.005h3.535v-1.702h1.216v1.702h3.525v1.005h-8.276Zm.795 3.36c-.01-1.58 1.337-2.597 3.348-2.597 1.978 0 3.326 1.017 3.337 2.597-.01 1.558-1.359 2.563-3.337 2.563-2.01 0-3.359-1.005-3.348-2.563Zm1.171 0c-.01.972.862 1.602 2.177 1.59 1.293.012 2.166-.618 2.177-1.59-.011-.995-.884-1.636-2.177-1.636-1.315 0-2.188.641-2.177 1.636Zm.166 7.502v-4h1.216v2.984h8.121v1.016h-9.337Zm27.159-13.58v13.89h-1.227V25.38h1.227Zm-11.503 9.392c.602 0 1.254 0 1.934-.01V27.9h-1.57v-1.017h7.934v1.017h-1.569v6.685a47.869 47.869 0 0 0 2.299-.21l.066.917c-3.028.475-6.376.52-8.95.53l-.144-1.05Zm3.127-.033a89.966 89.966 0 0 0 2.398-.083v-6.756h-2.398v6.84Zm21.939-2.685v1.017h-9.591v-6.398h9.458v1.017h-8.243v4.364h8.376ZM97.907 37.37v-1.027h12.719v1.027H97.907Zm24.58-11.989v5.647h2.254v1.038h-2.254v7.194h-1.227V25.38h1.227Zm-10.663 10.276c3.591-1.784 5.547-4.458 5.823-7.756h-5.171v-1.028h6.42c-.011 3.934-1.857 7.514-6.387 9.746l-.685-.962Zm30.761-4.729v1.028h-2.254v7.304h-1.227V25.38h1.227v5.547h2.254Zm-12.431 4.807V26.75h1.215v7.956c2.033-.005 4.111-.166 6.398-.64l.155 1.049c-2.398.475-4.553.619-6.663.619h-1.105Zm19.574-10.188c3.094 0 4.906.862 4.906 2.409 0 1.458-1.586 2.293-4.321 2.409v1.05h5.757v1.005h-12.663v-1.006h5.702V30.36c-2.718-.116-4.298-.95-4.298-2.403 0-1.547 1.823-2.409 4.917-2.409Zm-4.785 9.006v-.962h9.492v3.116h-8.254v1.437h8.674v.972h-9.879v-3.315h8.254v-1.248h-8.287Zm1.149-6.597c-.011.95 1.337 1.47 3.636 1.48 2.309-.01 3.657-.53 3.657-1.48 0-.917-1.348-1.459-3.657-1.47-2.299.011-3.647.553-3.636 1.47Zm27.06-2.575v13.89h-1.183V25.38h1.183Zm-11.724 5.99c0-2.951 1.171-4.819 2.972-4.819 1.194 0 2.111.807 2.602 2.2h2.216V25.68h1.171v12.883h-1.171V34h-2.216c-.491 1.398-1.408 2.204-2.602 2.199-1.801.01-2.972-1.867-2.972-4.829Zm1.138 0c-.011 2.253.696 3.679 1.834 3.668 1.138.01 1.868-1.415 1.868-3.669s-.73-3.668-1.868-3.668c-1.138 0-1.845 1.414-1.834 3.668Zm4.702-1.603c.088.486.138 1.022.138 1.602 0 .575-.05 1.116-.138 1.602h1.95v-3.204h-1.95Zm19.325-4.387v8.276h-1.227v-3.635h-2.806v-1.016h2.806V25.38h1.227Zm-11.459 7.172c2.067-.752 3.536-2.63 3.536-4.62v-.519h-3.138v-1.016h7.481v1.016h-3.105v.509c0 1.812 1.392 3.536 3.425 4.232l-.641.983c-1.563-.563-2.773-1.73-3.375-3.16a6.02 6.02 0 0 1-3.542 3.547l-.641-.972Zm2.199 4.121c-.011-1.635 1.757-2.586 4.652-2.586 2.884 0 4.652.95 4.652 2.586 0 1.635-1.768 2.575-4.652 2.586-2.895-.011-4.663-.95-4.652-2.586Zm1.216 0c-.011 1.006 1.304 1.613 3.436 1.602 2.122.011 3.437-.596 3.437-1.602 0-1.017-1.315-1.624-3.437-1.624-2.132 0-3.447.608-3.436 1.624Zm21.806-11.293v13.912h-1.227V25.38h1.227Zm-10.928 5.912c0-2.95 1.469-4.829 3.547-4.84 2.055.011 3.547 1.89 3.547 4.84 0 2.961-1.492 4.84-3.547 4.84-2.078 0-3.547-1.879-3.547-4.84Zm1.182 0c0 2.265.972 3.746 2.365 3.746 1.392 0 2.353-1.481 2.353-3.746 0-2.254-.961-3.735-2.353-3.746-1.393.011-2.365 1.492-2.365 3.746Zm24.027-5.912v13.89h-1.182V25.38h1.182Zm-11.724 5.99c0-2.951 1.171-4.819 2.973-4.819 1.69 0 2.834 1.625 2.989 4.244h1.795V25.68h1.182v12.883h-1.182v-6.75h-1.79c-.121 2.706-1.276 4.397-2.994 4.386-1.802.01-2.973-1.867-2.973-4.829Zm1.149 0c-.011 2.253.708 3.679 1.824 3.668 1.138.01 1.856-1.415 1.856-3.669s-.718-3.668-1.856-3.668c-1.116 0-1.835 1.414-1.824 3.668Zm25.221 5.082v1.028h-12.718v-1.028h3.149v-3.746c-1.183-.619-1.901-1.619-1.901-2.873 0-2.154 2.111-3.569 5.072-3.58 2.972.011 5.083 1.426 5.083 3.58 0 1.238-.696 2.221-1.845 2.84v3.779h3.16Zm-10.288-6.619c0 1.547 1.614 2.586 3.89 2.586 2.265 0 3.901-1.039 3.901-2.586 0-1.558-1.636-2.585-3.901-2.574-2.276-.011-3.89 1.016-3.89 2.574Zm1.923 6.619h3.967v-3.298a8.068 8.068 0 0 1-2 .237c-.713 0-1.37-.083-1.967-.232v3.293Zm11.674-9.768-.111 8.122h-1.315l-.11-8.122h1.536Zm-1.768 10.398c-.011-.553.453-1.006 1.005-1.006a1.01 1.01 0 0 1 1.006 1.006 1.01 1.01 0 0 1-1.006 1.005c-.552 0-1.016-.453-1.005-1.005Z"/><path fill="#fff" d="m127 76 14.722-15h-29.444L127 76Z"/></svg>