<svg width="216" height="235" viebox='0 0 216 235' fill="none" xmlns="http://www.w3.org/2000/svg"><path d="M90.9 28.996c-.388-2.41-.706-5.676-.652-8.923.024-1.326.125-2.614.475-3.755.61-1.977 1.807-2.135 2.917-.32 1.169 1.905 1.767 4.266 2.382 6.607.942 3.589 1.485 7.272 1.892 10.951.295 2.658.5 5.355.336 7.975-.062.98-.17 1.926-.434 2.77-.507 1.6-1.396 1.753-2.377.389-.608-.845-1.074-1.878-1.487-2.962-1.428-3.766-2.297-7.767-3.058-12.74l.007.008Z" fill="#FFEC00"/><path d="M68.271 39.166c-1.36-2.581-3.004-6.14-4.284-9.788-.52-1.49-.95-2.96-1.082-4.34-.224-2.392.861-2.92 2.67-1.219 1.905 1.787 3.447 4.251 4.997 6.69 2.376 3.736 4.408 7.696 6.306 11.691 1.373 2.887 2.676 5.843 3.591 8.822.343 1.114.627 2.204.719 3.226.169 1.94-.624 2.373-2.125 1.135-.93-.765-1.801-1.784-2.642-2.875-2.915-3.79-5.39-8.01-8.159-13.349l.01.007Z" fill="#85DCFF"/><path d="M122.678 29.323c.527-2.87 1.032-6.758 1.163-10.621.051-1.578.023-3.11-.264-4.466-.501-2.348-1.694-2.53-2.913-.364-1.283 2.274-2.018 5.086-2.769 7.876-1.151 4.276-1.906 8.662-2.524 13.042-.448 3.165-.808 6.376-.791 9.492.006 1.166.061 2.29.278 3.293.419 1.902 1.304 2.078 2.367.449.659-1.009 1.186-2.241 1.662-3.533 1.65-4.49 2.751-9.256 3.797-15.177l-.006.009Z" fill="#FF8BCA"/><path d="M37.677 47.443c-2.552-2.733-5.686-6.666-8.233-10.984-1.036-1.766-1.922-3.566-2.305-5.448-.656-3.265 1.067-4.789 4.25-3.631 3.35 1.212 6.186 3.65 9.033 6.044 4.361 3.67 8.183 7.903 11.789 12.281 2.608 3.162 5.11 6.473 6.976 10.09.698 1.353 1.297 2.712 1.571 4.11.512 2.657-.74 3.837-3.36 3.126-1.624-.438-3.181-1.281-4.697-2.248-5.256-3.367-9.839-7.658-15.04-13.343l.016.003Z" fill="#FFEC00"/><path d="M14.11 56.162c-1.94-1.273-4.413-3.174-6.6-5.376-.891-.901-1.7-1.842-2.223-2.896-.904-1.829-.128-2.945 1.936-2.677 2.17.278 4.23 1.341 6.29 2.377 3.157 1.588 6.083 3.576 8.905 5.677 2.04 1.517 4.042 3.135 5.716 5.014.626.704 1.195 1.423 1.578 2.207.723 1.491.17 2.345-1.49 2.266-1.029-.047-2.082-.34-3.13-.711-3.636-1.295-7.022-3.22-10.993-5.88l.01-.001Z" fill="#FF8BCA"/><path d="M148.007 29.369c.729-2.27 1.481-5.39 1.809-8.564.131-1.296.171-2.57-.089-3.752-.456-2.046-1.794-2.436-3.27-.888-1.553 1.625-2.514 3.807-3.492 5.967-1.499 3.31-2.555 6.791-3.457 10.295-.653 2.532-1.209 5.119-1.336 7.703-.047.968-.039 1.91.16 2.784.383 1.66 1.374 1.985 2.649.848.791-.702 1.443-1.617 2.041-2.591 2.07-3.387 3.535-7.114 4.993-11.808l-.008.006Z" fill="#85DCFF"/><path d="M178.368 24.49c1.653-2.504 3.621-6.03 5.093-9.767.598-1.528 1.077-3.06 1.16-4.58.138-2.637-1.355-3.566-3.672-2.192-2.437 1.44-4.342 3.759-6.261 6.044-2.939 3.504-5.4 7.364-7.68 11.306-1.65 2.847-3.2 5.794-4.228 8.885-.385 1.157-.693 2.303-.747 3.43-.095 2.144.998 2.875 2.932 1.932 1.199-.582 2.3-1.47 3.356-2.447 3.66-3.4 6.7-7.42 10.058-12.615l-.011.005Z" fill="#FFEC00"/><path d="M122.772 218.578a100.66 100.66 0 0 0-5.205 1.621c-2.951 1.007-5.809 2.243-8.687 3.435-3.686 1.527-7.482 2.664-11.452 3.225-2.345.332-4.67.813-7.046.817-1.014.002-2.019-.083-2.976-.452-1.9-.73-2.284-2.351-.925-3.859.629-.696 1.403-1.213 2.151-1.734-.036-.198-.176-.183-.279-.208-5.07-1.315-8.315-4.622-10.03-9.447-2.638-7.42-.096-15.452 6.25-20.117.298-.219.426-.452.422-.822-.016-5.837 1.226-11.407 3.653-16.709.218-.479-.004-.716-.285-1-5.565-5.675-10.703-11.728-15.664-17.934-4.428-5.538-8.54-11.31-12.623-17.102a468.857 468.857 0 0 0-18.303-24.267 64.261 64.261 0 0 1-4.422-6.212c-1.18-1.887-2.767-3.135-4.89-3.796-1.814-.565-3.623-1.165-5.374-1.912-1.454-.619-2.852-1.337-4.013-2.432-2.065-1.954-2.036-4.306.08-6.212 1.58-1.422 3.51-2.111 5.55-2.523.587-.12 1.189-.172 1.785-.26.148-.02.354.03.417-.134.088-.21-.136-.297-.254-.405-1.488-1.336-2.753-2.844-3.63-4.656a9.224 9.224 0 0 1-.519-1.296c-.842-2.659.37-4.88 3.069-5.624 1.945-.536 3.85-.277 5.733.305 1.875.578 3.57 1.505 5.175 2.625.52.364.585.334.642-.283.12-1.259.306-2.506.723-3.707.207-.59.467-1.148.846-1.649 1.021-1.358 2.588-1.734 4.081-.917 1.792.974 2.663 2.597 3.03 4.531.284 1.497.158 3.02.193 4.53.016.736.193 1.363.646 1.991 4.698 6.55 9.965 12.662 14.678 19.197 1.467 2.032 2.898 4.087 4.188 6.235.29.482.477.301.71-.011 2.197-2.932 4.742-5.536 7.496-7.94a55.053 55.053 0 0 1 3.681-2.933c.65-.479 1.05-1.06 1.289-1.857 1.417-4.74 2.942-9.447 5.086-13.916 1.549-3.225 3.488-6.182 6.25-8.53 1.934-1.644 4.107-2.82 6.648-3.102 3.574-.399 6.343.993 8.319 3.995.667 1.013 1.061 2.15 1.529 3.258.083.196.064.587.328.533.277-.06.152-.43.167-.666.088-1.237.225-2.469.608-3.66 1.254-3.89 4.73-6.22 8.81-6.046 3.773.165 6.892 1.814 9.748 4.087 2.801 2.228 5.06 4.959 7.186 7.824a124.933 124.933 0 0 1 5.637 8.327c.366.584.92.814 1.494 1.032 3.139 1.203 6.178 2.617 9.069 4.337 1.035.616 2.03 1.29 3.039 1.945.522.338.588.346.704-.279.283-1.545.492-3.097.823-4.636 1.199-5.628 2.838-11.137 4.5-16.635 1.071-3.553 1.951-7.152 2.942-10.724.106-.39.068-.76-.062-1.14-.484-1.413-1.154-2.762-1.531-4.211-.506-1.946-.424-3.825.811-5.506 1.169-1.594 2.965-1.842 4.547-.667 1.246.928 2.045 2.216 2.781 3.547.114.205.217.415.315.626.197.426.368.415.62.022 1.34-2.075 2.948-3.907 5.045-5.25 1.412-.902 2.923-1.52 4.64-1.49 2.08.032 3.631 1.324 3.98 3.382.367 2.163-.154 4.203-.913 6.202-.187.487-.429.957-.639 1.434-.053.12-.187.242-.096.372.114.165.288.05.425.01 1.329-.373 2.675-.658 4.065-.682 1.554-.029 3.065.134 4.457.895 1.838 1.002 2.497 2.715 1.791 4.69-.548 1.534-1.565 2.762-2.67 3.915-1.441 1.507-3.065 2.806-4.65 4.146-1.535 1.291-2.515 2.85-2.883 4.839-1.044 5.629-2.913 11.03-4.5 16.51-2.191 7.574-4.082 15.223-5.906 22.893-2.705 11.382-5.941 22.604-10.047 33.562-1.309 3.49-2.746 6.93-4.246 10.343-.178.404-.163.696.123 1.053 3.368 4.204 5.823 8.884 7.27 14.083.129.465.379.685.822.857 9.674 3.714 13.671 14.476 10.074 22.9-1.18 2.765-3.07 4.921-5.684 6.434-.1.057-.204.114-.299.179-.031.022-.057.051-.091.086.094.242.345.22.526.281.789.275 1.569.578 2.257 1.065 1.417 1.009 1.491 2.483.167 3.615-1.162.989-2.588 1.384-4.037 1.705-5.304 1.181-10.61 1.098-15.947.17a55.354 55.354 0 0 0-9.884-.828c-2.302.016-4.606.148-6.904.315.012-.097.006-.204.047-.283.554-1.082.84-2.257 1.076-3.428 2.196-10.85.43-21.11-4.723-30.833-.858-1.62-2.024-3.035-3.432-4.23-1.418-1.206-3.009-1.979-4.919-1.962-1.288.014-2.538.277-3.789.562-1.983.451-3.38 1.649-4.465 3.288-1.075 1.624-1.778 3.409-2.208 5.293-1.213 5.342-1.366 10.736-.623 16.148.813 5.951 2.529 11.596 5.874 16.666.245.372.419.784.629 1.178l.008-.002ZM40.774 101.04c.3-.08.608-.136.895-.24 2.362-.866 3.957-2.6 5.247-4.665.777-1.246 1.32-2.594 1.38-4.091.108-2.6-1.886-4.103-4.347-3.27-.293.1-.588.21-.857.36-2.885 1.606-4.856 3.992-5.96 7.092-.31.872-.339 1.795-.149 2.7.155.747.463 1.481 1.219 1.731.814.272 1.672.52 2.572.378v.005Zm98.826 52.669c-9.958 6.299-20.475 7.013-31.474 3.763.074.223.237.347.418.464.569.371 1.127.755 1.692 1.13 3.106 2.053 6.454 3.399 10.179 3.838 3.908.462 7.555-.223 10.961-2.182 2.555-1.471 4.805-3.33 6.884-5.404.471-.466.968-.928 1.336-1.608l.004-.001Zm35.746-88.937c-1.4.172-2.586.581-3.122 1.92-.504 1.26-.05 2.393.772 3.341 2.184 2.538 5.028 3.604 8.314 3.271 2.689-.272 3.674-2.518 2.312-4.85-.599-1.026-1.491-1.671-2.491-2.198-1.834-.964-3.71-1.805-5.785-1.484Z" fill="#00CF4B"/><path fill-rule="evenodd" clip-rule="evenodd" d="M93.244 86.21a1.433 1.433 0 0 1 1.585-1.28l14.508 1.695-9.652 10.618a1.42 1.42 0 0 1-2.027.08 1.47 1.47 0 0 1-.086-2.056l5.825-6.408-8.886-1.038a1.457 1.457 0 0 1-1.267-1.612ZM130.396 80.623a1.433 1.433 0 0 0-1.894-.747l-13.339 5.951 12.382 7.25a1.421 1.421 0 0 0 1.959-.53 1.469 1.469 0 0 0-.532-1.987l-7.474-4.376 8.17-3.645a1.456 1.456 0 0 0 .728-1.916Z" fill="#000"/><path d="M122.774 218.579c-.21-.394-.384-.81-.629-1.177-3.345-5.067-5.057-10.716-5.874-16.666-.743-5.413-.586-10.807.623-16.148.426-1.884 1.133-3.673 2.208-5.293 1.09-1.64 2.482-2.837 4.465-3.288 1.256-.286 2.501-.548 3.789-.562 1.905-.021 3.497.756 4.919 1.962 1.408 1.195 2.574 2.609 3.432 4.23 5.149 9.723 6.915 19.983 4.723 30.832-.235 1.172-.522 2.346-1.076 3.428-.04.084-.03.19-.047.283-2.066.138-4.133.26-6.196.48-2.688.285-5.313.863-7.945 1.433-.796.171-1.59.328-2.388.49l-.004-.004Z" fill="#DBFF9E"/><path d="M117.146 102.298c4.555-.641 8.627-.625 12.684.161.492.096.972.289 1.466.371.654.109.918.491.965 1.114.055.705-.001 1.399-.108 2.087-.609 3.903-2.104 7.458-4.341 10.697-2.119 3.063-5.235 4.71-8.705 5.651-4.887 1.326-9.377.216-13.434-2.728-1.726-1.251-3.136-2.83-4.321-4.604-.788-1.177-1.544-2.371-2.121-3.673-.389-.878-.396-.994.353-1.628 2.8-2.384 6.01-4.04 9.426-5.336 2.785-1.053 5.644-1.815 8.137-2.107l-.001-.005Z" fill="#FF5D5D"/><path d="M87.482 112.318c-1.247.19-2.945.269-4.647.033-.695-.098-1.374-.259-1.985-.623-1.058-.635-1.187-1.662-.28-2.499.953-.882 2.166-1.253 3.368-1.639 1.843-.591 3.751-.837 5.662-.967 1.38-.096 2.785-.113 4.163.18.516.11 1.015.257 1.468.531.858.525.972 1.29.295 2.044-.419.468-.942.803-1.494 1.091-1.917.994-3.979 1.498-6.553 1.854l.003-.005ZM144.008 99.05a21.782 21.782 0 0 1 5.353-.143c.503.047 1.003.137 1.472.319.616.238 1.277.462 1.405 1.238.129.777-.425 1.198-.937 1.618a5.626 5.626 0 0 1-1.238.754c-3.471 1.554-7.103 2.128-10.885 1.74-.717-.073-1.412-.262-2.035-.642-1.027-.631-1.149-1.637-.271-2.466.912-.864 2.084-1.25 3.251-1.614a19.093 19.093 0 0 1 3.89-.8l-.005-.004Z" fill="#FFA7AE"/><path d="M40.776 101.039c-.9.142-1.759-.107-2.573-.378-.756-.254-1.064-.984-1.218-1.73-.19-.91-.163-1.834.149-2.701 1.105-3.096 3.08-5.483 5.96-7.093.268-.15.564-.26.856-.36 2.462-.832 4.456.67 4.348 3.27-.06 1.498-.604 2.846-1.38 4.092-1.292 2.06-2.89 3.8-5.247 4.664-.288.105-.6.161-.895.24v-.004Z" fill="#DBFF9E"/><path d="M139.601 153.709c-.372.682-.869 1.143-1.336 1.609-2.078 2.073-4.332 3.938-6.883 5.404-3.402 1.958-7.053 2.643-10.962 2.182-3.724-.44-7.077-1.785-10.179-3.838-.565-.375-1.123-.76-1.692-1.13-.18-.117-.344-.241-.418-.464 10.995 3.25 21.517 2.535 31.474-3.763h-.004Z" fill="#00C62E"/><path d="M175.345 64.772c2.075-.321 3.951.516 5.785 1.484 1 .526 1.892 1.171 2.491 2.198 1.358 2.337.378 4.582-2.312 4.85-3.286.329-6.126-.734-8.314-3.27-.817-.95-1.276-2.086-.772-3.342.536-1.339 1.722-1.748 3.122-1.92Z" fill="#DBFF9E"/><path d="M115.888 111.712c2.52-.339 4.93-.228 7.271.389 1.778.47 2.862 1.371 3.624 2.597.951 1.524.92 3.155.667 4.833-.466 3.115-1.53 6.138-3.528 9.012-.671.961-1.515 1.858-2.45 2.705-1.728 1.567-3.962 1.998-6.256 1.199-1.698-.591-2.927-1.568-3.905-2.712-2.345-2.749-3.863-5.788-4.611-9.068-.264-1.156-.238-2.337.013-3.534.387-1.832 1.734-3.14 3.963-4.033 1.663-.667 3.385-1.148 5.205-1.381l.007-.007Z" fill="#FFA7AE"/><path d="M198.155 132.657c-.978-2.959-2.184-5.787-4.284-8.155-2.357-2.657-5.24-4.317-8.758-4.829-.187-.027-.413-.005-.562-.379 8.836-1.479 12.442-7.829 14.332-15.795 1.893 8.022 5.522 14.335 14.348 16.04-.61.124-1.228.222-1.831.374-5.82 1.479-9.145 5.556-11.174 10.946-.428 1.141-.711 2.336-1.061 3.507-.224.277-.511.543-.591-.044a7.693 7.693 0 0 0-.419-1.663v-.002ZM188.372 164.396c-.723-2.13-1.615-4.166-3.167-5.871-1.742-1.913-3.873-3.109-6.473-3.477-.139-.02-.306-.004-.416-.274 6.531-1.064 9.196-5.636 10.593-11.372 1.399 5.776 4.082 10.322 10.606 11.549-.452.09-.908.16-1.354.27-4.301 1.064-6.759 4-8.259 7.881-.317.821-.525 1.682-.784 2.524-.166.2-.378.392-.437-.031a5.47 5.47 0 0 0-.309-1.197v-.002ZM68.546 176.187c-3.085.37-6.166.751-9.25 1.103-1.24.143-1.496.684-1.065 1.874.653 1.791 1.524 3.473 2.615 5.396-1.893-.89-3.44-1.71-5.057-2.352-1.665-.663-2.034-.416-2.29 1.539-.553 4.264-1.026 8.536-1.534 12.805-.062.509.063 1.05-.37 1.717-.555-1.016-.476-2.035-.597-2.991-.48-3.804-.89-7.616-1.426-11.413-.36-2.547-.736-2.725-3.168-1.755-.95.377-1.844.89-2.998 1.452.556-1.574 1.416-2.796 1.817-4.216.321-1.148.152-1.654-1.133-1.878-4.656-.806-9.358-1.197-14.035-1.818-.449-.059-.898-.115-1.374-.517 2.804-.331 5.61-.645 8.407-.998 2.283-.286 4.556-.652 6.843-.904 1.13-.125 1.31-.617.998-1.622-.58-1.875-1.523-3.564-2.888-5.598 1.98.896 3.475 1.633 5.02 2.254 1.923.775 2.217.639 2.49-1.385.573-4.258 1.036-8.533 1.575-12.798.076-.594-.031-1.26.608-1.951.366 3.207.694 6.233 1.057 9.255.235 1.962.497 3.92.784 5.874.218 1.49.853 2.129 2.48 1.476 1.22-.492 2.335-1.183 3.848-1.867-.784 1.602-1.603 2.841-1.99 4.275-.307 1.156-.18 1.861 1.24 2.018 3.486.383 6.96.883 10.44 1.333 1.602.384 3.364-.122 5.225 1.012-2.317.296-4.3.502-6.28.687l.008-.007Z" fill="#FFEC00"/></svg>