<svg width="1075" height="1075" viewBox="0 0 1075 1075" fill="none" xmlns="http://www.w3.org/2000/svg">
<path d="M601.173 1027.9C594.467 1027.37 587.826 1026.78 581.152 1026.22C575.149 1025.72 569.178 1025.16 563.175 1024.85C546.986 1024.02 530.765 1024.39 514.577 1024.98C504.965 1025.32 495.322 1025.72 485.551 1027.8C481.592 1021.13 478.654 1014.18 475.685 1007.22C467.862 988.909 463.487 969.664 460.454 950.17C458.538 937.847 457.804 925.4 457.452 912.921C456.462 877.566 462.05 843.142 472.428 809.369C475.621 799.002 480.634 789.317 485.807 779.415C485.999 779.136 485.967 779.105 485.998 779.105C487.02 778.142 487.563 776.901 488.266 775.473C488.457 775.287 488.425 775.225 488.457 775.225C489.032 774.635 489.383 773.952 489.894 773.114C490.054 772.959 490.054 772.896 490.086 772.896C490.628 772.369 490.98 771.717 491.523 770.879C491.714 770.693 491.714 770.568 491.778 770.568C491.906 770.413 492.001 770.258 492.289 769.948C492.48 769.792 492.48 769.73 492.48 769.73C493.055 769.234 493.375 768.613 493.949 767.806C494.173 767.62 494.173 767.464 494.237 767.433C494.364 767.247 494.428 767.092 494.684 766.844C494.907 766.719 494.875 766.626 494.939 766.626C495.099 766.471 495.163 766.347 495.482 766.036C495.674 765.881 495.674 765.819 495.705 765.819C495.865 765.695 495.961 765.54 496.28 765.229C496.472 765.043 496.472 765.012 496.472 765.012C497.27 764.298 498.004 763.522 498.771 762.436C498.994 762.281 499.122 762.032 499.409 761.815C499.697 761.598 499.856 761.287 500.176 761.07C500.495 760.822 500.655 760.511 500.974 760.294C501.293 760.077 501.485 759.735 501.772 759.58C502.443 759.021 502.826 758.618 503.497 758.121C504.295 757.407 505.189 757.314 505.923 756.6C506.083 756.445 506.083 756.414 506.115 756.414C506.275 756.29 506.402 756.166 506.722 755.824C506.913 755.638 506.913 755.607 506.913 755.607C507.041 755.483 507.201 755.358 507.52 755.048C507.711 754.862 507.711 754.831 507.711 754.831C507.839 754.707 507.967 754.582 508.318 754.303C508.542 754.148 508.542 754.086 508.606 754.086C508.733 753.962 508.797 753.806 509.148 753.62C515.886 748.84 523.613 747.878 531.308 746.822C541.175 745.488 551.042 745.332 560.844 747.319C575.405 750.268 585.303 759.58 593.893 770.537C597.948 775.721 601.301 781.34 604.334 787.486C604.526 787.858 604.653 787.951 604.813 788.262C604.941 788.603 605.005 788.758 605.164 789.1C605.356 789.41 605.452 789.503 605.611 789.814C605.707 790.155 605.803 790.31 605.963 790.683C606.154 790.993 606.282 791.086 606.41 791.366C606.505 791.738 606.569 791.893 606.729 792.297C606.952 792.607 607.08 792.669 607.144 792.949C607.176 793.321 607.272 793.476 607.463 793.942C607.846 794.408 608.006 794.656 608.102 795.246C608.23 795.649 608.294 795.774 608.421 796.146C608.613 796.456 608.709 796.549 608.836 796.86C608.932 797.232 608.996 797.388 609.124 797.822C609.475 798.288 609.635 798.567 609.698 799.157C609.826 799.561 609.89 799.685 610.018 800.088C610.209 800.399 610.305 800.492 610.401 800.802C610.465 801.175 610.561 801.361 610.688 801.764C611.04 802.23 611.231 802.478 611.263 803.068C611.359 803.472 611.423 803.627 611.55 804.03C611.87 804.527 612.029 804.806 612.093 805.396C612.189 805.8 612.253 805.955 612.381 806.358C612.7 806.855 612.828 807.165 612.923 807.755C613.051 808.159 613.083 808.314 613.211 808.717C613.53 809.214 613.658 809.494 613.722 810.114C613.818 810.518 613.881 810.673 614.009 811.108C614.903 814.274 615.733 817.192 616.755 820.358C616.979 820.948 617.074 821.289 617.202 821.91C618.256 827.249 619.661 832.246 620.842 837.554C621.034 838.144 621.13 838.517 621.225 839.106C622.471 845.656 623.844 851.926 624.993 858.538C625.121 859.19 625.185 859.562 625.249 860.214C625.217 861.642 625.536 862.728 625.792 864.094C625.919 864.684 625.951 865.056 626.015 865.708C626.43 870.178 626.909 874.4 627.42 878.901C627.548 879.801 627.612 880.422 627.644 881.353C627.58 885.078 628.25 888.492 628.218 892.217C628.346 893.614 628.41 894.762 628.41 896.221C628.601 902.274 628.474 908.017 628.442 914.07C628.41 915.529 628.378 916.646 628.346 918.105C628.059 922.109 627.644 925.772 627.644 929.745C627.612 930.428 627.612 930.801 627.548 931.453C627.26 933.874 626.845 935.984 626.845 938.375C626.813 939.026 626.781 939.399 626.718 940.051C625.855 943.714 625.855 947.19 625.217 950.884C625.153 951.536 625.121 951.908 625.057 952.56C624.227 955.199 624.291 957.682 623.652 960.32C623.588 960.941 623.556 961.314 623.461 961.935C622.471 965.349 622.056 968.577 621.225 972.023C621.13 972.644 621.098 972.985 620.97 973.575C620.044 976.213 619.533 978.696 618.831 981.397C618.735 982.018 618.703 982.359 618.543 982.949C617.234 986.953 615.957 990.678 614.807 994.682C614.712 995.303 614.616 995.676 614.392 996.297C614.328 996.7 614.36 996.824 614.201 997.073C613.977 997.352 613.945 997.476 613.818 997.88C612.476 1000.39 611.774 1002.85 610.944 1005.55C610.72 1005.92 610.688 1006.07 610.529 1006.45C609.954 1007.5 609.571 1008.37 609.315 1009.49C609.092 1009.83 609.028 1009.99 608.868 1010.39C608.741 1010.76 608.741 1010.92 608.549 1011.17C608.325 1011.44 608.294 1011.6 608.134 1011.94C607.24 1013.46 606.441 1014.77 606.058 1016.5C605.835 1016.85 605.771 1017.03 605.579 1017.44C605.452 1017.81 605.452 1017.96 605.292 1018.21C605.037 1018.49 605.005 1018.65 604.813 1019.02C604.685 1019.39 604.685 1019.52 604.494 1019.79C604.27 1020.07 604.238 1020.23 604.079 1020.57C603.472 1021.59 603.089 1022.46 602.833 1023.61C602.642 1023.95 602.578 1024.11 602.45 1024.48C601.843 1025.54 601.46 1026.41 601.237 1027.55C601.237 1027.74 601.205 1027.87 601.173 1027.9Z" fill="#DBFF9E"/>
<path d="M390.843 723.013C230.47 656.207 195.295 498.149 346.82 396.385C356.921 388.26 371.869 384.813 379.005 373.819C394.604 340.067 410.443 304.964 437.18 278.444C473.705 239.725 529.999 246.452 536.846 304.53C547.454 240.569 605.219 241.317 642.925 284.447C656.234 299.274 666.504 316.368 675.665 333.967C686.177 349.083 688.756 370.854 703.728 382.089C866.391 471.533 864.8 637.908 695.459 717.95C693.675 718.721 691.842 719.999 694.109 721.59C712.721 738.635 728.994 758.115 740.808 780.464C752.235 801.704 760.336 824.825 763.542 848.789C763.735 852.646 765.35 855.105 769.087 856.528C769.256 856.889 769.979 856.889 770.269 857.155C770.679 857.637 771.643 857.781 772.125 858.336C773.861 859.493 775.983 860.385 777.574 862.001C778.201 862.627 779.406 863.037 780.009 863.833C781.118 864.773 782.637 865.713 783.673 866.871C783.721 867.039 784.18 867.353 784.324 867.449C786.976 869.547 789.556 871.861 791.605 874.778C832.108 919.09 818.945 987.102 768.388 1012.58C792.328 1022.16 788.182 1042.34 762.819 1044.34C743.074 1047.01 723.232 1045.04 703.535 1043.08C701.799 1042.94 701.197 1043.28 701.414 1045.2C695.989 1102.22 607.124 1065.41 588.198 1033.97C583.81 1028.35 586.438 1021.96 589.355 1016.18C592.007 1010.25 594.901 1004.44 596.877 998.24C612.934 951.71 612.066 900.31 598.348 853.273C589.693 819.159 563.704 790.518 526.07 803.826C492.679 819.93 486.724 864.05 481.565 897.031C477.9 930.735 480.504 965.645 491.714 997.83C493.764 1004.82 497.428 1011.16 499.96 1017.96C504.637 1024.95 503.19 1031.99 497.91 1037.51C477.104 1066.71 391.976 1100.87 387.299 1045.06C387.516 1043.3 386.913 1042.94 385.322 1043.08C363.455 1045.16 341.251 1047.78 319.504 1043.08C294.624 1035.9 302.845 1020.85 321.313 1011.43C267.309 990.356 258.629 914.486 297.107 874.754C299.156 872.078 301.567 869.498 304.388 867.425C304.581 867.425 304.919 866.967 305.015 866.871C306.1 865.882 307.378 864.701 308.68 863.833C309.33 863.206 310.222 862.531 311.115 862.001C312.706 860.602 314.61 859.397 316.563 858.336C317.021 857.926 317.865 857.589 318.42 857.155C318.661 856.938 319.312 856.793 319.625 856.504C320.734 855.563 322.59 854.937 323.916 854.117C326.809 841.58 328.979 827.766 333.03 815.229C333.512 814.892 333.174 813.783 333.632 813.397C334.114 813.059 333.777 811.95 334.259 811.589C334.741 811.251 334.404 810.118 334.886 809.781C336.067 808.551 335.995 806.405 336.694 804.911C337.562 804.26 337.345 802.693 337.9 801.873C338.792 801.246 338.526 799.655 339.129 798.835C340.238 797.895 340.19 795.749 340.961 794.592C341.853 793.025 342.794 791.554 343.348 789.698C343.662 789.505 343.71 788.758 343.951 788.468C344.385 787.866 344.698 786.636 345.156 786.033C345.494 785.865 345.518 785.117 345.759 784.828C346.072 784.635 346.121 783.912 346.362 783.622C346.675 783.43 346.723 782.73 346.964 782.417C347.929 781.597 348.266 779.934 348.821 778.801C349.086 778.584 349.134 777.74 349.448 777.595C349.52 777.451 349.858 777.065 349.978 776.92C350.701 776.534 350.677 775.136 351.232 774.533C351.328 774.437 351.69 773.955 351.786 773.858C352.148 773.714 352.172 772.99 352.437 772.677C352.992 772.315 353.329 771.496 353.619 770.821C353.98 770.676 354.004 769.977 354.269 769.639C354.535 769.446 354.631 768.627 354.92 768.458C355.017 768.337 355.354 767.952 355.475 767.783C356.319 767.108 356.463 765.589 357.331 764.769C357.476 764.697 357.765 764.239 357.886 764.118C358.247 763.95 358.247 763.299 358.537 762.937C359.067 762.527 359.188 761.587 359.766 761.105C359.887 761.032 360.248 760.55 360.321 760.43C360.948 760.164 361.02 759.08 361.55 758.646C361.84 758.453 361.936 757.633 362.225 757.488C370.567 746.181 379.777 735.646 389.999 726.002C390.77 725.279 392.265 724.58 390.794 722.989L390.843 723.013Z" fill="#00CF4B"/>
<path d="M491.14 294.452C523.229 314.848 478.603 364.344 460.473 326.059C452.927 308.17 472.552 284.808 491.14 294.452Z" fill="#001602"/>
<path d="M582.128 331.146C566.578 318.151 576.631 284.881 598.498 290.112C634.927 300.142 614.868 352.313 582.128 331.146Z" fill="#001602"/>
<path d="M568.84 401.643C575.928 401.257 580.967 397.135 586.826 394.097C595.746 392.988 586.609 403.499 582.679 404.633C570.19 411.817 555.725 409.478 543.381 403.475C531.013 405.067 519.417 414.083 505.241 411.504C497.864 411.913 476.359 401.619 485.93 393.422C488.172 392.747 489.426 394.025 490.486 395.905C500.154 409.454 521.081 404.367 534.027 399.015C545.865 393.109 556.135 404.56 568.864 401.643H568.84Z" fill="#002D12"/>
<path d="M482.576 313.886C476.573 303.905 492.243 295.66 496.414 306.702C500.754 316.104 489.375 321.818 482.576 313.886Z" fill="#EBECED"/>
<path d="M610.545 305.18C611.702 320.609 590.029 314.534 596.273 302.07C599.576 295.15 609.412 298.333 610.545 305.18Z" fill="#EBECED"/>
<path d="M540.169 736.176H445.283C521.192 779.839 599.064 754.369 628.511 736.176H540.169Z" fill="#00C62E"/>
</svg>
