<svg width="1075" height="1085" viewBox="0 0 1075 1085" fill="none" xmlns="http://www.w3.org/2000/svg">
<path d="M162.16 620.116C162.16 620.116 232.986 715.503 345.465 720.665L335.05 761.643C335.05 761.643 231.862 774.631 209.691 823.12L218.774 739.372L139.248 790.259L177.845 702.665L83 754.117L162.16 620.116Z" fill="#574040"/>
<path d="M815.637 620.116C815.637 620.116 744.811 715.503 632.332 720.665L642.747 761.643C642.747 761.643 745.935 774.631 768.106 823.12L759.023 739.372L838.549 790.259L799.952 702.665L894.797 754.117L815.637 620.116Z" fill="#574040"/>
<path d="M394.153 298.763C394.153 298.763 222.953 321.076 222.953 172.88C222.953 172.88 155.882 270.082 258.162 334.722C330.079 380.171 394.153 380.129 394.153 380.129V298.772V298.763Z" fill="#574040"/>
<path d="M583.643 298.763C583.643 298.763 754.842 321.076 754.842 172.88C754.842 172.88 821.913 270.082 719.633 334.722C647.717 380.171 583.643 380.129 583.643 380.129V298.772V298.763Z" fill="#574040"/>
<path d="M443.516 1026.22C443.516 1026.22 480.14 996.342 522.451 1026.22L561.981 917.881L521.127 784.971L451.409 780.067L398.574 910.255L443.516 1026.21V1026.22Z" fill="#FFB0B0"/>
<path d="M645.902 1032.62C725.953 1040.56 726.144 1026.04 729.267 1019C732.397 1011.97 711.558 1001.06 711.558 1001.06C746.942 982.363 760.629 961.466 760.629 919.987C760.629 878.509 719.551 847.013 713.248 845.515C706.946 844.016 707.104 836.715 707.104 836.715C703.099 761.634 641.173 710.931 641.173 710.931C709.077 677.537 784.64 628.974 784.64 531.831C784.64 434.687 654.311 365.485 654.311 365.485C620.884 291.379 580.829 241.083 537.919 241.083C495.009 241.083 493.493 280.497 490.113 291.12C489.53 292.944 488.889 292.902 488.889 292.902C488.889 292.902 488.248 292.944 487.666 291.12C484.285 280.497 482.762 241.083 439.86 241.083C396.958 241.083 356.895 291.379 323.468 365.485C323.468 365.485 193.139 434.687 193.139 531.831C193.139 628.974 268.702 677.529 336.606 710.931C336.606 710.931 274.68 761.634 270.675 836.715C270.675 836.715 270.833 844.008 264.531 845.515C258.228 847.013 217.15 878.509 217.15 919.987C217.15 961.466 230.837 982.371 266.221 1001.06C266.221 1001.06 245.39 1011.97 248.512 1019C251.643 1026.04 251.826 1040.56 331.877 1032.62C331.877 1032.62 334.732 1031.71 334.641 1035.35C334.541 1038.98 332.41 1050.92 349.211 1059.67C366.012 1068.42 408.797 1067.56 449.409 1026.23C449.409 1026.23 458.118 1017.91 450.691 1007.84C443.265 997.765 426.764 960.125 430.127 899.515C433.491 838.904 458.901 789.084 488.873 789.084C518.845 789.084 544.255 838.904 547.618 899.515C550.982 960.125 534.481 997.765 527.054 1007.84C519.628 1017.91 528.336 1026.23 528.336 1026.23" fill="#DD5050"/>
<path d="M411.327 323.548C396.615 309.961 401.702 288.139 419.319 280.563C430.151 275.909 440.666 282.328 444.812 292.235C449.433 303.3 445.595 315.739 436.162 323.265C430.301 327.944 419.286 329.476 411.327 323.54V323.548Z" fill="#040C06"/>
<path d="M429.552 303.409C425.139 300.228 424.356 295.433 427.412 291.511C429.976 288.231 434.547 287.782 437.944 290.462C441.682 293.418 442.59 299.629 439.784 302.993C437.661 305.54 434.505 305.698 429.552 303.4V303.409Z" fill="#FEFFFE"/>
<path d="M559.148 288.473C562.969 295.616 564.934 302.801 561.462 310.444C557.716 318.695 550.955 322.966 542.172 323.607C532.989 324.281 525.704 320.526 521.333 312.251C518.336 306.573 518.469 300.445 519.593 294.176C520.717 287.898 523.614 282.994 528.959 279.589C534.262 276.209 539.916 275.451 545.735 278.074C550.939 280.422 555.867 283.228 559.148 288.473Z" fill="#040C06"/>
<path d="M553.364 299.13C549.776 302.568 546.578 302.943 543.215 300.487C540.068 298.18 538.969 293.626 540.651 289.863C542.224 286.35 545.255 284.926 549.126 285.883C554.296 287.157 556.303 293.168 553.364 299.13Z" fill="#FEFFFE"/>
<path d="M416.931 381.045L417.838 438.159L451.973 391.394L416.931 381.045Z" fill="white"/>
<path d="M563.628 379.78L562.712 436.885L528.577 390.128L563.628 379.78Z" fill="white"/>
<path d="M543.688 377.066C550.606 375.301 556.151 371.646 561.804 368.157C564.36 366.584 567.532 364.228 570.146 367.25C572.677 370.172 570.946 373.561 568.656 376C560.713 384.475 550.648 388.946 539.258 390.062C524.922 391.469 511.326 388.322 498.479 381.928C496.29 380.837 494.55 380.979 492.418 382.119C476.933 390.437 460.423 395.24 442.789 394.566C430.401 394.092 419.245 389.704 410.636 380.296C407.805 377.199 405.258 373.819 406.931 369.09C407.672 367 408.838 365.593 411.194 365.485C413.55 365.368 416.206 365.102 417.33 367.649C422.283 378.897 432.632 381.453 442.923 381.928C459.599 382.702 475.75 379.305 490.487 370.88C493.459 369.181 496.29 369.173 499.304 370.597C510.485 375.892 522.224 378.697 534.654 378.506C537.626 378.464 540.49 377.965 543.688 377.066Z" fill="#001D08"/>
<path d="M648.377 1069.62L842.614 466.308L753.654 352.497L856.342 184.469L805.931 344.746L856.342 419.709L842.614 466.308" stroke="#574040" stroke-width="30" stroke-miterlimit="10" stroke-linecap="round"/>
<path d="M842.934 466.308L753.975 352.497L856.654 184.47L806.243 344.746L856.654 419.71L842.934 466.308Z" fill="#574040"/>
<path d="M648.372 1069.63L839.27 465.244L977.692 423.949L991.238 227.489L939.552 387.358L855.055 419.303L839.27 465.244" stroke="#574040" stroke-width="30" stroke-miterlimit="10" stroke-linecap="round"/>
<path d="M839.012 465.061L977.433 423.757L990.979 227.306L939.294 387.175L854.789 419.12L839.012 465.061Z" fill="#574040"/>
<path d="M963.654 88.0596L839.012 403.825L883.878 417.313L963.654 88.0596Z" fill="#574040"/>
<path d="M684.487 756.673C684.487 756.673 708.199 707.452 756.438 712.464C804.676 717.476 797.882 782.799 797.882 782.799C797.882 782.799 791.846 846.69 735.665 860.052C679.484 873.415 684.487 756.673 684.487 756.673Z" fill="#DD5050"/>
<path d="M753.649 749.796C753.649 749.796 695.711 752.219 647.856 707.452C600.008 662.694 622.987 810.989 622.987 810.989L691.948 836.899L753.649 749.796Z" fill="#DD5050"/>
<path d="M412.894 722.638C412.894 722.638 484.361 735.459 564.911 722.638C564.911 722.638 531.384 747.673 490.472 747.673C449.56 747.673 412.894 722.638 412.894 722.638Z" fill="#B23D3D"/>
</svg>
