<svg width="1075" height="1075" viewBox="0 0 1075 1075" fill="none" xmlns="http://www.w3.org/2000/svg">
<path d="M800.442 350.504H651.777V408.754H800.442V350.504Z" fill="#AFAFAF"/>
<path d="M660.9 341.729L678.137 419.285" stroke="#939393" stroke-width="8" stroke-miterlimit="10" stroke-linecap="round"/>
<path d="M685.446 341.729L702.683 419.285" stroke="#939393" stroke-width="8" stroke-miterlimit="10" stroke-linecap="round"/>
<path d="M708.873 341.729L726.118 419.285" stroke="#939393" stroke-width="8" stroke-miterlimit="10" stroke-linecap="round"/>
<path d="M733.327 341.729L750.572 419.285" stroke="#939393" stroke-width="8" stroke-miterlimit="10" stroke-linecap="round"/>
<path d="M757.276 341.729L774.513 419.285" stroke="#939393" stroke-width="8" stroke-miterlimit="10" stroke-linecap="round"/>
<path d="M781.217 341.729L798.453 419.285" stroke="#939393" stroke-width="8" stroke-miterlimit="10" stroke-linecap="round"/>
<path d="M903.181 278.856H800.45V346.038H903.181V278.856Z" fill="#D1D1D1"/>
<path d="M903.181 346.038H800.45V413.22H903.181V346.038Z" fill="#AFAFAF"/>
<path d="M903.181 413.22H800.45V480.402H903.181V413.22Z" fill="#8E8E8E"/>
<path d="M290.732 408.754H439.396V350.504H290.732V408.754Z" fill="#AFAFAF"/>
<path d="M430.28 341.729L413.035 419.285" stroke="#939393" stroke-width="8" stroke-miterlimit="10" stroke-linecap="round"/>
<path d="M405.726 341.729L388.489 419.285" stroke="#939393" stroke-width="8" stroke-miterlimit="10" stroke-linecap="round"/>
<path d="M382.3 341.729L365.063 419.285" stroke="#939393" stroke-width="8" stroke-miterlimit="10" stroke-linecap="round"/>
<path d="M357.846 341.729L340.609 419.285" stroke="#939393" stroke-width="8" stroke-miterlimit="10" stroke-linecap="round"/>
<path d="M333.905 341.729L316.669 419.285" stroke="#939393" stroke-width="8" stroke-miterlimit="10" stroke-linecap="round"/>
<path d="M309.965 341.729L292.729 419.285" stroke="#939393" stroke-width="8" stroke-miterlimit="10" stroke-linecap="round"/>
<path d="M187.999 346.038H290.73V278.856H187.999V346.038Z" fill="#D1D1D1"/>
<path d="M187.999 413.22H290.73V346.038H187.999V413.22Z" fill="#AFAFAF"/>
<path d="M187.999 480.394H290.73V413.212H187.999V480.394Z" fill="#8E8E8E"/>
<path d="M506.304 1037.28C506.304 1037.28 542.758 1007.54 584.871 1037.28L624.216 929.456L583.553 797.18L514.16 792.3L461.572 921.867L506.304 1037.27V1037.28Z" fill="#CFD1A6"/>
<path d="M594.392 255.904C551.682 255.904 550.174 295.129 546.809 305.702C546.229 307.516 545.591 307.475 545.591 307.475C545.591 307.475 544.953 307.516 544.373 305.702C541.009 295.129 539.492 255.904 496.791 255.904C470.074 255.904 444.46 275.5 420.884 308.229H670.299C646.723 275.5 621.109 255.904 594.392 255.904Z" fill="#84894F"/>
<path d="M768.894 857.436C762.621 855.944 762.779 848.677 762.779 848.677C758.793 773.955 697.156 723.494 697.156 723.494C764.743 690.259 839.953 641.928 839.953 545.248C839.953 448.568 710.232 379.695 710.232 379.695C700.073 357.174 689.3 336.865 678.014 319.515H413.152C401.865 336.865 391.093 357.174 380.933 379.695C380.933 379.695 251.212 448.568 251.212 545.248C251.212 641.928 326.423 690.251 394.01 723.494C394.01 723.494 332.372 773.955 328.386 848.677C328.386 848.677 328.544 855.936 322.271 857.436C315.998 858.927 275.111 890.273 275.111 931.553C275.111 972.833 288.734 993.639 323.953 1012.24C323.953 1012.24 303.22 1023.1 306.327 1030.1C309.443 1037.1 309.625 1051.55 389.302 1043.65C389.302 1043.65 392.145 1042.74 392.054 1046.36C391.954 1049.98 389.833 1061.87 406.556 1070.57C423.278 1079.28 465.864 1078.42 506.287 1037.29C506.287 1037.29 514.955 1029.01 507.563 1018.99C500.171 1008.96 483.747 971.499 487.095 911.178C490.442 850.856 515.734 801.274 545.566 801.274C575.398 801.274 600.69 850.856 604.038 911.178C607.385 971.499 590.961 1008.96 583.569 1018.99C576.177 1029.01 584.845 1037.29 584.845 1037.29C625.268 1078.42 667.854 1079.28 684.577 1070.57C701.299 1061.87 699.178 1049.98 699.078 1046.36C698.979 1042.75 701.83 1043.65 701.83 1043.65C781.507 1051.55 781.697 1037.1 784.805 1030.1C787.913 1023.1 767.179 1012.24 767.179 1012.24C802.398 993.631 816.021 972.833 816.021 931.553C816.021 890.273 775.134 858.927 768.861 857.436H768.894Z" fill="#84894F"/>
<path d="M670.29 308.221H420.875C418.273 311.833 415.695 315.603 413.151 319.531H678.013C675.461 315.612 672.892 311.833 670.29 308.221Z" fill="#686845"/>
<path d="M474.78 338.34C474.432 338.1 474.101 337.827 473.794 337.528C459.723 323.981 464.861 302.645 482.222 295.187C493.003 290.556 503.469 296.944 507.596 306.804C512.195 317.816 508.375 330.195 498.986 337.686C493.276 342.243 482.661 343.801 474.78 338.332V338.34Z" fill="#040C06"/>
<path d="M493.642 318.455C492.772 318.106 491.951 317.618 491.263 316.98C487.899 313.856 487.518 309.613 490.277 306.075C492.83 302.811 497.379 302.363 500.76 305.031C504.481 307.973 505.384 314.154 502.592 317.502C500.661 319.813 497.868 320.145 493.642 318.446V318.455Z" fill="#FEFFFE"/>
<path d="M621.166 302.694C621.324 302.926 621.464 303.175 621.597 303.424C625.268 310.409 627.091 317.443 623.702 324.917C619.973 333.129 613.244 337.379 604.502 338.017C595.361 338.688 588.11 334.952 583.76 326.715C580.777 321.064 580.909 314.966 582.028 308.727C583.146 302.479 586.03 297.599 591.35 294.21C596.629 290.846 602.256 290.092 608.048 292.702C613.111 294.98 617.909 297.698 621.166 302.694Z" fill="#040C06"/>
<path d="M616.89 309.663C616.508 312.464 614.776 314.982 612.174 316.076C609.929 317.021 607.766 316.648 605.528 315.007C602.396 312.712 601.302 308.18 602.976 304.434C604.542 300.938 607.559 299.521 611.412 300.474C615.381 301.452 617.486 305.246 616.881 309.655L616.89 309.663Z" fill="#FEFFFE"/>
<path d="M601.965 247.974C552.626 247.974 550.885 293.132 546.991 305.313C546.328 307.401 545.59 307.351 545.59 307.351C545.59 307.351 544.853 307.392 544.19 305.313C540.303 293.141 538.555 247.974 489.215 247.974C462.267 247.974 436.296 265.167 412.016 294.607C407.541 300.034 411.353 308.213 418.38 308.213H672.792C679.828 308.213 683.639 300.026 679.156 294.607C654.876 265.167 628.905 247.974 601.957 247.974H601.965Z" fill="#84894F"/>
<path d="M581.381 387.235C585.898 386.083 589.519 383.689 593.215 381.419C594.88 380.391 596.96 378.85 598.668 380.822C600.325 382.728 599.189 384.948 597.698 386.539C592.51 392.074 585.931 394.991 578.489 395.728C569.125 396.648 560.242 394.593 551.847 390.417C550.422 389.704 549.278 389.796 547.886 390.541C537.768 395.977 526.987 399.117 515.46 398.678C507.364 398.372 500.08 395.505 494.453 389.356C492.605 387.335 490.939 385.123 492.033 382.04C492.514 380.673 493.285 379.753 494.818 379.687C496.359 379.612 498.091 379.438 498.829 381.104C502.069 388.453 508.831 390.119 515.551 390.434C526.44 390.939 536.997 388.719 546.627 383.217C548.566 382.106 550.414 382.098 552.386 383.034C559.695 386.498 567.36 388.321 575.481 388.197C577.42 388.163 579.293 387.848 581.381 387.26V387.235Z" fill="#001D08"/>
<path d="M583.594 1018.53C590.986 1008.5 607.41 971.043 604.062 910.722C600.714 850.401 575.423 800.818 545.591 800.818C515.758 800.818 490.467 850.401 487.119 910.722C483.771 971.043 500.196 1008.5 507.588 1018.53C514.979 1028.56 506.312 1036.83 506.312 1036.83C506.312 1036.83 542.765 1007.1 584.878 1036.83C584.878 1036.83 576.21 1028.56 583.602 1018.53H583.594Z" fill="#CFD1A6"/>
<mask id="mask0_1969_24392" style="mask-type:luminance" maskUnits="userSpaceOnUse" x="486" y="800" width="119" height="237">
<path d="M583.594 1018.53C590.986 1008.5 607.41 971.043 604.062 910.722C600.714 850.401 575.423 800.818 545.591 800.818C515.758 800.818 490.467 850.401 487.119 910.722C483.771 971.043 500.196 1008.5 507.588 1018.53C514.979 1028.56 506.312 1036.83 506.312 1036.83C506.312 1036.83 542.765 1007.1 584.878 1036.83C584.878 1036.83 576.21 1028.56 583.602 1018.53H583.594Z" fill="white"/>
</mask>
<g mask="url(#mask0_1969_24392)">
<path d="M854.305 971.433L277.281 896.114" stroke="#AFAF87" stroke-width="5" stroke-miterlimit="10"/>
<path d="M557.308 909.587L549.386 954.712" stroke="#AFAF87" stroke-width="5" stroke-miterlimit="10"/>
</g>
<mask id="mask1_1969_24392" style="mask-type:luminance" maskUnits="userSpaceOnUse" x="251" y="319" width="589" height="757">
<path d="M768.894 857.436C762.621 855.944 762.779 848.677 762.779 848.677C758.793 773.955 697.156 723.494 697.156 723.494C764.743 690.259 839.953 641.928 839.953 545.248C839.953 448.568 710.232 379.695 710.232 379.695C700.073 357.174 689.3 336.865 678.014 319.515H413.152C401.865 336.865 391.093 357.174 380.933 379.695C380.933 379.695 251.212 448.568 251.212 545.248C251.212 641.928 326.423 690.251 394.01 723.494C394.01 723.494 332.372 773.955 328.386 848.677C328.386 848.677 328.544 855.936 322.271 857.436C315.998 858.927 275.111 890.273 275.111 931.553C275.111 972.833 288.734 993.639 323.953 1012.24C323.953 1012.24 303.22 1023.1 306.327 1030.1C309.443 1037.1 309.625 1051.55 389.302 1043.65C389.302 1043.65 392.145 1042.74 392.054 1046.36C391.954 1049.98 389.833 1061.87 406.556 1070.57C423.278 1079.28 465.864 1078.42 506.287 1037.29C506.287 1037.29 514.955 1029.01 507.563 1018.99C500.171 1008.96 483.747 971.499 487.095 911.178C490.442 850.856 515.734 801.274 545.566 801.274C575.398 801.274 600.69 850.856 604.038 911.178C607.385 971.499 590.961 1008.96 583.569 1018.99C576.177 1029.01 584.845 1037.29 584.845 1037.29C625.268 1078.42 667.854 1079.28 684.577 1070.57C701.299 1061.87 699.178 1049.98 699.078 1046.36C698.979 1042.75 701.83 1043.65 701.83 1043.65C781.507 1051.55 781.697 1037.1 784.805 1030.1C787.913 1023.1 767.179 1012.24 767.179 1012.24C802.398 993.631 816.021 972.833 816.021 931.553C816.021 890.273 775.134 858.927 768.861 857.436H768.894Z" fill="white"/>
</mask>
<g mask="url(#mask1_1969_24392)">
<path d="M264.827 642.897L841.86 567.578" stroke="#4B4C3B" stroke-width="5" stroke-miterlimit="10"/>
<path d="M314.258 610.167L322.188 655.292" stroke="#4B4C3B" stroke-width="5" stroke-miterlimit="10"/>
<path d="M394.283 601.749L402.205 646.866" stroke="#4B4C3B" stroke-width="5" stroke-miterlimit="10"/>
<path d="M476.819 592.146L484.742 637.271" stroke="#4B4C3B" stroke-width="5" stroke-miterlimit="10"/>
<path d="M561.833 581.051L569.755 626.176" stroke="#4B4C3B" stroke-width="5" stroke-miterlimit="10"/>
<path d="M644.99 570.197L652.912 615.322" stroke="#4B4C3B" stroke-width="5" stroke-miterlimit="10"/>
<path d="M728.538 559.292L736.46 604.417" stroke="#4B4C3B" stroke-width="5" stroke-miterlimit="10"/>
<path d="M813.659 548.181L821.581 593.298" stroke="#4B4C3B" stroke-width="5" stroke-miterlimit="10"/>
<path d="M854.305 971.433L277.281 896.114" stroke="#4B4C3B" stroke-width="5" stroke-miterlimit="10"/>
<path d="M804.875 938.703L796.953 983.828" stroke="#4B4C3B" stroke-width="5" stroke-miterlimit="10"/>
<path d="M724.85 930.285L716.928 975.402" stroke="#4B4C3B" stroke-width="5" stroke-miterlimit="10"/>
<path d="M642.322 920.69L634.399 965.807" stroke="#4B4C3B" stroke-width="5" stroke-miterlimit="10"/>
<path d="M557.308 909.587L549.386 954.712" stroke="#4B4C3B" stroke-width="5" stroke-miterlimit="10"/>
<path d="M474.15 898.732L466.22 943.857" stroke="#4B4C3B" stroke-width="5" stroke-miterlimit="10"/>
<path d="M390.602 887.828L382.68 932.953" stroke="#4B4C3B" stroke-width="5" stroke-miterlimit="10"/>
<path d="M305.473 876.717L297.551 921.842" stroke="#4B4C3B" stroke-width="5" stroke-miterlimit="10"/>
</g>
<path d="M470.587 744.871C470.587 744.871 541.721 757.632 621.895 744.871C621.895 744.871 588.524 769.787 547.803 769.787C507.082 769.787 470.587 744.871 470.587 744.871Z" fill="#686845"/>
</svg>
