<svg width="390" height="12" viewBox="0 0 390 12" fill="none" xmlns="http://www.w3.org/2000/svg">
<path d="M0 4.67585V11.9999H86.6901V9.33919C80.9801 9.33919 74.15 8.54943 66.5 6.18015C43.54 -0.927686 37.41 4.9015 35.37 5.82289C33.33 6.74427 29.26 10.1384 15.74 4.67585C2.22999 -0.796051 0 4.67585 0 4.67585Z" fill="#FE49A9"/>
<path d="M86.6895 9.33922V12H196.099C191.819 11.9906 186.489 10.5051 180.049 6.18018C180.049 6.18018 159.339 -7.72523 105.009 6.18018C105.009 6.18018 98.0995 9.33922 86.6895 9.33922Z" fill="#FE49A9"/>
<path d="M196.1 11.9905L296.65 11.9999V9.33919C290.94 9.33919 284.11 8.54943 276.45 6.18015C253.49 -0.927686 247.36 4.9015 245.32 5.82289C243.28 6.74427 239.21 10.1384 225.69 4.67585C212.18 -0.796051 209.96 4.67585 209.96 4.67585C209.96 4.67585 205.6 11.9905 196.1 11.9905Z" fill="#FE49A9"/>
<path d="M296.65 9.33922V12H390V6.18018C390 6.18018 369.29 -7.72523 314.97 6.18018C314.97 6.18018 308.06 9.33922 296.65 9.33922Z" fill="#FE49A9"/>
</svg>
