<svg width="392" height="14" viewBox="1 0 390 13" preserveAspectRatio="none" fill="none" xmlns="http://www.w3.org/2000/svg">
<path d="M0.999512 6.23951V13.0002H87.6895V10.5441C81.9795 10.5441 75.1495 9.81512 67.4995 7.6281C44.5395 1.06702 38.4095 6.4478 36.3695 7.29831C34.3295 8.14882 30.2595 11.2818 16.7395 6.23951C3.2295 1.18853 0.999512 6.23951 0.999512 6.23951Z" fill="#FE49A9"/>
<path d="M87.6896 10.5437V12.9997H197.1C192.82 12.991 187.49 11.6198 181.05 7.62763C181.05 7.62763 160.34 -5.20812 106.01 7.62763C106.01 7.62763 99.0996 10.5437 87.6896 10.5437Z" fill="#FE49A9"/>
<path d="M197.1 12.9915L297.65 13.0002V10.5441C291.94 10.5441 285.11 9.81512 277.45 7.6281C254.49 1.06702 248.36 6.4478 246.32 7.29831C244.28 8.14882 240.21 11.2818 226.69 6.23951C213.18 1.18853 210.96 6.23951 210.96 6.23951C210.96 6.23951 206.6 12.9915 197.1 12.9915Z" fill="#FE49A9"/>
<path d="M297.65 10.5437V12.9997H391V7.62763C391 7.62763 370.29 -5.20812 315.97 7.62763C315.97 7.62763 309.06 10.5437 297.65 10.5437Z" fill="#FE49A9"/>
<path d="M0.999512 5.31617C0.999512 5.31617 3.2295 0.265185 16.7395 5.31617C30.2595 10.3585 34.3295 7.22548 36.3695 6.37497C38.4095 5.52446 44.5395 0.143684 67.4995 6.70476C75.1495 8.89178 81.9795 9.62079 87.6895 9.62079" stroke="#FF7CC2" stroke-width="2"/>
<path d="M87.6896 9.62081C99.0996 9.62081 106.01 6.70478 106.01 6.70478C160.34 -6.13097 181.05 6.70478 181.05 6.70478C187.49 10.697 192.82 12.0682 197.1 12.0769" stroke="#FF7CC2" stroke-width="2"/>
<path d="M197.1 12.0682C206.6 12.0682 210.96 5.31617 210.96 5.31617C210.96 5.31617 213.18 0.265185 226.69 5.31617C240.21 10.3585 244.28 7.22548 246.32 6.37497C248.36 5.52446 254.49 0.143684 277.45 6.70476C285.11 8.89178 291.94 9.62079 297.65 9.62079" stroke="#FF7CC2" stroke-width="2"/>
<path d="M297.65 9.62081C309.06 9.62081 315.97 6.70478 315.97 6.70478C370.29 -6.13097 391 6.70478 391 6.70478" stroke="#FF7CC2" stroke-width="2"/>
</svg>
