<svg width="390" height="12" viewBox="0 0 390 12" preserveAspectRatio="none" fill="none" xmlns="http://www.w3.org/2000/svg">
<path d="M0 4.6761V12.0002H86.6901V9.33943C80.9801 9.33943 74.15 8.54967 66.5 6.18039C43.54 -0.927442 37.41 4.90175 35.37 5.82313C33.33 6.74452 29.26 10.1386 15.74 4.6761C2.22999 -0.795807 0 4.6761 0 4.6761Z" fill="url(#paint0_linear_4102_22620)"/>
<path d="M86.6895 9.33922V12H196.099C191.819 11.9906 186.489 10.5051 180.049 6.18018C180.049 6.18018 159.339 -7.72523 105.009 6.18018C105.009 6.18018 98.0995 9.33922 86.6895 9.33922Z" fill="url(#paint1_linear_4102_22620)"/>
<path d="M196.1 11.9908L296.65 12.0002V9.33943C290.94 9.33943 284.11 8.54967 276.45 6.18039C253.49 -0.927442 247.36 4.90175 245.32 5.82313C243.28 6.74452 239.21 10.1386 225.69 4.6761C212.18 -0.795807 209.96 4.6761 209.96 4.6761C209.96 4.6761 205.6 11.9908 196.1 11.9908Z" fill="url(#paint2_linear_4102_22620)"/>
<path d="M296.65 9.33922V12H390V6.18018C390 6.18018 369.29 -7.72523 314.97 6.18018C314.97 6.18018 308.06 9.33922 296.65 9.33922Z" fill="url(#paint3_linear_4102_22620)"/>
<defs>
<linearGradient id="paint0_linear_4102_22620" x1="43.345" y1="12.0002" x2="43.345" y2="-9.5444" gradientUnits="userSpaceOnUse">
<stop stop-color="#FE49A9"/>
<stop offset="1" stop-color="white"/>
</linearGradient>
<linearGradient id="paint1_linear_4102_22620" x1="141.394" y1="12" x2="141.394" y2="-14.5" gradientUnits="userSpaceOnUse">
<stop stop-color="#FE49A9"/>
<stop offset="1" stop-color="white"/>
</linearGradient>
<linearGradient id="paint2_linear_4102_22620" x1="246.375" y1="12.0002" x2="246.375" y2="-9.5444" gradientUnits="userSpaceOnUse">
<stop stop-color="#FE49A9"/>
<stop offset="1" stop-color="white"/>
</linearGradient>
<linearGradient id="paint3_linear_4102_22620" x1="343.325" y1="12" x2="343.325" y2="-14.5" gradientUnits="userSpaceOnUse">
<stop stop-color="#FE49A9"/>
<stop offset="1" stop-color="white"/>
</linearGradient>
</defs>
</svg>
