<svg width="392" height="14" viewBox="1 0 390 13" preserveAspectRatio="none" fill="none" xmlns="http://www.w3.org/2000/svg">
<path d="M391 6.23951V13.0002H304.311V10.5441C310.021 10.5441 316.85 9.81512 324.5 7.6281C347.46 1.06702 353.59 6.4478 355.63 7.29831C357.67 8.14882 361.74 11.2818 375.26 6.23951C388.771 1.18853 391 6.23951 391 6.23951Z" fill="#FF8BCA"/>
<path d="M304.31 10.5437V12.9997H194.9C199.18 12.991 204.51 11.6198 210.95 7.62763C210.95 7.62763 231.66 -5.20812 285.99 7.62763C285.99 7.62763 292.9 10.5437 304.31 10.5437Z" fill="#FF8BCA"/>
<path d="M194.9 12.9915L94.3496 13.0002V10.5441C100.06 10.5441 106.89 9.81512 114.55 7.6281C137.51 1.06702 143.64 6.4478 145.68 7.29831C147.72 8.14882 151.79 11.2818 165.31 6.23951C178.82 1.18853 181.04 6.23951 181.04 6.23951C181.04 6.23951 185.4 12.9915 194.9 12.9915Z" fill="#FF8BCA"/>
<path d="M94.3501 10.5437V12.9997H1V7.62763C1 7.62763 21.71 -5.20812 76.03 7.62763C76.03 7.62763 82.9401 10.5437 94.3501 10.5437Z" fill="#FF8BCA"/>
<path d="M391 5.31617C391 5.31617 388.77 0.265185 375.26 5.31617C361.74 10.3585 357.67 7.22548 355.63 6.37497C353.59 5.52446 347.46 0.143684 324.5 6.70476C316.85 8.89178 310.021 9.62079 304.311 9.62079" stroke="#FFADDA" stroke-width="2"/>
<path d="M304.31 9.62081C292.9 9.62081 285.99 6.70478 285.99 6.70478C231.66 -6.13097 210.95 6.70478 210.95 6.70478C204.51 10.697 199.18 12.0682 194.9 12.0769" stroke="#FFADDA" stroke-width="2"/>
<path d="M194.9 12.0682C185.4 12.0682 181.04 5.31617 181.04 5.31617C181.04 5.31617 178.82 0.265185 165.31 5.31617C151.79 10.3585 147.72 7.22548 145.68 6.37497C143.64 5.52446 137.51 0.143684 114.55 6.70476C106.89 8.89178 100.06 9.62079 94.3496 9.62079" stroke="#FFADDA" stroke-width="2"/>
<path d="M94.3501 9.62081C82.9401 9.62081 76.03 6.70478 76.03 6.70478C21.71 -6.13097 1 6.70478 1 6.70478" stroke="#FFADDA" stroke-width="2"/>
</svg>
