<svg width="390" height="12" viewBox="0 0 390 12" fill="none" xmlns="http://www.w3.org/2000/svg">
<path d="M390 4.67585V11.9999H303.311V9.33919C309.021 9.33919 315.85 8.54943 323.5 6.18016C346.46 -0.927675 352.59 4.9015 354.63 5.82288C356.67 6.74427 360.74 10.1384 374.26 4.67585C387.771 -0.796049 390 4.67585 390 4.67585Z" fill="#FF8BCA"/>
<path d="M303.31 9.33921V12H193.9C198.18 11.9905 203.51 10.505 209.95 6.18018C209.95 6.18018 230.66 -7.72522 284.99 6.18018C284.99 6.18018 291.9 9.33921 303.31 9.33921Z" fill="#FF8BCA"/>
<path d="M193.9 11.9905L93.3496 11.9999V9.33919C99.0596 9.33919 105.89 8.54943 113.55 6.18016C136.51 -0.927675 142.64 4.9015 144.68 5.82288C146.72 6.74427 150.79 10.1384 164.31 4.67585C177.82 -0.796049 180.04 4.67585 180.04 4.67585C180.04 4.67585 184.4 11.9905 193.9 11.9905Z" fill="#FF8BCA"/>
<path d="M93.3501 9.33921V12H0V6.18018C0 6.18018 20.71 -7.72522 75.03 6.18018C75.03 6.18018 81.9401 9.33921 93.3501 9.33921Z" fill="#FF8BCA"/>
</svg>
