<svg width="390" height="12" viewBox="0 0 390 12" preserveAspectRatio="none" fill="none" xmlns="http://www.w3.org/2000/svg">
<path d="M390 4.6761V12.0002H303.311V9.33944C309.021 9.33944 315.85 8.54968 323.5 6.1804C346.46 -0.927431 352.59 4.90174 354.63 5.82313C356.67 6.74451 360.74 10.1386 374.26 4.6761C387.77 -0.795805 390 4.6761 390 4.6761Z" fill="url(#paint0_linear_4102_22613)"/>
<path d="M303.31 9.33921V12H193.9C198.18 11.9905 203.51 10.505 209.95 6.18018C209.95 6.18018 230.66 -7.72522 284.99 6.18018C284.99 6.18018 291.9 9.33921 303.31 9.33921Z" fill="url(#paint1_linear_4102_22613)"/>
<path d="M193.9 11.9908L93.3496 12.0002V9.33944C99.0596 9.33944 105.89 8.54968 113.55 6.1804C136.51 -0.927431 142.64 4.90174 144.68 5.82313C146.72 6.74451 150.79 10.1386 164.31 4.6761C177.82 -0.795805 180.04 4.6761 180.04 4.6761C180.04 4.6761 184.4 11.9908 193.9 11.9908Z" fill="url(#paint2_linear_4102_22613)"/>
<path d="M93.3501 9.33921V12H0V6.18018C0 6.18018 20.71 -7.72522 75.03 6.18018C75.03 6.18018 81.9401 9.33921 93.3501 9.33921Z" fill="url(#paint3_linear_4102_22613)"/>
<defs>
<linearGradient id="paint0_linear_4102_22613" x1="346.656" y1="12.0002" x2="346.656" y2="-10.3574" gradientUnits="userSpaceOnUse">
<stop stop-color="#FF8BCA"/>
<stop offset="1" stop-color="white"/>
</linearGradient>
<linearGradient id="paint1_linear_4102_22613" x1="248.605" y1="12" x2="248.605" y2="-15.4999" gradientUnits="userSpaceOnUse">
<stop stop-color="#FF8BCA"/>
<stop offset="1" stop-color="white"/>
</linearGradient>
<linearGradient id="paint2_linear_4102_22613" x1="143.625" y1="12.0002" x2="143.625" y2="-10.3574" gradientUnits="userSpaceOnUse">
<stop stop-color="#FF8BCA"/>
<stop offset="1" stop-color="white"/>
</linearGradient>
<linearGradient id="paint3_linear_4102_22613" x1="46.675" y1="12" x2="46.675" y2="-15.4999" gradientUnits="userSpaceOnUse">
<stop stop-color="#FF8BCA"/>
<stop offset="1" stop-color="white"/>
</linearGradient>
</defs>
</svg>
