<svg width="390" height="12" viewBox="0 0 390 12" preserveAspectRatio="none" fill="none" xmlns="http://www.w3.org/2000/svg">
<path d="M389.999 2.99951V6.00003H356.869C376.129 6.00003 389.999 2.99951 389.999 2.99951Z" fill="#B7CEFF"/>
<path d="M356.869 6H226.869C246.129 6 259.999 2.99948 259.999 2.99948C259.999 2.99948 291.209 -3.74935 324.999 2.99948C336.259 5.24752 347.239 6 356.869 6Z" fill="#B7CEFF"/>
<path d="M226.869 6H96.8691C116.129 6 129.999 2.99948 129.999 2.99948C129.999 2.99948 161.209 -3.74935 194.999 2.99948C206.259 5.24752 217.239 6 226.869 6Z" fill="#B7CEFF"/>
<path d="M96.87 6H0V2.99948C0 2.99948 31.21 -3.74935 65 2.99948C76.26 5.24752 87.24 6 96.87 6Z" fill="#B7CEFF"/>
<rect y="6" width="390" height="6" fill="#B7CEFF"/>
</svg>
