<svg width="392" height="13" viewBox="1 0 390 13" preserveAspectRatio="none" fill="none" xmlns="http://www.w3.org/2000/svg">
<path d="M97.87 8H1V4.99948C1 4.99948 32.21 -1.74935 66 4.99948C77.26 7.24752 88.24 8 97.87 8Z" fill="#B7CEFF"/>
<path d="M390.999 4.99951V8.00003H357.869C377.129 8.00003 390.999 4.99951 390.999 4.99951Z" fill="#B7CEFF"/>
<path d="M391 4C391 4 381 7 357.869 6.53827" stroke="#D0D7E4" stroke-width="2"/>
<path d="M357.869 6.53846C348.239 6.53846 337.259 5.84386 325.999 3.76875C292.209 -2.46094 260.999 3.76875 260.999 3.76875C260.999 3.76875 247.129 6.53846 227.869 6.53846" stroke="#D0D7E4" stroke-width="2"/>
<path d="M227.869 6.53862C218.239 6.53862 209.001 6.80511 196.5 4.50039C162.71 -1.72929 131 4.00009 131 4.00009C131 4.00009 116.76 7 97.5 7" stroke="#D0D7E4" stroke-width="2"/>
<path d="M97.5 7C87.87 7 72.2971 5.66071 66 4.49973C32.21 -1.72995 1 4.00002 1 4.00002" stroke="#D0D7E4" stroke-width="2"/>
<path d="M357.869 7.46131H227.869C247.129 7.46131 260.999 4.6916 260.999 4.6916C260.999 4.6916 292.209 -1.53808 325.999 4.6916C337.259 6.76671 348.239 7.46131 357.869 7.46131Z" fill="#B7CEFF"/>
<path d="M228 7.46131H98C117.26 7.46131 131.13 4.6916 131.13 4.6916C131.13 4.6916 162.34 -1.53808 196.13 4.6916C207.39 6.76671 218.37 7.46131 228 7.46131Z" fill="#B7CEFF"/>
<rect x="1" y="7.46143" width="390" height="5.53846" fill="#B7CEFF"/>
</svg>
