<svg width="390" height="12" viewBox="0 0 390 12" preserveAspectRatio="none" fill="none" xmlns="http://www.w3.org/2000/svg">
<path d="M0 5.99902V12.0001H25.7C6.44 12.0001 0 5.99902 0 5.99902Z" fill="url(#paint0_linear_4102_22526)"/>
<path d="M25.6992 12H155.699C136.439 12 129.999 5.99895 129.999 5.99895C129.999 5.99895 115.499 -7.49869 64.9992 5.99895C48.1692 10.495 35.3292 12 25.6992 12Z" fill="url(#paint1_linear_4102_22526)"/>
<path d="M155.699 12H285.699C266.439 12 259.999 5.99895 259.999 5.99895C259.999 5.99895 245.499 -7.49869 194.999 5.99895C178.169 10.495 165.329 12 155.699 12Z" fill="url(#paint2_linear_4102_22526)"/>
<path d="M285.699 12H389.999V5.99895C389.999 5.99895 375.499 -7.49869 324.999 5.99895C308.169 10.495 295.329 12 285.699 12Z" fill="url(#paint3_linear_4102_22526)"/>
<defs>
<linearGradient id="paint0_linear_4102_22526" x1="12.85" y1="12.0001" x2="12.85" y2="-5.75303" gradientUnits="userSpaceOnUse">
<stop stop-color="#85DCFF"/>
<stop offset="1" stop-color="white"/>
</linearGradient>
<linearGradient id="paint1_linear_4102_22526" x1="90.6992" y1="12" x2="90.6992" y2="-23.5" gradientUnits="userSpaceOnUse">
<stop stop-color="#85DCFF"/>
<stop offset="1" stop-color="white"/>
</linearGradient>
<linearGradient id="paint2_linear_4102_22526" x1="220.699" y1="12" x2="220.699" y2="-23.5" gradientUnits="userSpaceOnUse">
<stop stop-color="#85DCFF"/>
<stop offset="1" stop-color="white"/>
</linearGradient>
<linearGradient id="paint3_linear_4102_22526" x1="337.849" y1="12" x2="337.849" y2="-23.5" gradientUnits="userSpaceOnUse">
<stop stop-color="#85DCFF"/>
<stop offset="1" stop-color="white"/>
</linearGradient>
</defs>
</svg>
