<svg width="392" height="14" preserveAspectRatio="none" viewBox="1 0 390 13" fill="none" xmlns="http://www.w3.org/2000/svg">
<path d="M1.00018 7.46045V12.9999H26.7002C7.4402 12.9999 1.00018 7.46045 1.00018 7.46045Z" fill="#85DCFF"/>
<path d="M26.7002 12.9998H156.7C137.44 12.9998 131 7.46035 131 7.46035C131 7.46035 116.5 -4.99902 66.0002 7.46035C49.1702 11.6106 36.3302 12.9998 26.7002 12.9998Z" fill="#85DCFF"/>
<path d="M156.7 12.9998H286.7C267.44 12.9998 261 7.46035 261 7.46035C261 7.46035 246.5 -4.99902 196 7.46035C179.17 11.6106 166.33 12.9998 156.7 12.9998Z" fill="#85DCFF"/>
<path d="M286.701 12.9998H391.001V7.46035C391.001 7.46035 376.501 -4.99902 326.001 7.46035C309.171 11.6106 296.331 12.9998 286.701 12.9998Z" fill="#85DCFF"/>
<path d="M1.00018 6.5376C1.00018 6.5376 7.4402 12.077 26.7002 12.077" stroke="#9DE3FF" stroke-width="2"/>
<path d="M26.7002 12.0769C36.3302 12.0769 49.1702 10.6877 66.0002 6.53749C116.5 -5.92187 131 6.53749 131 6.53749C131 6.53749 137.44 12.0769 156.7 12.0769" stroke="#9DE3FF" stroke-width="2"/>
<path d="M156.7 12.0769C166.33 12.0769 179.17 10.6877 196 6.53749C246.5 -5.92187 261 6.53749 261 6.53749C261 6.53749 267.44 12.0769 286.7 12.0769" stroke="#9DE3FF" stroke-width="2"/>
<path d="M286.701 12.0769C296.331 12.0769 309.171 10.6877 326.001 6.53749C376.501 -5.92187 391.001 6.53749 391.001 6.53749" stroke="#9DE3FF" stroke-width="2"/>
</svg>
