<svg width="390" height="12" viewBox="0 0 390 12" preserveAspectRatio="none" fill="none" xmlns="http://www.w3.org/2000/svg">
<path d="M0 5.9895V11.9906H33.13C13.87 11.9906 0 5.9895 0 5.9895Z" fill="#A0FF56"/>
<path d="M33.1309 12H163.131C143.871 12 130.001 5.99896 130.001 5.99896C130.001 5.99896 98.7909 -7.4987 65.0009 5.99896C53.7409 10.495 42.7609 12 33.1309 12Z" fill="#A0FF56"/>
<path d="M163.131 12H293.131C273.871 12 260.001 5.99896 260.001 5.99896C260.001 5.99896 228.791 -7.4987 195.001 5.99896C183.741 10.495 172.761 12 163.131 12Z" fill="#A0FF56"/>
<path d="M293.131 12H390.001V5.99896C390.001 5.99896 358.791 -7.4987 325.001 5.99896C313.741 10.495 302.761 12 293.131 12Z" fill="#A0FF56"/>
</svg>
