<svg width="392" height="14" preserveAspectRatio="none" viewBox="1 0 390 13" fill="none" xmlns="http://www.w3.org/2000/svg">
<path d="M0.999878 7.46045V12.9999H34.1299C14.8699 12.9999 0.999878 7.46045 0.999878 7.46045Z" fill="#A0FF56"/>
<path d="M34.1299 12.9998H164.13C144.87 12.9998 131 7.46035 131 7.46035C131 7.46035 99.7899 -4.99902 65.9999 7.46035C54.7399 11.6106 43.7599 12.9998 34.1299 12.9998Z" fill="#A0FF56"/>
<path d="M164.13 12.9998H294.13C274.87 12.9998 261 7.46035 261 7.46035C261 7.46035 229.79 -4.99902 196 7.46035C184.74 11.6106 173.76 12.9998 164.13 12.9998Z" fill="#A0FF56"/>
<path d="M294.129 12.9998H390.999V7.46035C390.999 7.46035 359.789 -4.99902 325.999 7.46035C314.739 11.6106 303.759 12.9998 294.129 12.9998Z" fill="#A0FF56"/>
<path d="M0.999878 6.5376C0.999878 6.5376 14.8699 12.077 34.1299 12.077" stroke="#CAFFA0" stroke-width="2"/>
<path d="M34.1299 12.0769C43.7599 12.0769 54.7399 10.6877 65.9999 6.5375C99.7899 -5.92187 131 6.5375 131 6.5375C131 6.5375 144.87 12.0769 164.13 12.0769" stroke="#CAFFA0" stroke-width="2"/>
<path d="M164.13 12.0769C173.76 12.0769 184.74 10.6877 196 6.5375C229.79 -5.92187 261 6.5375 261 6.5375C261 6.5375 274.87 12.0769 294.13 12.0769" stroke="#CAFFA0" stroke-width="2"/>
<path d="M294.129 12.0769C303.759 12.0769 314.739 10.6877 325.999 6.5375C359.789 -5.92187 390.999 6.5375 390.999 6.5375" stroke="#CAFFA0" stroke-width="2"/>
</svg>
