<svg width="390" height="12" viewBox="0 0 390 12" preserveAspectRatio="none" fill="none" xmlns="http://www.w3.org/2000/svg">
<path d="M0 5.98926V11.9903H33.13C13.87 11.9903 0 5.98926 0 5.98926Z" fill="url(#paint0_linear_4102_22091)"/>
<path d="M33.1309 12H163.131C143.871 12 130.001 5.99896 130.001 5.99896C130.001 5.99896 98.7909 -7.4987 65.0009 5.99896C53.7409 10.495 42.7609 12 33.1309 12Z" fill="url(#paint1_linear_4102_22091)"/>
<path d="M163.131 12H293.131C273.871 12 260.001 5.99896 260.001 5.99896C260.001 5.99896 228.791 -7.4987 195.001 5.99896C183.741 10.495 172.761 12 163.131 12Z" fill="url(#paint2_linear_4102_22091)"/>
<path d="M293.131 12H390.001V5.99896C390.001 5.99896 358.791 -7.4987 325.001 5.99896C313.741 10.495 302.761 12 293.131 12Z" fill="url(#paint3_linear_4102_22091)"/>
<defs>
<linearGradient id="paint0_linear_4102_22091" x1="16.565" y1="12.2404" x2="16.565" y2="1.73851" gradientUnits="userSpaceOnUse">
<stop stop-color="#A0FF56"/>
<stop offset="1" stop-color="white"/>
</linearGradient>
<linearGradient id="paint1_linear_4102_22091" x1="98.1309" y1="12.5" x2="98.1309" y2="-8.5" gradientUnits="userSpaceOnUse">
<stop stop-color="#A0FF56"/>
<stop offset="1" stop-color="white"/>
</linearGradient>
<linearGradient id="paint2_linear_4102_22091" x1="228.131" y1="12.5" x2="228.131" y2="-8.5" gradientUnits="userSpaceOnUse">
<stop stop-color="#A0FF56"/>
<stop offset="1" stop-color="white"/>
</linearGradient>
<linearGradient id="paint3_linear_4102_22091" x1="341.566" y1="12.5" x2="341.566" y2="-8.5" gradientUnits="userSpaceOnUse">
<stop stop-color="#A0FF56"/>
<stop offset="1" stop-color="white"/>
</linearGradient>
</defs>
</svg>
