<svg width="390" height="12" viewBox="0 0 390 12" preserveAspectRatio="none" fill="none" xmlns="http://www.w3.org/2000/svg">
<path d="M195 5.99902V12.0001H233.03C218.585 12.0001 195 5.99902 195 5.99902Z" fill="#92666C"/>
<path d="M233.03 12H330.53C316.085 12 292.5 5.99895 292.5 5.99895C292.5 5.99895 239.43 -7.49869 243.75 5.99895C245.19 10.495 240.255 12 233.03 12Z" fill="#92666C"/>
<path d="M330.53 12H390V5.99895C390 5.99895 336.93 -7.49869 341.25 5.99895C342.69 10.495 337.755 12 330.53 12Z" fill="#92666C"/>
<path d="M0.000221252 5.99902V12.0001H38.0303C23.5853 12.0001 0.000221252 5.99902 0.000221252 5.99902Z" fill="#92666C"/>
<path d="M38.0302 12H135.53C121.085 12 97.5002 5.99895 97.5002 5.99895C97.5002 5.99895 44.4302 -7.49869 48.7502 5.99895C50.1902 10.495 45.2552 12 38.0302 12Z" fill="#92666C"/>
<path d="M135.53 12H195V5.99895C195 5.99895 141.93 -7.49869 146.25 5.99895C147.69 10.495 142.755 12 135.53 12Z" fill="#92666C"/>
</svg>
