<svg width="392" height="14" viewBox="1 0 390 13" preserveAspectRatio="none" fill="none" xmlns="http://www.w3.org/2000/svg">
<path d="M196 7.46045V12.9999H234.03C219.585 12.9999 196 7.46045 196 7.46045Z" fill="#92666C"/>
<path d="M234.03 12.9998H331.53C317.085 12.9998 293.5 7.46035 293.5 7.46035C293.5 7.46035 240.43 -4.99902 244.75 7.46035C246.19 11.6106 241.255 12.9998 234.03 12.9998Z" fill="#92666C"/>
<path d="M331.53 12.9998H391V7.46035C391 7.46035 337.93 -4.99902 342.25 7.46035C343.69 11.6106 338.755 12.9998 331.53 12.9998Z" fill="#92666C"/>
<path d="M1.00022 7.46045V12.9999H39.0303C24.5853 12.9999 1.00022 7.46045 1.00022 7.46045Z" fill="#92666C"/>
<path d="M39.0302 12.9998H136.53C122.085 12.9998 98.5002 7.46035 98.5002 7.46035C98.5002 7.46035 45.4302 -4.99902 49.7502 7.46035C51.1902 11.6106 46.2552 12.9998 39.0302 12.9998Z" fill="#92666C"/>
<path d="M136.53 12.9998H196V7.46035C196 7.46035 142.93 -4.99902 147.25 7.46035C148.69 11.6106 143.755 12.9998 136.53 12.9998Z" fill="#92666C"/>
<path d="M196 6.5376C196 6.5376 219.585 12.077 234.03 12.077" stroke="#B78E93" stroke-width="2"/>
<path d="M234.03 12.0769C241.255 12.0769 246.19 10.6877 244.75 6.5375C240.43 -5.92187 293.5 6.5375 293.5 6.5375C293.5 6.5375 317.085 12.0769 331.53 12.0769" stroke="#B78E93" stroke-width="2"/>
<path d="M331.53 12.0769C338.755 12.0769 343.69 10.6877 342.25 6.5375C337.93 -5.92187 391 6.5375 391 6.5375" stroke="#B78E93" stroke-width="2"/>
<path d="M1.00022 6.5376C1.00022 6.5376 24.5853 12.077 39.0303 12.077" stroke="#B78E93" stroke-width="2"/>
<path d="M39.0302 12.0769C46.2552 12.0769 51.1902 10.6877 49.7502 6.5375C45.4302 -5.92187 98.5002 6.5375 98.5002 6.5375C98.5002 6.5375 122.085 12.0769 136.53 12.0769" stroke="#B78E93" stroke-width="2"/>
<path d="M136.53 12.0769C143.755 12.0769 148.69 10.6877 147.25 6.5375C142.93 -5.92187 196 6.5375 196 6.5375" stroke="#B78E93" stroke-width="2"/>
</svg>
