<svg width="390" height="12" viewBox="0 0 390 12" preserveAspectRatio="none" fill="none" xmlns="http://www.w3.org/2000/svg">
<path d="M0 5.99894V12H86.32C80.54 12 71.79 10.495 58.51 5.99894C18.68 -7.49867 0 5.99894 0 5.99894Z" fill="url(#paint0_linear_4102_22596)"/>
<path d="M86.3203 12H169.37C160.7 12 149.78 10.495 136.5 5.99894C96.6704 -7.49867 97.5104 5.99894 97.5104 5.99894H97.5004C97.5004 5.99894 97.8703 12 86.3203 12Z" fill="url(#paint1_linear_4102_22596)"/>
<path d="M169.369 12H281.319C275.539 12 266.789 10.495 253.509 5.99894C213.679 -7.49867 194.999 5.99894 194.999 5.99894C194.999 5.99894 186.699 12 169.369 12Z" fill="url(#paint2_linear_4102_22596)"/>
<path d="M281.32 12H364.37C355.7 12 344.78 10.495 331.5 5.99894C291.67 -7.49867 292.51 5.99894 292.51 5.99894H292.5C292.5 5.99894 292.87 12 281.32 12Z" fill="url(#paint3_linear_4102_22596)"/>
<path d="M364.369 12.0001H389.999V5.99902C389.999 5.99902 381.699 12.0001 364.369 12.0001Z" fill="url(#paint4_linear_4102_22596)"/>
<defs>
<linearGradient id="paint0_linear_4102_22596" x1="43.16" y1="12" x2="43.16" y2="-15" gradientUnits="userSpaceOnUse">
<stop stop-color="#B85FFF"/>
<stop offset="1" stop-color="#FBF5FF"/>
</linearGradient>
<linearGradient id="paint1_linear_4102_22596" x1="127.845" y1="12" x2="127.845" y2="-15" gradientUnits="userSpaceOnUse">
<stop stop-color="#B85FFF"/>
<stop offset="1" stop-color="#FBF5FF"/>
</linearGradient>
<linearGradient id="paint2_linear_4102_22596" x1="225.344" y1="12" x2="225.344" y2="-15" gradientUnits="userSpaceOnUse">
<stop stop-color="#B85FFF"/>
<stop offset="1" stop-color="#FBF5FF"/>
</linearGradient>
<linearGradient id="paint3_linear_4102_22596" x1="322.845" y1="12" x2="322.845" y2="-15" gradientUnits="userSpaceOnUse">
<stop stop-color="#B85FFF"/>
<stop offset="1" stop-color="#FBF5FF"/>
</linearGradient>
<linearGradient id="paint4_linear_4102_22596" x1="377.184" y1="12.0001" x2="377.184" y2="-1.50227" gradientUnits="userSpaceOnUse">
<stop stop-color="#B85FFF"/>
<stop offset="1" stop-color="#FBF5FF"/>
</linearGradient>
</defs>
</svg>
