<svg width="392" height="14" viewBox="1 0 390 13" preserveAspectRatio="none" fill="none" xmlns="http://www.w3.org/2000/svg">
<path d="M391 7.46045V12.9999H366.35C381.03 12.9999 391 7.46045 391 7.46045Z" fill="#84ADFF"/>
<path d="M366.35 12.9998H268.85C283.53 12.9998 293.5 7.46035 293.5 7.46035C293.5 7.46035 314.35 -4.99902 341.46 7.46035C350.49 11.6106 359.01 12.9998 366.35 12.9998Z" fill="#84ADFF"/>
<path d="M268.85 12.9998H171.35C186.03 12.9998 196 7.46035 196 7.46035C196 7.46035 216.85 -4.99902 243.96 7.46035C252.99 11.6106 261.51 12.9998 268.85 12.9998Z" fill="#84ADFF"/>
<path d="M171.35 12.9998H73.8496C88.5296 12.9998 98.4996 7.46035 98.4996 7.46035C98.4996 7.46035 119.35 -4.99902 146.46 7.46035C155.49 11.6106 164.01 12.9998 171.35 12.9998Z" fill="#84ADFF"/>
<path d="M73.85 12.9998H1V7.46035C1 7.46035 21.85 -4.99902 48.96 7.46035C57.99 11.6106 66.51 12.9998 73.85 12.9998Z" fill="#84ADFF"/>
<path d="M391 6.5376C391 6.5376 381.03 12.077 366.35 12.077" stroke="#AAC7FF" stroke-width="2"/>
<path d="M366.35 12.0769C359.01 12.0769 350.49 10.6877 341.46 6.5375C314.35 -5.92187 293.5 6.5375 293.5 6.5375C293.5 6.5375 283.53 12.0769 268.85 12.0769" stroke="#AAC7FF" stroke-width="2"/>
<path d="M268.85 12.0769C261.51 12.0769 252.99 10.6877 243.96 6.5375C216.85 -5.92187 196 6.5375 196 6.5375C196 6.5375 186.03 12.0769 171.35 12.0769" stroke="#AAC7FF" stroke-width="2"/>
<path d="M171.35 12.0769C164.01 12.0769 155.49 10.6877 146.46 6.5375C119.35 -5.92187 98.4996 6.5375 98.4996 6.5375C98.4996 6.5375 88.5296 12.0769 73.8496 12.0769" stroke="#AAC7FF" stroke-width="2"/>
<path d="M73.85 12.0769C66.51 12.0769 57.99 10.6877 48.96 6.5375C21.85 -5.92187 1 6.5375 1 6.5375" stroke="#AAC7FF" stroke-width="2"/>
</svg>
