<svg width="390" height="12" viewBox="0 0 390 12" fill="none" xmlns="http://www.w3.org/2000/svg">
<path d="M390.001 5.99878V11.9998H364.301C383.561 11.9998 390.001 5.99878 390.001 5.99878Z" fill="#75F3C9"/>
<path d="M364.301 12H234.301C253.561 12 260.001 5.99895 260.001 5.99895C260.001 5.99895 274.501 -7.49869 325.001 5.99895C341.831 10.495 354.671 12 364.301 12Z" fill="#75F3C9"/>
<path d="M234.301 12H104.301C123.561 12 130.001 5.99895 130.001 5.99895C130.001 5.99895 144.501 -7.49869 195.001 5.99895C211.831 10.495 224.671 12 234.301 12Z" fill="#75F3C9"/>
<path d="M104.3 12H0V5.99895C0 5.99895 14.5 -7.49869 65 5.99895C81.83 10.495 94.67 12 104.3 12Z" fill="#75F3C9"/>
</svg>
