<svg width="390" height="12" viewBox="0 0 390 12" preserveAspectRatio="none" fill="none" xmlns="http://www.w3.org/2000/svg">
<path d="M390.001 5.99902V12.0001H364.301C383.561 12.0001 390.001 5.99902 390.001 5.99902Z" fill="url(#paint0_linear_4102_22519)"/>
<path d="M364.301 12H234.301C253.561 12 260.001 5.99895 260.001 5.99895C260.001 5.99895 274.501 -7.49869 325.001 5.99895C341.831 10.495 354.671 12 364.301 12Z" fill="url(#paint1_linear_4102_22519)"/>
<path d="M234.301 12H104.301C123.561 12 130.001 5.99895 130.001 5.99895C130.001 5.99895 144.501 -7.49869 195.001 5.99895C211.831 10.495 224.671 12 234.301 12Z" fill="url(#paint2_linear_4102_22519)"/>
<path d="M104.3 12H0V5.99895C0 5.99895 14.5 -7.49869 65 5.99895C81.83 10.495 94.67 12 104.3 12Z" fill="url(#paint3_linear_4102_22519)"/>
<defs>
<linearGradient id="paint0_linear_4102_22519" x1="377.151" y1="12.0001" x2="377.151" y2="-1.25224" gradientUnits="userSpaceOnUse">
<stop stop-color="#75F3C9"/>
<stop offset="1" stop-color="white"/>
</linearGradient>
<linearGradient id="paint1_linear_4102_22519" x1="299.301" y1="12" x2="299.301" y2="-14.5" gradientUnits="userSpaceOnUse">
<stop stop-color="#75F3C9"/>
<stop offset="1" stop-color="white"/>
</linearGradient>
<linearGradient id="paint2_linear_4102_22519" x1="169.301" y1="12" x2="169.301" y2="-14.5" gradientUnits="userSpaceOnUse">
<stop stop-color="#75F3C9"/>
<stop offset="1" stop-color="white"/>
</linearGradient>
<linearGradient id="paint3_linear_4102_22519" x1="52.15" y1="12" x2="52.15" y2="-14.5" gradientUnits="userSpaceOnUse">
<stop stop-color="#75F3C9"/>
<stop offset="1" stop-color="white"/>
</linearGradient>
</defs>
</svg>
