<svg width="392" height="14" viewBox="1 0 390 13" preserveAspectRatio="none" fill="none" xmlns="http://www.w3.org/2000/svg">
<path d="M391 7.46035V12.9998H304.68C310.46 12.9998 319.21 11.6106 332.49 7.46035C372.32 -4.99902 391 7.46035 391 7.46035Z" fill="#CAA2FF"/>
<path d="M304.681 12.9998H221.631C230.301 12.9998 241.221 11.6106 254.501 7.46035C294.331 -4.99902 293.491 7.46035 293.491 7.46035H293.501C293.501 7.46035 293.131 12.9998 304.681 12.9998Z" fill="#CAA2FF"/>
<path d="M221.63 12.9998H109.68C115.46 12.9998 124.21 11.6106 137.49 7.46035C177.32 -4.99902 196 7.46035 196 7.46035C196 7.46035 204.3 12.9998 221.63 12.9998Z" fill="#CAA2FF"/>
<path d="M109.681 12.9998H26.6309C35.3009 12.9998 46.2209 11.6106 59.5009 7.46035C99.3309 -4.99902 98.4909 7.46035 98.4909 7.46035H98.5009C98.5009 7.46035 98.1308 12.9998 109.681 12.9998Z" fill="#CAA2FF"/>
<path d="M26.63 12.9999H1V7.46045C1 7.46045 9.3 12.9999 26.63 12.9999Z" fill="#CAA2FF"/>
<path d="M391 6.53749C391 6.53749 372.32 -5.92187 332.49 6.53749C319.21 10.6877 310.46 12.0769 304.68 12.0769" stroke="#D9BBFF" stroke-width="2"/>
<path d="M304.681 12.0769C293.131 12.0769 293.501 6.53749 293.501 6.53749H293.491C293.491 6.53749 294.331 -5.92187 254.501 6.53749C241.221 10.6877 230.301 12.0769 221.631 12.0769" stroke="#D9BBFF" stroke-width="2"/>
<path d="M221.63 12.0769C204.3 12.0769 196 6.53749 196 6.53749C196 6.53749 177.32 -5.92187 137.49 6.53749C124.21 10.6877 115.46 12.0769 109.68 12.0769" stroke="#D9BBFF" stroke-width="2"/>
<path d="M109.681 12.0769C98.1308 12.0769 98.5009 6.53749 98.5009 6.53749H98.4909C98.4909 6.53749 99.3309 -5.92187 59.5009 6.53749C46.2209 10.6877 35.3009 12.0769 26.6309 12.0769" stroke="#D9BBFF" stroke-width="2"/>
<path d="M26.63 12.077C9.3 12.077 1 6.5376 1 6.5376" stroke="#D9BBFF" stroke-width="2"/>
</svg>
