<svg width="390" height="12" viewBox="0 0 390 12" fill="none" xmlns="http://www.w3.org/2000/svg">
<path d="M390 5.03833V12H363.43V10.824C373.42 10.824 382.78 8.68851 390 5.03833Z" fill="#FE2F2F"/>
<path d="M363.43 10.824V11.9999H285.43V10.824C295.42 10.824 304.78 8.68842 312 5.03824C312 5.03824 321.48 -1.2743 335.66 5.03824C344.68 9.04591 354.32 10.824 363.43 10.824Z" fill="#FE2F2F"/>
<path d="M285.43 10.824V11.9999H207.43V10.824C217.42 10.824 226.78 8.68842 234 5.03824C234 5.03824 243.48 -1.2743 257.66 5.03824C266.68 9.04591 276.32 10.824 285.43 10.824Z" fill="#FE2F2F"/>
<path d="M207.43 10.824V11.9999H127.57V11.8024C138.24 11.8024 148.38 8.89539 156 5.03824C156 5.03824 165.48 -1.2743 179.66 5.03824C188.68 9.04591 198.32 10.824 207.43 10.824Z" fill="#FE2F2F"/>
<path d="M127.57 11.8025V12H49.25C60.03 12 70.31 8.92371 78 5.03834C78 5.03834 90.6 -1.45295 101.66 5.03834C109.94 9.8927 118.92 11.8025 127.57 11.8025Z" fill="#FE2F2F"/>
<path d="M49.25 12H0V5.03833C0 5.03833 5.26003 -6.29791 23.66 5.03833C31.8 10.062 40.69 12 49.25 12Z" fill="#FE2F2F"/>
</svg>
