<svg width="390" height="12" viewBox="0 0 390 12" preserveAspectRatio="none" fill="none" xmlns="http://www.w3.org/2000/svg">
<path d="M390 5.03809V11.9998H363.43V10.8238C373.42 10.8238 382.78 8.68826 390 5.03809Z" fill="url(#paint0_linear_4102_22604)"/>
<path d="M363.43 10.8237V11.9997H285.43V10.8237C295.42 10.8237 304.78 8.68817 312 5.038C312 5.038 321.48 -1.27455 335.66 5.038C344.68 9.04567 354.32 10.8237 363.43 10.8237Z" fill="url(#paint1_linear_4102_22604)"/>
<path d="M285.43 10.8237V11.9997H207.43V10.8237C217.42 10.8237 226.78 8.68817 234 5.038C234 5.038 243.48 -1.27455 257.66 5.038C266.68 9.04567 276.32 10.8237 285.43 10.8237Z" fill="url(#paint2_linear_4102_22604)"/>
<path d="M207.43 10.8237V11.9997H127.57V11.8021C138.24 11.8021 148.38 8.89514 156 5.038C156 5.038 165.48 -1.27455 179.66 5.038C188.68 9.04567 198.32 10.8237 207.43 10.8237Z" fill="url(#paint3_linear_4102_22604)"/>
<path d="M127.57 11.8025V12H49.25C60.03 12 70.31 8.92371 78 5.03834C78 5.03834 90.6 -1.45295 101.66 5.03834C109.94 9.8927 118.92 11.8025 127.57 11.8025Z" fill="url(#paint4_linear_4102_22604)"/>
<path d="M49.25 12H0V5.03833C0 5.03833 5.26003 -6.29791 23.66 5.03833C31.8 10.062 40.69 12 49.25 12Z" fill="url(#paint5_linear_4102_22604)"/>
<defs>
<linearGradient id="paint0_linear_4102_22604" x1="376.715" y1="11.9998" x2="376.715" y2="2.13739" gradientUnits="userSpaceOnUse">
<stop stop-color="#FE2F2F"/>
<stop offset="1" stop-color="#F09D9D"/>
</linearGradient>
<linearGradient id="paint1_linear_4102_22604" x1="324.43" y1="11.9997" x2="324.43" y2="-1.83726" gradientUnits="userSpaceOnUse">
<stop stop-color="#FE2F2F"/>
<stop offset="1" stop-color="#F09D9D"/>
</linearGradient>
<linearGradient id="paint2_linear_4102_22604" x1="246.43" y1="11.9997" x2="246.43" y2="-1.83726" gradientUnits="userSpaceOnUse">
<stop stop-color="#FE2F2F"/>
<stop offset="1" stop-color="#F09D9D"/>
</linearGradient>
<linearGradient id="paint3_linear_4102_22604" x1="167.5" y1="11.9997" x2="167.5" y2="-1.83726" gradientUnits="userSpaceOnUse">
<stop stop-color="#FE2F2F"/>
<stop offset="1" stop-color="#F09D9D"/>
</linearGradient>
<linearGradient id="paint4_linear_4102_22604" x1="88.41" y1="12" x2="88.41" y2="-1.94947" gradientUnits="userSpaceOnUse">
<stop stop-color="#FE2F2F"/>
<stop offset="1" stop-color="#F09D9D"/>
</linearGradient>
<linearGradient id="paint5_linear_4102_22604" x1="24.625" y1="12" x2="24.625" y2="-5" gradientUnits="userSpaceOnUse">
<stop stop-color="#FE2F2F"/>
<stop offset="1" stop-color="#F09D9D"/>
</linearGradient>
</defs>
</svg>
