<svg width="392" height="14" viewBox="1 0 390 13" preserveAspectRatio="none" fill="none" xmlns="http://www.w3.org/2000/svg">
<path d="M1.00037 7.46045V12.9999H25.6504C10.9704 12.9999 1.00037 7.46045 1.00037 7.46045Z" fill="#4E72FF"/>
<path d="M25.6504 12.9998H123.15C108.47 12.9998 98.5004 7.46035 98.5004 7.46035C98.5004 7.46035 77.6504 -4.99902 50.5404 7.46035C41.5104 11.6106 32.9904 12.9998 25.6504 12.9998Z" fill="#4E72FF"/>
<path d="M123.15 12.9998H220.65C205.97 12.9998 196 7.46035 196 7.46035C196 7.46035 175.15 -4.99902 148.04 7.46035C139.01 11.6106 130.49 12.9998 123.15 12.9998Z" fill="#4E72FF"/>
<path d="M220.65 12.9998H318.15C303.47 12.9998 293.5 7.46035 293.5 7.46035C293.5 7.46035 272.65 -4.99902 245.54 7.46035C236.51 11.6106 227.99 12.9998 220.65 12.9998Z" fill="#4E72FF"/>
<path d="M318.15 12.9998H391V7.46035C391 7.46035 370.15 -4.99902 343.04 7.46035C334.01 11.6106 325.49 12.9998 318.15 12.9998Z" fill="#4E72FF"/>
<path d="M1.00037 6.5376C1.00037 6.5376 10.9704 12.077 25.6504 12.077" stroke="#9BACF1" stroke-width="2"/>
<path d="M25.6504 12.0769C32.9904 12.0769 41.5104 10.6877 50.5404 6.5375C77.6504 -5.92187 98.5004 6.5375 98.5004 6.5375C98.5004 6.5375 108.47 12.0769 123.15 12.0769" stroke="#9BACF1" stroke-width="2"/>
<path d="M123.15 12.0769C130.49 12.0769 139.01 10.6877 148.04 6.5375C175.15 -5.92187 196 6.5375 196 6.5375C196 6.5375 205.97 12.0769 220.65 12.0769" stroke="#9BACF1" stroke-width="2"/>
<path d="M220.65 12.0769C227.99 12.0769 236.51 10.6877 245.54 6.5375C272.65 -5.92187 293.5 6.5375 293.5 6.5375C293.5 6.5375 303.47 12.0769 318.15 12.0769" stroke="#9BACF1" stroke-width="2"/>
<path d="M318.15 12.0769C325.49 12.0769 334.01 10.6877 343.04 6.5375C370.15 -5.92187 391 6.5375 391 6.5375" stroke="#9BACF1" stroke-width="2"/>
</svg>
