<svg width="390" height="12" viewBox="0 0 390 12" preserveAspectRatio="none" fill="none" xmlns="http://www.w3.org/2000/svg">
<path d="M0 5.99902V12.0001H24.65C9.96999 12.0001 0 5.99902 0 5.99902Z" fill="url(#paint0_linear_4102_22542)"/>
<path d="M24.6504 12H122.15C107.47 12 97.5004 5.99895 97.5004 5.99895C97.5004 5.99895 76.6504 -7.49869 49.5404 5.99895C40.5104 10.495 31.9904 12 24.6504 12Z" fill="url(#paint1_linear_4102_22542)"/>
<path d="M122.15 12H219.65C204.97 12 195 5.99895 195 5.99895C195 5.99895 174.15 -7.49869 147.04 5.99895C138.01 10.495 129.49 12 122.15 12Z" fill="url(#paint2_linear_4102_22542)"/>
<path d="M219.65 12H317.15C302.47 12 292.5 5.99895 292.5 5.99895C292.5 5.99895 271.65 -7.49869 244.54 5.99895C235.51 10.495 226.99 12 219.65 12Z" fill="url(#paint3_linear_4102_22542)"/>
<path d="M317.15 12H390V5.99895C390 5.99895 369.15 -7.49869 342.04 5.99895C333.01 10.495 324.49 12 317.15 12Z" fill="url(#paint4_linear_4102_22542)"/>
<defs>
<linearGradient id="paint0_linear_4102_22542" x1="12.325" y1="11.2499" x2="12.325" y2="-0.752155" gradientUnits="userSpaceOnUse">
<stop stop-color="#4E72FF"/>
<stop offset="1" stop-color="white"/>
</linearGradient>
<linearGradient id="paint1_linear_4102_22542" x1="73.4004" y1="10.5" x2="73.4004" y2="-13.5" gradientUnits="userSpaceOnUse">
<stop stop-color="#4E72FF"/>
<stop offset="1" stop-color="white"/>
</linearGradient>
<linearGradient id="paint2_linear_4102_22542" x1="170.9" y1="10.5" x2="170.9" y2="-13.5" gradientUnits="userSpaceOnUse">
<stop stop-color="#4E72FF"/>
<stop offset="1" stop-color="white"/>
</linearGradient>
<linearGradient id="paint3_linear_4102_22542" x1="268.4" y1="10.5" x2="268.4" y2="-13.5" gradientUnits="userSpaceOnUse">
<stop stop-color="#4E72FF"/>
<stop offset="1" stop-color="white"/>
</linearGradient>
<linearGradient id="paint4_linear_4102_22542" x1="353.575" y1="10.5" x2="353.575" y2="-13.5" gradientUnits="userSpaceOnUse">
<stop stop-color="#4E72FF"/>
<stop offset="1" stop-color="white"/>
</linearGradient>
</defs>
</svg>
