<svg width="392" height="14" viewBox="1 0 390 13" preserveAspectRatio="none" fill="none" xmlns="http://www.w3.org/2000/svg">
<path d="M196 7.46045V12.9999H157.97C172.415 12.9999 196 7.46045 196 7.46045Z" fill="#FF7B35"/>
<path d="M157.97 12.9998H60.4697C74.9147 12.9998 98.4998 7.46035 98.4998 7.46035C98.4998 7.46035 151.57 -4.99902 147.25 7.46035C145.81 11.6106 150.745 12.9998 157.97 12.9998Z" fill="#FF7B35"/>
<path d="M60.47 12.9998H1V7.46035C1 7.46035 54.0701 -4.99902 49.7501 7.46035C48.3101 11.6106 53.245 12.9998 60.47 12.9998Z" fill="#FF7B35"/>
<path d="M391 7.46045V12.9999H352.97C367.415 12.9999 391 7.46045 391 7.46045Z" fill="#FF7B35"/>
<path d="M352.97 12.9998H255.47C269.915 12.9998 293.5 7.46035 293.5 7.46035C293.5 7.46035 346.57 -4.99902 342.25 7.46035C340.81 11.6106 345.745 12.9998 352.97 12.9998Z" fill="#FF7B35"/>
<path d="M255.47 12.9998H196V7.46035C196 7.46035 249.07 -4.99902 244.75 7.46035C243.31 11.6106 248.245 12.9998 255.47 12.9998Z" fill="#FF7B35"/>
<path d="M196 6.5376C196 6.5376 172.415 12.077 157.97 12.077" stroke="#FFA474" stroke-width="2"/>
<path d="M157.97 12.0769C150.745 12.0769 145.81 10.6877 147.25 6.5375C151.57 -5.92187 98.4998 6.5375 98.4998 6.5375C98.4998 6.5375 74.9147 12.0769 60.4697 12.0769" stroke="#FFA474" stroke-width="2"/>
<path d="M60.47 12.0769C53.245 12.0769 48.3101 10.6877 49.7501 6.5375C54.0701 -5.92187 1 6.5375 1 6.5375" stroke="#FFA474" stroke-width="2"/>
<path d="M391 6.5376C391 6.5376 367.415 12.077 352.97 12.077" stroke="#FFA474" stroke-width="2"/>
<path d="M352.97 12.0769C345.745 12.0769 340.81 10.6877 342.25 6.5375C346.57 -5.92187 293.5 6.5375 293.5 6.5375C293.5 6.5375 269.915 12.0769 255.47 12.0769" stroke="#FFA474" stroke-width="2"/>
<path d="M255.47 12.0769C248.245 12.0769 243.31 10.6877 244.75 6.5375C249.07 -5.92187 196 6.5375 196 6.5375" stroke="#FFA474" stroke-width="2"/>
</svg>
