<svg width="390" height="12" viewBox="0 0 390 12" preserveAspectRatio="none" fill="none" xmlns="http://www.w3.org/2000/svg">
<path d="M195 5.99902V12.0001H156.97C171.415 12.0001 195 5.99902 195 5.99902Z" fill="#FF7B35"/>
<path d="M156.97 12H59.4697C73.9147 12 97.4998 5.99895 97.4998 5.99895C97.4998 5.99895 150.57 -7.49869 146.25 5.99895C144.81 10.495 149.745 12 156.97 12Z" fill="#FF7B35"/>
<path d="M59.47 12H0V5.99895C0 5.99895 53.0701 -7.49869 48.7501 5.99895C47.3101 10.495 52.245 12 59.47 12Z" fill="#FF7B35"/>
<path d="M390 5.99902V12.0001H351.97C366.415 12.0001 390 5.99902 390 5.99902Z" fill="#FF7B35"/>
<path d="M351.97 12H254.47C268.915 12 292.5 5.99895 292.5 5.99895C292.5 5.99895 345.57 -7.49869 341.25 5.99895C339.81 10.495 344.745 12 351.97 12Z" fill="#FF7B35"/>
<path d="M254.47 12H195V5.99895C195 5.99895 248.07 -7.49869 243.75 5.99895C242.31 10.495 247.245 12 254.47 12Z" fill="#FF7B35"/>
</svg>
