<svg width="392" height="14" viewBox="1 0 390 13" preserveAspectRatio="none" fill="none" xmlns="http://www.w3.org/2000/svg">
<path d="M391 6.57373V12.9999H364.43V11.9144C374.42 11.9144 383.78 9.94312 391 6.57373Z" fill="#FFA144"/>
<path d="M364.43 11.9148V13.0003H286.43V11.9148C296.42 11.9148 305.78 9.94353 313 6.57414C313 6.57414 322.48 0.747172 336.66 6.57414C345.68 10.2735 355.32 11.9148 364.43 11.9148Z" fill="#FFA144"/>
<path d="M286.43 11.9148V13.0003H208.43V11.9148C218.42 11.9148 227.78 9.94353 235 6.57414C235 6.57414 244.48 0.747172 258.66 6.57414C267.68 10.2735 277.32 11.9148 286.43 11.9148Z" fill="#FFA144"/>
<path d="M208.43 11.9148V13.0003H128.57V12.8179C139.24 12.8179 149.38 10.1346 157 6.57414C157 6.57414 166.48 0.747172 180.66 6.57414C189.68 10.2735 199.32 11.9148 208.43 11.9148Z" fill="#FFA144"/>
<path d="M128.57 12.8175V12.9999H50.25C61.03 12.9999 71.31 10.1602 79 6.57374C79 6.57374 91.6 0.581776 102.66 6.57374C110.94 11.0547 119.92 12.8175 128.57 12.8175Z" fill="#FFA144"/>
<path d="M50.25 12.9998H1V6.57362C1 6.57362 6.26003 -3.89061 24.66 6.57362C32.8 11.2109 41.69 12.9998 50.25 12.9998Z" fill="#FFA144"/>
<path d="M391 5.65039C383.78 9.01978 374.42 10.991 364.43 10.991V12.0765" stroke="#FFC183" stroke-width="2"/>
<path d="M364.43 12.077V10.9915C355.32 10.9915 345.68 9.35018 336.66 5.6508C322.48 -0.176168 313 5.6508 313 5.6508C305.78 9.02019 296.42 10.9915 286.43 10.9915V12.077" stroke="#FFC183" stroke-width="2"/>
<path d="M286.43 12.077V10.9915C277.32 10.9915 267.68 9.35018 258.66 5.6508C244.48 -0.176168 235 5.6508 235 5.6508C227.78 9.02019 218.42 10.9915 208.43 10.9915V12.077" stroke="#FFC183" stroke-width="2"/>
<path d="M208.43 12.077V10.9915C199.32 10.9915 189.68 9.35018 180.66 5.6508C166.48 -0.176168 157 5.6508 157 5.6508C149.38 9.21124 139.24 11.8946 128.57 11.8946V12.077" stroke="#FFC183" stroke-width="2"/>
<path d="M128.57 12.077V11.8947C119.92 11.8947 110.94 10.1318 102.66 5.65089C91.6 -0.341075 79 5.65089 79 5.65089C71.31 9.23738 61.03 12.077 50.25 12.077" stroke="#FFC183" stroke-width="2"/>
<path d="M50.25 12.0769C41.69 12.0769 32.8 10.288 24.66 5.65077C6.26003 -4.81346 1 5.65077 1 5.65077" stroke="#FFC183" stroke-width="2"/>
</svg>
