<svg width="390" height="12" viewBox="0 0 390 12" preserveAspectRatio="none" fill="none" xmlns="http://www.w3.org/2000/svg">
<path d="M25.3624 0C9.34404 0 1.77982 4 0 6V12H97V6C93.737 7.33333 83.0284 10 66.2982 10C45.3853 10 45.3853 0 25.3624 0Z" fill="url(#paint0_linear_4102_22559)"/>
<path d="M122.624 0C106.44 0 98.7982 4 97 6V12H195V6C191.703 7.33333 180.884 10 163.982 10C142.853 10 142.853 0 122.624 0Z" fill="url(#paint1_linear_4102_22559)"/>
<path d="M220.362 0C204.344 0 196.78 4 195 6V12H292V6C288.737 7.33333 278.028 10 261.298 10C240.385 10 240.385 0 220.362 0Z" fill="url(#paint2_linear_4102_22559)"/>
<path d="M317.624 0C301.44 0 293.798 4 292 6V12H390V6C386.703 7.33333 375.884 10 358.982 10C337.853 10 337.853 0 317.624 0Z" fill="url(#paint3_linear_4102_22559)"/>
<defs>
<linearGradient id="paint0_linear_4102_22559" x1="48.5" y1="12" x2="48.5" y2="-8" gradientUnits="userSpaceOnUse">
<stop stop-color="#FFA144"/>
<stop offset="1" stop-color="white"/>
</linearGradient>
<linearGradient id="paint1_linear_4102_22559" x1="146" y1="12" x2="146" y2="-8" gradientUnits="userSpaceOnUse">
<stop stop-color="#FFA144"/>
<stop offset="1" stop-color="white"/>
</linearGradient>
<linearGradient id="paint2_linear_4102_22559" x1="243.5" y1="12" x2="243.5" y2="-8" gradientUnits="userSpaceOnUse">
<stop stop-color="#FFA144"/>
<stop offset="1" stop-color="white"/>
</linearGradient>
<linearGradient id="paint3_linear_4102_22559" x1="341" y1="12" x2="341" y2="-8" gradientUnits="userSpaceOnUse">
<stop stop-color="#FFA144"/>
<stop offset="1" stop-color="white"/>
</linearGradient>
</defs>
</svg>
