<svg width="390" height="12" viewBox="0 0 390 12" preserveAspectRatio="none" fill="none" xmlns="http://www.w3.org/2000/svg">
<path d="M389.999 5.99902V12.0001H356.869C376.129 12.0001 389.999 5.99902 389.999 5.99902Z" fill="url(#paint0_linear_4102_22048)"/>
<path d="M356.869 12H226.869C246.129 12 259.999 5.99896 259.999 5.99896C259.999 5.99896 291.209 -7.49869 324.999 5.99896C336.259 10.495 347.239 12 356.869 12Z" fill="url(#paint1_linear_4102_22048)"/>
<path d="M226.869 12H96.8691C116.129 12 129.999 5.99895 129.999 5.99895C129.999 5.99895 161.209 -7.49869 194.999 5.99895C206.259 10.495 217.239 12 226.869 12Z" fill="url(#paint2_linear_4102_22048)"/>
<path d="M96.87 12H0V5.99895C0 5.99895 31.21 -7.49869 65 5.99895C76.26 10.495 87.24 12 96.87 12Z" fill="url(#paint3_linear_4102_22048)"/>
<defs>
<linearGradient id="paint0_linear_4102_22048" x1="373.434" y1="12.0001" x2="373.434" y2="1.99833" gradientUnits="userSpaceOnUse">
<stop stop-color="#00CE4C"/>
<stop offset="1" stop-color="white"/>
</linearGradient>
<linearGradient id="paint1_linear_4102_22048" x1="291.869" y1="12" x2="291.869" y2="-8" gradientUnits="userSpaceOnUse">
<stop stop-color="#00CE4C"/>
<stop offset="1" stop-color="white"/>
</linearGradient>
<linearGradient id="paint2_linear_4102_22048" x1="161.869" y1="12" x2="161.869" y2="-8" gradientUnits="userSpaceOnUse">
<stop stop-color="#00CE4C"/>
<stop offset="1" stop-color="white"/>
</linearGradient>
<linearGradient id="paint3_linear_4102_22048" x1="48.435" y1="12" x2="48.435" y2="-8" gradientUnits="userSpaceOnUse">
<stop stop-color="#00CE4C"/>
<stop offset="1" stop-color="white"/>
</linearGradient>
</defs>
</svg>
