<svg width="390" height="12" viewBox="0 0 390 12" fill="none" xmlns="http://www.w3.org/2000/svg">
<path d="M389.999 5.99878V11.9998H356.869C376.129 11.9998 389.999 5.99878 389.999 5.99878Z" fill="#00CE4C"/>
<path d="M356.869 12H226.869C246.129 12 259.999 5.99895 259.999 5.99895C259.999 5.99895 291.209 -7.49869 324.999 5.99895C336.259 10.495 347.239 12 356.869 12Z" fill="#00CE4C"/>
<path d="M226.869 12H96.8691C116.129 12 129.999 5.99895 129.999 5.99895C129.999 5.99895 161.209 -7.49869 194.999 5.99895C206.259 10.495 217.239 12 226.869 12Z" fill="#00CE4C"/>
<path d="M96.87 12H0V5.99895C0 5.99895 31.21 -7.49869 65 5.99895C76.26 10.495 87.24 12 96.87 12Z" fill="#00CE4C"/>
</svg>
