<svg width="392" height="14" viewBox="1 0 390 13" preserveAspectRatio="none" fill="none" xmlns="http://www.w3.org/2000/svg">
<path d="M390.999 7.46045V12.9999H357.869C377.129 12.9999 390.999 7.46045 390.999 7.46045Z" fill="#00CE4C"/>
<path d="M357.869 12.9998H227.869C247.129 12.9998 260.999 7.46035 260.999 7.46035C260.999 7.46035 292.209 -4.99902 325.999 7.46035C337.259 11.6106 348.239 12.9998 357.869 12.9998Z" fill="#00CE4C"/>
<path d="M227.869 12.9998H97.8691C117.129 12.9998 130.999 7.46035 130.999 7.46035C130.999 7.46035 162.209 -4.99902 195.999 7.46035C207.259 11.6106 218.239 12.9998 227.869 12.9998Z" fill="#00CE4C"/>
<path d="M97.87 12.9998H1V7.46035C1 7.46035 32.21 -4.99902 66 7.46035C77.26 11.6106 88.24 12.9998 97.87 12.9998Z" fill="#00CE4C"/>
<path d="M390.999 6.5376C390.999 6.5376 377.129 12.077 357.869 12.077" stroke="#6EED9C" stroke-width="2"/>
<path d="M357.869 12.0769C348.239 12.0769 337.259 10.6877 325.999 6.5375C292.209 -5.92187 260.999 6.5375 260.999 6.5375C260.999 6.5375 247.129 12.0769 227.869 12.0769" stroke="#6EED9C" stroke-width="2"/>
<path d="M227.869 12.0769C218.239 12.0769 207.259 10.6877 195.999 6.5375C162.209 -5.92187 130.999 6.5375 130.999 6.5375C130.999 6.5375 117.129 12.0769 97.8691 12.0769" stroke="#6EED9C" stroke-width="2"/>
<path d="M97.87 12.0769C88.24 12.0769 77.26 10.6877 66 6.5375C32.21 -5.92187 1 6.5375 1 6.5375" stroke="#6EED9C" stroke-width="2"/>
</svg>
