<svg width="392" height="14" viewBox="1 0 390 13" preserveAspectRatio="none" fill="none" xmlns="http://www.w3.org/2000/svg">
<path d="M1.00037 6.57373V12.9999H27.5703V11.9144C17.5803 11.9144 8.22037 9.94312 1.00037 6.57373Z" fill="#FFDA4A"/>
<path d="M27.5703 11.9148V13.0003H105.57V11.9148C95.5803 11.9148 86.2204 9.94353 79.0004 6.57414C79.0004 6.57414 69.5203 0.747172 55.3403 6.57414C46.3203 10.2735 36.6803 11.9148 27.5703 11.9148Z" fill="#FFDA4A"/>
<path d="M105.57 11.9148V13.0003H183.57V11.9148C173.58 11.9148 164.22 9.94353 157 6.57414C157 6.57414 147.52 0.747172 133.34 6.57414C124.32 10.2735 114.68 11.9148 105.57 11.9148Z" fill="#FFDA4A"/>
<path d="M183.57 11.9148V13.0003H263.43V12.8179C252.76 12.8179 242.62 10.1346 235 6.57414C235 6.57414 225.52 0.747172 211.34 6.57414C202.32 10.2735 192.68 11.9148 183.57 11.9148Z" fill="#FFDA4A"/>
<path d="M263.43 12.8175V12.9999H341.75C330.97 12.9999 320.69 10.1602 313 6.57374C313 6.57374 300.4 0.581776 289.34 6.57374C281.06 11.0547 272.08 12.8175 263.43 12.8175Z" fill="#FFDA4A"/>
<path d="M341.75 12.9998H391V6.57362C391 6.57362 385.74 -3.89061 367.34 6.57362C359.2 11.2109 350.31 12.9998 341.75 12.9998Z" fill="#FFDA4A"/>
<path d="M1.00037 5.65039C8.22037 9.01978 17.5803 10.991 27.5703 10.991V12.0765" stroke="#FFE88C" stroke-width="2"/>
<path d="M27.5703 12.077V10.9915C36.6803 10.9915 46.3203 9.35018 55.3403 5.6508C69.5203 -0.176168 79.0004 5.6508 79.0004 5.6508C86.2204 9.02019 95.5803 10.9915 105.57 10.9915V12.077" stroke="#FFE88C" stroke-width="2"/>
<path d="M105.57 12.077V10.9915C114.68 10.9915 124.32 9.35018 133.34 5.6508C147.52 -0.176168 157 5.6508 157 5.6508C164.22 9.02019 173.58 10.9915 183.57 10.9915V12.077" stroke="#FFE88C" stroke-width="2"/>
<path d="M183.57 12.077V10.9915C192.68 10.9915 202.32 9.35018 211.34 5.6508C225.52 -0.176168 235 5.6508 235 5.6508C242.62 9.21124 252.76 11.8946 263.43 11.8946V12.077" stroke="#FFE88C" stroke-width="2"/>
<path d="M263.43 12.077V11.8947C272.08 11.8947 281.06 10.1318 289.34 5.65089C300.4 -0.341075 313 5.65089 313 5.65089C320.69 9.23738 330.97 12.077 341.75 12.077" stroke="#FFE88C" stroke-width="2"/>
<path d="M341.75 12.0769C350.31 12.0769 359.2 10.288 367.34 5.65077C385.74 -4.81346 391 5.65077 391 5.65077" stroke="#FFE88C" stroke-width="2"/>
</svg>
