<svg width="390" height="12" viewBox="0 0 390 12" fill="none" xmlns="http://www.w3.org/2000/svg">
<path d="M0.000366211 5.03833V12H26.5703V10.824C16.5803 10.824 7.22037 8.68851 0.000366211 5.03833Z" fill="#FFDA4A"/>
<path d="M26.5703 10.824V11.9999H104.57V10.824C94.5803 10.824 85.2204 8.68842 78.0004 5.03824C78.0004 5.03824 68.5203 -1.2743 54.3403 5.03824C45.3203 9.04591 35.6803 10.824 26.5703 10.824Z" fill="#FFDA4A"/>
<path d="M104.57 10.824V11.9999H182.57V10.824C172.58 10.824 163.22 8.68842 156 5.03824C156 5.03824 146.52 -1.2743 132.34 5.03824C123.32 9.04591 113.68 10.824 104.57 10.824Z" fill="#FFDA4A"/>
<path d="M182.57 10.824V11.9999H262.43V11.8024C251.76 11.8024 241.62 8.89539 234 5.03824C234 5.03824 224.52 -1.2743 210.34 5.03824C201.32 9.04591 191.68 10.824 182.57 10.824Z" fill="#FFDA4A"/>
<path d="M262.43 11.8025V12H340.75C329.97 12 319.69 8.92371 312 5.03834C312 5.03834 299.4 -1.45295 288.34 5.03834C280.06 9.8927 271.08 11.8025 262.43 11.8025Z" fill="#FFDA4A"/>
<path d="M340.75 12H390V5.03833C390 5.03833 384.74 -6.29791 366.34 5.03833C358.2 10.062 349.31 12 340.75 12Z" fill="#FFDA4A"/>
</svg>
