<svg width="18" height="20" viewBox="0 0 18 20" fill="none" xmlns="http://www.w3.org/2000/svg">
<path fill-rule="evenodd" clip-rule="evenodd" d="M1.5 0H16.5C16.7652 0 17.0196 0.105357 17.2071 0.292893C17.3946 0.48043 17.5 0.734784 17.5 1V12.5H12.5C11.122 12.5 10 13.622 10 15V20H1.5C1.23478 20 0.98043 19.8946 0.792893 19.7071C0.605357 19.5196 0.5 19.2652 0.5 19V1C0.5 0.734784 0.605357 0.48043 0.792893 0.292893C0.98043 0.105357 1.23478 0 1.5 0ZM5 9C5.55228 9 6 8.55229 6 8C6 7.44772 5.55228 7 5 7C4.44772 7 4 7.44772 4 8C4 8.55229 4.44772 9 5 9ZM10.2307 8C10.2307 8.55229 9.783 9 9.23071 9C8.67843 9 8.23071 8.55229 8.23071 8C8.23071 7.44772 8.67843 7 9.23071 7C9.783 7 10.2307 7.44772 10.2307 8ZM13.4615 9C14.0138 9 14.4615 8.55229 14.4615 8C14.4615 7.44772 14.0138 7 13.4615 7C12.9093 7 12.4615 7.44772 12.4615 8C12.4615 8.55229 12.9093 9 13.4615 9Z" fill="current"/>
<path fill-rule="evenodd" clip-rule="evenodd" d="M11.5 15V20L17.5 14H12.5C12.2348 14 11.9804 14.1054 11.7929 14.2929C11.6054 14.4804 11.5 14.7348 11.5 15Z" fill="current"/>
</svg>
