<svg width="20" height="20" viewBox="0 0 20 20" fill="none" xmlns="http://www.w3.org/2000/svg">
<path fill-rule="evenodd" clip-rule="evenodd" d="M10 8.846C5.879 8.846 2.397 7.741 0.377 6C0.138 6.429 0 6.879 0 7.346C0 7.80891 0.125784 8.2571 0.361186 8.6825C0.131923 9.10286 0 9.54321 0 9.99981C0 10.4076 0.0975977 10.8039 0.281744 11.1833C0.10172 11.5567 0 11.9451 0 12.346C0 12.8089 0.125784 13.2571 0.361186 13.6825C0.131923 14.1029 0 14.5432 0 14.9998C0 17.7618 4.478 19.9998 10 19.9998C15.522 19.9998 20 17.7618 20 14.9998C20 14.5432 19.8681 14.1029 19.6388 13.6825C19.8742 13.2571 20 12.8089 20 12.346C20 11.9451 19.8983 11.5567 19.7183 11.1833C19.9024 10.8039 20 10.4076 20 9.99981C20 9.54321 19.8681 9.10286 19.6388 8.6825C19.8742 8.2571 20 7.80891 20 7.346C20 6.879 19.862 6.429 19.623 6C17.604 7.741 14.121 8.846 10 8.846Z" fill="current"/>
<path fill-rule="evenodd" clip-rule="evenodd" d="M20 5C20 7.762 15.522 10 10 10C4.478 10 0 7.762 0 5C0 2.239 4.478 0 10 0C15.522 0 20 2.239 20 5ZM17 4.5C17 5.881 13.8654 7 10 7C6.1346 7 3 5.881 3 4.5C3 3.1195 6.1346 2 10 2C13.8654 2 17 3.1195 17 4.5Z" fill="current"/>
</svg>
