<svg width="161" height="161" fill="none" xmlns="http://www.w3.org/2000/svg"><g clip-path="url(#a)"><path d="M80.5 161C36.113 161 0 124.887 0 80.5S36.113 0 80.5 0 161 36.113 161 80.5 124.887 161 80.5 161Zm0-139.34c-32.446 0-58.84 26.394-58.84 58.84 0 32.445 26.394 58.841 58.84 58.841 32.445 0 58.841-26.396 58.841-58.841 0-32.446-26.396-58.84-58.841-58.84Z" fill="#313239"/><mask id="c" style="mask-type:luminance" maskUnits="userSpaceOnUse" x="0" y="0" width="161" height="161"><mask id="b" style="mask-type:luminance" maskUnits="userSpaceOnUse" x="0" y="0" width="161" height="161"><path d="M80.5 161c44.459 0 80.5-36.041 80.5-80.5S124.959 0 80.5 0 0 36.041 0 80.5 36.041 161 80.5 161Z" fill="#fff"/></mask><g mask="url(#b)"><path d="M80.5 161C36.113 161 0 124.887 0 80.5S36.113 0 80.5 0 161 36.113 161 80.5 124.887 161 80.5 161Zm0-139.34c-32.446 0-58.84 26.394-58.84 58.84 0 32.445 26.394 58.841 58.84 58.841 32.445 0 58.841-26.396 58.841-58.841 0-32.446-26.396-58.84-58.841-58.84Z" fill="#fff"/></g></mask><g mask="url(#c)" stroke="#fff" stroke-miterlimit="10"><path opacity=".3" d="M80.501 80.5V-86.975M80.5 80.5 65.909-86.34M80.5 80.5 51.42-84.435M80.5 80.501 37.153-81.272M80.5 80.5 23.22-76.874M80.5 80.5 9.725-71.287M80.5 80.501-3.234-64.536M80.501 80.5-15.557-56.688M80.5 80.5-27.152-47.793M80.5 80.5-37.925-37.925M80.5 80.501-47.794-27.152M80.5 80.5-56.69-15.557M80.5 80.5-64.537-3.234M80.5 80.5-71.287 9.727M80.5 80.5-76.874 23.22M80.5 80.5-81.273 37.154M80.501 80.501-84.434 51.42M80.5 80.501l-166.84-14.59M80.5 80.501H-86.975M80.5 80.501-86.34 95.099M80.501 80.501l-164.935 29.088M80.5 80.501l-161.773 43.347M80.5 80.501l-157.375 57.281M80.5 80.501l-151.787 70.782M80.5 80.501l-145.037 83.742M80.5 80.501l-137.19 96.066M80.5 80.501-47.794 188.154M80.5 80.501-37.925 198.926M80.5 80.501-27.152 208.803M80.501 80.501l-96.058 137.197M80.5 80.501-3.234 225.545M80.5 80.501 9.725 232.289M80.5 80.501 23.22 237.884M80.5 80.501 37.153 242.273M80.5 80.501 51.42 245.436M80.5 80.501 65.909 247.342M80.501 80.501v167.483M80.501 80.501 95.1 247.342M80.501 80.501l29.089 164.935M80.501 80.501l43.347 161.772M80.501 80.501l57.282 157.383M80.501 80.501l70.782 151.788M80.501 80.501l83.742 145.044M80.501 80.501l96.066 137.197M80.501 80.501l107.654 128.302M80.501 80.501l118.425 118.425M80.501 80.501l128.302 107.653M80.501 80.501l137.197 96.066M80.501 80.501l145.045 83.742M80.501 80.501l151.788 70.782M80.501 80.501l157.383 57.281M80.501 80.501l161.773 43.347M80.501 80.501l164.935 29.088M80.501 80.501l166.841 14.598M80.501 80.501h167.484M80.501 80.501l166.841-14.59M80.501 80.501 245.436 51.42M80.501 80.5l161.773-43.347M80.501 80.5 237.884 23.22M80.501 80.5 232.29 9.727M80.501 80.5 225.546-3.234M80.501 80.5l137.197-96.058M80.501 80.501 208.803-27.152M80.501 80.5 198.926-37.925M80.501 80.5 188.155-47.793M80.501 80.5l96.066-137.189M80.501 80.501l83.742-145.037M80.501 80.5l70.782-151.787M80.501 80.5l57.282-157.375M80.501 80.501l43.347-161.773M80.501 80.5 109.59-84.435M80.501 80.5 95.1-86.34"/></g><circle cx="80.5" cy="80.5" r="59.5" fill="#fff"/><mask id="d" style="mask-type:alpha" maskUnits="userSpaceOnUse" x="21" y="21" width="119" height="119"><circle cx="80.5" cy="80.5" r="59.5" fill="#0E0E0E"/></mask><path fill-rule="evenodd" clip-rule="evenodd" d="M104.798 85.91H85.866v18.931a5.412 5.412 0 0 1-5.41 5.409 5.41 5.41 0 0 1-5.408-5.409V85.909H56.116a5.41 5.41 0 0 1 0-10.818h18.932V56.159a5.41 5.41 0 0 1 10.818 0v18.932h18.932a5.408 5.408 0 0 1 3.824 9.234 5.408 5.408 0 0 1-3.824 1.584ZM80.5 21C47.64 21 21 47.64 21 80.5S47.64 140 80.5 140 140 113.36 140 80.5 113.36 21 80.5 21Z" fill="#0E0E0E"/></g><defs><clipPath id="a"><path fill="#fff" d="M0 0h161v161H0z"/></clipPath></defs></svg>