<svg width="24" height="24" viewBox="0 0 24 24" fill="none" xmlns="http://www.w3.org/2000/svg">
<g id="icon-dots-mono">
<path id="Vector" fill-rule="evenodd" clip-rule="evenodd" d="M5.22998 13.999C4.96727 13.999 4.70715 13.9472 4.46446 13.8466C4.22177 13.746 4.00128 13.5986 3.81556 13.4128C3.62984 13.227 3.48254 13.0064 3.38207 12.7636C3.28159 12.5209 3.22991 12.2608 3.22998 11.998C3.23005 11.7353 3.28186 11.4752 3.38245 11.2325C3.48305 10.9898 3.63046 10.7693 3.81627 10.5836C4.00208 10.3979 4.22265 10.2506 4.46538 10.1501C4.70812 10.0497 4.96827 9.99798 5.23098 9.99805C5.76155 9.99818 6.27033 10.2091 6.6454 10.5843C7.02047 10.9596 7.23111 11.4685 7.23098 11.999C7.23085 12.5296 7.01995 13.0384 6.64469 13.4135C6.26943 13.7885 5.76055 13.9992 5.22998 13.999ZM12.001 13.999C11.4705 13.999 10.9618 13.7883 10.5868 13.4133C10.2117 13.0382 10.001 12.5295 10.001 11.999C10.001 11.4686 10.2117 10.9599 10.5868 10.5848C10.9618 10.2098 11.4705 9.99905 12.001 9.99905C12.5314 9.99905 13.0401 10.2098 13.4152 10.5848C13.7903 10.9599 14.001 11.4686 14.001 11.999C14.001 12.5295 13.7903 13.0382 13.4152 13.4133C13.0401 13.7883 12.5314 13.999 12.001 13.999ZM18.771 13.999C18.5083 13.999 18.2481 13.9472 18.0055 13.8466C17.7628 13.746 17.5423 13.5986 17.3566 13.4128C17.1708 13.227 17.0235 13.0064 16.9231 12.7636C16.8226 12.5209 16.7709 12.2608 16.771 11.998C16.771 11.7353 16.8229 11.4752 16.9235 11.2325C17.024 10.9898 17.1715 10.7693 17.3573 10.5836C17.5431 10.3979 17.7636 10.2506 18.0064 10.1501C18.2491 10.0497 18.5093 9.99798 18.772 9.99805C19.3025 9.99818 19.8113 10.2091 20.1864 10.5843C20.5615 10.9596 20.7721 11.4685 20.772 11.999C20.7718 12.5296 20.561 13.0384 20.1857 13.4135C19.8104 13.7885 19.3015 13.9992 18.771 13.999Z" fill="#727484"/>
</g>
</svg>
