<svg width="24" height="24" viewBox="0 0 24 24" fill="none" xmlns="http://www.w3.org/2000/svg">
<g id="icon-heart">
<g id="Vector">
<mask id="path-1-inside-1_3292_3213" fill="white">
<path fill-rule="evenodd" clip-rule="evenodd" d="M10.9042 21.5267C11.5702 21.9667 12.4292 21.9667 13.0942 21.5267C15.2092 20.1307 19.8142 16.7937 21.7982 13.0597C24.4132 8.1337 21.3422 3.2207 17.2822 3.2207C14.9682 3.2207 13.5762 4.4297 12.8062 5.4687C12.7138 5.59596 12.5925 5.69952 12.4523 5.77093C12.3121 5.84233 12.1571 5.87956 11.9997 5.87956C11.8424 5.87956 11.6874 5.84233 11.5472 5.77093C11.407 5.69952 11.2857 5.59596 11.1932 5.4687C10.4232 4.4297 9.03124 3.2207 6.71724 3.2207C2.65724 3.2207 -0.413756 8.1337 2.20224 13.0597C4.18424 16.7937 8.79124 20.1307 10.9042 21.5267Z"/>
</mask>
<path d="M13.0942 21.5267L12.2679 20.2748L12.2665 20.2757L13.0942 21.5267ZM21.7982 13.0597L23.1229 13.7635L23.1231 13.763L21.7982 13.0597ZM12.8062 5.4687L11.6011 4.57555L11.5929 4.58684L12.8062 5.4687ZM11.1932 5.4687L12.4067 4.5868L12.3984 4.57558L11.1932 5.4687ZM2.20224 13.0597L3.52717 12.3564L3.52702 12.3562L2.20224 13.0597ZM10.0774 22.7782C11.2445 23.5493 12.7547 23.55 13.9219 22.7777L12.2665 20.2757C12.1038 20.3834 11.896 20.3841 11.7311 20.2752L10.0774 22.7782ZM13.9205 22.7786C15.0133 22.0573 16.7559 20.8307 18.4907 19.2922C20.2086 17.7685 22.0084 15.861 23.1229 13.7635L20.4736 12.3559C19.6041 13.9924 18.1094 15.6204 16.5001 17.0477C14.9076 18.4602 13.2902 19.6001 12.2679 20.2748L13.9205 22.7786ZM23.1231 13.763C26.1454 8.06982 22.7256 1.7207 17.2822 1.7207V4.7207C19.9589 4.7207 22.6811 8.19759 20.4734 12.3564L23.1231 13.763ZM17.2822 1.7207C14.3553 1.7207 12.5605 3.28102 11.6011 4.57558L14.0114 6.36182C14.592 5.57839 15.5812 4.7207 17.2822 4.7207V1.7207ZM11.5929 4.58684C11.6395 4.52264 11.7007 4.47039 11.7714 4.43436L13.1332 7.10749C13.4843 6.92865 13.788 6.66927 14.0196 6.35057L11.5929 4.58684ZM11.7714 4.43436C11.8421 4.39834 11.9204 4.37956 11.9997 4.37956V7.37956C12.3937 7.37956 12.7821 7.28633 13.1332 7.10749L11.7714 4.43436ZM11.9997 4.37956C12.0791 4.37956 12.1573 4.39834 12.2281 4.43436L10.8663 7.10749C11.2174 7.28633 11.6058 7.37956 11.9997 7.37956V4.37956ZM12.2281 4.43436C12.2988 4.47039 12.36 4.52264 12.4066 4.58684L9.97985 6.35057C10.2115 6.66928 10.5152 6.92865 10.8663 7.10749L12.2281 4.43436ZM12.3984 4.57558C11.439 3.28102 9.64417 1.7207 6.71724 1.7207V4.7207C8.41832 4.7207 9.40751 5.57839 9.98811 6.36182L12.3984 4.57558ZM6.71724 1.7207C1.27387 1.7207 -2.14601 8.06994 0.877466 13.7632L3.52702 12.3562C1.3185 8.19747 4.04062 4.7207 6.71724 4.7207V1.7207ZM0.877323 13.763C1.99088 15.8609 3.79094 17.7686 5.50881 19.2922C7.24355 20.8307 8.98611 22.0572 10.0774 22.7782L11.7311 20.2752C10.7094 19.6002 9.09194 18.4602 7.49943 17.0477C5.89004 15.6203 4.39561 13.9925 3.52717 12.3564L0.877323 13.763Z" fill="#727484" mask="url(#path-1-inside-1_3292_3213)"/>
</g>
</g>
</svg>
