<svg width="24" height="24" viewBox="0 0 24 24" fill="none" xmlns="http://www.w3.org/2000/svg">
<g id="icon-chat-bubble-mono">
<g id="Vector">
<mask id="path-1-inside-1_3292_3217" fill="white">
<path fill-rule="evenodd" clip-rule="evenodd" d="M12 1.56445C6.201 1.56445 1.5 5.81745 1.5 11.0645C1.5 13.5915 2.598 15.8815 4.376 17.5845L3.508 21.8335C3.48952 21.9243 3.49667 22.0186 3.52867 22.1056C3.56066 22.1927 3.61624 22.2691 3.68918 22.3264C3.76212 22.3836 3.84956 22.4195 3.94171 22.4299C4.03386 22.4404 4.1271 22.425 4.211 22.3855L8.942 20.1525C9.93827 20.4262 10.9668 20.5648 12 20.5645C17.799 20.5645 22.5 16.3115 22.5 11.0645C22.5 5.81745 17.799 1.56445 12 1.56445Z"/>
</mask>
<path d="M4.376 17.5845L5.84565 17.8847L6.01131 17.0737L5.41357 16.5012L4.376 17.5845ZM3.508 21.8335L2.03835 21.5332L2.03809 21.5345L3.508 21.8335ZM4.211 22.3855L4.85009 23.7425L4.85126 23.7419L4.211 22.3855ZM8.942 20.1525L9.3394 18.7061L8.80393 18.5589L8.30174 18.796L8.942 20.1525ZM12 20.5645V19.0645H11.9996L12 20.5645ZM12 0.0644531C5.51738 0.0644531 0 4.85128 0 11.0645H3C3 6.78362 6.88462 3.06445 12 3.06445V0.0644531ZM0 11.0645C0 14.0435 1.29764 16.713 3.33843 18.6677L5.41357 16.5012C3.89836 15.0499 3 13.1394 3 11.0645H0ZM2.90635 17.2842L2.03835 21.5332L4.97765 22.1337L5.84565 17.8847L2.90635 17.2842ZM2.03809 21.5345C1.96416 21.898 1.99278 22.2749 2.12077 22.6231L4.93657 21.5881C5.00056 21.7622 5.01487 21.9507 4.97791 22.1324L2.03809 21.5345ZM2.12077 22.6231C2.24875 22.9713 2.47105 23.277 2.76282 23.5061L4.61554 21.1466C4.76143 21.2611 4.87258 21.414 4.93657 21.5881L2.12077 22.6231ZM2.76282 23.5061C3.0546 23.7352 3.40434 23.8787 3.77293 23.9204L4.11049 20.9395C4.29478 20.9603 4.46965 21.032 4.61554 21.1466L2.76282 23.5061ZM3.77293 23.9204C4.14153 23.9621 4.51448 23.9005 4.85009 23.7425L3.57191 21.0284C3.73971 20.9494 3.92619 20.9186 4.11049 20.9395L3.77293 23.9204ZM4.85126 23.7419L9.58226 21.5089L8.30174 18.796L3.57074 21.029L4.85126 23.7419ZM8.5446 21.5989C9.67048 21.9082 10.8328 22.0648 12.0004 22.0645L11.9996 19.0645C11.1008 19.0647 10.2061 18.9442 9.3394 18.7061L8.5446 21.5989ZM12 22.0645C18.4826 22.0645 24 17.2776 24 11.0645H21C21 15.3453 17.1154 19.0645 12 19.0645V22.0645ZM24 11.0645C24 4.85128 18.4826 0.0644531 12 0.0644531V3.06445C17.1154 3.06445 21 6.78362 21 11.0645H24Z" fill="#727484" mask="url(#path-1-inside-1_3292_3217)"/>
</g>
</g>
</svg>
