<svg width="278" height="362" viewBox="0 0 278 362" fill="none" xmlns="http://www.w3.org/2000/svg">
<ellipse cx="139.5" cy="347.5" rx="70.5" ry="14.5" fill="black" fill-opacity="0.3"/>
<mask id="mask0_3670_14034" style="mask-type:alpha" maskUnits="userSpaceOnUse" x="0" y="0" width="278" height="347">
<rect width="278" height="347" fill="#D9D9D9"/>
</mask>
<g mask="url(#mask0_3670_14034)">
<path d="M43.5239 71.1917L137.175 82.1893V165.591L43.5239 155.957L43.5239 71.1917Z" fill="#FFEC00"/>
<path d="M52.9761 63.9302L137.176 75.7738V165.591L52.9761 155.215L52.9761 63.9302Z" fill="#FFEC00"/>
<path d="M64.7476 55.9424L137.174 68.7166V165.59L64.7476 150.456L64.7476 55.9424Z" fill="#F5F6F9"/>
<path d="M230.826 71.1914L137.175 82.1891V165.59L230.826 155.956L230.826 71.1914Z" fill="#FFEC00"/>
<path d="M221.374 63.9302L137.173 75.7738V165.591L221.374 155.215L221.374 63.9302Z" fill="#FFEC00"/>
<path d="M209.602 55.9424L137.176 68.7166V165.59L209.602 150.456L209.602 55.9424Z" fill="#F5F6F9"/>
<path d="M137.256 76.6299L137.256 152.379" stroke="white" stroke-width="2" stroke-linecap="round"/>
<path fill-rule="evenodd" clip-rule="evenodd" d="M80.4888 99.5463C82.1546 100.726 83.6985 101.337 84.8606 101.263C89.5621 100.963 100.55 88.6342 100.573 74.291C100.595 59.9478 93.5963 48.7687 84.941 49.3217C79.9291 49.642 75.4607 53.8259 72.5825 60.0765C68.762 56.8915 64.5076 55.5027 60.5921 56.6192C54.253 58.4268 50.6136 66.2844 50.879 75.9044C46.1927 73.642 41.5593 73.2126 37.9623 75.139C30.3146 79.2347 30.2478 92.4284 37.8133 104.608C45.3787 116.788 61.205 121.47 65.3592 119.245C67.7736 117.952 69.9874 112.322 69.933 105.442C71.8781 106.19 73.5504 106.432 74.6684 106.113C76.4455 105.607 78.6675 103.156 80.4888 99.5463Z" fill="#FF8BCA"/>
<path fill-rule="evenodd" clip-rule="evenodd" d="M144.908 62.5517C144.593 62.3532 144.271 62.1303 143.943 61.8841C142.242 68.0527 138.829 72.5244 136.34 73.0652C132.058 73.9957 119.092 65.7703 115.423 52.9455C111.754 40.1207 115.171 28.3355 123.054 26.6225C126.762 25.8168 130.797 27.3828 134.414 30.6021C136.624 21.929 141.878 15.8284 148.009 15.8284C155.075 15.8284 160.978 23.9346 162.396 34.7431C163.9 34.3762 165.4 34.3288 166.849 34.6437C174.732 36.3567 178.148 48.1419 174.479 60.9667C170.81 73.7915 157.845 82.017 153.562 81.0865C150.162 80.3475 145.036 72.2694 144.908 62.5517Z" fill="#78D9FF"/>
<path d="M188.832 34.8218C185.831 45.3116 189.59 55.1607 192.243 55.7373C194.897 56.3139 203.521 49.1556 206.522 38.6657C209.523 28.1758 207.996 18.8116 203.111 17.7501C198.226 16.6887 191.833 24.3319 188.832 34.8218Z" fill="#FB7A35"/>
<path d="M93.5048 23.5158C96.5058 34.0057 92.7471 43.8548 90.0936 44.4314C87.4401 45.008 78.816 37.8497 75.815 27.3598C72.8141 16.8699 74.3413 7.50571 79.2262 6.44424C84.1111 5.38276 90.5039 13.026 93.5048 23.5158Z" fill="#FB7A35"/>
<path d="M20.8934 121.144C28.1443 126.235 31.3047 132.609 30.14 133.572C28.9753 134.535 20.3797 132.655 13.1288 127.565C5.87799 122.474 1.73816 116.91 3.88229 115.137C6.02642 113.364 13.6426 116.054 20.8934 121.144Z" fill="#78D9FF"/>
<path d="M254.232 137.266C246.981 142.357 243.82 148.731 244.985 149.694C246.15 150.657 254.745 148.777 261.996 143.686C269.247 138.596 273.387 133.032 271.243 131.259C269.099 129.486 261.482 132.175 254.232 137.266Z" fill="#78D9FF"/>
<path d="M58.7162 11.5511C63.1993 17.9307 63.1998 24.6519 61.6425 25.3159C60.0852 25.98 52.8173 22.3578 48.3342 15.9782C43.8511 9.59866 42.5409 3.43596 45.4078 2.21346C48.2747 0.990953 54.2331 5.17158 58.7162 11.5511Z" fill="#FF8BCA"/>
<path d="M227.938 30.4809C222.666 36.5796 221.816 43.2763 223.284 44.0274C224.752 44.7786 232.451 41.5873 237.723 35.4885C242.996 29.3898 245.079 23.3248 242.377 21.942C239.675 20.5591 233.21 24.3821 227.938 30.4809Z" fill="#FF8BCA"/>
<path d="M5.30762 97.769L44.8919 127.716" stroke="#FB7A35" stroke-width="2" stroke-linecap="round"/>
<path d="M278 111.862L230.499 137.405" stroke="#FB7A35" stroke-width="2" stroke-linecap="round"/>
<path d="M98.7749 19.7461L125.76 102.886" stroke="#78D9FF" stroke-width="2" stroke-linecap="round"/>
<path d="M216.17 38.4397L175.953 104.013" stroke="#FF8BCA" stroke-width="2" stroke-linecap="round"/>
<path fill-rule="evenodd" clip-rule="evenodd" d="M214.73 102.992C212.789 104.065 211.119 104.627 210.005 104.57C205.494 104.34 198.048 93.3612 201.847 80.4802C205.646 67.5992 215.457 57.5006 223.761 57.9242C228.569 58.1695 231.818 61.8891 232.963 67.4781C237.541 64.5858 242.065 63.3029 245.591 64.2725C251.299 65.8423 252.76 72.8679 249.938 81.5093C255.116 79.4384 259.754 79.0139 262.753 80.7134C269.129 84.3271 265.681 96.1754 255.049 107.177C244.418 118.179 227.718 122.518 224.255 120.555C222.242 119.414 221.58 114.377 223.465 108.198C221.367 108.886 219.67 109.117 218.664 108.84C217.064 108.4 215.547 106.219 214.73 102.992Z" fill="#FB7A35"/>
<path d="M129.389 341.902C127.128 342.264 124.914 342.688 122.706 343.122C119.469 343.761 116.318 344.728 113.119 345.52C107.122 346.997 101.039 347.207 94.9129 346.754C93.7086 346.663 92.5329 346.382 91.4905 345.729C89.9007 344.743 89.7532 343.222 91.1192 341.94C91.9094 341.197 92.8947 340.768 93.8181 340.258C93.761 340.034 93.5801 340.019 93.4373 339.962C88.1681 337.732 85.2884 333.614 84.3793 328.095C82.8799 318.982 88.1491 311.818 93.7991 308.954C94.1751 308.763 94.3322 308.492 94.3845 308.082C95.1318 302.577 96.9453 297.439 99.7584 292.654C99.9631 292.306 100.039 292.082 99.6156 291.82C91.2097 286.563 84.9409 279.228 79.6051 271.011C75.7782 265.12 72.5367 258.924 70.409 252.195C68.3528 245.694 67.5769 239.026 68.0481 232.229C68.2528 229.265 67.4769 226.648 65.8729 224.213C65.5206 223.679 65.1922 223.126 64.8923 222.559C63.155 219.294 65.1303 215.596 68.2052 214.533C71.7085 213.322 75.226 213.394 78.6674 214.852C80.0287 215.429 81.0854 216.387 81.9708 217.569C83.5415 219.656 84.7696 221.92 85.6977 224.36C86.0928 225.404 86.5593 226.419 86.9829 227.435C87.3209 227.397 87.4208 227.153 87.5684 226.977C91.8856 221.83 97.0738 217.759 102.928 214.528C104.104 213.88 104.899 213.055 105.466 211.811C107.765 206.774 110.163 201.779 113.443 197.28C115.642 194.263 118.217 191.641 121.601 189.959C124.134 188.701 126.809 188.143 129.598 188.915C132.978 189.849 134.896 192.251 135.853 195.516C136.124 196.431 136.319 197.37 136.562 198.342C137.028 198.161 136.952 197.761 137.019 197.456C137.509 195.092 138.232 192.857 140.017 191.098C142.164 188.982 144.754 188.295 147.667 188.696C152.207 189.32 155.501 192.018 158.386 195.335C161.523 198.943 163.684 203.166 165.84 207.384C166.616 208.904 167.372 210.448 168.015 212.031C168.472 213.146 169.215 213.846 170.247 214.409C174.25 216.597 177.968 219.194 181.319 222.297C182.99 223.841 184.565 225.476 186.007 227.239C186.15 227.411 186.245 227.749 186.521 227.663C186.736 227.592 186.726 227.263 186.821 227.049C188.192 223.927 189.306 220.695 191.315 217.864C193.004 215.486 195.189 214.094 198.007 213.632C200.268 213.26 202.538 213.289 204.752 213.927C207.422 214.7 209.093 216.406 209.493 219.256C209.673 220.533 209.197 221.615 208.626 222.683C208.088 223.693 207.527 224.699 206.917 225.671C205.866 227.354 205.613 229.222 205.718 231.128C205.937 235.122 205.837 239.097 205.313 243.063C204.514 249.116 202.634 254.825 199.982 260.297C195.708 269.124 190.348 277.193 183.385 284.142C181.09 286.434 178.625 288.517 175.94 290.342C175.507 290.638 175.393 290.833 175.712 291.334C178.967 296.462 181.09 302.019 181.876 308.058C181.952 308.635 182.299 308.859 182.737 309.092C191.062 313.534 194.585 324.525 190.372 332.947C188.768 336.154 186.35 338.513 183.023 339.896C182.852 339.967 182.69 340.053 182.523 340.139C182.504 340.148 182.499 340.186 182.461 340.258C183.251 340.725 184.108 341.087 184.836 341.669C185.346 342.078 185.793 342.536 185.998 343.17C186.298 344.09 185.879 345.038 184.874 345.682C183.399 346.625 181.714 346.787 180.034 346.906C174.731 347.273 169.576 346.549 164.507 344.952C160.604 343.723 156.625 342.793 152.531 342.393C150.646 342.212 148.771 342.021 146.81 341.912C146.548 341.645 146.719 341.445 146.829 341.235C148.918 337.246 149.975 332.961 150.508 328.509C150.846 325.683 150.913 322.842 150.775 320.016C150.584 316.132 149.87 312.314 148.757 308.577C148.009 306.071 146.972 303.716 145.382 301.614C143.33 298.902 140.622 297.863 137.3 298.278C137.219 298.287 137.142 298.307 137.062 298.307C134.196 298.311 132.202 299.836 130.588 302.024C128.589 304.731 127.647 307.872 126.833 311.08C125.6 315.951 125.271 320.912 125.528 325.898C125.79 330.959 126.856 335.863 129.041 340.477C129.255 340.901 129.498 341.33 129.389 341.902Z" fill="#00CF4B"/>
<path d="M129.408 341.983C128.698 340.301 127.946 338.666 127.394 336.97C124.786 328.915 124.591 320.741 126.304 312.486C126.956 309.331 127.804 306.247 129.398 303.416C130.312 301.786 131.483 300.385 132.968 299.246C133.62 298.745 134.372 298.478 135.162 298.321C136.9 297.973 138.651 297.845 140.417 298.107C142.526 298.421 144.082 299.632 145.386 301.224C147.181 303.416 148.271 305.966 149.042 308.659C151.489 317.247 151.827 325.888 149.618 334.582C148.975 337.098 148.09 339.529 146.757 341.836C141.674 341.369 136.6 341.283 131.526 341.883C130.84 341.955 130.145 341.964 129.408 341.983Z" fill="#DBFF9E"/>
<path d="M143.397 216.94C142.183 216.992 141.026 217.011 139.86 216.849C138.885 216.716 138.071 216.339 137.342 215.753C136.952 215.438 136.743 215.477 136.409 215.786C135.205 216.902 133.763 217.44 132.126 217.435C131.811 217.435 131.497 217.345 131.121 217.297C130.521 216.954 129.893 216.763 129.455 216.268C129.06 215.82 128.732 215.353 128.817 214.709C128.903 214.704 128.989 214.685 128.998 214.7C130.174 217.231 134.572 216.735 136.214 214.99C136.909 214.252 136.919 214.266 137.609 214.99C139.403 216.878 143.459 216.597 144.958 214.471C145.115 214.247 145.244 213.956 145.567 214.137C145.901 214.328 145.705 214.623 145.582 214.838C145.068 215.729 144.43 216.497 143.397 216.94Z" fill="#0A1006"/>
<path d="M131.56 220.607C130.574 220.444 129.629 220.55 128.683 220.547C128.368 220.547 128.259 220.84 128.107 221.044C125.097 225.053 121.231 227.906 116.482 229.526C101.652 234.583 86.0468 224.475 84.5906 208.875C84.338 206.177 84.4765 203.503 85.2753 200.889C85.3024 200.8 85.3051 200.705 85.2943 200.569C85.661 199.915 85.8186 199.204 86.0631 198.533C88.2935 192.412 92.5316 188.045 98.0656 184.809C100.655 183.295 103.534 182.841 106.46 182.613C112.307 182.155 117.604 183.683 122.378 187.068C122.579 187.209 122.772 187.366 123.06 187.44C123.576 187.602 123.883 187.985 124.23 188.295C126.735 190.542 128.803 193.129 130.283 196.164C130.805 197.236 131.261 198.338 131.615 199.478C131.75 199.918 131.97 200.124 132.465 200.108C135.168 200.015 137.874 199.948 140.574 199.828C142.017 199.766 141.713 200.051 142.261 198.56C143.487 195.219 145.35 192.258 147.673 189.57C148.219 188.938 148.801 188.346 149.387 187.757C149.55 187.594 149.719 187.445 149.98 187.355C150.243 187.271 150.428 187.141 150.596 186.984C158.695 179.505 170.2 180.708 176.938 184.592C186.848 190.306 191.806 202.543 188.394 213.305C187.378 216.511 185.677 219.334 183.433 221.837C183.246 222.046 183.012 222.225 182.942 222.561C182.659 222.556 182.523 222.762 182.363 222.914C171.952 232.879 155.766 231.926 146.619 220.8C146.336 220.455 146.043 220.3 145.603 220.33C144.85 220.382 144.09 220.297 143.296 220.447C143.006 220.683 142.701 220.68 142.397 220.68C140.922 220.683 139.447 220.713 137.974 220.672C136.122 220.623 134.274 220.824 132.424 220.792C132.142 220.792 131.848 220.832 131.56 220.607Z" fill="#FF8BCA"/>
<path d="M152.221 218.142C149.528 215.202 147.893 211.812 147.518 207.871C146.926 201.663 149.099 196.53 153.658 192.339C155.736 190.428 158.045 188.94 160.811 188.221C165.859 186.91 170.637 187.556 175.063 190.298C179.817 193.243 182.624 197.545 183.384 203.082C184.256 209.423 182.262 214.825 177.603 219.173C174.726 221.858 171.24 223.356 167.298 223.753C162.514 224.236 158.225 222.974 154.386 220.118C153.612 219.54 152.919 218.867 152.221 218.142Z" fill="#0E0E0E"/>
<path d="M101.418 223.208C97.2808 221.384 94.1891 218.498 92.2711 214.462C89.9211 209.519 89.8967 204.494 92.0836 199.473C93.3361 196.598 95.3627 194.359 97.7263 192.323C100.234 190.16 103.108 188.96 106.319 188.534C110.582 187.969 114.586 188.819 118.229 191.121C122.938 194.096 125.738 198.365 126.496 203.881C127.366 210.222 125.372 215.624 120.713 219.969C117.836 222.654 114.347 224.136 110.408 224.551C107.3 224.88 104.331 224.405 101.418 223.208Z" fill="#0E0E0E"/>
</g>
</svg>
