<svg viewBox="0 0 319 148" fill="none" xmlns="http://www.w3.org/2000/svg">
<path d="M221.979 89.3216C219.206 95.336 214.901 99.3615 210.072 99.6699C201.732 100.202 194.989 89.4454 195.01 75.6439C195.032 61.8426 205.619 49.9801 210.149 49.6908C211.268 49.6194 212.756 50.2083 214.361 51.3435C216.116 47.8695 218.256 45.5119 219.969 45.024C221.046 44.7171 222.658 44.9509 224.534 45.6715C224.481 39.0504 226.613 33.6318 228.94 32.3875C232.943 30.247 248.191 34.753 255.48 46.4724C262.769 58.1918 262.704 70.8877 255.336 74.8286C251.87 76.6821 247.406 76.2682 242.89 74.0909C243.146 83.3478 239.639 90.9087 233.531 92.6481C229.759 93.7222 225.66 92.3861 221.979 89.3216Z" fill="#FF8BCA"/>
<path d="M149.307 131.898C142.499 131.898 136.813 124.098 135.448 113.697C133.997 114.051 132.553 114.097 131.156 113.794C123.56 112.146 120.268 100.805 123.803 88.4648C127.338 76.1247 139.831 68.2105 143.957 69.1055C147.233 69.8165 152.172 77.5895 152.295 86.9404C152.599 87.1316 152.909 87.3468 153.225 87.584C154.864 81.6477 158.152 77.3437 160.55 76.8232C164.676 75.9283 177.169 83.8434 180.704 96.1836C184.238 108.524 180.946 119.863 173.351 121.512C169.779 122.287 165.891 120.78 162.407 117.682C160.278 126.028 155.214 131.898 149.307 131.898Z" fill="#6BCEF5"/>
<path d="M109.974 113.622C112.865 103.528 109.243 94.051 106.687 93.4962C104.13 92.9414 95.821 99.8293 92.9296 109.923C90.0383 120.017 91.5097 129.027 96.2163 130.049C100.923 131.07 107.082 123.715 109.974 113.622Z" fill="#FB7A35"/>
<path d="M201.821 124.501C198.93 114.407 202.551 104.93 205.108 104.375C207.664 103.82 215.973 110.708 218.865 120.802C221.756 130.896 220.285 139.906 215.578 140.928C210.872 141.949 204.712 134.594 201.821 124.501Z" fill="#FFF500"/>
<path d="M271.781 30.5602C264.794 25.6617 261.749 19.5285 262.872 18.6018C263.994 17.6751 272.276 19.4839 279.262 24.3824C286.248 29.2809 290.236 34.6349 288.171 36.3408C286.105 38.0467 278.767 35.4587 271.781 30.5602Z" fill="#6BCEF5"/>
<path d="M46.9631 15.0465C53.9492 10.148 56.9942 4.01478 55.8721 3.08813C54.7499 2.16147 46.4681 3.97028 39.482 8.86877C32.4959 13.7673 28.5072 19.1212 30.5731 20.8271C32.6389 22.5331 39.977 19.945 46.9631 15.0465Z" fill="#6BCEF5"/>
<path d="M235.338 136.014C231.019 129.875 231.018 123.408 232.519 122.769C234.019 122.13 241.022 125.616 245.341 131.754C249.661 137.893 250.923 143.823 248.161 144.999C245.398 146.175 239.658 142.153 235.338 136.014Z" fill="#FF8BCA"/>
<path d="M72.2967 117.8C77.3765 111.932 78.1947 105.488 76.7804 104.765C75.3662 104.043 67.9485 107.113 62.8687 112.982C57.7889 118.85 55.7814 124.686 58.3849 126.017C60.9884 127.347 67.2169 123.669 72.2967 117.8Z" fill="#FF8BCA"/>
<path d="M317.231 71.9874C317.705 72.2706 318.319 72.1159 318.602 71.6418C318.885 71.1676 318.731 70.5537 318.257 70.2704L317.231 71.9874ZM317.744 71.1289L318.257 70.2704L241.257 24.2704L240.744 25.1289L240.231 25.9874L317.231 71.9874L317.744 71.1289Z" fill="#FB7A35"/>
<path d="M50.5177 23.0707C50.9849 22.7762 51.6024 22.9162 51.8969 23.3834C52.1914 23.8507 52.0514 24.4682 51.5842 24.7626L50.5177 23.0707ZM1 55.4648L0.466768 54.6189L50.5177 23.0707L51.0509 23.9167L51.5842 24.7626L1.53323 56.3108L1 55.4648Z" fill="#FB7A35"/>
<path d="M195.793 128.438C195.963 128.963 196.527 129.251 197.053 129.08C197.578 128.909 197.865 128.345 197.695 127.82L195.793 128.438ZM196.744 128.129L197.695 127.82L171.695 47.8198L170.744 48.1289L169.793 48.438L195.793 128.438L196.744 128.129Z" fill="#6BCEF5"/>
<path d="M121.531 46.521C121.82 46.0503 122.436 45.9031 122.906 46.1922C123.377 46.4812 123.524 47.097 123.235 47.5676L121.531 46.521ZM83.6338 110.141L82.7817 109.617L121.531 46.521L122.383 47.0443L123.235 47.5676L84.4859 110.664L83.6338 110.141Z" fill="#FF8BCA"/>
<path d="M67.4538 82.1983C68.5573 87.5765 71.6878 91.1558 76.3206 91.392C84.3213 91.7997 93.7747 82.0824 97.4346 69.6879C101.094 57.2936 93.9209 46.7294 89.5749 46.5077C88.5007 46.4529 86.8908 46.994 85.0208 48.0271C84.2339 44.9223 82.7733 42.8226 81.2317 42.3989C80.2618 42.1325 78.6263 42.3563 76.6048 43.0184C78.4218 37.0722 77.7846 32.2246 75.8449 31.1268C72.5072 29.2383 56.4172 33.413 46.1745 43.9992C35.9316 54.5856 32.609 65.9868 38.7527 69.4639C41.6418 71.099 46.1099 70.6903 51.0982 68.6979C48.3801 77.0129 49.7879 83.7734 55.2875 85.2839C58.6844 86.2167 63.0426 84.9814 67.4538 82.1983Z" fill="#FFF500"/>
</svg>
