<svg width="113" height="113" viewBox="0 0 113 113" fill="none" xmlns="http://www.w3.org/2000/svg">
<circle cx="56.5" cy="56.5" r="56.5" fill="#6EED9C"/>
<mask id="mask0_2368_26134" style="mask-type:alpha" maskUnits="userSpaceOnUse" x="0" y="0" width="113" height="113">
<circle cx="56.5" cy="56.5" r="56.5" fill="#6EED9C"/>
</mask>
<g mask="url(#mask0_2368_26134)">
<path d="M31.9441 85.4248C30.8368 86.5746 29.812 87.7926 28.8609 89.0707C28.8557 89.0767 28.8506 89.0826 28.8457 89.0884C28.7831 89.1624 28.7355 89.2327 28.7008 89.2896L28.6843 89.2965L28.4968 89.6082C28.4104 89.704 28.3484 89.7941 28.3061 89.862C28.2782 89.9067 28.2556 89.947 28.2385 89.9791C28.1839 90.0529 28.1412 90.1238 28.1082 90.1854C27.9972 90.3132 27.9217 90.4351 27.8724 90.5237C27.8387 90.5842 27.8094 90.6444 27.7877 90.691C27.7573 90.7238 27.7314 90.7545 27.7096 90.7819C27.6875 90.8098 27.6674 90.837 27.6493 90.863L27.5693 90.8949L27.3514 91.4017C27.2753 91.4966 27.2225 91.5847 27.1874 91.6502C27.183 91.6583 27.1788 91.6663 27.1748 91.6742C27.0989 91.7665 27.0432 91.8545 27.0029 91.9267C26.9598 92.0039 26.9281 92.0741 26.9057 92.1288C26.8533 92.191 26.8111 92.2511 26.7775 92.3044L26.7729 92.3082L26.7642 92.3258C26.7404 92.3649 26.7215 92.3997 26.7068 92.4282C26.672 92.4958 26.6475 92.5551 26.6319 92.5952L26.6284 92.6023C26.5998 92.6607 26.5765 92.7142 26.5588 92.7572C26.541 92.8 26.5257 92.8396 26.5145 92.8692L26.5046 92.8951C26.4281 92.9946 26.3763 93.0864 26.3432 93.1517C26.3254 93.1868 26.3104 93.2193 26.2981 93.2479C26.2839 93.2722 26.2717 93.2945 26.2613 93.3143C26.2378 93.3592 26.2189 93.4003 26.2041 93.4347C26.1865 93.4652 26.1718 93.4929 26.1597 93.5168C26.1434 93.549 26.1295 93.5792 26.1176 93.6066C26.0719 93.6818 26.0397 93.7463 26.0197 93.7878C26.0075 93.813 25.9961 93.8379 25.9858 93.861L25.8731 93.9301L25.7087 94.4787C25.7028 94.4984 25.6903 94.5322 25.6555 94.5986C25.6374 94.6331 25.6156 94.6722 25.5857 94.7241C25.5782 94.7372 25.5667 94.7569 25.5537 94.7794C25.5363 94.8092 25.5162 94.8439 25.4986 94.8745C25.4433 94.9644 25.4019 95.0485 25.3711 95.1191C25.3334 95.2053 25.3061 95.2834 25.2868 95.3433C25.2713 95.3917 25.2584 95.4364 25.2487 95.4711C25.1806 95.5741 25.132 95.6718 25.097 95.7541C25.0543 95.8547 25.027 95.9441 25.0095 96.0088C25.0081 96.0138 25.0068 96.0188 25.0055 96.0237C24.9599 96.1042 24.9259 96.1791 24.9005 96.2427C24.8641 96.3335 24.8403 96.4142 24.8247 96.4729L24.7793 96.5697C24.694 96.7515 24.6474 96.9192 24.6219 97.0186C24.611 97.0611 24.6014 97.1017 24.5942 97.1329C24.579 97.1557 24.5648 97.1783 24.5516 97.2007C24.4583 97.3577 24.409 97.5022 24.3818 97.6007C24.3783 97.6134 24.3751 97.6259 24.372 97.638C24.3304 97.7308 24.3037 97.8136 24.2861 97.878C24.2822 97.8924 24.2785 97.9065 24.2752 97.9202C24.2288 98.0258 24.2011 98.1195 24.1839 98.1892C24.177 98.217 24.1712 98.2435 24.1663 98.2682L24.155 98.3029C23.7088 99.6796 23.3919 101.211 23.1038 102.603C23.0304 102.958 22.9588 103.304 22.8874 103.636C22.8448 103.662 22.7981 103.692 22.749 103.726C22.7152 103.742 22.6642 103.768 22.6056 103.804C22.5775 103.821 22.5423 103.843 22.5026 103.872L22.4883 103.88L22.4861 103.881C22.461 103.895 22.4067 103.926 22.3493 103.962C22.329 103.974 22.3036 103.991 22.2745 104.011C21.9861 104.172 21.6706 104.37 21.3745 104.615C21.2295 104.709 21.0858 104.816 20.9553 104.931C20.7099 105.107 20.4913 105.306 20.3624 105.424C20.3502 105.435 20.3388 105.445 20.3283 105.455L20.3035 105.477C19.7812 105.869 19.352 106.327 19.0032 106.772C15.7631 110.15 14.5534 114.974 15.2348 119.364C15.7992 123 17.6861 126.462 20.9282 128.595C20.3985 129.12 19.9133 129.794 19.7398 130.6C19.5352 131.549 19.8097 132.48 20.5053 133.21C21.1361 133.871 22.0547 134.315 23.1175 134.621L23.1666 134.635L23.2164 134.646C26.3675 135.325 29.5603 135.064 32.4917 134.784C32.9346 136.719 34.0421 138.088 35.6468 138.836C37.4285 139.666 39.5833 139.614 41.5815 139.19C43.6149 138.758 45.6943 137.897 47.4745 136.857C49.197 135.851 50.7617 134.605 51.7262 133.295C52.2585 132.714 52.664 131.986 52.7755 131.141C52.887 130.296 52.6866 129.461 52.2243 128.707C52.059 128.283 51.8708 127.869 51.7032 127.502C51.6652 127.418 51.6282 127.337 51.5928 127.259C51.3708 126.767 51.1914 126.343 51.0674 125.921L51.0568 125.885L51.0444 125.85C49.4358 121.247 49.0476 116.217 49.5777 111.318C49.5964 111.198 49.6151 111.079 49.6339 110.958C50.0131 108.533 50.418 105.943 51.2654 103.645C52.1409 101.27 53.4136 99.4204 55.4113 98.4306C57.7322 97.6376 59.5786 98.1207 61.0262 99.2672C62.5593 100.481 63.7334 102.524 64.3335 104.881L64.3401 104.907L64.3475 104.933C66.3517 111.782 66.464 119.223 64.1468 125.916L64.1411 125.932L64.1357 125.949C63.9303 126.591 63.6578 127.185 63.343 127.871C63.2552 128.062 63.164 128.261 63.0701 128.47C62.8483 128.91 62.5489 129.541 62.4398 130.236C62.3207 130.994 62.424 131.858 63.0088 132.65C63.9051 134.094 65.4804 135.456 67.2261 136.552C69.0267 137.683 71.1558 138.625 73.2485 139.121C75.3058 139.608 77.5285 139.712 79.3767 138.912C81.0609 138.184 82.2404 136.79 82.7133 134.783C85.3278 135.032 88.0944 135.23 90.8709 134.861C93.0163 134.681 95.0361 133.659 95.4083 131.676C95.6327 130.481 95.1751 129.434 94.3541 128.608C101.09 123.626 102.364 113.567 96.2389 106.812C95.8254 106.25 95.3408 105.825 94.9221 105.494C94.7656 105.332 94.6072 105.208 94.5083 105.132C94.4371 105.078 94.3941 105.046 94.3639 105.023C94.3549 105.016 94.347 105.011 94.3399 105.005C94.2687 104.934 94.2014 104.879 94.1466 104.836C94.0504 104.762 93.961 104.707 93.9168 104.68L93.9096 104.676C93.6894 104.474 93.4687 104.334 93.3133 104.241C93.1939 104.169 93.1291 104.132 93.0824 104.106C93.0586 104.093 93.0396 104.082 93.0204 104.071C92.946 104.012 92.8784 103.968 92.8262 103.937C92.8221 103.934 92.818 103.932 92.8139 103.93L92.7609 103.816L92.308 103.644L92.3066 103.635C91.7937 99.814 90.5019 96.1512 88.6975 92.8072C87.0893 89.7761 84.9756 87.0972 82.5823 84.7248C94.8268 78.4998 101.302 69.1107 101.496 59.2714C101.696 49.0933 95.1622 39.0176 82.5784 32.0863C81.8191 31.486 81.2983 30.5759 80.7493 29.3278C80.6433 29.0868 80.5342 28.8266 80.4199 28.554C79.9884 27.5251 79.4828 26.3195 78.7905 25.3021C77.3893 22.6273 75.7778 19.9519 73.6634 17.6021C70.5976 14.1106 66.5327 12.1198 62.7897 12.56C60.8907 12.7834 59.1321 13.6345 57.7452 15.1558C57.2869 15.6586 56.8764 16.2263 56.5165 16.8573C55.2391 14.6236 53.2605 13.2042 50.9103 12.7114C47.3429 11.9633 43.3313 13.4422 40.2923 16.6426C36.1566 20.7394 33.6794 26.0875 31.4076 30.9922C31.3513 31.1137 31.2951 31.2349 31.2391 31.3558C30.9091 31.8186 30.3742 32.1991 29.5558 32.6493C29.3958 32.7373 29.2177 32.8311 29.0278 32.9311C28.3359 33.2955 27.4871 33.7426 26.7867 34.2925C14.9932 42.2071 10.1858 52.5288 11.8031 62.394C13.3316 71.7175 20.5277 80.1643 31.9441 85.4248ZM20.1804 105.609C20.1788 105.611 20.1791 105.61 20.1809 105.608L20.1804 105.609ZM25.2392 96.0055L25.2327 96.0103C25.2349 96.0087 25.237 96.0071 25.2392 96.0055ZM26.5899 92.7144C26.5889 92.7175 26.5893 92.716 26.5904 92.7128L26.5899 92.7144ZM28.5954 89.8017L28.5847 89.807C28.5882 89.8053 28.5918 89.8035 28.5954 89.8017Z" stroke="#00CE4C" stroke-width="3"/>
<circle cx="48.425" cy="31.425" r="4.42496" fill="#00CE4C"/>
<circle cx="65.3878" cy="31.425" r="4.42496" fill="#00CE4C"/>
<path d="M49.7305 49.5215C52.9074 52.6984 56.9919 49.5215 56.9919 49.5215C58.2022 50.5804 61.2581 52.063 63.7996 49.5215" stroke="#00CE4C" stroke-width="2" stroke-linecap="round"/>
<circle cx="49.7314" cy="30.29" r="1.81537" fill="#6EED9C"/>
<circle cx="66.9775" cy="30.29" r="1.81537" fill="#6EED9C"/>
</g>
</svg>
