<svg width="239" height="320" viewBox="0 0 239 320" fill="none" xmlns="http://www.w3.org/2000/svg">
<path d="M145.614 319.75H99.5776L120.594 304.238L145.614 319.75Z" fill="#DBFF9E"/>
<path d="M146.774 319.25C143.991 319.031 141.234 318.787 138.463 318.555C135.971 318.348 133.493 318.117 131.001 317.988C124.281 317.64 117.547 317.794 110.827 318.039C106.837 318.181 102.835 318.348 98.7785 319.212C97.135 316.441 95.9155 313.555 94.6828 310.669C91.4354 303.067 89.6195 295.078 88.3603 286.986C87.565 281.87 87.2601 276.703 87.1143 271.523C86.7034 256.847 89.023 242.557 93.3308 228.538C94.6563 224.234 96.7373 220.214 98.8846 216.104C98.9641 215.988 98.9509 215.975 98.9641 215.975C99.3883 215.575 99.6136 215.06 99.9052 214.467C99.9847 214.39 99.9715 214.364 99.9847 214.364C100.223 214.119 100.369 213.836 100.581 213.488C100.647 213.423 100.647 213.398 100.661 213.398C100.886 213.179 101.032 212.908 101.257 212.56C101.337 212.483 101.337 212.431 101.363 212.431C101.416 212.367 101.456 212.302 101.575 212.174C101.655 212.109 101.655 212.083 101.655 212.083C101.893 211.877 102.026 211.619 102.265 211.284C102.357 211.207 102.357 211.143 102.384 211.13C102.437 211.053 102.463 210.988 102.569 210.885C102.662 210.833 102.649 210.795 102.675 210.795C102.742 210.73 102.768 210.679 102.901 210.55C102.98 210.486 102.98 210.46 102.994 210.46C103.06 210.408 103.1 210.344 103.232 210.215C103.312 210.138 103.312 210.125 103.312 210.125C103.643 209.828 103.948 209.506 104.266 209.055C104.359 208.991 104.412 208.888 104.531 208.798C104.65 208.707 104.717 208.579 104.849 208.488C104.982 208.385 105.048 208.256 105.181 208.166C105.313 208.076 105.393 207.934 105.512 207.87C105.79 207.638 105.949 207.47 106.228 207.264C106.559 206.968 106.93 206.929 107.235 206.633C107.301 206.568 107.301 206.556 107.315 206.556C107.381 206.504 107.434 206.452 107.566 206.311C107.646 206.233 107.646 206.221 107.646 206.221C107.699 206.169 107.765 206.117 107.898 205.989C107.977 205.911 107.977 205.898 107.977 205.898C108.03 205.847 108.083 205.795 108.229 205.679C108.322 205.615 108.322 205.589 108.349 205.589C108.402 205.538 108.428 205.473 108.574 205.396C111.371 203.412 114.578 203.012 117.773 202.574C121.868 202.02 125.964 201.956 130.033 202.78C136.078 204.004 140.187 207.87 143.752 212.418C145.435 214.57 146.827 216.902 148.086 219.454C148.166 219.608 148.219 219.647 148.285 219.776C148.338 219.918 148.365 219.982 148.431 220.124C148.511 220.253 148.55 220.291 148.617 220.42C148.656 220.562 148.696 220.626 148.762 220.781C148.842 220.91 148.895 220.948 148.948 221.064C148.988 221.219 149.014 221.283 149.08 221.451C149.173 221.58 149.226 221.606 149.253 221.722C149.266 221.876 149.306 221.941 149.385 222.134C149.544 222.327 149.611 222.43 149.65 222.675C149.703 222.843 149.73 222.894 149.783 223.049C149.863 223.178 149.902 223.216 149.955 223.345C149.995 223.5 150.022 223.564 150.075 223.745C150.22 223.938 150.287 224.054 150.313 224.299C150.366 224.466 150.393 224.518 150.446 224.685C150.525 224.814 150.565 224.853 150.605 224.982C150.631 225.136 150.671 225.214 150.724 225.381C150.87 225.574 150.949 225.677 150.963 225.922C151.002 226.09 151.029 226.154 151.082 226.322C151.214 226.528 151.281 226.644 151.307 226.889C151.347 227.056 151.374 227.121 151.427 227.288C151.559 227.494 151.612 227.623 151.652 227.868C151.705 228.035 151.718 228.1 151.771 228.267C151.904 228.473 151.957 228.589 151.983 228.847C152.023 229.015 152.05 229.079 152.103 229.259C152.474 230.574 152.818 231.785 153.242 233.099C153.335 233.344 153.375 233.486 153.428 233.744C153.865 235.96 154.449 238.034 154.939 240.238C155.019 240.483 155.058 240.637 155.098 240.882C155.615 243.601 156.185 246.204 156.662 248.948C156.715 249.219 156.742 249.373 156.768 249.644C156.755 250.237 156.888 250.688 156.994 251.255C157.047 251.5 157.06 251.654 157.086 251.925C157.259 253.78 157.458 255.533 157.67 257.401C157.723 257.775 157.749 258.032 157.762 258.419C157.736 259.965 158.014 261.383 158.001 262.929C158.054 263.509 158.08 263.985 158.08 264.591C158.16 267.104 158.107 269.487 158.094 272C158.08 272.606 158.067 273.07 158.054 273.675C157.935 275.337 157.762 276.858 157.762 278.507C157.749 278.791 157.749 278.945 157.723 279.216C157.603 280.221 157.431 281.097 157.431 282.089C157.418 282.36 157.404 282.514 157.378 282.785C157.02 284.305 157.02 285.749 156.755 287.282C156.728 287.553 156.715 287.707 156.689 287.978C156.344 289.073 156.371 290.104 156.106 291.199C156.079 291.457 156.066 291.611 156.026 291.869C155.615 293.287 155.443 294.627 155.098 296.057C155.058 296.315 155.045 296.456 154.992 296.701C154.608 297.796 154.396 298.827 154.104 299.948C154.064 300.206 154.051 300.348 153.985 300.593C153.441 302.255 152.911 303.801 152.434 305.463C152.394 305.721 152.354 305.875 152.262 306.133C152.235 306.301 152.248 306.352 152.182 306.455C152.089 306.571 152.076 306.623 152.023 306.79C151.466 307.834 151.175 308.852 150.83 309.973C150.737 310.128 150.724 310.192 150.658 310.347C150.419 310.785 150.26 311.146 150.154 311.609C150.061 311.751 150.035 311.816 149.969 311.983C149.916 312.138 149.916 312.202 149.836 312.305C149.743 312.421 149.73 312.486 149.664 312.627C149.293 313.259 148.961 313.8 148.802 314.522C148.709 314.663 148.683 314.741 148.603 314.908C148.55 315.063 148.55 315.127 148.484 315.23C148.378 315.346 148.365 315.411 148.285 315.565C148.232 315.72 148.232 315.771 148.153 315.887C148.06 316.003 148.047 316.068 147.98 316.21C147.728 316.635 147.569 316.996 147.463 317.472C147.384 317.614 147.357 317.678 147.304 317.833C147.053 318.271 146.893 318.632 146.801 319.109C146.801 319.186 146.787 319.238 146.774 319.25Z" fill="#DBFF9E"/>
<path d="M58.4484 194.692C59.0689 195.352 58.4484 195.642 58.1181 195.943C53.8748 199.946 50.0518 204.319 46.5891 209.013C46.469 209.073 46.429 209.413 46.3089 209.493C46.0887 209.663 46.0587 210.124 45.7985 210.234C45.7685 210.284 45.6083 210.484 45.5683 210.514C45.3281 210.714 45.2881 211.105 45.0579 211.275C44.9378 211.425 44.9378 211.695 44.7877 211.765C44.7376 211.815 44.6075 212.005 44.5575 212.035C44.1972 212.376 44.1372 213.006 43.7869 213.286C43.7369 213.346 43.5967 213.516 43.5567 213.567C43.4366 213.637 43.4066 213.977 43.2865 214.057C43.1764 214.187 43.1664 214.487 43.0163 214.547C42.8962 214.838 42.7561 215.168 42.5259 215.318C42.4158 215.448 42.4058 215.748 42.2557 215.808C42.2257 215.848 42.0756 216.048 42.0255 216.089C41.7953 216.339 41.8053 216.919 41.5051 217.079C41.4551 217.139 41.3049 217.299 41.2849 217.36C41.1548 217.42 41.1248 217.77 41.0247 217.86C40.7946 218.32 40.6544 219.011 40.2541 219.361C40.144 219.491 40.134 219.781 40.0039 219.861C39.8938 219.982 39.8838 220.292 39.7537 220.362C39.6436 220.482 39.6336 220.792 39.5035 220.862C39.3134 221.112 39.1833 221.623 39.0031 221.873C38.9031 221.993 38.883 222.303 38.7529 222.383C38.5228 223.154 38.1325 223.765 37.7622 224.415C37.4419 224.895 37.4619 225.786 37.0016 226.176C36.7514 226.507 36.8515 227.177 36.4912 227.437C36.261 227.778 36.3511 228.438 35.9908 228.698C35.7006 229.319 35.7206 230.21 35.2402 230.72C35.04 230.87 35.1802 231.33 34.98 231.471C34.7899 231.621 34.93 232.081 34.7198 232.221C34.5296 232.381 34.6697 232.842 34.4696 232.982C32.7883 238.186 31.8776 243.91 30.6866 249.124C30.1462 249.465 29.3756 249.725 28.9052 250.115C28.7851 250.225 28.5149 250.285 28.4048 250.385C28.1747 250.556 27.8244 250.696 27.6342 250.876C26.8136 251.316 26.023 251.817 25.3725 252.397C25.0122 252.617 24.6319 252.897 24.3617 253.158C23.8313 253.518 23.2908 254.008 22.8405 254.419C22.8004 254.469 22.6603 254.659 22.5803 254.649C21.4094 255.499 20.3986 256.57 19.5579 257.691C3.58538 274.174 7.17819 305.679 29.6058 314.426C26.4733 316.017 24.0514 318.008 22.9906 320H104.885C104.765 319.059 104.404 318.098 103.764 317.138C102.713 314.315 101.192 311.683 100.341 308.781C95.6776 295.421 94.6067 280.929 96.1279 266.938C98.2696 253.248 100.732 234.943 114.602 228.248C130.225 222.714 141.013 234.603 144.606 248.774C150.31 268.299 150.661 289.636 143.995 308.951C143.175 311.523 141.974 313.935 140.873 316.397C140.283 317.558 139.732 318.789 139.512 320H221.386C220.585 318.109 218.564 316.247 215.191 314.896C236.168 304.318 241.642 276.086 224.829 257.691C223.978 256.48 222.907 255.519 221.806 254.649C221.746 254.619 221.556 254.479 221.536 254.409C221.106 253.928 220.475 253.538 220.015 253.148C219.775 252.817 219.274 252.647 219.004 252.387C218.344 251.716 217.453 251.356 216.742 250.866C216.542 250.636 216.132 250.576 215.972 250.375C215.842 250.265 215.542 250.255 215.481 250.115C213.92 249.525 213.26 248.494 213.18 246.903C211.849 236.965 208.496 227.357 203.742 218.54C198.838 209.263 192.073 201.177 184.357 194.101C183.416 193.441 184.177 192.91 184.918 192.59C255.213 159.354 255.883 90.2999 188.35 53.1708C182.135 48.5172 181.075 39.4801 176.701 33.1952C172.898 25.8894 168.635 18.7939 163.11 12.639C147.468 -5.26501 123.489 -5.57526 119.076 20.9755C116.234 -3.13335 92.8554 -5.92551 77.7035 10.1471C66.6148 21.1657 60.0296 35.7271 53.5546 49.7381C50.5922 54.3017 44.3874 55.7328 40.1941 59.1054C-22.7052 101.349 -8.11378 166.96 58.4684 194.702L58.4484 194.692Z" fill="#00CE4C"/>
<path d="M102.299 16.061C108.43 19.3471 110.267 25.3426 107.062 30.8931C104.977 34.4945 100.962 36.5834 96.9277 36.1614C93.1378 35.7512 90.06 32.8906 88.9031 28.8292C86.6606 20.8875 95.7012 13.3102 102.299 16.061Z" fill="#0E0E0E"/>
<path d="M137.981 15.965C144.827 16.587 149.061 21.1641 148.65 27.2071C148.378 31.1303 145.744 34.4385 141.998 35.5541C138.473 36.5899 134.508 35.2167 131.717 32.0841C126.276 25.9513 130.957 15.9839 137.981 15.965Z" fill="#0E0E0E"/>
<path d="M99.9469 26.0106C98.0262 25.3206 97.3193 24.1117 97.847 22.2841C98.2059 21.0884 99.1016 20.3032 100.4 19.9732C102.037 19.5571 103.329 19.9335 104.298 21.0024C104.976 21.7556 105.245 22.676 104.653 23.7101C103.673 25.4001 102.015 25.9162 99.968 25.9947L99.9469 26.0106Z" fill="white"/>
<path d="M139.544 25.4346C137.816 24.0897 137.418 22.6274 138.397 20.9536C139.05 19.8631 140.133 19.369 141.5 19.4715C143.224 19.6007 144.408 20.4165 145.099 21.8248C145.582 22.816 145.619 23.8388 144.775 24.6871C143.384 26.0696 141.614 26.0346 139.569 25.4256L139.544 25.4346Z" fill="white"/>
<path d="M132.337 61.2771C135.279 61.117 137.37 59.4056 139.802 58.1446C143.505 57.6843 139.712 62.0477 138.081 62.5181C132.897 65.5004 126.892 64.5296 121.768 62.0377C116.634 62.6982 111.82 66.4411 105.936 65.3703C102.873 65.5404 93.9464 61.2671 97.9196 57.8644C98.8503 57.5842 99.3707 58.1146 99.811 58.8952C103.824 64.5196 112.511 62.408 117.885 60.1862C122.799 57.7343 127.062 62.488 132.347 61.2771H132.337Z" fill="#0E0E0E"/>
<path d="M120.45 199.156H81.062C112.572 217.281 144.898 206.708 157.122 199.156H120.45Z" fill="#00C62E"/>
</svg>
