<svg width="225" height="303" viewBox="0 0 225 303" fill="none" xmlns="http://www.w3.org/2000/svg">
<rect x="78" y="210.145" width="70" height="92" fill="#BEE6F5"/>
<path d="M112.984 188.082H76C105.587 205.1 135.939 195.173 147.416 188.082H112.984Z" fill="#25C1FF"/>
<path d="M55.1791 183.885C55.7649 184.508 55.1791 184.782 54.8673 185.066C50.8614 188.844 47.2522 192.971 43.9832 197.401C43.8698 197.457 43.832 197.779 43.7186 197.854C43.5108 198.015 43.4824 198.449 43.2368 198.553C43.2084 198.6 43.0573 198.789 43.0195 198.818C42.7927 199.006 42.7549 199.375 42.5376 199.535C42.4242 199.677 42.4242 199.932 42.2825 199.998C42.2353 200.045 42.1125 200.225 42.0652 200.253C41.7251 200.574 41.6684 201.169 41.3377 201.434C41.2905 201.49 41.1582 201.651 41.1204 201.698C41.007 201.764 40.9787 202.085 40.8653 202.161C40.7614 202.284 40.7519 202.567 40.6102 202.624C40.4968 202.898 40.3646 203.209 40.1473 203.351C40.0433 203.474 40.0339 203.757 39.8922 203.814C39.8638 203.852 39.7221 204.041 39.6749 204.078C39.4575 204.314 39.467 204.862 39.1836 205.013C39.1363 205.07 38.9946 205.221 38.9757 205.278C38.8529 205.334 38.8245 205.665 38.73 205.75C38.5127 206.185 38.3805 206.836 38.0025 207.167C37.8986 207.29 37.8892 207.563 37.7663 207.639C37.6624 207.752 37.653 208.045 37.5301 208.111C37.4262 208.225 37.4168 208.517 37.2939 208.584C37.1144 208.82 36.9916 209.301 36.8215 209.537C36.7271 209.651 36.7082 209.944 36.5853 210.019C36.368 210.746 35.9996 211.323 35.65 211.936C35.3476 212.39 35.3665 213.23 34.9319 213.599C34.6957 213.91 34.7902 214.543 34.4501 214.789C34.2328 215.11 34.3178 215.733 33.9777 215.979C33.7037 216.564 33.7226 217.405 33.2691 217.887C33.0801 218.028 33.2124 218.463 33.0234 218.595C32.8439 218.737 32.9762 219.171 32.7778 219.304C32.5983 219.455 32.7305 219.889 32.5416 220.021C30.9543 224.933 30.0945 230.335 28.9702 235.256C28.46 235.577 27.7325 235.823 27.2884 236.191C27.1751 236.295 26.92 236.352 26.816 236.446C26.5987 236.607 26.268 236.739 26.0885 236.909C25.3138 237.324 24.5674 237.797 23.9533 238.344C23.6131 238.552 23.2541 238.817 22.999 239.062C22.4983 239.402 21.9881 239.865 21.5629 240.252C21.5251 240.3 21.3929 240.479 21.3173 240.47C20.2118 241.272 19.2576 242.283 18.464 243.341C3.38484 258.897 6.77669 288.629 27.9498 296.884C24.9926 298.386 22.7061 300.265 21.7046 302.145H99.0181C98.9048 301.257 98.5646 300.35 97.96 299.443C96.9679 296.78 95.5318 294.296 94.7287 291.557C90.3259 278.948 89.315 265.272 90.7511 252.068C92.773 239.147 95.0972 221.873 108.192 215.554C122.941 210.331 133.126 221.551 136.518 234.925C141.903 253.352 142.234 273.489 135.941 291.718C135.166 294.145 134.033 296.421 132.993 298.745C132.436 299.84 131.916 301.002 131.708 302.145H209.003C208.247 300.36 206.339 298.603 203.155 297.328C222.958 287.345 228.126 260.701 212.253 243.341C211.45 242.198 210.439 241.291 209.4 240.47C209.343 240.441 209.164 240.309 209.145 240.243C208.739 239.789 208.143 239.421 207.709 239.053C207.482 238.741 207.01 238.581 206.754 238.335C206.131 237.702 205.29 237.362 204.619 236.899C204.43 236.682 204.043 236.625 203.892 236.437C203.769 236.333 203.485 236.323 203.429 236.191C201.955 235.634 201.331 234.661 201.256 233.159C199.999 223.78 196.834 214.713 192.346 206.392C187.717 197.637 181.33 190.005 174.045 183.328C173.157 182.705 173.875 182.204 174.574 181.902C240.938 150.535 241.571 85.3653 177.815 50.3247C171.948 45.9328 170.946 37.4041 166.817 31.4727C163.227 24.5779 159.202 17.8815 153.987 12.0729C139.22 -4.82407 116.582 -5.11688 112.415 19.9405C109.732 -2.81232 87.6616 -5.44743 73.3572 9.72109C62.8887 20.1199 56.6719 33.8623 50.559 47.0851C47.7624 51.392 41.9046 52.7426 37.9459 55.9255C-21.4352 95.7925 -7.65994 157.713 55.198 183.895L55.1791 183.885Z" fill="#6BCEF5"/>
<path d="M160.085 174.936C154.028 167.635 125.909 187.962 112.606 199.038C125.592 209.43 153.108 228.334 159.287 220.82C165.465 213.305 159.79 202.118 156.97 198.259C160.006 192.997 166.142 182.238 160.085 174.936Z" fill="#FF6B00" stroke="#FF6B00" stroke-width="2"/>
<path d="M65.5656 174.693C71.7467 167.497 99.5134 188.303 112.624 199.605C99.4622 209.773 71.6263 228.203 65.5772 220.584C59.5281 212.964 65.3941 201.876 68.2808 198.066C65.3352 192.752 59.3844 181.89 65.5656 174.693Z" fill="#FF6B00" stroke="#FF6B00" stroke-width="2"/>
<rect x="100.338" y="182.173" width="24.4164" height="33.3876" rx="3" transform="rotate(-0.280062 100.338 182.173)" fill="#FF6B00" stroke="#FF6B00" stroke-width="2"/>
<path d="M115.339 53.1449C122.177 53.1574 128.757 53.7285 134.96 55.2095C136.346 55.5421 137.136 55.9876 136.981 56.7344C136.126 60.9514 135.517 65.181 133.121 69.2851C131.127 72.6989 128.575 75.9998 123.939 78.8111C120.986 80.5996 117.411 81.9111 112.477 82.1182C108.022 82.3065 104.318 81.4781 101.054 80.1164C96.7024 78.3091 93.9826 75.9558 91.8586 73.4269C88.4136 69.3102 87.1444 64.9865 87.0019 60.5749C86.976 59.7215 87.2221 58.8743 87.2739 58.0208C87.3127 57.4937 87.9862 57.2302 88.7762 56.9478C96.6765 54.1176 105.703 53.1323 115.339 53.1449Z" fill="#FF5D5D"/>
<path d="M97.9741 7.85922C119.789 21.7249 89.4515 55.3729 77.1264 29.3461C71.9964 17.185 85.3376 1.30334 97.9741 7.85922Z" fill="#001602"/>
<path d="M89.1728 20.3654C83.9696 12.9723 97.5523 6.86496 101.167 15.0438C104.929 22.0083 95.0656 26.2406 89.1728 20.3654Z" fill="#EBECED"/>
<path d="M83.2168 32.0471C80.2923 27.1991 87.9266 23.1943 89.9585 28.5575C92.0727 33.1244 86.529 35.8997 83.2168 32.0471Z" fill="#EBECED"/>
<path d="M124.346 35.6816C113.301 26.4521 120.442 2.82192 135.972 6.53768C161.846 13.661 147.599 50.7158 124.346 35.6816Z" fill="#001602"/>
<path d="M144.956 16.3268C146.08 27.7853 125.037 23.2735 131.099 14.0173C134.306 8.87887 143.856 11.2422 144.956 16.3268Z" fill="#EBECED"/>
<path d="M133.404 29.3991C133.993 36.9129 122.954 33.9543 126.134 27.8846C127.817 24.5151 132.827 26.0648 133.404 29.3991Z" fill="#EBECED"/>
</svg>
