<svg width="225" height="362" viewBox="0 0 225 362" fill="none" xmlns="http://www.w3.org/2000/svg">
<rect x="78" y="269.145" width="70" height="92" fill="#FFA9D7"/>
<path d="M112.984 247.082H76C105.587 264.1 135.939 254.173 147.416 247.082H112.984Z" fill="#25C1FF"/>
<path d="M55.1791 242.885C55.7649 243.508 55.1791 243.782 54.8673 244.066C50.8614 247.844 47.2522 251.971 43.9832 256.401C43.8698 256.457 43.832 256.779 43.7186 256.854C43.5108 257.015 43.4824 257.449 43.2368 257.553C43.2084 257.6 43.0573 257.789 43.0195 257.818C42.7927 258.006 42.7549 258.375 42.5376 258.535C42.4242 258.677 42.4242 258.932 42.2825 258.998C42.2353 259.045 42.1125 259.225 42.0652 259.253C41.7251 259.574 41.6684 260.169 41.3377 260.434C41.2905 260.49 41.1582 260.651 41.1204 260.698C41.007 260.764 40.9787 261.085 40.8653 261.161C40.7614 261.284 40.7519 261.567 40.6102 261.624C40.4968 261.898 40.3646 262.209 40.1473 262.351C40.0433 262.474 40.0339 262.757 39.8922 262.814C39.8638 262.852 39.7221 263.041 39.6749 263.078C39.4576 263.314 39.467 263.862 39.1836 264.013C39.1363 264.07 38.9946 264.221 38.9757 264.278C38.8529 264.334 38.8245 264.665 38.73 264.75C38.5127 265.185 38.3805 265.836 38.0025 266.167C37.8986 266.29 37.8892 266.563 37.7663 266.639C37.6624 266.752 37.653 267.045 37.5301 267.111C37.4262 267.225 37.4168 267.517 37.2939 267.584C37.1144 267.82 36.9916 268.301 36.8215 268.537C36.7271 268.651 36.7082 268.944 36.5853 269.019C36.368 269.746 35.9996 270.323 35.65 270.936C35.3476 271.39 35.3665 272.23 34.9319 272.599C34.6957 272.91 34.7902 273.543 34.4501 273.789C34.2328 274.11 34.3178 274.733 33.9777 274.979C33.7037 275.564 33.7226 276.405 33.2691 276.887C33.0801 277.028 33.2124 277.463 33.0234 277.595C32.8439 277.737 32.9762 278.171 32.7778 278.304C32.5983 278.455 32.7305 278.889 32.5416 279.021C30.9543 283.933 30.0945 289.335 28.9702 294.256C28.46 294.577 27.7325 294.823 27.2884 295.191C27.1751 295.295 26.92 295.352 26.816 295.446C26.5987 295.607 26.268 295.739 26.0885 295.909C25.3138 296.324 24.5674 296.797 23.9533 297.344C23.6131 297.552 23.2541 297.817 22.999 298.062C22.4983 298.402 21.9881 298.865 21.5629 299.252C21.5251 299.3 21.3929 299.479 21.3173 299.47C20.2118 300.272 19.2576 301.283 18.4639 302.341C3.38484 317.897 6.77669 347.629 27.9498 355.884C24.9926 357.386 22.7061 359.265 21.7046 361.145H99.0181C98.9048 360.257 98.5646 359.35 97.96 358.444C96.9679 355.78 95.5318 353.296 94.7287 350.557C90.3259 337.948 89.315 324.272 90.7511 311.068C92.773 298.147 95.0972 280.873 108.192 274.554C122.941 269.331 133.126 280.551 136.518 293.925C141.903 312.352 142.234 332.489 135.941 350.718C135.166 353.145 134.033 355.421 132.993 357.745C132.436 358.84 131.916 360.002 131.708 361.145H209.003C208.247 359.36 206.339 357.603 203.155 356.328C222.958 346.345 228.126 319.701 212.253 302.341C211.45 301.198 210.439 300.291 209.4 299.47C209.343 299.441 209.164 299.309 209.145 299.243C208.739 298.789 208.143 298.421 207.709 298.053C207.482 297.741 207.01 297.581 206.754 297.335C206.131 296.702 205.29 296.362 204.619 295.899C204.43 295.682 204.043 295.625 203.892 295.437C203.769 295.333 203.485 295.323 203.429 295.191C201.955 294.634 201.331 293.661 201.256 292.159C199.999 282.78 196.834 273.713 192.346 265.392C187.717 256.637 181.33 249.005 174.045 242.328C173.157 241.705 173.875 241.204 174.574 240.902C240.938 209.535 241.571 144.365 177.815 109.325C171.948 104.933 170.946 96.4041 166.817 90.4727C163.227 83.5779 159.202 76.8815 153.987 71.0729C139.22 54.1759 116.582 53.8831 112.415 78.9405C109.732 56.1877 87.6616 53.5526 73.3572 68.7211C62.8887 79.1199 56.6719 92.8623 50.559 106.085C47.7624 110.392 41.9046 111.743 37.9459 114.926C-21.4352 154.792 -7.65994 216.713 55.198 242.895L55.1791 242.885Z" fill="#FD349F"/>
<path d="M86.1001 127.665C81.5035 123.363 86.9707 116.192 90.2788 113.145C92.7862 117.017 100.029 120.853 103.337 122.287C99.5065 125.872 90.6967 131.967 86.1001 127.665Z" fill="#FFA7AE"/>
<path d="M115.984 247.082H79C108.587 264.1 138.939 254.173 150.416 247.082H115.984Z" fill="#DB0E7B"/>
<path d="M85.3369 79.1448L102.337 88.1448L85.3369 97.1448" stroke="black" stroke-width="4" stroke-linecap="round"/>
<path d="M140.337 79.1448L123.337 88.1448L140.337 97.1448" stroke="black" stroke-width="4" stroke-linecap="round"/>
<path d="M87.9707 109.836C91.5284 117.232 106.083 129.899 135.841 121.4" stroke="black" stroke-width="2.5" stroke-linecap="round"/>
<path d="M97.8355 55.4886C99.4109 56.8961 100.944 58.2774 102.431 59.7012C105.538 62.6855 108.624 65.6901 111.721 68.6845C112.558 69.493 112.522 69.8075 111.497 70.3198C102.946 74.5902 94.3929 78.8547 85.8397 83.1191C74.8663 88.5863 63.8909 94.0475 52.9154 99.5087C52.1141 99.9056 51.9082 99.8134 51.8035 98.961C51.1381 93.5159 50.6158 88.0565 50.1458 82.5324C50.2195 82.1312 50.5358 82.0518 50.7854 81.9142C59.9479 76.9812 69.0536 71.9394 78.1048 66.795C84.3153 63.2636 90.4794 59.6536 96.6252 56.0094C96.9895 55.7929 97.3255 55.5119 97.8496 55.4906L97.8355 55.4886Z" fill="#FFEC00"/>
<path d="M82.4193 40.3998C85.0312 42.8712 87.5847 45.3489 90.12 47.8326C91.2635 48.9548 92.3928 50.0951 93.5566 51.2778C93.4388 51.788 92.9977 51.9362 92.6454 52.1486C87.8969 55.068 83.1058 57.9009 78.3007 60.7317C69.2741 66.0494 60.1423 71.1739 50.9316 76.1634C50.5571 76.3699 50.1867 76.5884 49.6768 76.6117C49.2505 74.3813 49.1426 72.138 48.93 69.903C48.612 66.5738 48.3404 63.2424 48.0566 59.8546C48.094 59.4251 48.4244 59.3679 48.6761 59.2364C59.2055 53.5081 69.6377 47.6107 80.0173 41.6167C80.7722 41.1816 81.4481 40.5713 82.4193 40.3998Z" fill="#FFEC00"/>
<path d="M47.6147 53.931C47.2187 51.7106 47.121 49.4975 46.9205 47.2988C46.6601 44.4612 46.4521 41.6195 46.2259 38.7234C46.3761 38.3098 46.7064 38.172 47.0084 38.0101C51.3911 35.5632 55.7677 33.0982 60.1383 30.6351C62.2803 29.4249 64.3981 28.1825 66.5219 26.9582C66.9568 26.7113 67.3511 26.3637 67.9517 26.33C70.0521 28.1193 71.919 30.0744 73.8704 31.9406C75.337 33.3443 76.7694 34.7863 78.2442 36.2545C78.1989 36.7 77.8444 36.8258 77.5525 36.9978C71.9341 40.3304 66.3076 43.659 60.6205 46.8869C56.6163 49.1596 52.602 51.4223 48.5534 53.6225C48.2755 53.7763 48.0018 53.9624 47.6047 53.9411L47.6147 53.931Z" fill="#FFEC00"/>
<path d="M49.5878 76.6475C56.4571 72.9352 63.2416 69.1706 69.9796 65.3074C77.8731 60.7804 85.7018 56.1406 93.5322 51.3658C95.1253 52.5656 96.4529 54.016 97.8813 55.4459C82.2301 64.8242 66.3482 73.7958 50.2036 82.4454C49.7801 80.5637 49.6689 78.6308 49.5899 76.6536L49.5878 76.6475Z" fill="#A64A97"/>
<path d="M44.0607 12.6749C44.0659 10.5281 43.7508 8.46877 43.6414 6.40088C43.6161 5.92522 43.5687 5.44356 43.5696 4.96583C43.5709 4.64936 43.6205 4.31666 43.9689 4.1526C44.3233 3.98651 44.5838 4.18146 44.8362 4.39254C46.6981 5.91223 48.3771 7.62785 50.1666 9.23237C50.2434 9.30073 50.3282 9.37311 50.4554 9.45143C54.8126 13.5759 59.1154 17.6984 63.4223 21.8129C63.5394 21.9215 63.6425 22.0482 63.78 22.2172C63.648 22.6852 63.2653 22.8473 62.9292 23.0476C57.6631 26.1678 52.3605 29.2195 47.0418 32.243C46.6754 32.4534 46.3131 32.6961 45.8092 32.7174C45.3924 30.235 45.2921 27.7538 45.0788 25.277C44.7247 21.0992 44.4089 16.9152 44.0667 12.6729L44.0607 12.6749Z" fill="#FFEC00"/>
<path d="M47.5299 53.9592C57.9002 48.2978 68.0865 42.4091 78.226 36.3208C79.7989 37.4804 81.0901 38.9026 82.4641 40.3307C77.7656 43.1189 73.0611 45.8689 68.3201 48.5706C61.6546 52.3692 54.9425 56.0893 48.1296 59.7692C47.6989 58.2665 47.7477 56.6901 47.5487 55.1364C47.4995 54.7696 47.5148 54.3947 47.5239 53.9613L47.5299 53.9592Z" fill="#A64A97"/>
<path d="M45.7155 32.7419C50.4204 30.133 55.0243 27.4236 59.6342 24.7322C60.9951 23.939 62.3438 23.1297 63.7509 22.294C64.661 22.7213 65.2171 23.5162 65.916 24.1557C66.6411 24.8132 67.2999 25.5333 68.007 26.2775C60.8487 30.5106 53.6153 34.5806 46.2892 38.6346C45.8555 36.7227 45.7806 34.7575 45.7155 32.7419Z" fill="#A64A97"/>
</svg>
