<svg width="225" height="303" viewBox="0 0 225 303" fill="none" xmlns="http://www.w3.org/2000/svg">
<rect x="78" y="210.145" width="70" height="92" fill="#FFE095"/>
<path d="M112.984 188.082H76C105.587 205.1 135.939 195.173 147.416 188.082H112.984Z" fill="#25C1FF"/>
<path d="M55.1791 183.885C55.7649 184.508 55.1791 184.782 54.8673 185.066C50.8614 188.844 47.2522 192.971 43.9832 197.401C43.8698 197.457 43.832 197.779 43.7186 197.854C43.5108 198.015 43.4824 198.449 43.2368 198.553C43.2084 198.6 43.0573 198.789 43.0195 198.818C42.7927 199.006 42.7549 199.375 42.5376 199.535C42.4242 199.677 42.4242 199.932 42.2825 199.998C42.2353 200.045 42.1125 200.225 42.0652 200.253C41.7251 200.574 41.6684 201.169 41.3377 201.434C41.2905 201.49 41.1582 201.651 41.1204 201.698C41.007 201.764 40.9787 202.085 40.8653 202.161C40.7614 202.284 40.7519 202.567 40.6102 202.624C40.4968 202.898 40.3646 203.209 40.1473 203.351C40.0433 203.474 40.0339 203.757 39.8922 203.814C39.8638 203.852 39.7221 204.041 39.6749 204.078C39.4576 204.314 39.467 204.862 39.1836 205.013C39.1363 205.07 38.9946 205.221 38.9757 205.278C38.8529 205.334 38.8245 205.665 38.73 205.75C38.5127 206.185 38.3805 206.836 38.0025 207.167C37.8986 207.29 37.8892 207.563 37.7663 207.639C37.6624 207.752 37.653 208.045 37.5301 208.111C37.4262 208.225 37.4168 208.517 37.2939 208.584C37.1144 208.82 36.9916 209.301 36.8215 209.537C36.7271 209.651 36.7082 209.944 36.5853 210.019C36.368 210.746 35.9996 211.323 35.65 211.936C35.3476 212.39 35.3665 213.23 34.9319 213.599C34.6957 213.91 34.7902 214.543 34.4501 214.789C34.2328 215.11 34.3178 215.733 33.9777 215.979C33.7037 216.564 33.7226 217.405 33.2691 217.887C33.0801 218.028 33.2124 218.463 33.0234 218.595C32.8439 218.737 32.9762 219.171 32.7778 219.304C32.5983 219.455 32.7305 219.889 32.5416 220.021C30.9543 224.933 30.0945 230.335 28.9702 235.256C28.46 235.577 27.7325 235.823 27.2884 236.191C27.1751 236.295 26.92 236.352 26.816 236.446C26.5987 236.607 26.268 236.739 26.0885 236.909C25.3138 237.324 24.5674 237.797 23.9533 238.344C23.6131 238.552 23.2541 238.817 22.999 239.062C22.4983 239.402 21.9881 239.865 21.5629 240.252C21.5251 240.3 21.3929 240.479 21.3173 240.47C20.2118 241.272 19.2576 242.283 18.4639 243.341C3.38484 258.897 6.77669 288.629 27.9498 296.884C24.9926 298.386 22.7061 300.265 21.7046 302.145H99.0181C98.9048 301.257 98.5646 300.35 97.96 299.444C96.9679 296.78 95.5318 294.296 94.7287 291.557C90.3259 278.948 89.315 265.272 90.7511 252.068C92.773 239.147 95.0972 221.873 108.192 215.554C122.941 210.331 133.126 221.551 136.518 234.925C141.903 253.352 142.234 273.489 135.941 291.718C135.166 294.145 134.033 296.421 132.993 298.745C132.436 299.84 131.916 301.002 131.708 302.145H209.003C208.247 300.36 206.339 298.603 203.155 297.328C222.958 287.345 228.126 260.701 212.253 243.341C211.45 242.198 210.439 241.291 209.4 240.47C209.343 240.441 209.164 240.309 209.145 240.243C208.739 239.789 208.143 239.421 207.709 239.053C207.482 238.741 207.01 238.581 206.754 238.335C206.131 237.702 205.29 237.362 204.619 236.899C204.43 236.682 204.043 236.625 203.892 236.437C203.769 236.333 203.485 236.323 203.429 236.191C201.955 235.634 201.331 234.661 201.256 233.159C199.999 223.78 196.834 214.713 192.346 206.392C187.717 197.637 181.33 190.005 174.045 183.328C173.157 182.705 173.875 182.204 174.574 181.902C240.938 150.535 241.571 85.3653 177.815 50.3247C171.948 45.9328 170.946 37.4041 166.817 31.4727C163.227 24.5779 159.202 17.8815 153.987 12.0729C139.22 -4.82407 116.582 -5.11688 112.415 19.9405C109.732 -2.81232 87.6616 -5.44743 73.3572 9.72109C62.8887 20.1199 56.6719 33.8623 50.559 47.0851C47.7624 51.392 41.9046 52.7426 37.9459 55.9255C-21.4352 95.7925 -7.65994 157.713 55.198 183.895L55.1791 183.885Z" fill="#FFBA14"/>
<path d="M113.1 188.082H76.1162C105.703 205.1 136.055 195.173 147.533 188.082H113.1Z" fill="#EAA705"/>
<path d="M92 85.1448C104 87.6448 129.6 88.5448 136 72.1448" stroke="black" stroke-width="2.5" stroke-linecap="round"/>
<path d="M164.446 55.521C163.996 55.835 163.592 56.046 163.232 56.3131C158.901 59.5286 154.077 61.3285 148.664 61.68C136.997 62.4394 126.291 55.3757 122.232 44.7919C121.552 43.0201 121.538 43.0201 119.659 43.0623C114.587 43.1701 109.511 43.2826 104.439 43.3857C103.164 43.4138 103.169 43.4044 102.691 44.5856C100.043 51.1853 95.5757 56.1819 89.1167 59.1349C79.6484 63.4612 70.5364 62.5331 61.9447 56.6506C61.4619 56.3178 60.9791 55.9803 60.412 55.6054C59.9151 55.146 59.512 54.7148 59.0902 54.3023C46.0174 41.4733 49.2422 19.9119 65.4836 11.4373C68.7412 9.73587 72.2004 8.69999 75.8283 8.30157C83.5061 7.45786 90.0635 10.064 95.8007 15.0372C96.2085 15.3934 96.5648 15.8152 97.1319 16.1105C97.7506 16.4152 98.1444 16.8418 98.5193 17.3011C102.757 22.4805 104.964 28.3771 104.88 35.1033C104.852 37.4563 104.871 37.5547 107.238 37.6719C110.087 37.8125 112.947 37.9157 115.797 37.5688C116.612 37.4704 117.428 37.4844 118.243 37.475C119.945 37.4563 120.067 37.3907 120.024 35.7267C119.954 33.0222 120.31 30.3879 121.065 27.8006C122.199 23.9195 124.023 20.3994 126.708 17.3527C127.069 16.9402 127.463 16.5699 128.063 16.2793C129.141 15.4215 130.102 14.5919 131.115 13.8278C135.3 10.6639 140.048 8.79842 145.237 8.31095C154.93 7.40162 162.73 11.1608 168.552 18.7635C176.782 29.5161 175.526 44.6044 165.875 54.1101C165.406 54.5507 164.961 55.0007 164.446 55.521Z" fill="#FD349F"/>
<path d="M95.7175 22.9442C98.1783 26.8018 99.3501 30.9266 99.2001 35.4076C98.8252 46.3899 90.7022 54.8269 80.6667 56.2237C70.1485 57.6908 59.2038 51.0255 56.6821 39.4293C54.4603 29.1923 60.2397 18.7304 70.0079 14.9665C76.0029 12.6557 81.787 12.8807 87.5008 15.6602C90.8709 17.2961 93.5707 19.7522 95.7175 22.9442Z" fill="#FAFAF9"/>
<path d="M134.225 51.9402C129.66 48.2982 127.002 43.6671 126.121 37.9862C124.635 28.4008 130.316 18.6138 139.41 15.0843C142.137 14.0249 144.894 13.2797 147.865 13.3781C155.445 13.6312 161.416 16.8654 165.527 23.1885C172.595 34.063 168.222 49.095 156.401 54.4197C148.648 57.9211 141.214 56.9461 134.225 51.9402Z" fill="#FAFAF9"/>
<path d="M71.6153 39.6734C68.6623 34.6908 69.5107 29.3661 73.8933 25.471C77.7134 22.0727 82.1335 21.3837 86.8348 23.1555C91.3908 24.871 93.697 28.499 94.3485 33.1815C94.9203 37.2735 94.0813 41.1077 91.8596 44.6372C88.5738 49.8588 83.7319 52.1884 77.7041 52.343C76.701 52.3665 75.7073 52.2118 74.7417 51.9727C70.8091 50.9931 67.3827 49.0479 64.7204 46.0106C61.1955 41.9983 60.1128 37.2266 61.219 32.0332C62.5595 25.7288 66.4734 21.4306 72.1356 18.5995C73.2184 18.0605 74.048 18.1917 74.4324 18.8901C74.8401 19.6307 74.4886 20.4838 73.3262 21.0275C70.7575 22.2274 68.5873 23.943 66.9327 26.1975C63.4735 30.9176 62.3346 36.0454 65.011 41.5248C68.2124 48.0823 76.7947 51.2556 83.4788 48.4011C88.2879 46.348 90.7862 42.4857 91.6065 37.4563C91.8971 35.6611 91.8455 33.8378 91.3627 32.0519C90.1909 27.7021 86.9567 25.171 82.321 24.9788C78.3462 24.8148 74.273 27.5709 73.0121 31.4473C72.0465 34.4143 72.6981 37.1235 74.9245 39.3312C76.5416 40.9343 78.5899 41.2905 80.7367 40.7327C83.3897 40.0437 84.7396 37.3344 83.8537 34.719C83.4881 33.6409 82.7663 32.9144 81.646 32.7409C80.4742 32.5581 79.654 33.1675 79.1149 34.1893C78.9696 34.4705 78.8009 34.7424 78.6134 34.9955C78.3228 35.3892 77.9244 35.5955 77.4275 35.4642C76.9353 35.333 76.6963 34.958 76.5979 34.4846C76.4104 33.5706 76.7104 32.7784 77.24 32.0613C79.3727 29.2021 83.9475 29.0239 85.8364 32.9425C87.0036 35.3611 86.8161 37.9485 85.588 40.3062C84.4818 42.4342 82.4429 43.4091 80.118 43.6294C76.5885 43.9669 73.7199 42.7201 71.6153 39.6734Z" fill="#B6B6B6"/>
<path d="M135.525 29.5727C133.542 31.9679 132.98 34.6396 133.481 37.5551C134.4 42.9314 138.825 47.8061 143.985 48.8795C149.099 49.9435 153.627 48.7482 157.18 44.7266C159.027 42.6361 160.621 40.3674 161.131 37.5457C161.924 33.1865 160.963 29.3008 158 25.9119C156.008 23.6292 153.608 22.0262 150.777 20.995C149.573 20.5591 148.349 20.2685 147.079 20.156C146.404 20.095 145.715 20.081 145.078 19.7997C144.534 19.5607 144.192 19.1388 144.234 18.5295C144.276 17.9248 144.66 17.5452 145.237 17.3811C145.453 17.3202 145.682 17.2874 145.907 17.2967C153.388 17.6342 161.15 22.1996 163.527 30.3414C164.872 34.949 164.281 39.3128 161.675 43.372C160.344 45.4437 158.811 47.3374 156.833 48.842C151.799 52.6762 144.431 53.0605 139.026 49.7841C134.592 47.0983 131.742 43.2407 130.824 38.1457C129.919 33.135 131.358 28.8555 135.67 25.8791C140.048 22.8605 144.642 22.748 149.254 25.3635C153.027 27.5009 154.86 30.8101 154.747 35.1364C154.64 39.144 152.038 42.4954 148.171 43.5219C143.564 44.7453 140.358 42.6032 139.026 37.8176C138.628 36.3786 138.722 34.9818 139.411 33.5896C140.732 30.9226 144.154 30.2055 146.535 31.7476C147.276 32.2257 147.871 32.8444 147.998 33.7771C148.059 34.2505 147.979 34.6865 147.552 34.9818C147.117 35.2817 146.685 35.188 146.278 34.9349C145.973 34.7427 145.692 34.5084 145.41 34.2834C144.59 33.6271 143.681 33.4537 142.743 33.9318C141.881 34.3771 141.44 35.1739 141.361 36.1348C141.103 39.2003 143.882 41.647 146.896 41.0236C150.337 40.3112 152.483 37.1754 151.958 33.6131C151.429 29.9992 148.724 27.304 144.862 26.4838C141.182 25.7197 138.183 26.9666 135.525 29.5727Z" fill="#B6B6B6"/>
</svg>
