<svg width="1075" height="1075" viewBox="0 0 1075 1075" fill="none" xmlns="http://www.w3.org/2000/svg">
<path d="M498.613 1037.98C498.613 1037.98 534.269 1008.89 575.461 1037.98L613.946 932.507L574.172 803.111L506.297 798.336L454.859 925.082L498.613 1037.98V1037.98Z" fill="#D1FF6C"/>
<path d="M755.46 862.054C749.325 860.595 749.479 853.486 749.479 853.486C745.58 780.391 685.291 731.028 685.291 731.028C751.399 698.517 824.965 651.238 824.965 556.663C824.965 462.088 698.082 394.715 698.082 394.715C665.538 322.568 626.543 273.603 584.767 273.603C542.991 273.603 541.516 311.974 538.225 322.317C537.657 324.092 537.033 324.051 537.033 324.051C537.033 324.051 536.409 324.092 535.842 322.317C532.551 311.974 531.068 273.603 489.3 273.603C447.532 273.603 408.529 322.568 375.985 394.715C375.985 394.715 249.102 462.088 249.102 556.663C249.102 651.238 322.667 698.509 388.776 731.028C388.776 731.028 328.487 780.391 324.588 853.486C324.588 853.486 324.742 860.587 318.606 862.054C312.47 863.521 272.478 894.176 272.478 934.558C272.478 974.939 285.803 995.292 320.252 1013.49C320.252 1013.49 299.972 1024.11 303.011 1030.96C306.059 1037.81 306.237 1051.94 384.172 1044.22C384.172 1044.22 386.952 1043.33 386.863 1046.87C386.765 1050.4 384.69 1062.03 401.047 1070.55C417.404 1079.07 459.058 1078.23 498.597 1037.99C498.597 1037.99 507.075 1029.89 499.845 1020.09C492.615 1010.28 476.55 973.634 479.825 914.626C483.099 855.618 507.837 807.115 537.017 807.115C566.197 807.115 590.935 855.618 594.21 914.626C597.484 973.634 581.419 1010.28 574.189 1020.09C566.959 1029.89 575.437 1037.99 575.437 1037.99C614.976 1078.23 656.63 1079.07 672.987 1070.55C689.344 1062.03 687.269 1050.4 687.172 1046.87C687.074 1043.33 689.863 1044.22 689.863 1044.22C767.797 1051.94 767.983 1037.81 771.023 1030.96C774.071 1024.11 753.783 1013.49 753.783 1013.49C788.231 995.284 801.556 974.939 801.556 934.558C801.556 894.176 761.564 863.513 755.428 862.054H755.46ZM482.694 422.403C461.012 422.403 443.431 396.814 443.431 365.243C443.431 333.672 461.012 308.083 482.694 308.083C504.376 308.083 521.957 333.672 521.957 365.243C521.957 396.814 504.376 422.403 482.694 422.403ZM592.41 422.403C570.728 422.403 553.147 396.814 553.147 365.243C553.147 333.672 570.728 308.083 592.41 308.083C614.092 308.083 631.673 333.672 631.673 365.243C631.673 396.814 614.092 422.403 592.41 422.403Z" fill="#00D32F"/>
<path d="M482.694 422.403C504.378 422.403 521.957 396.812 521.957 365.243C521.957 333.675 504.378 308.083 482.694 308.083C461.009 308.083 443.431 333.675 443.431 365.243C443.431 396.812 461.009 422.403 482.694 422.403Z" fill="#00D32F"/>
<path d="M592.409 422.403C614.094 422.403 631.673 396.812 631.673 365.243C631.673 333.675 614.094 308.083 592.409 308.083C570.725 308.083 553.146 333.675 553.146 365.243C553.146 396.812 570.725 422.403 592.409 422.403Z" fill="#00D32F"/>
<path d="M475.06 312.038C457.9 319.406 452.948 340.659 467.278 353.887C475.027 359.666 485.751 358.167 491.457 353.62C500.641 346.292 504.377 334.183 499.879 323.41C495.85 313.765 485.605 307.516 475.06 312.047V312.038Z" fill="#040C06"/>
<path d="M493.192 321.676C489.885 319.066 485.436 319.504 482.939 322.697C479.956 326.515 480.726 331.175 485.022 334.28C489.837 336.509 492.917 336.355 494.984 333.883C497.715 330.608 496.832 324.553 493.192 321.684V321.676Z" fill="#FEFFFE"/>
<path d="M588.019 308.448C589.315 308.237 590.62 308.124 591.95 308.099C590.628 308.043 589.315 308.164 588.019 308.448Z" fill="#040C06"/>
<path d="M572.683 325.299C571.588 331.403 571.459 337.369 574.377 342.896C578.624 350.953 585.724 354.609 594.665 353.952C603.216 353.32 609.798 349.162 613.445 341.138C616.825 333.697 614.912 326.702 611.192 319.747C607.998 314.641 603.208 311.909 598.134 309.623C596.051 308.683 593.984 308.197 591.949 308.108C590.62 308.132 589.307 308.245 588.018 308.456C585.903 308.918 583.82 309.81 581.801 311.099C576.598 314.414 573.777 319.196 572.683 325.299Z" fill="#040C06"/>
<path d="M601.424 317.218C597.655 316.286 594.696 317.672 593.173 321.092C591.535 324.756 592.597 329.19 595.669 331.435C598.944 333.834 602.064 333.461 605.55 330.114C608.419 324.31 606.457 318.458 601.424 317.218Z" fill="#FEFFFE"/>
<path d="M842.87 706.834L746.066 718.36L723.695 635.27L835.381 608.563C830.777 550.422 826.821 505.728 824.965 497.574C818.878 470.915 786.375 434.724 763.104 418.537C742.005 403.858 715.8 375.213 711.099 370.002C710.612 369.458 710.183 368.851 709.826 368.21C592.613 154.792 537.033 295.115 537.033 295.115L537.195 300.781L536.871 300.821L537.033 295.115C537.033 295.115 481.462 154.792 364.24 368.21C363.883 368.851 363.462 369.458 362.967 370.002C358.266 375.213 332.061 403.858 310.963 418.537C288.673 434.043 257.928 467.884 250.025 494.137L367.377 537.988L343.174 659.238L235.525 649.333C227.071 760.006 217.636 896.235 215.123 932.775C214.694 938.975 215.391 945.209 217.166 951.15L217.579 952.544C218.382 955.235 220.311 957.432 222.84 958.542C267.242 977.947 291.201 973.375 305.029 964.621C317.204 956.913 319.068 947.519 330.051 946.133C352.544 943.288 359.579 980.792 394.003 990.218C413.457 995.544 439.605 991.353 452.396 975.993C462.649 963.681 460.404 948.888 467.691 947.551C474.621 946.279 480.749 958.907 488.87 967.75C488.87 967.75 541.613 1038.15 592.418 958.785C597.306 952.309 601.667 946.676 606.408 947.551C613.687 948.888 611.45 963.681 621.703 975.993C634.494 991.353 660.642 995.544 680.095 990.218C714.519 980.792 721.555 943.288 744.048 946.133C755.031 947.519 756.895 956.913 769.069 964.621C782.905 973.383 806.857 977.955 851.259 958.542C853.788 957.44 855.709 955.235 856.52 952.544L856.933 951.15C858.708 945.201 859.405 938.975 858.976 932.775C856.884 902.387 850.011 803.07 842.886 706.834H842.87ZM482.694 292.254C504.376 292.254 521.957 318.434 521.957 350.727C521.957 383.019 504.376 409.2 482.694 409.2C461.012 409.2 443.431 383.019 443.431 350.727C443.431 318.434 461.012 292.254 482.694 292.254ZM425.193 845.722L402.822 733.874L518.131 705.115L537.041 818.56L425.193 845.722ZM592.41 409.2C570.728 409.2 553.147 383.019 553.147 350.727C553.147 318.434 570.728 292.254 592.41 292.254C614.092 292.254 631.673 318.434 631.673 350.727C631.673 383.019 614.092 409.2 592.41 409.2Z" fill="#E5E5E5"/>
<path d="M367.385 537.988L250.033 494.137C249.685 495.296 249.361 496.447 249.109 497.574C246.832 507.544 241.417 572.242 235.524 649.333L343.174 659.238L367.377 537.988H367.385Z" fill="#BFBAB6"/>
<path d="M402.822 733.874L425.194 845.722L537.041 818.56L518.131 705.115L402.822 733.874Z" fill="#C69E9E"/>
<path d="M746.065 718.352L842.869 706.826C840.34 672.596 837.771 638.764 835.388 608.555L723.702 635.262L746.073 718.352H746.065Z" fill="#A0AFA3"/>
<path d="M279.879 522.004L288.795 492.135" stroke="#9B9B9B" stroke-width="10" stroke-miterlimit="10" stroke-linecap="round"/>
<path d="M319.173 534.487L326.873 508.573" stroke="#9B9B9B" stroke-width="10" stroke-miterlimit="10" stroke-linecap="round"/>
<path d="M461.798 731.645L456.829 705.067" stroke="#9B9B9B" stroke-width="10" stroke-miterlimit="10" stroke-linecap="round"/>
<path d="M772.555 636.486L767.586 609.9" stroke="#9B9B9B" stroke-width="10" stroke-miterlimit="10" stroke-linecap="round"/>
<path d="M805.025 630.212L800.057 603.635" stroke="#9B9B9B" stroke-width="10" stroke-miterlimit="10" stroke-linecap="round"/>
<path d="M805.025 724.958L800.057 698.38" stroke="#9B9B9B" stroke-width="10" stroke-miterlimit="10" stroke-linecap="round"/>
<path d="M718.346 682.007L744.024 673.536" stroke="#9B9B9B" stroke-width="10" stroke-miterlimit="10" stroke-linecap="round"/>
<path d="M400.69 792.477L426.782 785.392" stroke="#9B9B9B" stroke-width="10" stroke-miterlimit="10" stroke-linecap="round"/>
<path d="M481.446 819.314L487.266 845.722" stroke="#9B9B9B" stroke-width="10" stroke-miterlimit="10" stroke-linecap="round"/>
<path d="M540.712 756.261L514.312 762.114" stroke="#9B9B9B" stroke-width="10" stroke-miterlimit="10" stroke-linecap="round"/>
<path d="M342.136 594.799L367.384 598.893" stroke="#9B9B9B" stroke-width="10" stroke-miterlimit="10" stroke-linecap="round"/>
<path d="M285.503 637.872L281.264 668.106" stroke="#9B9B9B" stroke-width="10" stroke-miterlimit="10" stroke-linecap="round"/>
<path d="M330.051 946.133L344.454 724.48" stroke="#BCBCBC" stroke-width="3" stroke-miterlimit="10"/>
<path d="M466.903 946.133L470.065 857.864" stroke="#BCBCBC" stroke-width="3" stroke-miterlimit="10"/>
<path d="M605.298 946.133L599.641 646.569" stroke="#BCBCBC" stroke-width="3" stroke-miterlimit="10"/>
<path d="M743.375 946.133L725.243 735.811" stroke="#BCBCBC" stroke-width="3" stroke-miterlimit="10"/>
</svg>
