<svg width="1075" height="1075" viewBox="0 0 1075 1075" fill="none" xmlns="http://www.w3.org/2000/svg">
<path d="M623.894 332.731C623.894 332.731 720.991 259.716 793.056 283.968L818.123 292.161L785.577 306.848L805.059 332.117L793.156 328.222C784.08 325.253 774.448 324.487 765.237 326.035C738.017 330.62 681.018 343.565 662.705 373.638C638.336 413.661 623.902 332.723 623.902 332.723L623.894 332.731Z" fill="#EFEFEF" stroke="#C1C1C1" stroke-miterlimit="10"/>
<path d="M351.409 888.652C351.409 888.652 298.641 805.754 240.995 806.309H221L240.995 826.354L221 841.311H230.497C237.74 841.311 244.856 843.195 251.131 846.804C269.663 857.47 307.692 882.47 313.799 910.994C321.934 948.965 351.409 888.661 351.409 888.661V888.652Z" fill="#EFEFEF" stroke="#C1C1C1" stroke-miterlimit="10"/>
<path d="M592.032 1015.7C599.535 1005.52 616.207 967.488 612.809 906.25C609.41 845.012 583.737 794.675 553.455 794.675C523.172 794.675 497.499 845.012 494.101 906.25C490.702 967.488 507.375 1005.52 514.878 1015.7C520.018 1022.66 517.511 1028.79 515.425 1031.97L516.316 1034.28C516.316 1034.28 550.334 1006.53 590.828 1030.86C588.961 1027.48 587.447 1021.93 592.04 1015.7H592.032Z" fill="#D1FF6C"/>
<path d="M780.128 851.691C773.76 850.177 773.92 842.799 773.92 842.799C769.874 766.942 707.306 715.714 707.306 715.714C775.913 681.974 852.259 632.907 852.259 534.758C852.259 436.609 720.58 366.69 720.58 366.69C686.807 291.816 646.337 241 602.983 241C559.628 241 558.097 280.822 554.682 291.555C554.093 293.397 553.446 293.355 553.446 293.355C553.446 293.355 552.798 293.397 552.209 291.555C548.794 280.822 547.254 241 503.908 241C460.562 241 420.084 291.816 386.311 366.69C386.311 366.69 254.632 436.609 254.632 534.758C254.632 632.907 330.978 681.965 399.585 715.714C399.585 715.714 337.017 766.942 332.971 842.799C332.971 842.799 333.131 850.168 326.763 851.691C320.396 853.205 278.892 885.027 278.892 926.935C278.892 968.842 292.721 989.965 328.471 1008.85C328.471 1008.85 307.425 1019.87 310.579 1026.98C313.742 1034.08 313.927 1048.75 394.807 1040.74C394.807 1040.74 397.692 1039.81 397.6 1043.49C397.499 1047.16 395.345 1059.23 412.32 1068.07C429.295 1076.91 472.524 1076.03 513.557 1034.28C513.557 1034.28 514.432 1033.44 515.399 1031.97L470.884 917.11L524.265 785.574L594.706 790.528L635.983 924.815L596.043 1034.28C594.285 1033.03 592.535 1031.91 590.802 1030.86C591.988 1033.01 593.309 1034.28 593.309 1034.28C634.342 1076.03 677.57 1076.91 694.546 1068.07C711.521 1059.23 709.367 1047.16 709.266 1043.49C709.165 1039.82 712.059 1040.74 712.059 1040.74C792.939 1048.75 793.132 1034.08 796.287 1026.98C799.45 1019.87 778.395 1008.85 778.395 1008.85C814.145 989.956 827.974 968.842 827.974 926.935C827.974 885.027 786.47 853.205 780.102 851.691H780.128Z" fill="#00D32F"/>
<path d="M635.998 924.815L594.721 790.529L524.281 785.574L470.899 917.11L515.415 1031.97C517.509 1028.79 520.007 1022.66 514.868 1015.7C507.364 1005.52 490.692 967.488 494.091 906.25C497.489 845.012 523.162 794.676 553.445 794.676C583.736 794.676 609.4 845.012 612.799 906.25C616.197 967.488 599.525 1005.52 592.021 1015.7C587.428 1021.92 588.943 1027.48 590.81 1030.86C592.543 1031.91 594.292 1033.03 596.051 1034.28L635.99 924.815H635.998Z" fill="#00D32F"/>
<path d="M592.031 1015.7C599.534 1005.52 616.206 967.488 612.808 906.25C609.41 845.012 583.737 794.675 553.454 794.675C583.745 794.675 609.41 845.012 612.808 906.25C616.206 967.488 599.534 1005.52 592.031 1015.7C587.438 1021.92 588.952 1027.48 590.819 1030.86C588.952 1027.48 587.438 1021.93 592.031 1015.7Z" fill="#00D32F"/>
<path d="M481.042 324.328C466.178 310.6 471.318 288.552 489.117 280.898C500.061 276.195 510.685 282.681 514.874 292.691C519.543 303.87 515.665 316.438 506.134 324.042C500.212 328.769 489.083 330.317 481.042 324.319V324.328Z" fill="#040C06"/>
<path d="M499.463 303.98C495.005 300.766 494.214 295.921 497.301 291.959C499.892 288.645 504.51 288.191 507.942 290.899C511.719 293.885 512.636 300.161 509.801 303.559C507.656 306.133 504.468 306.293 499.463 303.971V303.98Z" fill="#FEFFFE"/>
<path d="M630.402 288.88C634.263 296.098 636.248 303.357 632.74 311.079C628.955 319.415 622.125 323.731 613.25 324.378C603.972 325.06 596.611 321.266 592.195 312.905C589.167 307.168 589.302 300.977 590.437 294.642C591.573 288.3 594.5 283.345 599.901 279.905C605.259 276.49 610.971 275.724 616.85 278.374C622.108 280.746 627.087 283.581 630.402 288.88Z" fill="#040C06"/>
<path d="M624.548 299.647C620.922 303.121 617.692 303.5 614.294 301.018C611.114 298.688 610.003 294.087 611.703 290.285C613.293 286.735 616.355 285.297 620.266 286.264C625.49 287.551 627.517 293.624 624.548 299.647Z" fill="#FEFFFE"/>
<mask id="mask0_1969_24393" style="mask-type:luminance" maskUnits="userSpaceOnUse" x="254" y="241" width="599" height="832">
<path d="M780.129 851.691C773.761 850.177 773.921 842.799 773.921 842.799C769.875 766.942 707.307 715.714 707.307 715.714C775.914 681.974 852.26 632.907 852.26 534.758C852.26 436.609 720.581 366.69 720.581 366.69C686.808 291.816 646.338 241 602.984 241C559.629 241 558.098 280.822 554.683 291.555C554.094 293.397 553.447 293.355 553.447 293.355C553.447 293.355 552.799 293.397 552.21 291.555C548.795 280.822 547.255 241 503.909 241C460.563 241 420.085 291.816 386.312 366.69C386.312 366.69 254.633 436.609 254.633 534.758C254.633 632.907 330.97 681.965 399.586 715.714C399.586 715.714 337.018 766.942 332.972 842.799C332.972 842.799 333.132 850.168 326.764 851.691C320.397 853.205 278.893 885.027 278.893 926.935C278.893 968.842 292.722 989.965 328.472 1008.85C328.472 1008.85 307.425 1019.87 310.58 1026.98C313.743 1034.08 313.928 1048.75 394.808 1040.74C394.808 1040.74 397.701 1039.81 397.601 1043.49C397.5 1047.16 395.346 1059.23 412.321 1068.07C429.296 1076.91 472.525 1076.03 513.558 1034.28C513.558 1034.28 514.433 1033.44 515.4 1031.97C515.661 1031.8 555.255 1005.77 590.803 1030.86C591.989 1033.01 593.31 1034.28 593.31 1034.28C634.343 1076.03 677.571 1076.91 694.547 1068.07C711.522 1059.23 709.368 1047.16 709.267 1043.49C709.166 1039.82 712.06 1040.74 712.06 1040.74C792.94 1048.75 793.133 1034.08 796.288 1026.98C799.451 1019.87 778.396 1008.85 778.396 1008.85C814.146 989.956 827.975 968.842 827.975 926.935C827.975 885.027 786.471 853.205 780.103 851.691H780.129ZM593.108 1032.29C594.168 1032.89 595.219 1033.37 596.254 1033.75L596.061 1034.28C595.077 1033.58 594.093 1032.92 593.108 1032.29Z" fill="white"/>
</mask>
<g mask="url(#mask0_1969_24393)">
<path d="M675.645 230.334H389.761V262.366H675.645V230.334Z" fill="#EFEFEF" stroke="#9E9E9E" stroke-miterlimit="10"/>
<path d="M839.34 253.618H553.455V285.65H839.34V253.618Z" fill="#EFEFEF" stroke="#9E9E9E" stroke-miterlimit="10"/>
<path d="M835.921 307.421L550.698 287.976L547.858 329.636L833.081 349.08L835.921 307.421Z" fill="#EFEFEF" stroke="#9E9E9E" stroke-miterlimit="10"/>
<path d="M828.232 418.761L263.217 380.242L258.807 444.922L823.823 483.441L828.232 418.761Z" fill="#EFEFEF" stroke="#9E9E9E" stroke-miterlimit="10"/>
<path d="M721.672 318.252L339.885 345.217L343.723 399.565L725.511 372.6L721.672 318.252Z" fill="#EFEFEF" stroke="#9E9E9E" stroke-miterlimit="10"/>
<path d="M714.752 293.846L436.443 228.467L429.118 259.65L707.426 325.029L714.752 293.846Z" fill="#EFEFEF" stroke="#9E9E9E" stroke-miterlimit="10"/>
<path d="M818.596 369.978H314.491V402.011H818.596V369.978Z" fill="#EFEFEF" stroke="#9E9E9E" stroke-miterlimit="10"/>
<path d="M806.908 403.865L305.474 352.046L302.181 383.909L803.615 435.727L806.908 403.865Z" fill="#EFEFEF" stroke="#9E9E9E" stroke-miterlimit="10"/>
<path d="M854.535 541.913L257.053 611.361L260.751 643.18L858.234 573.731L854.535 541.913Z" fill="#EFEFEF" stroke="#9E9E9E" stroke-miterlimit="10"/>
<path d="M880.097 912.902L273.237 871.53L269.594 924.973L876.454 966.344L880.097 912.902Z" fill="#EFEFEF" stroke="#9E9E9E" stroke-miterlimit="10"/>
<path d="M829.549 997.071L279.582 867.875L270.854 905.028L820.822 1034.22L829.549 997.071Z" fill="#EFEFEF" stroke="#9E9E9E" stroke-miterlimit="10"/>
<path d="M867.966 864.586H273.081V909.926H867.966V864.586Z" fill="#EFEFEF" stroke="#9E9E9E" stroke-miterlimit="10"/>
<path d="M823.516 704.845L282.602 671.383L285.723 629.727L826.637 663.19L823.516 704.845Z" fill="#EFEFEF" stroke="#9E9E9E" stroke-miterlimit="10"/>
<path d="M815.947 624.832H261.094V656.864H815.947V624.832Z" fill="#EFEFEF" stroke="#9E9E9E" stroke-miterlimit="10"/>
<path d="M858.569 504.475H238.718V576.329H858.569V504.475Z" fill="#EFEFEF" stroke="#9E9E9E" stroke-miterlimit="10"/>
<path d="M858.569 1009.51H238.718V1081.36H858.569V1009.51Z" fill="#EFEFEF" stroke="#9E9E9E" stroke-miterlimit="10"/>
<path d="M864.55 444.945H244.699V516.799H864.55V444.945Z" fill="#EFEFEF" stroke="#9E9E9E" stroke-miterlimit="10"/>
<path d="M848.309 605.084L238.254 714.85L250.978 785.569L861.033 675.802L848.309 605.084Z" fill="#EFEFEF" stroke="#9E9E9E" stroke-miterlimit="10"/>
<path d="M855.6 825.794L241.037 744.995L235.063 790.431L849.626 871.231L855.6 825.794Z" fill="#EFEFEF" stroke="#9E9E9E" stroke-miterlimit="10"/>
<path d="M867.999 890.36L257.944 1000.13L267.92 1055.57L877.975 945.804L867.999 890.36Z" fill="#EFEFEF" stroke="#9E9E9E" stroke-miterlimit="10"/>
<path d="M874.313 502.466L324.346 373.27L315.618 410.423L865.585 539.619L874.313 502.466Z" fill="#EFEFEF" stroke="#9E9E9E" stroke-miterlimit="10"/>
<path d="M807.91 720.484L259.848 857.538L269.106 894.562L817.168 757.509L807.91 720.484Z" fill="#EFEFEF" stroke="#9E9E9E" stroke-miterlimit="10"/>
</g>
<path d="M589.784 374.344C594.368 373.175 598.044 370.744 601.796 368.439C603.487 367.396 605.598 365.832 607.331 367.834C609.013 369.768 607.861 372.023 606.346 373.638C601.081 379.257 594.402 382.218 586.848 382.966C577.343 383.9 568.325 381.814 559.804 377.575C558.357 376.851 557.196 376.944 555.783 377.701C545.512 383.219 534.569 386.407 522.868 385.961C514.649 385.65 507.255 382.739 501.544 376.498C499.668 374.445 497.977 372.199 499.087 369.07C499.575 367.682 500.357 366.748 501.914 366.681C503.478 366.605 505.237 366.429 505.985 368.12C509.274 375.581 516.138 377.272 522.96 377.591C534.013 378.104 544.73 375.85 554.504 370.265C556.473 369.137 558.349 369.129 560.351 370.08C567.77 373.596 575.551 375.446 583.795 375.32C585.763 375.287 587.664 374.967 589.784 374.37V374.344Z" fill="#999999"/>
<path d="M333.408 483.261L343.931 502.381" stroke="#999999" stroke-miterlimit="10"/>
<path d="M329.85 491.984L340.364 508.926" stroke="#999999" stroke-miterlimit="10"/>
<path d="M344.023 487.702L351.636 501.54" stroke="#999999" stroke-miterlimit="10"/>
<path d="M664.807 537.416L675.321 556.545" stroke="#999999" stroke-miterlimit="10"/>
<path d="M661.24 546.139L671.763 563.089" stroke="#999999" stroke-miterlimit="10"/>
<path d="M675.414 541.866L683.027 555.704" stroke="#999999" stroke-miterlimit="10"/>
<path d="M487.268 696.585L497.782 715.705" stroke="#999999" stroke-miterlimit="10"/>
<path d="M483.701 705.308L494.225 722.25" stroke="#999999" stroke-miterlimit="10"/>
<path d="M497.875 701.026L505.488 714.872" stroke="#999999" stroke-miterlimit="10"/>
<path d="M743.021 926.11L753.536 945.239" stroke="#999999" stroke-miterlimit="10"/>
<path d="M739.455 934.833L749.978 951.783" stroke="#999999" stroke-miterlimit="10"/>
<path d="M753.629 930.56L761.241 944.398" stroke="#999999" stroke-miterlimit="10"/>
<path d="M411.763 993.649L422.277 1012.78" stroke="#999999" stroke-miterlimit="10"/>
<path d="M408.196 1002.38L418.719 1019.32" stroke="#999999" stroke-miterlimit="10"/>
<path d="M422.37 998.099L429.983 1011.94" stroke="#999999" stroke-miterlimit="10"/>
<path d="M660.998 331.898L671.521 351.018" stroke="#999999" stroke-miterlimit="10"/>
<path d="M657.439 340.621L667.954 357.563" stroke="#999999" stroke-miterlimit="10"/>
<path d="M671.613 336.339L679.226 350.185" stroke="#999999" stroke-miterlimit="10"/>
</svg>
