<svg width="1075" height="1075" viewBox="0 0 1075 1075" fill="none" xmlns="http://www.w3.org/2000/svg">
<path d="M760.098 757.606C760.098 757.606 704.953 759.912 659.404 717.306C613.863 674.708 635.734 815.845 635.734 815.845L701.371 840.504L760.098 757.606Z" fill="#00D32F"/>
<path d="M529.01 543.467C658.567 543.467 763.593 498.991 763.593 444.128C763.593 389.264 658.567 344.788 529.01 344.788C399.454 344.788 294.428 389.264 294.428 444.128C294.428 498.991 399.454 543.467 529.01 543.467Z" fill="black"/>
<path d="M488.945 1038.93C488.945 1038.93 523.804 1010.49 564.075 1038.93L601.7 935.818L562.815 809.324L496.457 804.657L446.17 928.56L488.945 1038.92V1038.93Z" fill="#D1FF6C"/>
<path d="M675.942 1045.02C752.134 1052.57 752.317 1038.76 755.288 1032.06C758.26 1025.36 738.433 1014.98 738.433 1014.98C772.111 997.187 785.139 977.299 785.139 937.823C785.139 898.347 746.04 868.372 740.042 866.945C734.043 865.519 734.194 858.57 734.194 858.57C730.382 787.114 671.441 738.859 671.441 738.859C736.072 707.077 807.993 660.857 807.993 568.404C807.993 475.95 683.946 410.088 683.946 410.088C652.13 339.559 614.006 291.692 573.164 291.692C532.323 291.692 530.88 329.202 527.663 339.313C527.108 341.048 526.498 341.009 526.498 341.009C526.498 341.009 525.888 341.048 525.333 339.313C522.116 329.202 520.666 291.692 479.832 291.692C438.998 291.692 400.867 339.559 369.051 410.088C369.051 410.088 245.004 475.95 245.004 568.404C245.004 660.857 316.925 707.069 381.555 738.859C381.555 738.859 322.614 787.114 318.803 858.57C318.803 858.57 318.953 865.511 312.955 866.945C306.956 868.38 267.858 898.347 267.858 937.823C267.858 977.299 280.885 997.195 314.563 1014.98C314.563 1014.98 294.737 1025.36 297.708 1032.06C300.688 1038.76 300.862 1052.57 377.054 1045.02C377.054 1045.02 379.772 1044.15 379.685 1047.61C379.59 1051.07 377.561 1062.44 393.553 1070.77C409.544 1079.09 450.267 1078.27 488.921 1038.94C488.921 1038.94 497.21 1031.02 490.142 1021.43C483.073 1011.85 467.367 976.023 470.569 918.339C473.77 860.654 497.955 813.238 526.482 813.238C555.01 813.238 579.195 860.654 582.396 918.339C585.598 976.023 569.892 1011.85 562.823 1021.43C555.755 1031.02 564.043 1038.94 564.043 1038.94" fill="#00D32F"/>
<path d="M458.304 370.184C444.302 357.253 449.143 336.485 465.911 329.274C476.221 324.845 486.229 330.954 490.175 340.383C494.573 350.914 490.92 362.752 481.942 369.915C476.363 374.368 465.879 375.826 458.304 370.176V370.184Z" fill="#040C06"/>
<path d="M475.659 351.017C471.459 347.99 470.714 343.426 473.622 339.694C476.063 336.572 480.413 336.144 483.646 338.695C487.204 341.508 488.068 347.419 485.398 350.62C483.377 353.045 480.374 353.196 475.659 351.009V351.017Z" fill="#FEFFFE"/>
<path d="M598.999 336.802C602.637 343.6 604.507 350.438 601.202 357.712C597.637 365.565 591.202 369.63 582.842 370.24C574.101 370.882 567.168 367.308 563.007 359.432C560.155 354.028 560.281 348.196 561.351 342.229C562.421 336.255 565.179 331.588 570.266 328.347C575.314 325.13 580.694 324.409 586.233 326.905C591.186 329.139 595.877 331.81 598.999 336.802Z" fill="#040C06"/>
<path d="M593.492 346.944C590.076 350.217 587.033 350.573 583.832 348.236C580.836 346.041 579.79 341.707 581.391 338.125C582.889 334.781 585.773 333.426 589.458 334.338C594.379 335.55 596.289 341.271 593.492 346.944Z" fill="#FEFFFE"/>
<path d="M474.58 460.158C474.58 460.158 522.823 445.721 573.301 457.471C573.301 457.471 554.386 549.822 525.066 549.822C495.746 549.822 474.58 460.158 474.58 460.158Z" fill="#E26969"/>
<path d="M689.076 874.093C689.076 874.093 667.157 802.233 756.075 786.068C844.994 769.904 857.696 838.151 857.696 838.151" stroke="black" stroke-width="10" stroke-miterlimit="10"/>
<path d="M684.686 874.093C684.686 874.093 791.196 840.964 861.326 838.151L867.435 849.68L684.979 887.611L684.686 874.093Z" fill="black"/>
<path d="M861.325 838.151C861.325 838.151 781.298 876.644 684.685 874.093C684.685 874.093 632.868 1090.6 814.081 1049.69C995.293 1008.78 861.325 838.151 861.325 838.151Z" fill="#EE9748"/>
<path d="M755.623 910.144C759.772 900.849 758.907 891.427 753.691 889.099C748.476 886.772 740.885 892.421 736.736 901.716C732.588 911.011 733.453 920.433 738.668 922.761C743.884 925.088 751.475 919.439 755.623 910.144Z" fill="black"/>
<path d="M829.824 904.48C833.863 900.442 831.301 891.333 824.103 884.136C816.905 876.938 807.796 874.377 803.758 878.415C799.719 882.453 802.281 891.561 809.479 898.759C816.677 905.957 825.786 908.518 829.824 904.48Z" fill="black"/>
<path d="M785.124 915.138L776.059 951.508L790.766 938.964L808.326 942.102L785.124 915.138Z" fill="black"/>
<mask id="mask0_1969_24395" style="mask-type:luminance" maskUnits="userSpaceOnUse" x="677" y="838" width="232" height="217">
<path d="M861.325 838.151C861.325 838.151 781.298 876.645 684.685 874.093C684.685 874.093 632.868 1090.6 814.081 1049.69C995.293 1008.78 861.325 838.151 861.325 838.151Z" fill="white"/>
</mask>
<g mask="url(#mask0_1969_24395)">
<path d="M725.813 869.046C725.813 869.046 680.303 994.724 775.981 1056.83" stroke="#CC8148" stroke-width="3" stroke-miterlimit="10"/>
<path d="M810.738 852.778C810.738 852.778 887.152 949.416 852.047 1039.52" stroke="#CC8148" stroke-width="3" stroke-miterlimit="10"/>
</g>
<path d="M713.371 958.243C713.371 958.243 809.905 1000.41 866.143 915.13C866.143 915.13 894.259 983.543 815.531 1009.79C736.803 1036.03 713.371 958.243 713.371 958.243Z" fill="black"/>
<path d="M820.673 784.856C823.446 826.257 794.927 840.544 756.383 847.834C717.839 855.131 690.413 836.534 684.525 795.894C679.058 758.177 815.316 704.953 820.681 784.856H820.673Z" fill="#00D32F"/>
<path d="M456.662 751.076C456.662 751.076 524.684 763.279 601.352 751.076C601.352 751.076 569.441 774.903 530.501 774.903C491.561 774.903 456.662 751.076 456.662 751.076Z" fill="#00BA23"/>
<path d="M387.752 310.011L276.432 402.553L309.175 633.172L648.619 719.786L763.593 485.189L772.183 389.906L653.62 310.011H387.752Z" fill="black"/>
<path d="M538.25 250.045L543.116 184.23C543.116 184.23 562.031 170.95 570.082 209.182C570.082 209.182 614.759 165.316 633.27 174.167C651.781 183.018 598.657 225.679 598.657 225.679L623.206 227.692C623.206 227.692 638.88 250.441 540.493 254.561L538.25 250.045Z" fill="#9B9D4A"/>
<path d="M480.133 296.39C480.133 296.39 492.551 235.1 455.307 209.499C455.307 209.499 479.357 180.015 508.843 194.761C538.329 209.499 570.684 296.39 570.684 296.39H480.141H480.133Z" fill="#353B54"/>
<path d="M652.812 277.944C636.654 281.375 523.931 282.579 523.931 282.579C523.931 282.579 411.216 281.375 395.051 277.944C378.893 274.513 181 347.918 181 482.709C181 617.499 264.839 725.642 370.818 733.478C476.798 741.315 523.931 740.063 523.931 740.063C523.931 740.063 571.057 741.315 677.044 733.478C783.024 725.642 866.863 617.499 866.863 482.709C866.863 347.918 668.969 274.513 652.812 277.944ZM552.998 317.436C568.284 305.851 600.282 311.327 624.475 329.662C648.667 347.997 655.887 372.252 640.609 383.836C625.323 395.421 593.324 389.946 569.131 371.61C544.939 353.275 537.72 329.02 552.998 317.436ZM526 380.944L560.145 452.868L526.61 427.544L472.867 447.123L526 380.952V380.944ZM426.391 329.662C450.584 311.327 482.59 305.851 497.868 317.436C513.154 329.02 505.927 353.275 481.734 371.61C457.542 389.946 425.536 395.421 410.257 383.836C394.972 372.252 402.198 347.997 426.391 329.662ZM685.238 556.7L638.849 522.961L646.33 593.046C620.235 609.234 585.646 618.299 539.796 614.583C285.323 593.934 324.184 417.702 324.184 417.702C324.184 417.702 346.76 434.017 383.529 450.364L390.875 497.058L416.866 463.494C497.116 491.132 617.042 503.912 725.573 402.552C725.573 402.552 731.476 493.691 685.238 556.7Z" fill="#EE9748"/>
<mask id="mask1_1969_24395" style="mask-type:luminance" maskUnits="userSpaceOnUse" x="181" y="277" width="686" height="464">
<path d="M652.812 277.944C636.654 281.375 523.931 282.579 523.931 282.579C523.931 282.579 411.216 281.375 395.051 277.944C378.893 274.513 181 347.918 181 482.709C181 617.499 264.839 725.642 370.818 733.478C476.798 741.315 523.931 740.063 523.931 740.063C523.931 740.063 571.057 741.315 677.044 733.478C783.024 725.642 866.863 617.499 866.863 482.709C866.863 347.918 668.969 274.513 652.812 277.944ZM552.998 317.436C568.284 305.851 600.282 311.327 624.475 329.662C648.667 347.997 655.887 372.252 640.609 383.836C625.323 395.421 593.324 389.946 569.131 371.61C544.939 353.275 537.72 329.02 552.998 317.436ZM526 380.944L560.145 452.868L526.61 427.544L472.867 447.123L526 380.952V380.944ZM426.391 329.662C450.584 311.327 482.59 305.851 497.868 317.436C513.154 329.02 505.927 353.275 481.734 371.61C457.542 389.946 425.536 395.421 410.257 383.836C394.972 372.252 402.198 347.997 426.391 329.662ZM685.238 556.7L638.849 522.961L646.33 593.046C620.235 609.234 585.646 618.299 539.796 614.583C285.323 593.934 324.184 417.702 324.184 417.702C324.184 417.702 346.76 434.017 383.529 450.364L390.875 497.058L416.866 463.494C497.116 491.132 617.042 503.912 725.573 402.552C725.573 402.552 731.476 493.691 685.238 556.7Z" fill="white"/>
</mask>
<g mask="url(#mask1_1969_24395)">
<path d="M455.305 254.568C455.305 254.568 170.11 536.224 446.169 759.285" stroke="#CC8148" stroke-width="10" stroke-miterlimit="10"/>
<path d="M596.793 254.568C596.793 254.568 881.988 536.224 605.93 759.285" stroke="#CC8148" stroke-width="10" stroke-miterlimit="10"/>
</g>
</svg>
