<svg width="1075" height="1075" viewBox="0 0 1075 1075" fill="none" xmlns="http://www.w3.org/2000/svg">
<path d="M601.923 1027.66C595.184 1027.13 588.509 1026.54 581.802 1025.98C575.769 1025.48 569.769 1024.92 563.736 1024.6C547.466 1023.76 531.164 1024.14 514.895 1024.73C505.236 1025.07 495.545 1025.48 485.725 1027.57C481.746 1020.86 478.794 1013.87 475.809 1006.88C467.947 988.479 463.551 969.138 460.503 949.547C458.577 937.163 457.839 924.654 457.486 912.113C456.491 876.582 462.107 841.986 472.536 808.045C475.745 797.626 480.783 787.893 485.982 777.942C486.174 777.661 486.142 777.63 486.174 777.63C487.201 776.663 487.747 775.415 488.453 773.98C488.645 773.793 488.613 773.73 488.645 773.73C489.223 773.138 489.576 772.451 490.089 771.609C490.25 771.453 490.25 771.391 490.282 771.391C490.828 770.86 491.18 770.205 491.726 769.363C491.919 769.176 491.919 769.051 491.983 769.051C492.111 768.895 492.207 768.739 492.496 768.427C492.689 768.271 492.689 768.209 492.689 768.209C493.266 767.71 493.587 767.086 494.165 766.275C494.39 766.088 494.389 765.932 494.454 765.9C494.582 765.713 494.646 765.557 494.903 765.308C495.128 765.183 495.095 765.089 495.16 765.089C495.32 764.933 495.384 764.809 495.705 764.497C495.898 764.341 495.898 764.278 495.93 764.278C496.09 764.153 496.187 763.997 496.507 763.685C496.7 763.498 496.7 763.467 496.7 763.467C497.502 762.75 498.24 761.97 499.01 760.878C499.235 760.722 499.363 760.472 499.652 760.254C499.941 760.036 500.101 759.724 500.422 759.505C500.743 759.256 500.904 758.944 501.225 758.725C501.546 758.507 501.738 758.164 502.027 758.008C502.701 757.446 503.086 757.041 503.76 756.542C504.562 755.824 505.461 755.731 506.199 755.013C506.359 754.857 506.359 754.826 506.391 754.826C506.552 754.701 506.68 754.576 507.001 754.233C507.193 754.046 507.193 754.015 507.193 754.015C507.322 753.89 507.482 753.765 507.803 753.453C507.996 753.266 507.996 753.235 507.996 753.235C508.124 753.11 508.252 752.985 508.605 752.705C508.83 752.549 508.83 752.486 508.894 752.486C509.022 752.362 509.087 752.206 509.44 752.018C516.211 747.214 523.976 746.247 531.71 745.187C541.626 743.845 551.542 743.689 561.393 745.686C576.026 748.649 585.974 758.008 594.606 769.02C598.682 774.23 602.051 779.876 605.1 786.053C605.292 786.427 605.42 786.521 605.581 786.832C605.709 787.176 605.773 787.332 605.934 787.675C606.126 787.987 606.223 788.08 606.383 788.392C606.479 788.735 606.576 788.891 606.736 789.266C606.929 789.578 607.057 789.671 607.185 789.952C607.282 790.326 607.346 790.482 607.506 790.888C607.731 791.2 607.859 791.262 607.924 791.543C607.956 791.917 608.052 792.073 608.244 792.541C608.629 793.009 608.79 793.259 608.886 793.851C609.015 794.257 609.079 794.382 609.207 794.756C609.4 795.068 609.496 795.162 609.624 795.474C609.721 795.848 609.785 796.004 609.913 796.441C610.266 796.909 610.427 797.189 610.491 797.782C610.619 798.188 610.683 798.312 610.812 798.718C611.004 799.03 611.1 799.123 611.197 799.435C611.261 799.81 611.357 799.997 611.486 800.402C611.839 800.87 612.031 801.12 612.063 801.713C612.159 802.118 612.224 802.274 612.352 802.68C612.673 803.179 612.833 803.46 612.897 804.052C612.994 804.458 613.058 804.614 613.186 805.019C613.507 805.518 613.636 805.83 613.732 806.423C613.86 806.829 613.892 806.985 614.021 807.39C614.341 807.889 614.47 808.17 614.534 808.794C614.63 809.2 614.694 809.355 614.823 809.792C615.721 812.974 616.556 815.907 617.583 819.088C617.807 819.681 617.903 820.024 618.032 820.648C619.091 826.014 620.503 831.036 621.69 836.371C621.883 836.963 621.979 837.338 622.075 837.93C623.327 844.513 624.707 850.814 625.862 857.459C625.99 858.114 626.054 858.488 626.118 859.143C626.086 860.578 626.407 861.67 626.664 863.043C626.792 863.635 626.824 864.01 626.889 864.665C627.306 869.157 627.787 873.4 628.301 877.923C628.429 878.828 628.493 879.451 628.525 880.387C628.461 884.131 629.135 887.562 629.103 891.306C629.231 892.71 629.295 893.864 629.295 895.33C629.488 901.413 629.36 907.184 629.327 913.267C629.295 914.733 629.263 915.856 629.231 917.323C628.942 921.347 628.525 925.028 628.525 929.021C628.493 929.707 628.493 930.082 628.429 930.737C628.14 933.17 627.723 935.291 627.723 937.693C627.691 938.348 627.659 938.723 627.595 939.378C626.728 943.059 626.728 946.553 626.086 950.265C626.022 950.92 625.99 951.294 625.926 951.949C625.092 954.601 625.156 957.097 624.514 959.748C624.45 960.372 624.418 960.747 624.321 961.371C623.327 964.802 622.909 968.046 622.075 971.509C621.979 972.133 621.947 972.476 621.818 973.069C620.888 975.72 620.374 978.216 619.668 980.93C619.572 981.554 619.54 981.897 619.38 982.49C618.064 986.514 616.78 990.257 615.625 994.282C615.529 994.906 615.433 995.28 615.208 995.904C615.144 996.309 615.176 996.434 615.015 996.684C614.791 996.964 614.759 997.089 614.63 997.495C613.283 1000.02 612.577 1002.49 611.742 1005.2C611.518 1005.57 611.486 1005.73 611.325 1006.1C610.747 1007.17 610.362 1008.04 610.106 1009.16C609.881 1009.5 609.817 1009.66 609.656 1010.07C609.528 1010.44 609.528 1010.6 609.335 1010.85C609.111 1011.13 609.079 1011.28 608.918 1011.63C608.02 1013.15 607.218 1014.47 606.832 1016.21C606.608 1016.56 606.544 1016.74 606.351 1017.15C606.223 1017.52 606.223 1017.68 606.062 1017.93C605.806 1018.21 605.773 1018.36 605.581 1018.74C605.453 1019.11 605.453 1019.24 605.26 1019.52C605.035 1019.8 605.003 1019.96 604.843 1020.3C604.233 1021.33 603.848 1022.2 603.591 1023.36C603.399 1023.7 603.335 1023.85 603.206 1024.23C602.597 1025.29 602.212 1026.16 601.987 1027.32C601.987 1027.5 601.955 1027.63 601.923 1027.66Z" fill="#FFE095"/>
<path d="M390.544 721.258C229.373 654.119 194.023 495.274 346.302 393.003C356.454 384.838 371.476 381.373 378.648 370.325C394.324 336.404 410.243 301.127 437.113 274.475C473.82 235.563 530.394 242.323 537.275 300.691C547.936 236.411 605.989 237.162 643.883 280.508C657.257 295.409 667.579 312.587 676.786 330.274C687.35 345.466 689.942 367.345 704.989 378.635C868.462 468.525 866.863 635.73 696.678 716.17C694.885 716.945 693.044 718.229 695.321 719.828C714.026 736.958 730.381 756.535 742.253 778.996C753.737 800.341 761.878 823.577 765.101 847.661C765.295 851.537 766.918 854.009 770.673 855.438C770.843 855.802 771.57 855.802 771.861 856.068C772.273 856.553 773.242 856.698 773.726 857.255C775.471 858.418 777.603 859.315 779.202 860.938C779.832 861.568 781.044 861.98 781.649 862.78C782.764 863.725 784.29 864.67 785.332 865.833C785.38 866.002 785.841 866.317 785.986 866.414C788.651 868.522 791.244 870.848 793.303 873.78C834.008 918.313 820.779 986.663 769.971 1012.27C794.03 1021.89 789.863 1042.17 764.374 1044.18C744.53 1046.87 724.59 1044.89 704.795 1042.92C703.05 1042.78 702.445 1043.12 702.663 1045.05C697.211 1102.36 607.903 1065.36 588.883 1033.76C584.473 1028.12 587.114 1021.7 590.046 1015.88C592.711 1009.92 595.619 1004.08 597.606 997.857C613.742 951.094 612.87 899.438 599.084 852.167C590.385 817.883 564.266 789.099 526.445 802.474C492.888 818.659 486.903 862.998 481.718 896.143C478.035 930.015 480.652 965.099 491.919 997.445C493.978 1004.47 497.661 1010.84 500.205 1017.68C504.905 1024.7 503.452 1031.78 498.145 1037.33C477.236 1066.67 391.683 1101 386.983 1044.91C387.201 1043.14 386.595 1042.78 384.996 1042.92C363.02 1045.01 340.705 1047.65 318.851 1042.92C293.846 1035.7 302.108 1020.58 320.668 1011.11C266.395 989.934 257.672 913.685 296.342 873.755C298.401 871.066 300.824 868.474 303.659 866.39C303.853 866.39 304.192 865.93 304.289 865.833C305.379 864.839 306.663 863.652 307.972 862.78C308.626 862.15 309.523 861.471 310.419 860.938C312.018 859.533 313.932 858.322 315.895 857.255C316.355 856.844 317.203 856.504 317.76 856.068C318.003 855.85 318.657 855.705 318.972 855.414C320.086 854.469 321.952 853.839 323.285 853.015C326.192 840.416 328.373 826.533 332.443 813.934C332.928 813.595 332.589 812.48 333.049 812.093C333.533 811.753 333.194 810.639 333.679 810.275C334.163 809.936 333.824 808.797 334.309 808.458C335.496 807.223 335.423 805.066 336.126 803.564C336.998 802.91 336.78 801.335 337.337 800.511C338.234 799.881 337.967 798.282 338.573 797.458C339.688 796.513 339.639 794.357 340.415 793.194C341.311 791.619 342.256 790.141 342.813 788.275C343.128 788.082 343.177 787.331 343.419 787.04C343.855 786.434 344.17 785.198 344.63 784.593C344.97 784.423 344.994 783.672 345.236 783.381C345.551 783.187 345.6 782.46 345.842 782.17C346.157 781.976 346.205 781.273 346.448 780.958C347.417 780.135 347.756 778.463 348.313 777.324C348.58 777.106 348.628 776.258 348.943 776.112C349.016 775.967 349.355 775.579 349.476 775.434C350.203 775.046 350.179 773.641 350.736 773.035C350.833 772.938 351.196 772.454 351.293 772.357C351.657 772.212 351.681 771.485 351.948 771.17C352.505 770.806 352.844 769.983 353.135 769.304C353.498 769.159 353.522 768.456 353.789 768.117C354.055 767.923 354.152 767.099 354.443 766.93C354.54 766.809 354.879 766.421 355 766.251C355.848 765.573 355.994 764.046 356.866 763.223C357.011 763.15 357.302 762.69 357.423 762.568C357.787 762.399 357.787 761.745 358.077 761.381C358.611 760.969 358.732 760.024 359.313 759.54C359.434 759.467 359.798 758.983 359.87 758.861C360.5 758.595 360.573 757.505 361.106 757.068C361.397 756.875 361.494 756.051 361.785 755.905C370.168 744.542 379.423 733.954 389.696 724.262C390.472 723.535 391.974 722.833 390.496 721.234L390.544 721.258Z" fill="#FFBA14"/>
<path d="M491.173 288.676C508.778 298.112 514.051 315.326 504.849 331.263C498.862 341.603 487.335 347.601 475.751 346.39C464.869 345.212 456.032 336.998 452.71 325.337C446.271 302.534 472.229 280.778 491.173 288.676Z" fill="#0E0E0E"/>
<path d="M484.422 317.247C478.908 315.266 476.878 311.795 478.393 306.547C479.423 303.114 481.995 300.86 485.724 299.912C490.425 298.717 494.135 299.798 496.914 302.867C498.862 305.03 499.634 307.673 497.935 310.642C495.122 315.494 490.36 316.976 484.483 317.201L484.422 317.247Z" fill="white"/>
<path d="M540.619 734.487H445.261C521.548 778.368 599.807 752.77 629.401 734.487H540.619Z" fill="#EAA705"/>
<path d="M486.214 469.074C517.155 475.52 583.162 477.84 599.664 435.554" stroke="black" stroke-width="2.5" stroke-linecap="round"/>
<path d="M587.834 344.101C565.144 333.787 570.645 310.581 576.231 300.268C596.859 293.822 620.064 311.871 623.931 318.317C627.799 324.763 616.197 356.993 587.834 344.101Z" fill="black"/>
<path d="M594.56 319.283C589.598 315.421 588.456 311.222 591.265 306.416C593.142 303.285 596.25 301.867 600.176 302.161C605.126 302.532 608.527 304.874 610.511 308.918C611.898 311.764 612.003 314.701 609.58 317.136C605.585 321.106 600.504 321.005 594.632 319.257L594.56 319.283Z" fill="white"/>
<path d="M673.007 392.691C671.847 393.501 670.807 394.045 669.877 394.734C658.71 403.024 646.273 407.665 632.314 408.572C602.233 410.53 574.63 392.317 564.163 365.027C562.411 360.459 562.375 360.459 557.529 360.568C544.452 360.846 531.363 361.136 518.286 361.402C514.999 361.474 515.011 361.45 513.778 364.495C506.95 381.512 495.432 394.395 478.778 402.009C454.365 413.164 430.871 410.771 408.718 395.604C407.473 394.746 406.228 393.876 404.766 392.909C403.485 391.724 402.445 390.613 401.358 389.549C367.651 356.471 375.966 300.877 417.843 279.026C426.242 274.639 435.161 271.968 444.516 270.94C464.312 268.765 481.22 275.485 496.013 288.307C497.064 289.226 497.983 290.314 499.445 291.075C501.04 291.861 502.055 292.96 503.022 294.145C513.948 307.5 519.64 322.703 519.422 340.046C519.35 346.113 519.398 346.367 525.502 346.669C532.85 347.032 540.222 347.298 547.57 346.403C549.673 346.149 551.776 346.186 553.879 346.162C558.266 346.113 558.58 345.944 558.471 341.654C558.29 334.68 559.208 327.888 561.154 321.217C564.079 311.21 568.78 302.133 575.705 294.278C576.636 293.214 577.651 292.26 579.198 291.51C581.978 289.299 584.455 287.159 587.066 285.189C597.858 277.032 610.101 272.221 623.48 270.965C648.473 268.62 668.584 278.313 683.594 297.916C704.816 325.64 701.577 364.544 676.693 389.053C675.484 390.19 674.336 391.35 673.007 392.691Z" fill="#FD349F"/>
<path d="M495.793 308.695C502.138 318.641 505.16 329.277 504.773 340.83C503.806 369.147 482.862 390.901 456.986 394.503C429.866 398.286 401.646 381.1 395.144 351.2C389.416 324.805 404.317 297.83 429.504 288.125C444.961 282.167 459.875 282.747 474.607 289.914C483.297 294.131 490.258 300.464 495.793 308.695Z" fill="#FAFAF9"/>
<path d="M595.086 383.458C583.315 374.068 576.462 362.127 574.19 347.479C570.359 322.764 585.007 297.529 608.453 288.429C615.487 285.698 622.593 283.776 630.255 284.03C649.798 284.682 665.195 293.022 675.794 309.325C694.019 337.364 682.743 376.122 652.263 389.852C632.274 398.88 613.106 396.366 595.086 383.458Z" fill="#FAFAF9"/>
<path d="M433.652 351.83C426.038 338.983 428.226 325.253 439.526 315.21C449.376 306.448 460.772 304.671 472.894 309.24C484.641 313.663 490.588 323.017 492.268 335.091C493.742 345.642 491.579 355.528 485.85 364.628C477.378 378.092 464.893 384.098 449.351 384.497C446.765 384.558 444.203 384.159 441.713 383.542C431.573 381.016 422.739 376.001 415.874 368.169C406.786 357.824 403.994 345.521 406.846 332.13C410.303 315.875 420.394 304.792 434.994 297.493C437.785 296.103 439.925 296.441 440.916 298.242C441.967 300.151 441.061 302.351 438.063 303.753C431.44 306.847 425.845 311.27 421.579 317.083C412.659 329.254 409.723 342.475 416.623 356.603C424.878 373.511 447.007 381.693 464.241 374.333C476.641 369.04 483.082 359.081 485.197 346.113C485.947 341.484 485.814 336.783 484.569 332.178C481.548 320.963 473.208 314.437 461.256 313.941C451.007 313.518 440.505 320.624 437.254 330.619C434.764 338.27 436.444 345.255 442.185 350.947C446.354 355.081 451.636 355.999 457.171 354.561C464.011 352.784 467.492 345.799 465.208 339.055C464.265 336.275 462.404 334.402 459.515 333.955C456.494 333.484 454.379 335.055 452.989 337.689C452.614 338.415 452.179 339.116 451.696 339.768C450.947 340.783 449.919 341.315 448.638 340.977C447.369 340.638 446.753 339.671 446.499 338.451C446.016 336.094 446.789 334.052 448.155 332.203C453.654 324.83 465.449 324.371 470.32 334.475C473.329 340.711 472.846 347.382 469.679 353.461C466.827 358.948 461.57 361.462 455.575 362.03C446.475 362.9 439.079 359.685 433.652 351.83Z" fill="#B6B6B6"/>
<path d="M598.438 325.786C593.326 331.962 591.876 338.851 593.169 346.368C595.537 360.23 606.946 372.799 620.253 375.567C633.438 378.31 645.113 375.228 654.274 364.859C659.035 359.469 663.145 353.619 664.462 346.344C666.504 335.104 664.027 325.085 656.389 316.347C651.252 310.461 645.064 306.328 637.765 303.669C634.659 302.545 631.504 301.796 628.229 301.506C626.489 301.349 624.712 301.313 623.069 300.587C621.667 299.971 620.784 298.883 620.893 297.312C621.002 295.753 621.993 294.774 623.48 294.351C624.035 294.194 624.628 294.11 625.208 294.134C644.496 295.004 664.51 306.775 670.638 327.768C674.106 339.648 672.584 350.9 665.864 361.366C662.432 366.708 658.48 371.591 653.379 375.47C640.399 385.356 621.401 386.347 607.466 377.899C596.033 370.974 588.685 361.028 586.316 347.891C583.984 334.971 587.694 323.937 598.813 316.263C610.101 308.479 621.945 308.189 633.837 314.933C643.566 320.444 648.291 328.977 648.001 340.132C647.723 350.465 641.016 359.106 631.045 361.753C619.165 364.907 610.898 359.384 607.466 347.045C606.439 343.334 606.68 339.733 608.457 336.143C611.865 329.267 620.688 327.418 626.827 331.394C628.737 332.627 630.272 334.222 630.598 336.627C630.755 337.848 630.55 338.971 629.45 339.733C628.326 340.506 627.214 340.265 626.163 339.612C625.377 339.117 624.652 338.512 623.927 337.932C621.812 336.24 619.467 335.793 617.05 337.026C614.826 338.174 613.69 340.228 613.485 342.706C612.82 350.61 619.987 356.919 627.758 355.311C636.629 353.474 642.164 345.389 640.81 336.204C639.445 326.886 632.471 319.937 622.513 317.822C613.025 315.852 605.291 319.066 598.438 325.786Z" fill="#B6B6B6"/>
</svg>
