<svg preserveAspectRatio="none" viewBox="0 0 132 132" fill="none" xmlns="http://www.w3.org/2000/svg"><path d="m50.537 124.691 15.248-12.358 15.247 12.358c5.586 4.528 12.374 6.918 19.639 6.918 17.039 0 30.898-13.626 30.898-30.366 0-9.202-3.971-15.74-7.304-19.607l-13.634-15.812 13.634-15.813c3.333-3.866 7.304-10.404 7.304-19.606 0-16.74-13.859-30.366-30.898-30.366-7.265 0-14.053 2.39-19.639 6.918L65.785 19.314 50.537 6.957C44.952 2.428 38.163.039 30.9.039 13.859.04 0 13.664 0 30.405c0 9.202 3.971 15.74 7.305 19.606l13.633 15.813L7.305 81.636C3.97 85.503 0 92.041 0 101.243c0 16.74 13.86 30.366 30.899 30.366 7.264 0 14.053-2.39 19.638-6.918Z" fill="#0E0E0E"/></svg>