<svg preserveAspectRatio="none" viewBox="0 0 132 132" fill="none" xmlns="http://www.w3.org/2000/svg"><path d="M65.298 125.136c7.918 0 15.74 1.711 23.246 5.093 2.034.92 3.39 1.057 4.02 1.057.315 0 .508-.032.605-.056.266-.388.831-1.728.815-4.302-.129-14.852 6.466-21.511 8.637-23.698 8.741-8.822 19.815-8.822 23.456-8.822h.363c2.365 0 3.664-.678 3.971-1.13.218-.33.395-1.501-.501-3.584-9.387-21.922-4.544-38.968 1.252-49.485.048-.525-.186-1.712-.913-2.607-.452-.565-.879-.832-2.066-.832-.129 0-.266 0-.411.016a55.359 55.359 0 0 1-2.995.09c-9.282 0-16.861-2.915-22.528-8.67-8.507-8.628-8.353-19.024-8.265-24.61v-.048C94.01 1.716 92.951.554 92.378.15c-8.984 3.245-17.676 4.827-26.563 4.827S48.752 3.524 39.566.537c-.484-.16-.815-.193-1-.193-.154 0-.55 0-1.082.614-.388.452-.969 1.396-.936 3.026 3.148 11.139-.364 19.331-3.955 24.311a24.219 24.219 0 0 1-27.226 8.83 5.798 5.798 0 0 0-.677-.032 12.6 12.6 0 0 0-3.867.646c-.363.428-.63.783-.823 1.073C7.975 55.754 8.192 72.583.71 91.68c-.056.137-.508 1.332-.306 1.695.282.5.984.944 1.372 1.041.718-.024 1.428-.04 2.106-.04 9.848 0 17.863 3.026 23.82 9.007 9.128 9.161 9.096 21.147 9.08 25.086 0 .573.097 1.259.863 2.026.735.735 1.703 1.114 2.285 1.114a.485.485 0 0 0 .274-.065c7.628-4.197 16.313-6.408 25.11-6.408h-.016Z" fill="#0E0E0E"/></svg>