<svg width="48" height="48" viewBox="0 0 48 48" fill="none" xmlns="http://www.w3.org/2000/svg">
<g clip-path="url(#clip0_758_3060)">
<circle cx="24" cy="24" r="24" fill="white"/>
<path fill-rule="evenodd" clip-rule="evenodd" d="M35.04 24.2605C35.04 23.445 34.9668 22.6609 34.8309 21.9082H24V26.3566H30.1891C29.9225 27.7941 29.1123 29.0121 27.8943 29.8275V32.713H31.6109C33.7855 30.7109 35.04 27.7628 35.04 24.2605Z" fill="#4285F4"/>
<path fill-rule="evenodd" clip-rule="evenodd" d="M23.9995 35.5005C27.1045 35.5005 29.7076 34.4707 31.6104 32.7144L27.8938 29.8289C26.864 30.5189 25.5467 30.9266 23.9995 30.9266C21.0043 30.9266 18.469 28.9037 17.5647 26.1855H13.7227V29.1651C15.6149 32.9235 19.504 35.5005 23.9995 35.5005Z" fill="#34A853"/>
<path fill-rule="evenodd" clip-rule="evenodd" d="M17.5652 26.1855C17.3352 25.4955 17.2045 24.7584 17.2045 24.0005C17.2045 23.2425 17.3352 22.5055 17.5652 21.8155V18.8359H13.7232C12.9443 20.3884 12.5 22.1448 12.5 24.0005C12.5 25.8561 12.9443 27.6125 13.7232 29.165L17.5652 26.1855Z" fill="#FBBC05"/>
<path fill-rule="evenodd" clip-rule="evenodd" d="M23.9995 17.0739C25.6879 17.0739 27.2038 17.6541 28.3956 18.7936L31.694 15.4952C29.7024 13.6395 27.0992 12.5 23.9995 12.5C19.504 12.5 15.6149 15.0771 13.7227 18.8355L17.5647 21.815C18.469 19.0968 21.0043 17.0739 23.9995 17.0739Z" fill="#EA4335"/>
</g>
<defs>
<clipPath id="clip0_758_3060">
<rect width="48" height="48" fill="white"/>
</clipPath>
</defs>
</svg>
