<svg width="21" height="20" viewBox="0 0 21 20" fill="none" xmlns="http://www.w3.org/2000/svg">
<g id="icon-check-circle-mono">
<path id="Vector" fill-rule="evenodd" clip-rule="evenodd" d="M14.8393 8.51315L10.1868 13.1665C10.0301 13.3222 9.81815 13.4095 9.59725 13.4095C9.37634 13.4095 9.1644 13.3222 9.00766 13.1665L6.161 10.3198C6.08363 10.2424 6.02225 10.1506 5.98038 10.0495C5.93851 9.94841 5.91695 9.84007 5.91695 9.73065C5.91695 9.50967 6.00474 9.29774 6.161 9.14148C6.31725 8.98523 6.52918 8.89744 6.75016 8.89744C6.97114 8.89744 7.18307 8.98523 7.33933 9.14148L9.59683 11.399L13.661 7.33482C13.7384 7.25745 13.8302 7.19607 13.9313 7.1542C14.0324 7.11233 14.1407 7.09078 14.2502 7.09078C14.3596 7.09078 14.4679 7.11233 14.569 7.1542C14.6701 7.19607 14.762 7.25745 14.8393 7.33482C14.9167 7.41219 14.9781 7.50404 15.0199 7.60513C15.0618 7.70622 15.0834 7.81457 15.0834 7.92398C15.0834 8.0334 15.0618 8.14175 15.0199 8.24284C14.9781 8.34393 14.9167 8.43578 14.8393 8.51315ZM10.5002 0.833984C5.43766 0.833984 1.3335 4.93815 1.3335 10.0007C1.3335 15.0631 5.43766 19.1673 10.5002 19.1673C15.5627 19.1673 19.6668 15.0631 19.6668 10.0007C19.6668 4.93815 15.5627 0.833984 10.5002 0.833984Z" fill="#00CE4C"/>
</g>
</svg>
