<svg width="20" height="20" viewBox="0 0 20 20" fill="none" xmlns="http://www.w3.org/2000/svg">
<g clip-path="url(#clip0_2613_6258)">
<path fill-rule="evenodd" clip-rule="evenodd" d="M13.5058 12.3275C13.5832 12.4049 13.6446 12.4967 13.6864 12.5978C13.7283 12.6989 13.7499 12.8073 13.7499 12.9167C13.7499 13.0261 13.7283 13.1344 13.6864 13.2355C13.6446 13.3366 13.5832 13.4285 13.5058 13.5058C13.4285 13.5832 13.3366 13.6446 13.2355 13.6865C13.1344 13.7283 13.0261 13.7499 12.9167 13.7499C12.8072 13.7499 12.6989 13.7283 12.5978 13.6865C12.4967 13.6446 12.4049 13.5832 12.3275 13.5058L9.99999 11.1783L7.67249 13.5058C7.59528 13.5835 7.50348 13.6451 7.40237 13.6872C7.30126 13.7292 7.19283 13.7509 7.08333 13.7509C6.97382 13.7509 6.86539 13.7292 6.76428 13.6872C6.66317 13.6451 6.57137 13.5835 6.49416 13.5058C6.41671 13.4285 6.35526 13.3367 6.31333 13.2356C6.27141 13.1345 6.24983 13.0261 6.24983 12.9167C6.24983 12.8072 6.27141 12.6989 6.31333 12.5978C6.35526 12.4967 6.41671 12.4048 6.49416 12.3275L8.82166 10L6.49416 7.67251C6.41679 7.59514 6.35542 7.50329 6.31354 7.4022C6.27167 7.30111 6.25012 7.19276 6.25012 7.08334C6.25012 6.97392 6.27167 6.86558 6.31354 6.76449C6.35542 6.6634 6.41679 6.57155 6.49416 6.49418C6.57153 6.41681 6.66338 6.35543 6.76447 6.31356C6.86556 6.27169 6.97391 6.25014 7.08333 6.25014C7.19275 6.25014 7.30109 6.27169 7.40218 6.31356C7.50327 6.35543 7.59512 6.41681 7.67249 6.49418L9.99999 8.82168L12.3275 6.49418C12.4049 6.41681 12.4967 6.35543 12.5978 6.31356C12.6989 6.27169 12.8072 6.25014 12.9167 6.25014C13.0261 6.25014 13.1344 6.27169 13.2355 6.31356C13.3366 6.35543 13.4285 6.41681 13.5058 6.49418C13.5832 6.57155 13.6446 6.6634 13.6864 6.76449C13.7283 6.86558 13.7499 6.97392 13.7499 7.08334C13.7499 7.19276 13.7283 7.30111 13.6864 7.4022C13.6446 7.50329 13.5832 7.59514 13.5058 7.67251L11.1783 10L13.5058 12.3275ZM9.99999 0.833344C4.93749 0.833344 0.833328 4.93751 0.833328 10C0.833328 15.0625 4.93749 19.1667 9.99999 19.1667C15.0625 19.1667 19.1667 15.0625 19.1667 10C19.1667 4.93751 15.0625 0.833344 9.99999 0.833344Z" fill="#FF6464"/>
</g>
<defs>
<clipPath id="clip0_2613_6258">
<rect width="20" height="20" fill="white"/>
</clipPath>
</defs>
</svg>
