<svg width="20" height="20" viewBox="0 0 20 20" fill="none" xmlns="http://www.w3.org/2000/svg">
<g clip-path="url(#clip0_3905_17328)">
<path fill-rule="evenodd" clip-rule="evenodd" d="M14.9999 10.4163L13.1666 10.9997C12.1666 11.333 11.4166 12.083 11.0833 13.083L10.4166 14.9997C10.2499 15.4163 9.74992 15.4163 9.66659 14.9997L9.08325 13.1663C8.74992 12.1663 7.99992 11.4163 6.99992 11.083L4.99992 10.4163C4.58325 10.2497 4.58325 9.74968 4.99992 9.66634L6.83325 9.08301C7.83325 8.74967 8.58325 7.99967 8.91659 6.99967L9.58325 4.99967C9.74992 4.58301 10.2499 4.58301 10.3333 4.99967L10.9166 6.83301C11.2499 7.83301 11.9999 8.58301 12.9999 8.91634L14.8333 9.49967C15.4166 9.74967 15.4166 10.2497 14.9999 10.4163M9.99992 0.833008C4.91659 0.833008 0.833252 4.91634 0.833252 9.99967C0.833252 15.083 4.91659 19.1663 9.99992 19.1663C15.0833 19.1663 19.1666 15.083 19.1666 9.99967C19.1666 4.91634 15.0833 0.833008 9.99992 0.833008Z" fill="#00CE4C"/>
</g>
<defs>
<clipPath id="clip0_3905_17328">
<rect width="20" height="20" fill="white"/>
</clipPath>
</defs>
</svg>
