<svg width="392" height="68" viewBox="1 0 390 68" preserveAspectRatio="none" fill="none" xmlns="http://www.w3.org/2000/svg">
<path d="M0.999512 5.31617C0.999512 5.31617 3.2295 0.265185 16.7395 5.31617C30.2595 10.3585 34.3295 7.22548 36.3695 6.37497C38.4095 5.52446 44.5395 0.143684 67.4995 6.70476C75.1495 8.89178 81.9795 9.62079 87.6895 9.62079" stroke="#FF7CC2" stroke-width="2"/>
<path d="M87.6896 9.62081C99.0996 9.62081 106.01 6.70478 106.01 6.70478C160.34 -6.13097 181.05 6.70478 181.05 6.70478C187.49 10.697 192.82 12.0682 197.1 12.0769" stroke="#FF7CC2" stroke-width="2"/>
<path d="M197.1 12.0682C206.6 12.0682 210.96 5.31617 210.96 5.31617C210.96 5.31617 213.18 0.265185 226.69 5.31617C240.21 10.3585 244.28 7.22548 246.32 6.37497C248.36 5.52446 254.49 0.143684 277.45 6.70476C285.11 8.89178 291.94 9.62079 297.65 9.62079" stroke="#FF7CC2" stroke-width="2"/>
<path d="M297.65 9.62081C309.06 9.62081 315.97 6.70478 315.97 6.70478C370.29 -6.13097 391 6.70478 391 6.70478" stroke="#FF7CC2" stroke-width="2"/>
<path fill-rule="evenodd" clip-rule="evenodd" d="M297.65 10.5442V10.5437C309.06 10.5437 315.97 7.62763 315.97 7.62763C370.29 -5.20812 391 7.62763 391 7.62763V12.9997H297.651V13.0003L197.101 12.9916C206.601 12.9916 210.961 6.23957 210.961 6.23957C210.961 6.23957 213.181 1.18858 226.691 6.23957C238.942 10.8088 243.434 8.66481 245.687 7.5894C245.92 7.47806 246.13 7.37816 246.321 7.29836C246.527 7.21248 246.775 7.08039 247.077 6.91907C249.771 5.4829 256.81 1.72963 277.451 7.62815C285.111 9.81512 291.94 10.5441 297.65 10.5442ZM87.6901 12.9998V10.5438C99.1001 10.5438 106.01 7.62774 106.01 7.62774C160.34 -5.20801 181.05 7.62774 181.05 7.62774C187.49 11.6199 192.82 12.9912 197.1 12.9998H87.6901ZM1 13.0002V6.23951C1 6.23951 3.22999 1.18853 16.74 6.23951C28.9915 10.8087 33.4831 8.66476 35.736 7.58935C35.9693 7.478 36.1786 7.37811 36.37 7.29831C36.576 7.21242 36.8237 7.08034 37.1263 6.91902C39.8197 5.48284 46.8586 1.72958 67.5 7.6281C75.15 9.81512 81.9799 10.5441 87.6899 10.5441V13.0002H1Z" fill="#FE49A9"/>
<mask id="mask0_2449_25634" style="mask-type:alpha" maskUnits="userSpaceOnUse" x="0" y="0" width="392" height="68">
<path d="M0.999512 5.31617C0.999512 5.31617 3.2295 0.265185 16.7395 5.31617C30.2595 10.3585 34.3295 7.22548 36.3695 6.37497C38.4095 5.52446 44.5395 0.143684 67.4995 6.70476C75.1495 8.89178 81.9795 9.62079 87.6895 9.62079" stroke="#FF7CC2" stroke-width="2"/>
<path d="M87.6896 9.62081C99.0996 9.62081 106.01 6.70478 106.01 6.70478C160.34 -6.13097 181.05 6.70478 181.05 6.70478C187.49 10.697 192.82 12.0682 197.1 12.0769" stroke="#FF7CC2" stroke-width="2"/>
<path d="M197.1 12.0682C206.6 12.0682 210.96 5.31617 210.96 5.31617C210.96 5.31617 213.18 0.265185 226.69 5.31617C240.21 10.3585 244.28 7.22548 246.32 6.37497C248.36 5.52446 254.49 0.143684 277.45 6.70476C285.11 8.89178 291.94 9.62079 297.65 9.62079" stroke="#FF7CC2" stroke-width="2"/>
<path d="M297.65 9.62081C309.06 9.62081 315.97 6.70478 315.97 6.70478C370.29 -6.13097 391 6.70478 391 6.70478" stroke="#FF7CC2" stroke-width="2"/>
<path fill-rule="evenodd" clip-rule="evenodd" d="M297.65 10.5442V10.5437C309.06 10.5437 315.97 7.62763 315.97 7.62763C370.29 -5.20812 391 7.62763 391 7.62763V12.9997H297.651V13H391V68H1.00049V13.0002H1V6.23951C1 6.23951 3.22999 1.18853 16.74 6.23951C28.9915 10.8087 33.4831 8.66476 35.736 7.58935C35.9693 7.478 36.1786 7.37811 36.37 7.29831C36.576 7.21242 36.8237 7.08034 37.1263 6.91902C39.8197 5.48284 46.8586 1.72958 67.5 7.6281C75.15 9.81512 81.9799 10.5441 87.6899 10.5441V13H294.734L197.101 12.9916C206.601 12.9916 210.961 6.23957 210.961 6.23957C210.961 6.23957 213.181 1.18858 226.691 6.23957C238.942 10.8088 243.434 8.66481 245.687 7.5894C245.92 7.47806 246.13 7.37816 246.321 7.29836C246.527 7.21248 246.775 7.08039 247.077 6.91907C249.771 5.4829 256.81 1.72964 277.451 7.62815C285.111 9.81512 291.94 10.5441 297.65 10.5442ZM87.6901 12.9998V10.5438C99.1001 10.5438 106.01 7.62774 106.01 7.62774C160.34 -5.20801 181.05 7.62774 181.05 7.62774C187.49 11.6199 192.82 12.9912 197.1 12.9998H87.6901Z" fill="#FE49A9"/>
</mask>
<g mask="url(#mask0_2449_25634)">
<path d="M33.9529 13.3699C25.297 14.6835 -2.00248 32.9787 -4 34.1609V-52.3387C4.82239 -59.0709 23.2662 -49.9746 26.4622 -52.3391C30.4572 -55.2947 91.3817 -50.3687 97.3742 -52.3391C103.367 -54.3095 224.716 -49.3837 229.211 -49.3837C232.806 -49.3837 343.902 -59.7281 399 -52.3391L396.503 27.6554L385.017 23.7145L380.024 34.0592L368.538 20.7589L349.561 18.7885L338.575 20.7589L326.59 27.6554C324.093 24.6998 318.899 18.0989 318.1 15.3403C317.102 11.8921 300.622 23.7145 299.124 23.7145C297.925 23.7145 289.636 33.2382 285.641 38L254.679 20.7589L217.226 18.7885H205.24L194.753 23.7145L177.774 13.3699L169.784 15.3403L160.296 20.7589L151.807 13.3699C143.65 15.8329 126.938 21.3501 125.34 23.7145C123.742 26.079 117.017 32.5814 113.854 35.537L99.3717 25.685L86.8872 20.7589L75.9009 25.685L61.9182 13.3699L52.43 18.7885L33.9529 13.3699Z" fill="white"/>
</g>
</svg>
