<svg width="392" height="69" viewBox="1 0 390 69" preserveAspectRatio="none" fill="none" xmlns="http://www.w3.org/2000/svg">
<mask id="mask0_2458_26460" style="mask-type:alpha" maskUnits="userSpaceOnUse" x="0" y="0" width="392" height="69">
<path d="M0.999512 5.39283C0.999512 5.39283 3.2295 0.341845 16.7395 5.39283C30.2595 10.4351 34.3295 7.30214 36.3695 6.45163C38.4095 5.60112 44.5395 0.220345 67.4995 6.78142C75.1495 8.96844 81.9795 9.69745 87.6895 9.69745" stroke="#FF7CC2" stroke-width="2"/>
<path d="M87.6896 9.69747C99.0996 9.69747 106.01 6.78144 106.01 6.78144C160.34 -6.05431 181.05 6.78144 181.05 6.78144C187.49 10.7736 192.82 12.1449 197.1 12.1535" stroke="#FF7CC2" stroke-width="2"/>
<path d="M197.1 12.1448C206.6 12.1448 210.96 5.39283 210.96 5.39283C210.96 5.39283 213.18 0.341845 226.69 5.39283C240.21 10.4351 244.28 7.30214 246.32 6.45163C248.36 5.60112 254.49 0.220345 277.45 6.78142C285.11 8.96844 291.94 9.69745 297.65 9.69745" stroke="#FF7CC2" stroke-width="2"/>
<path d="M297.65 9.69747C309.06 9.69747 315.97 6.78144 315.97 6.78144C370.29 -6.05431 391 6.78144 391 6.78144" stroke="#FF7CC2" stroke-width="2"/>
<path fill-rule="evenodd" clip-rule="evenodd" d="M297.65 10.6208V10.6203C309.06 10.6203 315.97 7.70429 315.97 7.70429C370.29 -5.13146 391 7.70429 391 7.70429V13.0764H297.651V13.0767H391V68.0767H1.00049V13.0769H1V6.31617C1 6.31617 3.22999 1.26519 16.74 6.31617C28.9915 10.8854 33.4831 8.74142 35.736 7.66601C35.9693 7.55466 36.1786 7.45477 36.37 7.37497C36.576 7.28908 36.8237 7.157 37.1263 6.99568C39.8197 5.5595 46.8586 1.80624 67.5 7.70476C75.15 9.89178 81.9799 10.6208 87.6899 10.6208V13.0767H294.734L197.101 13.0682C206.601 13.0682 210.961 6.31623 210.961 6.31623C210.961 6.31623 213.181 1.26524 226.691 6.31623C238.942 10.8854 243.434 8.74147 245.687 7.66606C245.92 7.55472 246.13 7.45482 246.321 7.37502C246.527 7.28914 246.775 7.15705 247.077 6.99573C249.771 5.55956 256.81 1.8063 277.451 7.70481C285.111 9.89178 291.94 10.6208 297.65 10.6208ZM87.6901 13.0765V10.6204C99.1001 10.6204 106.01 7.7044 106.01 7.7044C160.34 -5.13135 181.05 7.7044 181.05 7.7044C187.49 11.6966 192.82 13.0678 197.1 13.0765H87.6901Z" fill="#FE49A9"/>
</mask>
<g mask="url(#mask0_2458_26460)">
<path d="M33.9529 13.4466C25.297 14.7602 -2.00248 33.0554 -4 34.2376V-52.262C4.82239 -58.9943 23.2662 -49.8979 26.4622 -52.2624C30.4572 -55.218 91.3817 -50.292 97.3742 -52.2624C103.367 -54.2328 224.716 -49.307 229.211 -49.307C232.806 -49.307 343.902 -59.6515 399 -52.2624L396.503 27.732L385.017 23.7912L380.024 34.1358L368.538 20.8356L349.561 18.8652L338.575 20.8356L326.59 27.732C324.093 24.7764 318.899 18.1756 318.1 15.417C317.102 11.9688 300.622 23.7912 299.124 23.7912C297.925 23.7912 289.636 33.3148 285.641 38.0767L254.679 20.8356L217.226 18.8652H205.24L194.753 23.7912L177.774 13.4466L169.784 15.417L160.296 20.8356L151.807 13.4466C143.65 15.9096 126.938 21.4267 125.34 23.7912C123.742 26.1557 117.017 32.658 113.854 35.6137L99.3717 25.7616L86.8872 20.8356L75.9009 25.7616L61.9182 13.4466L52.43 18.8652L33.9529 13.4466Z" fill="white"/>
</g>
</svg>
