<svg width="390" height="67" viewBox="0 0 390 67" preserveAspectRatio="none" fill="none" xmlns="http://www.w3.org/2000/svg">
<rect y="12" width="390" height="1" fill="#FE49A9"/>
<mask id="mask0_2462_27631" style="mask-type:alpha" maskUnits="userSpaceOnUse" x="0" y="0" width="390" height="67">
<path fill-rule="evenodd" clip-rule="evenodd" d="M390 12.0001V6.18034C390 6.18034 369.29 -7.72506 314.97 6.18034C314.97 6.18034 308.06 9.33938 296.65 9.33938V9.3396C290.94 9.33956 284.11 8.54977 276.45 6.18056C255.809 -0.209499 248.77 3.85654 246.077 5.41239C245.774 5.58716 245.526 5.73025 245.32 5.82329C245.129 5.90974 244.92 6.01796 244.686 6.13858C242.434 7.30361 237.942 9.62624 225.69 4.67626C212.18 -0.795642 209.96 4.67626 209.96 4.67626C209.96 4.67626 205.6 11.9909 196.1 11.9909L294.794 12.0002L86.6895 12.0003V9.3396C80.9795 9.3396 74.1495 8.54984 66.4995 6.18056C45.8581 -0.209492 38.8192 3.85653 36.1258 5.41239C35.8232 5.58715 35.5755 5.73025 35.3695 5.82329C35.1781 5.90974 34.9688 6.01796 34.7355 6.13859C32.4826 7.30361 27.991 9.62624 15.7395 4.67626C2.22949 -0.795642 -0.000488281 4.67626 -0.000488281 4.67626V12.0003L0 12.0002V67.0002H390V12.0001ZM296.65 12.0001V12.0003L296.65 12.0001H296.65ZM86.6896 9.33938V12.0001H196.1C191.82 11.9907 186.49 10.5052 180.05 6.18034C180.05 6.18034 159.34 -7.72506 105.01 6.18034C105.01 6.18034 98.0996 9.33938 86.6896 9.33938Z" fill="#FE49A9"/>
</mask>
<g mask="url(#mask0_2462_27631)">
<path d="M31.9529 12.3699C23.297 13.6835 -4.00248 31.9787 -6 33.1609V-53.3387C2.82239 -60.0709 21.2662 -50.9746 24.4622 -53.3391C28.4572 -56.2947 89.3817 -51.3687 95.3742 -53.3391C101.367 -55.3095 222.716 -50.3837 227.211 -50.3837C230.806 -50.3837 341.902 -60.7281 397 -53.3391L394.503 26.6554L383.017 22.7145L378.024 33.0592L366.538 19.7589L347.561 17.7885L336.575 19.7589L324.59 26.6554C322.093 23.6998 316.899 17.0989 316.1 14.3403C315.102 10.8921 298.622 22.7145 297.124 22.7145C295.925 22.7145 287.636 32.2382 283.641 37L252.679 19.7589L215.226 17.7885H203.24L192.753 22.7145L175.774 12.3699L167.784 14.3403L158.296 19.7589L149.807 12.3699C141.65 14.8329 124.938 20.3501 123.34 22.7145C121.742 25.079 115.017 31.5814 111.854 34.537L97.3717 24.685L84.8872 19.7589L73.9009 24.685L59.9182 12.3699L50.43 17.7885L31.9529 12.3699Z" fill="white"/>
</g>
</svg>
