<svg width="392" height="68" viewBox="0 0 392 68" preserveAspectRatio="none" fill="none" xmlns="http://www.w3.org/2000/svg">
<mask id="mask0_4294_15625" style="mask-type:alpha" maskUnits="userSpaceOnUse" x="0" y="0" width="392" height="68">
<path d="M1 6.23902V12.9997H87.6899V10.5436C81.9799 10.5436 75.15 9.81464 67.5 7.62761C44.54 1.06654 38.41 6.44731 36.37 7.29782C34.33 8.14833 30.26 11.2813 16.74 6.23902C3.22999 1.18804 1 6.23902 1 6.23902Z" fill="#FE49A9"/>
<path d="M87.6901 10.5427V12.9988H197.1C192.82 12.9901 187.49 11.6188 181.05 7.62665C181.05 7.62665 160.34 -5.2091 106.01 7.62665C106.01 7.62665 99.1001 10.5427 87.6901 10.5427Z" fill="#FE49A9"/>
<path d="M197.101 12.991L297.651 12.9997V10.5436C291.941 10.5436 285.111 9.81464 277.451 7.62761C254.491 1.06654 248.361 6.44731 246.321 7.29782C244.281 8.14833 240.211 11.2813 226.691 6.23902C213.181 1.18804 210.961 6.23902 210.961 6.23902C210.961 6.23902 206.601 12.991 197.101 12.991Z" fill="#FE49A9"/>
<path d="M297.65 10.5427V12.9988H391V7.62665C391 7.62665 370.29 -5.2091 315.97 7.62665C315.97 7.62665 309.06 10.5427 297.65 10.5427Z" fill="#FE49A9"/>
<path d="M1 5.31715C1 5.31715 3.22999 0.266162 16.74 5.31715C30.26 10.3595 34.33 7.22646 36.37 6.37595C38.41 5.52544 44.54 0.144661 67.5 6.70574C75.15 8.89276 81.9799 9.62177 87.6899 9.62177" stroke="#FF7CC2" stroke-width="2"/>
<path d="M87.6901 9.62081C99.1001 9.62081 106.01 6.70478 106.01 6.70478C160.34 -6.13097 181.05 6.70478 181.05 6.70478C187.49 10.697 192.82 12.0682 197.1 12.0769" stroke="#FF7CC2" stroke-width="2"/>
<path d="M197.101 12.0692C206.601 12.0692 210.961 5.31715 210.961 5.31715C210.961 5.31715 213.181 0.266162 226.691 5.31715C240.211 10.3595 244.281 7.22646 246.321 6.37595C248.361 5.52544 254.491 0.144661 277.451 6.70574C285.111 8.89276 291.941 9.62177 297.651 9.62177" stroke="#FF7CC2" stroke-width="2"/>
<path d="M297.65 9.62081C309.06 9.62081 315.97 6.70478 315.97 6.70478C370.29 -6.13097 391 6.70478 391 6.70478" stroke="#FF7CC2" stroke-width="2"/>
<path d="M391 13H1.00049V68H391V13Z" fill="#FE49A9"/>
</mask>
<g mask="url(#mask0_4294_15625)">
<path d="M31.9529 13.3699C23.297 14.6835 -4.00248 32.9787 -6 34.1609V-52.3387C2.82239 -59.0709 21.2662 -49.9746 24.4622 -52.3391C28.4572 -55.2947 89.3817 -50.3687 95.3742 -52.3391C101.367 -54.3095 222.716 -49.3837 227.211 -49.3837C230.806 -49.3837 341.902 -59.7281 397 -52.3391L394.503 27.6554L383.017 23.7145L378.024 34.0592L366.538 20.7589L347.561 18.7885L336.575 20.7589L324.59 27.6554C322.093 24.6998 316.899 18.0989 316.1 15.3403C315.102 11.8921 298.622 23.7145 297.124 23.7145C295.925 23.7145 287.636 33.2382 283.641 38L252.679 20.7589L215.226 18.7885H203.24L192.753 23.7145L175.774 13.3699L167.784 15.3403L158.296 20.7589L149.807 13.3699C141.65 15.8329 124.938 21.3501 123.34 23.7145C121.742 26.079 115.017 32.5814 111.854 35.537L97.3717 25.685L84.8872 20.7589L73.9009 25.685L59.9182 13.3699L50.43 18.7885L31.9529 13.3699Z" fill="white"/>
</g>
</svg>
