<svg width="392" height="68" viewBox="1 0 390 68" preserveAspectRatio="none" fill="none" xmlns="http://www.w3.org/2000/svg">
<mask id="mask0_4294_15671" style="mask-type:alpha" maskUnits="userSpaceOnUse" x="0" y="0" width="392" height="68">
<path d="M391 6.23902V12.9997H304.311V10.5436C310.021 10.5436 316.85 9.81464 324.5 7.62761C347.46 1.06654 353.59 6.44731 355.63 7.29782C357.67 8.14833 361.74 11.2813 375.26 6.23902C388.77 1.18804 391 6.23902 391 6.23902Z" fill="#FF8BCA"/>
<path d="M304.31 10.5427V12.9988H194.9C199.18 12.9901 204.51 11.6188 210.95 7.62665C210.95 7.62665 231.66 -5.2091 285.99 7.62665C285.99 7.62665 292.9 10.5427 304.31 10.5427Z" fill="#FF8BCA"/>
<path d="M194.9 12.991L94.3496 12.9997V10.5436C100.06 10.5436 106.89 9.81464 114.55 7.62761C137.51 1.06654 143.64 6.44731 145.68 7.29782C147.72 8.14833 151.79 11.2813 165.31 6.23902C178.82 1.18804 181.04 6.23902 181.04 6.23902C181.04 6.23902 185.4 12.991 194.9 12.991Z" fill="#FF8BCA"/>
<path d="M94.3501 10.5427V12.9988H1V7.62665C1 7.62665 21.71 -5.2091 76.03 7.62665C76.03 7.62665 82.9401 10.5427 94.3501 10.5427Z" fill="#FF8BCA"/>
<path d="M391 5.31715C391 5.31715 388.77 0.266162 375.26 5.31715C361.74 10.3595 357.67 7.22646 355.63 6.37595C353.59 5.52544 347.46 0.144661 324.5 6.70574C316.85 8.89276 310.021 9.62177 304.311 9.62177" stroke="#FFADDA" stroke-width="2"/>
<path d="M304.31 9.62081C292.9 9.62081 285.99 6.70478 285.99 6.70478C231.66 -6.13097 210.95 6.70478 210.95 6.70478C204.51 10.697 199.18 12.0682 194.9 12.0769" stroke="#FFADDA" stroke-width="2"/>
<path d="M194.9 12.0692C185.4 12.0692 181.04 5.31715 181.04 5.31715C181.04 5.31715 178.82 0.266162 165.31 5.31715C151.79 10.3595 147.72 7.22646 145.68 6.37595C143.64 5.52544 137.51 0.144661 114.55 6.70574C106.89 8.89276 100.06 9.62177 94.3496 9.62177" stroke="#FFADDA" stroke-width="2"/>
<path d="M94.3501 9.62081C82.9401 9.62081 76.03 6.70478 76.03 6.70478C21.71 -6.13097 1 6.70478 1 6.70478" stroke="#FFADDA" stroke-width="2"/>
<path d="M391 13H1V68H391V13Z" fill="#FF8BCA"/>
</mask>
<g mask="url(#mask0_4294_15671)">
<path d="M31.9529 13.3699C23.297 14.6835 -4.00248 32.9787 -6 34.1609V-52.3387C2.82239 -59.0709 21.2662 -49.9746 24.4622 -52.3391C28.4572 -55.2947 89.3817 -50.3687 95.3742 -52.3391C101.367 -54.3095 222.716 -49.3837 227.211 -49.3837C230.806 -49.3837 341.902 -59.7281 397 -52.3391L394.503 27.6554L383.017 23.7145L378.024 34.0592L366.538 20.7589L347.561 18.7885L336.575 20.7589L324.59 27.6554C322.093 24.6998 316.899 18.0989 316.1 15.3403C315.102 11.8921 298.622 23.7145 297.124 23.7145C295.925 23.7145 287.636 33.2382 283.641 38L252.679 20.7589L215.226 18.7885H203.24L192.753 23.7145L175.774 13.3699L167.784 15.3403L158.296 20.7589L149.807 13.3699C141.65 15.8329 124.938 21.3501 123.34 23.7145C121.742 26.079 115.017 32.5814 111.854 35.537L97.3717 25.685L84.8872 20.7589L73.9009 25.685L59.9182 13.3699L50.43 18.7885L31.9529 13.3699Z" fill="white"/>
</g>
</svg>
