<svg width="392" height="69" viewBox="2 0 389 69" preserveAspectRatio="none" fill="none" xmlns="http://www.w3.org/2000/svg">
<mask id="mask0_2458_26459" style="mask-type:alpha" maskUnits="userSpaceOnUse" x="0" y="0" width="392" height="69">
<path d="M391 5.39283C391 5.39283 388.77 0.341845 375.26 5.39283C361.74 10.4351 357.67 7.30214 355.63 6.45163C353.59 5.60112 347.46 0.220345 324.5 6.78142C316.85 8.96844 310.021 9.69745 304.311 9.69745" stroke="#FFADDA" stroke-width="2"/>
<path d="M304.31 9.69747C292.9 9.69747 285.99 6.78144 285.99 6.78144C231.66 -6.05431 210.95 6.78144 210.95 6.78144C204.51 10.7736 199.18 12.1449 194.9 12.1535" stroke="#FFADDA" stroke-width="2"/>
<path d="M194.9 12.1448C185.4 12.1448 181.04 5.39283 181.04 5.39283C181.04 5.39283 178.82 0.341845 165.31 5.39283C151.79 10.4351 147.72 7.30214 145.68 6.45163C143.64 5.60112 137.51 0.220345 114.55 6.78142C106.89 8.96844 100.06 9.69745 94.3496 9.69745" stroke="#FFADDA" stroke-width="2"/>
<path d="M94.3501 9.69747C82.9401 9.69747 76.03 6.78144 76.03 6.78144C21.71 -6.05431 1 6.78144 1 6.78144" stroke="#FFADDA" stroke-width="2"/>
<path fill-rule="evenodd" clip-rule="evenodd" d="M304.31 10.6204V13.0765H194.9C195.077 13.0761 195.255 13.0735 195.435 13.0684L97.0068 13.0769L304.311 13.0769V10.6208C310.021 10.6208 316.85 9.89184 324.5 7.70481C345.142 1.8063 352.181 5.55955 354.874 6.99573C355.177 7.15705 355.424 7.28914 355.63 7.37502C355.822 7.45482 356.031 7.55472 356.264 7.66607C358.517 8.74148 363.009 10.8854 375.26 6.31623C388.771 1.26524 391 6.31623 391 6.31623V13.0769L392 13.0769V68.0769H2V13.0769H95.3496V13.0766H2V7.70451C2 7.70451 22.71 -5.13125 77.03 7.70451C77.03 7.70451 83.9401 10.6205 95.3501 10.6205V10.621C101.06 10.6209 107.89 9.89188 115.55 7.70492C136.191 1.8064 143.23 5.55967 145.923 6.99584C146.226 7.15716 146.474 7.28925 146.68 7.37513C146.871 7.45493 147.08 7.55482 147.314 7.66617C149.566 8.74158 154.058 10.8855 166.31 6.31634C179.82 1.26535 182.04 6.31634 182.04 6.31634C182.04 6.31634 186.29 12.8985 195.541 13.0651C199.709 12.9262 204.828 11.4997 210.95 7.7044C210.95 7.7044 231.66 -5.13135 285.99 7.7044C285.99 7.7044 292.9 10.6204 304.31 10.6204Z" fill="#FF8BCA"/>
</mask>
<g mask="url(#mask0_2458_26459)">
<path d="M33.9529 13.4466C25.297 14.7602 -2.00248 33.0554 -4 34.2376V-52.262C4.82239 -58.9943 23.2662 -49.8979 26.4622 -52.2624C30.4572 -55.218 91.3817 -50.292 97.3742 -52.2624C103.367 -54.2328 224.716 -49.307 229.211 -49.307C232.806 -49.307 343.902 -59.6515 399 -52.2624L396.503 27.732L385.017 23.7912L380.024 34.1358L368.538 20.8356L349.561 18.8652L338.575 20.8356L326.59 27.732C324.093 24.7764 318.899 18.1756 318.1 15.417C317.102 11.9688 300.622 23.7912 299.124 23.7912C297.925 23.7912 289.636 33.3148 285.641 38.0767L254.679 20.8356L217.226 18.8652H205.24L194.753 23.7912L177.774 13.4466L169.784 15.417L160.296 20.8356L151.807 13.4466C143.65 15.9096 126.938 21.4267 125.34 23.7912C123.742 26.1557 117.017 32.658 113.854 35.6137L99.3717 25.7616L86.8872 20.8356L75.9009 25.7616L61.9182 13.4466L52.43 18.8652L33.9529 13.4466Z" fill="white"/>
</g>
</svg>
