<svg width="390" height="67" viewBox="0 0 390 67" preserveAspectRatio="none" fill="none" xmlns="http://www.w3.org/2000/svg">
<rect y="12" width="390" height="1" fill="#FF8BCA"/>
<mask id="mask0_2462_27632" style="mask-type:alpha" maskUnits="userSpaceOnUse" x="0" y="0" width="390" height="67">
<path fill-rule="evenodd" clip-rule="evenodd" d="M0 12V6.18018C0 6.18018 20.71 -7.72522 75.03 6.18018C75.03 6.18018 81.9401 9.33921 93.3501 9.33921V9.33949C99.06 9.33945 105.89 8.54967 113.55 6.18045C134.191 -0.209607 141.23 3.85643 143.923 5.41228C144.226 5.58705 144.474 5.73014 144.68 5.82318C144.871 5.90963 145.08 6.01785 145.314 6.13847C147.566 7.3035 152.058 9.62613 164.31 4.67615C177.82 -0.79575 180.04 4.67615 180.04 4.67615C180.04 4.67615 184.4 11.9908 193.9 11.9908L95.7871 12H193.922C198.198 11.9857 203.521 10.498 209.95 6.18029C209.95 6.18029 230.66 -7.72511 284.99 6.18029C284.99 6.18029 291.9 9.33932 303.31 9.33932V12.0001L303.311 9.3396C309.021 9.3396 315.85 8.54984 323.5 6.18056C344.142 -0.209491 351.181 3.85653 353.874 5.41239C354.177 5.58715 354.424 5.73025 354.63 5.82329C354.822 5.90974 355.031 6.01796 355.264 6.13859C357.517 7.30361 362.009 9.62624 374.26 4.67626C387.771 -0.795642 390 4.67626 390 4.67626V12.0003H390V67H0V12Z" fill="#FF8BCA"/>
</mask>
<g mask="url(#mask0_2462_27632)">
<path d="M31.9529 12.3699C23.297 13.6835 -4.00248 31.9787 -6 33.1609V-53.3387C2.82239 -60.0709 21.2662 -50.9746 24.4622 -53.3391C28.4572 -56.2947 89.3817 -51.3687 95.3742 -53.3391C101.367 -55.3095 222.716 -50.3837 227.211 -50.3837C230.806 -50.3837 341.902 -60.7281 397 -53.3391L394.503 26.6554L383.017 22.7145L378.024 33.0592L366.538 19.7589L347.561 17.7885L336.575 19.7589L324.59 26.6554C322.093 23.6998 316.899 17.0989 316.1 14.3403C315.102 10.8921 298.622 22.7145 297.124 22.7145C295.925 22.7145 287.636 32.2382 283.641 37L252.679 19.7589L215.226 17.7885H203.24L192.753 22.7145L175.774 12.3699L167.784 14.3403L158.296 19.7589L149.807 12.3699C141.65 14.8329 124.938 20.3501 123.34 22.7145C121.742 25.079 115.017 31.5814 111.854 34.537L97.3717 24.685L84.8872 19.7589L73.9009 24.685L59.9182 12.3699L50.43 17.7885L31.9529 12.3699Z" fill="white"/>
</g>
</svg>
