<svg width="392" height="68" viewBox="2 0 389 68" preserveAspectRatio="none" fill="none" xmlns="http://www.w3.org/2000/svg">
<path d="M391 5.31617C391 5.31617 388.77 0.265185 375.26 5.31617C361.74 10.3585 357.67 7.22548 355.63 6.37497C353.59 5.52446 347.46 0.143684 324.5 6.70476C316.85 8.89178 310.021 9.62079 304.311 9.62079" stroke="#FFADDA" stroke-width="2"/>
<path d="M304.31 9.62081C292.9 9.62081 285.99 6.70478 285.99 6.70478C231.66 -6.13097 210.95 6.70478 210.95 6.70478C204.51 10.697 199.18 12.0682 194.9 12.0769" stroke="#FFADDA" stroke-width="2"/>
<path d="M194.9 12.0682C185.4 12.0682 181.04 5.31617 181.04 5.31617C181.04 5.31617 178.82 0.265185 165.31 5.31617C151.79 10.3585 147.72 7.22548 145.68 6.37497C143.64 5.52446 137.51 0.143684 114.55 6.70476C106.89 8.89178 100.06 9.62079 94.3496 9.62079" stroke="#FFADDA" stroke-width="2"/>
<path d="M94.3501 9.62081C82.9401 9.62081 76.03 6.70478 76.03 6.70478C21.71 -6.13097 1 6.70478 1 6.70478" stroke="#FFADDA" stroke-width="2"/>
<path fill-rule="evenodd" clip-rule="evenodd" d="M95.3501 10.5441V10.5437C83.9401 10.5437 77.03 7.62763 77.03 7.62763C22.71 -5.20812 2 7.62763 2 7.62763V12.9997H95.3496V13.0002L195.437 12.9916C195.257 12.9967 195.078 12.9994 194.9 12.9997H304.31V10.5437C292.9 10.5437 285.99 7.62763 285.99 7.62763C231.66 -5.20812 210.95 7.62763 210.95 7.62763C204.829 11.4226 199.71 12.8492 195.542 12.9883C186.29 12.8222 182.04 6.23951 182.04 6.23951C182.04 6.23951 179.82 1.18853 166.31 6.23951C154.058 10.8087 149.566 8.66476 147.314 7.58935C147.08 7.478 146.871 7.37811 146.68 7.29831C146.474 7.21242 146.226 7.08034 145.923 6.91902C143.23 5.48284 136.191 1.72958 115.55 7.6281C107.89 9.81506 101.06 10.5441 95.3501 10.5441ZM391 13.0002V6.23951C391 6.23951 388.771 1.18853 375.26 6.23951C363.009 10.8087 358.517 8.66476 356.264 7.58935C356.031 7.478 355.822 7.37811 355.63 7.29831C355.424 7.21242 355.177 7.08034 354.874 6.91901C352.181 5.48284 345.142 1.72959 324.5 7.6281C316.85 9.81512 310.021 10.5441 304.311 10.5441V13.0002H391Z" fill="#FF8BCA"/>
<mask id="mask0_2449_25633" style="mask-type:alpha" maskUnits="userSpaceOnUse" x="0" y="0" width="392" height="68">
<path d="M391 5.31617C391 5.31617 388.77 0.265185 375.26 5.31617C361.74 10.3585 357.67 7.22548 355.63 6.37497C353.59 5.52446 347.46 0.143684 324.5 6.70476C316.85 8.89178 310.021 9.62079 304.311 9.62079" stroke="#FFADDA" stroke-width="2"/>
<path d="M304.31 9.62081C292.9 9.62081 285.99 6.70478 285.99 6.70478C231.66 -6.13097 210.95 6.70478 210.95 6.70478C204.51 10.697 199.18 12.0682 194.9 12.0769" stroke="#FFADDA" stroke-width="2"/>
<path d="M194.9 12.0682C185.4 12.0682 181.04 5.31617 181.04 5.31617C181.04 5.31617 178.82 0.265185 165.31 5.31617C151.79 10.3585 147.72 7.22548 145.68 6.37497C143.64 5.52446 137.51 0.143684 114.55 6.70476C106.89 8.89178 100.06 9.62079 94.3496 9.62079" stroke="#FFADDA" stroke-width="2"/>
<path d="M94.3501 9.62081C82.9401 9.62081 76.03 6.70478 76.03 6.70478C21.71 -6.13097 1 6.70478 1 6.70478" stroke="#FFADDA" stroke-width="2"/>
<path fill-rule="evenodd" clip-rule="evenodd" d="M304.31 10.5438V12.9998H194.9C195.077 12.9995 195.255 12.9968 195.435 12.9917L97.0068 13.0002L304.311 13.0003V10.5442C310.021 10.5442 316.85 9.81518 324.5 7.62815C345.142 1.72964 352.181 5.48289 354.874 6.91907C355.177 7.08039 355.424 7.21248 355.63 7.29836C355.822 7.37816 356.031 7.47806 356.264 7.58941C358.517 8.66482 363.009 10.8088 375.26 6.23957C388.771 1.18858 391 6.23957 391 6.23957V13.0003L392 13.0002V68.0002H2V13.0002H95.3496V12.9999H2V7.62785C2 7.62785 22.71 -5.20791 77.03 7.62785C77.03 7.62785 83.9401 10.5439 95.3501 10.5439V10.5443C101.06 10.5443 107.89 9.81522 115.55 7.62826C136.191 1.72974 143.23 5.48301 145.923 6.91918C146.226 7.0805 146.474 7.21259 146.68 7.29847C146.871 7.37827 147.08 7.47816 147.314 7.58951C149.566 8.66492 154.058 10.8089 166.31 6.23968C179.82 1.18869 182.04 6.23968 182.04 6.23968C182.04 6.23968 186.29 12.8218 195.541 12.9885C199.709 12.8495 204.828 11.4231 210.95 7.62774C210.95 7.62774 231.66 -5.20801 285.99 7.62774C285.99 7.62774 292.9 10.5438 304.31 10.5438Z" fill="#FF8BCA"/>
</mask>
<g mask="url(#mask0_2449_25633)">
<path d="M33.9529 13.3699C25.297 14.6835 -2.00248 32.9787 -4 34.1609V-52.3387C4.82239 -59.0709 23.2662 -49.9746 26.4622 -52.3391C30.4572 -55.2947 91.3817 -50.3687 97.3742 -52.3391C103.367 -54.3095 224.716 -49.3837 229.211 -49.3837C232.806 -49.3837 343.902 -59.7281 399 -52.3391L396.503 27.6554L385.017 23.7145L380.024 34.0592L368.538 20.7589L349.561 18.7885L338.575 20.7589L326.59 27.6554C324.093 24.6998 318.899 18.0989 318.1 15.3403C317.102 11.8921 300.622 23.7145 299.124 23.7145C297.925 23.7145 289.636 33.2382 285.641 38L254.679 20.7589L217.226 18.7885H205.24L194.753 23.7145L177.774 13.3699L169.784 15.3403L160.296 20.7589L151.807 13.3699C143.65 15.8329 126.938 21.3501 125.34 23.7145C123.742 26.079 117.017 32.5814 113.854 35.537L99.3717 25.685L86.8872 20.7589L75.9009 25.685L61.9182 13.3699L52.43 18.7885L33.9529 13.3699Z" fill="white"/>
</g>
</svg>
