<svg width="390" height="67" viewBox="1 0 388 67" preserveAspectRatio="none" fill="none" xmlns="http://www.w3.org/2000/svg">
<mask id="mask0_4294_16289" style="mask-type:alpha" maskUnits="userSpaceOnUse" x="0" y="0" width="391" height="67">
<path fill-rule="evenodd" clip-rule="evenodd" d="M272.74 10.999H300.977C307.89 10.1542 315.857 8.71433 325.001 6.45937C375.501 -5.99999 390.001 6.45937 390.001 6.45937V11.9988H390V66.999H0V10.999H0.000183105V6.45947C0.000183105 6.45947 3.4228 9.40346 12.7399 10.999H40.9759C47.8895 10.1542 55.8559 8.71433 65.0002 6.45937C115.5 -5.99999 130 6.45937 130 6.45937C130 6.45937 133.423 9.40349 142.74 10.999H170.976C177.889 10.1542 185.856 8.71433 195 6.45937C245.5 -5.99999 260 6.45937 260 6.45937C260 6.45937 263.423 9.40349 272.74 10.999Z" fill="#85DCFF"/>
</mask>
<g mask="url(#mask0_4294_16289)">
<path d="M29.9529 12.4461C21.297 13.7597 -6.00248 32.0549 -8 33.2371V-53.2625C0.822387 -59.9948 19.2662 -50.8984 22.4622 -53.2629C26.4572 -56.2185 87.3817 -51.2925 93.3742 -53.2629C99.3668 -55.2333 220.716 -50.3075 225.211 -50.3075C228.806 -50.3075 339.902 -60.6519 395 -53.2629L392.503 26.7315L381.017 22.7907L376.024 33.1354L364.538 19.8351L345.561 17.8647L334.575 19.8351L322.59 26.7315C320.093 23.7759 314.899 17.1751 314.1 14.4165C313.102 10.9683 296.622 22.7907 295.124 22.7907C293.925 22.7907 285.636 32.3144 281.641 37.0762L250.679 19.8351L213.226 17.8647H201.24L190.753 22.7907L173.774 12.4461L165.784 14.4165L156.296 19.8351L147.807 12.4461C139.65 14.9091 122.938 20.4262 121.34 22.7907C119.742 25.1552 113.017 31.6576 109.854 34.6132L95.3717 24.7611L82.8872 19.8351L71.9009 24.7611L57.9182 12.4461L48.43 17.8647L29.9529 12.4461Z" fill="white"/>
</g>
</svg>
