<svg width="390" height="67" viewBox="0 0 390 67" preserveAspectRatio="none" fill="none" xmlns="http://www.w3.org/2000/svg">
<rect y="12" width="390" height="1" fill="#85DCFF"/>
<path d="M0 6.99902V13.0001H25.7C6.44 13.0001 0 6.99902 0 6.99902Z" fill="#85DCFF"/>
<path d="M25.6992 13H155.699C136.439 13 129.999 6.99895 129.999 6.99895C129.999 6.99895 115.499 -6.49869 64.9992 6.99895C48.1692 11.495 35.3292 13 25.6992 13Z" fill="#85DCFF"/>
<path d="M155.699 13H285.699C266.439 13 259.999 6.99895 259.999 6.99895C259.999 6.99895 245.499 -6.49869 194.999 6.99895C178.169 11.495 165.329 13 155.699 13Z" fill="#85DCFF"/>
<path d="M285.699 13H389.999V6.99895C389.999 6.99895 375.499 -6.49869 324.999 6.99895C308.169 11.495 295.329 13 285.699 13Z" fill="#85DCFF"/>
<mask id="mask0_2462_27620" style="mask-type:alpha" maskUnits="userSpaceOnUse" x="0" y="0" width="390" height="67">
<path fill-rule="evenodd" clip-rule="evenodd" d="M129.999 5.99884C129.999 5.99884 136.439 11.9999 155.699 11.9999C165.329 11.9999 178.169 10.4949 194.999 5.99884C245.499 -7.4988 259.999 5.99884 259.999 5.99884C259.999 5.99884 266.439 11.9999 285.699 11.9999H285.7C295.33 11.9999 308.17 10.4949 325 5.99884C375.5 -7.4988 390 5.99884 390 5.99884V11.9999V66.9999H0V11.9999L-0.000793457 12V5.99891C-0.000793457 5.99891 6.41373 11.9762 25.5849 11.9999H25.6992C35.3292 11.9999 48.1692 10.4949 64.9992 5.99884C115.499 -7.4988 129.999 5.99884 129.999 5.99884Z" fill="#85DCFF"/>
</mask>
<g mask="url(#mask0_2462_27620)">
<path d="M31.9529 12.3699C23.297 13.6835 -4.00248 31.9787 -6 33.1609V-53.3387C2.82239 -60.0709 21.2662 -50.9746 24.4622 -53.3391C28.4572 -56.2947 89.3817 -51.3687 95.3742 -53.3391C101.367 -55.3095 222.716 -50.3837 227.211 -50.3837C230.806 -50.3837 341.902 -60.7281 397 -53.3391L394.503 26.6554L383.017 22.7145L378.024 33.0592L366.538 19.7589L347.561 17.7885L336.575 19.7589L324.59 26.6554C322.093 23.6998 316.899 17.0989 316.1 14.3403C315.102 10.8921 298.622 22.7145 297.124 22.7145C295.925 22.7145 287.636 32.2382 283.641 37L252.679 19.7589L215.226 17.7885H203.24L192.753 22.7145L175.774 12.3699L167.784 14.3403L158.296 19.7589L149.807 12.3699C141.65 14.8329 124.938 20.3501 123.34 22.7145C121.742 25.079 115.017 31.5814 111.854 34.537L97.3717 24.685L84.8872 19.7589L73.9009 24.685L59.9182 12.3699L50.43 17.7885L31.9529 12.3699Z" fill="white"/>
</g>
</svg>
