<svg width="392" height="68" viewBox="1 0 390 68" preserveAspectRatio="none" fill="none" xmlns="http://www.w3.org/2000/svg">
<path fill-rule="evenodd" clip-rule="evenodd" d="M156.7 12.9998H26.7C36.33 12.9998 49.17 11.6106 66 7.46035C116.5 -4.99902 131 7.46035 131 7.46035C131 7.46035 137.44 12.9998 156.7 12.9998ZM156.7 12.9998C166.33 12.9998 179.17 11.6106 196 7.46035C246.5 -4.99902 261 7.46035 261 7.46035C261 7.46035 267.44 12.9998 286.7 12.9998H156.7ZM1 12.9999V7.46045C1 7.46045 7.44001 12.9999 26.7 12.9999H1ZM391.001 12.9998H286.701C296.331 12.9998 309.171 11.6106 326.001 7.46035C376.501 -4.99902 391.001 7.46035 391.001 7.46035V12.9998Z" fill="#85DCFF"/>
<path d="M0.999207 6.5376C0.999207 6.5376 7.43922 12.077 26.6992 12.077" stroke="#9DE3FF" stroke-width="2"/>
<path d="M26.6992 12.0769C36.3292 12.0769 49.1692 10.6877 65.9992 6.53749C116.499 -5.92187 130.999 6.53749 130.999 6.53749C130.999 6.53749 137.439 12.0769 156.699 12.0769" stroke="#9DE3FF" stroke-width="2"/>
<path d="M156.699 12.0769C166.329 12.0769 179.169 10.6877 195.999 6.53749C246.499 -5.92187 260.999 6.53749 260.999 6.53749C260.999 6.53749 267.439 12.0769 286.699 12.0769" stroke="#9DE3FF" stroke-width="2"/>
<path d="M286.7 12.0769C296.33 12.0769 309.17 10.6877 326 6.53749C376.5 -5.92187 391 6.53749 391 6.53749" stroke="#9DE3FF" stroke-width="2"/>
<mask id="mask0_2449_25622" style="mask-type:alpha" maskUnits="userSpaceOnUse" x="0" y="0" width="392" height="68">
<path fill-rule="evenodd" clip-rule="evenodd" d="M273.74 11.9999H301.977C308.89 11.1551 316.857 9.71525 326.001 7.46029C376.501 -4.99907 391.001 7.46029 391.001 7.46029V12.9997H391V67.9999H1V11.9999H1.00018V7.46039C1.00018 7.46039 4.4228 10.4044 13.7399 11.9999H41.9759C48.8895 11.1551 56.8559 9.71525 66.0002 7.46029C116.5 -4.99907 131 7.46029 131 7.46029C131 7.46029 134.423 10.4044 143.74 11.9999H171.976C178.889 11.1551 186.856 9.71525 196 7.46029C246.5 -4.99907 261 7.46029 261 7.46029C261 7.46029 264.423 10.4044 273.74 11.9999Z" fill="#85DCFF"/>
<path d="M0.999207 6.5376C0.999207 6.5376 7.43922 12.077 26.6992 12.077" stroke="#9DE3FF" stroke-width="2"/>
<path d="M26.6992 12.0769C36.3292 12.0769 49.1692 10.6877 65.9992 6.53749C116.499 -5.92187 130.999 6.53749 130.999 6.53749C130.999 6.53749 137.439 12.0769 156.699 12.0769" stroke="#9DE3FF" stroke-width="2"/>
<path d="M156.699 12.0769C166.329 12.0769 179.169 10.6877 195.999 6.53749C246.499 -5.92187 260.999 6.53749 260.999 6.53749C260.999 6.53749 267.439 12.0769 286.699 12.0769" stroke="#9DE3FF" stroke-width="2"/>
<path d="M286.7 12.0769C296.33 12.0769 309.17 10.6877 326 6.53749C376.5 -5.92187 391 6.53749 391 6.53749" stroke="#9DE3FF" stroke-width="2"/>
</mask>
<g mask="url(#mask0_2449_25622)">
<path d="M31.9529 10.3699C23.297 11.6835 -4.00248 29.9787 -6 31.1609V-55.3387C2.82239 -62.0709 21.2662 -52.9746 24.4622 -55.3391C28.4572 -58.2947 89.3817 -53.3687 95.3742 -55.3391C101.367 -57.3095 222.716 -52.3837 227.211 -52.3837C230.806 -52.3837 341.902 -62.7281 397 -55.3391L394.503 24.6554L383.017 20.7145L378.024 31.0592L366.538 17.7589L347.561 15.7885L336.575 17.7589L324.59 24.6554C322.093 21.6998 316.899 15.0989 316.1 12.3403C315.102 8.89211 298.622 20.7145 297.124 20.7145C295.925 20.7145 287.636 30.2382 283.641 35L252.679 17.7589L215.226 15.7885H203.24L192.753 20.7145L175.774 10.3699L167.784 12.3403L158.296 17.7589L149.807 10.3699C141.65 12.8329 124.938 18.3501 123.34 20.7145C121.742 23.079 115.017 29.5814 111.854 32.537L97.3717 22.685L84.8872 17.7589L73.9009 22.685L59.9182 10.3699L50.43 15.7885L31.9529 10.3699Z" fill="white"/>
</g>
</svg>
