<svg width="392" height="69" viewBox="1 0 390 69" preserveAspectRatio="none" fill="none" xmlns="http://www.w3.org/2000/svg">
<path fill-rule="evenodd" clip-rule="evenodd" d="M261.554 6.36479C261.554 6.36499 261.554 6.36518 261.486 6.45312L260.939 7.15161C261.549 6.37204 261.553 6.36467 261.552 6.36388L261.551 6.36305L261.551 6.36256L261.551 6.36234L261.55 6.36216L261.545 6.35801L261.53 6.34668C261.518 6.33781 261.503 6.32631 261.484 6.31232C261.445 6.28435 261.392 6.24641 261.323 6.19955C261.185 6.10584 260.984 5.97654 260.715 5.82003C260.177 5.50695 259.368 5.08542 258.246 4.62227C256.002 3.69578 252.509 2.6045 247.434 1.87983C237.286 0.430889 220.811 0.447217 195.321 6.17705C178.667 9.91884 165.939 11.1971 156.378 11.2299C147.061 11.1974 140.864 9.95646 137.014 8.73822C135.064 8.12092 133.714 7.50891 132.865 7.06146C132.441 6.83767 132.141 6.65483 131.953 6.53273C131.859 6.47167 131.794 6.42576 131.754 6.39748L131.733 6.38203L131.715 6.36857L131.713 6.3671C131.713 6.36729 131.713 6.36749 131.644 6.45497L131.102 7.14307C131.707 6.376 131.712 6.36701 131.712 6.36619L131.71 6.36534L131.71 6.36488L131.71 6.3646L131.709 6.36446L131.704 6.36028L131.689 6.34892L131.669 6.33339L131.643 6.31449C131.605 6.28646 131.552 6.24847 131.483 6.20157C131.346 6.10775 131.146 5.97834 130.879 5.82172C130.345 5.50843 129.542 5.08667 128.428 4.62331C126.2 3.6964 122.733 2.60482 117.695 1.87999C107.623 0.43072 91.2723 0.447307 65.9759 6.17741C49.2312 9.96849 36.4865 11.2305 26.959 11.2305L26.959 13.1534L26.959 13.2305C28.3018 13.2305 29.7058 13.2059 31.173 13.1534H152.727C153.774 13.1945 154.865 13.2201 156.001 13.2279V13.2305C156.126 13.2305 156.252 13.2303 156.378 13.2299C156.503 13.2303 156.628 13.2305 156.753 13.2305V13.228C157.876 13.2205 159.04 13.1962 160.247 13.1534H282.737C283.949 13.2006 285.218 13.2273 286.547 13.2302V13.2305C286.59 13.2305 286.633 13.2305 286.675 13.2305C286.715 13.2305 286.755 13.2305 286.795 13.2305V13.2302C288.059 13.2274 289.376 13.2027 290.749 13.1534H390.382V8.07557C390.382 8.07557 390.232 7.95623 389.907 7.75415C389.997 7.63976 390.144 7.45411 390.382 7.15271C391.003 6.36848 391.002 6.36778 391.001 6.36703L390.999 6.36533L390.994 6.36115L390.979 6.34977C390.967 6.34087 390.952 6.32934 390.933 6.31531C390.895 6.28727 390.842 6.24926 390.773 6.20233C390.636 6.10848 390.437 5.97903 390.171 5.82237C389.638 5.50899 388.837 5.08715 387.726 4.62371C385.504 3.69664 382.047 2.60495 377.023 1.88006C366.979 0.43066 350.675 0.447345 325.45 6.17756C308.829 9.95152 296.161 11.2191 286.675 11.2304C277.141 11.2201 270.815 9.96741 266.899 8.73755C264.933 8.12002 263.573 7.50774 262.716 7.05998C262.288 6.83605 261.986 6.65306 261.797 6.53082C261.702 6.46968 261.635 6.42371 261.596 6.39536C261.583 6.3865 261.573 6.37936 261.566 6.37401L261.556 6.36636L261.554 6.36479ZM0.421915 8.43165C0.421302 8.43122 0.420717 8.43081 0.999381 7.61524C1.57805 6.79968 1.57751 6.79929 1.577 6.79893L1.5761 6.79829L1.57474 6.79734L1.57918 6.80035C1.58599 6.80497 1.59931 6.81387 1.61934 6.82679C1.65939 6.85264 1.72628 6.89454 1.8216 6.95027C2.0122 7.06171 2.31667 7.2285 2.74769 7.4326C3.60961 7.84072 4.97881 8.39856 6.95707 8.96106C10.9137 10.0861 17.31 11.2306 26.9583 11.2306V13.1537V13.2306C25.4646 13.2306 24.0458 13.2036 22.6988 13.1537H0.999381V8.78367C0.930662 8.74535 0.868312 8.70967 0.812174 8.67685C0.691625 8.60637 0.599765 8.54912 0.53503 8.50735C0.502664 8.48647 0.477085 8.46946 0.458095 8.45661L0.434534 8.44048L0.426416 8.43482L0.423265 8.43261L0.421915 8.43165Z" fill="#9DE3FF"/>
<mask id="mask0_2458_26370" style="mask-type:alpha" maskUnits="userSpaceOnUse" x="0" y="0" width="392" height="69">
<path fill-rule="evenodd" clip-rule="evenodd" d="M273.74 12.0767H301.977C308.89 11.2318 316.857 9.79196 326.001 7.53701C376.501 -4.92236 391.001 7.53701 391.001 7.53701V13.0764H391V68.0767H1V12.0767H1.00018V7.53711C1.00018 7.53711 4.4228 10.4811 13.7399 12.0767H41.9759C48.8895 11.2318 56.8559 9.79196 66.0002 7.53701C116.5 -4.92236 131 7.53701 131 7.53701C131 7.53701 134.423 10.4811 143.74 12.0767H171.976C178.889 11.2318 186.856 9.79196 196 7.53701C246.5 -4.92236 261 7.53701 261 7.53701C261 7.53701 264.423 10.4811 273.74 12.0767Z" fill="#85DCFF"/>
<path d="M0.999207 6.61426C0.999207 6.61426 7.43922 12.1537 26.6992 12.1537" stroke="#9DE3FF" stroke-width="2"/>
<path d="M26.6992 12.1536C36.3292 12.1536 49.1692 10.7644 65.9992 6.61415C116.499 -5.84521 130.999 6.61415 130.999 6.61415C130.999 6.61415 137.439 12.1536 156.699 12.1536" stroke="#9DE3FF" stroke-width="2"/>
<path d="M156.699 12.1536C166.329 12.1536 179.169 10.7644 195.999 6.61415C246.499 -5.84521 260.999 6.61415 260.999 6.61415C260.999 6.61415 267.439 12.1536 286.699 12.1536" stroke="#9DE3FF" stroke-width="2"/>
<path d="M286.7 12.1536C296.33 12.1536 309.17 10.7644 326 6.61415C376.5 -5.84521 391 6.61415 391 6.61415" stroke="#9DE3FF" stroke-width="2"/>
</mask>
<g mask="url(#mask0_2458_26370)">
<path d="M31.9529 10.4466C23.297 11.7602 -4.00248 30.0554 -6 31.2376V-55.262C2.82239 -61.9943 21.2662 -52.8979 24.4622 -55.2624C28.4572 -58.218 89.3817 -53.292 95.3742 -55.2624C101.367 -57.2328 222.716 -52.307 227.211 -52.307C230.806 -52.307 341.902 -62.6515 397 -55.2624L394.503 24.732L383.017 20.7912L378.024 31.1358L366.538 17.8356L347.561 15.8652L336.575 17.8356L324.59 24.732C322.093 21.7764 316.899 15.1756 316.1 12.417C315.102 8.96877 298.622 20.7912 297.124 20.7912C295.925 20.7912 287.636 30.3148 283.641 35.0767L252.679 17.8356L215.226 15.8652H203.24L192.753 20.7912L175.774 10.4466L167.784 12.417L158.296 17.8356L149.807 10.4466C141.65 12.9096 124.938 18.4267 123.34 20.7912C121.742 23.1557 115.017 29.658 111.854 32.6137L97.3717 22.7616L84.8872 17.8356L73.9009 22.7616L59.9182 10.4466L50.43 15.8652L31.9529 10.4466Z" fill="white"/>
</g>
</svg>
