<svg width="392" height="68" viewBox="1 0 390 68" preserveAspectRatio="none" fill="none" xmlns="http://www.w3.org/2000/svg">
<path fill-rule="evenodd" clip-rule="evenodd" d="M164.13 12.9998H34.13C43.76 12.9998 54.74 11.6106 66 7.46035C99.79 -4.99902 131 7.46035 131 7.46035C131 7.46035 144.87 12.9998 164.13 12.9998ZM294.129 12.9998C274.87 12.9998 261 7.46035 261 7.46035C261 7.46035 229.79 -4.99902 196 7.46035C184.74 11.6106 173.76 12.9998 164.13 12.9998H294.129ZM294.129 12.9998H390.999V7.46035C390.999 7.46035 359.789 -4.99902 325.999 7.46035C314.739 11.6106 303.759 12.9998 294.129 12.9998ZM1 12.9999V7.46045C1 7.46045 14.87 12.9999 34.13 12.9999H1Z" fill="#A0FF56"/>
<path d="M1.00085 6.5376C1.00085 6.5376 14.8709 12.077 34.1309 12.077" stroke="#CAFFA0" stroke-width="2"/>
<path d="M34.1309 12.0769C43.7609 12.0769 54.7409 10.6877 66.0009 6.5375C99.7909 -5.92187 131.001 6.5375 131.001 6.5375C131.001 6.5375 144.871 12.0769 164.131 12.0769" stroke="#CAFFA0" stroke-width="2"/>
<path d="M164.131 12.0769C173.761 12.0769 184.741 10.6877 196.001 6.5375C229.791 -5.92187 261.001 6.5375 261.001 6.5375C261.001 6.5375 274.871 12.0769 294.131 12.0769" stroke="#CAFFA0" stroke-width="2"/>
<path d="M294.13 12.0769C303.76 12.0769 314.74 10.6877 326 6.5375C359.79 -5.92187 391 6.5375 391 6.5375" stroke="#CAFFA0" stroke-width="2"/>
<mask id="mask0_2449_25620" style="mask-type:alpha" maskUnits="userSpaceOnUse" x="0" y="0" width="392" height="68">
<path fill-rule="evenodd" clip-rule="evenodd" d="M149.829 12C138.372 10.4045 131 7.46035 131 7.46035C131 7.46035 99.79 -4.99902 66 7.46035C59.8821 9.71531 53.8468 11.1552 48.0658 12H19.8286C8.37137 10.4044 1 7.46045 1 7.46045V12.9999H1.00012V68H391V12H390.999V7.46035C390.999 7.46035 359.789 -4.99902 325.999 7.46035C319.881 9.71531 313.846 11.1552 308.065 12H279.829C268.372 10.4045 261 7.46035 261 7.46035C261 7.46035 229.79 -4.99902 196 7.46035C189.882 9.71531 183.847 11.1552 178.066 12H149.829Z" fill="#A0FF56"/>
<path d="M1.00085 6.5376C1.00085 6.5376 14.8709 12.077 34.1309 12.077" stroke="#CAFFA0" stroke-width="2"/>
<path d="M34.1309 12.0769C43.7609 12.0769 54.7409 10.6877 66.0009 6.5375C99.7909 -5.92187 131.001 6.5375 131.001 6.5375C131.001 6.5375 144.871 12.0769 164.131 12.0769" stroke="#CAFFA0" stroke-width="2"/>
<path d="M164.131 12.0769C173.761 12.0769 184.741 10.6877 196.001 6.5375C229.791 -5.92187 261.001 6.5375 261.001 6.5375C261.001 6.5375 274.871 12.0769 294.131 12.0769" stroke="#CAFFA0" stroke-width="2"/>
<path d="M294.13 12.0769C303.76 12.0769 314.74 10.6877 326 6.5375C359.79 -5.92187 391 6.5375 391 6.5375" stroke="#CAFFA0" stroke-width="2"/>
</mask>
<g mask="url(#mask0_2449_25620)">
<path d="M32.9529 10.3699C24.297 11.6835 -3.00248 29.9787 -5 31.1609V-55.3387C3.82239 -62.0709 22.2662 -52.9746 25.4622 -55.3391C29.4572 -58.2947 90.3817 -53.3687 96.3742 -55.3391C102.367 -57.3095 223.716 -52.3837 228.211 -52.3837C231.806 -52.3837 342.902 -62.7281 398 -55.3391L395.503 24.6554L384.017 20.7145L379.024 31.0592L367.538 17.7589L348.561 15.7885L337.575 17.7589L325.59 24.6554C323.093 21.6998 317.899 15.0989 317.1 12.3403C316.102 8.89211 299.622 20.7145 298.124 20.7145C296.925 20.7145 288.636 30.2382 284.641 35L253.679 17.7589L216.226 15.7885H204.24L193.753 20.7145L176.774 10.3699L168.784 12.3403L159.296 17.7589L150.807 10.3699C142.65 12.8329 125.938 18.3501 124.34 20.7145C122.742 23.079 116.017 29.5814 112.854 32.537L98.3717 22.685L85.8872 17.7589L74.9009 22.685L60.9182 10.3699L51.43 15.7885L32.9529 10.3699Z" fill="white"/>
</g>
</svg>
