<svg width="390" height="67" viewBox="0 0 390 67" preserveAspectRatio="none" fill="none" xmlns="http://www.w3.org/2000/svg">
<rect y="12" width="390" height="1" fill="#A0FF56"/>
<path d="M0 6.98975V12.9908H33.13C13.87 12.9908 0 6.98975 0 6.98975Z" fill="#A0FF56"/>
<path d="M33.1309 13H163.131C143.871 13 130.001 6.99896 130.001 6.99896C130.001 6.99896 98.7909 -6.4987 65.0009 6.99896C53.7409 11.495 42.7609 13 33.1309 13Z" fill="#A0FF56"/>
<path d="M163.131 13H293.131C273.871 13 260.001 6.99896 260.001 6.99896C260.001 6.99896 228.791 -6.4987 195.001 6.99896C183.741 11.495 172.761 13 163.131 13Z" fill="#A0FF56"/>
<path d="M293.131 13H390.001V6.99896C390.001 6.99896 358.791 -6.4987 325.001 6.99896C313.741 11.495 302.761 13 293.131 13Z" fill="#A0FF56"/>
<mask id="mask0_2462_27618" style="mask-type:alpha" maskUnits="userSpaceOnUse" x="0" y="0" width="390" height="67">
<path fill-rule="evenodd" clip-rule="evenodd" d="M390 5.99885V11.9999V66.9999H0V11.9999L0.000854492 12V5.99891C0.000854492 5.99891 13.8169 11.9766 33.0184 11.9999H33.1309C42.7609 11.9999 53.7408 10.4949 65.0009 5.99885C98.7909 -7.4988 130.001 5.99885 130.001 5.99885C130.001 5.99885 143.871 11.9999 163.131 11.9999C172.761 11.9999 183.741 10.4949 195.001 5.99885C228.791 -7.4988 260.001 5.99885 260.001 5.99885C260.001 5.99885 273.87 11.9997 293.13 11.9999C302.76 11.9999 313.74 10.4949 325 5.99885C358.79 -7.4988 390 5.99885 390 5.99885Z" fill="#A0FF56"/>
</mask>
<g mask="url(#mask0_2462_27618)">
<path d="M31.9529 12.3699C23.297 13.6835 -4.00248 31.9787 -6 33.1609V-53.3387C2.82239 -60.0709 21.2662 -50.9746 24.4622 -53.3391C28.4572 -56.2947 89.3817 -51.3687 95.3742 -53.3391C101.367 -55.3095 222.716 -50.3837 227.211 -50.3837C230.806 -50.3837 341.902 -60.7281 397 -53.3391L394.503 26.6554L383.017 22.7145L378.024 33.0592L366.538 19.7589L347.561 17.7885L336.575 19.7589L324.59 26.6554C322.093 23.6998 316.899 17.0989 316.1 14.3403C315.102 10.8921 298.622 22.7145 297.124 22.7145C295.925 22.7145 287.636 32.2382 283.641 37L252.679 19.7589L215.226 17.7885H203.24L192.753 22.7145L175.774 12.3699L167.784 14.3403L158.296 19.7589L149.807 12.3699C141.65 14.8329 124.938 20.3501 123.34 22.7145C121.742 25.079 115.017 31.5814 111.854 34.537L97.3717 24.685L84.8872 19.7589L73.9009 24.685L59.9182 12.3699L50.43 17.7885L31.9529 12.3699Z" fill="white"/>
</g>
</svg>
