<svg width="392" height="69" viewBox="1 0 390 69" preserveAspectRatio="none" fill="none" xmlns="http://www.w3.org/2000/svg">
<path d="M0.999878 6.53711C0.999878 6.53711 14.8699 12.0765 34.1299 12.0765" stroke="white" stroke-width="2"/>
<path d="M34.1299 12.0769C43.7599 12.0769 54.7399 10.6877 65.9999 6.5375C99.7899 -5.92187 131 6.5375 131 6.5375C131 6.5375 144.87 12.0769 164.13 12.0769" stroke="white" stroke-width="2"/>
<path d="M164.13 12.0769C173.76 12.0769 184.74 10.6877 196 6.5375C229.79 -5.92187 261 6.5375 261 6.5375C261 6.5375 274.87 12.0769 294.13 12.0769" stroke="white" stroke-width="2"/>
<path d="M294.131 12.0769C303.761 12.0769 314.741 10.6877 326.001 6.5375C359.791 -5.92187 391.001 6.5375 391.001 6.5375" stroke="white" stroke-width="2"/>
<mask id="mask0_4296_15511" style="mask-type:alpha" maskUnits="userSpaceOnUse" x="0" y="1" width="392" height="68">
<path fill-rule="evenodd" clip-rule="evenodd" d="M149.83 12.999C138.373 11.4035 131.001 8.45937 131.001 8.45937C131.001 8.45937 99.791 -4 66.001 8.45937C59.883 10.7143 53.8478 12.1542 48.0668 12.999H19.8296C8.37235 11.4035 1.00098 8.45947 1.00098 8.45947V13.9989H1.0011V68.999H391.001V12.999H391V8.45937C391 8.45937 359.79 -4 326 8.45937C319.882 10.7143 313.847 12.1542 308.066 12.999H279.83C268.373 11.4035 261.001 8.45937 261.001 8.45937C261.001 8.45937 229.791 -4 196.001 8.45937C189.883 10.7143 183.848 12.1542 178.067 12.999H149.83Z" fill="#CAFFA0"/>
<path d="M0.999878 7.53711C0.999878 7.53711 14.8699 13.0765 34.1299 13.0765" stroke="#CAFFA0" stroke-width="2"/>
<path d="M34.1299 13.0769C43.7599 13.0769 54.7399 11.6877 65.9999 7.5375C99.7899 -4.92187 131 7.5375 131 7.5375C131 7.5375 144.87 13.0769 164.13 13.0769" stroke="#CAFFA0" stroke-width="2"/>
<path d="M164.13 13.0769C173.76 13.0769 184.74 11.6877 196 7.5375C229.79 -4.92187 261 7.5375 261 7.5375C261 7.5375 274.87 13.0769 294.13 13.0769" stroke="#CAFFA0" stroke-width="2"/>
<path d="M294.131 13.0769C303.761 13.0769 314.741 11.6877 326.001 7.5375C359.791 -4.92187 391.001 7.5375 391.001 7.5375" stroke="#CAFFA0" stroke-width="2"/>
</mask>
<g mask="url(#mask0_4296_15511)">
<path d="M31.9529 14.3699C23.297 15.6835 -4.00248 33.9787 -6 35.1609V-51.3387C2.82239 -58.0709 21.2662 -48.9746 24.4622 -51.3391C28.4572 -54.2947 89.3817 -49.3687 95.3742 -51.3391C101.367 -53.3095 222.716 -48.3837 227.211 -48.3837C230.806 -48.3837 341.902 -58.7281 397 -51.3391L394.503 28.6554L383.017 24.7145L378.024 35.0592L366.538 21.7589L347.561 19.7885L336.575 21.7589L324.59 28.6554C322.093 25.6998 316.899 19.0989 316.1 16.3403C315.102 12.8921 298.622 24.7145 297.124 24.7145C295.925 24.7145 287.636 34.2382 283.641 39L252.679 21.7589L215.226 19.7885H203.24L192.753 24.7145L175.774 14.3699L167.784 16.3403L158.296 21.7589L149.807 14.3699C141.65 16.8329 124.938 22.3501 123.34 24.7145C121.742 27.079 115.017 33.5814 111.854 36.537L97.3717 26.685L84.8872 21.7589L73.9009 26.685L59.9182 14.3699L50.43 19.7885L31.9529 14.3699Z" fill="white"/>
</g>
</svg>
