<svg width="392" height="69" viewBox="1 0 390 69" preserveAspectRatio="none" fill="none" xmlns="http://www.w3.org/2000/svg">
<path fill-rule="evenodd" clip-rule="evenodd" d="M1.33915 7.53848C1.67884 6.67049 1.67869 6.67044 1.67859 6.67041L1.67865 6.67043L1.67973 6.67079L1.68563 6.67275L1.71238 6.68155C1.73683 6.68955 1.77446 6.70178 1.825 6.71795C1.9261 6.75028 2.07888 6.79839 2.28128 6.86002C2.68611 6.98328 3.28936 7.1606 4.0746 7.37401C5.64521 7.80087 7.94304 8.37188 10.8367 8.94346C16.6256 10.0869 24.7894 11.2308 34.2794 11.2308V13.077L1.33915 13.077V8.51546C1.27446 8.49518 1.21882 8.47753 1.17239 8.46268C1.11726 8.44504 1.07511 8.43135 1.0462 8.42189L1.01281 8.4109L1.00361 8.40785L1.0009 8.40695L1.00002 8.40665C0.99971 8.40655 0.999455 8.40646 1.33915 7.53848Z" fill="#A0FF56"/>
<path fill-rule="evenodd" clip-rule="evenodd" d="M34.2793 13.0767H164.044V11.2305C154.524 11.2305 146.335 9.97311 140.527 8.71593C137.624 8.08753 135.319 7.45978 133.744 6.99057C132.956 6.75599 132.351 6.56111 131.945 6.42569C131.742 6.35799 131.589 6.30515 131.488 6.26967C131.437 6.25193 131.4 6.23852 131.375 6.22976L131.349 6.22015L131.343 6.21802L131.342 6.21773L131.342 6.21768L131.342 6.21765C131.342 6.21765 131.342 6.21767 131.317 6.27497L130.974 7.07579C131.342 6.21768 131.341 6.21752 131.341 6.21731L131.339 6.21669L131.334 6.21466L131.314 6.20755L131.241 6.18146C131.177 6.15892 131.084 6.12627 130.962 6.08456C130.718 6.00113 130.359 5.88143 129.892 5.73385C128.958 5.43871 127.592 5.03195 125.848 4.58077C122.362 3.67857 117.366 2.59775 111.308 1.87732C99.1979 0.437061 82.8062 0.432925 65.7484 6.20899C54.6384 9.9695 43.7977 11.2305 34.2793 11.2305V13.0767Z" fill="#A0FF56"/>
<path fill-rule="evenodd" clip-rule="evenodd" d="M293.698 13.0767C293.735 13.0767 293.772 13.0767 293.81 13.0767H164.047V11.2305C173.565 11.2305 184.406 9.9695 195.516 6.20899C212.574 0.432925 228.965 0.437061 241.076 1.87732C247.134 2.59775 252.13 3.67857 255.616 4.58077C257.359 5.03195 258.726 5.43871 259.66 5.73385C260.127 5.88143 260.486 6.00113 260.73 6.08456C260.852 6.12627 260.945 6.15892 261.008 6.18146L261.082 6.20755L261.101 6.21466L261.107 6.21669L261.108 6.21731C261.109 6.21752 261.109 6.21768 260.742 7.07579L261.085 6.27497C261.109 6.21767 261.109 6.21765 261.109 6.21765L261.109 6.21768L261.11 6.21773L261.11 6.21802L261.116 6.22015L261.143 6.22976C261.167 6.23852 261.205 6.25193 261.256 6.26967C261.357 6.30515 261.51 6.35799 261.713 6.42569C262.119 6.56111 262.724 6.75599 263.511 6.99057C265.087 7.45978 267.392 8.08753 270.295 8.71593C276.102 9.97311 284.292 11.2305 293.812 11.2305V13.0767C293.774 13.0767 293.736 13.0767 293.698 13.0767Z" fill="#A0FF56"/>
<path fill-rule="evenodd" clip-rule="evenodd" d="M293.809 13.0767V11.2305C303.34 11.2305 314.196 9.96947 325.321 6.20886C342.401 0.432944 358.814 0.437077 370.941 1.8773C377.007 2.59771 382.009 3.67851 385.5 4.58068C387.245 5.03185 388.614 5.4386 389.549 5.73373C390.017 5.8813 390.376 6.001 390.62 6.08442C390.742 6.12613 390.836 6.15878 390.899 6.18131L390.973 6.2074L390.992 6.2145L390.998 6.21653L391 6.21716C391 6.21737 391.001 6.21753 390.633 7.07579C390.413 7.58944 390.325 7.79571 390.29 7.87855C390.516 7.95616 390.633 7.99888 390.633 7.99888V13.0767H293.809Z" fill="#A0FF56"/>
<mask id="mask0_2458_26229" style="mask-type:alpha" maskUnits="userSpaceOnUse" x="0" y="0" width="392" height="69">
<path fill-rule="evenodd" clip-rule="evenodd" d="M149.829 12.0767C138.372 10.4811 131 7.53701 131 7.53701C131 7.53701 99.79 -4.92236 66 7.53701C59.8821 9.79197 53.8468 11.2318 48.0658 12.0767H19.8286C8.37137 10.4811 1 7.53711 1 7.53711V13.0765H1.00012V68.0767H391V12.0767H390.999V7.53701C390.999 7.53701 359.789 -4.92236 325.999 7.53701C319.881 9.79197 313.846 11.2318 308.065 12.0767H279.829C268.372 10.4811 261 7.53701 261 7.53701C261 7.53701 229.79 -4.92236 196 7.53701C189.882 9.79197 183.847 11.2318 178.066 12.0767H149.829Z" fill="#A0FF56"/>
<path d="M1.00085 6.61426C1.00085 6.61426 14.8709 12.1537 34.1309 12.1537" stroke="#CAFFA0" stroke-width="2"/>
<path d="M34.1309 12.1536C43.7609 12.1536 54.7409 10.7644 66.0009 6.61416C99.7909 -5.84521 131.001 6.61416 131.001 6.61416C131.001 6.61416 144.871 12.1536 164.131 12.1536" stroke="#CAFFA0" stroke-width="2"/>
<path d="M164.131 12.1536C173.761 12.1536 184.741 10.7644 196.001 6.61416C229.791 -5.84521 261.001 6.61416 261.001 6.61416C261.001 6.61416 274.871 12.1536 294.131 12.1536" stroke="#CAFFA0" stroke-width="2"/>
<path d="M294.13 12.1536C303.76 12.1536 314.74 10.7644 326 6.61416C359.79 -5.84521 391 6.61416 391 6.61416" stroke="#CAFFA0" stroke-width="2"/>
</mask>
<g mask="url(#mask0_2458_26229)">
<path d="M32.9529 10.4466C24.297 11.7602 -3.00248 30.0554 -5 31.2376V-55.262C3.82239 -61.9943 22.2662 -52.8979 25.4622 -55.2624C29.4572 -58.218 90.3817 -53.292 96.3742 -55.2624C102.367 -57.2328 223.716 -52.307 228.211 -52.307C231.806 -52.307 342.902 -62.6515 398 -55.2624L395.503 24.732L384.017 20.7912L379.024 31.1358L367.538 17.8356L348.561 15.8652L337.575 17.8356L325.59 24.732C323.093 21.7764 317.899 15.1756 317.1 12.417C316.102 8.96877 299.622 20.7912 298.124 20.7912C296.925 20.7912 288.636 30.3148 284.641 35.0767L253.679 17.8356L216.226 15.8652H204.24L193.753 20.7912L176.774 10.4466L168.784 12.417L159.296 17.8356L150.807 10.4466C142.65 12.9096 125.938 18.4267 124.34 20.7912C122.742 23.1557 116.017 29.658 112.854 32.6137L98.3717 22.7616L85.8872 17.8356L74.9009 22.7616L60.9182 10.4466L51.43 15.8652L32.9529 10.4466Z" fill="white"/>
</g>
</svg>
