<svg width="391" height="67" viewBox="0 0 391 67" preserveAspectRatio="none" fill="none" xmlns="http://www.w3.org/2000/svg">
<rect x="0.320312" y="12" width="390" height="1" fill="#92666C"/>
<mask id="mask0_2462_27627" style="mask-type:alpha" maskUnits="userSpaceOnUse" x="0" y="0" width="391" height="67">
<path fill-rule="evenodd" clip-rule="evenodd" d="M390.32 5.99906V12.0001V67.0001H0.320251V12.0001L0.31955 12.0002V5.99913C0.31955 5.99913 23.8125 11.9767 38.2648 12.0001H38.3495C45.5746 12.0001 50.5095 10.4951 49.0695 5.99906C44.7495 -7.49859 97.8195 5.99906 97.8195 5.99906C97.8195 5.99906 121.405 12.0001 135.85 12.0001H135.85C143.075 12.0001 148.01 10.4951 146.57 5.99906C142.25 -7.49859 195.32 5.99906 195.32 5.99906V5.99932C195.473 6.03824 218.86 11.9768 233.265 12.0001H233.35C240.575 12.0001 245.51 10.4951 244.07 5.99906C239.75 -7.49859 292.82 5.99906 292.82 5.99906C292.82 5.99906 316.405 12.0001 330.85 12.0001H330.85C338.075 12.0001 343.01 10.4951 341.57 5.99906C337.25 -7.49859 390.32 5.99906 390.32 5.99906Z" fill="#92666C"/>
</mask>
<g mask="url(#mask0_2462_27627)">
<path d="M32.2732 12.3699C23.6173 13.6835 -3.68217 31.9787 -5.67969 33.1609V-53.3387C3.1427 -60.0709 21.5865 -50.9746 24.7825 -53.3391C28.7776 -56.2947 89.702 -51.3687 95.6945 -53.3391C101.687 -55.3095 223.037 -50.3837 227.531 -50.3837C231.126 -50.3837 342.222 -60.7281 397.32 -53.3391L394.823 26.6554L383.338 22.7145L378.344 33.0592L366.858 19.7589L347.882 17.7885L336.895 19.7589L324.91 26.6554C322.413 23.6998 317.22 17.0989 316.421 14.3403C315.422 10.8921 298.942 22.7145 297.444 22.7145C296.246 22.7145 287.956 32.2382 283.961 37L252.999 19.7589L215.546 17.7885H203.561L193.074 22.7145L176.095 12.3699L168.105 14.3403L158.616 19.7589L150.127 12.3699C141.97 14.8329 125.258 20.3501 123.66 22.7145C122.062 25.079 115.337 31.5814 112.174 34.537L97.6921 24.685L85.2076 19.7589L74.2212 24.685L60.2385 12.3699L50.7503 17.7885L32.2732 12.3699Z" fill="white"/>
</g>
</svg>
