<svg width="392" height="69" viewBox="1 0 390 69" preserveAspectRatio="none" fill="none" xmlns="http://www.w3.org/2000/svg">
<mask id="mask0_2458_26454" style="mask-type:alpha" maskUnits="userSpaceOnUse" x="0" y="0" width="392" height="69">
<path d="M196.001 6.61426C196.001 6.61426 219.586 12.1537 234.031 12.1537" stroke="#B78E93" stroke-width="2"/>
<path d="M234.029 12.1536C241.254 12.1536 246.189 10.7644 244.749 6.61416C240.429 -5.84521 293.499 6.61416 293.499 6.61416C293.499 6.61416 317.084 12.1536 331.529 12.1536" stroke="#B78E93" stroke-width="2"/>
<path d="M331.53 12.1536C338.755 12.1536 343.69 10.7644 342.25 6.61416C337.93 -5.84521 391 6.61416 391 6.61416" stroke="#B78E93" stroke-width="2"/>
<path d="M1.0012 6.61426C1.0012 6.61426 24.5862 12.1537 39.0312 12.1537" stroke="#B78E93" stroke-width="2"/>
<path d="M39.0292 12.1536C46.2542 12.1536 51.1892 10.7644 49.7492 6.61416C45.4292 -5.84521 98.4992 6.61416 98.4992 6.61416C98.4992 6.61416 122.084 12.1536 136.529 12.1536" stroke="#B78E93" stroke-width="2"/>
<path d="M136.53 12.1536C143.755 12.1536 148.69 10.7644 147.25 6.61416C142.93 -5.84521 196 6.61416 196 6.61416" stroke="#B78E93" stroke-width="2"/>
<path fill-rule="evenodd" clip-rule="evenodd" d="M136.53 13.0763H39.0302C46.2552 13.0763 51.1902 11.6871 49.7502 7.5369C45.4302 -4.92247 98.5002 7.5369 98.5002 7.5369C98.5002 7.5369 122.085 13.0763 136.53 13.0763ZM1.00022 7.537V13.0764H39.0303C24.5853 13.0764 1.00022 7.537 1.00022 7.537ZM0.999939 13.0766H391V68.0766H0.999939V13.0766ZM136.53 13.0764H196V7.53695C196 7.53695 142.93 -4.92241 147.25 7.53695C148.69 11.6872 143.755 13.0764 136.53 13.0764ZM196 13.0765V7.53711C196 7.53711 219.585 13.0765 234.03 13.0765H196ZM234.03 13.0765H331.53C317.085 13.0765 293.5 7.53706 293.5 7.53706C293.5 7.53706 240.43 -4.92231 244.75 7.53706C246.19 11.6873 241.255 13.0765 234.03 13.0765ZM391 13.0765H331.53C338.755 13.0765 343.69 11.6873 342.25 7.53712C337.93 -4.92225 391 7.53712 391 7.53712V13.0765Z" fill="#92666C"/>
</mask>
<g mask="url(#mask0_2458_26454)">
<path d="M32.9529 13.4466C24.297 14.7602 -3.00248 33.0554 -5 34.2376V-52.262C3.82239 -58.9943 22.2662 -49.8979 25.4622 -52.2624C29.4572 -55.218 90.3817 -50.292 96.3742 -52.2624C102.367 -54.2328 223.716 -49.307 228.211 -49.307C231.806 -49.307 342.902 -59.6515 398 -52.2624L395.503 27.732L384.017 23.7912L379.024 34.1358L367.538 20.8356L348.561 18.8652L337.575 20.8356L325.59 27.732C323.093 24.7764 317.899 18.1756 317.1 15.417C316.102 11.9688 299.622 23.7912 298.124 23.7912C296.925 23.7912 288.636 33.3148 284.641 38.0767L253.679 20.8356L216.226 18.8652H204.24L193.753 23.7912L176.774 13.4466L168.784 15.417L159.296 20.8356L150.807 13.4466C142.65 15.9096 125.938 21.4267 124.34 23.7912C122.742 26.1557 116.017 32.658 112.854 35.6137L98.3717 25.7616L85.8872 20.8356L74.9009 25.7616L60.9182 13.4466L51.43 18.8652L32.9529 13.4466Z" fill="white"/>
</g>
</svg>
