<svg width="392" height="68" viewBox="1 0 390 68" preserveAspectRatio="none" fill="none" xmlns="http://www.w3.org/2000/svg">
<path d="M196.001 6.5376C196.001 6.5376 219.586 12.077 234.031 12.077" stroke="#B78E93" stroke-width="2"/>
<path d="M234.029 12.0769C241.254 12.0769 246.189 10.6877 244.749 6.5375C240.429 -5.92187 293.499 6.5375 293.499 6.5375C293.499 6.5375 317.084 12.0769 331.529 12.0769" stroke="#B78E93" stroke-width="2"/>
<path d="M331.53 12.0769C338.755 12.0769 343.69 10.6877 342.25 6.5375C337.93 -5.92187 391 6.5375 391 6.5375" stroke="#B78E93" stroke-width="2"/>
<path d="M1.0012 6.5376C1.0012 6.5376 24.5862 12.077 39.0312 12.077" stroke="#B78E93" stroke-width="2"/>
<path d="M39.0292 12.0769C46.2542 12.0769 51.1892 10.6877 49.7492 6.5375C45.4292 -5.92187 98.4992 6.5375 98.4992 6.5375C98.4992 6.5375 122.084 12.0769 136.529 12.0769" stroke="#B78E93" stroke-width="2"/>
<path d="M136.53 12.0769C143.755 12.0769 148.69 10.6877 147.25 6.5375C142.93 -5.92187 196 6.5375 196 6.5375" stroke="#B78E93" stroke-width="2"/>
<path fill-rule="evenodd" clip-rule="evenodd" d="M234.03 12.9999H331.53H331.53M196 7.4605C196 7.4605 219.585 12.9999 234.03 12.9999L196 12.9999V7.4605ZM1 12.9999V7.46045C1 7.46045 24.585 12.9999 39.0301 12.9999H1Z" fill="#92666C"/>
<mask id="mask0_2449_25630" style="mask-type:alpha" maskUnits="userSpaceOnUse" x="0" y="0" width="392" height="68">
<path d="M196.001 6.5376C196.001 6.5376 219.586 12.077 234.031 12.077" stroke="#B78E93" stroke-width="2"/>
<path d="M234.029 12.0769C241.254 12.0769 246.189 10.6877 244.749 6.5375C240.429 -5.92187 293.499 6.5375 293.499 6.5375C293.499 6.5375 317.084 12.0769 331.529 12.0769" stroke="#B78E93" stroke-width="2"/>
<path d="M331.53 12.0769C338.755 12.0769 343.69 10.6877 342.25 6.5375C337.93 -5.92187 391 6.5375 391 6.5375" stroke="#B78E93" stroke-width="2"/>
<path d="M1.0012 6.5376C1.0012 6.5376 24.5862 12.077 39.0312 12.077" stroke="#B78E93" stroke-width="2"/>
<path d="M39.0292 12.0769C46.2542 12.0769 51.1892 10.6877 49.7492 6.5375C45.4292 -5.92187 98.4992 6.5375 98.4992 6.5375C98.4992 6.5375 122.084 12.0769 136.529 12.0769" stroke="#B78E93" stroke-width="2"/>
<path d="M136.53 12.0769C143.755 12.0769 148.69 10.6877 147.25 6.5375C142.93 -5.92187 196 6.5375 196 6.5375" stroke="#B78E93" stroke-width="2"/>
<path fill-rule="evenodd" clip-rule="evenodd" d="M136.53 12.9997H39.0302C46.2552 12.9997 51.1902 11.6105 49.7502 7.46024C45.4302 -4.99913 98.5002 7.46024 98.5002 7.46024C98.5002 7.46024 122.085 12.9997 136.53 12.9997ZM1.00022 7.46034V12.9998H39.0303C24.5853 12.9998 1.00022 7.46034 1.00022 7.46034ZM0.999939 12.9999H391V67.9999H0.999939V12.9999ZM136.53 12.9997H196V7.46029C196 7.46029 142.93 -4.99907 147.25 7.46029C148.69 11.6105 143.755 12.9997 136.53 12.9997ZM196 12.9999V7.46045C196 7.46045 219.585 12.9999 234.03 12.9999H196ZM234.03 12.9998H331.53C317.085 12.9998 293.5 7.4604 293.5 7.4604C293.5 7.4604 240.43 -4.99897 244.75 7.4604C246.19 11.6106 241.255 12.9998 234.03 12.9998ZM391 12.9999H331.53C338.755 12.9999 343.69 11.6107 342.25 7.46046C337.93 -4.99891 391 7.46046 391 7.46046V12.9999Z" fill="#92666C"/>
</mask>
<g mask="url(#mask0_2449_25630)">
<path d="M32.9529 13.3699C24.297 14.6835 -3.00248 32.9787 -5 34.1609V-52.3387C3.82239 -59.0709 22.2662 -49.9746 25.4622 -52.3391C29.4572 -55.2947 90.3817 -50.3687 96.3742 -52.3391C102.367 -54.3095 223.716 -49.3837 228.211 -49.3837C231.806 -49.3837 342.902 -59.7281 398 -52.3391L395.503 27.6554L384.017 23.7145L379.024 34.0592L367.538 20.7589L348.561 18.7885L337.575 20.7589L325.59 27.6554C323.093 24.6998 317.899 18.0989 317.1 15.3403C316.102 11.8921 299.622 23.7145 298.124 23.7145C296.925 23.7145 288.636 33.2382 284.641 38L253.679 20.7589L216.226 18.7885H204.24L193.753 23.7145L176.774 13.3699L168.784 15.3403L159.296 20.7589L150.807 13.3699C142.65 15.8329 125.938 21.3501 124.34 23.7145C122.742 26.079 116.017 32.5814 112.854 35.537L98.3717 25.685L85.8872 20.7589L74.9009 25.685L60.9182 13.3699L51.43 18.7885L32.9529 13.3699Z" fill="white"/>
</g>
</svg>
