<svg width="392" height="68" viewBox="0 0 392 68" preserveAspectRatio="none" fill="none" xmlns="http://www.w3.org/2000/svg">
<mask id="mask0_4294_15820" style="mask-type:alpha" maskUnits="userSpaceOnUse" x="0" y="0" width="392" height="68">
<path d="M196 7.45898V12.9984H234.03C219.585 12.9984 196 7.45898 196 7.45898Z" fill="#92666C"/>
<path d="M234.03 12.9988H331.53C317.085 12.9988 293.5 7.45937 293.5 7.45937C293.5 7.45937 240.43 -5 244.75 7.45937C246.19 11.6096 241.255 12.9988 234.03 12.9988Z" fill="#92666C"/>
<path d="M331.53 12.9988H391V7.45937C391 7.45937 337.93 -5 342.25 7.45937C343.69 11.6096 338.755 12.9988 331.53 12.9988Z" fill="#92666C"/>
<path d="M1.00022 7.45898V12.9984H39.0303C24.5853 12.9984 1.00022 7.45898 1.00022 7.45898Z" fill="#92666C"/>
<path d="M39.0302 12.9988H136.53C122.085 12.9988 98.5002 7.45937 98.5002 7.45937C98.5002 7.45937 45.4302 -5 49.7502 7.45937C51.1902 11.6096 46.2552 12.9988 39.0302 12.9988Z" fill="#92666C"/>
<path d="M136.53 12.9988H196V7.45937C196 7.45937 142.93 -5 147.25 7.45937C148.69 11.6096 143.755 12.9988 136.53 12.9988Z" fill="#92666C"/>
<path d="M196 6.53711C196 6.53711 219.585 12.0765 234.03 12.0765" stroke="#B78E93" stroke-width="2"/>
<path d="M234.03 12.0769C241.255 12.0769 246.19 10.6877 244.75 6.5375C240.43 -5.92187 293.5 6.5375 293.5 6.5375C293.5 6.5375 317.085 12.0769 331.53 12.0769" stroke="#B78E93" stroke-width="2"/>
<path d="M331.53 12.0769C338.755 12.0769 343.69 10.6877 342.25 6.5375C337.93 -5.92187 391 6.5375 391 6.5375" stroke="#B78E93" stroke-width="2"/>
<path d="M1.00022 6.53711C1.00022 6.53711 24.5853 12.0765 39.0303 12.0765" stroke="#B78E93" stroke-width="2"/>
<path d="M39.0302 12.0769C46.2552 12.0769 51.1902 10.6877 49.7502 6.5375C45.4302 -5.92187 98.5002 6.5375 98.5002 6.5375C98.5002 6.5375 122.085 12.0769 136.53 12.0769" stroke="#B78E93" stroke-width="2"/>
<path d="M136.53 12.0769C143.755 12.0769 148.69 10.6877 147.25 6.5375C142.93 -5.92187 196 6.5375 196 6.5375" stroke="#B78E93" stroke-width="2"/>
<path d="M0.999939 13H391V68H0.999939V13Z" fill="#92666C"/>
</mask>
<g mask="url(#mask0_4294_15820)">
<path d="M31.9529 13.3699C23.297 14.6835 -4.00248 32.9787 -6 34.1609V-52.3387C2.82239 -59.0709 21.2662 -49.9746 24.4622 -52.3391C28.4572 -55.2947 89.3817 -50.3687 95.3742 -52.3391C101.367 -54.3095 222.716 -49.3837 227.211 -49.3837C230.806 -49.3837 341.902 -59.7281 397 -52.3391L394.503 27.6554L383.017 23.7145L378.024 34.0592L366.538 20.7589L347.561 18.7885L336.575 20.7589L324.59 27.6554C322.093 24.6998 316.899 18.0989 316.1 15.3403C315.102 11.8921 298.622 23.7145 297.124 23.7145C295.925 23.7145 287.636 33.2382 283.641 38L252.679 20.7589L215.226 18.7885H203.24L192.753 23.7145L175.774 13.3699L167.784 15.3403L158.296 20.7589L149.807 13.3699C141.65 15.8329 124.938 21.3501 123.34 23.7145C121.742 26.079 115.017 32.5814 111.854 35.537L97.3717 25.685L84.8872 20.7589L73.9009 25.685L59.9182 13.3699L50.43 18.7885L31.9529 13.3699Z" fill="white"/>
</g>
</svg>
