<svg width="392" height="69" viewBox="1 0 390 69" preserveAspectRatio="none" fill="none" xmlns="http://www.w3.org/2000/svg">
<mask id="mask0_2458_26452" style="mask-type:alpha" maskUnits="userSpaceOnUse" x="0" y="0" width="392" height="69">
<path d="M1.00024 6.61415C1.00024 6.61415 19.6803 -5.84521 59.5103 6.61415C72.7903 10.7644 81.5403 12.1536 87.3203 12.1536" stroke="#D095FF" stroke-width="2"/>
<path d="M87.3191 12.1536C98.8691 12.1536 98.499 6.61415 98.499 6.61415H98.509C98.509 6.61415 97.669 -5.84521 137.499 6.61415C150.779 10.7644 161.699 12.1536 170.369 12.1536" stroke="#D095FF" stroke-width="2"/>
<path d="M170.37 12.1536C187.7 12.1536 196 6.61415 196 6.61415C196 6.61415 214.68 -5.84521 254.51 6.61415C267.79 10.7644 276.54 12.1536 282.32 12.1536" stroke="#D095FF" stroke-width="2"/>
<path d="M282.319 12.1536C293.869 12.1536 293.499 6.61415 293.499 6.61415H293.509C293.509 6.61415 292.669 -5.84521 332.499 6.61415C345.779 10.7644 356.699 12.1536 365.369 12.1536" stroke="#D095FF" stroke-width="2"/>
<path d="M365.37 12.1537C382.7 12.1537 391 6.61426 391 6.61426" stroke="#D095FF" stroke-width="2"/>
<path fill-rule="evenodd" clip-rule="evenodd" d="M1.00024 13.0762V7.53674C1.00024 7.53674 19.6803 -4.92263 59.5103 7.53674C72.7903 11.687 81.5403 13.0762 87.3203 13.0762H1.00024ZM1 13.0764H365.452C382.726 13.059 391 7.537 391 7.537L391 13.0764V68.0764H1V13.0764ZM170.37 13.0762H282.32C276.54 13.0762 267.79 11.687 254.51 7.53679C214.68 -4.92257 196 7.53679 196 7.53679C196 7.53679 187.7 13.0762 170.37 13.0762ZM365.369 13.0763H282.319C293.869 13.0763 293.499 7.53684 293.499 7.53684H293.509C293.509 7.53684 292.669 -4.92252 332.499 7.53684C345.779 11.6871 356.699 13.0763 365.369 13.0763ZM170.369 13.0764H87.3193C98.8693 13.0764 98.4993 7.53695 98.4993 7.53695H98.5093C98.5093 7.53695 97.6693 -4.92241 137.499 7.53695C150.779 11.6872 161.699 13.0764 170.369 13.0764Z" fill="#B85FFF"/>
</mask>
<g mask="url(#mask0_2458_26452)">
<path d="M32.9529 13.4466C24.297 14.7602 -3.00248 33.0554 -5 34.2376V-52.262C3.82239 -58.9943 22.2662 -49.8979 25.4622 -52.2624C29.4572 -55.218 90.3817 -50.292 96.3742 -52.2624C102.367 -54.2328 223.716 -49.307 228.211 -49.307C231.806 -49.307 342.902 -59.6515 398 -52.2624L395.503 27.732L384.017 23.7912L379.024 34.1358L367.538 20.8356L348.561 18.8652L337.575 20.8356L325.59 27.732C323.093 24.7764 317.899 18.1756 317.1 15.417C316.102 11.9688 299.622 23.7912 298.124 23.7912C296.925 23.7912 288.636 33.3148 284.641 38.0767L253.679 20.8356L216.226 18.8652H204.24L193.753 23.7912L176.774 13.4466L168.784 15.417L159.296 20.8356L150.807 13.4466C142.65 15.9096 125.938 21.4267 124.34 23.7912C122.742 26.1557 116.017 32.658 112.854 35.6137L98.3717 25.7616L85.8872 20.8356L74.9009 25.7616L60.9182 13.4466L51.43 18.8652L32.9529 13.4466Z" fill="white"/>
</g>
</svg>
