<svg width="392" height="68" viewBox="1 0 390 68" preserveAspectRatio="none" fill="none" xmlns="http://www.w3.org/2000/svg">
<path d="M1.00024 6.53749C1.00024 6.53749 19.6803 -5.92187 59.5103 6.53749C72.7903 10.6877 81.5403 12.0769 87.3203 12.0769" stroke="#D095FF" stroke-width="2"/>
<path d="M87.3191 12.0769C98.8691 12.0769 98.499 6.53749 98.499 6.53749H98.509C98.509 6.53749 97.669 -5.92187 137.499 6.53749C150.779 10.6877 161.699 12.0769 170.369 12.0769" stroke="#D095FF" stroke-width="2"/>
<path d="M170.37 12.0769C187.7 12.0769 196 6.53749 196 6.53749C196 6.53749 214.68 -5.92187 254.51 6.53749C267.79 10.6877 276.54 12.0769 282.32 12.0769" stroke="#D095FF" stroke-width="2"/>
<path d="M282.319 12.0769C293.869 12.0769 293.499 6.53749 293.499 6.53749H293.509C293.509 6.53749 292.669 -5.92187 332.499 6.53749C345.779 10.6877 356.699 12.0769 365.369 12.0769" stroke="#D095FF" stroke-width="2"/>
<path d="M365.37 12.077C382.7 12.077 391 6.5376 391 6.5376" stroke="#D095FF" stroke-width="2"/>
<path fill-rule="evenodd" clip-rule="evenodd" d="M1 7.45986V12.9993H87.3201C81.5401 12.9993 72.79 11.6101 59.51 7.45986C19.68 -4.99951 1 7.45986 1 7.45986ZM170.37 12.9993H282.32C276.54 12.9993 267.79 11.6101 254.51 7.45991C214.68 -4.99945 196 7.45991 196 7.45991C196 7.45991 187.7 12.9993 170.37 12.9993ZM365.369 12.9994H282.319C293.869 12.9994 293.499 7.45997 293.499 7.45997H293.509C293.509 7.45997 292.669 -4.9994 332.499 7.45997C345.779 11.6102 356.699 12.9994 365.369 12.9994ZM365.37 12.9996H391V7.46012C391 7.46012 382.7 12.9996 365.37 12.9996ZM170.369 12.9995H87.3191C98.8691 12.9995 98.499 7.46008 98.499 7.46008H98.509C98.509 7.46008 97.669 -4.99929 137.499 7.46008C150.779 11.6103 161.699 12.9995 170.369 12.9995Z" fill="#B85FFF"/>
<mask id="mask0_2449_25632" style="mask-type:alpha" maskUnits="userSpaceOnUse" x="0" y="0" width="392" height="68">
<path d="M1.00024 6.53749C1.00024 6.53749 19.6803 -5.92187 59.5103 6.53749C72.7903 10.6877 81.5403 12.0769 87.3203 12.0769" stroke="#D095FF" stroke-width="2"/>
<path d="M87.3191 12.0769C98.8691 12.0769 98.499 6.53749 98.499 6.53749H98.509C98.509 6.53749 97.669 -5.92187 137.499 6.53749C150.779 10.6877 161.699 12.0769 170.369 12.0769" stroke="#D095FF" stroke-width="2"/>
<path d="M170.37 12.0769C187.7 12.0769 196 6.53749 196 6.53749C196 6.53749 214.68 -5.92187 254.51 6.53749C267.79 10.6877 276.54 12.0769 282.32 12.0769" stroke="#D095FF" stroke-width="2"/>
<path d="M282.319 12.0769C293.869 12.0769 293.499 6.53749 293.499 6.53749H293.509C293.509 6.53749 292.669 -5.92187 332.499 6.53749C345.779 10.6877 356.699 12.0769 365.369 12.0769" stroke="#D095FF" stroke-width="2"/>
<path d="M365.37 12.077C382.7 12.077 391 6.5376 391 6.5376" stroke="#D095FF" stroke-width="2"/>
<path fill-rule="evenodd" clip-rule="evenodd" d="M1.00024 12.9995V7.46007C1.00024 7.46007 19.6803 -4.99929 59.5103 7.46007C72.7903 11.6103 81.5403 12.9995 87.3203 12.9995H1.00024ZM1 12.9997H365.452C382.726 12.9824 391 7.46034 391 7.46034L391 12.9997V67.9997H1V12.9997ZM170.37 12.9996H282.32C276.54 12.9996 267.79 11.6104 254.51 7.46013C214.68 -4.99923 196 7.46013 196 7.46013C196 7.46013 187.7 12.9996 170.37 12.9996ZM365.369 12.9996H282.319C293.869 12.9996 293.499 7.46018 293.499 7.46018H293.509C293.509 7.46018 292.669 -4.99918 332.499 7.46018C345.779 11.6104 356.699 12.9996 365.369 12.9996ZM170.369 12.9997H87.3193C98.8693 12.9997 98.4993 7.46029 98.4993 7.46029H98.5093C98.5093 7.46029 97.6693 -4.99907 137.499 7.46029C150.779 11.6105 161.699 12.9997 170.369 12.9997Z" fill="#B85FFF"/>
</mask>
<g mask="url(#mask0_2449_25632)">
<path d="M32.9529 13.3699C24.297 14.6835 -3.00248 32.9787 -5 34.1609V-52.3387C3.82239 -59.0709 22.2662 -49.9746 25.4622 -52.3391C29.4572 -55.2947 90.3817 -50.3687 96.3742 -52.3391C102.367 -54.3095 223.716 -49.3837 228.211 -49.3837C231.806 -49.3837 342.902 -59.7281 398 -52.3391L395.503 27.6554L384.017 23.7145L379.024 34.0592L367.538 20.7589L348.561 18.7885L337.575 20.7589L325.59 27.6554C323.093 24.6998 317.899 18.0989 317.1 15.3403C316.102 11.8921 299.622 23.7145 298.124 23.7145C296.925 23.7145 288.636 33.2382 284.641 38L253.679 20.7589L216.226 18.7885H204.24L193.753 23.7145L176.774 13.3699L168.784 15.3403L159.296 20.7589L150.807 13.3699C142.65 15.8329 125.938 21.3501 124.34 23.7145C122.742 26.079 116.017 32.5814 112.854 35.537L98.3717 25.685L85.8872 20.7589L74.9009 25.685L60.9182 13.3699L51.43 18.7885L32.9529 13.3699Z" fill="white"/>
</g>
</svg>
