<svg width="392" height="68" viewBox="1 0 390 68" preserveAspectRatio="none" fill="none" xmlns="http://www.w3.org/2000/svg">
<mask id="mask0_4294_15718" style="mask-type:alpha" maskUnits="userSpaceOnUse" x="0" y="0" width="392" height="68">
<path d="M1.00024 7.45937V12.9988H87.3203C81.5403 12.9988 72.7903 11.6096 59.5103 7.45937C19.6803 -4.99999 1.00024 7.45937 1.00024 7.45937Z" fill="#B85FFF"/>
<path d="M87.3191 12.9988H170.369C161.699 12.9988 150.779 11.6096 137.499 7.45937C97.669 -4.99999 98.509 7.45937 98.509 7.45937H98.499C98.499 7.45937 98.8691 12.9988 87.3191 12.9988Z" fill="#B85FFF"/>
<path d="M170.37 12.9988H282.32C276.54 12.9988 267.79 11.6096 254.51 7.45937C214.68 -4.99999 196 7.45937 196 7.45937C196 7.45937 187.7 12.9988 170.37 12.9988Z" fill="#B85FFF"/>
<path d="M282.319 12.9988H365.369C356.699 12.9988 345.779 11.6096 332.499 7.45937C292.669 -4.99999 293.509 7.45937 293.509 7.45937H293.499C293.499 7.45937 293.869 12.9988 282.319 12.9988Z" fill="#B85FFF"/>
<path d="M365.37 13.0004H391V7.46094C391 7.46094 382.7 13.0004 365.37 13.0004Z" fill="#B85FFF"/>
<path d="M1.00024 6.53749C1.00024 6.53749 19.6803 -5.92187 59.5103 6.53749C72.7903 10.6877 81.5403 12.0769 87.3203 12.0769" stroke="#D095FF" stroke-width="2"/>
<path d="M87.3191 12.0769C98.8691 12.0769 98.499 6.53749 98.499 6.53749H98.509C98.509 6.53749 97.669 -5.92187 137.499 6.53749C150.779 10.6877 161.699 12.0769 170.369 12.0769" stroke="#D095FF" stroke-width="2"/>
<path d="M170.37 12.0769C187.7 12.0769 196 6.53749 196 6.53749C196 6.53749 214.68 -5.92187 254.51 6.53749C267.79 10.6877 276.54 12.0769 282.32 12.0769" stroke="#D095FF" stroke-width="2"/>
<path d="M282.319 12.0769C293.869 12.0769 293.499 6.53749 293.499 6.53749H293.509C293.509 6.53749 292.669 -5.92187 332.499 6.53749C345.779 10.6877 356.699 12.0769 365.369 12.0769" stroke="#D095FF" stroke-width="2"/>
<path d="M365.37 12.0765C382.7 12.0765 391 6.53711 391 6.53711" stroke="#D095FF" stroke-width="2"/>
<path d="M391 13H1V68H391V13Z" fill="#B85FFF"/>
</mask>
<g mask="url(#mask0_4294_15718)">
<path d="M31.9529 13.3699C23.297 14.6835 -4.00248 32.9787 -6 34.1609V-52.3387C2.82239 -59.0709 21.2662 -49.9746 24.4622 -52.3391C28.4572 -55.2947 89.3817 -50.3687 95.3742 -52.3391C101.367 -54.3095 222.716 -49.3837 227.211 -49.3837C230.806 -49.3837 341.902 -59.7281 397 -52.3391L394.503 27.6554L383.017 23.7145L378.024 34.0592L366.538 20.7589L347.561 18.7885L336.575 20.7589L324.59 27.6554C322.093 24.6998 316.899 18.0989 316.1 15.3403C315.102 11.8921 298.622 23.7145 297.124 23.7145C295.925 23.7145 287.636 33.2382 283.641 38L252.679 20.7589L215.226 18.7885H203.24L192.753 23.7145L175.774 13.3699L167.784 15.3403L158.296 20.7589L149.807 13.3699C141.65 15.8329 124.938 21.3501 123.34 23.7145C121.742 26.079 115.017 32.5814 111.854 35.537L97.3717 25.685L84.8872 20.7589L73.9009 25.685L59.9182 13.3699L50.43 18.7885L31.9529 13.3699Z" fill="white"/>
</g>
</svg>
