<svg width="391" height="67" viewBox="0 0 391 67" preserveAspectRatio="none" fill="none" xmlns="http://www.w3.org/2000/svg">
<rect x="0.320312" y="12" width="390" height="1" fill="#B85FFF"/>
<mask id="mask0_2462_27629" style="mask-type:alpha" maskUnits="userSpaceOnUse" x="0" y="0" width="391" height="67">
<path fill-rule="evenodd" clip-rule="evenodd" d="M364.689 11.9999C356.019 11.9999 345.099 10.4949 331.819 5.99884C291.989 -7.4988 292.829 5.99884 292.829 5.99884H292.819C292.819 5.99884 293.189 11.9997 281.64 11.9999C275.86 11.9998 267.11 10.4948 253.831 5.99884C214.001 -7.4988 195.321 5.99884 195.321 5.99884C195.321 5.99884 187.021 11.9999 169.691 11.9999H169.689C161.019 11.9999 150.099 10.4949 136.819 5.99884C96.9893 -7.4988 97.8293 5.99884 97.8293 5.99884H97.8193C97.8193 5.99884 98.1894 11.9999 86.6394 11.9999H86.3203C80.5403 11.9999 71.7903 10.4949 58.5103 5.99884C18.6802 -7.4988 0.000244141 5.99884 0.000244141 5.99884V11.9999H0.320251V66.9999H390.32V12V11.9999V5.99891C390.32 5.99891 382.053 11.9762 364.793 11.9999H364.689Z" fill="#B85FFF"/>
</mask>
<g mask="url(#mask0_2462_27629)">
<path d="M32.2732 12.3699C23.6173 13.6835 -3.68217 31.9787 -5.67969 33.1609V-53.3387C3.1427 -60.0709 21.5865 -50.9746 24.7825 -53.3391C28.7776 -56.2947 89.702 -51.3687 95.6945 -53.3391C101.687 -55.3095 223.037 -50.3837 227.531 -50.3837C231.126 -50.3837 342.222 -60.7281 397.32 -53.3391L394.823 26.6554L383.338 22.7145L378.344 33.0592L366.858 19.7589L347.882 17.7885L336.895 19.7589L324.91 26.6554C322.413 23.6998 317.22 17.0989 316.421 14.3403C315.422 10.8921 298.942 22.7145 297.444 22.7145C296.246 22.7145 287.956 32.2382 283.961 37L252.999 19.7589L215.546 17.7885H203.561L193.074 22.7145L176.095 12.3699L168.105 14.3403L158.616 19.7589L150.127 12.3699C141.97 14.8329 125.258 20.3501 123.66 22.7145C122.062 25.079 115.337 31.5814 112.174 34.537L97.6921 24.685L85.2076 19.7589L74.2212 24.685L60.2385 12.3699L50.7503 17.7885L32.2732 12.3699Z" fill="white"/>
</g>
</svg>
