<svg width="392" height="67" viewBox="1 0 390 67" preserveAspectRatio="none" fill="none" xmlns="http://www.w3.org/2000/svg">
<path fill-rule="evenodd" clip-rule="evenodd" d="M1 12.9998H73.85H171.35H268.85H366.35L391 12.9999V7.46045C391 7.46045 381.03 12.9999 366.35 12.9998C359.01 12.9998 350.49 11.6106 341.46 7.46035C314.35 -4.99902 293.5 7.46035 293.5 7.46035C293.5 7.46035 283.53 12.9998 268.85 12.9998C261.51 12.9998 252.99 11.6106 243.96 7.46035C216.85 -4.99902 196 7.46035 196 7.46035C196 7.46035 186.03 12.9998 171.35 12.9998C164.01 12.9998 155.49 11.6106 146.46 7.46035C119.35 -4.99902 98.4996 7.46035 98.4996 7.46035C98.4996 7.46035 88.5296 12.9998 73.85 12.9998C66.51 12.9998 57.99 11.6106 48.96 7.46035C21.85 -4.99902 1 7.46035 1 7.46035V12.9998Z" fill="#84ADFF"/>
<path d="M391 6.5376C391 6.5376 381.03 12.077 366.35 12.077" stroke="#AAC7FF" stroke-width="2"/>
<path d="M366.35 12.0769C359.01 12.0769 350.49 10.6877 341.46 6.5375C314.35 -5.92187 293.5 6.5375 293.5 6.5375C293.5 6.5375 283.53 12.0769 268.85 12.0769" stroke="#AAC7FF" stroke-width="2"/>
<path d="M268.85 12.0769C261.51 12.0769 252.99 10.6877 243.96 6.5375C216.85 -5.92187 196 6.5375 196 6.5375C196 6.5375 186.03 12.0769 171.35 12.0769" stroke="#AAC7FF" stroke-width="2"/>
<path d="M171.35 12.0769C164.01 12.0769 155.49 10.6877 146.46 6.5375C119.35 -5.92187 98.4996 6.5375 98.4996 6.5375C98.4996 6.5375 88.5296 12.0769 73.8496 12.0769" stroke="#AAC7FF" stroke-width="2"/>
<path d="M73.85 12.0769C66.51 12.0769 57.99 10.6877 48.96 6.5375C21.85 -5.92187 1 6.5375 1 6.5375" stroke="#AAC7FF" stroke-width="2"/>
<mask id="mask0_2449_25623" style="mask-type:alpha" maskUnits="userSpaceOnUse" x="0" y="0" width="392" height="67">
<path fill-rule="evenodd" clip-rule="evenodd" d="M160.619 11.9998C156.122 11.155 151.366 9.71514 146.46 7.46019C119.35 -4.99918 98.4996 7.46019 98.4996 7.46019C98.4996 7.46019 93.2007 10.4043 84.6412 11.9998H63.1198C58.622 11.155 53.8663 9.71514 48.96 7.46019C21.85 -4.99918 1 7.46019 1 7.46019V11.9998V12.9996V66.9998H391V11.9998H391V7.46039C391 7.46039 385.701 10.4043 377.142 11.9998H355.619C351.121 11.155 346.366 9.71515 341.46 7.46024C314.35 -4.99913 293.5 7.46024 293.5 7.46024C293.5 7.46024 288.201 10.4043 279.641 11.9998H258.119C253.621 11.155 248.866 9.71515 243.96 7.46024C216.85 -4.99913 196 7.46024 196 7.46024C196 7.46024 190.701 10.4043 182.141 11.9998H160.619Z" fill="#84ADFF"/>
<path d="M391 6.5376C391 6.5376 381.03 12.077 366.35 12.077" stroke="#AAC7FF" stroke-width="2"/>
<path d="M366.35 12.0769C359.01 12.0769 350.49 10.6877 341.46 6.5375C314.35 -5.92187 293.5 6.5375 293.5 6.5375C293.5 6.5375 283.53 12.0769 268.85 12.0769" stroke="#AAC7FF" stroke-width="2"/>
<path d="M268.85 12.0769C261.51 12.0769 252.99 10.6877 243.96 6.5375C216.85 -5.92187 196 6.5375 196 6.5375C196 6.5375 186.03 12.0769 171.35 12.0769" stroke="#AAC7FF" stroke-width="2"/>
<path d="M171.35 12.0769C164.01 12.0769 155.49 10.6877 146.46 6.5375C119.35 -5.92187 98.4996 6.5375 98.4996 6.5375C98.4996 6.5375 88.5296 12.0769 73.8496 12.0769" stroke="#AAC7FF" stroke-width="2"/>
<path d="M73.85 12.0769C66.51 12.0769 57.99 10.6877 48.96 6.5375C21.85 -5.92187 1 6.5375 1 6.5375" stroke="#AAC7FF" stroke-width="2"/>
</mask>
<g mask="url(#mask0_2449_25623)">
<path d="M32.9529 12.3699C24.297 13.6835 -3.00248 31.9787 -5 33.1609V-53.3387C3.82239 -60.0709 22.2662 -50.9746 25.4622 -53.3391C29.4572 -56.2947 90.3817 -51.3687 96.3742 -53.3391C102.367 -55.3095 223.716 -50.3837 228.211 -50.3837C231.806 -50.3837 342.902 -60.7281 398 -53.3391L395.503 26.6554L384.017 22.7145L379.024 33.0592L367.538 19.7589L348.561 17.7885L337.575 19.7589L325.59 26.6554C323.093 23.6998 317.899 17.0989 317.1 14.3403C316.102 10.8921 299.622 22.7145 298.124 22.7145C296.925 22.7145 288.636 32.2382 284.641 37L253.679 19.7589L216.226 17.7885H204.24L193.753 22.7145L176.774 12.3699L168.784 14.3403L159.296 19.7589L150.807 12.3699C142.65 14.8329 125.938 20.3501 124.34 22.7145C122.742 25.079 116.017 31.5814 112.854 34.537L98.3717 24.685L85.8872 19.7589L74.9009 24.685L60.9182 12.3699L51.43 17.7885L32.9529 12.3699Z" fill="white"/>
</g>
</svg>
