<svg width="390" height="67" viewBox="0 0 390 67" preserveAspectRatio="none" fill="none" xmlns="http://www.w3.org/2000/svg">
<rect y="12" width="390" height="1" fill="#84ADFF"/>
<path d="M390 5.99902V12.0001H365.35C380.03 12.0001 390 5.99902 390 5.99902Z" fill="#84ADFF"/>
<path d="M365.35 12H267.85C282.53 12 292.5 5.99895 292.5 5.99895C292.5 5.99895 313.35 -7.49869 340.46 5.99895C349.49 10.495 358.01 12 365.35 12Z" fill="#84ADFF"/>
<path d="M267.85 12H170.35C185.03 12 195 5.99895 195 5.99895C195 5.99895 215.85 -7.49869 242.96 5.99895C251.99 10.495 260.51 12 267.85 12Z" fill="#84ADFF"/>
<path d="M170.35 12H72.8496C87.5296 12 97.4996 5.99895 97.4996 5.99895C97.4996 5.99895 118.35 -7.49869 145.46 5.99895C154.49 10.495 163.01 12 170.35 12Z" fill="#84ADFF"/>
<path d="M72.85 12H0V5.99895C0 5.99895 20.85 -7.49869 47.96 5.99895C56.99 10.495 65.51 12 72.85 12Z" fill="#84ADFF"/>
<mask id="mask0_2462_27625" style="mask-type:alpha" maskUnits="userSpaceOnUse" x="0" y="0" width="390" height="67">
<path fill-rule="evenodd" clip-rule="evenodd" d="M267.85 12C282.53 12 292.5 5.99896 292.5 5.99896C292.5 5.99896 313.35 -7.49869 340.46 5.99896C349.49 10.495 358.01 12 365.35 12H365.436C380.069 11.9766 390 5.99902 390 5.99902V12.0001L390 12V67H0V12.0001V12V5.99906C0 5.99906 20.85 -7.49859 47.96 5.99906C56.9457 10.4731 65.4264 11.9853 72.742 12H72.8496C87.5296 12 97.4996 5.99896 97.4996 5.99896C97.4996 5.99896 118.35 -7.49869 145.46 5.99896C154.49 10.495 163.01 12 170.35 12H170.458C185.079 11.9706 195 5.99906 195 5.99906C195 5.99906 215.85 -7.49859 242.96 5.99906C251.945 10.4731 260.426 11.9854 267.742 12H267.85Z" fill="#84ADFF"/>
</mask>
<g mask="url(#mask0_2462_27625)">
<path d="M31.9529 12.3699C23.297 13.6835 -4.00248 31.9787 -6 33.1609V-53.3387C2.82239 -60.0709 21.2662 -50.9746 24.4622 -53.3391C28.4572 -56.2947 89.3817 -51.3687 95.3742 -53.3391C101.367 -55.3095 222.716 -50.3837 227.211 -50.3837C230.806 -50.3837 341.902 -60.7281 397 -53.3391L394.503 26.6554L383.017 22.7145L378.024 33.0592L366.538 19.7589L347.561 17.7885L336.575 19.7589L324.59 26.6554C322.093 23.6998 316.899 17.0989 316.1 14.3403C315.102 10.8921 298.622 22.7145 297.124 22.7145C295.925 22.7145 287.636 32.2382 283.641 37L252.679 19.7589L215.226 17.7885H203.24L192.753 22.7145L175.774 12.3699L167.784 14.3403L158.296 19.7589L149.807 12.3699C141.65 14.8329 124.938 20.3501 123.34 22.7145C121.742 25.079 115.017 31.5814 111.854 34.537L97.3717 24.685L84.8872 19.7589L73.9009 24.685L59.9182 12.3699L50.43 17.7885L31.9529 12.3699Z" fill="white"/>
</g>
</svg>
