<svg width="392" height="68" viewBox="1 0 390 68" preserveAspectRatio="none" fill="none" xmlns="http://www.w3.org/2000/svg">
<path fill-rule="evenodd" clip-rule="evenodd" d="M265.663 13.0767H174.231C173.202 13.1268 172.145 13.1538 171.063 13.1538C170.042 13.1538 168.999 13.1292 167.935 13.0767H77.4373C76.4179 13.1268 75.3717 13.1538 74.3006 13.1538C73.2729 13.1538 72.2224 13.1292 71.151 13.0767H1.48188V7.53734C1.48188 7.53734 1.54624 7.49879 1.67246 7.42811C1.6188 7.33015 1.55512 7.21391 1.47954 7.07599C0.99897 6.19903 0.999465 6.19876 1.00004 6.19845L1.00159 6.1976L1.00612 6.19514L1.0209 6.18715L1.07318 6.1593C1.11808 6.13559 1.18301 6.10176 1.2675 6.05886C1.43649 5.97306 1.68381 5.85097 2.00591 5.701C2.65004 5.40109 3.59362 4.98949 4.80809 4.53367C7.23647 3.62224 10.7516 2.53261 15.124 1.80659C23.8733 0.353809 36.0549 0.357848 49.8088 6.15449L49.4205 7.07599L49.8088 6.15449C58.6983 9.90115 67.0808 11.1538 74.3006 11.1538C81.47 11.1538 87.4893 9.90414 91.7122 8.65591C93.823 8.03201 95.4825 7.4092 96.6094 6.94482C97.1728 6.71266 97.6028 6.52022 97.8893 6.38719C98.0325 6.32068 98.1398 6.26904 98.21 6.23474C98.245 6.21758 98.2708 6.20476 98.2871 6.19659L98.2985 6.19083L98.3027 6.18858L98.3547 6.1607C98.3993 6.13696 98.4638 6.10311 98.5477 6.06018C98.7156 5.97433 98.9613 5.85219 99.2812 5.70217C99.9209 5.40215 100.858 4.99044 102.064 4.53451C104.476 3.62285 107.966 2.53297 112.308 1.80678C120.997 0.353625 133.094 0.357797 146.752 6.1555C155.576 9.90148 163.897 11.1538 171.063 11.1538C178.309 11.1538 184.392 9.90373 188.66 8.65513C190.793 8.03103 192.47 7.40802 193.609 6.94345C194.178 6.7112 194.613 6.51867 194.903 6.38555C195.047 6.319 195.156 6.26732 195.227 6.23297C195.262 6.2158 195.288 6.20296 195.305 6.19476L195.317 6.18889L195.321 6.18655L195.373 6.15871C195.418 6.13501 195.484 6.10119 195.568 6.0583C195.738 5.97252 195.986 5.85045 196.309 5.7005C196.955 5.40064 197.901 4.98909 199.119 4.53332C201.555 3.62198 205.08 2.53246 209.466 1.80651C218.241 0.353885 230.459 0.357871 244.254 6.15406C253.171 9.90101 261.58 11.1538 268.823 11.1538C275.992 11.1538 282.011 9.90414 286.234 8.65591C288.345 8.03201 290.004 7.4092 291.131 6.94482C291.695 6.71266 292.125 6.52022 292.411 6.38719C292.555 6.32068 292.662 6.26904 292.732 6.23474L292.77 6.2162L292.809 6.19659L292.821 6.19083L292.825 6.18858L292.877 6.1607C292.921 6.13696 292.986 6.10311 293.07 6.06018C293.238 5.97433 293.483 5.85219 293.803 5.70217C294.443 5.40215 295.38 4.99044 296.586 4.53451C298.998 3.62285 302.488 2.53297 306.83 1.80678C315.519 0.353625 327.616 0.357797 341.274 6.15549L340.883 7.07599L341.274 6.1555C350.098 9.90148 358.419 11.1538 365.585 11.1538C372.888 11.1536 379.019 9.79173 383.322 8.43096C385.473 7.75083 387.164 7.07186 388.312 6.56556C388.886 6.31245 389.324 6.10264 389.616 5.95761C389.762 5.8851 389.871 5.8288 389.943 5.7914L389.989 5.76694L390.021 5.74983L390.039 5.74031L390.043 5.73847C390.042 5.73851 390.042 5.73863 390.524 6.61519C391.005 7.49174 391.005 7.49191 391.004 7.4921L391.003 7.49258L391.001 7.49392L390.993 7.4981L390.967 7.51233C390.944 7.52438 390.912 7.5415 390.87 7.56337C390.79 7.60545 390.674 7.66508 390.524 7.73984V13.0769H368.642C367.648 13.1269 366.628 13.1538 365.585 13.1538C364.564 13.1538 363.521 13.1292 362.457 13.0767H271.959C270.94 13.1268 269.894 13.1538 268.823 13.1538C267.792 13.1538 266.738 13.1292 265.663 13.0767Z" fill="#AAC7FF"/>
<mask id="mask0_2458_26235" style="mask-type:alpha" maskUnits="userSpaceOnUse" x="0" y="0" width="392" height="68">
<path fill-rule="evenodd" clip-rule="evenodd" d="M160.712 12.0767C156.226 11.2318 151.482 9.79197 146.587 7.53701C119.544 -4.92236 98.745 7.53701 98.745 7.53701C98.745 7.53701 93.4591 10.4811 84.9205 12.0767H63.4519C58.9652 11.2318 54.2211 9.79197 49.3268 7.53701C22.2833 -4.92236 1.48438 7.53701 1.48438 7.53701V12.0767V13.0764V67.0767H390.528V12.0767H390.526V7.53711C390.526 7.53711 385.241 10.4811 376.702 12.0767H355.234C350.747 11.2318 346.003 9.79197 341.109 7.53701C314.065 -4.92236 293.266 7.53701 293.266 7.53701C293.266 7.53701 287.98 10.4811 279.442 12.0767H257.973C253.486 11.2318 248.742 9.79197 243.848 7.53701C216.804 -4.92236 196.005 7.53701 196.005 7.53701C196.005 7.53701 190.719 10.4811 182.181 12.0767H160.712Z" fill="#84ADFF"/>
<path d="M390.525 6.61426C390.525 6.61426 380.58 12.1537 365.936 12.1537" stroke="#AAC7FF" stroke-width="2"/>
<path d="M365.937 12.1536C358.615 12.1536 350.116 10.7644 341.108 6.61416C314.064 -5.84521 293.265 6.61416 293.265 6.61416C293.265 6.61416 283.32 12.1536 268.676 12.1536" stroke="#AAC7FF" stroke-width="2"/>
<path d="M268.675 12.1536C261.353 12.1536 252.854 10.7644 243.846 6.61416C216.803 -5.84521 196.004 6.61416 196.004 6.61416C196.004 6.61416 186.058 12.1536 171.414 12.1536" stroke="#AAC7FF" stroke-width="2"/>
<path d="M171.415 12.1536C164.093 12.1536 155.594 10.7644 146.586 6.61416C119.543 -5.84521 98.7439 6.61416 98.7439 6.61416C98.7439 6.61416 88.7983 12.1536 74.1543 12.1536" stroke="#AAC7FF" stroke-width="2"/>
<path d="M74.1538 12.1536C66.8318 12.1536 58.3327 10.7644 49.3248 6.61416C22.2813 -5.84521 1.48242 6.61416 1.48242 6.61416" stroke="#AAC7FF" stroke-width="2"/>
</mask>
<g mask="url(#mask0_2458_26235)">
<path d="M33.354 12.4466C24.7193 13.7602 -2.51323 32.0554 -4.50586 33.2376V-53.262C4.2949 -59.9943 22.6935 -50.8979 25.8817 -53.2624C29.8669 -56.218 90.642 -51.292 96.6199 -53.2624C102.598 -55.2328 223.65 -50.307 228.133 -50.307C231.72 -50.307 342.543 -60.6515 397.506 -53.2624L395.015 26.732L383.558 22.7912L378.576 33.1358L367.119 19.8356L348.189 17.8652L337.229 19.8356L325.274 26.732C322.783 23.7764 317.602 17.1756 316.805 14.417C315.809 10.9688 299.369 22.7912 297.875 22.7912C296.679 22.7912 288.41 32.3148 284.425 37.0767L253.539 19.8356L216.177 17.8652H204.222L193.76 22.7912L176.823 12.4466L168.853 14.417L159.388 19.8356L150.919 12.4466C142.782 14.9096 126.111 20.4267 124.517 22.7912C122.923 25.1557 116.214 31.658 113.059 34.6137L98.6125 24.7616L86.1586 19.8356L75.1991 24.7616L61.2508 12.4466L51.7858 17.8652L33.354 12.4466Z" fill="white"/>
</g>
</svg>
