<svg width="390" height="66" viewBox="1 0 388 66" preserveAspectRatio="none" fill="none" xmlns="http://www.w3.org/2000/svg">
<mask id="mask0_4294_16236" style="mask-type:alpha" maskUnits="userSpaceOnUse" x="0" y="0" width="390" height="66">
<path fill-rule="evenodd" clip-rule="evenodd" d="M159.619 10.999C155.122 10.1542 150.366 8.71433 145.46 6.45937C118.35 -6 97.4996 6.45937 97.4996 6.45937C97.4996 6.45937 92.2007 9.40349 83.6412 10.999H62.1198C57.622 10.1542 52.8663 8.71433 47.96 6.45937C20.85 -6 0 6.45937 0 6.45937V10.999V11.9988V65.999H390V10.999H390V6.45947C390 6.45947 384.701 9.40346 376.142 10.999H354.619C350.122 10.1542 345.366 8.71433 340.46 6.45937C313.35 -6 292.5 6.45937 292.5 6.45937C292.5 6.45937 287.201 9.40349 278.641 10.999H257.119C252.622 10.1542 247.866 8.71433 242.96 6.45937C215.85 -6 195 6.45937 195 6.45937C195 6.45937 189.701 9.40349 181.141 10.999H159.619Z" fill="#84ADFF"/>
</mask>
<g mask="url(#mask0_4294_16236)">
<path d="M30.9529 11.3699C22.297 12.6835 -5.00248 30.9787 -7 32.1609V-54.3387C1.82239 -61.0709 20.2662 -51.9746 23.4622 -54.3391C27.4572 -57.2947 88.3817 -52.3687 94.3742 -54.3391C100.367 -56.3095 221.716 -51.3837 226.211 -51.3837C229.806 -51.3837 340.902 -61.7281 396 -54.3391L393.503 25.6554L382.017 21.7145L377.024 32.0592L365.538 18.7589L346.561 16.7885L335.575 18.7589L323.59 25.6554C321.093 22.6998 315.899 16.0989 315.1 13.3403C314.102 9.89211 297.622 21.7145 296.124 21.7145C294.925 21.7145 286.636 31.2382 282.641 36L251.679 18.7589L214.226 16.7885H202.24L191.753 21.7145L174.774 11.3699L166.784 13.3403L157.296 18.7589L148.807 11.3699C140.65 13.8329 123.938 19.3501 122.34 21.7145C120.742 24.079 114.017 30.5814 110.854 33.537L96.3717 23.685L83.8872 18.7589L72.9009 23.685L58.9182 11.3699L49.43 16.7885L30.9529 11.3699Z" fill="white"/>
</g>
</svg>
