<svg width="392" height="69" viewBox="1 0 390 69" preserveAspectRatio="none" fill="none" xmlns="http://www.w3.org/2000/svg">
<path fill-rule="evenodd" clip-rule="evenodd" d="M1.5 13.0764H104.801H105.8H234.801H364.801C355.171 13.0764 342.331 11.6872 325.501 7.53701C275.001 -4.92236 260.501 7.53701 260.501 7.53701C260.501 7.53701 254.061 13.0764 234.801 13.0764C225.171 13.0764 212.331 11.6872 195.501 7.53701C145.001 -4.92236 130.501 7.53701 130.501 7.53701C130.501 7.53701 124.172 12.9807 105.299 13.0752C95.7263 13.0277 83.04 11.6157 66.5 7.53701C16 -4.92236 1.5 7.53701 1.5 7.53701V13.0764ZM391.5 13.0767V7.07666C391.5 7.07666 384.985 13.0767 365.5 13.0767H391.5Z" fill="#75F3C9"/>
<mask id="mask0_2458_26309" style="mask-type:alpha" maskUnits="userSpaceOnUse" x="0" y="0" width="392" height="69">
<path fill-rule="evenodd" clip-rule="evenodd" d="M247.76 12.0767C257.078 10.4811 260.501 7.53701 260.501 7.53701C260.501 7.53701 275.001 -4.92236 325.501 7.53701C334.645 9.79196 342.611 11.2318 349.525 12.0767H378.148C387.924 10.3698 391.5 7.07666 391.5 7.07666V12.0767V13.0767V68.0767H1.5V13.0764V12.0767V7.53701C1.5 7.53701 16 -4.92236 66.5 7.53701C75.6443 9.79196 83.6107 11.2318 90.5244 12.0767H117.76C127.078 10.4811 130.501 7.53701 130.501 7.53701C130.501 7.53701 145.001 -4.92236 195.501 7.53701C204.645 9.79196 212.611 11.2318 219.525 12.0767H247.76Z" fill="#75F3C9"/>
<path d="M390.501 6.61426C390.501 6.61426 384.061 12.1537 364.801 12.1537" stroke="#B0FFE5" stroke-width="2"/>
<path d="M364.801 12.1536C355.171 12.1536 342.331 10.7644 325.501 6.61415C275.001 -5.84521 260.501 6.61415 260.501 6.61415C260.501 6.61415 254.061 12.1536 234.801 12.1536" stroke="#B0FFE5" stroke-width="2"/>
<path d="M234.801 12.1536C225.171 12.1536 212.331 10.7644 195.501 6.61415C145.001 -5.84521 130.501 6.61415 130.501 6.61415C130.501 6.61415 124.061 12.1536 104.801 12.1536" stroke="#B0FFE5" stroke-width="2"/>
<path d="M104.8 12.1534C95.17 12.1534 82.33 10.7642 65.5 6.61393C15 -5.84543 1 7.07666 1 7.07666" stroke="#B0FFE5" stroke-width="2"/>
</mask>
<g mask="url(#mask0_2458_26309)">
<path d="M32.4529 10.4466C23.797 11.7602 -3.50248 30.0554 -5.5 31.2376V-55.262C3.32239 -61.9943 21.7662 -52.8979 24.9622 -55.2624C28.9572 -58.218 89.8817 -53.292 95.8742 -55.2624C101.867 -57.2328 223.216 -52.307 227.711 -52.307C231.306 -52.307 342.402 -62.6515 397.5 -55.2624L395.003 24.732L383.517 20.7912L378.524 31.1358L367.038 17.8356L348.061 15.8652L337.075 17.8356L325.09 24.732C322.593 21.7764 317.399 15.1756 316.6 12.417C315.602 8.96877 299.122 20.7912 297.624 20.7912C296.425 20.7912 288.136 30.3148 284.141 35.0767L253.179 17.8356L215.726 15.8652H203.74L193.253 20.7912L176.274 10.4466L168.284 12.417L158.796 17.8356L150.307 10.4466C142.15 12.9096 125.438 18.4267 123.84 20.7912C122.242 23.1557 115.517 29.658 112.354 32.6137L97.8717 22.7616L85.3872 17.8356L74.4009 22.7616L60.4182 10.4466L50.93 15.8652L32.4529 10.4466Z" fill="white"/>
</g>
</svg>
