<svg width="390" height="67" viewBox="0 0 390 67" preserveAspectRatio="none" fill="none" xmlns="http://www.w3.org/2000/svg">
<path d="M234.301 13H104.301C123.561 13 130.001 6.99895 130.001 6.99895C130.001 6.99895 144.501 -6.49869 195.001 6.99895C211.831 11.495 224.671 13 234.301 13Z" fill="#75F3C9"/>
<path d="M104.3 13H0V6.99895C0 6.99895 14.5 -6.49869 65 6.99895C81.83 11.495 94.67 13 104.3 13Z" fill="#75F3C9"/>
<path d="M390.001 6.99902V13.0001H364.301C383.561 13.0001 390.001 6.99902 390.001 6.99902Z" fill="#75F3C9"/>
<path d="M364.301 13H234.301C253.561 13 260.001 6.99895 260.001 6.99895C260.001 6.99895 274.501 -6.49869 325.001 6.99895C341.831 11.495 354.671 13 364.301 13Z" fill="#75F3C9"/>
<mask id="mask0_2462_27621" style="mask-type:alpha" maskUnits="userSpaceOnUse" x="0" y="0" width="390" height="67">
<path fill-rule="evenodd" clip-rule="evenodd" d="M260.001 5.99895C260.001 5.99895 253.561 12 234.301 12H234.159C224.545 11.9854 211.748 10.4731 195.001 5.99906C144.501 -7.49858 130.001 5.99906 130.001 5.99906C130.001 5.99906 123.592 11.9706 104.443 12H104.3C94.67 12 81.83 10.495 65 5.99895C14.5 -7.49869 0 5.99895 0 5.99895V12V67H390V12L390.001 12.0001V5.99902C390.001 5.99902 383.586 11.9763 364.415 12H364.301C354.671 12 341.831 10.495 325.001 5.99895C274.501 -7.49869 260.001 5.99895 260.001 5.99895Z" fill="#75F3C9"/>
</mask>
<g mask="url(#mask0_2462_27621)">
<path d="M31.9529 11.3699C23.297 12.6835 -4.00248 30.9787 -6 32.1609V-54.3387C2.82239 -61.0709 21.2662 -51.9746 24.4622 -54.3391C28.4572 -57.2947 89.3817 -52.3687 95.3742 -54.3391C101.367 -56.3095 222.716 -51.3837 227.211 -51.3837C230.806 -51.3837 341.902 -61.7281 397 -54.3391L394.503 25.6554L383.017 21.7145L378.024 32.0592L366.538 18.7589L347.561 16.7885L336.575 18.7589L324.59 25.6554C322.093 22.6998 316.899 16.0989 316.1 13.3403C315.102 9.89211 298.622 21.7145 297.124 21.7145C295.925 21.7145 287.636 31.2382 283.641 36L252.679 18.7589L215.226 16.7885H203.24L192.753 21.7145L175.774 11.3699L167.784 13.3403L158.296 18.7589L149.807 11.3699C141.65 13.8329 124.938 19.3501 123.34 21.7145C121.742 24.079 115.017 30.5814 111.854 33.537L97.3717 23.685L84.8872 18.7589L73.9009 23.685L59.9182 11.3699L50.43 16.7885L31.9529 11.3699Z" fill="white"/>
</g>
</svg>
