<svg width="392" height="68" viewBox="2 0 389 68" preserveAspectRatio="none" fill="none" xmlns="http://www.w3.org/2000/svg">
<path fill-rule="evenodd" clip-rule="evenodd" d="M2 12.9998H105.301H106.3H235.301H365.301C355.671 12.9998 342.831 11.6106 326.001 7.46035C275.501 -4.99902 261.001 7.46035 261.001 7.46035C261.001 7.46035 254.561 12.9998 235.301 12.9998C225.671 12.9998 212.831 11.6106 196.001 7.46035C145.501 -4.99902 131.001 7.46035 131.001 7.46035C131.001 7.46035 124.672 12.904 105.799 12.9985C96.2263 12.9511 83.54 11.5391 67 7.46035C16.5 -4.99902 2 7.46035 2 7.46035V12.9998ZM392 13V7C392 7 385.485 13 366 13H392Z" fill="#75F3C9"/>
<path d="M391.001 6.5376C391.001 6.5376 384.561 12.077 365.301 12.077" stroke="#B0FFE5" stroke-width="2"/>
<path d="M365.301 12.0769C355.671 12.0769 342.831 10.6877 326.001 6.53749C275.501 -5.92187 261.001 6.53749 261.001 6.53749C261.001 6.53749 254.561 12.0769 235.301 12.0769" stroke="#B0FFE5" stroke-width="2"/>
<path d="M235.301 12.0769C225.671 12.0769 212.831 10.6877 196.001 6.53749C145.501 -5.92187 131.001 6.53749 131.001 6.53749C131.001 6.53749 124.561 12.0769 105.301 12.0769" stroke="#B0FFE5" stroke-width="2"/>
<path d="M105.3 12.0767C95.67 12.0767 82.83 10.6875 66 6.53727C15.5 -5.92209 1.5 7 1.5 7" stroke="#B0FFE5" stroke-width="2"/>
<mask id="mask0_2449_25621" style="mask-type:alpha" maskUnits="userSpaceOnUse" x="0" y="0" width="392" height="68">
<path fill-rule="evenodd" clip-rule="evenodd" d="M248.26 12C257.578 10.4045 261.001 7.46035 261.001 7.46035C261.001 7.46035 275.501 -4.99902 326.001 7.46035C335.145 9.7153 343.111 11.1552 350.025 12H378.648C388.424 10.2932 392 7 392 7V12V13V68H2V12.9998V12V7.46035C2 7.46035 16.5 -4.99902 67 7.46035C76.1443 9.7153 84.1107 11.1552 91.0244 12H118.26C127.578 10.4045 131.001 7.46035 131.001 7.46035C131.001 7.46035 145.501 -4.99902 196.001 7.46035C205.145 9.7153 213.111 11.1552 220.025 12H248.26Z" fill="#75F3C9"/>
<path d="M391.001 6.5376C391.001 6.5376 384.561 12.077 365.301 12.077" stroke="#B0FFE5" stroke-width="2"/>
<path d="M365.301 12.0769C355.671 12.0769 342.831 10.6877 326.001 6.53749C275.501 -5.92187 261.001 6.53749 261.001 6.53749C261.001 6.53749 254.561 12.0769 235.301 12.0769" stroke="#B0FFE5" stroke-width="2"/>
<path d="M235.301 12.0769C225.671 12.0769 212.831 10.6877 196.001 6.53749C145.501 -5.92187 131.001 6.53749 131.001 6.53749C131.001 6.53749 124.561 12.0769 105.301 12.0769" stroke="#B0FFE5" stroke-width="2"/>
<path d="M105.3 12.0767C95.67 12.0767 82.83 10.6875 66 6.53727C15.5 -5.92209 1.5 7 1.5 7" stroke="#B0FFE5" stroke-width="2"/>
</mask>
<g mask="url(#mask0_2449_25621)">
<path d="M32.9529 10.3699C24.297 11.6835 -3.00248 29.9787 -5 31.1609V-55.3387C3.82239 -62.0709 22.2662 -52.9746 25.4622 -55.3391C29.4572 -58.2947 90.3817 -53.3687 96.3742 -55.3391C102.367 -57.3095 223.716 -52.3837 228.211 -52.3837C231.806 -52.3837 342.902 -62.7281 398 -55.3391L395.503 24.6554L384.017 20.7145L379.024 31.0592L367.538 17.7589L348.561 15.7885L337.575 17.7589L325.59 24.6554C323.093 21.6998 317.899 15.0989 317.1 12.3403C316.102 8.89211 299.622 20.7145 298.124 20.7145C296.925 20.7145 288.636 30.2382 284.641 35L253.679 17.7589L216.226 15.7885H204.24L193.753 20.7145L176.774 10.3699L168.784 12.3403L159.296 17.7589L150.807 10.3699C142.65 12.8329 125.938 18.3501 124.34 20.7145C122.742 23.079 116.017 29.5814 112.854 32.537L98.3717 22.685L85.8872 17.7589L74.9009 22.685L60.9182 10.3699L51.43 15.7885L32.9529 10.3699Z" fill="white"/>
</g>
</svg>
