<svg width="391" height="67" viewBox="0 0 391 67" preserveAspectRatio="none" fill="none" xmlns="http://www.w3.org/2000/svg">
<mask id="mask0_4294_16331" style="mask-type:alpha" maskUnits="userSpaceOnUse" x="0" y="0" width="391" height="67">
<path fill-rule="evenodd" clip-rule="evenodd" d="M246.76 10.0771C256.078 8.48161 259.501 5.53749 259.501 5.53749C259.501 5.53749 274.001 -6.92187 324.501 5.53749C333.645 7.79245 341.611 9.23232 348.525 10.0771H377.148C386.924 8.37031 390.5 5.07715 390.5 5.07715V10.0771V11.0771V66.0771H0.5V11.0769V10.0771V5.53749C0.5 5.53749 15 -6.92187 65.5 5.53749C74.6443 7.79245 82.6107 9.23232 89.5244 10.0771H116.76C126.078 8.48161 129.501 5.53749 129.501 5.53749C129.501 5.53749 144.001 -6.92187 194.501 5.53749C203.645 7.79245 211.611 9.23232 218.525 10.0771H246.76Z" fill="#75F3C9"/>
</mask>
<g mask="url(#mask0_4294_16331)">
<path d="M30.9529 11.4481C22.297 12.7617 -5.00248 31.0568 -7 32.2391V-54.2606C1.82239 -60.9928 20.2662 -51.8965 23.4622 -54.261C27.4572 -57.2166 88.3817 -52.2906 94.3742 -54.261C100.367 -56.2314 221.716 -51.3055 226.211 -51.3055C229.806 -51.3055 340.902 -61.65 396 -54.261L393.503 25.7335L382.017 21.7927L377.024 32.1373L365.538 18.8371L346.561 16.8667L335.575 18.8371L323.59 25.7335C321.093 22.7779 315.899 16.177 315.1 13.4184C314.102 9.97024 297.622 21.7927 296.124 21.7927C294.925 21.7927 286.636 31.3163 282.641 36.0781L251.679 18.8371L214.226 16.8667H202.24L191.753 21.7927L174.774 11.4481L166.784 13.4184L157.296 18.8371L148.807 11.4481C140.65 13.9111 123.938 19.4282 122.34 21.7927C120.742 24.1572 114.017 30.6595 110.854 33.6151L96.3717 23.7631L83.8872 18.8371L72.9009 23.7631L58.9182 11.4481L49.43 16.8667L30.9529 11.4481Z" fill="white"/>
</g>
</svg>
