<svg width="392" height="69" viewBox="1 0 390 69" preserveAspectRatio="none" fill="none" xmlns="http://www.w3.org/2000/svg">
<path d="M390.501 6.53711C390.501 6.53711 384.061 12.0765 364.801 12.0765" stroke="white" stroke-width="2"/>
<path d="M364.801 12.0769C355.171 12.0769 342.331 10.6877 325.501 6.53749C275.001 -5.92187 260.501 6.53749 260.501 6.53749C260.501 6.53749 254.061 12.0769 234.801 12.0769" stroke="white" stroke-width="2"/>
<path d="M234.801 12.0769C225.171 12.0769 212.331 10.6877 195.501 6.53749C145.001 -5.92187 130.501 6.53749 130.501 6.53749C130.501 6.53749 124.061 12.0769 104.801 12.0769" stroke="white" stroke-width="2"/>
<path d="M104.8 12.0767C95.17 12.0767 82.33 10.6875 65.5 6.53727C15 -5.92209 1 7 1 7" stroke="white" stroke-width="2"/>
<mask id="mask0_4296_15512" style="mask-type:alpha" maskUnits="userSpaceOnUse" x="1" y="2" width="391" height="67">
<path fill-rule="evenodd" clip-rule="evenodd" d="M247.76 12.0771C257.078 10.4816 260.501 7.53749 260.501 7.53749C260.501 7.53749 275.001 -4.92187 325.501 7.53749C334.645 9.79245 342.611 11.2323 349.525 12.0771H378.148C387.924 10.3703 391.5 7.07715 391.5 7.07715V12.0771V13.0771V68.0771H1.5V13.0769V12.0771V7.53749C1.5 7.53749 16 -4.92187 66.5 7.53749C75.6443 9.79245 83.6107 11.2323 90.5244 12.0771H117.76C127.078 10.4816 130.501 7.53749 130.501 7.53749C130.501 7.53749 145.001 -4.92187 195.501 7.53749C204.645 9.79245 212.611 11.2323 219.525 12.0771H247.76Z" fill="#75F3C9"/>
</mask>
<g mask="url(#mask0_4296_15512)">
<path d="M31.9529 13.4481C23.297 14.7617 -4.00248 33.0568 -6 34.2391V-52.2606C2.82239 -58.9928 21.2662 -49.8965 24.4622 -52.261C28.4572 -55.2166 89.3817 -50.2906 95.3742 -52.261C101.367 -54.2314 222.716 -49.3055 227.211 -49.3055C230.806 -49.3055 341.902 -59.65 397 -52.261L394.503 27.7335L383.017 23.7927L378.024 34.1373L366.538 20.8371L347.561 18.8667L336.575 20.8371L324.59 27.7335C322.093 24.7779 316.899 18.177 316.1 15.4184C315.102 11.9702 298.622 23.7927 297.124 23.7927C295.925 23.7927 287.636 33.3163 283.641 38.0781L252.679 20.8371L215.226 18.8667H203.24L192.753 23.7927L175.774 13.4481L167.784 15.4184L158.296 20.8371L149.807 13.4481C141.65 15.9111 124.938 21.4282 123.34 23.7927C121.742 26.1572 115.017 32.6595 111.854 35.6151L97.3717 25.7631L84.8872 20.8371L73.9009 25.7631L59.9182 13.4481L50.43 18.8667L31.9529 13.4481Z" fill="white"/>
</g>
</svg>
