<svg width="392" height="69" viewBox="1 0 390 69" preserveAspectRatio="none" fill="none" xmlns="http://www.w3.org/2000/svg">
<mask id="mask0_2458_26453" style="mask-type:alpha" maskUnits="userSpaceOnUse" x="0" y="0" width="392" height="69">
<path d="M391 6.61415C391 6.61415 372.32 -5.84521 332.49 6.61415C319.21 10.7644 310.46 12.1536 304.68 12.1536" stroke="#D9BBFF" stroke-width="2"/>
<path d="M304.681 12.1536C293.131 12.1536 293.501 6.61415 293.501 6.61415H293.491C293.491 6.61415 294.331 -5.84521 254.501 6.61415C241.221 10.7644 230.301 12.1536 221.631 12.1536" stroke="#D9BBFF" stroke-width="2"/>
<path d="M221.63 12.1536C204.3 12.1536 196 6.61415 196 6.61415C196 6.61415 177.32 -5.84521 137.49 6.61415C124.21 10.7644 115.46 12.1536 109.68 12.1536" stroke="#D9BBFF" stroke-width="2"/>
<path d="M109.681 12.1536C98.1308 12.1536 98.5009 6.61415 98.5009 6.61415H98.4909C98.4909 6.61415 99.3309 -5.84521 59.5009 6.61415C46.2209 10.7644 35.3009 12.1536 26.6309 12.1536" stroke="#D9BBFF" stroke-width="2"/>
<path d="M26.63 12.1537C9.3 12.1537 1 6.61426 1 6.61426" stroke="#D9BBFF" stroke-width="2"/>
<path fill-rule="evenodd" clip-rule="evenodd" d="M109.681 13.0765H26.6309C35.3009 13.0765 46.2209 11.6873 59.5009 7.53706C99.3309 -4.9223 98.4909 7.53706 98.4909 7.53706H98.5009C98.5009 7.53706 98.1308 13.0765 109.681 13.0765ZM1 13.0766H26.63C9.3 13.0766 1 7.53716 1 7.53716V13.0766ZM1 13.0767H391V68.0767H1V13.0767ZM109.68 13.0765H221.63C204.3 13.0765 196 7.53712 196 7.53712C196 7.53712 177.32 -4.92225 137.49 7.53712C124.21 11.6873 115.46 13.0765 109.68 13.0765ZM304.681 13.0766H221.631C230.301 13.0766 241.221 11.6874 254.501 7.53717C294.331 -4.92219 293.491 7.53717 293.491 7.53717H293.501C293.501 7.53717 293.131 13.0766 304.681 13.0766ZM391 13.0767V7.53722C391 7.53722 372.32 -4.92214 332.49 7.53722C319.21 11.6875 310.46 13.0767 304.68 13.0767H391Z" fill="#CAA2FF"/>
</mask>
<g mask="url(#mask0_2458_26453)">
<path d="M32.9529 13.4466C24.297 14.7602 -3.00248 33.0554 -5 34.2376V-52.262C3.82239 -58.9943 22.2662 -49.8979 25.4622 -52.2624C29.4572 -55.218 90.3817 -50.292 96.3742 -52.2624C102.367 -54.2328 223.716 -49.307 228.211 -49.307C231.806 -49.307 342.902 -59.6515 398 -52.2624L395.503 27.732L384.017 23.7912L379.024 34.1358L367.538 20.8356L348.561 18.8652L337.575 20.8356L325.59 27.732C323.093 24.7764 317.899 18.1756 317.1 15.417C316.102 11.9688 299.622 23.7912 298.124 23.7912C296.925 23.7912 288.636 33.3148 284.641 38.0767L253.679 20.8356L216.226 18.8652H204.24L193.753 23.7912L176.774 13.4466L168.784 15.417L159.296 20.8356L150.807 13.4466C142.65 15.9096 125.938 21.4267 124.34 23.7912C122.742 26.1557 116.017 32.658 112.854 35.6137L98.3717 25.7616L85.8872 20.8356L74.9009 25.7616L60.9182 13.4466L51.43 18.8652L32.9529 13.4466Z" fill="white"/>
</g>
</svg>
