<svg width="392" height="68" viewBox="1 0 390 68" preserveAspectRatio="none" fill="none" xmlns="http://www.w3.org/2000/svg">
<path d="M391 6.53749C391 6.53749 372.32 -5.92187 332.49 6.53749C319.21 10.6877 310.46 12.0769 304.68 12.0769" stroke="#D9BBFF" stroke-width="2"/>
<path d="M304.681 12.0769C293.131 12.0769 293.501 6.53749 293.501 6.53749H293.491C293.491 6.53749 294.331 -5.92187 254.501 6.53749C241.221 10.6877 230.301 12.0769 221.631 12.0769" stroke="#D9BBFF" stroke-width="2"/>
<path d="M221.63 12.0769C204.3 12.0769 196 6.53749 196 6.53749C196 6.53749 177.32 -5.92187 137.49 6.53749C124.21 10.6877 115.46 12.0769 109.68 12.0769" stroke="#D9BBFF" stroke-width="2"/>
<path d="M109.681 12.0769C98.1308 12.0769 98.5009 6.53749 98.5009 6.53749H98.4909C98.4909 6.53749 99.3309 -5.92187 59.5009 6.53749C46.2209 10.6877 35.3009 12.0769 26.6309 12.0769" stroke="#D9BBFF" stroke-width="2"/>
<path d="M26.63 12.077C9.3 12.077 1 6.5376 1 6.5376" stroke="#D9BBFF" stroke-width="2"/>
<path fill-rule="evenodd" clip-rule="evenodd" d="M109.68 12.9998H26.6309C35.3009 12.9998 46.2209 11.6106 59.5009 7.46035C99.3309 -4.99902 98.4909 7.46035 98.4909 7.46035H98.5009C98.5009 7.46035 98.1309 12.9996 109.68 12.9998H109.68ZM109.68 12.9998C115.46 12.9997 124.21 11.6104 137.49 7.46035C177.32 -4.99902 196 7.46035 196 7.46035C196 7.46035 204.3 12.9998 221.63 12.9998H109.681H109.68ZM26.63 12.9999H1V7.46045C1 7.46045 9.3 12.9999 26.63 12.9999ZM304.68 12.9998H221.631C230.301 12.9998 241.221 11.6106 254.501 7.46035C294.331 -4.99902 293.491 7.46035 293.491 7.46035H293.501C293.501 7.46035 293.131 12.9996 304.68 12.9998C310.46 12.9997 319.21 11.6104 332.49 7.46035C372.32 -4.99902 391 7.46035 391 7.46035V12.9998H304.681" fill="#CAA2FF"/>
<mask id="mask0_2449_25631" style="mask-type:alpha" maskUnits="userSpaceOnUse" x="0" y="0" width="392" height="68">
<path d="M391 6.53749C391 6.53749 372.32 -5.92187 332.49 6.53749C319.21 10.6877 310.46 12.0769 304.68 12.0769" stroke="#D9BBFF" stroke-width="2"/>
<path d="M304.681 12.0769C293.131 12.0769 293.501 6.53749 293.501 6.53749H293.491C293.491 6.53749 294.331 -5.92187 254.501 6.53749C241.221 10.6877 230.301 12.0769 221.631 12.0769" stroke="#D9BBFF" stroke-width="2"/>
<path d="M221.63 12.0769C204.3 12.0769 196 6.53749 196 6.53749C196 6.53749 177.32 -5.92187 137.49 6.53749C124.21 10.6877 115.46 12.0769 109.68 12.0769" stroke="#D9BBFF" stroke-width="2"/>
<path d="M109.681 12.0769C98.1308 12.0769 98.5009 6.53749 98.5009 6.53749H98.4909C98.4909 6.53749 99.3309 -5.92187 59.5009 6.53749C46.2209 10.6877 35.3009 12.0769 26.6309 12.0769" stroke="#D9BBFF" stroke-width="2"/>
<path d="M26.63 12.077C9.3 12.077 1 6.5376 1 6.5376" stroke="#D9BBFF" stroke-width="2"/>
<path fill-rule="evenodd" clip-rule="evenodd" d="M109.681 12.9998H26.6309C35.3009 12.9998 46.2209 11.6106 59.5009 7.4604C99.3309 -4.99896 98.4909 7.4604 98.4909 7.4604H98.5009C98.5009 7.4604 98.1308 12.9998 109.681 12.9998ZM1 12.9999H26.63C9.3 12.9999 1 7.4605 1 7.4605V12.9999ZM1 13.0001H391V68.0001H1V13.0001ZM109.68 12.9999H221.63C204.3 12.9999 196 7.46045 196 7.46045C196 7.46045 177.32 -4.99891 137.49 7.46045C124.21 11.6107 115.46 12.9999 109.68 12.9999ZM304.681 12.9999H221.631C230.301 12.9999 241.221 11.6107 254.501 7.46051C294.331 -4.99885 293.491 7.46051 293.491 7.46051H293.501C293.501 7.46051 293.131 12.9999 304.681 12.9999ZM391 13V7.46056C391 7.46056 372.32 -4.9988 332.49 7.46056C319.21 11.6108 310.46 13 304.68 13H391Z" fill="#CAA2FF"/>
</mask>
<g mask="url(#mask0_2449_25631)">
<path d="M32.9529 13.3699C24.297 14.6835 -3.00248 32.9787 -5 34.1609V-52.3387C3.82239 -59.0709 22.2662 -49.9746 25.4622 -52.3391C29.4572 -55.2947 90.3817 -50.3687 96.3742 -52.3391C102.367 -54.3095 223.716 -49.3837 228.211 -49.3837C231.806 -49.3837 342.902 -59.7281 398 -52.3391L395.503 27.6554L384.017 23.7145L379.024 34.0592L367.538 20.7589L348.561 18.7885L337.575 20.7589L325.59 27.6554C323.093 24.6998 317.899 18.0989 317.1 15.3403C316.102 11.8921 299.622 23.7145 298.124 23.7145C296.925 23.7145 288.636 33.2382 284.641 38L253.679 20.7589L216.226 18.7885H204.24L193.753 23.7145L176.774 13.3699L168.784 15.3403L159.296 20.7589L150.807 13.3699C142.65 15.8329 125.938 21.3501 124.34 23.7145C122.742 26.079 116.017 32.5814 112.854 35.537L98.3717 25.685L85.8872 20.7589L74.9009 25.685L60.9182 13.3699L51.43 18.7885L32.9529 13.3699Z" fill="white"/>
</g>
</svg>
