<svg width="391" height="67" viewBox="0 0 391 67" preserveAspectRatio="none" fill="none" xmlns="http://www.w3.org/2000/svg">
<rect x="0.320312" y="12" width="390" height="1" fill="#CAA2FF"/>
<mask id="mask0_2462_27628" style="mask-type:alpha" maskUnits="userSpaceOnUse" x="0" y="0" width="391" height="67">
<path fill-rule="evenodd" clip-rule="evenodd" d="M25.9512 12C34.6212 12 45.5412 10.495 58.8212 5.99895C98.6512 -7.49869 97.8112 5.99895 97.8112 5.99895H97.8212C97.8212 5.99895 97.4512 12 109.001 12H109.085C114.866 11.9853 123.595 10.4731 136.81 5.99906C176.64 -7.49858 195.32 5.99906 195.32 5.99906C195.32 5.99906 203.579 11.9706 220.822 12H220.951C229.621 12 240.541 10.495 253.821 5.99895C293.651 -7.49869 292.811 5.99895 292.811 5.99895H292.821C292.821 5.99895 292.451 12 304.001 12H304.32C310.1 12 318.85 10.495 332.13 5.99895C371.96 -7.49869 390.64 5.99895 390.64 5.99895V12H390.32V67H0.320312V12.0001V12V5.99902C0.320312 5.99902 8.58746 11.9763 25.8474 12H25.9512Z" fill="#CAA2FF"/>
</mask>
<g mask="url(#mask0_2462_27628)">
<path d="M32.2732 12.3699C23.6173 13.6835 -3.68217 31.9787 -5.67969 33.1609V-53.3387C3.1427 -60.0709 21.5865 -50.9746 24.7825 -53.3391C28.7776 -56.2947 89.702 -51.3687 95.6945 -53.3391C101.687 -55.3095 223.037 -50.3837 227.531 -50.3837C231.126 -50.3837 342.222 -60.7281 397.32 -53.3391L394.823 26.6554L383.338 22.7145L378.344 33.0592L366.858 19.7589L347.882 17.7885L336.895 19.7589L324.91 26.6554C322.413 23.6998 317.22 17.0989 316.421 14.3403C315.422 10.8921 298.942 22.7145 297.444 22.7145C296.246 22.7145 287.956 32.2382 283.961 37L252.999 19.7589L215.546 17.7885H203.561L193.074 22.7145L176.095 12.3699L168.105 14.3403L158.616 19.7589L150.127 12.3699C141.97 14.8329 125.258 20.3501 123.66 22.7145C122.062 25.079 115.337 31.5814 112.174 34.537L97.6921 24.685L85.2076 19.7589L74.2212 24.685L60.2385 12.3699L50.7503 17.7885L32.2732 12.3699Z" fill="white"/>
</g>
</svg>
