<svg width="392" height="68" viewBox="1 0 390 68" preserveAspectRatio="none" fill="none" xmlns="http://www.w3.org/2000/svg">
<mask id="mask0_4294_15766" style="mask-type:alpha" maskUnits="userSpaceOnUse" x="0" y="0" width="392" height="68">
<path d="M391 7.45937V12.9988H304.68C310.46 12.9988 319.21 11.6096 332.49 7.45937C372.32 -4.99999 391 7.45937 391 7.45937Z" fill="#CAA2FF"/>
<path d="M304.681 12.9988H221.631C230.301 12.9988 241.221 11.6096 254.501 7.45937C294.331 -4.99999 293.491 7.45937 293.491 7.45937H293.501C293.501 7.45937 293.131 12.9988 304.681 12.9988Z" fill="#CAA2FF"/>
<path d="M221.63 12.9988H109.68C115.46 12.9988 124.21 11.6096 137.49 7.45937C177.32 -4.99999 196 7.45937 196 7.45937C196 7.45937 204.3 12.9988 221.63 12.9988Z" fill="#CAA2FF"/>
<path d="M109.681 12.9988H26.6309C35.3009 12.9988 46.2209 11.6096 59.5009 7.45937C99.3309 -4.99999 98.4909 7.45937 98.4909 7.45937H98.5009C98.5009 7.45937 98.1308 12.9988 109.681 12.9988Z" fill="#CAA2FF"/>
<path d="M26.63 13.0004H1V7.46094C1 7.46094 9.3 13.0004 26.63 13.0004Z" fill="#CAA2FF"/>
<path d="M391 6.53749C391 6.53749 372.32 -5.92187 332.49 6.53749C319.21 10.6877 310.46 12.0769 304.68 12.0769" stroke="#D9BBFF" stroke-width="2"/>
<path d="M304.681 12.0769C293.131 12.0769 293.501 6.53749 293.501 6.53749H293.491C293.491 6.53749 294.331 -5.92187 254.501 6.53749C241.221 10.6877 230.301 12.0769 221.631 12.0769" stroke="#D9BBFF" stroke-width="2"/>
<path d="M221.63 12.0769C204.3 12.0769 196 6.53749 196 6.53749C196 6.53749 177.32 -5.92187 137.49 6.53749C124.21 10.6877 115.46 12.0769 109.68 12.0769" stroke="#D9BBFF" stroke-width="2"/>
<path d="M109.681 12.0769C98.1308 12.0769 98.5009 6.53749 98.5009 6.53749H98.4909C98.4909 6.53749 99.3309 -5.92187 59.5009 6.53749C46.2209 10.6877 35.3009 12.0769 26.6309 12.0769" stroke="#D9BBFF" stroke-width="2"/>
<path d="M26.63 12.0765C9.3 12.0765 1 6.53711 1 6.53711" stroke="#D9BBFF" stroke-width="2"/>
<path d="M391 13H1V68H391V13Z" fill="#CAA2FF"/>
</mask>
<g mask="url(#mask0_4294_15766)">
<path d="M31.9529 13.3699C23.297 14.6835 -4.00248 32.9787 -6 34.1609V-52.3387C2.82239 -59.0709 21.2662 -49.9746 24.4622 -52.3391C28.4572 -55.2947 89.3817 -50.3687 95.3742 -52.3391C101.367 -54.3095 222.716 -49.3837 227.211 -49.3837C230.806 -49.3837 341.902 -59.7281 397 -52.3391L394.503 27.6554L383.017 23.7145L378.024 34.0592L366.538 20.7589L347.561 18.7885L336.575 20.7589L324.59 27.6554C322.093 24.6998 316.899 18.0989 316.1 15.3403C315.102 11.8921 298.622 23.7145 297.124 23.7145C295.925 23.7145 287.636 33.2382 283.641 38L252.679 20.7589L215.226 18.7885H203.24L192.753 23.7145L175.774 13.3699L167.784 15.3403L158.296 20.7589L149.807 13.3699C141.65 15.8329 124.938 21.3501 123.34 23.7145C121.742 26.079 115.017 32.5814 111.854 35.537L97.3717 25.685L84.8872 20.7589L73.9009 25.685L59.9182 13.3699L50.43 18.7885L31.9529 13.3699Z" fill="white"/>
</g>
</svg>
