<svg width="392" height="68" viewBox="1 0 390 68" preserveAspectRatio="none" fill="none" xmlns="http://www.w3.org/2000/svg">
<path d="M391 5.65039C383.78 9.01978 374.42 10.991 364.43 10.991" stroke="#FF7171" stroke-width="2"/>
<path d="M364.43 10.9915C355.32 10.9915 345.68 9.35018 336.66 5.6508C322.48 -0.176168 313 5.6508 313 5.6508C305.78 9.02019 296.42 10.9915 286.43 10.9915" stroke="#FF7171" stroke-width="2"/>
<path d="M286.43 10.9915C277.32 10.9915 267.68 9.35018 258.66 5.6508C244.48 -0.176168 235 5.6508 235 5.6508C227.78 9.02019 218.42 10.9915 208.43 10.9915" stroke="#FF7171" stroke-width="2"/>
<path d="M208.43 10.9915C199.32 10.9915 189.68 9.35018 180.66 5.6508C166.48 -0.176168 157 5.6508 157 5.6508C149.38 9.21124 139.24 11.8946 128.57 11.8946V12.077" stroke="#FF7171" stroke-width="2"/>
<path d="M128.57 12.077V11.8947C119.92 11.8947 110.94 10.1318 102.66 5.65089C91.6 -0.341075 79 5.65089 79 5.65089C71.31 9.23738 61.03 12.077 50.25 12.077" stroke="#FF7171" stroke-width="2"/>
<path d="M50.25 12.0769C41.69 12.0769 32.8 10.288 24.66 5.65077C6.26003 -4.81346 1 5.65077 1 5.65077" stroke="#FF7171" stroke-width="2"/>
<path d="M391 6.57373V12.9999H364.43V11.9144C374.42 11.9144 383.78 9.94312 391 6.57373Z" fill="#FE2F2F"/>
<mask id="mask0_2449_25635" style="mask-type:alpha" maskUnits="userSpaceOnUse" x="0" y="-1" width="392" height="69">
<path d="M391 5.65039C383.78 9.01978 374.42 10.991 364.43 10.991" stroke="#FF7171" stroke-width="2"/>
<path d="M364.43 10.9915C355.32 10.9915 345.68 9.35018 336.66 5.6508C322.48 -0.176168 313 5.6508 313 5.6508C305.78 9.02019 296.42 10.9915 286.43 10.9915" stroke="#FF7171" stroke-width="2"/>
<path d="M286.43 10.9915C277.32 10.9915 267.68 9.35018 258.66 5.6508C244.48 -0.176168 235 5.6508 235 5.6508C227.78 9.02019 218.42 10.9915 208.43 10.9915" stroke="#FF7171" stroke-width="2"/>
<path d="M208.43 10.9915C199.32 10.9915 189.68 9.35018 180.66 5.6508C166.48 -0.176168 157 5.6508 157 5.6508C149.38 9.21124 139.24 11.8946 128.57 11.8946V12.077" stroke="#FF7171" stroke-width="2"/>
<path d="M128.57 12.077V11.8947C119.92 11.8947 110.94 10.1318 102.66 5.65089C91.6 -0.341075 79 5.65089 79 5.65089C71.31 9.23738 61.03 12.077 50.25 12.077" stroke="#FF7171" stroke-width="2"/>
<path d="M50.25 12.0769C41.69 12.0769 32.8 10.288 24.66 5.65077C6.26003 -4.81346 1 5.65077 1 5.65077" stroke="#FF7171" stroke-width="2"/>
<path fill-rule="evenodd" clip-rule="evenodd" d="M50.25 12.9997H1V6.57356C1 6.57356 6.26003 -3.89066 24.66 6.57356C32.8 11.2108 41.69 12.9997 50.25 12.9997ZM208.43 11.9148C218.42 11.9148 227.78 9.94357 235 6.57425C235 6.57425 244.48 0.74728 258.66 6.57425C267.68 10.2736 277.32 11.9149 286.43 11.9149C296.42 11.915 305.78 9.94369 313 6.5743C313 6.5743 322.48 0.747334 336.66 6.5743C345.68 10.2737 355.32 11.915 364.43 11.915V11.9143C374.42 11.9143 383.78 9.94307 391 6.57368V12.9998L364.43 12.9999H391V67.9999H1V12.9999H128.57V12.818C139.24 12.818 149.38 10.1346 157 6.57419C157 6.57419 166.48 0.747226 180.66 6.57419C189.68 10.2736 199.32 11.9148 208.43 11.9148ZM128.57 12.9999V12.8175C119.92 12.8175 110.94 11.0547 102.66 6.57374C91.6 0.581776 79 6.57374 79 6.57374C71.31 10.1602 61.03 12.9999 50.25 12.9999H128.57Z" fill="#FE2F2F"/>
</mask>
<g mask="url(#mask0_2449_25635)">
<path d="M33.9529 13.3699C25.297 14.6835 -2.00248 32.9787 -4 34.1609V-52.3387C4.82239 -59.0709 23.2662 -49.9746 26.4622 -52.3391C30.4572 -55.2947 91.3817 -50.3687 97.3742 -52.3391C103.367 -54.3095 224.716 -49.3837 229.211 -49.3837C232.806 -49.3837 343.902 -59.7281 399 -52.3391L396.503 27.6554L385.017 23.7145L380.024 34.0592L368.538 20.7589L349.561 18.7885L338.575 20.7589L326.59 27.6554C324.093 24.6998 318.899 18.0989 318.1 15.3403C317.102 11.8921 300.622 23.7145 299.124 23.7145C297.925 23.7145 289.636 33.2382 285.641 38L254.679 20.7589L217.226 18.7885H205.24L194.753 23.7145L177.774 13.3699L169.784 15.3403L160.296 20.7589L151.807 13.3699C143.65 15.8329 126.938 21.3501 125.34 23.7145C123.742 26.079 117.017 32.5814 113.854 35.537L99.3717 25.685L86.8872 20.7589L75.9009 25.685L61.9182 13.3699L52.43 18.7885L33.9529 13.3699Z" fill="white"/>
</g>
</svg>
