<svg width="392" height="68" viewBox="1 0 390 68" preserveAspectRatio="none" fill="none" xmlns="http://www.w3.org/2000/svg">
<mask id="mask0_4294_15576" style="mask-type:alpha" maskUnits="userSpaceOnUse" x="0" y="0" width="392" height="68">
<path d="M391 6.57422V13.0004H364.43V11.9149C374.42 11.9149 383.78 9.94361 391 6.57422Z" fill="#FE2F2F"/>
<path d="M364.43 11.9148V13.0003H286.43V11.9148C296.42 11.9148 305.78 9.94353 313 6.57414C313 6.57414 322.48 0.747172 336.66 6.57414C345.68 10.2735 355.32 11.9148 364.43 11.9148Z" fill="#FE2F2F"/>
<path d="M286.43 11.9148V13.0003H208.43V11.9148C218.42 11.9148 227.78 9.94353 235 6.57414C235 6.57414 244.48 0.747172 258.66 6.57414C267.68 10.2735 277.32 11.9148 286.43 11.9148Z" fill="#FE2F2F"/>
<path d="M208.43 11.9148V13.0003H128.57V12.8179C139.24 12.8179 149.38 10.1346 157 6.57414C157 6.57414 166.48 0.747172 180.66 6.57414C189.68 10.2735 199.32 11.9148 208.43 11.9148Z" fill="#FE2F2F"/>
<path d="M128.57 12.8171V12.9994H50.25C61.03 12.9994 71.31 10.1597 79 6.57325C79 6.57325 91.6 0.581288 102.66 6.57325C110.94 11.0542 119.92 12.8171 128.57 12.8171Z" fill="#FE2F2F"/>
<path d="M50.25 12.9988H1V6.57264C1 6.57264 6.26003 -3.89158 24.66 6.57264C32.8 11.2099 41.69 12.9988 50.25 12.9988Z" fill="#FE2F2F"/>
<path d="M391 5.65039C383.78 9.01978 374.42 10.991 364.43 10.991" stroke="#FF7171" stroke-width="2"/>
<path d="M364.43 10.991C355.32 10.991 345.68 9.3497 336.66 5.65031C322.48 -0.176657 313 5.65031 313 5.65031C305.78 9.0197 296.42 10.991 286.43 10.991" stroke="#FF7171" stroke-width="2"/>
<path d="M286.43 10.991C277.32 10.991 267.68 9.3497 258.66 5.65031C244.48 -0.176657 235 5.65031 235 5.65031C227.78 9.0197 218.42 10.991 208.43 10.991" stroke="#FF7171" stroke-width="2"/>
<path d="M208.43 10.991C199.32 10.991 189.68 9.3497 180.66 5.65031C166.48 -0.176657 157 5.65031 157 5.65031C149.38 9.21075 139.24 11.8941 128.57 11.8941V12.0765" stroke="#FF7171" stroke-width="2"/>
<path d="M128.57 12.0775V11.8952C119.92 11.8952 110.94 10.1323 102.66 5.65138C91.6 -0.340587 79 5.65138 79 5.65138C71.31 9.23787 61.03 12.0775 50.25 12.0775" stroke="#FF7171" stroke-width="2"/>
<path d="M50.25 12.0769C41.69 12.0769 32.8 10.288 24.66 5.65077C6.26003 -4.81346 1 5.65077 1 5.65077" stroke="#FF7171" stroke-width="2"/>
<path d="M391 13H1V68H391V13Z" fill="#FE2F2F"/>
</mask>
<g mask="url(#mask0_4294_15576)">
<path d="M31.9529 13.3699C23.297 14.6835 -4.00248 32.9787 -6 34.1609V-52.3387C2.82239 -59.0709 21.2662 -49.9746 24.4622 -52.3391C28.4572 -55.2947 89.3817 -50.3687 95.3742 -52.3391C101.367 -54.3095 222.716 -49.3837 227.211 -49.3837C230.806 -49.3837 341.902 -59.7281 397 -52.3391L394.503 27.6554L383.017 23.7145L378.024 34.0592L366.538 20.7589L347.561 18.7885L336.575 20.7589L324.59 27.6554C322.093 24.6998 316.899 18.0989 316.1 15.3403C315.102 11.8921 298.622 23.7145 297.124 23.7145C295.925 23.7145 287.636 33.2382 283.641 38L252.679 20.7589L215.226 18.7885H203.24L192.753 23.7145L175.774 13.3699L167.784 15.3403L158.296 20.7589L149.807 13.3699C141.65 15.8329 124.938 21.3501 123.34 23.7145C121.742 26.079 115.017 32.5814 111.854 35.537L97.3717 25.685L84.8872 20.7589L73.9009 25.685L59.9182 13.3699L50.43 18.7885L31.9529 13.3699Z" fill="white"/>
</g>
</svg>
