<svg width="392" height="69" viewBox="1 0 390 69" preserveAspectRatio="none" fill="none" xmlns="http://www.w3.org/2000/svg">
<mask id="mask0_2458_26461" style="mask-type:alpha" maskUnits="userSpaceOnUse" x="0" y="0" width="392" height="69">
<path d="M391 5.72705C383.78 9.09644 374.42 11.0677 364.43 11.0677" stroke="#FF7171" stroke-width="2"/>
<path d="M364.43 11.0681C355.32 11.0681 345.68 9.42684 336.66 5.72746C322.48 -0.0995082 313 5.72746 313 5.72746C305.78 9.09685 296.42 11.0681 286.43 11.0681" stroke="#FF7171" stroke-width="2"/>
<path d="M286.43 11.0681C277.32 11.0681 267.68 9.42684 258.66 5.72746C244.48 -0.0995082 235 5.72746 235 5.72746C227.78 9.09685 218.42 11.0681 208.43 11.0681" stroke="#FF7171" stroke-width="2"/>
<path d="M208.43 11.0681C199.32 11.0681 189.68 9.42684 180.66 5.72746C166.48 -0.0995082 157 5.72746 157 5.72746C149.38 9.2879 139.24 11.9713 128.57 11.9713V12.1536" stroke="#FF7171" stroke-width="2"/>
<path d="M128.57 12.1537V11.9713C119.92 11.9713 110.94 10.2085 102.66 5.72755C91.6 -0.264415 79 5.72755 79 5.72755C71.31 9.31404 61.03 12.1537 50.25 12.1537" stroke="#FF7171" stroke-width="2"/>
<path d="M50.25 12.1536C41.69 12.1536 32.8 10.3647 24.66 5.72743C6.26003 -4.7368 1 5.72743 1 5.72743" stroke="#FF7171" stroke-width="2"/>
<path fill-rule="evenodd" clip-rule="evenodd" d="M50.25 13.0764H1V6.65028C1 6.65028 6.26003 -3.81395 24.66 6.65028C32.8 11.2875 41.69 13.0764 50.25 13.0764ZM208.43 11.9915C218.42 11.9914 227.78 10.0201 235 6.6508C235 6.6508 244.48 0.823832 258.66 6.6508C267.68 10.3502 277.32 11.9915 286.43 11.9915C296.42 11.9915 305.78 10.0202 313 6.6508C313 6.6508 322.48 0.823832 336.66 6.6508C345.68 10.3502 355.32 11.9915 364.43 11.9915V11.991C374.42 11.991 383.78 10.0198 391 6.65039V13.0765L364.43 13.0767H391V68.0767H1V13.0767H128.57V12.8946C139.24 12.8946 149.38 10.2112 157 6.6508C157 6.6508 166.48 0.823832 180.66 6.6508C189.68 10.3501 199.32 11.9914 208.43 11.9915H208.43ZM128.57 13.0766V12.8942C119.92 12.8942 110.94 11.1313 102.66 6.6504C91.6 0.658437 79 6.6504 79 6.6504C71.31 10.2369 61.03 13.0766 50.25 13.0766H128.57Z" fill="#FE2F2F"/>
</mask>
<g mask="url(#mask0_2458_26461)">
<path d="M33.9529 13.4466C25.297 14.7602 -2.00248 33.0554 -4 34.2376V-52.262C4.82239 -58.9943 23.2662 -49.8979 26.4622 -52.2624C30.4572 -55.218 91.3817 -50.292 97.3742 -52.2624C103.367 -54.2328 224.716 -49.307 229.211 -49.307C232.806 -49.307 343.902 -59.6515 399 -52.2624L396.503 27.732L385.017 23.7912L380.024 34.1358L368.538 20.8356L349.561 18.8652L338.575 20.8356L326.59 27.732C324.093 24.7764 318.899 18.1756 318.1 15.417C317.102 11.9688 300.622 23.7912 299.124 23.7912C297.925 23.7912 289.636 33.3148 285.641 38.0767L254.679 20.8356L217.226 18.8652H205.24L194.753 23.7912L177.774 13.4466L169.784 15.417L160.296 20.8356L151.807 13.4466C143.65 15.9096 126.938 21.4267 125.34 23.7912C123.742 26.1557 117.017 32.658 113.854 35.6137L99.3717 25.7616L86.8872 20.8356L75.9009 25.7616L61.9182 13.4466L52.43 18.8652L33.9529 13.4466Z" fill="white"/>
</g>
</svg>
