<svg width="390" height="67" viewBox="0 0 390 67" preserveAspectRatio="none" fill="none" xmlns="http://www.w3.org/2000/svg">
<rect y="11" width="390" height="2" fill="#FE2F2F"/>
<mask id="mask0_2462_27630" style="mask-type:alpha" maskUnits="userSpaceOnUse" x="0" y="0" width="390" height="67">
<path fill-rule="evenodd" clip-rule="evenodd" d="M49.25 11.0769H0V4.65077C0 4.65077 5.26003 -5.81346 23.66 4.65077C31.8 9.28802 40.69 11.0769 49.25 11.0769ZM207.43 9.99194C217.42 9.99187 226.78 8.02061 234 4.65129C234 4.65129 243.48 -1.17568 257.66 4.65129C266.68 8.35067 276.32 9.99194 285.43 9.99194C295.42 9.99194 304.78 8.02068 312 4.65129C312 4.65129 321.48 -1.17568 335.66 4.65129C344.68 8.35067 354.32 9.99194 363.43 9.99194V9.99154C373.42 9.99154 382.78 8.02027 390 4.65088V11.077L363.43 11.0771H390V66.0771H0V11.0771H127.57V10.8951C138.24 10.8951 148.38 8.21173 156 4.65129C156 4.65129 165.48 -1.17568 179.66 4.65129C188.68 8.35059 198.32 9.99187 207.43 9.99194H207.43ZM127.57 11.077V10.8947C118.92 10.8947 109.94 9.13183 101.66 4.65089C90.6 -1.34107 78 4.65089 78 4.65089C70.31 8.23738 60.03 11.077 49.25 11.077H127.57Z" fill="#FE2F2F"/>
</mask>
<g mask="url(#mask0_2462_27630)">
<path d="M31.9529 11.3699C23.297 12.6835 -4.00248 30.9787 -6 32.1609V-54.3387C2.82239 -61.0709 21.2662 -51.9746 24.4622 -54.3391C28.4572 -57.2947 89.3817 -52.3687 95.3742 -54.3391C101.367 -56.3095 222.716 -51.3837 227.211 -51.3837C230.806 -51.3837 341.902 -61.7281 397 -54.3391L394.503 25.6554L383.017 21.7145L378.024 32.0592L366.538 18.7589L347.561 16.7885L336.575 18.7589L324.59 25.6554C322.093 22.6998 316.899 16.0989 316.1 13.3403C315.102 9.89211 298.622 21.7145 297.124 21.7145C295.925 21.7145 287.636 31.2382 283.641 36L252.679 18.7589L215.226 16.7885H203.24L192.753 21.7145L175.774 11.3699L167.784 13.3403L158.296 18.7589L149.807 11.3699C141.65 13.8329 124.938 19.3501 123.34 21.7145C121.742 24.079 115.017 30.5814 111.854 33.537L97.3717 23.685L84.8872 18.7589L73.9009 23.685L59.9182 11.3699L50.43 16.7885L31.9529 11.3699Z" fill="white"/>
</g>
</svg>
