<svg width="392" height="69" viewBox="1 0 390 69" preserveAspectRatio="none" fill="none" xmlns="http://www.w3.org/2000/svg">
<path fill-rule="evenodd" clip-rule="evenodd" d="M123.15 12.9988H25.6504C32.9904 12.9988 41.5104 11.6096 50.5404 7.45937C77.6504 -5 98.5004 7.45937 98.5004 7.45937C98.5004 7.45937 108.47 12.9988 123.15 12.9988ZM123.151 12.9988L220.65 12.9989C205.97 12.9989 196 7.45943 196 7.45943C196 7.45943 175.15 -4.99994 148.04 7.45943C139.011 11.6095 130.491 12.9988 123.151 12.9988ZM318.15 12.9989L220.651 12.9989C227.991 12.9988 236.511 11.6096 245.54 7.45948C272.65 -4.99989 293.5 7.45948 293.5 7.45948C293.5 7.45948 303.47 12.9989 318.15 12.9989ZM391 12.999H318.15C325.49 12.999 334.01 11.6098 343.04 7.45954C370.15 -4.99983 391 7.45954 391 7.45954V12.999Z" fill="#4E72FF"/>
<path d="M0.999878 6.53711C0.999878 6.53711 10.9699 12.0765 25.6499 12.0765" stroke="white" stroke-width="2"/>
<path d="M25.6499 12.0769C32.9899 12.0769 41.5099 10.6877 50.5399 6.5375C77.6499 -5.92187 98.4999 6.5375 98.4999 6.5375C98.4999 6.5375 108.47 12.0769 123.15 12.0769" stroke="white" stroke-width="2"/>
<path d="M123.15 12.0769C130.49 12.0769 139.01 10.6877 148.04 6.5375C175.15 -5.92187 196 6.5375 196 6.5375C196 6.5375 205.97 12.0769 220.65 12.0769" stroke="white" stroke-width="2"/>
<path d="M220.65 12.0769C227.99 12.0769 236.51 10.6877 245.54 6.5375C272.65 -5.92187 293.5 6.5375 293.5 6.5375C293.5 6.5375 303.47 12.0769 318.15 12.0769" stroke="white" stroke-width="2"/>
<path d="M318.15 12.0769C325.49 12.0769 334.01 10.6877 343.04 6.5375C370.15 -5.92187 391 6.5375 391 6.5375" stroke="white" stroke-width="2"/>
<mask id="mask0_4294_16163" style="mask-type:alpha" maskUnits="userSpaceOnUse" x="1" y="2" width="390" height="67">
<path fill-rule="evenodd" clip-rule="evenodd" d="M98.5004 7.5375C98.5004 7.5375 103.799 10.4816 112.359 12.0771H133.881C138.378 11.2323 143.134 9.79246 148.04 7.5375C175.15 -4.92187 196 7.5375 196 7.5375C196 7.5375 201.299 10.4816 209.859 12.0771H231.381C235.878 11.2323 240.634 9.79246 245.54 7.5375C272.65 -4.92187 293.5 7.5375 293.5 7.5375C293.5 7.5375 298.799 10.4816 307.359 12.0771H328.88C333.378 11.2323 338.134 9.79246 343.04 7.5375C370.15 -4.92187 391 7.5375 391 7.5375V12.0771V13.0769V68.0771H1V12.0771H36.3806C40.8784 11.2323 45.6341 9.79246 50.5404 7.5375C77.6504 -4.92187 98.5004 7.5375 98.5004 7.5375Z" fill="#4E72FF"/>
</mask>
<g mask="url(#mask0_4294_16163)">
<path d="M31.9529 11.4481C23.297 12.7617 -4.00248 31.0568 -6 32.2391V-54.2606C2.82239 -60.9928 21.2662 -51.8965 24.4622 -54.261C28.4572 -57.2166 89.3817 -52.2906 95.3742 -54.261C101.367 -56.2314 222.716 -51.3055 227.211 -51.3055C230.806 -51.3055 341.902 -61.65 397 -54.261L394.503 25.7335L383.017 21.7927L378.024 32.1373L366.538 18.8371L347.561 16.8667L336.575 18.8371L324.59 25.7335C322.093 22.7779 316.899 16.177 316.1 13.4184C315.102 9.97024 298.622 21.7927 297.124 21.7927C295.925 21.7927 287.636 31.3163 283.641 36.0781L252.679 18.8371L215.226 16.8667H203.24L192.753 21.7927L175.774 11.4481L167.784 13.4184L158.296 18.8371L149.807 11.4481C141.65 13.9111 124.938 19.4282 123.34 21.7927C121.742 24.1572 115.017 30.6595 111.854 33.6151L97.3717 23.7631L84.8872 18.8371L73.9009 23.7631L59.9182 11.4481L50.43 16.8667L31.9529 11.4481Z" fill="white"/>
</g>
<path d="M1.00037 7.46094V13.0004H25.6504C10.9704 13.0004 1.00037 7.46094 1.00037 7.46094Z" fill="white"/>
</svg>
