<svg width="392" height="68" viewBox="1 0 390 68" preserveAspectRatio="none" fill="none" xmlns="http://www.w3.org/2000/svg">
<path fill-rule="evenodd" clip-rule="evenodd" d="M25.65 12.9993H123.15C108.47 12.9993 98.5 7.45986 98.5 7.45986C98.5 7.45986 77.65 -4.99951 50.54 7.45986C41.51 11.6101 32.99 12.9993 25.65 12.9993ZM220.65 12.9993L123.151 12.9993C130.491 12.9992 139.01 11.61 148.04 7.45991C175.15 -4.99945 196 7.45991 196 7.45991C196 7.45991 205.97 12.9993 220.65 12.9993ZM220.651 12.9993L318.15 12.9994C303.47 12.9994 293.5 7.45997 293.5 7.45997C293.5 7.45997 272.65 -4.9994 245.54 7.45997C236.51 11.61 227.991 12.9993 220.651 12.9993ZM318.15 12.9994H391V7.46002C391 7.46002 370.15 -4.99935 343.04 7.46002C334.01 11.6103 325.49 12.9994 318.15 12.9994ZM1 12.9996V7.46018C1 7.46018 10.97 12.9996 25.65 12.9996H1Z" fill="#4E72FF"/>
<path d="M1.00037 6.5376C1.00037 6.5376 10.9704 12.077 25.6504 12.077" stroke="#9BACF1" stroke-width="2"/>
<path d="M25.6504 12.0769C32.9904 12.0769 41.5104 10.6877 50.5404 6.5375C77.6504 -5.92187 98.5004 6.5375 98.5004 6.5375C98.5004 6.5375 108.47 12.0769 123.15 12.0769" stroke="#9BACF1" stroke-width="2"/>
<path d="M123.15 12.0769C130.49 12.0769 139.01 10.6877 148.04 6.5375C175.15 -5.92187 196 6.5375 196 6.5375C196 6.5375 205.97 12.0769 220.65 12.0769" stroke="#9BACF1" stroke-width="2"/>
<path d="M220.65 12.0769C227.99 12.0769 236.51 10.6877 245.54 6.5375C272.65 -5.92187 293.5 6.5375 293.5 6.5375C293.5 6.5375 303.47 12.0769 318.15 12.0769" stroke="#9BACF1" stroke-width="2"/>
<path d="M318.15 12.0769C325.49 12.0769 334.01 10.6877 343.04 6.5375C370.15 -5.92187 391 6.5375 391 6.5375" stroke="#9BACF1" stroke-width="2"/>
<mask id="mask0_2449_25624" style="mask-type:alpha" maskUnits="userSpaceOnUse" x="0" y="0" width="392" height="68">
<path fill-rule="evenodd" clip-rule="evenodd" d="M112.359 12C103.799 10.4045 98.5004 7.46035 98.5004 7.46035C98.5004 7.46035 77.6504 -4.99902 50.5404 7.46035C45.6341 9.71531 40.8784 11.1552 36.3806 12H14.8584C6.29904 10.4044 1.00037 7.46045 1.00037 7.46045V12H1V68H391V12.9998V12V7.46035C391 7.46035 370.15 -4.99902 343.04 7.46035C338.134 9.71531 333.378 11.1552 328.88 12H307.359C298.799 10.4045 293.5 7.46035 293.5 7.46035C293.5 7.46035 272.65 -4.99902 245.54 7.46035C240.634 9.71531 235.878 11.1552 231.381 12H209.859C201.299 10.4045 196 7.46035 196 7.46035C196 7.46035 175.15 -4.99902 148.04 7.46035C143.134 9.71531 138.378 11.1552 133.881 12H112.359Z" fill="#4E72FF"/>
<path d="M1.00037 6.5376C1.00037 6.5376 10.9704 12.077 25.6504 12.077" stroke="#9BACF1" stroke-width="2"/>
<path d="M25.6504 12.0769C32.9904 12.0769 41.5104 10.6877 50.5404 6.5375C77.6504 -5.92187 98.5004 6.5375 98.5004 6.5375C98.5004 6.5375 108.47 12.0769 123.15 12.0769" stroke="#9BACF1" stroke-width="2"/>
<path d="M123.15 12.0769C130.49 12.0769 139.01 10.6877 148.04 6.5375C175.15 -5.92187 196 6.5375 196 6.5375C196 6.5375 205.97 12.0769 220.65 12.0769" stroke="#9BACF1" stroke-width="2"/>
<path d="M220.65 12.0769C227.99 12.0769 236.51 10.6877 245.54 6.5375C272.65 -5.92187 293.5 6.5375 293.5 6.5375C293.5 6.5375 303.47 12.0769 318.15 12.0769" stroke="#9BACF1" stroke-width="2"/>
<path d="M318.15 12.0769C325.49 12.0769 334.01 10.6877 343.04 6.5375C370.15 -5.92187 391 6.5375 391 6.5375" stroke="#9BACF1" stroke-width="2"/>
</mask>
<g mask="url(#mask0_2449_25624)">
<path d="M32.9529 13.3699C24.297 14.6835 -3.00248 32.9787 -5 34.1609V-52.3387C3.82239 -59.0709 22.2662 -49.9746 25.4622 -52.3391C29.4572 -55.2947 90.3817 -50.3687 96.3742 -52.3391C102.367 -54.3095 223.716 -49.3837 228.211 -49.3837C231.806 -49.3837 342.902 -59.7281 398 -52.3391L395.503 27.6554L384.017 23.7145L379.024 34.0592L367.538 20.7589L348.561 18.7885L337.575 20.7589L325.59 27.6554C323.093 24.6998 317.899 18.0989 317.1 15.3403C316.102 11.8921 299.622 23.7145 298.124 23.7145C296.925 23.7145 288.636 33.2382 284.641 38L253.679 20.7589L216.226 18.7885H204.24L193.753 23.7145L176.774 13.3699L168.784 15.3403L159.296 20.7589L150.807 13.3699C142.65 15.8329 125.938 21.3501 124.34 23.7145C122.742 26.079 116.017 32.5814 112.854 35.537L98.3717 25.685L85.8872 20.7589L74.9009 25.685L60.9182 13.3699L51.43 18.7885L32.9529 13.3699Z" fill="white"/>
</g>
</svg>
