<svg width="392" height="69" viewBox="1 0 390 69" preserveAspectRatio="none" fill="none" xmlns="http://www.w3.org/2000/svg">
<mask id="mask0_2458_26456" style="mask-type:alpha" maskUnits="userSpaceOnUse" x="0" y="0" width="392" height="69">
<path fill-rule="evenodd" clip-rule="evenodd" d="M112.359 12.0767C103.799 10.4811 98.5004 7.53701 98.5004 7.53701C98.5004 7.53701 77.6504 -4.92236 50.5404 7.53701C45.6341 9.79197 40.8784 11.2318 36.3806 12.0767H14.8584C6.29904 10.4811 1.00037 7.53711 1.00037 7.53711V12.0767H1V68.0767H391V13.0764V12.0767V7.53701C391 7.53701 370.15 -4.92236 343.04 7.53701C338.134 9.79197 333.378 11.2318 328.88 12.0767H307.359C298.799 10.4811 293.5 7.53701 293.5 7.53701C293.5 7.53701 272.65 -4.92236 245.54 7.53701C240.634 9.79197 235.878 11.2318 231.381 12.0767H209.859C201.299 10.4811 196 7.53701 196 7.53701C196 7.53701 175.15 -4.92236 148.04 7.53701C143.134 9.79197 138.378 11.2318 133.881 12.0767H112.359Z" fill="#4E72FF"/>
<path d="M1.00037 6.61426C1.00037 6.61426 10.9704 12.1537 25.6504 12.1537" stroke="#9BACF1" stroke-width="2"/>
<path d="M25.6504 12.1536C32.9904 12.1536 41.5104 10.7644 50.5404 6.61416C77.6504 -5.84521 98.5004 6.61416 98.5004 6.61416C98.5004 6.61416 108.47 12.1536 123.15 12.1536" stroke="#9BACF1" stroke-width="2"/>
<path d="M123.15 12.1536C130.49 12.1536 139.01 10.7644 148.04 6.61416C175.15 -5.84521 196 6.61416 196 6.61416C196 6.61416 205.97 12.1536 220.65 12.1536" stroke="#9BACF1" stroke-width="2"/>
<path d="M220.65 12.1536C227.99 12.1536 236.51 10.7644 245.54 6.61416C272.65 -5.84521 293.5 6.61416 293.5 6.61416C293.5 6.61416 303.47 12.1536 318.15 12.1536" stroke="#9BACF1" stroke-width="2"/>
<path d="M318.15 12.1536C325.49 12.1536 334.01 10.7644 343.04 6.61416C370.15 -5.84521 391 6.61416 391 6.61416" stroke="#9BACF1" stroke-width="2"/>
</mask>
<g mask="url(#mask0_2458_26456)">
<path d="M32.9529 13.4466C24.297 14.7602 -3.00248 33.0554 -5 34.2376V-52.262C3.82239 -58.9943 22.2662 -49.8979 25.4622 -52.2624C29.4572 -55.218 90.3817 -50.292 96.3742 -52.2624C102.367 -54.2328 223.716 -49.307 228.211 -49.307C231.806 -49.307 342.902 -59.6515 398 -52.2624L395.503 27.732L384.017 23.7912L379.024 34.1358L367.538 20.8356L348.561 18.8652L337.575 20.8356L325.59 27.732C323.093 24.7764 317.899 18.1756 317.1 15.417C316.102 11.9688 299.622 23.7912 298.124 23.7912C296.925 23.7912 288.636 33.3148 284.641 38.0767L253.679 20.8356L216.226 18.8652H204.24L193.753 23.7912L176.774 13.4466L168.784 15.417L159.296 20.8356L150.807 13.4466C142.65 15.9096 125.938 21.4267 124.34 23.7912C122.742 26.1557 116.017 32.658 112.854 35.6137L98.3717 25.7616L85.8872 20.8356L74.9009 25.7616L60.9182 13.4466L51.43 18.8652L32.9529 13.4466Z" fill="white"/>
</g>
</svg>
