<svg width="390" height="67" viewBox="0 0 390 67" preserveAspectRatio="none" fill="none" xmlns="http://www.w3.org/2000/svg">
<rect width="390" height="1" transform="matrix(1 0 0 -1 0 13)" fill="#4E72FF"/>
<path fill-rule="evenodd" clip-rule="evenodd" d="M390 5.99891V11.9999V12.9999H0V11.9999V5.99891C0 5.99891 9.9707 11.9999 24.6504 11.9999C31.9902 11.9999 40.5098 10.495 49.541 5.99891C76.6504 -7.49864 97.5 5.99891 97.5 5.99891C97.5 5.99891 107.471 11.9999 122.15 11.9999C129.49 11.9999 138.01 10.495 147.041 5.99891C174.15 -7.49864 195 5.99891 195 5.99891C195 5.99891 204.971 11.9999 219.65 11.9999C226.99 11.9999 235.51 10.495 244.541 5.99891C271.65 -7.49864 292.5 5.99891 292.5 5.99891C292.5 5.99891 302.471 11.9999 317.15 11.9999C324.49 11.9999 333.01 10.495 342.041 5.99891C369.15 -7.49864 390 5.99891 390 5.99891Z" fill="#4E72FF"/>
<mask id="mask0_2462_27624" style="mask-type:alpha" maskUnits="userSpaceOnUse" x="0" y="0" width="390" height="67">
<path fill-rule="evenodd" clip-rule="evenodd" d="M122.15 12C107.47 12 97.5004 5.99896 97.5004 5.99896C97.5004 5.99896 76.6504 -7.49869 49.5404 5.99896C40.5104 10.495 31.9904 12 24.6504 12H24.5644C9.93149 11.9766 0.000366211 5.99902 0.000366211 5.99902V12.0001L-3.05176e-05 12V67H390V12.0001V12V5.99906C390 5.99906 369.15 -7.49859 342.04 5.99906C333.054 10.4731 324.574 11.9853 317.258 12H317.15C302.47 12 292.5 5.99896 292.5 5.99896C292.5 5.99896 271.65 -7.49869 244.54 5.99896C235.51 10.495 226.99 12 219.65 12H219.542C204.921 11.9706 195 5.99906 195 5.99906C195 5.99906 174.15 -7.49859 147.04 5.99906C138.055 10.4731 129.574 11.9854 122.258 12H122.15Z" fill="#4E72FF"/>
</mask>
<g mask="url(#mask0_2462_27624)">
<path d="M31.9529 12.3699C23.297 13.6835 -4.00248 31.9787 -6 33.1609V-53.3387C2.82239 -60.0709 21.2662 -50.9746 24.4622 -53.3391C28.4572 -56.2947 89.3817 -51.3687 95.3742 -53.3391C101.367 -55.3095 222.716 -50.3837 227.211 -50.3837C230.806 -50.3837 341.902 -60.7281 397 -53.3391L394.503 26.6554L383.017 22.7145L378.024 33.0592L366.538 19.7589L347.561 17.7885L336.575 19.7589L324.59 26.6554C322.093 23.6998 316.899 17.0989 316.1 14.3403C315.102 10.8921 298.622 22.7145 297.124 22.7145C295.925 22.7145 287.636 32.2382 283.641 37L252.679 19.7589L215.226 17.7885H203.24L192.753 22.7145L175.774 12.3699L167.784 14.3403L158.296 19.7589L149.807 12.3699C141.65 14.8329 124.938 20.3501 123.34 22.7145C121.742 25.079 115.017 31.5814 111.854 34.537L97.3717 24.685L84.8872 19.7589L73.9009 24.685L59.9182 12.3699L50.43 17.7885L31.9529 12.3699Z" fill="white"/>
</g>
</svg>
