<svg width="390" height="67" viewBox="0 0 390 67" preserveAspectRatio="none" fill="none" xmlns="http://www.w3.org/2000/svg">
<mask id="mask0_4294_16180" style="mask-type:alpha" maskUnits="userSpaceOnUse" x="0" y="0" width="390" height="67">
<path fill-rule="evenodd" clip-rule="evenodd" d="M97.5004 5.5375C97.5004 5.5375 102.799 8.48161 111.359 10.0771H132.881C137.378 9.23233 142.134 7.79246 147.04 5.5375C174.15 -6.92187 195 5.5375 195 5.5375C195 5.5375 200.299 8.48161 208.859 10.0771H230.381C234.878 9.23233 239.634 7.79246 244.54 5.5375C271.65 -6.92187 292.5 5.5375 292.5 5.5375C292.5 5.5375 297.799 8.48161 306.359 10.0771H327.88C332.378 9.23233 337.134 7.79246 342.04 5.5375C369.15 -6.92187 390 5.5375 390 5.5375V10.0771V11.0769V66.0771H0V10.0771H35.3806C39.8784 9.23233 44.6341 7.79246 49.5404 5.5375C76.6504 -6.92187 97.5004 5.5375 97.5004 5.5375Z" fill="#4E72FF"/>
</mask>
<g mask="url(#mask0_4294_16180)">
<path d="M30.9529 9.44805C22.297 10.7617 -5.00248 29.0568 -7 30.2391V-56.2606C1.82239 -62.9928 20.2662 -53.8965 23.4622 -56.261C27.4572 -59.2166 88.3817 -54.2906 94.3742 -56.261C100.367 -58.2314 221.716 -53.3055 226.211 -53.3055C229.806 -53.3055 340.902 -63.65 396 -56.261L393.503 23.7335L382.017 19.7927L377.024 30.1373L365.538 16.8371L346.561 14.8667L335.575 16.8371L323.59 23.7335C321.093 20.7779 315.899 14.177 315.1 11.4184C314.102 7.97024 297.622 19.7927 296.124 19.7927C294.925 19.7927 286.636 29.3163 282.641 34.0781L251.679 16.8371L214.226 14.8667H202.24L191.753 19.7927L174.774 9.44805L166.784 11.4184L157.296 16.8371L148.807 9.44805C140.65 11.9111 123.938 17.4282 122.34 19.7927C120.742 22.1572 114.017 28.6595 110.854 31.6151L96.3717 21.7631L83.8872 16.8371L72.9009 21.7631L58.9182 9.44805L49.43 14.8667L30.9529 9.44805Z" fill="white"/>
</g>
</svg>
