<svg width="391" height="67" viewBox="0 0 391 67" preserveAspectRatio="none" fill="none" xmlns="http://www.w3.org/2000/svg">
<rect x="0.320312" y="12" width="390" height="1" fill="#FF7B35"/>
<mask id="mask0_2462_27626" style="mask-type:alpha" maskUnits="userSpaceOnUse" x="0" y="0" width="391" height="67">
<path fill-rule="evenodd" clip-rule="evenodd" d="M254.791 12C269.236 12 292.821 5.99895 292.821 5.99895C292.821 5.99895 345.891 -7.49869 341.571 5.99895C340.131 10.495 345.066 12 352.291 12H352.376C366.828 11.9766 390.321 5.99902 390.321 5.99902V12.0001L390.32 12V67H0.320312V12.0001V12V5.99906C0.320312 5.99906 53.3904 -7.49859 49.0704 5.99906C47.6374 10.4731 52.5171 11.9853 59.6842 12H59.791C74.236 12 97.8211 5.99895 97.8211 5.99895C97.8211 5.99895 150.891 -7.49869 146.571 5.99895C145.131 10.495 150.066 12 157.291 12H157.376C171.781 11.9767 195.167 6.03813 195.32 5.99922V5.99895C195.32 5.99895 248.39 -7.49869 244.07 5.99895C242.63 10.495 247.565 12 254.79 12H254.791Z" fill="#FF7B35"/>
</mask>
<g mask="url(#mask0_2462_27626)">
<path d="M32.2732 12.3699C23.6173 13.6835 -3.68217 31.9787 -5.67969 33.1609V-53.3387C3.1427 -60.0709 21.5865 -50.9746 24.7825 -53.3391C28.7776 -56.2947 89.702 -51.3687 95.6945 -53.3391C101.687 -55.3095 223.037 -50.3837 227.531 -50.3837C231.126 -50.3837 342.222 -60.7281 397.32 -53.3391L394.823 26.6554L383.338 22.7145L378.344 33.0592L366.858 19.7589L347.882 17.7885L336.895 19.7589L324.91 26.6554C322.413 23.6998 317.22 17.0989 316.421 14.3403C315.422 10.8921 298.942 22.7145 297.444 22.7145C296.246 22.7145 287.956 32.2382 283.961 37L252.999 19.7589L215.546 17.7885H203.561L193.074 22.7145L176.095 12.3699L168.105 14.3403L158.616 19.7589L150.127 12.3699C141.97 14.8329 125.258 20.3501 123.66 22.7145C122.062 25.079 115.337 31.5814 112.174 34.537L97.6921 24.685L85.2076 19.7589L74.2212 24.685L60.2385 12.3699L50.7503 17.7885L32.2732 12.3699Z" fill="white"/>
</g>
</svg>
