<svg width="392" height="68" viewBox="1 0 390 68" preserveAspectRatio="none" fill="none" xmlns="http://www.w3.org/2000/svg">
<path d="M195.999 6.5376C195.999 6.5376 172.414 12.077 157.969 12.077" stroke="#FFA474" stroke-width="2"/>
<path d="M157.971 12.0769C150.746 12.0769 145.811 10.6877 147.251 6.5375C151.571 -5.92187 98.5008 6.5375 98.5008 6.5375C98.5008 6.5375 74.9157 12.0769 60.4707 12.0769" stroke="#FFA474" stroke-width="2"/>
<path d="M60.47 12.0769C53.245 12.0769 48.3101 10.6877 49.7501 6.5375C54.0701 -5.92187 1 6.5375 1 6.5375" stroke="#FFA474" stroke-width="2"/>
<path d="M390.999 6.5376C390.999 6.5376 367.414 12.077 352.969 12.077" stroke="#FFA474" stroke-width="2"/>
<path d="M352.971 12.0769C345.746 12.0769 340.811 10.6877 342.251 6.5375C346.571 -5.92187 293.501 6.5375 293.501 6.5375C293.501 6.5375 269.916 12.0769 255.471 12.0769" stroke="#FFA474" stroke-width="2"/>
<path d="M255.47 12.0769C248.245 12.0769 243.31 10.6877 244.75 6.5375C249.07 -5.92187 196 6.5375 196 6.5375" stroke="#FFA474" stroke-width="2"/>
<path fill-rule="evenodd" clip-rule="evenodd" d="M1 12.9998H60.47H157.97C150.745 12.9998 145.81 11.6106 147.25 7.46035C151.57 -4.99902 98.4998 7.46035 98.4998 7.46035C98.4998 7.46035 74.9147 12.9998 60.47 12.9998C53.245 12.9998 48.3101 11.6106 49.7501 7.46035C54.0701 -4.99902 1 7.46035 1 7.46035V12.9998ZM196 7.46045V12.9999H157.97C172.415 12.9999 196 7.46045 196 7.46045ZM196 12.9998L255.46 12.9998C255.463 12.9998 255.467 12.9998 255.47 12.9998L352.97 12.9998L391 12.9999V7.46045C391 7.46045 367.415 12.9999 352.97 12.9998C345.745 12.9998 340.81 11.6106 342.25 7.46035C346.57 -4.99902 293.5 7.46035 293.5 7.46035C293.5 7.46035 269.915 12.9998 255.47 12.9998H255.46C248.24 12.9984 243.311 11.6086 244.75 7.46035C249.07 -4.99902 196 7.46035 196 7.46035V12.9998Z" fill="#FF7B35"/>
<mask id="mask0_2449_25629" style="mask-type:alpha" maskUnits="userSpaceOnUse" x="0" y="0" width="392" height="68">
<path d="M195.999 6.5376C195.999 6.5376 172.414 12.077 157.969 12.077" stroke="#FFA474" stroke-width="2"/>
<path d="M157.971 12.0769C150.746 12.0769 145.811 10.6877 147.251 6.5375C151.571 -5.92187 98.5008 6.5375 98.5008 6.5375C98.5008 6.5375 74.9157 12.0769 60.4707 12.0769" stroke="#FFA474" stroke-width="2"/>
<path d="M60.47 12.0769C53.245 12.0769 48.3101 10.6877 49.7501 6.5375C54.0701 -5.92187 1 6.5375 1 6.5375" stroke="#FFA474" stroke-width="2"/>
<path d="M390.999 6.5376C390.999 6.5376 367.414 12.077 352.969 12.077" stroke="#FFA474" stroke-width="2"/>
<path d="M352.971 12.0769C345.746 12.0769 340.811 10.6877 342.251 6.5375C346.571 -5.92187 293.501 6.5375 293.501 6.5375C293.501 6.5375 269.916 12.0769 255.471 12.0769" stroke="#FFA474" stroke-width="2"/>
<path d="M255.47 12.0769C248.245 12.0769 243.31 10.6877 244.75 6.5375C249.07 -5.92187 196 6.5375 196 6.5375" stroke="#FFA474" stroke-width="2"/>
<path fill-rule="evenodd" clip-rule="evenodd" d="M352.97 12.9997H255.47C269.915 12.9997 293.5 7.46024 293.5 7.46024C293.5 7.46024 346.57 -4.99913 342.25 7.46024C340.81 11.6105 345.745 12.9997 352.97 12.9997ZM352.97 12.9997L391 12.9998V7.46039C391 7.46039 367.415 12.9998 352.97 12.9997ZM60.47 12.9997H1V7.46029C1 7.46029 54.0701 -4.99907 49.7501 7.46029C48.3101 11.6105 53.245 12.9997 60.47 12.9997ZM391 67.9999V12.9999H1V67.9999H391ZM60.4697 12.9998H157.97C150.745 12.9998 145.81 11.6106 147.25 7.46035C151.57 -4.99902 98.4998 7.46035 98.4998 7.46035C98.4998 7.46035 74.9147 12.9998 60.4697 12.9998ZM196 7.4605V12.9999H157.97C172.415 12.9999 196 7.4605 196 7.4605ZM196 12.9999H255.47C248.245 12.9999 243.31 11.6107 244.75 7.46046C249.07 -4.99891 196 7.46046 196 7.46046V12.9999Z" fill="#FF7B35"/>
</mask>
<g mask="url(#mask0_2449_25629)">
<path d="M32.9529 13.3699C24.297 14.6835 -3.00248 32.9787 -5 34.1609V-52.3387C3.82239 -59.0709 22.2662 -49.9746 25.4622 -52.3391C29.4572 -55.2947 90.3817 -50.3687 96.3742 -52.3391C102.367 -54.3095 223.716 -49.3837 228.211 -49.3837C231.806 -49.3837 342.902 -59.7281 398 -52.3391L395.503 27.6554L384.017 23.7145L379.024 34.0592L367.538 20.7589L348.561 18.7885L337.575 20.7589L325.59 27.6554C323.093 24.6998 317.899 18.0989 317.1 15.3403C316.102 11.8921 299.622 23.7145 298.124 23.7145C296.925 23.7145 288.636 33.2382 284.641 38L253.679 20.7589L216.226 18.7885H204.24L193.753 23.7145L176.774 13.3699L168.784 15.3403L159.296 20.7589L150.807 13.3699C142.65 15.8329 125.938 21.3501 124.34 23.7145C122.742 26.079 116.017 32.5814 112.854 35.537L98.3717 25.685L85.8872 20.7589L74.9009 25.685L60.9182 13.3699L51.43 18.7885L32.9529 13.3699Z" fill="white"/>
</g>
</svg>
