<svg width="392" height="69" viewBox="1 0 390 69" preserveAspectRatio="none" fill="none" xmlns="http://www.w3.org/2000/svg">
<path d="M195.999 6.61426C195.999 6.61426 172.414 12.1537 157.969 12.1537" stroke="#FFA474" stroke-width="2"/>
<path d="M157.971 12.1536C150.746 12.1536 145.811 10.7644 147.251 6.61416C151.571 -5.84521 98.5008 6.61416 98.5008 6.61416C98.5008 6.61416 74.9157 12.1536 60.4707 12.1536" stroke="#FFA474" stroke-width="2"/>
<path d="M60.47 12.1536C53.245 12.1536 48.3101 10.7644 49.7501 6.61416C54.0701 -5.84521 1 6.61416 1 6.61416" stroke="#FFA474" stroke-width="2"/>
<path d="M390.999 6.61426C390.999 6.61426 367.414 12.1537 352.969 12.1537" stroke="#FFA474" stroke-width="2"/>
<path d="M352.971 12.1536C345.746 12.1536 340.811 10.7644 342.251 6.61416C346.571 -5.84521 293.501 6.61416 293.501 6.61416C293.501 6.61416 269.916 12.1536 255.471 12.1536" stroke="#FFA474" stroke-width="2"/>
<path d="M255.47 12.1536C248.245 12.1536 243.31 10.7644 244.75 6.61416C249.07 -5.84521 196 6.61416 196 6.61416" stroke="#FFA474" stroke-width="2"/>
<path fill-rule="evenodd" clip-rule="evenodd" d="M1 13.0764H60.47H157.97C150.745 13.0764 145.81 11.6872 147.25 7.53701C151.57 -4.92236 98.4998 7.53701 98.4998 7.53701C98.4998 7.53701 74.9147 13.0764 60.47 13.0764C53.245 13.0764 48.3101 11.6872 49.7501 7.53701C54.0701 -4.92236 1 7.53701 1 7.53701V13.0764ZM196 7.53711V13.0765H157.97C172.415 13.0765 196 7.53711 196 7.53711ZM196 13.0764L255.46 13.0764C255.463 13.0764 255.467 13.0764 255.47 13.0764L352.97 13.0764L391 13.0765V7.53711C391 7.53711 367.415 13.0765 352.97 13.0764C345.745 13.0764 340.81 11.6872 342.25 7.53701C346.57 -4.92236 293.5 7.53701 293.5 7.53701C293.5 7.53701 269.915 13.0764 255.47 13.0764H255.46C248.24 13.0751 243.311 11.6853 244.75 7.53701C249.07 -4.92236 196 7.53701 196 7.53701V13.0764Z" fill="#FF7B35"/>
<mask id="mask0_2458_26455" style="mask-type:alpha" maskUnits="userSpaceOnUse" x="0" y="0" width="392" height="69">
<path d="M195.999 6.61426C195.999 6.61426 172.414 12.1537 157.969 12.1537" stroke="#FFA474" stroke-width="2"/>
<path d="M157.971 12.1536C150.746 12.1536 145.811 10.7644 147.251 6.61416C151.571 -5.84521 98.5008 6.61416 98.5008 6.61416C98.5008 6.61416 74.9157 12.1536 60.4707 12.1536" stroke="#FFA474" stroke-width="2"/>
<path d="M60.47 12.1536C53.245 12.1536 48.3101 10.7644 49.7501 6.61416C54.0701 -5.84521 1 6.61416 1 6.61416" stroke="#FFA474" stroke-width="2"/>
<path d="M390.999 6.61426C390.999 6.61426 367.414 12.1537 352.969 12.1537" stroke="#FFA474" stroke-width="2"/>
<path d="M352.971 12.1536C345.746 12.1536 340.811 10.7644 342.251 6.61416C346.571 -5.84521 293.501 6.61416 293.501 6.61416C293.501 6.61416 269.916 12.1536 255.471 12.1536" stroke="#FFA474" stroke-width="2"/>
<path d="M255.47 12.1536C248.245 12.1536 243.31 10.7644 244.75 6.61416C249.07 -5.84521 196 6.61416 196 6.61416" stroke="#FFA474" stroke-width="2"/>
<path fill-rule="evenodd" clip-rule="evenodd" d="M60.4697 13.0764H1V7.53701C1 7.53701 54.0701 -4.92236 49.7501 7.53701C48.3101 11.6872 53.245 13.0764 60.4699 13.0764H60.4697ZM60.4699 13.0764C74.9149 13.0764 98.4998 7.53701 98.4998 7.53701C98.4998 7.53701 151.57 -4.92236 147.25 7.53701C145.81 11.6872 150.745 13.0764 157.97 13.0764H60.47H60.4699ZM391 13.0767H1V68.0767H391V13.0767ZM196 7.53711V13.0765H157.97C172.415 13.0765 196 7.53711 196 7.53711ZM196 13.0764L255.46 13.0764C255.463 13.0764 255.467 13.0764 255.47 13.0764L352.97 13.0764L391 13.0765V7.53711C391 7.53711 367.415 13.0765 352.97 13.0764C345.745 13.0764 340.81 11.6872 342.25 7.53701C346.57 -4.92236 293.5 7.53701 293.5 7.53701C293.5 7.53701 269.915 13.0764 255.47 13.0764H255.46C248.24 13.0751 243.311 11.6853 244.75 7.53701C249.07 -4.92236 196 7.53701 196 7.53701V13.0764Z" fill="#FF7B35"/>
</mask>
<g mask="url(#mask0_2458_26455)">
<path d="M32.9529 13.4466C24.297 14.7602 -3.00248 33.0554 -5 34.2376V-52.262C3.82239 -58.9943 22.2662 -49.8979 25.4622 -52.2624C29.4572 -55.218 90.3817 -50.292 96.3742 -52.2624C102.367 -54.2328 223.716 -49.307 228.211 -49.307C231.806 -49.307 342.902 -59.6515 398 -52.2624L395.503 27.732L384.017 23.7912L379.024 34.1358L367.538 20.8356L348.561 18.8652L337.575 20.8356L325.59 27.732C323.093 24.7764 317.899 18.1756 317.1 15.417C316.102 11.9688 299.622 23.7912 298.124 23.7912C296.925 23.7912 288.636 33.3148 284.641 38.0767L253.679 20.8356L216.226 18.8652H204.24L193.753 23.7912L176.774 13.4466L168.784 15.417L159.296 20.8356L150.807 13.4466C142.65 15.9096 125.938 21.4267 124.34 23.7912C122.742 26.1557 116.017 32.658 112.854 35.6137L98.3717 25.7616L85.8872 20.8356L74.9009 25.7616L60.9182 13.4466L51.43 18.8652L32.9529 13.4466Z" fill="white"/>
</g>
</svg>
