<svg width="392" height="68" viewBox="1 0 390 68" preserveAspectRatio="none" fill="none" xmlns="http://www.w3.org/2000/svg">
<mask id="mask0_4294_15940" style="mask-type:alpha" maskUnits="userSpaceOnUse" x="0" y="0" width="392" height="68">
<path d="M196 7.45898V12.9984H157.97C172.415 12.9984 196 7.45898 196 7.45898Z" fill="#FF7B35"/>
<path d="M157.97 12.9988H60.4697C74.9147 12.9988 98.4998 7.45937 98.4998 7.45937C98.4998 7.45937 151.57 -5 147.25 7.45937C145.81 11.6096 150.745 12.9988 157.97 12.9988Z" fill="#FF7B35"/>
<path d="M60.47 12.9988H1V7.45937C1 7.45937 54.0701 -5 49.7501 7.45937C48.3101 11.6096 53.245 12.9988 60.47 12.9988Z" fill="#FF7B35"/>
<path d="M391 7.45898V12.9984H352.97C367.415 12.9984 391 7.45898 391 7.45898Z" fill="#FF7B35"/>
<path d="M352.97 12.9988H255.47C269.915 12.9988 293.5 7.45937 293.5 7.45937C293.5 7.45937 346.57 -5 342.25 7.45937C340.81 11.6096 345.745 12.9988 352.97 12.9988Z" fill="#FF7B35"/>
<path d="M255.47 12.9988H196V7.45937C196 7.45937 249.07 -5 244.75 7.45937C243.31 11.6096 248.245 12.9988 255.47 12.9988Z" fill="#FF7B35"/>
<path d="M196 6.53711C196 6.53711 172.415 12.0765 157.97 12.0765" stroke="#FFA474" stroke-width="2"/>
<path d="M157.97 12.0769C150.745 12.0769 145.81 10.6877 147.25 6.5375C151.57 -5.92187 98.4998 6.5375 98.4998 6.5375C98.4998 6.5375 74.9147 12.0769 60.4697 12.0769" stroke="#FFA474" stroke-width="2"/>
<path d="M60.47 12.0769C53.245 12.0769 48.3101 10.6877 49.7501 6.5375C54.0701 -5.92187 1 6.5375 1 6.5375" stroke="#FFA474" stroke-width="2"/>
<path d="M391 6.53711C391 6.53711 367.415 12.0765 352.97 12.0765" stroke="#FFA474" stroke-width="2"/>
<path d="M352.97 12.0769C345.745 12.0769 340.81 10.6877 342.25 6.5375C346.57 -5.92187 293.5 6.5375 293.5 6.5375C293.5 6.5375 269.915 12.0769 255.47 12.0769" stroke="#FFA474" stroke-width="2"/>
<path d="M255.47 12.0769C248.245 12.0769 243.31 10.6877 244.75 6.5375C249.07 -5.92187 196 6.5375 196 6.5375" stroke="#FFA474" stroke-width="2"/>
<path d="M391 13H1V68H391V13Z" fill="#FF7B35"/>
</mask>
<g mask="url(#mask0_4294_15940)">
<path d="M31.9529 13.3699C23.297 14.6835 -4.00248 32.9787 -6 34.1609V-52.3387C2.82239 -59.0709 21.2662 -49.9746 24.4622 -52.3391C28.4572 -55.2947 89.3817 -50.3687 95.3742 -52.3391C101.367 -54.3095 222.716 -49.3837 227.211 -49.3837C230.806 -49.3837 341.902 -59.7281 397 -52.3391L394.503 27.6554L383.017 23.7145L378.024 34.0592L366.538 20.7589L347.561 18.7885L336.575 20.7589L324.59 27.6554C322.093 24.6998 316.899 18.0989 316.1 15.3403C315.102 11.8921 298.622 23.7145 297.124 23.7145C295.925 23.7145 287.636 33.2382 283.641 38L252.679 20.7589L215.226 18.7885H203.24L192.753 23.7145L175.774 13.3699L167.784 15.3403L158.296 20.7589L149.807 13.3699C141.65 15.8329 124.938 21.3501 123.34 23.7145C121.742 26.079 115.017 32.5814 111.854 35.537L97.3717 25.685L84.8872 20.7589L73.9009 25.685L59.9182 13.3699L50.43 18.7885L31.9529 13.3699Z" fill="white"/>
</g>
</svg>
