<svg width="390" height="67" viewBox="0 0 390 67" preserveAspectRatio="none" fill="none" xmlns="http://www.w3.org/2000/svg">
<rect y="12" width="390" height="1" fill="#FFA144"/>
<path fill-rule="evenodd" clip-rule="evenodd" d="M390 10.9999V11.0771V11.9999H0V11.0771V10.9999V4.65082C0 4.65082 5.25977 -5.81353 23.6602 4.65082C30.8359 8.73823 38.5918 10.6132 46.1934 10.9999H52.3477C61.9844 10.5234 71.0508 7.89204 78 4.65082C78 4.65082 90.5996 -1.34136 101.66 4.65082C109.939 9.13178 118.92 10.8945 127.57 10.8945C138.24 10.895 148.381 8.21186 156 4.65131C156 4.65131 165.48 -1.17584 179.66 4.65131C188.68 8.35053 198.32 9.99164 207.43 9.99164C217.42 9.99164 226.779 8.02045 234 4.65131C234 4.65131 243.48 -1.17584 257.66 4.65131C266.68 8.35053 276.32 9.99164 285.43 9.99164C295.42 9.99164 304.779 8.02045 312 4.65131C312 4.65131 321.48 -1.17584 335.66 4.65131C344.68 8.35053 354.32 9.99164 363.43 9.99164C373.42 9.99164 382.779 8.02045 390 4.65082V10.9999Z" fill="#FFA144"/>
<mask id="mask0_2462_27622" style="mask-type:alpha" maskUnits="userSpaceOnUse" x="0" y="0" width="390" height="67">
<path fill-rule="evenodd" clip-rule="evenodd" d="M0 4.65071V10.0771V11.0769V66.0771H390V10.0771H390V4.65082C382.78 8.02022 373.42 9.99148 363.43 9.99148V9.99183C354.32 9.99183 344.68 8.35056 335.66 4.65118C321.48 -1.17579 312 4.65118 312 4.65118C304.78 8.02057 295.42 9.99183 285.43 9.99205C276.32 9.99205 266.68 8.35078 257.66 4.65139C243.48 -1.17557 234 4.65139 234 4.65139C226.78 8.02072 217.42 9.99192 207.43 9.992C198.32 9.992 188.68 8.35073 179.66 4.65134C165.48 -1.17563 156 4.65134 156 4.65134C150.905 7.03209 144.683 9.02068 137.929 10.0771H117.614C112.19 9.16052 106.791 7.42755 101.66 4.65089C90.6 -1.34108 78 4.65089 78 4.65089C73.069 6.95061 67.0732 8.94326 60.5634 10.0771H38.5007C33.4413 9.10179 28.4223 7.36372 23.66 4.65071C5.26003 -5.81351 0 4.65071 0 4.65071Z" fill="#FFA144"/>
</mask>
<g mask="url(#mask0_2462_27622)">
<path d="M31.9529 11.3699C23.297 12.6835 -4.00248 30.9787 -6 32.1609V-54.3387C2.82239 -61.0709 21.2662 -51.9746 24.4622 -54.3391C28.4572 -57.2947 89.3817 -52.3687 95.3742 -54.3391C101.367 -56.3095 222.716 -51.3837 227.211 -51.3837C230.806 -51.3837 341.902 -61.7281 397 -54.3391L394.503 25.6554L383.017 21.7145L378.024 32.0592L366.538 18.7589L347.561 16.7885L336.575 18.7589L324.59 25.6554C322.093 22.6998 316.899 16.0989 316.1 13.3403C315.102 9.89211 298.622 21.7145 297.124 21.7145C295.925 21.7145 287.636 31.2382 283.641 36L252.679 18.7589L215.226 16.7885H203.24L192.753 21.7145L175.774 11.3699L167.784 13.3403L158.296 18.7589L149.807 11.3699C141.65 13.8329 124.938 19.3501 123.34 21.7145C121.742 24.079 115.017 30.5814 111.854 33.537L97.3717 23.685L84.8872 18.7589L73.9009 23.685L59.9182 11.3699L50.43 16.7885L31.9529 11.3699Z" fill="white"/>
</g>
</svg>
