<svg width="390" height="67" viewBox="0 0 390 67" preserveAspectRatio="none" fill="none" xmlns="http://www.w3.org/2000/svg">
<mask id="mask0_4294_16003" style="mask-type:alpha" maskUnits="userSpaceOnUse" x="0" y="0" width="390" height="67">
<path fill-rule="evenodd" clip-rule="evenodd" d="M0 4.65077V10.0771V11.0769V66.0771H390V10.0771H390V4.65088C382.78 8.02027 373.42 9.99154 363.43 9.99154V9.99194C354.32 9.99194 344.68 8.35067 335.66 4.65129C321.48 -1.17568 312 4.65129 312 4.65129C304.78 8.02068 295.42 9.99194 285.43 9.99194C276.32 9.99194 266.68 8.35067 257.66 4.65129C243.48 -1.17568 234 4.65129 234 4.65129C226.78 8.02061 217.42 9.99187 207.43 9.99194H207.43C206.134 9.99193 204.828 9.95872 203.514 9.89111L203.513 9.89108C195.59 9.48327 187.397 7.82436 179.66 4.65129C165.48 -1.17568 156 4.65129 156 4.65129C152.937 6.0827 149.466 7.37236 145.717 8.40287C143.231 9.08638 140.622 9.65589 137.929 10.0771H117.614C114.295 9.51623 110.985 8.64954 107.74 7.42499C105.682 6.64857 103.651 5.7283 101.66 4.65089C90.6 -1.34107 78 4.65089 78 4.65089C76.5838 5.3114 75.0797 5.94658 73.5008 6.54336C69.5824 8.02443 65.2033 9.26897 60.5631 10.0771H38.5007C33.8504 9.18071 29.2342 7.63986 24.8202 5.28987C24.4319 5.08313 24.0451 4.87014 23.66 4.65077C5.26003 -5.81346 0 4.65077 0 4.65077Z" fill="#FFA144"/>
</mask>
<g mask="url(#mask0_4294_16003)">
<path d="M30.9529 7.52422C22.297 8.83782 -5.00248 27.133 -7 28.3152V-58.1844C1.82239 -64.9166 20.2662 -55.8203 23.4622 -58.1848C27.4572 -61.1404 88.3817 -56.2144 94.3742 -58.1848C100.367 -60.1552 221.716 -55.2294 226.211 -55.2294C229.806 -55.2294 340.902 -65.5738 396 -58.1848L393.503 21.8097L382.017 17.8688L377.024 28.2135L365.538 14.9132L346.561 12.9428L335.575 14.9132L323.59 21.8097C321.093 18.854 315.899 12.2532 315.1 9.49461C314.102 6.0464 297.622 17.8688 296.124 17.8688C294.925 17.8688 286.636 27.3925 282.641 32.1543L251.679 14.9132L214.226 12.9428H202.24L191.753 17.8688L174.774 7.52422L166.784 9.49461L157.296 14.9132L148.807 7.52422C140.65 9.98723 123.938 15.5044 122.34 17.8688C120.742 20.2333 114.017 26.7357 110.854 29.6913L96.3717 19.8392L83.8872 14.9132L72.9009 19.8392L58.9182 7.52422L49.43 12.9428L30.9529 7.52422Z" fill="white"/>
</g>
</svg>
