<svg width="392" height="69" viewBox="1 0 390 69" preserveAspectRatio="none" fill="none" xmlns="http://www.w3.org/2000/svg">
<path fill-rule="evenodd" clip-rule="evenodd" d="M1 13.0769H50.25C41.69 13.0769 32.8 11.288 24.66 6.65077C6.26003 -3.81346 1 6.65077 1 6.65077V13.0769ZM128.57 12.9994V12.8171C119.92 12.8171 110.94 11.0542 102.66 6.57325C91.6 0.581288 79 6.57325 79 6.57325C71.31 10.1597 61.03 12.9994 50.25 12.9994H128.57ZM208.43 11.9144C218.42 11.9143 227.78 9.94308 235 6.57376C235 6.57376 244.48 0.746792 258.66 6.57376C267.68 10.2731 277.32 11.9144 286.43 11.9144C296.42 11.9142 305.78 9.94293 313 6.57354C313 6.57354 322.48 0.746575 336.66 6.57354C345.68 10.2729 355.32 11.9142 364.43 11.9142V11.9138C374.42 11.9138 383.78 9.94258 391 6.57319V12.9993H364.43V12.9997L286.43 12.9999H208.43L128.57 12.9999V12.8175C139.24 12.8175 149.38 10.1341 157 6.5737C157 6.5737 166.48 0.746738 180.66 6.5737C189.68 10.2731 199.32 11.9144 208.43 11.9144Z" fill="#FFA144"/>
<path d="M391 5.65039C383.78 9.01978 374.42 10.991 364.43 10.991V12.0765" stroke="white" stroke-width="2"/>
<path d="M364.43 12.0765V10.991C355.32 10.991 345.68 9.3497 336.66 5.65031C322.48 -0.176657 313 5.65031 313 5.65031C305.78 9.0197 296.42 10.991 286.43 10.991V12.0765" stroke="white" stroke-width="2"/>
<path d="M286.43 12.0765V10.991C277.32 10.991 267.68 9.3497 258.66 5.65031C244.48 -0.176657 235 5.65031 235 5.65031C227.78 9.0197 218.42 10.991 208.43 10.991V12.0765" stroke="white" stroke-width="2"/>
<path d="M208.43 12.0765V10.991C199.32 10.991 189.68 9.3497 180.66 5.65031C166.48 -0.176657 157 5.65031 157 5.65031C149.38 9.21075 139.24 11.8941 128.57 11.8941V12.0765" stroke="white" stroke-width="2"/>
<path d="M128.57 12.0775V11.8952C119.92 11.8952 110.94 10.1323 102.66 5.65138C91.6 -0.340587 79 5.65138 79 5.65138C71.31 9.23787 61.03 12.0775 50.25 12.0775" stroke="white" stroke-width="2"/>
<path d="M50.25 12.0769C41.69 12.0769 32.8 10.288 24.66 5.65077C6.26003 -4.81346 1 5.65077 1 5.65077" stroke="white" stroke-width="2"/>
<mask id="mask0_4294_15981" style="mask-type:alpha" maskUnits="userSpaceOnUse" x="1" y="2" width="390" height="67">
<path fill-rule="evenodd" clip-rule="evenodd" d="M1 6.65077V12.0771V13.0769V68.0771H391V12.0771H391V6.65088C383.78 10.0203 374.42 11.9915 364.43 11.9915V11.9919C355.32 11.9919 345.68 10.3507 336.66 6.65129C322.48 0.82432 313 6.65129 313 6.65129C305.78 10.0207 296.42 11.9919 286.43 11.9919C277.32 11.9919 267.68 10.3507 258.66 6.65129C244.48 0.82432 235 6.65129 235 6.65129C227.78 10.0206 218.42 11.9919 208.43 11.9919H208.43C207.134 11.9919 205.828 11.9587 204.514 11.8911L204.513 11.8911C196.59 11.4833 188.397 9.82436 180.66 6.65129C166.48 0.82432 157 6.65129 157 6.65129C153.937 8.0827 150.466 9.37236 146.717 10.4029C144.231 11.0864 141.622 11.6559 138.929 12.0771H118.614C115.295 11.5162 111.985 10.6495 108.74 9.42499C106.682 8.64857 104.651 7.7283 102.66 6.65089C91.6 0.658925 79 6.65089 79 6.65089C77.5838 7.3114 76.0797 7.94658 74.5008 8.54336C70.5824 10.0244 66.2033 11.269 61.5631 12.0771H39.5007C34.8504 11.1807 30.2342 9.63986 25.8202 7.28987C25.4319 7.08313 25.0451 6.87014 24.66 6.65077C6.26003 -3.81346 1 6.65077 1 6.65077Z" fill="#FFA144"/>
</mask>
<g mask="url(#mask0_4294_15981)">
<path d="M31.9529 9.52422C23.297 10.8378 -4.00248 29.133 -6 30.3152V-56.1844C2.82239 -62.9166 21.2662 -53.8203 24.4622 -56.1848C28.4572 -59.1404 89.3817 -54.2144 95.3742 -56.1848C101.367 -58.1552 222.716 -53.2294 227.211 -53.2294C230.806 -53.2294 341.902 -63.5738 397 -56.1848L394.503 23.8097L383.017 19.8688L378.024 30.2135L366.538 16.9132L347.561 14.9428L336.575 16.9132L324.59 23.8097C322.093 20.854 316.899 14.2532 316.1 11.4946C315.102 8.0464 298.622 19.8688 297.124 19.8688C295.925 19.8688 287.636 29.3925 283.641 34.1543L252.679 16.9132L215.226 14.9428H203.24L192.753 19.8688L175.774 9.52422L167.784 11.4946L158.296 16.9132L149.807 9.52422C141.65 11.9872 124.938 17.5044 123.34 19.8688C121.742 22.2333 115.017 28.7357 111.854 31.6913L97.3717 21.8392L84.8872 16.9132L73.9009 21.8392L59.9182 9.52422L50.43 14.9428L31.9529 9.52422Z" fill="white"/>
</g>
</svg>
