<svg width="392" height="69" viewBox="1 0 390 69" preserveAspectRatio="none" fill="none" xmlns="http://www.w3.org/2000/svg">
<mask id="mask0_2458_26458" style="mask-type:alpha" maskUnits="userSpaceOnUse" x="0" y="0" width="392" height="69">
<path fill-rule="evenodd" clip-rule="evenodd" d="M1 6.65028V12.0767V13.0764V68.0767H391V13.0766H391.001V6.65044C383.781 10.0198 374.421 11.9911 364.431 11.9911V12.0767H364.43V11.9915C355.32 11.9915 345.68 10.3502 336.66 6.65085C322.48 0.823886 313 6.65085 313 6.65085C305.78 10.0202 296.421 11.9914 286.431 11.9915C277.321 11.9915 267.681 10.3502 258.661 6.65083C244.481 0.823859 235.001 6.65083 235.001 6.65083C227.781 10.0202 218.421 11.9915 208.431 11.9915V12.0767H208.429V11.9915C199.319 11.9915 189.679 10.3502 180.659 6.65085C166.479 0.823887 156.999 6.65085 156.999 6.65085C151.904 9.03164 145.682 11.0203 138.928 12.0767H118.612C113.189 11.1601 107.79 9.42711 102.659 6.65045C91.5988 0.658491 78.9987 6.65045 78.9987 6.65045C74.0678 8.95018 68.0719 10.9428 61.5621 12.0767H39.5007C34.4413 11.1014 29.4223 9.36329 24.66 6.65028C6.26003 -3.81395 1 6.65028 1 6.65028Z" fill="#FFA144"/>
<path d="M391.002 5.72705C383.782 9.09644 374.422 11.0677 364.432 11.0677V12.1532" stroke="#FFC183" stroke-width="2"/>
<path d="M364.43 12.1536V11.0681C355.32 11.0681 345.68 9.42684 336.66 5.72746C322.48 -0.0995082 313 5.72746 313 5.72746C305.78 9.09685 296.42 11.0681 286.43 11.0681V12.1536" stroke="#FFC183" stroke-width="2"/>
<path d="M286.432 12.1536V11.0681C277.322 11.0681 267.682 9.42684 258.662 5.72746C244.482 -0.0995082 235.002 5.72746 235.002 5.72746C227.782 9.09685 218.422 11.0681 208.432 11.0681V12.1536" stroke="#FFC183" stroke-width="2"/>
<path d="M208.43 12.1536V11.0681C199.32 11.0681 189.68 9.42684 180.66 5.72746C166.48 -0.0995082 157 5.72746 157 5.72746C149.38 9.2879 139.24 11.9713 128.57 11.9713V12.1536" stroke="#FFC183" stroke-width="2"/>
<path d="M128.568 12.1537V11.9713C119.918 11.9713 110.938 10.2085 102.658 5.72755C91.5981 -0.264415 78.998 5.72755 78.998 5.72755C71.308 9.31404 61.028 12.1537 50.248 12.1537" stroke="#FFC183" stroke-width="2"/>
<path d="M50.25 12.1536C41.69 12.1536 32.8 10.3647 24.66 5.72743C6.26003 -4.7368 1 5.72743 1 5.72743" stroke="#FFC183" stroke-width="2"/>
</mask>
<g mask="url(#mask0_2458_26458)">
<path d="M31.9529 13.4466C23.297 14.7602 -4.00248 33.0554 -6 34.2376V-52.262C2.82239 -58.9943 21.2662 -49.8979 24.4622 -52.2624C28.4572 -55.218 89.3817 -50.292 95.3742 -52.2624C101.367 -54.2328 222.716 -49.307 227.211 -49.307C230.806 -49.307 341.902 -59.6515 397 -52.2624L394.503 27.732L383.017 23.7912L378.024 34.1358L366.538 20.8356L347.561 18.8652L336.575 20.8356L324.59 27.732C322.093 24.7764 316.899 18.1756 316.1 15.417C315.102 11.9688 298.622 23.7912 297.124 23.7912C295.925 23.7912 287.636 33.3148 283.641 38.0767L252.679 20.8356L215.226 18.8652H203.24L192.753 23.7912L175.774 13.4466L167.784 15.417L158.296 20.8356L149.807 13.4466C141.65 15.9096 124.938 21.4267 123.34 23.7912C121.742 26.1557 115.017 32.658 111.854 35.6137L97.3717 25.7616L84.8872 20.8356L73.9009 25.7616L59.9182 13.4466L50.43 18.8652L31.9529 13.4466Z" fill="white"/>
</g>
</svg>
