<svg width="392" height="68" viewBox="1 0 390 68" preserveAspectRatio="none" fill="none" xmlns="http://www.w3.org/2000/svg">
<path d="M391 6.57373V12.9999H364.43V11.9144C374.42 11.9144 383.78 9.94312 391 6.57373Z" fill="#FFA144"/>
<path d="M391 5.65039C383.78 9.01978 374.42 10.991 364.43 10.991V12.0765" stroke="#FFC183" stroke-width="2"/>
<path d="M364.43 12.077V10.9915C355.32 10.9915 345.68 9.35018 336.66 5.6508C322.48 -0.176168 313 5.6508 313 5.6508C305.78 9.02019 296.42 10.9915 286.43 10.9915V12.077" stroke="#FFC183" stroke-width="2"/>
<path d="M286.43 12.077V10.9915C277.32 10.9915 267.68 9.35018 258.66 5.6508C244.48 -0.176168 235 5.6508 235 5.6508C227.78 9.02019 218.42 10.9915 208.43 10.9915V12.077" stroke="#FFC183" stroke-width="2"/>
<path d="M208.43 12.077V10.9915C199.32 10.9915 189.68 9.35018 180.66 5.6508C166.48 -0.176168 157 5.6508 157 5.6508C149.38 9.21124 139.24 11.8946 128.57 11.8946V12.077" stroke="#FFC183" stroke-width="2"/>
<path d="M128.57 12.077V11.8947C119.92 11.8947 110.94 10.1318 102.66 5.65089C91.6 -0.341075 79 5.65089 79 5.65089C71.31 9.23738 61.03 12.077 50.25 12.077" stroke="#FFC183" stroke-width="2"/>
<path d="M50.25 12.0769C41.69 12.0769 32.8 10.288 24.66 5.65077C6.26003 -4.81346 1 5.65077 1 5.65077" stroke="#FFC183" stroke-width="2"/>
<mask id="mask0_2449_25626" style="mask-type:alpha" maskUnits="userSpaceOnUse" x="0" y="-1" width="392" height="69">
<path fill-rule="evenodd" clip-rule="evenodd" d="M1 6.57362V12V12.9998V68H391V12.9999H391.001V6.57378C383.781 9.94318 374.421 11.9144 364.431 11.9144V12H364.43V11.9148C355.32 11.9148 345.68 10.2736 336.66 6.57419C322.48 0.747226 313 6.57419 313 6.57419C305.78 9.9435 296.421 11.9147 286.431 11.9148C277.321 11.9148 267.681 10.2736 258.661 6.57416C244.481 0.747199 235.001 6.57416 235.001 6.57416C227.781 9.94356 218.421 11.9148 208.431 11.9148V12H208.429V11.9148C199.319 11.9148 189.679 10.2736 180.659 6.57419C166.479 0.747226 156.999 6.57419 156.999 6.57419C151.904 8.95498 145.682 10.9436 138.928 12H118.612C113.189 11.0834 107.79 9.35045 102.659 6.57379C91.5988 0.581831 78.9987 6.57379 78.9987 6.57379C74.0678 8.87352 68.0719 10.8662 61.5621 12H39.5007C34.4413 11.0247 29.4223 9.28662 24.66 6.57362C6.26003 -3.89061 1 6.57362 1 6.57362Z" fill="#FFA144"/>
<path d="M391.002 5.65039C383.782 9.01978 374.422 10.991 364.432 10.991V12.0765" stroke="#FFC183" stroke-width="2"/>
<path d="M364.43 12.077V10.9915C355.32 10.9915 345.68 9.35018 336.66 5.6508C322.48 -0.176168 313 5.6508 313 5.6508C305.78 9.02019 296.42 10.9915 286.43 10.9915V12.077" stroke="#FFC183" stroke-width="2"/>
<path d="M286.432 12.077V10.9915C277.322 10.9915 267.682 9.35018 258.662 5.6508C244.482 -0.176168 235.002 5.6508 235.002 5.6508C227.782 9.02019 218.422 10.9915 208.432 10.9915V12.077" stroke="#FFC183" stroke-width="2"/>
<path d="M208.43 12.077V10.9915C199.32 10.9915 189.68 9.35018 180.66 5.6508C166.48 -0.176168 157 5.6508 157 5.6508C149.38 9.21124 139.24 11.8946 128.57 11.8946V12.077" stroke="#FFC183" stroke-width="2"/>
<path d="M128.568 12.077V11.8947C119.918 11.8947 110.938 10.1318 102.658 5.65089C91.5981 -0.341075 78.998 5.65089 78.998 5.65089C71.308 9.23738 61.028 12.077 50.248 12.077" stroke="#FFC183" stroke-width="2"/>
<path d="M50.25 12.0769C41.69 12.0769 32.8 10.288 24.66 5.65077C6.26003 -4.81346 1 5.65077 1 5.65077" stroke="#FFC183" stroke-width="2"/>
</mask>
<g mask="url(#mask0_2449_25626)">
<path d="M31.9529 13.3699C23.297 14.6835 -4.00248 32.9787 -6 34.1609V-52.3387C2.82239 -59.0709 21.2662 -49.9746 24.4622 -52.3391C28.4572 -55.2947 89.3817 -50.3687 95.3742 -52.3391C101.367 -54.3095 222.716 -49.3837 227.211 -49.3837C230.806 -49.3837 341.902 -59.7281 397 -52.3391L394.503 27.6554L383.017 23.7145L378.024 34.0592L366.538 20.7589L347.561 18.7885L336.575 20.7589L324.59 27.6554C322.093 24.6998 316.899 18.0989 316.1 15.3403C315.102 11.8921 298.622 23.7145 297.124 23.7145C295.925 23.7145 287.636 33.2382 283.641 38L252.679 20.7589L215.226 18.7885H203.24L192.753 23.7145L175.774 13.3699L167.784 15.3403L158.296 20.7589L149.807 13.3699C141.65 15.8329 124.938 21.3501 123.34 23.7145C121.742 26.079 115.017 32.5814 111.854 35.537L97.3717 25.685L84.8872 20.7589L73.9009 25.685L59.9182 13.3699L50.43 18.7885L31.9529 13.3699Z" fill="white"/>
</g>
</svg>
