<svg width="392" height="67" viewBox="1 0 390 67" preserveAspectRatio="none" fill="none" xmlns="http://www.w3.org/2000/svg">
<path d="M390.999 6.5376C390.999 6.5376 377.129 12.077 357.869 12.077" stroke="#6EED9C" stroke-width="2"/>
<path d="M357.869 12.0769C348.239 12.0769 337.259 10.6877 325.999 6.5375C292.209 -5.92187 260.999 6.5375 260.999 6.5375C260.999 6.5375 247.129 12.0769 227.869 12.0769" stroke="#6EED9C" stroke-width="2"/>
<path d="M227.869 12.0769C218.239 12.0769 207.259 10.6877 195.999 6.5375C162.209 -5.92187 130.999 6.5375 130.999 6.5375C130.999 6.5375 117.129 12.0769 97.8691 12.0769" stroke="#6EED9C" stroke-width="2"/>
<path d="M97.87 12.0769C88.24 12.0769 77.26 10.6877 66 6.5375C32.21 -5.92187 1 6.5375 1 6.5375" stroke="#6EED9C" stroke-width="2"/>
<path d="M390.999 7.46045V12.9999H357.869C377.129 12.9999 390.999 7.46045 390.999 7.46045Z" fill="#00CE4C"/>
<path d="M357.869 12.9998H227.869C247.129 12.9998 260.999 7.46035 260.999 7.46035C260.999 7.46035 292.209 -4.99902 325.999 7.46035C337.259 11.6106 348.239 12.9998 357.869 12.9998Z" fill="#00CE4C"/>
<path d="M227.869 12.9998H97.8691C117.129 12.9998 130.999 7.46035 130.999 7.46035C130.999 7.46035 162.209 -4.99902 195.999 7.46035C207.259 11.6106 218.239 12.9998 227.869 12.9998Z" fill="#00CE4C"/>
<path d="M97.87 12.9998H1V7.46035C1 7.46035 32.21 -4.99902 66 7.46035C77.26 11.6106 88.24 12.9998 97.87 12.9998Z" fill="#00CE4C"/>
<mask id="mask0_2449_25619" style="mask-type:alpha" maskUnits="userSpaceOnUse" x="0" y="0" width="392" height="67">
<path d="M390.999 6.5376C390.999 6.5376 377.129 12.077 357.869 12.077" stroke="#6EED9C" stroke-width="2"/>
<path d="M357.869 12.0769C348.239 12.0769 337.259 10.6877 325.999 6.5375C292.209 -5.92187 260.999 6.5375 260.999 6.5375C260.999 6.5375 247.129 12.0769 227.869 12.0769" stroke="#6EED9C" stroke-width="2"/>
<path d="M227.869 12.0769C218.239 12.0769 207.259 10.6877 195.999 6.5375C162.209 -5.92187 130.999 6.5375 130.999 6.5375C130.999 6.5375 117.129 12.0769 97.8691 12.0769" stroke="#6EED9C" stroke-width="2"/>
<path d="M97.87 12.0769C88.24 12.0769 77.26 10.6877 66 6.5375C32.21 -5.92187 1 6.5375 1 6.5375" stroke="#6EED9C" stroke-width="2"/>
<path fill-rule="evenodd" clip-rule="evenodd" d="M242.17 12C253.627 10.4045 260.999 7.46035 260.999 7.46035C260.999 7.46035 292.209 -4.99902 325.999 7.46035C332.117 9.71531 338.152 11.1552 343.933 12H372.171C383.628 10.4044 390.999 7.46045 390.999 7.46045V12H391V67H1V12.9998V12V7.46035C1 7.46035 32.21 -4.99902 66 7.46035C72.1179 9.71531 78.1532 11.1552 83.9342 12H112.17C123.627 10.4045 130.999 7.46035 130.999 7.46035C130.999 7.46035 162.209 -4.99902 195.999 7.46035C202.117 9.71531 208.152 11.1552 213.933 12H242.17Z" fill="#00CE4C"/>
</mask>
<g mask="url(#mask0_2449_25619)">
<path d="M32.9529 9.36993C24.297 10.6835 -3.00248 28.9787 -5 30.1609V-56.3387C3.82239 -63.0709 22.2662 -53.9746 25.4622 -56.3391C29.4572 -59.2947 90.3817 -54.3687 96.3742 -56.3391C102.367 -58.3095 223.716 -53.3837 228.211 -53.3837C231.806 -53.3837 342.902 -63.7281 398 -56.3391L395.503 23.6554L384.017 19.7145L379.024 30.0592L367.538 16.7589L348.561 14.7885L337.575 16.7589L325.59 23.6554C323.093 20.6998 317.899 14.0989 317.1 11.3403C316.102 7.89211 299.622 19.7145 298.124 19.7145C296.925 19.7145 288.636 29.2382 284.641 34L253.679 16.7589L216.226 14.7885H204.24L193.753 19.7145L176.774 9.36993L168.784 11.3403L159.296 16.7589L150.807 9.36993C142.65 11.8329 125.938 17.3501 124.34 19.7145C122.742 22.079 116.017 28.5814 112.854 31.537L98.3717 21.685L85.8872 16.7589L74.9009 21.685L60.9182 9.36993L51.43 14.7885L32.9529 9.36993Z" fill="white"/>
</g>
</svg>
