<svg width="392" height="67" viewBox="1 0 390 67" preserveAspectRatio="none" fill="none" xmlns="http://www.w3.org/2000/svg">
<path d="M390.999 6.53125C390.999 6.53125 377.129 12.0642 357.869 12.0642" stroke="white" stroke-width="2"/>
<path d="M357.869 12.064C348.239 12.064 337.259 10.6764 325.999 6.53103C292.209 -5.91379 260.999 6.53103 260.999 6.53103C260.999 6.53103 247.129 12.064 227.869 12.064" stroke="white" stroke-width="2"/>
<path d="M227.869 12.064C218.239 12.064 207.259 10.6764 195.999 6.53103C162.209 -5.91379 130.999 6.53103 130.999 6.53103C130.999 6.53103 117.129 12.064 97.8691 12.064" stroke="white" stroke-width="2"/>
<path d="M97.87 12.064C88.24 12.064 77.26 10.6764 66 6.53103C32.21 -5.91379 1 6.53103 1 6.53103" stroke="white" stroke-width="2"/>
<mask id="mask0_4296_15509" style="mask-type:alpha" maskUnits="userSpaceOnUse" x="1" y="2" width="390" height="66">
<path fill-rule="evenodd" clip-rule="evenodd" d="M1 12.0653V7.53103C1 7.53103 32.21 -4.91379 66 7.53103C72.1178 9.78332 78.153 11.2215 83.9339 12.0653H112.17C123.628 10.4717 130.999 7.53103 130.999 7.53103C130.999 7.53103 162.209 -4.91379 195.999 7.53103C202.117 9.78332 208.152 11.2215 213.933 12.0653H242.17C253.628 10.4717 260.999 7.53103 260.999 7.53103C260.999 7.53103 292.209 -4.91379 325.999 7.53103C332.117 9.78332 338.152 11.2215 343.933 12.0653H372.171C383.628 10.4716 390.999 7.53109 390.999 7.53109V12.0653H391V67.0011H1V13.064V12.0653Z" fill="#00CE4C"/>
</mask>
<g mask="url(#mask0_4296_15509)">
<path d="M31.9529 12.3699C23.297 13.6835 -4.00248 31.9787 -6 33.1609V-53.3387C2.82239 -60.0709 21.2662 -50.9746 24.4622 -53.3391C28.4572 -56.2947 89.3817 -51.3687 95.3742 -53.3391C101.367 -55.3095 222.716 -50.3837 227.211 -50.3837C230.806 -50.3837 341.902 -60.7281 397 -53.3391L394.503 26.6554L383.017 22.7145L378.024 33.0592L366.538 19.7589L347.561 17.7885L336.575 19.7589L324.59 26.6554C322.093 23.6998 316.899 17.0989 316.1 14.3403C315.102 10.8921 298.622 22.7145 297.124 22.7145C295.925 22.7145 287.636 32.2382 283.641 37L252.679 19.7589L215.226 17.7885H203.24L192.753 22.7145L175.774 12.3699L167.784 14.3403L158.296 19.7589L149.807 12.3699C141.65 14.8329 124.938 20.3501 123.34 22.7145C121.742 25.079 115.017 31.5814 111.854 34.537L97.3717 24.685L84.8872 19.7589L73.9009 24.685L59.9182 12.3699L50.43 17.7885L31.9529 12.3699Z" fill="white"/>
</g>
</svg>
