<svg width="392" height="68" viewBox="1 0 390 68" preserveAspectRatio="none" fill="none" xmlns="http://www.w3.org/2000/svg">
<path d="M390.999 7.53711V13.0765H357.869C377.129 13.0765 390.999 7.53711 390.999 7.53711Z" fill="#00CE4C"/>
<path d="M357.869 13.0764H227.869C247.129 13.0764 260.999 7.53701 260.999 7.53701C260.999 7.53701 292.209 -4.92236 325.999 7.53701C337.259 11.6872 348.239 13.0764 357.869 13.0764Z" fill="#00CE4C"/>
<path d="M227.869 13.0764H97.8691C117.129 13.0764 130.999 7.53701 130.999 7.53701C130.999 7.53701 162.209 -4.92236 195.999 7.53701C207.259 11.6872 218.239 13.0764 227.869 13.0764Z" fill="#00CE4C"/>
<path d="M97.87 13.0764H1V7.53701C1 7.53701 32.21 -4.92236 66 7.53701C77.26 11.6872 88.24 13.0764 97.87 13.0764Z" fill="#00CE4C"/>
<mask id="mask0_2458_25891" style="mask-type:alpha" maskUnits="userSpaceOnUse" x="0" y="0" width="392" height="68">
<path d="M390.999 6.61426C390.999 6.61426 377.129 12.1537 357.869 12.1537" stroke="#6EED9C" stroke-width="2"/>
<path d="M357.869 12.1536C348.239 12.1536 337.259 10.7644 325.999 6.61416C292.209 -5.84521 260.999 6.61416 260.999 6.61416C260.999 6.61416 247.129 12.1536 227.869 12.1536" stroke="#6EED9C" stroke-width="2"/>
<path d="M227.869 12.1536C218.239 12.1536 207.259 10.7644 195.999 6.61416C162.209 -5.84521 130.999 6.61416 130.999 6.61416C130.999 6.61416 117.129 12.1536 97.8691 12.1536" stroke="#6EED9C" stroke-width="2"/>
<path d="M97.87 12.1536C88.24 12.1536 77.26 10.7644 66 6.61416C32.21 -5.84521 1 6.61416 1 6.61416" stroke="#6EED9C" stroke-width="2"/>
<path fill-rule="evenodd" clip-rule="evenodd" d="M242.17 12.0767C253.627 10.4811 260.999 7.53701 260.999 7.53701C260.999 7.53701 292.209 -4.92236 325.999 7.53701C332.117 9.79197 338.152 11.2318 343.933 12.0767H372.171C383.628 10.4811 390.999 7.53711 390.999 7.53711V12.0767H391V67.0767H1V13.0764V12.0767V7.53701C1 7.53701 32.21 -4.92236 66 7.53701C72.1179 9.79197 78.1532 11.2318 83.9342 12.0767H112.17C123.627 10.4811 130.999 7.53701 130.999 7.53701C130.999 7.53701 162.209 -4.92236 195.999 7.53701C202.117 9.79197 208.152 11.2318 213.933 12.0767H242.17Z" fill="#00CE4C"/>
</mask>
<g mask="url(#mask0_2458_25891)">
<path d="M32.9529 9.44659C24.297 10.7602 -3.00248 29.0554 -5 30.2376V-56.262C3.82239 -62.9943 22.2662 -53.8979 25.4622 -56.2624C29.4572 -59.218 90.3817 -54.292 96.3742 -56.2624C102.367 -58.2328 223.716 -53.307 228.211 -53.307C231.806 -53.307 342.902 -63.6515 398 -56.2624L395.503 23.732L384.017 19.7912L379.024 30.1358L367.538 16.8356L348.561 14.8652L337.575 16.8356L325.59 23.732C323.093 20.7764 317.899 14.1756 317.1 11.417C316.102 7.96877 299.622 19.7912 298.124 19.7912C296.925 19.7912 288.636 29.3148 284.641 34.0767L253.679 16.8356L216.226 14.8652H204.24L193.753 19.7912L176.774 9.44659L168.784 11.417L159.296 16.8356L150.807 9.44659C142.65 11.9096 125.938 17.4267 124.34 19.7912C122.742 22.1557 116.017 28.658 112.854 31.6137L98.3717 21.7616L85.8872 16.8356L74.9009 21.7616L60.9182 9.44659L51.43 14.8652L32.9529 9.44659Z" fill="white"/>
</g>
</svg>
