<svg width="390" height="67" viewBox="0 0 390 67" preserveAspectRatio="none" fill="none" xmlns="http://www.w3.org/2000/svg">
<rect y="12" width="390" height="1" fill="#00CE4C"/>
<path d="M389.999 6.99902V13.0001H356.869C376.129 13.0001 389.999 6.99902 389.999 6.99902Z" fill="#00CE4C"/>
<path d="M356.869 13H226.869C246.129 13 259.999 6.99895 259.999 6.99895C259.999 6.99895 291.209 -6.49869 324.999 6.99895C336.259 11.495 347.239 13 356.869 13Z" fill="#00CE4C"/>
<path d="M226.869 13H96.8691C116.129 13 129.999 6.99895 129.999 6.99895C129.999 6.99895 161.209 -6.49869 194.999 6.99895C206.259 11.495 217.239 13 226.869 13Z" fill="#00CE4C"/>
<path d="M96.87 13H0V6.99895C0 6.99895 31.21 -6.49869 65 6.99895C76.26 11.495 87.24 13 96.87 13Z" fill="#00CE4C"/>
<mask id="mask0_2462_27617" style="mask-type:alpha" maskUnits="userSpaceOnUse" x="0" y="0" width="390" height="67">
<path fill-rule="evenodd" clip-rule="evenodd" d="M0 5.99885V11.9999V66.9999H390V11.9999L389.999 12V5.99891C389.999 5.99891 376.183 11.9766 356.982 11.9999H356.869C347.239 11.9999 336.259 10.4949 324.999 5.99885C291.209 -7.4988 259.999 5.99885 259.999 5.99885C259.999 5.99885 246.129 11.9999 226.869 11.9999H226.727C217.131 11.9853 206.204 10.473 194.999 5.99895C161.209 -7.49869 129.999 5.99895 129.999 5.99895C129.999 5.99895 116.197 11.9705 97.0111 11.9999H96.87C87.24 11.9999 76.26 10.4949 65 5.99885C31.21 -7.4988 0 5.99885 0 5.99885Z" fill="#00CE4C"/>
</mask>
<g mask="url(#mask0_2462_27617)">
<path d="M31.9529 12.3699C23.297 13.6835 -4.00248 31.9787 -6 33.1609V-53.3387C2.82239 -60.0709 21.2662 -50.9746 24.4622 -53.3391C28.4572 -56.2947 89.3817 -51.3687 95.3742 -53.3391C101.367 -55.3095 222.716 -50.3837 227.211 -50.3837C230.806 -50.3837 341.902 -60.7281 397 -53.3391L394.503 26.6554L383.017 22.7145L378.024 33.0592L366.538 19.7589L347.561 17.7885L336.575 19.7589L324.59 26.6554C322.093 23.6998 316.899 17.0989 316.1 14.3403C315.102 10.8921 298.622 22.7145 297.124 22.7145C295.925 22.7145 287.636 32.2382 283.641 37L252.679 19.7589L215.226 17.7885H203.24L192.753 22.7145L175.774 12.3699L167.784 14.3403L158.296 19.7589L149.807 12.3699C141.65 14.8329 124.938 20.3501 123.34 22.7145C121.742 25.079 115.017 31.5814 111.854 34.537L97.3717 24.685L84.8872 19.7589L73.9009 24.685L59.9182 12.3699L50.43 17.7885L31.9529 12.3699Z" fill="white"/>
</g>
</svg>
