<svg width="390" height="65" viewBox="0 0 390 65" preserveAspectRatio="none" fill="none" xmlns="http://www.w3.org/2000/svg">
<mask id="mask0_2421_27074" style="mask-type:alpha" maskUnits="userSpaceOnUse" x="0" y="0" width="390" height="66">
<path fill-rule="evenodd" clip-rule="evenodd" d="M0 10.0653V5.53103C0 5.53103 31.21 -6.91379 65 5.53103C71.1178 7.78332 77.153 9.22149 82.9339 10.0653H111.17C122.628 8.47165 129.999 5.53103 129.999 5.53103C129.999 5.53103 161.209 -6.91379 194.999 5.53103C201.117 7.78332 207.152 9.22149 212.933 10.0653H241.17C252.628 8.47165 259.999 5.53103 259.999 5.53103C259.999 5.53103 291.209 -6.91379 324.999 5.53103C331.117 7.78332 337.152 9.22149 342.933 10.0653H371.171C382.628 8.47164 389.999 5.53109 389.999 5.53109V10.0653H390V65.0011H0V11.064V10.0653Z" fill="#00CE4C"/>
</mask>
<g mask="url(#mask0_2421_27074)">
<path d="M30.9529 10.3699C22.297 11.6835 -5.00248 29.9787 -7 31.1609V-55.3387C1.82239 -62.0709 20.2662 -52.9746 23.4622 -55.3391C27.4572 -58.2947 88.3817 -53.3687 94.3742 -55.3391C100.367 -57.3095 221.716 -52.3837 226.211 -52.3837C229.806 -52.3837 340.902 -62.7281 396 -55.3391L393.503 24.6554L382.017 20.7145L377.024 31.0592L365.538 17.7589L346.561 15.7885L335.575 17.7589L323.59 24.6554C321.093 21.6998 315.899 15.0989 315.1 12.3403C314.102 8.89211 297.622 20.7145 296.124 20.7145C294.925 20.7145 286.636 30.2382 282.641 35L251.679 17.7589L214.226 15.7885H202.24L191.753 20.7145L174.774 10.3699L166.784 12.3403L157.296 17.7589L148.807 10.3699C140.65 12.8329 123.938 18.3501 122.34 20.7145C120.742 23.079 114.017 29.5814 110.854 32.537L96.3717 22.685L83.8872 17.7589L72.9009 22.685L58.9182 10.3699L49.43 15.7885L30.9529 10.3699Z" fill="white"/>
</g>
</svg>
