<svg width="390" height="67" viewBox="0 0 390 67" preserveAspectRatio="none" fill="none" xmlns="http://www.w3.org/2000/svg">
<rect y="10" width="390" height="3" fill="#FFDA4A"/>
<path fill-rule="evenodd" clip-rule="evenodd" d="M390 10.9999V11.0771V11.9999H0V11.0771V10.9999V4.65082C7.2207 8.02045 16.5801 9.99164 26.5703 9.99164C35.6797 9.99164 45.3203 8.35053 54.3398 4.65131C68.5195 -1.17584 78 4.65131 78 4.65131C85.2207 8.02045 94.5801 9.99164 104.57 9.99164C113.68 9.99164 123.32 8.35053 132.34 4.65131C146.52 -1.17584 156 4.65131 156 4.65131C163.221 8.02045 172.58 9.99164 182.57 9.99164C191.09 9.99164 200.074 8.5561 208.582 5.34321L209.213 5.02045L209.91 4.65082C214.338 2.25141 219.016 1.77338 223.029 2.06293C229.889 2.12348 234 4.65131 234 4.65131C241.619 8.21186 251.76 10.895 262.43 10.8945C271.08 10.8945 280.061 9.13178 288.34 4.65082C299.4 -1.34136 312 4.65082 312 4.65082C318.949 7.89204 328.016 10.5234 337.652 10.9999H343.807C351.408 10.6132 359.164 8.73823 366.34 4.65082C384.74 -5.81353 390 4.65082 390 4.65082V10.9999Z" fill="#FFDA4A"/>
<mask id="mask0_2462_27623" style="mask-type:alpha" maskUnits="userSpaceOnUse" x="0" y="0" width="390" height="67">
<path fill-rule="evenodd" clip-rule="evenodd" d="M390 10.0774V4.65077C390 4.65077 384.74 -5.81346 366.34 4.65077C361.577 7.36398 356.558 9.10212 351.498 10.0774H329.438C322.927 8.94357 316.931 6.95083 312 4.651C312 4.651 299.4 -1.34097 288.34 4.651C283.209 7.42783 277.809 9.16085 272.385 10.0774H252.071C245.317 9.02099 239.095 7.03234 234 4.65151C234 4.65151 229.884 2.12161 223.019 2.06279C219.007 1.77474 214.335 2.25375 209.91 4.65111C209.47 4.88937 209.028 5.11994 208.584 5.34297C200.076 8.55607 191.091 9.9921 182.57 9.99217H182.57C172.58 9.99209 163.22 8.02083 156 4.65151C156 4.65151 146.52 -1.17546 132.34 4.65151C123.32 8.3509 113.68 9.99217 104.57 9.99217C94.5803 9.99217 85.2204 8.0209 78.0004 4.65151C78.0004 4.65151 68.5203 -1.17546 54.3403 4.65151C45.3203 8.3509 35.6803 9.99217 26.5703 9.99217V9.99176C16.5803 9.99176 7.22037 8.0205 0.000366211 4.6511V10.0774H0V66.0774H390V11.0769V10.0774Z" fill="#FFDA4A"/>
</mask>
<g mask="url(#mask0_2462_27623)">
<path d="M31.9529 10.3699C23.297 11.6835 -4.00248 29.9787 -6 31.1609V-55.3387C2.82239 -62.0709 21.2662 -52.9746 24.4622 -55.3391C28.4572 -58.2947 89.3817 -53.3687 95.3742 -55.3391C101.367 -57.3095 222.716 -52.3837 227.211 -52.3837C230.806 -52.3837 341.902 -62.7281 397 -55.3391L394.503 24.6554L383.017 20.7145L378.024 31.0592L366.538 17.7589L347.561 15.7885L336.575 17.7589L324.59 24.6554C322.093 21.6998 316.899 15.0989 316.1 12.3403C315.102 8.89211 298.622 20.7145 297.124 20.7145C295.925 20.7145 287.636 30.2382 283.641 35L252.679 17.7589L215.226 15.7885H203.24L192.753 20.7145L175.774 10.3699L167.784 12.3403L158.296 17.7589L149.807 10.3699C141.65 12.8329 124.938 18.3501 123.34 20.7145C121.742 23.079 115.017 29.5814 111.854 32.537L97.3717 22.685L84.8872 17.7589L73.9009 22.685L59.9182 10.3699L50.43 15.7885L31.9529 10.3699Z" fill="white"/>
</g>
</svg>
