<svg width="392" height="69" viewBox="1 0 390 69" fill="none" preserveAspectRatio="none" xmlns="http://www.w3.org/2000/svg">
<path fill-rule="evenodd" clip-rule="evenodd" d="M391.003 13.0769H341.753C350.313 13.0769 359.203 11.288 367.343 6.65077C385.743 -3.81346 391.003 6.65077 391.003 6.65077V13.0769ZM27.5699 12.0148V12.0152H105.57V10.9297C95.5799 10.9297 86.22 8.9584 79 5.58901C79 5.58901 69.52 -0.237955 55.34 5.58901C46.32 9.2884 36.6799 10.9297 27.5699 10.9297V10.9293C17.5799 10.9293 8.22 8.958 1 5.5886V12.0148H27.5699ZM105.573 13.0777V11.9922C114.683 11.9922 124.323 10.3509 133.343 6.65151C147.523 0.824545 157.003 6.65151 157.003 6.65151C164.223 10.0208 173.582 11.9921 183.572 11.9922H183.573C192.094 11.9921 201.079 10.5561 209.586 7.34298C210.03 7.11995 210.473 6.88937 210.913 6.65111C215.338 4.25375 220.009 3.77474 224.022 4.06279C230.886 4.12161 235.002 6.65151 235.002 6.65151C242.622 10.212 252.762 12.8953 263.432 12.8953V13.0777H183.573H183.572H105.573ZM263.432 12.8948V13.0772H341.753C330.973 13.0772 320.693 10.2375 313.003 6.651C313.003 6.651 300.403 0.659033 289.343 6.651C281.063 11.1319 272.082 12.8948 263.432 12.8948Z" fill="#FFDA4A"/>
<path d="M1.00232 5.65039C8.22232 9.01978 17.5823 10.991 27.5723 10.991V12.0765" stroke="white" stroke-width="2"/>
<path d="M27.5723 12.0765V10.991C36.6823 10.991 46.3223 9.3497 55.3423 5.65031C69.5223 -0.176657 79.0023 5.65031 79.0023 5.65031C86.2223 9.0197 95.5823 10.991 105.572 10.991V12.0765" stroke="white" stroke-width="2"/>
<path d="M105.572 12.0765V10.991C114.682 10.991 124.322 9.3497 133.342 5.65031C147.522 -0.176657 157.002 5.65031 157.002 5.65031C164.222 9.0197 173.582 10.991 183.572 10.991V12.0765" stroke="white" stroke-width="2"/>
<path d="M183.572 12.0765V10.991C192.682 10.991 202.322 9.3497 211.342 5.65031C225.522 -0.176657 235.002 5.65031 235.002 5.65031C242.622 9.21075 252.762 11.8941 263.432 11.8941V12.0765" stroke="white" stroke-width="2"/>
<path d="M263.432 12.0775V11.8952C272.082 11.8952 281.062 10.1323 289.342 5.65138C300.402 -0.340587 313.002 5.65138 313.002 5.65138C320.692 9.23787 330.972 12.0775 341.752 12.0775" stroke="white" stroke-width="2"/>
<path d="M341.752 12.0769C350.312 12.0769 359.202 10.288 367.342 5.65077C385.742 -4.81346 391.002 5.65077 391.002 5.65077" stroke="white" stroke-width="2"/>
<mask id="mask0_4294_16039" style="mask-type:alpha" maskUnits="userSpaceOnUse" x="1" y="2" width="391" height="67">
<path fill-rule="evenodd" clip-rule="evenodd" d="M391.002 12.0771V6.65077C391.002 6.65077 385.742 -3.81346 367.342 6.65077C362.58 9.36377 357.561 11.1019 352.502 12.0771H330.439C323.929 10.9433 317.933 8.95065 313.002 6.65089C313.002 6.65089 300.402 0.658925 289.342 6.65089C284.212 9.4276 278.812 11.1606 273.388 12.0771H253.074C246.32 11.0208 240.098 9.03212 235.002 6.65129C235.002 6.65129 230.886 4.12139 224.022 4.06257C220.009 3.77452 215.338 4.25353 210.913 6.65089C210.472 6.88914 210.03 7.11972 209.586 7.34275C201.079 10.5558 192.094 11.9919 183.573 11.9919H183.572C173.582 11.9919 164.223 10.0206 157.003 6.65129C157.003 6.65129 147.523 0.824321 133.343 6.65129C124.323 10.3507 114.683 11.9919 105.573 11.9919C95.5828 11.9919 86.2228 10.0207 79.0028 6.65129C79.0028 6.65129 69.5228 0.824321 55.3428 6.65129C46.3228 10.3507 36.6828 11.9919 27.5728 11.9919V11.9915C17.5828 11.9915 8.22281 10.0203 1.00281 6.65088V12.0771H1.00244V68.0771H391.002V13.0769V12.0771Z" fill="#FFDA4A"/>
</mask>
<g mask="url(#mask0_4294_16039)">
<path d="M31.9554 10.448C23.2994 11.7617 -4.00004 30.0568 -5.99756 31.2391V-55.2606C2.82483 -61.9928 21.2686 -52.8965 24.4646 -55.261C28.4597 -58.2166 89.3841 -53.2906 95.3767 -55.261C101.369 -57.2314 222.719 -52.3056 227.213 -52.3056C230.809 -52.3056 341.904 -62.65 397.002 -55.261L394.506 24.7335L383.02 20.7927L378.026 31.1373L366.54 17.8371L347.564 15.8667L336.577 17.8371L324.592 24.7335C322.095 21.7779 316.902 15.177 316.103 12.4184C315.104 8.97023 298.624 20.7927 297.126 20.7927C295.928 20.7927 287.638 30.3163 283.643 35.0781L252.681 17.8371L215.228 15.8667H203.243L192.756 20.7927L175.777 10.448L167.787 12.4184L158.299 17.8371L149.809 10.448C141.653 12.9111 124.94 18.4282 123.342 20.7927C121.744 23.1572 115.019 29.6595 111.856 32.6151L97.3742 22.7631L84.8897 17.8371L73.9033 22.7631L59.9207 10.448L50.4324 15.8667L31.9554 10.448Z" fill="white"/>
</g>
</svg>
