<svg width="392" height="69" viewBox="1 0 390 69" preserveAspectRatio="none" fill="none" xmlns="http://www.w3.org/2000/svg">
<path fill-rule="evenodd" clip-rule="evenodd" d="M391 13.0769H341.75C350.31 13.0769 359.2 11.288 367.34 6.65077C385.74 -3.81346 391 6.65077 391 6.65077V13.0769ZM263.43 13.0772V12.8948C272.08 12.8948 281.06 11.1319 289.34 6.651C300.4 0.659033 313 6.651 313 6.651C320.69 10.2375 330.97 13.0772 341.75 13.0772H263.43Z" fill="#FFDA4A"/>
<path d="M1.00037 5.65039C8.22037 9.01978 17.5803 10.991 27.5703 10.991V12.0765" stroke="#FFE88C" stroke-width="2"/>
<path d="M27.5703 12.077V10.9915C36.6803 10.9915 46.3203 9.35018 55.3403 5.6508C69.5203 -0.176168 79.0004 5.6508 79.0004 5.6508C86.2204 9.02019 95.5803 10.9915 105.57 10.9915V12.077" stroke="#FFE88C" stroke-width="2"/>
<path d="M105.57 12.077V10.9915C114.68 10.9915 124.32 9.35018 133.34 5.6508C147.52 -0.176168 157 5.6508 157 5.6508C164.22 9.02019 173.58 10.9915 183.57 10.9915V12.077" stroke="#FFE88C" stroke-width="2"/>
<path d="M183.57 12.077V10.9915C192.68 10.9915 202.32 9.35018 211.34 5.6508C225.52 -0.176168 235 5.6508 235 5.6508C242.62 9.21124 252.76 11.8946 263.43 11.8946V12.077" stroke="#FFE88C" stroke-width="2"/>
<path d="M263.43 12.077V11.8947C272.08 11.8947 281.06 10.1318 289.34 5.65089C300.4 -0.341075 313 5.65089 313 5.65089C320.69 9.23738 330.97 12.077 341.75 12.077" stroke="#FFE88C" stroke-width="2"/>
<path d="M341.75 12.0769C350.31 12.0769 359.2 10.288 367.34 5.65077C385.74 -4.81346 391 5.65077 391 5.65077" stroke="#FFE88C" stroke-width="2"/>
<mask id="mask0_2449_25625" style="mask-type:alpha" maskUnits="userSpaceOnUse" x="0" y="-1" width="392" height="70">
<path fill-rule="evenodd" clip-rule="evenodd" d="M391 12.0773V6.65071C391 6.65071 385.74 -3.81351 367.34 6.65071C362.577 9.36393 357.558 11.1021 352.498 12.0773H330.438C323.927 10.9435 317.931 8.95078 313 6.65094C313 6.65094 300.4 0.658979 289.34 6.65094C284.209 9.42777 278.809 11.1608 273.385 12.0773H253.071C246.317 11.0209 240.095 9.03229 235 6.65146C235 6.65146 230.884 4.12156 224.019 4.06274C220.007 3.77469 215.335 4.2537 210.91 6.65106C210.47 6.88931 210.028 7.11989 209.584 7.34292C201.076 10.556 192.091 11.992 183.57 11.9921H183.57C173.58 11.992 164.22 10.0208 157 6.65146C157 6.65146 147.52 0.82449 133.34 6.65146C124.32 10.3508 114.68 11.9921 105.57 11.9921C95.5803 11.9921 86.2204 10.0208 79.0004 6.65146C79.0004 6.65146 69.5203 0.82449 55.3403 6.65146C46.3203 10.3508 36.6803 11.9921 27.5703 11.9921V11.9917C17.5803 11.9917 8.22037 10.0204 1.00037 6.65105V12.0773H1V68.0773H391V13.0769V12.0773Z" fill="#FFDA4A"/>
<path d="M1.00037 5.65039C8.22037 9.01978 17.5803 10.991 27.5703 10.991V12.0765" stroke="#FFE88C" stroke-width="2"/>
<path d="M27.5703 12.077V10.9915C36.6803 10.9915 46.3203 9.35018 55.3403 5.6508C69.5203 -0.176168 79.0004 5.6508 79.0004 5.6508C86.2204 9.02019 95.5803 10.9915 105.57 10.9915V12.077" stroke="#FFE88C" stroke-width="2"/>
<path d="M105.57 12.077V10.9915C114.68 10.9915 124.32 9.35018 133.34 5.6508C147.52 -0.176168 157 5.6508 157 5.6508C164.22 9.02019 173.58 10.9915 183.57 10.9915V12.077" stroke="#FFE88C" stroke-width="2"/>
<path d="M183.57 12.077V10.9915C192.68 10.9915 202.32 9.35018 211.34 5.6508C225.52 -0.176168 235 5.6508 235 5.6508C242.62 9.21124 252.76 11.8946 263.43 11.8946V12.077" stroke="#FFE88C" stroke-width="2"/>
<path d="M263.43 12.077V11.8947C272.08 11.8947 281.06 10.1318 289.34 5.65089C300.4 -0.341075 313 5.65089 313 5.65089C320.69 9.23738 330.97 12.077 341.75 12.077" stroke="#FFE88C" stroke-width="2"/>
<path d="M341.75 12.0769C350.31 12.0769 359.2 10.288 367.34 5.65077C385.74 -4.81346 391 5.65077 391 5.65077" stroke="#FFE88C" stroke-width="2"/>
</mask>
<g mask="url(#mask0_2449_25625)">
<path d="M32.9529 13.3699C24.297 14.6835 -3.00248 32.9787 -5 34.1609V-52.3387C3.82239 -59.0709 22.2662 -49.9746 25.4622 -52.3391C29.4572 -55.2947 90.3817 -50.3687 96.3742 -52.3391C102.367 -54.3095 223.716 -49.3837 228.211 -49.3837C231.806 -49.3837 342.902 -59.7281 398 -52.3391L395.503 27.6554L384.017 23.7145L379.024 34.0592L367.538 20.7589L348.561 18.7885L337.575 20.7589L325.59 27.6554C323.093 24.6998 317.899 18.0989 317.1 15.3403C316.102 11.8921 299.622 23.7145 298.124 23.7145C296.925 23.7145 288.636 33.2382 284.641 38L253.679 20.7589L216.226 18.7885H204.24L193.753 23.7145L176.774 13.3699L168.784 15.3403L159.296 20.7589L150.807 13.3699C142.65 15.8329 125.938 21.3501 124.34 23.7145C122.742 26.079 116.017 32.5814 112.854 35.537L98.3717 25.685L85.8872 20.7589L74.9009 25.685L60.9182 13.3699L51.43 18.7885L32.9529 13.3699Z" fill="white"/>
</g>
</svg>
