<svg width="392" height="69" viewBox="1 0 390 69" preserveAspectRatio="none" fill="none" xmlns="http://www.w3.org/2000/svg">
<mask id="mask0_2458_26457" style="mask-type:alpha" maskUnits="userSpaceOnUse" x="0" y="0" width="392" height="69">
<path fill-rule="evenodd" clip-rule="evenodd" d="M391 12.1538V6.72743C391 6.72743 385.74 -3.7368 367.34 6.72743C362.578 9.44043 357.559 11.1785 352.499 12.1538H330.437C323.927 11.02 317.931 9.02731 313 6.72755C313 6.72755 300.4 0.735585 289.34 6.72755C284.209 9.50426 278.809 11.2373 273.386 12.1538H253.071C246.317 11.0974 240.095 9.10878 235 6.72795C235 6.72795 230.884 4.19805 224.019 4.13923C220.007 3.85118 215.335 4.33019 210.91 6.72755C210.47 6.96581 210.028 7.19638 209.584 7.41941C201.076 10.6325 192.091 12.0685 183.57 12.0686H183.57C173.58 12.0685 164.22 10.0973 157 6.72795C157 6.72795 147.52 0.900981 133.34 6.72795C124.32 10.4273 114.68 12.0686 105.57 12.0686C95.5803 12.0686 86.2204 10.0973 79.0004 6.72795C79.0004 6.72795 69.5203 0.900981 55.3403 6.72795C46.3203 10.4273 36.6803 12.0686 27.5703 12.0686V12.0682C17.5803 12.0682 8.22037 10.0969 1.00037 6.72754V12.1538H1V68.1538H391V13.1536V12.1538Z" fill="#FFDA4A"/>
<path d="M1.00037 5.72705C8.22037 9.09644 17.5803 11.0677 27.5703 11.0677V12.1532" stroke="#FFE88C" stroke-width="2"/>
<path d="M27.5703 12.1536V11.0681C36.6803 11.0681 46.3203 9.42684 55.3403 5.72746C69.5203 -0.0995082 79.0004 5.72746 79.0004 5.72746C86.2204 9.09685 95.5803 11.0681 105.57 11.0681V12.1536" stroke="#FFE88C" stroke-width="2"/>
<path d="M105.57 12.1536V11.0681C114.68 11.0681 124.32 9.42684 133.34 5.72746C147.52 -0.0995082 157 5.72746 157 5.72746C164.22 9.09685 173.58 11.0681 183.57 11.0681V12.1536" stroke="#FFE88C" stroke-width="2"/>
<path d="M183.57 12.1536V11.0681C192.68 11.0681 202.32 9.42684 211.34 5.72746C225.52 -0.0995082 235 5.72746 235 5.72746C242.62 9.2879 252.76 11.9713 263.43 11.9713V12.1536" stroke="#FFE88C" stroke-width="2"/>
<path d="M263.43 12.1537V11.9713C272.08 11.9713 281.06 10.2085 289.34 5.72755C300.4 -0.264415 313 5.72755 313 5.72755C320.69 9.31404 330.97 12.1537 341.75 12.1537" stroke="#FFE88C" stroke-width="2"/>
<path d="M341.75 12.1536C350.31 12.1536 359.2 10.3647 367.34 5.72743C385.74 -4.7368 391 5.72743 391 5.72743" stroke="#FFE88C" stroke-width="2"/>
</mask>
<g mask="url(#mask0_2458_26457)">
<path d="M32.9529 13.4466C24.297 14.7602 -3.00248 33.0554 -5 34.2376V-52.262C3.82239 -58.9943 22.2662 -49.8979 25.4622 -52.2624C29.4572 -55.218 90.3817 -50.292 96.3742 -52.2624C102.367 -54.2328 223.716 -49.307 228.211 -49.307C231.806 -49.307 342.902 -59.6515 398 -52.2624L395.503 27.732L384.017 23.7912L379.024 34.1358L367.538 20.8356L348.561 18.8652L337.575 20.8356L325.59 27.732C323.093 24.7764 317.899 18.1756 317.1 15.417C316.102 11.9688 299.622 23.7912 298.124 23.7912C296.925 23.7912 288.636 33.3148 284.641 38.0767L253.679 20.8356L216.226 18.8652H204.24L193.753 23.7912L176.774 13.4466L168.784 15.417L159.296 20.8356L150.807 13.4466C142.65 15.9096 125.938 21.4267 124.34 23.7912C122.742 26.1557 116.017 32.658 112.854 35.6137L98.3717 25.7616L85.8872 20.8356L74.9009 25.7616L60.9182 13.4466L51.43 18.8652L32.9529 13.4466Z" fill="white"/>
</g>
</svg>
