<svg width="390" height="67" viewBox="0 0 390 67" preserveAspectRatio="none" fill="none" xmlns="http://www.w3.org/2000/svg">
<mask id="mask0_4294_16063" style="mask-type:alpha" maskUnits="userSpaceOnUse" x="0" y="0" width="390" height="67">
<path fill-rule="evenodd" clip-rule="evenodd" d="M390 10.0771V4.65077C390 4.65077 384.74 -5.81346 366.34 4.65077C361.578 7.36377 356.559 9.10185 351.499 10.0771H329.437C322.927 8.94333 316.931 6.95065 312 4.65089C312 4.65089 299.4 -1.34107 288.34 4.65089C283.209 7.4276 277.809 9.16059 272.386 10.0771H252.071C245.317 9.02077 239.095 7.03212 234 4.65129C234 4.65129 229.884 2.12139 223.019 2.06257C219.007 1.77452 214.335 2.25353 209.91 4.65089C209.47 4.88914 209.028 5.11972 208.584 5.34275C200.076 8.55584 191.091 9.99188 182.57 9.99194H182.57C172.58 9.99186 163.22 8.02061 156 4.65129C156 4.65129 146.52 -1.17568 132.34 4.65129C123.32 8.35067 113.68 9.99194 104.57 9.99194C94.5803 9.99194 85.2204 8.02068 78.0004 4.65129C78.0004 4.65129 68.5203 -1.17568 54.3403 4.65129C45.3203 8.35067 35.6803 9.99194 26.5703 9.99194V9.99154C16.5803 9.99154 7.22037 8.02027 0.000366211 4.65088V10.0771H0V66.0771H390V11.0769V10.0771Z" fill="#FFDA4A"/>
</mask>
<g mask="url(#mask0_4294_16063)">
<path d="M30.9529 8.44804C22.297 9.76165 -5.00248 28.0568 -7 29.2391V-57.2606C1.82239 -63.9928 20.2662 -54.8965 23.4622 -57.261C27.4572 -60.2166 88.3817 -55.2906 94.3742 -57.261C100.367 -59.2314 221.716 -54.3056 226.211 -54.3056C229.806 -54.3056 340.902 -64.65 396 -57.261L393.503 22.7335L382.017 18.7927L377.024 29.1373L365.538 15.8371L346.561 13.8667L335.575 15.8371L323.59 22.7335C321.093 19.7779 315.899 13.177 315.1 10.4184C314.102 6.97023 297.622 18.7927 296.124 18.7927C294.925 18.7927 286.636 28.3163 282.641 33.0781L251.679 15.8371L214.226 13.8667H202.24L191.753 18.7927L174.774 8.44804L166.784 10.4184L157.296 15.8371L148.807 8.44804C140.65 10.9111 123.938 16.4282 122.34 18.7927C120.742 21.1572 114.017 27.6595 110.854 30.6151L96.3717 20.7631L83.8872 15.8371L72.9009 20.7631L58.9182 8.44804L49.43 13.8667L30.9529 8.44804Z" fill="white"/>
</g>
</svg>
