<svg width="32" height="32" viewBox="0 0 32 32" fill="none" xmlns="http://www.w3.org/2000/svg">
<g id="icon-arrow-right-circle-mono">
<rect id="Rectangle 2672" x="6.66669" y="25.334" width="18.6667" height="18.6667" transform="rotate(-90 6.66669 25.334)" fill="#F5F6F9"/>
<path id="Vector" d="M16 30.666C24.1333 30.666 30.6666 24.1327 30.6666 15.9993C30.6666 7.86602 24.1333 1.33268 16 1.33268C7.86665 1.33268 1.33331 7.86602 1.33331 15.9993C1.33331 24.1327 7.86665 30.666 16 30.666ZM16 23.3327C15.2 23.3327 14.6666 22.7993 14.6666 21.9993L14.6666 13.1993L11.6 16.266C11.0666 16.7993 10.2666 16.7993 9.73331 16.266C9.19998 15.7327 9.19998 14.9327 9.73331 14.3994L15.0666 9.06601C15.6 8.53268 16.4 8.53268 16.9333 9.06601L22.2666 14.3994C22.5333 14.666 22.6666 14.9327 22.6666 15.3327C22.6666 15.7327 22.5333 15.9993 22.2666 16.266C21.7333 16.7993 20.9333 16.7993 20.4 16.266L17.3333 13.1993L17.3333 21.9993C17.3333 22.666 16.8 23.3327 16 23.3327Z" fill="current"/>
</g>
</svg>
