<svg width="28" height="28" fill="none" xmlns="http://www.w3.org/2000/svg"><path fill="#fff" d="M5.833 5.833h16.333v16.333H5.833z"/><path d="M1.167 14A12.796 12.796 0 0 0 14 26.834 12.796 12.796 0 0 0 26.833 14 12.796 12.796 0 0 0 14 1.167 12.796 12.796 0 0 0 1.167 14Zm6.416 0c0-.7.467-1.166 1.167-1.166h7.7l-2.683-2.684a1.128 1.128 0 0 1 0-1.633 1.128 1.128 0 0 1 1.633 0l4.667 4.667a1.128 1.128 0 0 1 0 1.633L15.4 19.484c-.233.233-.467.35-.817.35-.35 0-.583-.117-.816-.35a1.128 1.128 0 0 1 0-1.634l2.683-2.683h-7.7c-.583 0-1.167-.467-1.167-1.167Z" fill="#313239"/></svg>