<svg xmlns="http://www.w3.org/2000/svg" width="28" height="28" fill="none"><path fill="#fff" d="M5.833 5.833h16.333v16.333H5.833z"/><path fill="#313239" fill-rule="evenodd" d="M19.24 15.167h-4.083v4.083a1.167 1.167 0 1 1-2.333 0v-4.083H8.741a1.167 1.167 0 1 1 0-2.333h4.083V8.75a1.167 1.167 0 1 1 2.333 0v4.084h4.084a1.167 1.167 0 1 1 0 2.333Zm-5.24-14C6.912 1.167 1.167 6.913 1.167 14c0 7.088 5.745 12.834 12.833 12.834 7.087 0 12.833-5.746 12.833-12.834 0-7.087-5.745-12.833-12.833-12.833Z" clip-rule="evenodd"/></svg>