<svg width="40" height="40" fill="none" xmlns="http://www.w3.org/2000/svg"><g fill-rule="evenodd" clip-rule="evenodd" fill="#B3B6C4"><path d="M35.545 26.216c.006.137.01.276.01.415l-.001.001C35.56 34.015 27.605 40 17.787 40S.006 34.015 0 26.632c0-.192.007-.383.018-.574.14-1.164.472-2.297.977-3.4 1.024-2.233 2.567-3.986 4.438-5.427a15.771 15.771 0 0 1 2.19-1.422c.134-.071.204-.18.268-.313.187-.386.371-.775.556-1.164.42-.886.84-1.773 1.298-2.638.722-1.364 1.601-2.589 2.82-3.495.538-.4 1.122-.693 1.782-.765 1.095-.119 1.905.396 2.489 1.353.56.915.757 1.954.845 3.021l.006.117c.002.045.004.09.009.136v.044c0 .057-.002.118.075.113.074-.005.07-.07.067-.127v-.041c.046-.905.187-1.789.53-2.624.315-.766.764-1.413 1.496-1.773.871-.428 1.715-.253 2.53.187.984.532 1.736 1.353 2.411 2.266.693.936 1.203 1.988 1.713 3.04l.248.51c.265.538.522 1.082.777 1.625l.115.245a.629.629 0 0 0 .284.298c1.999 1.102 3.757 2.53 5.169 4.418 1.314 1.756 2.193 3.721 2.434 5.974ZM14.428 14.074a1.111 1.111 0 1 0 0-2.222 1.111 1.111 0 0 0 0 2.222Zm7.794-1.111a1.111 1.111 0 1 1-2.222 0 1.111 1.111 0 0 1 2.222 0Zm-7.084 6.28c.767.072 1.498-.113 2.233-.36l.137-.064c.154-.071.3-.14.443-.214.113-.058.221-.075.335-.016.222.118.46.193.7.267.88.268 1.745.287 2.575-.17.228-.125.432-.278.582-.49.072-.1.12-.21.032-.313-.09-.104-.216-.071-.326-.02a2.208 2.208 0 0 0-.282.159 2.57 2.57 0 0 1-1.537.44c-.462-.014-.913-.077-1.323-.259-.425-.189-.754-.154-1.186.039a4.672 4.672 0 0 1-2.35.4c-.498-.049-.98-.186-1.253-.65-.088-.151-.191-.254-.377-.2-.202.06-.224.22-.2.394.014.1.072.181.136.257.43.505 1.008.739 1.662.8ZM38.503 5.17H34.83V1.496a1.497 1.497 0 1 0-2.994 0V5.17h-3.672a1.497 1.497 0 0 0 0 2.995h3.672v3.672a1.497 1.497 0 0 0 2.994 0V8.164h3.673a1.497 1.497 0 0 0 0-2.995Zm.105.747a.756.756 0 0 0-.105-.007H34.09h4.413c.035 0 .07.003.105.007Zm-5.38 6.668a.756.756 0 0 1-.651-.749V7.423v4.413a.757.757 0 0 0 .651.75Zm-5.169-5.17a.756.756 0 0 1 .105-1.505h4.413V1.497 5.91h-4.413a.757.757 0 0 0-.105 1.506Z"/></g></svg>