<svg width="24" height="24" viewBox="0 0 24 24" fill="none" xmlns="http://www.w3.org/2000/svg">
<path d="M2 3.33333C2 2.59695 2.59695 2 3.33333 2H10C10.7364 2 11.3333 2.59695 11.3333 3.33333V10C11.3333 10.7364 10.7364 11.3333 10 11.3333H3.33333C2.59695 11.3333 2 10.7364 2 10V3.33333Z" fill="#B3B6C4"/>
<path d="M12.6667 3.33333C12.6667 2.59695 13.2636 2 14 2H20.6667C21.403 2 22 2.59695 22 3.33333V10C22 10.7364 21.403 11.3333 20.6667 11.3333H14C13.2636 11.3333 12.6667 10.7364 12.6667 10V3.33333Z" fill="#B3B6C4"/>
<path d="M2 14C2 13.2636 2.59695 12.6667 3.33333 12.6667H10C10.7364 12.6667 11.3333 13.2636 11.3333 14V20.6667C11.3333 21.403 10.7364 22 10 22H3.33333C2.59695 22 2 21.403 2 20.6667V14Z" fill="#B3B6C4"/>
<path d="M12.6667 14C12.6667 13.2636 13.2636 12.6667 14 12.6667H20.6667C21.403 12.6667 22 13.2636 22 14V20.6667C22 21.403 21.403 22 20.6667 22H14C13.2636 22 12.6667 21.403 12.6667 20.6667V14Z" fill="#B3B6C4"/>
</svg>
