<svg width="60" height="60" viewBox="0 0 60 60" fill="none" xmlns="http://www.w3.org/2000/svg">
<circle cx="30" cy="30" r="30" fill="#313239"/>
<path fill-rule="evenodd" clip-rule="evenodd" d="M30.4348 22.4331C24.9659 22.4331 20.3451 20.9667 17.6644 18.6562C17.3472 19.2256 17.1641 19.8227 17.1641 20.4425C17.1641 21.0569 17.3311 21.6518 17.6436 22.2164C17.3392 22.7744 17.1641 23.3589 17.1641 23.9649C17.1641 24.5059 17.2935 25.0318 17.5378 25.5352C17.299 26.0306 17.1641 26.5459 17.1641 27.0779C17.1641 27.6923 17.3311 28.2872 17.6436 28.8518C17.3392 29.4097 17.1641 29.9942 17.1641 30.6003C17.1641 34.2657 23.1067 37.2357 30.4348 37.2357C37.7629 37.2357 43.7055 34.2657 43.7055 30.6003C43.7055 29.9942 43.5304 29.4097 43.226 28.8518C43.5385 28.2872 43.7055 27.6923 43.7055 27.0779C43.7055 26.5459 43.5706 26.0306 43.3318 25.5352C43.576 25.0318 43.7055 24.5059 43.7055 23.9649C43.7055 23.3589 43.5304 22.7744 43.226 22.2164C43.5385 21.6518 43.7055 21.0569 43.7055 20.4425C43.7055 19.8227 43.5224 19.2256 43.2052 18.6562C40.5258 20.9667 35.9037 22.4331 30.4348 22.4331Z" fill="#F5F6F9"/>
<path fill-rule="evenodd" clip-rule="evenodd" d="M43.7055 17.3307C43.7055 20.996 37.7629 23.966 30.4348 23.966C23.1067 23.966 17.1641 20.996 17.1641 17.3307C17.1641 13.6666 23.1067 10.6953 30.4348 10.6953C37.7629 10.6953 43.7055 13.6666 43.7055 17.3307ZM39.7243 16.6671C39.7243 18.4998 35.5645 19.9848 30.4348 19.9848C25.3051 19.9848 21.1453 18.4998 21.1453 16.6671C21.1453 14.8351 25.3051 13.3495 30.4348 13.3495C35.5645 13.3495 39.7243 14.8351 39.7243 16.6671Z" fill="#F5F6F9"/>
<path d="M19.7572 48.6953V41.2853H21.2672L23.4172 45.2353L24.1672 46.8353H24.2172C24.1772 46.4486 24.1339 46.0253 24.0872 45.5653C24.0405 45.1053 24.0172 44.6653 24.0172 44.2453V41.2853H25.4172V48.6953H23.9072L21.7772 44.7353L21.0272 43.1453H20.9772C21.0105 43.5453 21.0505 43.9686 21.0972 44.4153C21.1439 44.862 21.1672 45.2986 21.1672 45.7253V48.6953H19.7572ZM27.2474 48.6953V41.2853H31.7874V42.5253H28.7274V44.2353H31.3174V45.4753H28.7274V47.4553H31.8974V48.6953H27.2474ZM34.0998 48.6953L32.6798 41.2853H34.1898L34.7598 44.9053C34.8264 45.292 34.8864 45.682 34.9398 46.0753C34.9998 46.4686 35.0564 46.8653 35.1098 47.2653H35.1498C35.2298 46.8653 35.3098 46.4686 35.3898 46.0753C35.4698 45.682 35.5464 45.292 35.6198 44.9053L36.4698 41.2853H37.7398L38.5998 44.9053C38.6798 45.2853 38.7564 45.6753 38.8298 46.0753C38.9098 46.4686 38.9898 46.8653 39.0698 47.2653H39.1198C39.1731 46.8653 39.2264 46.4686 39.2798 46.0753C39.3398 45.682 39.3964 45.292 39.4498 44.9053L40.0398 41.2853H41.4398L40.0698 48.6953H38.2298L37.3998 45.0253C37.3398 44.7386 37.2831 44.4553 37.2298 44.1753C37.1764 43.8886 37.1298 43.6053 37.0898 43.3253H37.0498C36.9964 43.6053 36.9398 43.8886 36.8798 44.1753C36.8264 44.4553 36.7731 44.7386 36.7198 45.0253L35.9098 48.6953H34.0998Z" fill="#F5F6F9"/>
</svg>
