<svg preserveAspectRatio="none" viewBox="0 0 180 180" fill="none" xmlns="http://www.w3.org/2000/svg"><path d="M90 180c49.625 0 90-40.375 90-90v-.016C179.992 40.77 140.271.662 91.203.016 90.799.016 90.403 0 90 0c-.404 0-.807.008-1.203.016C39.73.662.008 40.77 0 89.984V90c0 49.625 40.375 90 90 90Zm0-155.785c36.274 0 65.785 29.51 65.785 65.785 0 36.274-29.511 65.785-65.785 65.785S24.215 126.274 24.215 90 53.725 24.215 90 24.215Z" fill="current"/><mask id="a" style="mask-type:luminance" maskUnits="userSpaceOnUse" x="0" y="0" width="180" height="180"><path d="M90 180c-49.625 0-90-40.375-90-90S40.375 0 90 0s90 40.375 90 90-40.375 90-90 90Zm0-155.785c-36.274 0-65.785 29.51-65.785 65.785 0 36.274 29.51 65.785 65.785 65.785 36.274 0 65.785-29.511 65.785-65.785S126.274 24.215 90 24.215Z" fill="current"/></mask><g mask="url(#a)" stroke="#fff" stroke-miterlimit="10"><path opacity=".5" d="M92.075 91.43V-45.686M92.075 91.429 80.128-45.161M92.074 91.429 68.271-43.603M92.075 91.428 56.59-41.011M92.074 91.43 45.177-37.42M92.075 91.429 34.127-32.836M92.075 91.429 23.52-27.314M92.075 91.429 13.432-20.89M92.074 91.43 3.94-13.609M92.074 91.428-4.876-5.528M92.075 91.428-12.963 3.293M92.074 91.43-20.244 12.785M92.074 91.43-26.669 22.875M92.074 91.43-32.19 33.482M92.075 91.43l-128.85-46.898M92.074 91.429l-132.44-35.484M92.075 91.429-42.958 67.625M92.075 91.43l-136.59-11.947M92.074 91.429H-45.04M92.075 91.429l-136.59 11.954M92.075 91.429-42.958 115.24M92.074 91.429l-132.44 35.491M92.075 91.429l-128.85 46.897M92.074 91.429-32.19 149.384M92.074 91.429-26.669 159.99M92.074 91.429-20.244 170.08M92.075 91.429l-105.038 88.143M92.074 91.429l-96.95 96.958M92.074 91.429 3.94 196.474M92.075 91.429 13.432 203.755M92.075 91.429 23.52 210.18M92.075 91.429 34.127 215.7M92.074 91.429 45.177 220.278M92.075 91.429 56.59 223.878M92.074 91.429l-23.803 135.04M92.075 91.429 80.128 228.027M92.075 91.429v137.123M92.075 91.429l11.954 136.598M92.075 91.429l23.811 135.04M92.075 91.429l35.491 132.449M92.075 91.429l46.904 128.849M92.075 91.429 150.03 215.7M92.075 91.429l68.561 118.751M92.075 91.429l78.651 112.326M92.075 91.429l88.143 105.045M92.075 91.429l96.957 96.958M92.075 91.429l105.045 88.143M92.075 91.429 204.4 170.08M92.075 91.429l118.751 68.561M92.075 91.429l124.272 57.955M92.075 91.429l128.849 46.897M92.075 91.429l132.449 35.491M92.075 91.429l135.04 23.811M92.075 91.429l136.598 11.954M92.075 91.429h137.122M92.075 91.43l136.598-11.947M92.075 91.429l135.04-23.804M92.075 91.429l132.449-35.484M92.075 91.43l128.849-46.898M92.075 91.43l124.272-57.948M92.075 91.43l118.751-68.554M92.075 91.43 204.4 12.785M92.075 91.428 197.12 3.293M92.075 91.428l96.957-96.957M92.075 91.43l88.143-105.038M92.075 91.429 170.726-20.89M92.075 91.429l68.561-118.743M92.075 91.429 150.03-32.836M92.075 91.43l46.904-128.85M92.075 91.428l35.491-132.44M92.075 91.429l23.811-135.032M92.075 91.429l11.954-136.59"/></g></svg>