<svg xmlns="http://www.w3.org/2000/svg" fill="none" preserveAspectRatio="none" viewBox="0 0 180 180"><path fill="#fff" fill-rule="evenodd" d="M180 0H0v180h180V0ZM89.992 136.501l-15.247 12.358c-5.586 4.528-12.374 6.918-19.639 6.918-17.04 0-30.899-13.626-30.899-30.366 0-9.202 3.972-15.74 7.305-19.607l13.633-15.812-13.633-15.813c-3.333-3.866-7.305-10.404-7.305-19.606 0-16.74 13.86-30.366 30.899-30.366 7.265 0 14.053 2.39 19.639 6.918l15.247 12.357 15.248-12.357c5.585-4.529 12.374-6.918 19.638-6.918 17.04 0 30.899 13.625 30.899 30.366 0 9.202-3.971 15.74-7.305 19.606l-13.633 15.813 13.633 15.812c3.334 3.867 7.305 10.405 7.305 19.607 0 16.74-13.859 30.366-30.899 30.366-7.264 0-14.053-2.39-19.638-6.918l-15.248-12.358Z" clip-rule="evenodd"/><path fill="current" d="M180 54.581C180 24.433 155.325 0 124.886 0 111.648 0 99.5 4.625 90 12.326 80.5 4.626 68.352 0 55.114 0 24.675 0 0 24.433 0 54.581 0 68.101 4.964 80.467 13.181 90 4.964 99.533 0 111.899 0 125.419 0 155.567 24.675 180 55.114 180 68.352 180 80.5 175.375 90 167.674 99.5 175.375 111.648 180 124.886 180 155.325 180 180 155.567 180 125.419c0-13.52-4.964-25.886-13.181-35.419C175.036 80.467 180 68.101 180 54.581Zm-55.114 101.204c-7.264 0-14.053-2.389-19.638-6.918L90 136.509l-15.248 12.358c-5.585 4.529-12.373 6.918-19.638 6.918-17.04 0-30.899-13.625-30.899-30.366 0-9.202 3.972-15.74 7.305-19.606L45.153 90 31.52 74.187c-3.333-3.866-7.305-10.404-7.305-19.606 0-16.74 13.86-30.366 30.899-30.366 7.265 0 14.053 2.39 19.639 6.918L90 43.49l15.248-12.358c5.585-4.528 12.374-6.918 19.638-6.918 17.04 0 30.899 13.625 30.899 30.366 0 9.202-3.972 15.74-7.305 19.606L134.847 90l13.633 15.813c3.333 3.866 7.305 10.404 7.305 19.606 0 16.741-13.859 30.366-30.899 30.366Z"/><mask id="a" width="180" height="180" x="0" y="0" maskUnits="userSpaceOnUse" style="mask-type:luminance"><path fill="current" d="M124.886 155.785c17.04 0 30.899-13.625 30.899-30.366 0-9.202-3.972-15.74-7.305-19.606L134.847 90l13.633-15.813c3.333-3.866 7.305-10.404 7.305-19.606 0-16.74-13.859-30.366-30.899-30.366-7.264 0-14.053 2.39-19.638 6.918L90 43.49 74.752 31.133c-5.585-4.528-12.373-6.918-19.638-6.918-17.04 0-30.899 13.625-30.899 30.366 0 9.202 3.972 15.74 7.305 19.606L45.153 90 31.52 105.813c-3.333 3.866-7.305 10.404-7.305 19.606 0 16.741 13.86 30.366 30.899 30.366 7.265 0 14.053-2.389 19.639-6.918L90 136.509l15.248 12.358c5.585 4.529 12.374 6.918 19.638 6.918Zm0 24.215C111.648 180 99.5 175.375 90 167.674 80.5 175.375 68.352 180 55.114 180 24.675 180 0 155.567 0 125.419 0 111.899 4.964 99.533 13.181 90 4.964 80.467 0 68.101 0 54.581 0 24.433 24.675 0 55.114 0 68.352 0 80.5 4.625 90 12.326 99.5 4.626 111.648 0 124.886 0 155.325 0 180 24.433 180 54.581c0 13.52-4.964 25.886-13.181 35.419C175.036 99.533 180 111.899 180 125.419 180 155.567 155.325 180 124.886 180Z"/></mask><g stroke="#fff" stroke-miterlimit="10" mask="url(#a)"><path d="M90 90V-47.121M90 90.001 78.047-46.597M90 90.001 66.19-45.039M90 90.001 54.51-42.449M90 90 43.097-38.848M90 90.001 32.045-34.272M90 90 21.44-28.75M90 90 11.35-22.326M90 90 1.857-15.036M90 90-6.958-6.956M90 90-15.044 1.858M90 90-22.326 11.35M90 90-28.75 21.44M90 90.001-34.272 32.046M90 90.001-38.849 43.104M90 90.001-42.449 54.51M90 90.001-45.04 66.19M90 90.001-46.596 78.047M90 90.001H-47.123M90 90.001l-136.597 11.946M90 90.001l-135.04 23.812M90 90.001l-132.449 35.483M90 90.001l-128.849 46.897M90 90.001l-124.272 57.947M90 90.001-28.75 158.554M90 90.001l-112.326 78.643M90 90.001l-105.045 88.135M90 90.001l-96.958 96.958M90 90.001 1.857 195.039M90 90.001 11.35 202.319M90 90.001 21.44 208.744M90 90.001 32.045 214.274M90 90.001 43.097 218.85M90 90.001 54.51 222.442M90 90.001 66.19 225.033M90 90.001l-11.954 136.59M90 90.001v137.115M90 90.001l11.946 136.59M90 90.001l23.804 135.032M90 90.001l35.484 132.441M90 90.001l46.897 128.849M90 90.001l57.947 124.273M90 90.001l68.554 118.743M90 90.001l78.643 112.318M90 90.001l88.136 105.038M90 90.001l96.95 96.958M90 90.001l105.038 88.135M90 90.001l112.319 78.643M90 90.001l118.744 68.553M90 90.001l124.265 57.947M90 90.001l128.842 46.897M90 90.001l132.442 35.483M90 90.001l135.033 23.812M90 90.001l136.59 11.946M90 90.001h137.115M90 90.001l136.59-11.954M90 90.001 225.033 66.19M90 90.001 222.442 54.51M90 90.001l128.842-46.897M90 90.001l124.265-57.955M90 90l118.744-68.56M90 90 202.32 11.35M90 90 195.038 1.858M90 90l96.95-96.957M90 90l88.136-105.037M90 90l78.643-112.326M90 90 158.554-28.75M90 90.001l57.947-124.273M90 90l46.897-128.849M90 90.001l35.484-132.45M90 90.001l23.804-135.04M90 90.001l11.946-136.598" opacity=".5"/></g></svg>