<svg xmlns="http://www.w3.org/2000/svg" fill="none" preserveAspectRatio="none" viewBox="0 0 180 180"><path fill="#fff" fill-rule="evenodd" d="M180 0H0v180h180V0Zm-24.214 155.785H24.222v-76.23l65.75-49.294 65.814 49.294v76.23Z" clip-rule="evenodd"/><path fill="current" d="M89.964 0 0 67.448V180h179.992V67.448L89.964 0Zm65.822 155.785H24.222v-76.23l65.75-49.294 65.814 49.302v76.222Z"/><mask id="a" width="180" height="180" x="0" y="0" maskUnits="userSpaceOnUse" style="mask-type:luminance"><path fill="current" d="M155.786 155.785V79.563L89.972 30.261l-65.75 49.294v76.23h131.564ZM180 180H.008V67.448L89.972 0 180 67.448V180Z"/></mask><g stroke="#fff" stroke-miterlimit="10" mask="url(#a)"><path d="M92.465 105.312v137.114M92.465 105.312 104.41 241.91M92.465 105.312l23.81 135.032M92.465 105.312l35.49 132.441M92.465 105.312l46.895 128.849M92.465 105.312l57.944 124.272M92.465 105.312l68.558 118.743M92.465 105.312l78.647 112.318M92.465 105.312l88.131 105.037M92.465 105.312l96.953 96.957M92.465 105.312l105.033 88.135M92.465 105.312l112.313 78.643M92.465 105.312l118.738 68.561M92.465 105.312l124.267 57.947M92.465 105.312l128.843 46.896M92.465 105.312l132.443 35.491M92.465 105.312l135.026 23.811M92.465 105.312l136.592 11.946M92.465 105.312h137.108M92.465 105.312l136.592-11.955M92.465 105.312 227.49 81.5M92.465 105.312 224.908 69.82M92.465 105.312l128.843-46.897M92.465 105.311l124.267-57.947M92.465 105.311 211.203 36.75M92.465 105.311l112.313-78.65M92.465 105.311l105.033-88.135M92.465 105.311l96.953-96.957M92.465 105.311 180.596.273M92.465 105.312 171.112-7.007M92.465 105.311 161.023-13.44M92.465 105.312l57.944-124.273M92.465 105.311l46.895-128.85M92.465 105.312l35.49-132.45M92.465 105.312l23.81-135.04M92.465 105.312 104.41-31.286M92.465 105.311V-31.812M92.466 105.312 80.512-31.286M92.465 105.312l-23.81-135.04M92.465 105.312l-35.49-132.45M92.465 105.311 45.57-23.539M92.464 105.312 34.52-18.961M92.465 105.311 23.907-13.44M92.466 105.312 13.818-7.007M92.465 105.311 4.334.273M92.465 105.311-4.488 8.354M92.465 105.311-12.568 17.176M92.466 105.311l-112.314-78.65M92.465 105.311-26.281 36.75M92.465 105.311-31.802 47.364M92.465 105.312-36.378 58.415M92.465 105.312-39.978 69.82M92.465 105.312-42.561 81.5M92.465 105.312-44.127 93.357M92.465 105.312H-44.652M92.465 105.312l-136.592 11.946M92.465 105.312l-135.026 23.811M92.465 105.312l-132.443 35.491M92.465 105.312l-128.843 46.896M92.465 105.312l-124.267 57.947M92.465 105.312l-118.746 68.561M92.466 105.312l-112.314 78.643M92.465 105.312l-105.033 88.135M92.465 105.312l-96.953 96.957M92.465 105.312 4.334 210.349M92.466 105.312 13.818 217.63M92.465 105.312 23.907 224.055M92.464 105.312 34.52 229.584M92.465 105.312 45.57 234.161M92.465 105.312l-35.49 132.441M92.465 105.312l-23.81 135.032M92.466 105.312 80.512 241.91" opacity=".5"/></g></svg>