<svg width="100%" height="100%" preserveAspectRatio="none" viewBox="0 0 180 180" fill="none" xmlns="http://www.w3.org/2000/svg">
<path fill-rule="evenodd" clip-rule="evenodd" d="M180 0H0V180H180V0ZM145.291 108.146C138.431 122.817 128.665 134.907 115.439 145.104L115.432 145.089C105.203 152.977 96.8439 156.808 89.6746 156.808C82.5052 156.808 74.0767 152.868 63.9021 144.757C49.3858 133.192 38.6318 119.565 31.9569 104.261C25.3516 89.1268 22.4544 71.7525 23.3352 52.6323C23.6596 45.6332 25.282 39.7929 28.1482 35.2813C30.9294 30.901 34.9931 27.6332 40.5555 25.3079C43.9547 23.8864 47.1763 23.168 50.1506 23.168C56.1688 23.168 62.102 26.119 68.2747 32.2066C74.7565 38.5954 82.0649 41.8323 89.9913 41.8323C95.5615 41.8323 103.82 40.1405 111.553 32.0984C120.082 23.222 126.958 23.222 129.214 23.222C132.281 23.222 135.649 23.9251 139.211 25.3002C146.658 28.1817 153.936 33.798 156.833 55.2049C156.846 55.5685 156.821 56.3305 156.799 57.0001C156.794 57.1272 156.79 57.2509 156.787 57.368C156.756 58.1946 156.725 59.1062 156.709 60.1027C155.504 78.3654 151.665 94.5268 145.291 108.146Z" fill="white"/>
<path d="M91.962 179.938C92.3714 179.914 92.7886 179.876 93.198 179.845C93.592 179.814 93.9783 179.791 94.3723 179.752C94.7818 179.706 95.1989 179.644 95.6161 179.59C96.0101 179.536 96.3964 179.497 96.7904 179.435C97.2076 179.366 97.6248 179.281 98.042 179.204C98.4282 179.134 98.8222 179.065 99.2085 178.987C99.6334 178.895 100.051 178.786 100.476 178.686C100.862 178.593 101.256 178.508 101.642 178.408C102.067 178.3 102.492 178.168 102.909 178.045C103.303 177.929 103.689 177.829 104.083 177.705C104.508 177.574 104.941 177.411 105.366 177.265C105.76 177.133 106.146 177.01 106.54 176.863C106.973 176.701 107.413 176.523 107.846 176.353C108.232 176.199 108.626 176.059 109.012 175.897C109.453 175.712 109.893 175.511 110.333 175.318C110.72 175.148 111.114 174.986 111.5 174.8C111.948 174.592 112.396 174.368 112.836 174.144C113.223 173.95 113.617 173.773 114.003 173.572C114.459 173.34 114.922 173.077 115.378 172.83C115.764 172.622 116.143 172.429 116.529 172.212C117 171.95 117.479 171.656 117.958 171.378C118.337 171.162 118.708 170.945 119.086 170.721C119.565 170.428 120.06 170.119 120.539 169.81C120.917 169.57 121.288 169.346 121.667 169.099C122.184 168.767 122.71 168.404 123.227 168.056C123.575 167.824 123.923 167.6 124.27 167.353C124.873 166.936 125.475 166.496 126.086 166.063C126.364 165.862 126.634 165.677 126.912 165.476C127.801 164.827 128.689 164.162 129.585 163.467C134.8 159.442 139.551 155.186 143.862 150.689C145.585 148.897 147.246 147.059 148.83 145.197C152.005 141.465 154.902 137.587 157.552 133.586C158.873 131.585 160.132 129.545 161.322 127.483C164.304 122.314 166.9 116.953 169.125 111.406C170.013 109.189 170.848 106.941 171.628 104.67C172.795 101.255 173.83 97.7788 174.741 94.2483C175.05 93.0741 175.336 91.8843 175.614 90.6946C176.171 88.3152 176.673 85.905 177.129 83.4715C177.584 81.038 177.986 78.5813 178.334 76.1015C179.037 71.1419 179.547 66.0895 179.863 60.9444C179.863 59.1522 179.987 57.3367 179.995 55.5367C179.995 54.4629 179.956 53.3891 179.809 52.3307C179.268 48.3058 178.558 44.3736 177.615 40.5882C177.299 39.329 176.959 38.0775 176.588 36.8492C176.402 36.2311 176.209 35.6286 176.016 35.0183C175.622 33.8054 175.189 32.6157 174.734 31.4492C174.123 29.8809 173.451 28.359 172.717 26.8758C172.084 25.5856 171.412 24.3187 170.678 23.0904C170.361 22.565 170.044 22.0397 169.712 21.5298C169.048 20.5024 168.345 19.4981 167.603 18.5247C166.861 17.5513 166.081 16.6088 165.262 15.6972C163.617 13.8663 161.809 12.1668 159.808 10.5985C158.811 9.81053 157.768 9.06118 156.671 8.35045C155.574 7.63972 154.439 6.95989 153.249 6.31868C151.464 5.36074 149.564 4.48779 147.54 3.70753C146.821 3.42942 146.11 3.17448 145.4 2.92727C145.183 2.85002 144.967 2.78049 144.751 2.71096C144.249 2.541 143.739 2.3865 143.237 2.23199C142.997 2.16247 142.765 2.09294 142.526 2.02341C141.993 1.8689 141.467 1.72985 140.942 1.59852C140.764 1.55217 140.579 1.50581 140.401 1.45946C139.706 1.28951 139.011 1.13499 138.315 0.995939C138.169 0.965037 138.014 0.941861 137.867 0.91096C137.319 0.81053 136.77 0.710105 136.229 0.625127C135.998 0.5865 135.774 0.555595 135.542 0.524694C135.055 0.455166 134.576 0.393366 134.089 0.347014C133.873 0.323838 133.649 0.300659 133.433 0.277483C132.83 0.223406 132.235 0.177056 131.64 0.146154C131.555 0.146154 131.47 0.130706 131.385 0.130706C130.706 0.0998051 130.033 0.0843547 129.361 0.0766294C129.176 0.0766294 128.998 0.0766294 128.821 0.0766294C128.28 0.0766294 127.739 0.0920781 127.198 0.122979C126.99 0.130705 126.781 0.138431 126.572 0.153881C125.947 0.192508 125.313 0.238858 124.695 0.308385C124.626 0.308385 124.556 0.323835 124.479 0.331561C123.791 0.408814 123.104 0.50152 122.424 0.6174C122.231 0.648301 122.038 0.686925 121.844 0.717827C121.327 0.81053 120.809 0.910965 120.299 1.01912C120.106 1.05775 119.913 1.09637 119.72 1.14272C119.048 1.29723 118.376 1.46719 117.704 1.6526C117.649 1.66805 117.603 1.6835 117.549 1.69895C116.931 1.87663 116.313 2.06976 115.703 2.27834C115.509 2.34787 115.309 2.40968 115.115 2.4792C114.613 2.65689 114.111 2.84229 113.609 3.04315C113.439 3.11268 113.269 3.17448 113.099 3.24401C112.45 3.50667 111.809 3.78478 111.168 4.08607C111.052 4.14014 110.936 4.20195 110.812 4.25603C110.279 4.51096 109.754 4.77363 109.229 5.04401C109.035 5.14444 108.842 5.24487 108.649 5.35302C108.147 5.62341 107.645 5.90925 107.15 6.19508C107.011 6.28006 106.872 6.35731 106.733 6.43457C106.115 6.80538 105.497 7.19937 104.879 7.60109C104.732 7.70152 104.586 7.80195 104.439 7.90238C103.96 8.22684 103.481 8.55903 103.009 8.89895C102.824 9.03028 102.639 9.16933 102.461 9.30066C101.943 9.68693 101.426 10.0886 100.908 10.4981C100.823 10.5676 100.73 10.6371 100.638 10.7067C100.043 11.1856 99.4557 11.6878 98.8686 12.2054C98.7064 12.3444 98.5441 12.4912 98.3896 12.638C97.9415 13.0397 97.5012 13.4414 97.0608 13.8586C96.8908 14.0208 96.7209 14.1753 96.5509 14.3376C95.9715 14.8938 95.3998 15.4655 94.8358 16.0526C94.8358 16.0526 94.8281 16.0603 94.8204 16.068C94.6041 16.2921 94.3955 16.5007 94.1869 16.6938C94.1097 16.7633 94.0401 16.8174 93.9706 16.8792C93.8315 17.0028 93.6925 17.1264 93.5534 17.2346C93.4684 17.3041 93.3834 17.3582 93.2985 17.42C93.1749 17.5127 93.0513 17.6054 92.9276 17.6904C92.8349 17.7522 92.75 17.7985 92.6573 17.8526C92.5414 17.9221 92.4178 17.9994 92.3019 18.0612C92.2092 18.1075 92.1242 18.1462 92.0315 18.1925C91.9156 18.2466 91.7997 18.3007 91.6916 18.347C91.5989 18.3856 91.5061 18.4088 91.4134 18.4397C91.3053 18.4783 91.1894 18.5092 91.0812 18.5401C90.9885 18.5633 90.8958 18.5788 90.8031 18.5942C90.695 18.6174 90.5791 18.6329 90.4709 18.6483C90.3782 18.656 90.2855 18.6638 90.1928 18.6638C90.1233 18.6638 90.0615 18.6792 89.9919 18.6792C89.9533 18.6792 89.9147 18.6715 89.8683 18.6715C89.7524 18.6715 89.6365 18.656 89.5206 18.6483C89.4202 18.6406 89.3276 18.6251 89.2271 18.6097C89.1112 18.5865 88.9953 18.5633 88.8795 18.5324C88.779 18.5092 88.6863 18.4861 88.5859 18.4552C88.47 18.4165 88.3464 18.3702 88.2305 18.3316C88.1301 18.2929 88.0373 18.262 87.9369 18.2157C87.8133 18.1616 87.6974 18.0998 87.5738 18.038C87.4734 17.9917 87.3807 17.9453 87.2803 17.8912C87.1567 17.8217 87.0253 17.7367 86.9017 17.6595C86.809 17.5977 86.7163 17.5436 86.6159 17.4818C86.4845 17.3891 86.3455 17.2886 86.2064 17.1805C86.1137 17.111 86.0287 17.0492 85.936 16.9796C85.7815 16.856 85.6347 16.7247 85.4802 16.5934C85.4029 16.5238 85.3257 16.4698 85.2484 16.3925C85.0167 16.1839 84.7772 15.9599 84.5454 15.7281C83.9737 15.1642 83.3866 14.6157 82.8072 14.0749C82.6372 13.9204 82.4672 13.7659 82.2973 13.6114C81.8569 13.2097 81.4088 12.8157 80.9608 12.4294C80.7985 12.2904 80.6363 12.1436 80.474 12.0122C79.8792 11.5101 79.2843 11.0234 78.6894 10.5599C78.6122 10.5058 78.5426 10.444 78.4654 10.3899C77.9323 9.98049 77.3993 9.57877 76.8585 9.19251C76.6731 9.06117 76.4954 8.92984 76.31 8.80624C75.8387 8.47405 75.3597 8.14959 74.8885 7.83285C74.734 7.73242 74.5794 7.62427 74.4249 7.52384C73.8069 7.12212 73.1811 6.73586 72.5553 6.37277C72.4395 6.30324 72.3158 6.23371 72.2 6.17191C71.6823 5.87062 71.1648 5.58478 70.6394 5.30667C70.4463 5.20624 70.2608 5.10581 70.0677 5.00538C69.5578 4.74272 69.0402 4.48779 68.5303 4.2483C68.3912 4.1865 68.2599 4.11697 68.1209 4.04744C67.4797 3.75388 66.8307 3.46804 66.1818 3.20538C66.0272 3.14358 65.8804 3.0895 65.7259 3.0277C65.2083 2.82684 64.6984 2.63371 64.1808 2.4483C63.9877 2.37877 63.7868 2.30925 63.586 2.24744C63.022 2.06204 62.458 1.87663 61.8941 1.71439C61.7859 1.68349 61.6855 1.65259 61.5773 1.62169C60.9129 1.43629 60.2408 1.26632 59.5687 1.10409C59.391 1.06547 59.2133 1.02684 59.0356 0.988218C58.518 0.872338 58.0004 0.771907 57.475 0.679204C57.2742 0.640577 57.0733 0.609676 56.8725 0.571049C56.2312 0.462895 55.59 0.370192 54.9411 0.300664C54.8947 0.300664 54.8484 0.28521 54.802 0.28521C54.1144 0.207957 53.4191 0.153883 52.7238 0.107531C52.523 0.0920807 52.3298 0.0843547 52.129 0.0766294C51.6036 0.0534534 51.0706 0.0379988 50.5375 0.0302734C50.3366 0.0302734 50.128 0.0302734 49.9271 0.0302734C49.3091 0.0302734 48.6833 0.0457281 48.0653 0.0766294C48.0035 0.0766294 47.9417 0.0766294 47.8876 0.0766294C47.2078 0.115256 46.5202 0.169333 45.8326 0.23886C45.6317 0.262036 45.4232 0.28521 45.2223 0.308385C44.7279 0.362463 44.2257 0.431992 43.7235 0.509246C43.4918 0.540147 43.26 0.578773 43.0359 0.6174C42.5029 0.702378 41.9775 0.802805 41.4445 0.91096C41.2745 0.949586 41.0968 0.972766 40.9269 1.01139C40.2316 1.15817 39.5285 1.32813 38.8255 1.50581C38.671 1.54444 38.5088 1.59079 38.3543 1.63714C37.798 1.78392 37.2418 1.94616 36.6856 2.11611C36.4538 2.18564 36.222 2.2629 35.9825 2.34015C35.4726 2.50238 34.9627 2.68006 34.4451 2.86547C34.2288 2.94272 34.0048 3.01997 33.7885 3.09723C33.07 3.35989 32.3515 3.64572 31.633 3.94701C29.7093 4.75044 27.8861 5.63114 26.1479 6.58908C25.5685 6.90581 24.9968 7.238 24.4405 7.57019C23.3203 8.24229 22.2465 8.9453 21.2112 9.67148C19.1408 11.1393 17.2248 12.7307 15.4634 14.438C11.9483 17.8526 9.06666 21.7307 6.77989 25.9951C6.2082 27.0612 5.67513 28.1504 5.18069 29.2629C3.45017 33.1642 2.16774 37.3436 1.33338 41.7702C0.978004 43.6629 0.692145 45.6019 0.499006 47.5796C0.367671 48.9007 0.267235 50.2371 0.20543 51.5891C-0.0572388 57.2286 -0.0340488 62.7599 0.267248 68.1676C0.414034 70.7556 0.62263 73.3127 0.90075 75.8389C0.931652 76.1247 0.962551 76.4028 0.993453 76.6886C1.25612 78.9599 1.56512 81.2157 1.93595 83.4406C2.18317 84.9316 2.44587 86.4225 2.73944 87.8981C2.99438 89.1728 3.26477 90.4474 3.55835 91.7067C4.71718 96.7513 6.16959 101.672 7.90784 106.47C15.7416 128.039 29.5008 146.989 49.4791 162.919C49.5718 162.996 49.6722 163.065 49.7649 163.143C50.5607 163.776 51.3487 164.394 52.1367 164.989C52.4689 165.236 52.7933 165.468 53.1255 165.715C53.674 166.125 54.2226 166.534 54.7711 166.92C55.1265 167.175 55.4818 167.407 55.8372 167.654C56.3471 168.01 56.8647 168.373 57.3746 168.72C57.7454 168.968 58.1085 169.192 58.4793 169.431C58.9738 169.748 59.4682 170.08 59.955 170.381C60.3258 170.613 60.6966 170.829 61.0752 171.053C61.5542 171.339 62.0331 171.641 62.5121 171.911C62.8907 172.127 63.2615 172.328 63.6323 172.529C64.1036 172.792 64.5749 173.062 65.0384 173.309C65.4169 173.51 65.7955 173.695 66.174 173.881C66.6298 174.113 67.0934 174.352 67.5415 174.568C67.9277 174.754 68.3063 174.916 68.6926 175.094C69.1406 175.295 69.5887 175.511 70.0368 175.704C70.4231 175.866 70.8016 176.013 71.1879 176.175C71.6283 176.353 72.0686 176.538 72.509 176.708C72.8953 176.855 73.2816 176.986 73.6756 177.118C74.1082 177.272 74.5408 177.435 74.9734 177.574C75.3597 177.697 75.7537 177.805 76.14 177.929C76.5649 178.06 76.9975 178.192 77.4224 178.315C77.8087 178.423 78.195 178.508 78.5813 178.601C79.0062 178.709 79.4388 178.817 79.8637 178.918C80.25 179.003 80.6363 179.072 81.0225 179.142C81.4474 179.227 81.8724 179.312 82.2895 179.381C82.6758 179.443 83.0698 179.49 83.4561 179.544C83.8733 179.605 84.2982 179.667 84.7154 179.714C85.1016 179.76 85.4957 179.783 85.8819 179.814C86.2991 179.853 86.724 179.891 87.1412 179.914C87.5275 179.938 87.9215 179.938 88.3078 179.953C88.725 179.968 89.1421 179.984 89.5593 179.984C89.9688 179.984 90.3859 179.968 90.7954 179.961C91.1894 179.953 91.5757 179.945 91.9697 179.93L91.962 179.938ZM31.9652 104.276C25.3598 89.1419 22.4551 71.7676 23.3435 52.6474C23.668 45.6483 25.2826 39.808 28.1565 35.2964C30.9454 30.9161 35.0014 27.6483 40.5638 25.323C43.9553 23.9015 47.1846 23.1831 50.1589 23.1831C56.1849 23.1831 62.1181 26.1419 68.2831 32.2217C74.7648 38.6105 82.0732 41.8474 89.9997 41.8474C95.5698 41.8474 103.828 40.1556 111.562 32.1135C120.091 23.2371 126.966 23.2371 129.222 23.2371C132.289 23.2371 135.658 23.9324 139.219 25.3153C146.659 28.1891 153.944 33.8054 156.841 55.22C156.857 55.6526 156.818 56.6414 156.795 57.3831C156.764 58.2097 156.733 59.1213 156.718 60.1178C155.512 78.3728 151.673 94.5341 145.299 108.162C138.439 122.832 128.674 134.914 115.448 145.12C105.219 153.007 96.7982 156.839 89.6906 156.839C82.5831 156.839 74.0927 152.899 63.9182 144.787C49.4018 133.223 38.6555 119.595 31.9729 104.291L31.9652 104.276Z" fill="current"/>
<mask id="mask0_3125_5825" style="mask-type:luminance" maskUnits="userSpaceOnUse" x="0" y="0" width="180" height="180">
<path d="M50.1507 23.176C56.1766 23.176 62.1098 26.1348 68.2748 32.2146C74.7565 38.6034 82.065 41.8403 89.9914 41.8403C95.5615 41.8403 103.82 40.1485 111.553 32.1064C120.082 23.23 126.958 23.23 129.214 23.23C132.281 23.23 135.649 23.9253 139.211 25.3081C146.651 28.182 153.936 33.7983 156.833 55.2129C156.848 55.6455 156.81 56.6343 156.787 57.376C156.756 58.2026 156.725 59.1142 156.709 60.1107C155.504 78.3657 151.665 94.527 145.291 108.147C138.431 122.817 128.666 134.9 115.439 145.105C105.211 152.992 96.7899 156.824 89.6823 156.824C82.5748 156.824 74.0844 152.884 63.9099 144.773C49.3935 133.208 38.6473 119.58 31.9647 104.276C25.3593 89.1348 22.4545 71.7682 23.3429 52.6481C23.6674 45.6489 25.282 39.8086 28.156 35.297C30.9449 30.9167 35.0008 27.6489 40.5632 25.3236C43.9547 23.9021 47.184 23.1837 50.1584 23.1837M50.1507 0C44.1711 0 37.9829 1.27468 31.6093 3.93991C11.1134 12.515 1.17832 29.9433 0.181722 51.582C-1.90418 96.7133 13.9332 134.598 49.4553 162.904C63.7863 174.322 76.7034 180 89.6746 180C102.646 180 115.308 174.469 129.585 163.46C162.959 137.719 177.298 102.059 179.871 60.9373C179.871 58.0635 180.195 55.1433 179.816 52.3236C176.95 30.8627 169.101 12.0206 147.555 3.6927C141.258 1.25923 135.124 0.0617981 129.199 0.0617981C116.598 0.0617981 104.971 5.50043 94.8276 16.0532C93.1202 17.83 91.5519 18.6721 89.9759 18.6721C88.2377 18.6721 86.484 17.6446 84.5294 15.7133C74.2853 5.61631 62.6892 0 50.1352 0H50.1507Z" fill="current"/>
</mask>
<g mask="url(#mask0_3125_5825)">
<path opacity='1' d="M90.0066 89.9995V-41.2383" stroke="white" stroke-miterlimit="10"/>
<path opacity='1' d="M90.0068 89.9993L78.573 -40.7363" stroke="white" stroke-miterlimit="10"/>
<path opacity='1' d="M90.0062 89.9995L67.2158 -39.2451" stroke="white" stroke-miterlimit="10"/>
<path opacity='1' d="M90.0061 90.0002L56.0446 -36.7646" stroke="white" stroke-miterlimit="10"/>
<path opacity='1' d="M90.0064 89.999L45.1209 -33.3203" stroke="white" stroke-miterlimit="10"/>
<path opacity='1' d="M90.0067 89.9996L34.5449 -28.9395" stroke="white" stroke-miterlimit="10"/>
<path opacity='1' d="M90.0069 89.9997L24.3937 -23.6553" stroke="white" stroke-miterlimit="10"/>
<path opacity='1' d="M90.0069 89.9997L14.7368 -17.5059" stroke="white" stroke-miterlimit="10"/>
<path opacity='1' d="M90.006 89.9993L5.65054 -10.5303" stroke="white" stroke-miterlimit="10"/>
<path opacity='1' d="M90.0062 89.9997L-2.79326 -2.79688" stroke="white" stroke-miterlimit="10"/>
<path opacity='1' d="M90.0067 89.9992L-10.5261 5.63867" stroke="white" stroke-miterlimit="10"/>
<path opacity='1' d="M90.0061 89.9992L-17.495 14.7236" stroke="white" stroke-miterlimit="10"/>
<path opacity='1' d="M90.0057 89.9997L-23.645 24.3809" stroke="white" stroke-miterlimit="10"/>
<path opacity='1' d="M90.0062 89.9991L-28.9366 34.5312" stroke="white" stroke-miterlimit="10"/>
<path opacity='1' d="M90.0062 89.9994L-33.3169 45.1152" stroke="white" stroke-miterlimit="10"/>
<path opacity='1' d="M90.0065 89.9995L-36.7545 56.0312" stroke="white" stroke-miterlimit="10"/>
<path opacity='1' d="M90.0065 89.9987L-39.2344 67.209" stroke="white" stroke-miterlimit="10"/>
<path opacity='1' d="M90.0061 89.9998L-40.7336 78.5586" stroke="white" stroke-miterlimit="10"/>
<path opacity='1' d="M90.0063 89.999H-41.2279" stroke="white" stroke-miterlimit="10"/>
<path opacity='1' d="M90.0061 89.999L-40.7336 101.433" stroke="white" stroke-miterlimit="10"/>
<path opacity='1' d="M90.0065 89.999L-39.2344 112.789" stroke="white" stroke-miterlimit="10"/>
<path opacity='1' d="M90.0065 89.999L-36.7545 123.96" stroke="white" stroke-miterlimit="10"/>
<path opacity='1' d="M90.0062 89.999L-33.3169 134.883" stroke="white" stroke-miterlimit="10"/>
<path opacity='1' d="M90.0062 89.999L-28.9366 145.459" stroke="white" stroke-miterlimit="10"/>
<path opacity='1' d="M90.0057 89.999L-23.645 155.61" stroke="white" stroke-miterlimit="10"/>
<path opacity='1' d="M90.0061 89.999L-17.495 165.267" stroke="white" stroke-miterlimit="10"/>
<path opacity='1' d="M90.0067 89.999L-10.5261 174.352" stroke="white" stroke-miterlimit="10"/>
<path opacity='1' d="M90.0062 89.999L-2.79326 182.796" stroke="white" stroke-miterlimit="10"/>
<path opacity='1' d="M90.006 89.999L5.65054 190.529" stroke="white" stroke-miterlimit="10"/>
<path opacity='1' d="M90.0069 89.999L14.7368 197.497" stroke="white" stroke-miterlimit="10"/>
<path opacity='1' d="M90.0069 89.999L24.3937 203.646" stroke="white" stroke-miterlimit="10"/>
<path opacity='1' d="M90.0067 89.999L34.5449 208.938" stroke="white" stroke-miterlimit="10"/>
<path opacity='1' d="M90.0064 89.999L45.1209 213.318" stroke="white" stroke-miterlimit="10"/>
<path opacity='1' d="M90.0061 89.999L56.0446 216.756" stroke="white" stroke-miterlimit="10"/>
<path opacity='1' d="M90.0062 89.999L67.2158 219.236" stroke="white" stroke-miterlimit="10"/>
<path opacity='1' d="M90.0068 89.999L78.573 220.727" stroke="white" stroke-miterlimit="10"/>
<path opacity='1' d="M90.0066 89.999V221.229" stroke="white" stroke-miterlimit="10"/>
<path opacity='1' d="M90.0066 89.999L101.448 220.727" stroke="white" stroke-miterlimit="10"/>
<path opacity='1' d="M90.0066 89.999L112.797 219.236" stroke="white" stroke-miterlimit="10"/>
<path opacity='1' d="M90.0066 89.999L123.976 216.756" stroke="white" stroke-miterlimit="10"/>
<path opacity='1' d="M90.0066 89.999L134.892 213.318" stroke="white" stroke-miterlimit="10"/>
<path opacity='1' d="M90.0066 89.999L145.468 208.938" stroke="white" stroke-miterlimit="10"/>
<path opacity='1' d="M90.0066 89.999L155.628 203.646" stroke="white" stroke-miterlimit="10"/>
<path opacity='1' d="M90.0066 89.999L165.285 197.497" stroke="white" stroke-miterlimit="10"/>
<path opacity='1' d="M90.0066 89.999L174.37 190.529" stroke="white" stroke-miterlimit="10"/>
<path opacity='1' d="M90.0066 89.999L182.806 182.796" stroke="white" stroke-miterlimit="10"/>
<path opacity='1' d="M90.0066 89.999L190.539 174.352" stroke="white" stroke-miterlimit="10"/>
<path opacity='1' d="M90.0066 89.999L197.516 165.267" stroke="white" stroke-miterlimit="10"/>
<path opacity='1' d="M90.0066 89.999L203.665 155.61" stroke="white" stroke-miterlimit="10"/>
<path opacity='1' d="M90.0066 89.999L208.949 145.459" stroke="white" stroke-miterlimit="10"/>
<path opacity='1' d="M90.0066 89.999L213.33 134.883" stroke="white" stroke-miterlimit="10"/>
<path opacity='1' d="M90.0066 89.999L216.775 123.96" stroke="white" stroke-miterlimit="10"/>
<path opacity='1' d="M90.0066 89.999L219.255 112.789" stroke="white" stroke-miterlimit="10"/>
<path opacity='1' d="M90.0066 89.999L220.746 101.433" stroke="white" stroke-miterlimit="10"/>
<path opacity='1' d="M90.0066 89.999H221.248" stroke="white" stroke-miterlimit="10"/>
<path opacity='1' d="M90.0066 89.9998L220.746 78.5586" stroke="white" stroke-miterlimit="10"/>
<path opacity='1' d="M90.0066 89.9987L219.255 67.209" stroke="white" stroke-miterlimit="10"/>
<path opacity='1' d="M90.0066 89.9995L216.775 56.0312" stroke="white" stroke-miterlimit="10"/>
<path opacity='1' d="M90.0066 89.9994L213.33 45.1152" stroke="white" stroke-miterlimit="10"/>
<path opacity='1' d="M90.0066 89.9991L208.949 34.5312" stroke="white" stroke-miterlimit="10"/>
<path opacity='1' d="M90.0066 89.9997L203.665 24.3809" stroke="white" stroke-miterlimit="10"/>
<path opacity='1' d="M90.0066 89.9992L197.516 14.7236" stroke="white" stroke-miterlimit="10"/>
<path opacity='1' d="M90.0066 89.9992L190.539 5.63867" stroke="white" stroke-miterlimit="10"/>
<path opacity='1' d="M90.0066 89.9997L182.806 -2.79688" stroke="white" stroke-miterlimit="10"/>
<path opacity='1' d="M90.0066 89.9993L174.37 -10.5303" stroke="white" stroke-miterlimit="10"/>
<path opacity='1' d="M90.0066 89.9997L165.285 -17.5059" stroke="white" stroke-miterlimit="10"/>
<path opacity='1' d="M90.0066 89.9997L155.628 -23.6553" stroke="white" stroke-miterlimit="10"/>
<path opacity='1' d="M90.0066 89.9996L145.468 -28.9395" stroke="white" stroke-miterlimit="10"/>
<path opacity='1' d="M90.0066 89.999L134.892 -33.3203" stroke="white" stroke-miterlimit="10"/>
<path opacity='1' d="M90.0066 90.0002L123.976 -36.7646" stroke="white" stroke-miterlimit="10"/>
<path opacity='1' d="M90.0066 89.9995L112.797 -39.2451" stroke="white" stroke-miterlimit="10"/>
<path opacity='1' d="M90.0066 89.9993L101.448 -40.7363" stroke="white" stroke-miterlimit="10"/>
</g>
</svg>
