<svg preserveAspectRatio="none" viewBox="0 0 180 180" fill="none" xmlns="http://www.w3.org/2000/svg"><path d="M91.962 179.938c.41-.024.827-.062 1.236-.093.394-.031.78-.054 1.174-.093.41-.046.827-.108 1.244-.162.394-.054.78-.093 1.174-.155.418-.069.835-.154 1.252-.231.386-.07.78-.139 1.166-.217.425-.092.843-.201 1.268-.301.386-.093.78-.178 1.166-.278.425-.108.85-.24 1.267-.363.394-.116.78-.216 1.174-.34.425-.131.858-.294 1.283-.44.394-.132.78-.255 1.174-.402.433-.162.873-.34 1.306-.51.386-.154.78-.294 1.166-.456.441-.185.881-.386 1.321-.579.387-.17.781-.332 1.167-.518.448-.208.896-.432 1.336-.656.387-.194.781-.371 1.167-.572.456-.232.919-.495 1.375-.742.386-.208.765-.401 1.151-.618.471-.262.95-.556 1.429-.834.379-.216.75-.433 1.128-.657.479-.293.974-.602 1.453-.911.378-.24.749-.464 1.128-.711.517-.332 1.043-.695 1.56-1.043.348-.232.696-.456 1.043-.703.603-.417 1.205-.857 1.816-1.29.278-.201.548-.386.826-.587.889-.649 1.777-1.314 2.673-2.009 5.215-4.025 9.966-8.281 14.277-12.778a121.866 121.866 0 0 0 4.968-5.492 121.03 121.03 0 0 0 8.722-11.611 119.554 119.554 0 0 0 3.77-6.103 125.978 125.978 0 0 0 7.803-16.077 143.408 143.408 0 0 0 2.503-6.736 141.724 141.724 0 0 0 3.113-10.422c.309-1.174.595-2.364.873-3.553a165.143 165.143 0 0 0 2.72-14.593 191.707 191.707 0 0 0 1.529-15.158c0-1.792.124-3.607.132-5.407 0-1.074-.039-2.148-.186-3.206-.541-4.025-1.251-7.957-2.194-11.743a81.873 81.873 0 0 0-1.027-3.739c-.186-.618-.379-1.22-.572-1.83a65.599 65.599 0 0 0-1.282-3.57 56.726 56.726 0 0 0-2.017-4.573 52.123 52.123 0 0 0-3.005-5.346 47.377 47.377 0 0 0-2.109-3.005 45.517 45.517 0 0 0-2.341-2.828 42.799 42.799 0 0 0-5.454-5.098 41.041 41.041 0 0 0-3.137-2.249 49.239 49.239 0 0 0-3.422-2.031 50.37 50.37 0 0 0-5.709-2.611 66.655 66.655 0 0 0-2.14-.78 22.262 22.262 0 0 0-.649-.217c-.502-.17-1.012-.325-1.514-.479-.24-.07-.472-.14-.711-.209a44.132 44.132 0 0 0-1.584-.424l-.541-.14c-.695-.17-1.39-.324-2.086-.463-.146-.031-.301-.054-.448-.085-.548-.1-1.097-.2-1.638-.286a20.63 20.63 0 0 0-.687-.1c-.487-.07-.966-.132-1.453-.178l-.656-.07c-.603-.054-1.198-.1-1.793-.13-.085 0-.17-.016-.255-.016a59.468 59.468 0 0 0-2.024-.054h-.54c-.541 0-1.082.015-1.623.046-.208.008-.417.015-.626.03-.625.04-1.259.086-1.877.155-.069 0-.139.016-.216.024-.688.077-1.375.17-2.055.285-.193.031-.386.07-.58.1a50.04 50.04 0 0 0-1.545.302c-.193.039-.386.077-.579.124-.672.154-1.344.324-2.016.51-.055.015-.101.03-.155.046a39.15 39.15 0 0 0-1.846.58c-.194.069-.394.13-.588.2a39.73 39.73 0 0 0-1.506.564c-.17.07-.34.131-.51.201-.649.263-1.29.54-1.931.842-.116.054-.232.116-.356.17-.533.255-1.058.518-1.583.788a58.343 58.343 0 0 0-2.079 1.151c-.139.085-.278.162-.417.24-.618.37-1.236.764-1.854 1.166l-.44.301c-.479.325-.958.657-1.43.997-.185.131-.37.27-.548.402-.518.386-1.035.788-1.553 1.197-.085.07-.178.14-.27.209a51.75 51.75 0 0 0-2.248 1.931c-.448.402-.889.803-1.33 1.22-.17.163-.34.317-.51.48a59.9 59.9 0 0 0-1.714 1.715l-.016.015c-.216.224-.424.433-.633.626-.077.07-.147.123-.216.185-.14.124-.279.247-.418.356-.085.07-.17.123-.254.185-.124.093-.248.185-.371.27-.093.062-.178.108-.27.163-.117.07-.24.146-.356.208-.093.047-.178.085-.27.131-.116.055-.232.109-.34.155-.093.039-.186.062-.279.093-.108.038-.224.07-.332.1a3.496 3.496 0 0 1-.278.054c-.108.023-.224.039-.332.054-.093.008-.186.016-.278.016-.07 0-.132.015-.201.015-.039 0-.077-.007-.124-.007-.116 0-.231-.016-.347-.024-.1-.007-.193-.023-.294-.038-.116-.023-.232-.047-.348-.078a4.113 4.113 0 0 1-.293-.077c-.116-.038-.24-.085-.355-.123-.1-.04-.194-.07-.294-.116-.124-.054-.24-.116-.363-.178a5.147 5.147 0 0 1-.294-.147c-.123-.07-.255-.154-.378-.231-.093-.062-.186-.116-.286-.178-.132-.093-.27-.193-.41-.302l-.27-.2c-.155-.124-.301-.255-.456-.387-.077-.07-.154-.123-.232-.2a18.573 18.573 0 0 1-.703-.665 87.014 87.014 0 0 0-1.738-1.653l-.51-.464c-.44-.401-.888-.795-1.336-1.182-.162-.139-.325-.285-.487-.417a58.82 58.82 0 0 0-1.785-1.452c-.077-.054-.146-.116-.224-.17a57.793 57.793 0 0 0-1.606-1.197c-.186-.132-.364-.263-.549-.387a77.96 77.96 0 0 0-1.422-.973c-.154-.1-.309-.209-.463-.31a43.45 43.45 0 0 0-1.87-1.15c-.116-.07-.24-.14-.355-.201a44.217 44.217 0 0 0-1.56-.865c-.194-.1-.38-.201-.572-.302a47.097 47.097 0 0 0-1.538-.757c-.139-.062-.27-.131-.41-.2-.64-.294-1.29-.58-1.938-.843-.155-.061-.302-.115-.456-.177-.518-.201-1.028-.394-1.545-.58-.193-.07-.394-.139-.595-.2-.564-.186-1.128-.371-1.692-.534-.108-.03-.209-.061-.317-.092a58.88 58.88 0 0 0-2.008-.518l-.533-.116A34.793 34.793 0 0 0 57.475.68c-.2-.038-.402-.07-.602-.108-.642-.108-1.283-.2-1.932-.27-.046 0-.093-.016-.139-.016a46.124 46.124 0 0 0-2.078-.177A53.934 53.934 0 0 0 50.538.03h-.61c-.619 0-1.245.015-1.863.046h-.177c-.68.038-1.368.092-2.055.162-.201.023-.41.046-.61.07-.495.053-.997.123-1.5.2-.231.031-.463.07-.687.108-.533.085-1.059.186-1.592.294-.17.039-.347.062-.517.1-.695.147-1.398.317-2.102.495-.154.038-.316.085-.47.131a45.06 45.06 0 0 0-1.67.48c-.231.069-.463.146-.703.223-.51.162-1.02.34-1.537.525-.216.078-.44.155-.657.232-.718.263-1.436.549-2.155.85a56.27 56.27 0 0 0-7.192 3.623 54.011 54.011 0 0 0-3.23 2.101 48.774 48.774 0 0 0-5.748 4.767c-3.515 3.415-6.396 7.293-8.683 11.557a49.157 49.157 0 0 0-1.6 3.268c-1.73 3.901-3.012 8.08-3.847 12.507A66.523 66.523 0 0 0 .5 47.58a75.254 75.254 0 0 0-.294 4.01c-.262 5.639-.239 11.17.062 16.578.147 2.588.356 5.145.634 7.67.03.287.062.565.092.85.263 2.272.572 4.528.943 6.753.247 1.49.51 2.981.803 4.457.255 1.275.526 2.55.82 3.809a126.349 126.349 0 0 0 4.349 14.763c7.834 21.569 21.593 40.519 41.571 56.449.093.077.193.146.286.224a119.5 119.5 0 0 0 2.372 1.846c.332.247.656.479.989.726.548.41 1.097.819 1.645 1.205.355.255.71.487 1.066.734.51.356 1.028.719 1.538 1.066.37.248.733.472 1.104.711.495.317.99.649 1.476.95.37.232.742.448 1.12.672.48.286.958.588 1.437.858.379.216.75.417 1.12.618.472.263.943.533 1.406.78.379.201.758.386 1.136.572.456.232.92.471 1.367.687.387.186.765.348 1.152.526.448.201.896.417 1.344.61.386.162.765.309 1.15.471.441.178.882.363 1.322.533.386.147.773.278 1.167.41.432.154.865.317 1.297.456.387.123.78.231 1.167.355.425.131.858.263 1.282.386.387.108.773.193 1.16.286a85.6 85.6 0 0 0 1.282.317c.386.085.772.154 1.158.224.425.085.85.17 1.267.239.387.062.78.109 1.167.163.417.061.842.123 1.26.17.386.046.78.069 1.166.1.417.039.842.077 1.26.1.386.024.78.024 1.166.039.417.015.834.031 1.251.031.41 0 .827-.016 1.236-.023.394-.008.78-.016 1.175-.031l-.008.008Zm-59.997-75.662c-6.605-15.134-9.51-32.508-8.622-51.629.325-6.999 1.94-12.839 4.814-17.35 2.788-4.38 6.844-7.649 12.407-9.974 3.391-1.422 6.62-2.14 9.595-2.14 6.026 0 11.96 2.959 18.124 9.039 6.482 6.389 13.79 9.625 21.717 9.625 5.57 0 13.828-1.691 21.562-9.733 8.529-8.877 15.404-8.877 17.66-8.877 3.067 0 6.436.695 9.997 2.078 7.44 2.874 14.725 8.49 17.622 29.905.016.433-.023 1.421-.046 2.163a119.83 119.83 0 0 0-.077 2.735c-1.206 18.255-5.045 34.416-11.419 48.044-6.86 14.67-16.625 26.752-29.851 36.958-10.229 7.887-18.65 11.719-25.757 11.719-7.108 0-15.598-3.94-25.773-12.052-14.516-11.564-25.262-25.192-31.945-40.496l-.008-.015Z" fill="current"/><mask id="a" style="mask-type:luminance" maskUnits="userSpaceOnUse" x="0" y="0" width="180" height="180"><path d="M50.15 23.176c6.027 0 11.96 2.959 18.125 9.039 6.481 6.388 13.79 9.625 21.716 9.625 5.57 0 13.829-1.692 21.562-9.734 8.529-8.876 15.405-8.876 17.661-8.876 3.067 0 6.435.695 9.997 2.078 7.44 2.874 14.725 8.49 17.622 29.905.015.432-.023 1.421-.046 2.163-.031.827-.062 1.738-.078 2.735-1.205 18.255-5.044 34.416-11.418 48.036-6.86 14.67-16.625 26.753-29.852 36.958-10.228 7.887-18.65 11.719-25.757 11.719-7.107 0-15.598-3.94-25.772-12.051-14.516-11.565-25.263-25.193-31.945-40.497-6.606-15.141-9.51-32.508-8.622-51.628.324-7 1.939-12.84 4.813-17.351 2.789-4.38 6.845-7.648 12.407-9.973 3.392-1.422 6.621-2.14 9.595-2.14M50.151 0c-5.98 0-12.168 1.275-18.542 3.94C11.113 12.515 1.18 29.943.182 51.582c-2.086 45.131 13.751 83.016 49.273 111.322C63.786 174.322 76.703 180 89.675 180c12.971 0 25.633-5.531 39.91-16.54 33.374-25.741 47.713-61.401 50.286-102.523 0-2.873.324-5.794-.055-8.613-2.866-21.461-10.715-40.303-32.261-48.631-6.297-2.434-12.431-3.631-18.356-3.631-12.601 0-24.228 5.438-34.371 15.991-1.708 1.777-3.276 2.62-4.852 2.62-1.738 0-3.492-1.028-5.447-2.96C74.285 5.616 62.69 0 50.135 0h.016Z" fill="current"/></mask><g mask="url(#a)" stroke="#fff" stroke-miterlimit="10"><path opacity=".5" d="M90.007 90V-41.239M90.007 90 78.573-40.737M90.006 90 67.216-39.246M90.006 90 56.045-36.765M90.006 89.999 45.121-33.321M90.007 90 34.545-28.94M90.007 90 24.394-23.655M90.007 90 14.737-17.506M90.006 90 5.651-10.53M90.006 90l-92.8-92.797M90.007 90-10.526 5.638M90.006 90-17.495 14.723M90.006 90-23.645 24.38M90.006 90-28.937 34.53M90.006 90-33.317 45.114M90.007 90-36.754 56.03M90.007 89.999l-129.241-22.79M90.006 90l-130.74-11.441M90.006 89.999H-41.228M90.006 89.999l-130.74 11.434M90.007 89.999l-129.241 22.79M90.007 89.999-36.754 123.96M90.006 89.999l-123.323 44.884M90.006 89.999l-118.943 55.46M90.006 89.999-23.645 155.61M90.006 89.999l-107.501 75.268M90.007 89.999l-100.533 84.353M90.006 89.999l-92.8 92.797M90.006 89.999 5.651 190.529M90.007 89.999l-75.27 107.498M90.007 89.999 24.394 203.646M90.007 89.999 34.545 208.938M90.006 89.999 45.121 213.318M90.006 89.999 56.045 216.756M90.006 89.999l-22.79 129.237M90.007 89.999 78.573 220.727M90.007 89.999v131.23M90.007 89.999l11.441 130.728M90.007 89.999l22.79 129.237M90.007 89.999l33.969 126.757M90.007 89.999l44.885 123.319M90.007 89.999l55.461 118.939M90.007 89.999l65.621 113.647M90.007 89.999l75.278 107.498M90.007 89.999l84.363 100.53M90.007 89.999l92.799 92.797M90.007 89.999l100.532 84.353M90.007 89.999l107.509 75.268M90.007 89.999l113.658 65.611M90.007 89.999l118.942 55.46M90.007 89.999l123.323 44.884M90.007 89.999l126.768 33.961M90.007 89.999l129.248 22.79M90.007 89.999l130.739 11.434M90.007 89.999h131.241M90.007 90l130.739-11.441M90.007 89.999l129.248-22.79M90.007 90 216.775 56.03M90.007 90 213.33 45.114M90.007 90 208.949 34.53M90.007 90l113.658-65.62M90.007 90l107.509-75.276M90.007 90 190.539 5.638M90.007 90l92.799-92.797M90.007 90 174.37-10.53M90.007 90l75.278-107.506M90.007 90l65.621-113.655M90.007 90l55.461-118.94M90.007 89.999l44.885-123.32M90.007 90l33.969-126.765M90.007 90l22.79-129.245M90.007 90l11.441-130.736"/></g></svg>