<svg width="181" height="180" viewBox="0 0 181 180" fill="none" xmlns="http://www.w3.org/2000/svg">
<path d="M92.3067 179.938C92.7161 179.914 93.1333 179.876 93.5428 179.845C93.9368 179.814 94.323 179.791 94.7171 179.752C95.1265 179.706 95.5437 179.644 95.9609 179.59C96.3549 179.536 96.7412 179.497 97.1352 179.435C97.5523 179.366 97.9695 179.281 98.3867 179.204C98.773 179.134 99.167 179.065 99.5533 178.987C99.9782 178.895 100.395 178.786 100.82 178.686C101.207 178.593 101.601 178.508 101.987 178.408C102.412 178.3 102.837 178.168 103.254 178.045C103.648 177.929 104.034 177.829 104.428 177.705C104.853 177.574 105.286 177.411 105.711 177.265C106.105 177.133 106.491 177.01 106.885 176.863C107.317 176.701 107.758 176.523 108.19 176.353C108.577 176.199 108.971 176.059 109.357 175.897C109.797 175.712 110.238 175.511 110.678 175.318C111.064 175.148 111.458 174.986 111.845 174.8C112.293 174.592 112.741 174.368 113.181 174.144C113.567 173.95 113.961 173.773 114.348 173.572C114.803 173.34 115.267 173.077 115.723 172.83C116.109 172.622 116.488 172.429 116.874 172.212C117.345 171.95 117.824 171.656 118.303 171.378C118.682 171.162 119.053 170.945 119.431 170.721C119.91 170.428 120.405 170.119 120.884 169.81C121.262 169.57 121.633 169.346 122.011 169.099C122.529 168.767 123.054 168.404 123.572 168.056C123.92 167.824 124.267 167.6 124.615 167.353C125.218 166.936 125.82 166.496 126.43 166.063C126.709 165.862 126.979 165.677 127.257 165.476C128.146 164.827 129.034 164.162 129.93 163.467C135.145 159.442 139.896 155.186 144.207 150.689C145.93 148.897 147.591 147.059 149.175 145.197C152.35 141.465 155.247 137.587 157.897 133.586C159.218 131.585 160.477 129.545 161.667 127.483C164.649 122.314 167.245 116.953 169.47 111.406C170.358 109.189 171.192 106.941 171.973 104.67C173.139 101.255 174.174 97.7788 175.086 94.2483C175.395 93.0741 175.681 91.8843 175.959 90.6946C176.515 88.3152 177.017 85.905 177.473 83.4715C177.929 81.038 178.331 78.5813 178.678 76.1015C179.382 71.1419 179.891 66.0895 180.208 60.9444C180.208 59.1522 180.332 57.3367 180.339 55.5367C180.339 54.4629 180.301 53.3891 180.154 52.3307C179.613 48.3058 178.902 44.3736 177.96 40.5882C177.643 39.329 177.303 38.0775 176.933 36.8492C176.747 36.2311 176.554 35.6286 176.361 35.0183C175.967 33.8054 175.534 32.6157 175.078 31.4492C174.468 29.8809 173.796 28.359 173.062 26.8758C172.429 25.5856 171.756 24.3187 171.022 23.0904C170.706 22.565 170.389 22.0397 170.057 21.5298C169.392 20.5024 168.689 19.4981 167.948 18.5247C167.206 17.5513 166.426 16.6088 165.607 15.6972C163.961 13.8663 162.153 12.1668 160.153 10.5985C159.156 9.81053 158.113 9.06118 157.016 8.35045C155.919 7.63972 154.783 6.95989 153.594 6.31868C151.809 5.36074 149.908 4.48779 147.884 3.70753C147.166 3.42942 146.455 3.17448 145.744 2.92727C145.528 2.85002 145.312 2.78049 145.095 2.71096C144.593 2.541 144.083 2.3865 143.581 2.23199C143.342 2.16247 143.11 2.09294 142.87 2.02341C142.337 1.8689 141.812 1.72985 141.287 1.59852C141.109 1.55217 140.924 1.50581 140.746 1.45946C140.051 1.28951 139.355 1.13499 138.66 0.995939C138.513 0.965037 138.359 0.941861 138.212 0.91096C137.663 0.81053 137.115 0.710105 136.574 0.625127C136.342 0.5865 136.118 0.555595 135.887 0.524694C135.4 0.455166 134.921 0.393366 134.434 0.347014C134.218 0.323838 133.994 0.300659 133.777 0.277483C133.175 0.223406 132.58 0.177056 131.985 0.146154C131.9 0.146154 131.815 0.130706 131.73 0.130706C131.05 0.0998051 130.378 0.0843547 129.706 0.0766294C129.521 0.0766294 129.343 0.0766294 129.165 0.0766294C128.625 0.0766294 128.084 0.0920781 127.543 0.122979C127.334 0.130705 127.126 0.138431 126.917 0.153881C126.291 0.192508 125.658 0.238858 125.04 0.308385C124.97 0.308385 124.901 0.323835 124.824 0.331561C124.136 0.408814 123.448 0.50152 122.769 0.6174C122.575 0.648301 122.382 0.686925 122.189 0.717827C121.672 0.81053 121.154 0.910965 120.644 1.01912C120.451 1.05775 120.258 1.09637 120.065 1.14272C119.392 1.29723 118.72 1.46719 118.048 1.6526C117.994 1.66805 117.948 1.6835 117.894 1.69895C117.276 1.87663 116.658 2.06976 116.047 2.27834C115.854 2.34787 115.653 2.40968 115.46 2.4792C114.958 2.65689 114.456 2.84229 113.954 3.04315C113.784 3.11268 113.614 3.17448 113.444 3.24401C112.795 3.50667 112.154 3.78478 111.512 4.08607C111.397 4.14014 111.281 4.20195 111.157 4.25603C110.624 4.51096 110.099 4.77363 109.573 5.04401C109.38 5.14444 109.187 5.24487 108.994 5.35302C108.492 5.62341 107.99 5.90925 107.495 6.19508C107.356 6.28006 107.217 6.35731 107.078 6.43457C106.46 6.80538 105.842 7.19937 105.224 7.60109C105.077 7.70152 104.93 7.80195 104.783 7.90238C104.304 8.22684 103.825 8.55903 103.354 8.89895C103.169 9.03028 102.983 9.16933 102.806 9.30066C102.288 9.68693 101.771 10.0886 101.253 10.4981C101.168 10.5676 101.075 10.6371 100.982 10.7067C100.388 11.1856 99.8005 11.6878 99.2133 12.2054C99.0511 12.3444 98.8889 12.4912 98.7344 12.638C98.2863 13.0397 97.8459 13.4414 97.4055 13.8586C97.2356 14.0208 97.0656 14.1753 96.8957 14.3376C96.3162 14.8938 95.7445 15.4655 95.1806 16.0526C95.1806 16.0526 95.1729 16.0603 95.1651 16.068C94.9488 16.2921 94.7402 16.5007 94.5316 16.6938C94.4544 16.7633 94.3848 16.8174 94.3153 16.8792C94.1762 17.0028 94.0372 17.1264 93.8981 17.2346C93.8132 17.3041 93.7282 17.3582 93.6432 17.42C93.5196 17.5127 93.396 17.6054 93.2724 17.6904C93.1797 17.7522 93.0947 17.7985 93.002 17.8526C92.8861 17.9221 92.7625 17.9994 92.6466 18.0612C92.5539 18.1075 92.4689 18.1462 92.3762 18.1925C92.2603 18.2466 92.1445 18.3007 92.0363 18.347C91.9436 18.3856 91.8509 18.4088 91.7581 18.4397C91.65 18.4783 91.5341 18.5092 91.426 18.5401C91.3332 18.5633 91.2406 18.5788 91.1478 18.5942C91.0397 18.6174 90.9238 18.6329 90.8157 18.6483C90.7229 18.656 90.6302 18.6638 90.5375 18.6638C90.468 18.6638 90.4062 18.6792 90.3367 18.6792C90.298 18.6792 90.2594 18.6715 90.213 18.6715C90.0972 18.6715 89.9813 18.656 89.8654 18.6483C89.7649 18.6406 89.6723 18.6251 89.5718 18.6097C89.456 18.5865 89.3401 18.5633 89.2242 18.5324C89.1238 18.5092 89.031 18.4861 88.9306 18.4552C88.8147 18.4165 88.6911 18.3702 88.5752 18.3316C88.4748 18.2929 88.3821 18.262 88.2816 18.2157C88.158 18.1616 88.0422 18.0998 87.9186 18.038C87.8181 17.9917 87.7254 17.9453 87.625 17.8912C87.5014 17.8217 87.3701 17.7367 87.2464 17.6595C87.1537 17.5977 87.061 17.5436 86.9606 17.4818C86.8293 17.3891 86.6902 17.2886 86.5511 17.1805C86.4584 17.111 86.3735 17.0492 86.2807 16.9796C86.1262 16.856 85.9794 16.7247 85.8249 16.5934C85.7477 16.5238 85.6704 16.4698 85.5932 16.3925C85.3614 16.1839 85.1219 15.9599 84.8902 15.7281C84.3185 15.1642 83.7313 14.6157 83.1519 14.0749C82.9819 13.9204 82.812 13.7659 82.642 13.6114C82.2016 13.2097 81.7536 12.8157 81.3055 12.4294C81.1432 12.2904 80.981 12.1436 80.8188 12.0122C80.2239 11.5101 79.629 11.0234 79.0342 10.5599C78.9569 10.5058 78.8874 10.444 78.8101 10.3899C78.277 9.98049 77.744 9.57877 77.2032 9.19251C77.0178 9.06117 76.8401 8.92984 76.6547 8.80624C76.1834 8.47405 75.7045 8.14959 75.2332 7.83285C75.0787 7.73242 74.9242 7.62427 74.7696 7.52384C74.1516 7.12212 73.5258 6.73586 72.9001 6.37277C72.7842 6.30324 72.6606 6.23371 72.5447 6.17191C72.0271 5.87062 71.5095 5.58478 70.9841 5.30667C70.791 5.20624 70.6056 5.10581 70.4124 5.00538C69.9025 4.74272 69.3849 4.48779 68.875 4.2483C68.736 4.1865 68.6047 4.11697 68.4656 4.04744C67.8244 3.75388 67.1754 3.46804 66.5265 3.20538C66.372 3.14358 66.2252 3.0895 66.0707 3.0277C65.553 2.82684 65.0432 2.63371 64.5255 2.4483C64.3324 2.37877 64.1316 2.30925 63.9307 2.24744C63.3667 2.06204 62.8028 1.87663 62.2388 1.71439C62.1306 1.68349 62.0302 1.65259 61.922 1.62169C61.2576 1.43629 60.5855 1.26632 59.9134 1.10409C59.7357 1.06547 59.558 1.02684 59.3803 0.988218C58.8627 0.872338 58.3451 0.771907 57.8198 0.679204C57.6189 0.640577 57.4181 0.609676 57.2172 0.571049C56.576 0.462895 55.9347 0.370192 55.2858 0.300664C55.2394 0.300664 55.1931 0.28521 55.1467 0.28521C54.4592 0.207957 53.7639 0.153883 53.0686 0.107531C52.8677 0.0920807 52.6745 0.0843547 52.4737 0.0766294C51.9483 0.0534534 51.4153 0.0379988 50.8822 0.0302734C50.6814 0.0302734 50.4727 0.0302734 50.2719 0.0302734C49.6538 0.0302734 49.0281 0.0457281 48.41 0.0766294C48.3482 0.0766294 48.2864 0.0766294 48.2324 0.0766294C47.5525 0.115256 46.8649 0.169333 46.1773 0.23886C45.9765 0.262036 45.7679 0.28521 45.567 0.308385C45.0726 0.362463 44.5704 0.431992 44.0683 0.509246C43.8365 0.540147 43.6047 0.578773 43.3807 0.6174C42.8476 0.702378 42.3223 0.802805 41.7892 0.91096C41.6192 0.949586 41.4416 0.972766 41.2716 1.01139C40.5763 1.15817 39.8733 1.32813 39.1702 1.50581C39.0157 1.54444 38.8535 1.59079 38.699 1.63714C38.1427 1.78392 37.5865 1.94616 37.0303 2.11611C36.7985 2.18564 36.5667 2.2629 36.3272 2.34015C35.8173 2.50238 35.3075 2.68006 34.7899 2.86547C34.5735 2.94272 34.3495 3.01997 34.1332 3.09723C33.4147 3.35989 32.6962 3.64572 31.9777 3.94701C30.0541 4.75044 28.2309 5.63114 26.4926 6.58908C25.9132 6.90581 25.3415 7.238 24.7852 7.57019C23.665 8.24229 22.5912 8.9453 21.556 9.67148C19.4855 11.1393 17.5696 12.7307 15.8081 14.438C12.293 17.8526 9.41138 21.7307 7.12462 25.9951C6.55293 27.0612 6.01986 28.1504 5.52542 29.2629C3.7949 33.1642 2.51247 37.3436 1.67811 41.7702C1.32273 43.6629 1.03687 45.6019 0.843732 47.5796C0.712398 48.9007 0.611961 50.2371 0.550157 51.5891C0.287488 57.2286 0.310678 62.7599 0.611975 68.1676C0.75876 70.7556 0.967356 73.3127 1.24548 75.8389C1.27638 76.1247 1.30728 76.4028 1.33818 76.6886C1.60085 78.9599 1.90985 81.2157 2.28068 83.4406C2.52789 84.9316 2.79059 86.4225 3.08416 87.8981C3.33911 89.1728 3.6095 90.4474 3.90307 91.7067C5.06191 96.7513 6.51432 101.672 8.25257 106.47C16.0863 128.039 29.8455 146.989 49.8238 162.919C49.9165 162.996 50.017 163.065 50.1097 163.143C50.9054 163.776 51.6934 164.394 52.4814 164.989C52.8136 165.236 53.1381 165.468 53.4703 165.715C54.0188 166.125 54.5673 166.534 55.1158 166.92C55.4712 167.175 55.8266 167.407 56.1819 167.654C56.6918 168.01 57.2094 168.373 57.7193 168.72C58.0901 168.968 58.4532 169.192 58.8241 169.431C59.3185 169.748 59.813 170.08 60.2997 170.381C60.6705 170.613 61.0413 170.829 61.4199 171.053C61.8989 171.339 62.3779 171.641 62.8568 171.911C63.2354 172.127 63.6062 172.328 63.9771 172.529C64.4483 172.792 64.9196 173.062 65.3831 173.309C65.7617 173.51 66.1402 173.695 66.5187 173.881C66.9746 174.113 67.4381 174.352 67.8862 174.568C68.2725 174.754 68.651 174.916 69.0373 175.094C69.4854 175.295 69.9334 175.511 70.3815 175.704C70.7678 175.866 71.1464 176.013 71.5326 176.175C71.973 176.353 72.4134 176.538 72.8537 176.708C73.24 176.855 73.6263 176.986 74.0203 177.118C74.4529 177.272 74.8855 177.435 75.3182 177.574C75.7045 177.697 76.0985 177.805 76.4847 177.929C76.9096 178.06 77.3423 178.192 77.7672 178.315C78.1534 178.423 78.5397 178.508 78.926 178.601C79.3509 178.709 79.7835 178.817 80.2084 178.918C80.5947 179.003 80.981 179.072 81.3673 179.142C81.7922 179.227 82.2171 179.312 82.6343 179.381C83.0205 179.443 83.4145 179.49 83.8008 179.544C84.218 179.605 84.6429 179.667 85.0601 179.714C85.4464 179.76 85.8404 179.783 86.2267 179.814C86.6438 179.853 87.0688 179.891 87.4859 179.914C87.8722 179.938 88.2662 179.938 88.6525 179.953C89.0697 179.968 89.4869 179.984 89.904 179.984C90.3135 179.984 90.7307 179.968 91.1401 179.961C91.5341 179.953 91.9204 179.945 92.3144 179.93L92.3067 179.938ZM32.3099 104.276C25.7046 89.1419 22.7998 71.7676 23.6882 52.6474C24.0127 45.6483 25.6273 39.808 28.5012 35.2964C31.2902 30.9161 35.3461 27.6483 40.9085 25.323C44.3 23.9015 47.5293 23.1831 50.5037 23.1831C56.5296 23.1831 62.4628 26.1419 68.6278 32.2217C75.1096 38.6105 82.418 41.8474 90.3444 41.8474C95.9145 41.8474 104.173 40.1556 111.906 32.1135C120.435 23.2371 127.311 23.2371 129.567 23.2371C132.634 23.2371 136.002 23.9324 139.564 25.3153C147.004 28.1891 154.289 33.8054 157.186 55.22C157.201 55.6526 157.163 56.6414 157.14 57.3831C157.109 58.2097 157.078 59.1213 157.062 60.1178C155.857 78.3728 152.018 94.5341 145.644 108.162C138.784 122.832 129.019 134.914 115.792 145.12C105.564 153.007 97.1429 156.839 90.0354 156.839C82.9278 156.839 74.4375 152.899 64.2629 144.787C49.7466 133.223 39.0003 119.595 32.3177 104.291L32.3099 104.276Z" fill="white"/>
<mask id="mask0_3126_6316" style="mask-type:luminance" maskUnits="userSpaceOnUse" x="0" y="0" width="181" height="180">
<path d="M50.4954 23.176C56.5213 23.176 62.4545 26.1348 68.6195 32.2146C75.1013 38.6034 82.4097 41.8403 90.3361 41.8403C95.9062 41.8403 104.165 40.1485 111.898 32.1064C120.427 23.23 127.303 23.23 129.559 23.23C132.626 23.23 135.994 23.9253 139.556 25.3081C146.995 28.182 154.281 33.7983 157.178 55.2129C157.193 55.6455 157.155 56.6343 157.131 57.376C157.1 58.2026 157.069 59.1142 157.054 60.1107C155.849 78.3657 152.009 94.527 145.636 108.147C138.775 122.817 129.01 134.9 115.784 145.105C105.555 152.992 97.1346 156.824 90.0271 156.824C82.9196 156.824 74.4292 152.884 64.2546 144.773C49.7383 133.208 38.992 119.58 32.3094 104.276C25.704 89.1348 22.7992 71.7682 23.6877 52.6481C24.0121 45.6489 25.6268 39.8086 28.5007 35.297C31.2896 30.9167 35.3455 27.6489 40.9079 25.3236C44.2995 23.9021 47.5288 23.1837 50.5031 23.1837M50.4954 0C44.5158 0 38.3276 1.27468 31.954 3.93991C11.4581 12.515 1.52305 29.9433 0.526448 51.582C-1.55945 96.7133 14.2779 134.598 49.8001 162.904C64.131 174.322 77.0481 180 90.0193 180C102.991 180 115.653 174.469 129.93 163.46C163.304 137.719 177.643 102.059 180.215 60.9373C180.215 58.0635 180.54 55.1433 180.161 52.3236C177.295 30.8627 169.446 12.0206 147.899 3.6927C141.603 1.25923 135.469 0.0617981 129.543 0.0617981C116.943 0.0617981 105.316 5.50043 95.1723 16.0532C93.465 17.83 91.8967 18.6721 90.3206 18.6721C88.5824 18.6721 86.8287 17.6446 84.8741 15.7133C74.63 5.61631 63.034 0 50.4799 0H50.4954Z" fill="white"/>
</mask>
<g mask="url(#mask0_3126_6316)">
<path opacity="0.3" d="M90.3513 89.9995V-41.2383" stroke="black" stroke-miterlimit="10"/>
<path opacity="0.3" d="M90.3515 89.9993L78.9177 -40.7363" stroke="black" stroke-miterlimit="10"/>
<path opacity="0.3" d="M90.3509 89.9995L67.5605 -39.2451" stroke="black" stroke-miterlimit="10"/>
<path opacity="0.3" d="M90.3508 90.0002L56.3893 -36.7646" stroke="black" stroke-miterlimit="10"/>
<path opacity="0.3" d="M90.3511 89.999L45.4656 -33.3203" stroke="black" stroke-miterlimit="10"/>
<path opacity="0.3" d="M90.3514 89.9996L34.8896 -28.9395" stroke="black" stroke-miterlimit="10"/>
<path opacity="0.3" d="M90.3517 89.9997L24.7385 -23.6553" stroke="black" stroke-miterlimit="10"/>
<path opacity="0.3" d="M90.3517 89.9997L15.0815 -17.5059" stroke="black" stroke-miterlimit="10"/>
<path opacity="0.3" d="M90.3507 89.9993L5.99527 -10.5303" stroke="black" stroke-miterlimit="10"/>
<path opacity="0.3" d="M90.3509 89.9997L-2.44855 -2.79688" stroke="black" stroke-miterlimit="10"/>
<path opacity="0.3" d="M90.3514 89.9992L-10.1813 5.63867" stroke="black" stroke-miterlimit="10"/>
<path opacity="0.3" d="M90.3508 89.9992L-17.1503 14.7236" stroke="black" stroke-miterlimit="10"/>
<path opacity="0.3" d="M90.3504 89.9997L-23.3003 24.3809" stroke="black" stroke-miterlimit="10"/>
<path opacity="0.3" d="M90.3509 89.9991L-28.5919 34.5312" stroke="black" stroke-miterlimit="10"/>
<path opacity="0.3" d="M90.351 89.9994L-32.9722 45.1152" stroke="black" stroke-miterlimit="10"/>
<path opacity="0.3" d="M90.3512 89.9995L-36.4098 56.0312" stroke="black" stroke-miterlimit="10"/>
<path opacity="0.3" d="M90.3513 89.9987L-38.8896 67.209" stroke="black" stroke-miterlimit="10"/>
<path opacity="0.3" d="M90.3508 89.9998L-40.3889 78.5586" stroke="black" stroke-miterlimit="10"/>
<path opacity="0.3" d="M90.351 89.999H-40.8831" stroke="black" stroke-miterlimit="10"/>
<path opacity="0.3" d="M90.3508 89.999L-40.3889 101.433" stroke="black" stroke-miterlimit="10"/>
<path opacity="0.3" d="M90.3513 89.999L-38.8896 112.789" stroke="black" stroke-miterlimit="10"/>
<path opacity="0.3" d="M90.3512 89.999L-36.4098 123.96" stroke="black" stroke-miterlimit="10"/>
<path opacity="0.3" d="M90.351 89.999L-32.9722 134.883" stroke="black" stroke-miterlimit="10"/>
<path opacity="0.3" d="M90.3509 89.999L-28.5919 145.459" stroke="black" stroke-miterlimit="10"/>
<path opacity="0.3" d="M90.3504 89.999L-23.3003 155.61" stroke="black" stroke-miterlimit="10"/>
<path opacity="0.3" d="M90.3508 89.999L-17.1503 165.267" stroke="black" stroke-miterlimit="10"/>
<path opacity="0.3" d="M90.3514 89.999L-10.1813 174.352" stroke="black" stroke-miterlimit="10"/>
<path opacity="0.3" d="M90.3509 89.999L-2.44855 182.796" stroke="black" stroke-miterlimit="10"/>
<path opacity="0.3" d="M90.3507 89.999L5.99527 190.529" stroke="black" stroke-miterlimit="10"/>
<path opacity="0.3" d="M90.3517 89.999L15.0815 197.497" stroke="black" stroke-miterlimit="10"/>
<path opacity="0.3" d="M90.3517 89.999L24.7385 203.646" stroke="black" stroke-miterlimit="10"/>
<path opacity="0.3" d="M90.3514 89.999L34.8896 208.938" stroke="black" stroke-miterlimit="10"/>
<path opacity="0.3" d="M90.3511 89.999L45.4656 213.318" stroke="black" stroke-miterlimit="10"/>
<path opacity="0.3" d="M90.3508 89.999L56.3893 216.756" stroke="black" stroke-miterlimit="10"/>
<path opacity="0.3" d="M90.3509 89.999L67.5605 219.236" stroke="black" stroke-miterlimit="10"/>
<path opacity="0.3" d="M90.3515 89.999L78.9177 220.727" stroke="black" stroke-miterlimit="10"/>
<path opacity="0.3" d="M90.3513 89.999V221.229" stroke="black" stroke-miterlimit="10"/>
<path opacity="0.3" d="M90.3513 89.999L101.793 220.727" stroke="black" stroke-miterlimit="10"/>
<path opacity="0.3" d="M90.3513 89.999L113.142 219.236" stroke="black" stroke-miterlimit="10"/>
<path opacity="0.3" d="M90.3513 89.999L124.321 216.756" stroke="black" stroke-miterlimit="10"/>
<path opacity="0.3" d="M90.3513 89.999L135.237 213.318" stroke="black" stroke-miterlimit="10"/>
<path opacity="0.3" d="M90.3513 89.999L145.813 208.938" stroke="black" stroke-miterlimit="10"/>
<path opacity="0.3" d="M90.3513 89.999L155.972 203.646" stroke="black" stroke-miterlimit="10"/>
<path opacity="0.3" d="M90.3513 89.999L165.629 197.497" stroke="black" stroke-miterlimit="10"/>
<path opacity="0.3" d="M90.3513 89.999L174.715 190.529" stroke="black" stroke-miterlimit="10"/>
<path opacity="0.3" d="M90.3513 89.999L183.151 182.796" stroke="black" stroke-miterlimit="10"/>
<path opacity="0.3" d="M90.3513 89.999L190.884 174.352" stroke="black" stroke-miterlimit="10"/>
<path opacity="0.3" d="M90.3513 89.999L197.86 165.267" stroke="black" stroke-miterlimit="10"/>
<path opacity="0.3" d="M90.3513 89.999L204.01 155.61" stroke="black" stroke-miterlimit="10"/>
<path opacity="0.3" d="M90.3513 89.999L209.294 145.459" stroke="black" stroke-miterlimit="10"/>
<path opacity="0.3" d="M90.3513 89.999L213.674 134.883" stroke="black" stroke-miterlimit="10"/>
<path opacity="0.3" d="M90.3513 89.999L217.12 123.96" stroke="black" stroke-miterlimit="10"/>
<path opacity="0.3" d="M90.3513 89.999L219.6 112.789" stroke="black" stroke-miterlimit="10"/>
<path opacity="0.3" d="M90.3513 89.999L221.091 101.433" stroke="black" stroke-miterlimit="10"/>
<path opacity="0.3" d="M90.3513 89.999H221.593" stroke="black" stroke-miterlimit="10"/>
<path opacity="0.3" d="M90.3513 89.9998L221.091 78.5586" stroke="black" stroke-miterlimit="10"/>
<path opacity="0.3" d="M90.3513 89.9987L219.6 67.209" stroke="black" stroke-miterlimit="10"/>
<path opacity="0.3" d="M90.3513 89.9995L217.12 56.0312" stroke="black" stroke-miterlimit="10"/>
<path opacity="0.3" d="M90.3513 89.9994L213.674 45.1152" stroke="black" stroke-miterlimit="10"/>
<path opacity="0.3" d="M90.3513 89.9991L209.294 34.5312" stroke="black" stroke-miterlimit="10"/>
<path opacity="0.3" d="M90.3513 89.9997L204.01 24.3809" stroke="black" stroke-miterlimit="10"/>
<path opacity="0.3" d="M90.3513 89.9992L197.86 14.7236" stroke="black" stroke-miterlimit="10"/>
<path opacity="0.3" d="M90.3513 89.9992L190.884 5.63867" stroke="black" stroke-miterlimit="10"/>
<path opacity="0.3" d="M90.3513 89.9997L183.151 -2.79688" stroke="black" stroke-miterlimit="10"/>
<path opacity="0.3" d="M90.3513 89.9993L174.715 -10.5303" stroke="black" stroke-miterlimit="10"/>
<path opacity="0.3" d="M90.3513 89.9997L165.629 -17.5059" stroke="black" stroke-miterlimit="10"/>
<path opacity="0.3" d="M90.3513 89.9997L155.972 -23.6553" stroke="black" stroke-miterlimit="10"/>
<path opacity="0.3" d="M90.3513 89.9996L145.813 -28.9395" stroke="black" stroke-miterlimit="10"/>
<path opacity="0.3" d="M90.3513 89.999L135.237 -33.3203" stroke="black" stroke-miterlimit="10"/>
<path opacity="0.3" d="M90.3513 90.0002L124.321 -36.7646" stroke="black" stroke-miterlimit="10"/>
<path opacity="0.3" d="M90.3513 89.9995L113.142 -39.2451" stroke="black" stroke-miterlimit="10"/>
<path opacity="0.3" d="M90.3513 89.9993L101.793 -40.7363" stroke="black" stroke-miterlimit="10"/>
</g>
</svg>
