<svg preserveAspectRatio="none" viewBox="0 0 180 180" fill="none" xmlns="http://www.w3.org/2000/svg"><path d="M180 83.999c0-7.652-4.383-14.82-12.043-21.002C175.617 56.823 180 49.647 180 41.995 180 18.798 139.706 0 90 0S0 18.806 0 41.995c0 7.652 4.383 14.82 12.043 21.002C4.383 69.172 0 76.347 0 84c0 10.283 7.918 19.702 21.06 26.999C7.917 118.294 0 127.714 0 137.996c0 23.198 40.294 41.996 90 41.996s90-18.806 90-41.996c0-10.282-7.918-19.702-21.059-26.998 13.141-7.297 21.059-16.716 21.059-27ZM90 24.222c37.3 0 60.013 11.696 65.115 17.725-.493.565-1.243 1.316-2.357 2.212a24.216 24.216 0 0 0 0 37.693c1.073.864 1.808 1.59 2.308 2.147-1.114 1.26-3.414 3.358-7.878 5.836a24.205 24.205 0 0 0-12.446 20.759c0 .137-.017.275-.017.404s.009.274.017.403a24.204 24.204 0 0 0 12.446 20.76c4.537 2.518 6.837 4.641 7.927 5.892-5.11 6.029-27.824 17.725-65.107 17.725s-59.997-11.688-65.115-17.725c1.09-1.251 3.398-3.374 7.927-5.892a24.205 24.205 0 0 0 12.446-20.76c0-.137.017-.274.017-.403s-.009-.275-.017-.404a24.205 24.205 0 0 0-12.446-20.76c-4.464-2.477-6.764-4.576-7.878-5.835.492-.557 1.235-1.283 2.308-2.147a24.218 24.218 0 0 0 0-37.693c-1.114-.896-1.864-1.647-2.357-2.212 5.102-6.03 27.816-17.725 65.115-17.725H90Z" fill="current"/><mask id="a" style="mask-type:luminance" maskUnits="userSpaceOnUse" x="0" y="0" width="180" height="180"><path d="M90 155.786c37.291 0 59.997-11.688 65.107-17.725-1.09-1.251-3.399-3.374-7.927-5.892a24.223 24.223 0 0 1-12.455-21.172 24.232 24.232 0 0 1 12.455-21.17c4.464-2.479 6.764-4.577 7.878-5.836-.492-.557-1.235-1.284-2.308-2.147a24.217 24.217 0 0 1 0-37.694c1.114-.896 1.864-1.646 2.357-2.211-5.102-6.03-27.816-17.725-65.115-17.725-37.3 0-60.014 11.695-65.115 17.725.492.565 1.243 1.315 2.357 2.211a24.218 24.218 0 0 1 0 37.694c-1.074.863-1.808 1.59-2.308 2.147 1.114 1.259 3.414 3.357 7.878 5.835a24.221 24.221 0 0 1 0 42.343c-4.537 2.518-6.837 4.641-7.927 5.892 5.11 6.029 27.823 17.725 65.115 17.725M90 180c-49.706 0-90-18.807-90-41.996 0-10.283 7.918-19.702 21.06-26.998C7.917 103.709 0 94.29 0 84.006c0-7.651 4.383-14.818 12.043-21.001C4.383 56.83 0 49.655 0 42.003 0 18.806 40.294.008 90 .008s90 18.806 90 41.995c0 7.652-4.383 14.82-12.043 21.002C175.617 69.18 180 76.355 180 84.007c0 10.283-7.918 19.702-21.059 26.999C172.082 118.302 180 127.721 180 138.004 180 161.201 139.706 180 90 180Z" fill="current"/></mask><g mask="url(#a)" stroke="#fff" stroke-miterlimit="10"><path opacity=".5" d="M90 86.977V-50.14M90 86.978 78.055-49.614M90 86.977 66.197-48.049M90 86.978 54.517-45.466M90 86.976 43.103-41.867M90 86.977 32.053-37.29M90 86.977 21.446-31.77M90 86.977 11.357-25.336M90 86.977 1.865-18.056M90 86.977-6.958-9.977M90 86.977-15.037-1.154M90 86.978-22.318 8.33M90 86.977-28.743 18.42M90 86.977-34.272 29.032M90 86.978-38.849 40.083M90 86.977-42.44 51.487M90 86.977-45.032 63.166M90 86.978-46.59 75.023M90 86.977H-47.115M90 86.977-46.59 98.923M90 86.977l-135.032 23.81M90 86.977-42.44 122.466M90 86.977-38.849 133.87M90 86.977-34.272 144.92M90 86.977l-118.743 68.558M90 86.977l-112.318 78.647M90 86.977l-105.037 88.131M90 86.977-6.958 183.93M90 86.977 1.865 192.01M90 86.977 11.357 199.29M90 86.977 21.446 205.715M90 86.977 32.053 211.244M90 86.977 43.103 215.82M90 86.977 54.517 219.42M90 86.977 66.197 222.003M90 86.977 78.055 223.569M90 86.977v137.108M90 86.977l11.955 136.592M90 86.977l23.812 135.026M90 86.977l35.492 132.443M90 86.977l46.897 128.843M90 86.977l57.955 124.267M90 86.977l68.562 118.738M90 86.977l78.651 112.313M90 86.977l88.144 105.033M90 86.977l96.958 96.953M90 86.977l105.046 88.131M90 86.977l112.327 78.647M90 86.977l118.752 68.558M90 86.977l124.273 57.944M90 86.977l128.85 46.894M90 86.977l132.45 35.489M90 86.977l135.041 23.81M90 86.977 226.6 98.923M90 86.977h137.123M90 86.978 226.6 75.023M90 86.977l135.041-23.811M90 86.977l132.45-35.49M90 86.978l128.85-46.895M90 86.977l124.273-57.945M90 86.977 208.752 18.42M90 86.978 202.327 8.33M90 86.977 195.046-1.154M90 86.977l96.958-96.954M90 86.977l88.144-105.033M90 86.977l78.651-112.313M90 86.977 158.562-31.77M90 86.977 147.955-37.29M90 86.976l46.897-128.843M90 86.978l35.492-132.444M90 86.977l23.812-135.026M90 86.978l11.955-136.592"/></g></svg>