<svg preserveAspectRatio="none" viewBox="0 0 180 180" fill="none" xmlns="http://www.w3.org/2000/svg"><path d="M175.642 14.455a31.8 31.8 0 0 0-1.614-2.397 29.944 29.944 0 0 0-2.825-3.26 30.437 30.437 0 0 0-4.438-3.665 29.491 29.491 0 0 0-3.769-2.163 31.6 31.6 0 0 0-2.688-1.138 29.217 29.217 0 0 0-5.746-1.477 30.5 30.5 0 0 0-4.567-.347c-1.55 0-3.075.121-4.568.347-.896.137-1.784.323-2.655.533a29.143 29.143 0 0 0-3.091.936 28.08 28.08 0 0 0-2.276.952 28.402 28.402 0 0 0-4.172 2.349 30.025 30.025 0 0 0-4.439 3.664 30.068 30.068 0 0 0-6.642 10.073 29.36 29.36 0 0 0-1.461 4.762c-.04.202-.088.395-.121.597a30.32 30.32 0 0 0-.565 5.779c0-16.57-13.429-30-29.997-30-1.646 0-3.26.137-4.834.395-.79.13-1.566.291-2.332.477a29.68 29.68 0 0 0-5.238 1.816A30.13 30.13 0 0 0 72.4 5.722c-.194.146-.388.283-.581.436-.63.484-1.243.985-1.832 1.518l-.194.169C63.788 13.333 60.011 21.227 60.011 30c0-16.57-13.43-30-29.998-30a30.25 30.25 0 0 0-6.819.783 29.718 29.718 0 0 0-4.56 1.453l-.411.17A30.07 30.07 0 0 0 2.575 17.9a27.16 27.16 0 0 0-.84 2.131c-.282.807-.54 1.63-.758 2.462a29.43 29.43 0 0 0-.598 2.93 28.68 28.68 0 0 0-.306 3.026c-.024.509-.04 1.025-.04 1.542v149.984H180V30.008a30.11 30.11 0 0 0-1.348-8.918 29.64 29.64 0 0 0-2.994-6.635h-.016Zm-19.869 141.332H24.227V30.008a5.792 5.792 0 0 1 5.787-5.787 5.792 5.792 0 0 1 5.786 5.787c0 13.374 10.838 24.213 24.21 24.213 13.373 0 24.212-10.84 24.212-24.213a5.797 5.797 0 0 1 5.786-5.787 5.797 5.797 0 0 1 5.787 5.787c0 13.374 10.838 24.213 24.21 24.213 13.373 0 24.211-10.84 24.211-24.213a5.792 5.792 0 0 1 5.787-5.787 5.791 5.791 0 0 1 5.786 5.787V155.78l-.016.008Z" fill="current"/><mask id="a" style="mask-type:luminance" maskUnits="userSpaceOnUse" x="0" y="0" width="180" height="180"><path d="M149.987 24.229a5.792 5.792 0 0 1 5.786 5.787v125.771H24.227V30.007a5.787 5.787 0 1 1 11.573 0c0 13.375 10.838 24.214 24.21 24.214 13.373 0 24.212-10.84 24.212-24.213a5.797 5.797 0 0 1 5.786-5.787 5.792 5.792 0 0 1 5.787 5.787c0 13.374 10.838 24.213 24.21 24.213 13.373 0 24.211-10.84 24.211-24.213a5.792 5.792 0 0 1 5.787-5.787M149.987.016c-16.569 0-29.998 13.43-29.998 30 0-16.57-13.429-30-29.997-30-16.568 0-29.997 13.43-29.997 30 0-16.57-13.43-30-29.998-30S0 13.446 0 30.016V180h179.968V30.008c0-16.57-13.429-30-29.998-30l.017.008Z" fill="current"/></mask><g mask="url(#a)" stroke="#fff" stroke-miterlimit="10"><path opacity=".5" d="M92.486 98.918V-38.185M92.487 98.918 80.543-37.668M92.486 98.919 68.679-36.101M92.486 98.919 57-33.511M92.486 98.918 45.598-29.92M92.486 98.919 34.55-25.343M92.486 98.917 23.937-19.815M92.487 98.918 13.857-13.391M92.486 98.918 4.366-6.11M92.486 98.918l-96.94-96.95M92.487 98.918-12.533 10.79M92.486 98.918-19.812 20.282M92.486 98.918-26.236 30.362M92.486 98.918l-124.25-57.941M92.486 98.918-36.34 52.025M92.486 98.918-39.93 63.438M92.487 98.918l-135.009-23.81M92.486 98.919-44.088 86.974M92.486 98.918h-137.09M92.486 98.918l-136.574 11.953M92.487 98.918l-135.009 23.809M92.486 98.918-39.93 134.406M92.486 98.918-36.34 145.811M92.486 98.918l-124.25 57.942M92.486 98.918l-118.722 68.555M92.486 98.918l-112.298 78.644M92.487 98.918l-105.02 88.136M92.486 98.918l-96.94 96.949M92.486 98.918 4.366 203.946M92.487 98.918l-78.63 112.316M92.486 98.918 23.937 217.659M92.486 98.918 34.55 223.179M92.486 98.918 45.598 227.756M92.486 98.918 57 231.355M92.486 98.918 68.679 233.946M92.487 98.918 80.543 235.504M92.486 98.918v137.111M92.486 98.918l11.952 136.586M92.486 98.918l23.808 135.028M92.486 98.918l35.485 132.437M92.486 98.918l46.889 128.838M92.486 98.918l57.937 124.261M92.486 98.918l68.549 118.741M92.486 98.918l78.637 112.316M92.486 98.918l88.12 105.028M92.486 98.918l96.941 96.949M92.486 98.918l105.019 88.136M92.486 98.918l112.298 78.644M92.486 98.918l118.731 68.555M92.486 98.918l124.251 57.942M92.486 98.918l128.827 46.893M92.486 98.918l132.426 35.488M92.486 98.918l135.016 23.809M92.486 98.918l136.574 11.953M92.486 98.918h137.099M92.486 98.919 229.06 86.974M92.486 98.918l135.016-23.81M92.486 98.918l132.426-35.48M92.486 98.918l128.827-46.893M92.486 98.918l124.251-57.941M92.486 98.918l118.731-68.556M92.486 98.918l112.298-78.636M92.486 98.918 197.505 10.79M92.486 98.918l96.941-96.95M92.486 98.918 180.606-6.11M92.486 98.918l78.637-112.309M92.486 98.917l68.549-118.732M92.486 98.919l57.937-124.262M92.486 98.918 139.375-29.92M92.486 98.919l35.485-132.43M92.486 98.919l23.808-135.02M92.486 98.918l11.952-136.586"/></g></svg>