<svg width="100%" height="100%" preserveAspectRatio="none" viewBox="0 0 180 180" fill="none" xmlns="http://www.w3.org/2000/svg">
<path fill-rule="evenodd" clip-rule="evenodd" d="M180 0H0V180H180V0ZM89.9963 155.784C53.7235 155.784 24.2145 126.274 24.2145 89.9996V24.2148H155.778V89.9996C155.778 126.274 126.269 155.784 89.9963 155.784Z" fill="white"/>
<path d="M179.992 0H0V90C0 138.6 38.7184 178.321 86.9288 179.943C87.9458 179.976 88.9709 180 89.996 180C91.021 180 92.0784 179.976 93.1196 179.943C140.531 178.321 178.757 139.843 179.968 92.3247C179.984 91.5498 180 90.783 180 90.0081V0.00806731L179.992 0ZM155.778 90C155.778 126.274 126.269 155.785 89.996 155.785C53.7232 155.785 24.2142 126.274 24.2142 90V24.2152H155.778V90Z" fill="current"/>
<mask id="mask0_3125_5746" style="mask-type:luminance" maskUnits="userSpaceOnUse" x="0" y="0" width="180" height="180">
<path d="M0 0H179.992V90C179.992 139.625 139.619 180 89.996 180C40.3731 180 0 139.625 0 90V0ZM155.778 24.2152H24.2142V90C24.2142 126.274 53.7231 155.785 89.996 155.785C126.269 155.785 155.778 126.274 155.778 90V24.2152Z" fill="current"/>
</mask>
<g mask="url(#mask0_3125_5746)">
<path opacity='1' d="M89.9951 78.4658V215.589" stroke="white" stroke-miterlimit="10"/>
<path opacity='1' d="M89.9951 78.4658L101.941 215.064" stroke="white" stroke-miterlimit="10"/>
<path opacity='1' d="M89.9951 78.4658L113.806 213.506" stroke="white" stroke-miterlimit="10"/>
<path opacity='1' d="M89.9951 78.4658L125.485 210.915" stroke="white" stroke-miterlimit="10"/>
<path opacity='1' d="M89.9951 78.4658L136.89 207.315" stroke="white" stroke-miterlimit="10"/>
<path opacity='1' d="M89.9951 78.4658L147.94 202.738" stroke="white" stroke-miterlimit="10"/>
<path opacity='1' d="M89.9951 78.4658L158.553 197.217" stroke="white" stroke-miterlimit="10"/>
<path opacity='1' d="M89.9951 78.4658L168.643 190.792" stroke="white" stroke-miterlimit="10"/>
<path opacity='1' d="M89.9951 78.4658L178.127 183.512" stroke="white" stroke-miterlimit="10"/>
<path opacity='1' d="M89.9951 78.4658L186.949 175.424" stroke="white" stroke-miterlimit="10"/>
<path opacity='1' d="M89.9951 78.4658L195.028 166.609" stroke="white" stroke-miterlimit="10"/>
<path opacity='1' d="M89.9951 78.4658L202.308 157.117" stroke="white" stroke-miterlimit="10"/>
<path opacity='1' d="M89.9951 78.4658L208.741 147.027" stroke="white" stroke-miterlimit="10"/>
<path opacity='1' d="M89.9951 78.4658L214.262 136.421" stroke="white" stroke-miterlimit="10"/>
<path opacity='1' d="M89.9951 78.4658L218.839 125.371" stroke="white" stroke-miterlimit="10"/>
<path opacity='1' d="M89.9951 78.4658L222.438 113.957" stroke="white" stroke-miterlimit="10"/>
<path opacity='1' d="M89.9951 78.4658L225.021 102.277" stroke="white" stroke-miterlimit="10"/>
<path opacity='1' d="M89.9951 78.4658L226.587 90.4201" stroke="white" stroke-miterlimit="10"/>
<path opacity='1' d="M89.9951 78.4658H227.104" stroke="white" stroke-miterlimit="10"/>
<path opacity='1' d="M89.9951 78.4657L226.587 66.5195" stroke="white" stroke-miterlimit="10"/>
<path opacity='1' d="M89.9951 78.4657L225.021 54.6621" stroke="white" stroke-miterlimit="10"/>
<path opacity='1' d="M89.9951 78.4658L222.438 42.9824" stroke="white" stroke-miterlimit="10"/>
<path opacity='1' d="M89.9951 78.4652L218.839 31.5684" stroke="white" stroke-miterlimit="10"/>
<path opacity='1' d="M89.9951 78.4656L214.262 20.5186" stroke="white" stroke-miterlimit="10"/>
<path opacity='1' d="M89.9951 78.4655L208.741 9.91211" stroke="white" stroke-miterlimit="10"/>
<path opacity='1' d="M89.9951 78.4653L202.308 -0.177734" stroke="white" stroke-miterlimit="10"/>
<path opacity='1' d="M89.9951 78.4655L195.028 -9.66992" stroke="white" stroke-miterlimit="10"/>
<path opacity='1' d="M89.9951 78.4654L186.949 -18.4844" stroke="white" stroke-miterlimit="10"/>
<path opacity='1' d="M89.9951 78.4654L178.127 -26.5723" stroke="white" stroke-miterlimit="10"/>
<path opacity='1' d="M89.9951 78.4649L168.643 -33.8535" stroke="white" stroke-miterlimit="10"/>
<path opacity='1' d="M89.9951 78.4652L158.553 -40.2783" stroke="white" stroke-miterlimit="10"/>
<path opacity='1' d="M89.9951 78.4657L147.94 -45.7988" stroke="white" stroke-miterlimit="10"/>
<path opacity='1' d="M89.9951 78.4655L136.89 -50.3838" stroke="white" stroke-miterlimit="10"/>
<path opacity='1' d="M89.9951 78.4657L125.485 -53.9756" stroke="white" stroke-miterlimit="10"/>
<path opacity='1' d="M89.9951 78.4659L113.806 -56.5664" stroke="white" stroke-miterlimit="10"/>
<path opacity='1' d="M89.9951 78.4661L101.941 -58.124" stroke="white" stroke-miterlimit="10"/>
<path opacity='1' d="M89.9951 78.4654V-58.6494" stroke="white" stroke-miterlimit="10"/>
<path opacity='1' d="M89.9963 78.4661L78.042 -58.124" stroke="white" stroke-miterlimit="10"/>
<path opacity='1' d="M89.9956 78.4659L66.1851 -56.5664" stroke="white" stroke-miterlimit="10"/>
<path opacity='1' d="M89.9954 78.4657L54.5055 -53.9756" stroke="white" stroke-miterlimit="10"/>
<path opacity='1' d="M89.9957 78.4655L43.101 -50.3838" stroke="white" stroke-miterlimit="10"/>
<path opacity='1' d="M89.9949 78.4657L32.0504 -45.7988" stroke="white" stroke-miterlimit="10"/>
<path opacity='1' d="M89.9957 78.4652L21.4373 -40.2783" stroke="white" stroke-miterlimit="10"/>
<path opacity='1' d="M89.996 78.4649L11.3484 -33.8535" stroke="white" stroke-miterlimit="10"/>
<path opacity='1' d="M89.9957 78.4654L1.86414 -26.5723" stroke="white" stroke-miterlimit="10"/>
<path opacity='1' d="M89.9954 78.4654L-6.95807 -18.4844" stroke="white" stroke-miterlimit="10"/>
<path opacity='1' d="M89.9952 78.4655L-15.0377 -9.66992" stroke="white" stroke-miterlimit="10"/>
<path opacity='1' d="M89.9953 78.4653L-22.3181 -0.177734" stroke="white" stroke-miterlimit="10"/>
<path opacity='1' d="M89.9953 78.4655L-28.751 9.91211" stroke="white" stroke-miterlimit="10"/>
<path opacity='1' d="M89.9952 78.4656L-34.272 20.5186" stroke="white" stroke-miterlimit="10"/>
<path opacity='1' d="M89.9958 78.4652L-38.8478 31.5684" stroke="white" stroke-miterlimit="10"/>
<path opacity='1' d="M89.9956 78.4658L-42.4478 42.9824" stroke="white" stroke-miterlimit="10"/>
<path opacity='1' d="M89.9954 78.4657L-45.0309 54.6621" stroke="white" stroke-miterlimit="10"/>
<path opacity='1' d="M89.9957 78.4657L-46.5963 66.5195" stroke="white" stroke-miterlimit="10"/>
<path opacity='1' d="M89.9954 78.4658H-47.1213" stroke="white" stroke-miterlimit="10"/>
<path opacity='1' d="M89.9957 78.4658L-46.5963 90.4201" stroke="white" stroke-miterlimit="10"/>
<path opacity='1' d="M89.9954 78.4658L-45.0309 102.277" stroke="white" stroke-miterlimit="10"/>
<path opacity='1' d="M89.9956 78.4658L-42.4478 113.957" stroke="white" stroke-miterlimit="10"/>
<path opacity='1' d="M89.9958 78.4658L-38.8478 125.371" stroke="white" stroke-miterlimit="10"/>
<path opacity='1' d="M89.9952 78.4658L-34.272 136.421" stroke="white" stroke-miterlimit="10"/>
<path opacity='1' d="M89.9953 78.4658L-28.751 147.027" stroke="white" stroke-miterlimit="10"/>
<path opacity='1' d="M89.9953 78.4658L-22.3181 157.117" stroke="white" stroke-miterlimit="10"/>
<path opacity='1' d="M89.9952 78.4658L-15.0377 166.609" stroke="white" stroke-miterlimit="10"/>
<path opacity='1' d="M89.9954 78.4658L-6.95807 175.424" stroke="white" stroke-miterlimit="10"/>
<path opacity='1' d="M89.9957 78.4658L1.86414 183.512" stroke="white" stroke-miterlimit="10"/>
<path opacity='1' d="M89.996 78.4658L11.3484 190.792" stroke="white" stroke-miterlimit="10"/>
<path opacity='1' d="M89.9957 78.4658L21.4373 197.217" stroke="white" stroke-miterlimit="10"/>
<path opacity='1' d="M89.9949 78.4658L32.0504 202.738" stroke="white" stroke-miterlimit="10"/>
<path opacity='1' d="M89.9957 78.4658L43.101 207.315" stroke="white" stroke-miterlimit="10"/>
<path opacity='1' d="M89.9954 78.4658L54.5055 210.915" stroke="white" stroke-miterlimit="10"/>
<path opacity='1' d="M89.9956 78.4658L66.1851 213.506" stroke="white" stroke-miterlimit="10"/>
<path opacity='1' d="M89.9963 78.4658L78.042 215.064" stroke="white" stroke-miterlimit="10"/>
</g>
</svg>
