<svg width="181" height="180" viewBox="0 0 181 180" fill="none" xmlns="http://www.w3.org/2000/svg">
<path d="M180.892 0H0.899902V90C0.899902 138.6 39.6183 178.321 87.8287 179.943C88.8457 179.976 89.8708 180 90.8959 180C91.9209 180 92.9783 179.976 94.0195 179.943C141.431 178.321 179.657 139.843 180.868 92.3247C180.884 91.5498 180.9 90.783 180.9 90.0081V0.00806731L180.892 0ZM156.678 90C156.678 126.274 127.169 155.785 90.8959 155.785C54.6231 155.785 25.1141 126.274 25.1141 90V24.2152H156.678V90Z" fill="white"/>
<mask id="mask0_3126_6319" style="mask-type:luminance" maskUnits="userSpaceOnUse" x="0" y="0" width="181" height="180">
<path d="M0.899902 0H180.892V90C180.892 139.625 140.519 180 90.8959 180C41.273 180 0.899902 139.625 0.899902 90V0ZM156.678 24.2152H25.1141V90C25.1141 126.274 54.6231 155.785 90.8959 155.785C127.169 155.785 156.678 126.274 156.678 90V24.2152Z" fill="white"/>
</mask>
<g mask="url(#mask0_3126_6319)">
<path opacity="0.3" d="M90.895 78.4658V215.589" stroke="black" stroke-miterlimit="10"/>
<path opacity="0.3" d="M90.895 78.4658L102.841 215.064" stroke="black" stroke-miterlimit="10"/>
<path opacity="0.3" d="M90.895 78.4658L114.706 213.506" stroke="black" stroke-miterlimit="10"/>
<path opacity="0.3" d="M90.895 78.4658L126.385 210.915" stroke="black" stroke-miterlimit="10"/>
<path opacity="0.3" d="M90.895 78.4658L137.79 207.315" stroke="black" stroke-miterlimit="10"/>
<path opacity="0.3" d="M90.895 78.4658L148.839 202.738" stroke="black" stroke-miterlimit="10"/>
<path opacity="0.3" d="M90.895 78.4658L159.453 197.217" stroke="black" stroke-miterlimit="10"/>
<path opacity="0.3" d="M90.895 78.4658L169.543 190.792" stroke="black" stroke-miterlimit="10"/>
<path opacity="0.3" d="M90.895 78.4658L179.026 183.512" stroke="black" stroke-miterlimit="10"/>
<path opacity="0.3" d="M90.895 78.4658L187.849 175.424" stroke="black" stroke-miterlimit="10"/>
<path opacity="0.3" d="M90.895 78.4658L195.928 166.609" stroke="black" stroke-miterlimit="10"/>
<path opacity="0.3" d="M90.895 78.4658L203.208 157.117" stroke="black" stroke-miterlimit="10"/>
<path opacity="0.3" d="M90.895 78.4658L209.641 147.027" stroke="black" stroke-miterlimit="10"/>
<path opacity="0.3" d="M90.895 78.4658L215.162 136.421" stroke="black" stroke-miterlimit="10"/>
<path opacity="0.3" d="M90.895 78.4658L219.739 125.371" stroke="black" stroke-miterlimit="10"/>
<path opacity="0.3" d="M90.895 78.4658L223.338 113.957" stroke="black" stroke-miterlimit="10"/>
<path opacity="0.3" d="M90.895 78.4658L225.921 102.277" stroke="black" stroke-miterlimit="10"/>
<path opacity="0.3" d="M90.895 78.4658L227.487 90.4201" stroke="black" stroke-miterlimit="10"/>
<path opacity="0.3" d="M90.895 78.4658H228.004" stroke="black" stroke-miterlimit="10"/>
<path opacity="0.3" d="M90.895 78.4657L227.487 66.5195" stroke="black" stroke-miterlimit="10"/>
<path opacity="0.3" d="M90.895 78.4657L225.921 54.6621" stroke="black" stroke-miterlimit="10"/>
<path opacity="0.3" d="M90.895 78.4658L223.338 42.9824" stroke="black" stroke-miterlimit="10"/>
<path opacity="0.3" d="M90.895 78.4652L219.739 31.5684" stroke="black" stroke-miterlimit="10"/>
<path opacity="0.3" d="M90.895 78.4656L215.162 20.5186" stroke="black" stroke-miterlimit="10"/>
<path opacity="0.3" d="M90.895 78.4655L209.641 9.91211" stroke="black" stroke-miterlimit="10"/>
<path opacity="0.3" d="M90.895 78.4653L203.208 -0.177734" stroke="black" stroke-miterlimit="10"/>
<path opacity="0.3" d="M90.895 78.4655L195.928 -9.66992" stroke="black" stroke-miterlimit="10"/>
<path opacity="0.3" d="M90.895 78.4654L187.849 -18.4844" stroke="black" stroke-miterlimit="10"/>
<path opacity="0.3" d="M90.895 78.4654L179.026 -26.5723" stroke="black" stroke-miterlimit="10"/>
<path opacity="0.3" d="M90.895 78.4649L169.543 -33.8535" stroke="black" stroke-miterlimit="10"/>
<path opacity="0.3" d="M90.895 78.4652L159.453 -40.2783" stroke="black" stroke-miterlimit="10"/>
<path opacity="0.3" d="M90.895 78.4657L148.839 -45.7988" stroke="black" stroke-miterlimit="10"/>
<path opacity="0.3" d="M90.895 78.4655L137.79 -50.3838" stroke="black" stroke-miterlimit="10"/>
<path opacity="0.3" d="M90.895 78.4657L126.385 -53.9756" stroke="black" stroke-miterlimit="10"/>
<path opacity="0.3" d="M90.895 78.4659L114.706 -56.5664" stroke="black" stroke-miterlimit="10"/>
<path opacity="0.3" d="M90.895 78.4661L102.841 -58.124" stroke="black" stroke-miterlimit="10"/>
<path opacity="0.3" d="M90.895 78.4654V-58.6494" stroke="black" stroke-miterlimit="10"/>
<path opacity="0.3" d="M90.8962 78.4661L78.9419 -58.124" stroke="black" stroke-miterlimit="10"/>
<path opacity="0.3" d="M90.8956 78.4659L67.085 -56.5664" stroke="black" stroke-miterlimit="10"/>
<path opacity="0.3" d="M90.8953 78.4657L55.4054 -53.9756" stroke="black" stroke-miterlimit="10"/>
<path opacity="0.3" d="M90.8956 78.4655L44.0009 -50.3838" stroke="black" stroke-miterlimit="10"/>
<path opacity="0.3" d="M90.8948 78.4657L32.9503 -45.7988" stroke="black" stroke-miterlimit="10"/>
<path opacity="0.3" d="M90.8956 78.4652L22.3372 -40.2783" stroke="black" stroke-miterlimit="10"/>
<path opacity="0.3" d="M90.8959 78.4649L12.2483 -33.8535" stroke="black" stroke-miterlimit="10"/>
<path opacity="0.3" d="M90.8956 78.4654L2.76404 -26.5723" stroke="black" stroke-miterlimit="10"/>
<path opacity="0.3" d="M90.8954 78.4654L-6.05811 -18.4844" stroke="black" stroke-miterlimit="10"/>
<path opacity="0.3" d="M90.8951 78.4655L-14.1378 -9.66992" stroke="black" stroke-miterlimit="10"/>
<path opacity="0.3" d="M90.8953 78.4653L-21.4181 -0.177734" stroke="black" stroke-miterlimit="10"/>
<path opacity="0.3" d="M90.8952 78.4655L-27.8511 9.91211" stroke="black" stroke-miterlimit="10"/>
<path opacity="0.3" d="M90.8951 78.4656L-33.3721 20.5186" stroke="black" stroke-miterlimit="10"/>
<path opacity="0.3" d="M90.8957 78.4652L-37.9479 31.5684" stroke="black" stroke-miterlimit="10"/>
<path opacity="0.3" d="M90.8955 78.4658L-41.5479 42.9824" stroke="black" stroke-miterlimit="10"/>
<path opacity="0.3" d="M90.8953 78.4657L-44.131 54.6621" stroke="black" stroke-miterlimit="10"/>
<path opacity="0.3" d="M90.8956 78.4657L-45.6964 66.5195" stroke="black" stroke-miterlimit="10"/>
<path opacity="0.3" d="M90.8953 78.4658H-46.2214" stroke="black" stroke-miterlimit="10"/>
<path opacity="0.3" d="M90.8956 78.4658L-45.6964 90.4201" stroke="black" stroke-miterlimit="10"/>
<path opacity="0.3" d="M90.8953 78.4658L-44.131 102.277" stroke="black" stroke-miterlimit="10"/>
<path opacity="0.3" d="M90.8955 78.4658L-41.5479 113.957" stroke="black" stroke-miterlimit="10"/>
<path opacity="0.3" d="M90.8957 78.4658L-37.9479 125.371" stroke="black" stroke-miterlimit="10"/>
<path opacity="0.3" d="M90.8951 78.4658L-33.3721 136.421" stroke="black" stroke-miterlimit="10"/>
<path opacity="0.3" d="M90.8952 78.4658L-27.8511 147.027" stroke="black" stroke-miterlimit="10"/>
<path opacity="0.3" d="M90.8953 78.4658L-21.4181 157.117" stroke="black" stroke-miterlimit="10"/>
<path opacity="0.3" d="M90.8951 78.4658L-14.1378 166.609" stroke="black" stroke-miterlimit="10"/>
<path opacity="0.3" d="M90.8954 78.4658L-6.05811 175.424" stroke="black" stroke-miterlimit="10"/>
<path opacity="0.3" d="M90.8956 78.4658L2.76404 183.512" stroke="black" stroke-miterlimit="10"/>
<path opacity="0.3" d="M90.8959 78.4658L12.2483 190.792" stroke="black" stroke-miterlimit="10"/>
<path opacity="0.3" d="M90.8956 78.4658L22.3372 197.217" stroke="black" stroke-miterlimit="10"/>
<path opacity="0.3" d="M90.8948 78.4658L32.9503 202.738" stroke="black" stroke-miterlimit="10"/>
<path opacity="0.3" d="M90.8956 78.4658L44.0009 207.315" stroke="black" stroke-miterlimit="10"/>
<path opacity="0.3" d="M90.8953 78.4658L55.4054 210.915" stroke="black" stroke-miterlimit="10"/>
<path opacity="0.3" d="M90.8956 78.4658L67.085 213.506" stroke="black" stroke-miterlimit="10"/>
<path opacity="0.3" d="M90.8962 78.4658L78.9419 215.064" stroke="black" stroke-miterlimit="10"/>
</g>
</svg>
