<svg preserveAspectRatio="none" viewBox="0 0 180 180" fill="none" xmlns="http://www.w3.org/2000/svg"><path d="M179.992 0H0v90c0 48.6 38.718 88.321 86.929 89.943a94.65 94.65 0 0 0 3.067.057 99.5 99.5 0 0 0 3.124-.057c47.411-1.622 85.637-40.1 86.848-87.618.016-.775.032-1.542.032-2.317v-90L179.992 0Zm-24.214 90c0 36.274-29.509 65.785-65.782 65.785-36.273 0-65.782-29.511-65.782-65.785V24.215h131.564V90Z" fill="current"/><mask id="a" style="mask-type:luminance" maskUnits="userSpaceOnUse" x="0" y="0" width="180" height="180"><path d="M0 0h179.992v90c0 49.625-40.373 90-89.996 90S0 139.625 0 90V0Zm155.778 24.215H24.214V90c0 36.274 29.51 65.785 65.782 65.785 36.273 0 65.782-29.511 65.782-65.785V24.215Z" fill="current"/></mask><g mask="url(#a)" stroke="#fff" stroke-miterlimit="10"><path opacity=".5" d="M89.995 78.466v137.123M89.995 78.466l11.946 136.598M89.995 78.466l23.811 135.04M89.995 78.466l35.49 132.449M89.995 78.466l46.895 128.849M89.995 78.466l57.945 124.272M89.995 78.466l68.558 118.751M89.995 78.466l78.648 112.326M89.995 78.466l88.132 105.046M89.995 78.466l96.954 96.958M89.995 78.466l105.033 88.143M89.995 78.466l112.313 78.651M89.995 78.466l118.746 68.561M89.995 78.466l124.267 57.955M89.995 78.466 218.84 125.37M89.995 78.466l132.443 35.491M89.995 78.466l135.026 23.811M89.995 78.466 226.587 90.42M89.995 78.466h137.109M89.995 78.466l136.592-11.947M89.995 78.466l135.026-23.804M89.995 78.466l132.443-35.484M89.995 78.465 218.84 31.568M89.995 78.466l124.267-57.947M89.995 78.466 208.741 9.912M89.995 78.465 202.308-.178M89.995 78.466 195.028-9.67M89.995 78.465l96.954-96.95M89.995 78.465l88.132-105.037M89.995 78.465l78.648-112.319M89.995 78.465l68.558-118.743M89.995 78.466 147.94-45.8M89.995 78.466l46.895-128.85M89.995 78.466l35.49-132.442M89.995 78.466l23.811-135.032M89.995 78.466l11.946-136.59M89.995 78.465V-58.649M89.996 78.466 78.042-58.124M89.996 78.466 66.186-56.566M89.995 78.466 54.505-53.976M89.996 78.466 43.1-50.384M89.995 78.466 32.05-45.8M89.996 78.465 21.437-40.278M89.996 78.465 11.348-33.854M89.996 78.465 1.864-26.572M89.995 78.465l-96.953-96.95M89.995 78.466-15.038-9.67M89.995 78.465-22.318-.178M89.995 78.466-28.75 9.912M89.995 78.466-34.272 20.519M89.996 78.465-38.848 31.568M89.996 78.466-42.448 42.982M89.995 78.466-45.03 54.662M89.996 78.466-46.596 66.519M89.995 78.466H-47.12M89.996 78.466-46.596 90.42M89.995 78.466-45.03 102.277M89.996 78.466l-132.444 35.491M89.996 78.466-38.848 125.37M89.995 78.466-34.272 136.42M89.995 78.466-28.75 147.027M89.995 78.466l-112.313 78.651M89.995 78.466l-105.033 88.143M89.995 78.466l-96.953 96.958M89.996 78.466 1.864 183.512M89.996 78.466 11.348 190.792M89.996 78.466 21.437 197.217M89.995 78.466 32.05 202.738M89.996 78.466 43.1 207.315M89.995 78.466l-35.49 132.449M89.996 78.466l-23.81 135.04M89.996 78.466 78.042 215.064"/></g></svg>