<svg preserveAspectRatio="none" viewBox="0 0 180 180" fill="none" xmlns="http://www.w3.org/2000/svg"><path fill-rule="evenodd" clip-rule="evenodd" d="M180 0H0v180h180V0Zm-71.299 40.122c5.876 0 11.751-2.157 16.326-6.486l21.338 21.337c-4.155 4.409-6.486 10.45-6.486 16.326a23.8 23.8 0 0 0 6.073 15.882l-1.903 1.903c-9.293 9.293-9.293 24.351 0 33.644l2.308 2.307-21.33 21.329-2.307-2.307a23.772 23.772 0 0 0-33.636 0l-1.903 1.903c-4.511-4.052-10.006-6.074-15.882-6.074-5.875 0-11.75 2.157-16.326 6.486l-21.337-21.337c4.155-4.409 6.486-10.451 6.486-16.326a23.8 23.8 0 0 0-6.074-15.882l1.903-1.903c9.293-9.293 9.293-24.35 0-33.644l-2.307-2.307 21.33-21.33 2.307 2.308a23.703 23.703 0 0 0 16.817 6.97 23.716 23.716 0 0 0 16.818-6.97l1.903-1.903c4.512 4.052 10.007 6.074 15.882 6.074Z" fill="#fff"/><path d="m179.572 87.213-7.953-7.953-7.953-7.953L180 54.973 125.035.008l-16.334 16.334L92.795.436 74.098 19.133 54.973.008.008 54.973l19.125 19.125L.436 92.795 16.342 108.7.008 125.035 54.973 180l16.334-16.335 7.953 7.953 7.953 7.953 18.697-18.697L125.035 180 180 125.035l-19.125-19.125 18.697-18.697Zm-33.62-.024-1.903 1.903c-9.293 9.293-9.293 24.35 0 33.643l2.307 2.308-21.329 21.329-2.307-2.307a23.772 23.772 0 0 0-33.636 0l-1.903 1.903a23.71 23.71 0 0 0-15.882-6.074c-5.685 0-11.75 2.165-16.326 6.486l-21.337-21.337a23.787 23.787 0 0 0 6.486-16.327c0-6.073-2.173-11.528-6.074-15.882l1.903-1.903c9.293-9.293 9.293-24.35 0-33.643l-2.307-2.307 21.329-21.33 2.307 2.308a23.716 23.716 0 0 0 16.818 6.97c6.082 0 12.18-2.324 16.818-6.97l1.903-1.903a23.71 23.71 0 0 0 15.882 6.073c5.685 0 11.751-2.164 16.326-6.486l21.337 21.338a23.789 23.789 0 0 0-6.486 16.326c0 6.073 2.173 11.529 6.074 15.882Z" fill="current"/><mask id="a" style="mask-type:luminance" maskUnits="userSpaceOnUse" x="0" y="0" width="180" height="180"><path d="m125.027 33.636 21.337 21.337a23.789 23.789 0 0 0-6.486 16.326c0 6.074 2.173 11.529 6.074 15.882l-1.903 1.903c-9.293 9.293-9.293 24.35 0 33.643l2.307 2.308-21.329 21.329-2.307-2.307a23.772 23.772 0 0 0-33.636 0l-1.903 1.903a23.71 23.71 0 0 0-15.882-6.074c-5.685 0-11.75 2.165-16.326 6.486l-21.337-21.337a23.787 23.787 0 0 0 6.486-16.326c0-6.074-2.173-11.53-6.074-15.882l1.903-1.903c9.293-9.293 9.293-24.35 0-33.644l-2.307-2.307 21.329-21.33 2.307 2.308a23.716 23.716 0 0 0 16.818 6.97c6.082 0 12.18-2.324 16.818-6.97l1.903-1.903A23.71 23.71 0 0 0 108.7 40.12c5.685 0 11.751-2.164 16.326-6.486ZM125.035 0l-16.334 16.334L92.795.428 74.098 19.125 54.973 0 .008 54.965 19.133 74.09.436 92.787l15.906 15.906L.008 125.027l54.965 54.965 16.334-16.334 15.906 15.906 18.697-18.697 19.125 19.125L180 125.027l-19.125-19.125 18.697-18.697-15.906-15.906L180 54.965 125.035 0Z" fill="current"/></mask><g mask="url(#a)" stroke="#fff" stroke-miterlimit="10"><path opacity=".5" d="M90.987 90.004v-134.7M90.988 90.004 79.245-44.18M90.988 90.004 67.597-42.65M90.988 90.004 56.124-40.106M90.988 90.004 44.919-36.57M90.988 90.004 34.064-32.073M90.988 90.003 23.638-26.65M90.988 90.004 13.726-20.338M90.988 90.004 4.409-13.178M90.987 90.004-4.258-5.241M90.987 90.003-12.195 3.417M90.988 90.005-19.347 12.743M90.988 90.004l-116.654-67.35M90.987 90.004-31.09 33.074M90.988 90.005-35.585 43.937M90.988 90.005l-130.11-34.864M90.987 90.004-41.66 66.614M90.988 90.005-43.198 78.262M90.987 90.004h-134.7M90.988 90.004l-134.186 11.735M90.987 90.004-41.66 113.395M90.988 90.004l-130.11 34.856M90.988 90.004l-126.573 46.068M90.987 90.004-31.09 146.927M90.988 90.004l-116.654 67.342M90.988 90.004l-110.335 77.254M90.987 90.004l-103.182 86.578M90.987 90.004l-95.245 95.245M90.988 90.004 4.409 193.186M90.988 90.004 13.726 200.338M90.988 90.004 23.638 206.65M90.988 90.004 34.064 212.08M90.988 90.004 44.919 216.577M90.988 90.004 56.124 220.105M90.988 90.004 67.597 222.65M90.988 90.004 79.245 224.18M90.987 90.004v134.692M90.987 90.004l11.736 134.177M90.987 90.004l23.391 132.647M90.987 90.004l34.865 130.101M90.987 90.004l46.069 126.573M90.987 90.004l56.924 122.077M90.987 90.004l67.351 116.646M90.987 90.004l77.262 110.334M90.987 90.004l86.579 103.182M90.987 90.004l95.245 95.245M90.987 90.004l103.182 86.578M90.987 90.004l110.335 77.254M90.987 90.004l116.646 67.342M90.987 90.004l122.078 56.923M90.987 90.004l126.574 46.068M90.987 90.004l130.11 34.856M90.987 90.004l132.647 23.391M90.987 90.004l134.186 11.735M90.987 90.004H225.68M90.987 90.005l134.186-11.743M90.987 90.004l132.647-23.39M90.987 90.005l130.11-34.864M90.987 90.005l126.574-46.068M90.987 90.004l122.078-56.93M90.987 90.004l116.646-67.35M90.987 90.005l110.335-77.262M90.987 90.003 194.17 3.417M90.987 90.004l95.245-95.245M90.987 90.004l86.579-103.182M90.987 90.004 168.25-20.338M90.987 90.003 158.338-26.65M90.987 90.004l56.924-122.077M90.987 90.004 137.056-36.57M90.987 90.004l34.865-130.11M90.987 90.004 114.378-42.65M90.987 90.004 102.723-44.18"/></g><path d="m87.213 179.572-7.953-7.953 7.953 7.953ZM.436 92.795l18.69-18.697L.435 92.795 16.334 108.7 0 125.035 16.334 108.7.436 92.795Z" fill="#0E0E0E"/><path d="m54.973 180 16.334-16.334 7.953 7.953-7.953-7.953L54.973 180ZM87.213 179.572l18.697-18.697L125.035 180l-19.125-19.125-18.697 18.697ZM0 125.035 54.973 180 0 125.035Z" fill="#fff"/></svg>