<svg width="181" height="180" viewBox="0 0 181 180" fill="none" xmlns="http://www.w3.org/2000/svg">
<path d="M67.2385 179.863C67.5532 179.83 67.8761 179.798 68.1908 179.758C68.4168 179.726 68.6429 179.693 68.8689 179.653C69.1837 179.604 69.4903 179.548 69.8051 179.483C70.0311 179.435 70.2572 179.387 70.4832 179.338C70.798 179.266 71.1127 179.185 71.4194 179.096C71.6374 179.031 71.8553 178.975 72.0813 178.91C72.4042 178.814 72.727 178.701 73.0418 178.588C73.2517 178.515 73.4535 178.45 73.6633 178.37C74.0104 178.232 74.3575 178.087 74.7046 177.934C74.8741 177.861 75.0516 177.788 75.2291 177.708C75.7377 177.474 76.2382 177.223 76.7386 176.949C76.7386 176.949 76.7548 176.949 76.7628 176.941C76.8032 176.917 76.8354 176.901 76.8758 176.884C77.3601 176.626 77.8444 176.376 78.3367 176.142C78.5224 176.053 78.7161 175.98 78.9098 175.892C79.2569 175.738 79.5959 175.585 79.943 175.448C80.1609 175.359 80.387 175.286 80.613 175.206C80.9358 175.085 81.2586 174.963 81.5815 174.859C81.8156 174.786 82.0576 174.721 82.2998 174.649C82.6146 174.56 82.9295 174.463 83.2443 174.382C83.4945 174.318 83.7446 174.269 83.9949 174.213C84.3016 174.14 84.6163 174.068 84.923 174.011C85.1813 173.963 85.4397 173.93 85.698 173.89C86.0047 173.842 86.3114 173.785 86.6262 173.745C86.8925 173.712 87.1508 173.688 87.4172 173.664C87.7239 173.632 88.0305 173.599 88.3372 173.583C88.6036 173.567 88.878 173.559 89.1444 173.551C89.4511 173.543 89.7579 173.527 90.0646 173.527C90.1131 173.527 90.1614 173.527 90.2099 173.527C90.4601 173.527 90.7103 173.543 90.9685 173.551C91.2268 173.551 91.4934 173.559 91.7516 173.575C92.0584 173.591 92.365 173.624 92.6717 173.648C92.93 173.672 93.1883 173.688 93.4465 173.712C93.7613 173.745 94.0682 173.793 94.383 173.833C94.6412 173.866 94.8914 173.898 95.1497 173.938C95.4645 173.987 95.7873 174.059 96.1021 174.116C96.3523 174.164 96.5944 174.205 96.8446 174.261C97.1755 174.334 97.4984 174.423 97.8212 174.503C98.0553 174.56 98.2975 174.616 98.5316 174.681C98.8706 174.778 99.2096 174.883 99.5486 174.988C99.7666 175.052 99.9845 175.117 100.202 175.189C100.574 175.311 100.945 175.456 101.316 175.593C101.502 175.658 101.679 175.722 101.865 175.795C102.414 176.013 102.963 176.239 103.512 176.489C104.141 176.771 104.763 177.03 105.384 177.272C105.594 177.353 105.804 177.425 106.014 177.498C106.426 177.651 106.837 177.805 107.249 177.942C107.499 178.023 107.741 178.095 107.991 178.168C108.363 178.281 108.734 178.394 109.097 178.499C109.356 178.571 109.614 178.628 109.88 178.692C110.227 178.781 110.582 178.87 110.929 178.943C111.196 178.999 111.462 179.048 111.729 179.096C112.068 179.161 112.407 179.225 112.746 179.274C113.012 179.314 113.278 179.354 113.545 179.387C113.876 179.427 114.206 179.467 114.537 179.5C114.804 179.524 115.062 179.548 115.328 179.564C115.651 179.588 115.982 179.605 116.305 179.621C116.563 179.629 116.822 179.637 117.08 179.645C117.451 179.645 117.814 179.645 118.186 179.645C118.339 179.645 118.492 179.645 118.646 179.637C119.178 179.613 119.703 179.58 120.22 179.532C120.276 179.532 120.325 179.516 120.381 179.516C120.849 179.467 121.309 179.403 121.769 179.33C121.931 179.306 122.084 179.274 122.246 179.249C122.609 179.185 122.972 179.112 123.335 179.031C123.489 178.999 123.642 178.967 123.795 178.926C124.239 178.822 124.675 178.7 125.103 178.571C125.151 178.555 125.208 178.547 125.256 178.531C125.741 178.386 126.209 178.216 126.677 178.047C126.806 177.998 126.935 177.942 127.064 177.893C127.411 177.756 127.75 177.619 128.081 177.466C128.227 177.401 128.364 177.336 128.509 177.272C128.864 177.102 129.211 176.925 129.558 176.739C129.655 176.691 129.744 176.642 129.841 176.594C130.277 176.352 130.696 176.102 131.116 175.835C131.213 175.779 131.302 175.714 131.391 175.65C131.713 175.44 132.028 175.222 132.343 174.988C132.464 174.899 132.593 174.802 132.714 174.713C133.013 174.487 133.304 174.253 133.586 174.019C133.691 173.938 133.788 173.85 133.893 173.769C134.272 173.446 134.635 173.107 134.99 172.76C135.039 172.72 135.079 172.671 135.12 172.623C135.426 172.316 135.733 171.993 136.024 171.67C136.129 171.557 136.225 171.444 136.322 171.323C136.564 171.041 136.798 170.758 137.033 170.468C137.129 170.347 137.218 170.234 137.307 170.113C137.606 169.725 137.888 169.33 138.163 168.918C138.171 168.902 138.187 168.886 138.203 168.87C138.493 168.442 138.76 167.998 139.026 167.546C139.099 167.417 139.171 167.288 139.244 167.158C139.438 166.819 139.615 166.48 139.793 166.133C139.866 165.988 139.946 165.835 140.019 165.689C140.205 165.302 140.39 164.898 140.56 164.495C140.6 164.398 140.649 164.309 140.689 164.212C140.899 163.712 141.092 163.203 141.27 162.679C141.318 162.55 141.359 162.412 141.399 162.283C141.537 161.88 141.658 161.476 141.779 161.065C141.827 160.895 141.875 160.717 141.924 160.54C142.037 160.128 142.134 159.709 142.231 159.289C142.263 159.135 142.303 158.99 142.336 158.837C142.457 158.272 142.561 157.691 142.658 157.11C142.674 157.005 142.683 156.9 142.699 156.795C142.771 156.302 142.836 155.81 142.884 155.31C142.909 155.116 142.925 154.922 142.941 154.728C142.981 154.285 143.013 153.841 143.038 153.389C143.046 153.203 143.062 153.009 143.07 152.824C143.094 152.194 143.11 151.556 143.102 150.903C143.102 150.499 143.102 150.12 143.11 149.757C143.11 149.644 143.127 149.547 143.127 149.434C143.135 149.192 143.151 148.941 143.167 148.715C143.175 148.578 143.199 148.457 143.215 148.32C143.24 148.134 143.256 147.949 143.28 147.779C143.304 147.642 143.328 147.513 143.361 147.384C143.393 147.238 143.417 147.077 143.449 146.94C143.482 146.81 143.522 146.706 143.554 146.584C143.595 146.455 143.627 146.318 143.675 146.189C143.716 146.076 143.764 145.979 143.813 145.874C143.861 145.761 143.91 145.64 143.966 145.527C144.014 145.43 144.079 145.341 144.135 145.245C144.192 145.148 144.248 145.043 144.321 144.946C144.386 144.857 144.458 144.785 144.523 144.704C144.596 144.615 144.66 144.526 144.741 144.446C144.813 144.373 144.902 144.308 144.983 144.236C145.064 144.163 145.144 144.09 145.241 144.018C145.33 143.953 145.427 143.905 145.516 143.848C145.613 143.792 145.709 143.727 145.814 143.671C145.911 143.622 146.024 143.574 146.129 143.525C146.242 143.477 146.347 143.429 146.468 143.38C146.581 143.34 146.71 143.307 146.823 143.267C146.952 143.227 147.074 143.186 147.203 143.154C147.332 143.122 147.469 143.098 147.598 143.073C147.743 143.041 147.881 143.017 148.026 142.993C148.163 142.968 148.316 142.952 148.47 142.936C148.631 142.92 148.785 142.896 148.946 142.88C149.099 142.864 149.269 142.855 149.43 142.847C149.608 142.839 149.777 142.823 149.955 142.815C150.124 142.815 150.31 142.815 150.496 142.807C150.657 142.807 150.811 142.799 150.98 142.799C151.037 142.799 151.093 142.799 151.15 142.799C151.529 142.799 151.892 142.783 152.264 142.775C152.586 142.767 152.917 142.767 153.24 142.751C153.579 142.734 153.902 142.702 154.233 142.67C154.548 142.646 154.871 142.621 155.177 142.589C155.508 142.557 155.831 142.5 156.154 142.46C156.452 142.42 156.759 142.379 157.058 142.331C157.381 142.274 157.704 142.21 158.018 142.145C158.309 142.089 158.6 142.04 158.882 141.976C159.205 141.903 159.512 141.814 159.826 141.734C160.101 141.661 160.375 141.596 160.642 141.516C160.956 141.427 161.263 141.314 161.57 141.217C161.828 141.136 162.087 141.056 162.337 140.967C162.652 140.854 162.95 140.725 163.257 140.604C163.491 140.507 163.741 140.418 163.967 140.321C164.274 140.192 164.572 140.039 164.871 139.901C165.089 139.796 165.315 139.7 165.533 139.595C165.832 139.441 166.13 139.272 166.421 139.11C166.623 138.997 166.832 138.892 167.034 138.779C167.333 138.61 167.615 138.416 167.898 138.239C168.084 138.118 168.277 138.005 168.455 137.884C168.745 137.69 169.02 137.48 169.294 137.278C169.464 137.157 169.641 137.036 169.803 136.907C170.085 136.689 170.352 136.463 170.618 136.237C170.771 136.108 170.933 135.987 171.078 135.858C171.344 135.624 171.603 135.373 171.861 135.123C171.998 134.994 172.136 134.873 172.273 134.736C172.531 134.477 172.781 134.203 173.023 133.937C173.144 133.807 173.265 133.686 173.387 133.549C173.637 133.267 173.871 132.976 174.105 132.686C174.21 132.556 174.323 132.435 174.42 132.298C174.654 131.991 174.872 131.685 175.09 131.37C175.178 131.241 175.275 131.12 175.364 130.991C175.582 130.668 175.784 130.337 175.986 130.006C176.066 129.877 176.147 129.748 176.228 129.618C176.421 129.279 176.607 128.932 176.785 128.585C176.857 128.456 176.93 128.327 176.994 128.19C177.172 127.835 177.334 127.471 177.487 127.116C177.543 126.979 177.616 126.85 177.673 126.713C177.826 126.341 177.963 125.97 178.1 125.591C178.149 125.454 178.205 125.324 178.254 125.187C178.383 124.8 178.504 124.412 178.617 124.017C178.657 123.88 178.706 123.751 178.738 123.621C178.843 123.226 178.94 122.822 179.028 122.427C179.061 122.29 179.101 122.152 179.125 122.015C179.206 121.62 179.271 121.208 179.335 120.804C179.36 120.659 179.392 120.514 179.408 120.369C179.464 119.965 179.505 119.561 179.537 119.15C179.553 118.996 179.577 118.843 179.585 118.682C179.618 118.278 179.626 117.866 179.642 117.455C179.642 117.293 179.658 117.132 179.666 116.971C179.666 116.559 179.658 116.139 179.642 115.728C179.642 115.558 179.642 115.397 179.634 115.227C179.61 114.815 179.569 114.396 179.537 113.976C179.521 113.807 179.513 113.637 179.497 113.459C179.448 113.04 179.384 112.612 179.319 112.192C179.295 112.015 179.279 111.845 179.246 111.676C179.174 111.264 179.085 110.844 178.988 110.425C178.948 110.239 178.916 110.053 178.875 109.86C178.77 109.424 178.649 108.988 178.528 108.552C178.48 108.383 178.439 108.213 178.391 108.036C178.254 107.567 178.084 107.091 177.923 106.615C177.874 106.478 177.834 106.341 177.785 106.195C177.559 105.582 177.317 104.968 177.059 104.355C176.01 101.909 175.186 99.4879 174.613 97.0907C174.347 95.9769 174.137 94.863 173.984 93.7492C173.968 93.6039 173.943 93.4667 173.927 93.3214C173.79 92.2156 173.709 91.1179 173.693 90.0202C173.693 89.996 173.693 89.9718 173.693 89.9475C173.637 85.2258 174.751 80.5686 177.333 75.9437C177.608 75.4594 177.858 74.967 178.084 74.4585C178.157 74.2971 178.221 74.1276 178.294 73.9662C178.439 73.6191 178.593 73.2801 178.73 72.9331C178.811 72.7313 178.867 72.5214 178.94 72.3116C179.045 71.9968 179.158 71.682 179.255 71.3672C179.319 71.1412 179.376 70.9152 179.432 70.6892C179.513 70.3825 179.602 70.0758 179.666 69.7691C179.723 69.535 179.755 69.2929 179.803 69.0507C179.86 68.7521 179.924 68.4454 179.973 68.1467C180.013 67.8965 180.037 67.6463 180.07 67.3961C180.11 67.0974 180.15 66.7988 180.175 66.5002C180.199 66.2419 180.207 65.9917 180.223 65.7334C180.239 65.4347 180.263 65.1361 180.263 64.8375C180.263 64.5792 180.263 64.3209 180.263 64.0626C180.263 63.764 180.263 63.4653 180.247 63.1747C180.239 62.9165 180.215 62.6501 180.199 62.3918C180.175 62.1013 180.159 61.8026 180.126 61.512C180.102 61.2457 180.062 60.9874 180.029 60.721C179.989 60.4305 179.957 60.1399 179.908 59.8493C179.868 59.583 179.811 59.3247 179.763 59.0583C179.706 58.7678 179.65 58.4772 179.585 58.1947C179.529 57.9283 179.456 57.6701 179.392 57.4118C179.319 57.1293 179.246 56.8387 179.166 56.5562C179.093 56.2979 179.004 56.0396 178.924 55.7814C178.835 55.4989 178.746 55.2244 178.649 54.9419C178.56 54.6836 178.455 54.4334 178.358 54.1751C178.254 53.9007 178.149 53.6263 178.028 53.3519C177.923 53.1016 177.81 52.8514 177.697 52.6012C177.576 52.3349 177.455 52.0685 177.317 51.8022C177.196 51.5519 177.067 51.3098 176.938 51.0677C176.801 50.8094 176.656 50.5511 176.51 50.2928C176.373 50.0507 176.228 49.8166 176.091 49.5825C175.937 49.3323 175.776 49.0821 175.614 48.8319C175.461 48.5978 175.307 48.3718 175.146 48.1458C174.977 47.9037 174.799 47.6615 174.621 47.4194C174.452 47.1934 174.282 46.9755 174.113 46.7575C173.927 46.5235 173.742 46.2975 173.548 46.0715C173.37 45.8616 173.185 45.6518 172.999 45.4419C172.797 45.224 172.596 45.006 172.386 44.7881C172.192 44.5863 171.99 44.3846 171.796 44.1908C171.579 43.981 171.361 43.7792 171.143 43.5774C170.933 43.3918 170.723 43.1981 170.513 43.0205C170.287 42.8268 170.045 42.6331 169.811 42.4474C169.593 42.2698 169.367 42.1004 169.141 41.9309C168.899 41.7533 168.649 41.5757 168.398 41.3981C168.164 41.2367 167.93 41.0753 167.688 40.9219C167.43 40.7524 167.163 40.5991 166.897 40.4376C166.647 40.2924 166.405 40.1471 166.146 40.0099C165.872 39.8565 165.598 39.7193 165.315 39.5821C165.057 39.4529 164.798 39.3238 164.532 39.2027C164.242 39.0736 163.951 38.9444 163.652 38.8234C163.386 38.7104 163.111 38.5974 162.837 38.4924C162.538 38.3794 162.224 38.2745 161.917 38.1696C161.634 38.0727 161.352 37.9759 161.069 37.8952C160.755 37.7983 160.432 37.7176 160.109 37.6369C159.818 37.5642 159.528 37.4835 159.229 37.4189C158.898 37.3463 158.559 37.2898 158.22 37.2252C157.913 37.1687 157.615 37.1122 157.308 37.0638C156.961 37.0154 156.614 36.975 156.259 36.9427C155.944 36.9104 155.637 36.8701 155.315 36.8459C154.951 36.8217 154.588 36.8055 154.217 36.7974C153.894 36.7813 153.579 36.7652 153.256 36.7652C152.611 36.7652 151.949 36.7652 151.279 36.8136C151.004 36.8297 150.738 36.8378 150.48 36.8459C150.399 36.8459 150.318 36.8459 150.238 36.8459C150.068 36.8459 149.898 36.8459 149.737 36.8459C149.713 36.8459 149.689 36.8459 149.665 36.8459C149.632 36.8459 149.608 36.8459 149.584 36.8459C149.204 36.8459 148.833 36.8378 148.494 36.8136C148.478 36.8136 148.462 36.8136 148.446 36.8136C148.107 36.7894 147.784 36.7571 147.485 36.7167C147.469 36.7167 147.453 36.7167 147.437 36.7167C147.146 36.6764 146.872 36.6199 146.613 36.5553C146.581 36.5553 146.549 36.5392 146.525 36.5311C146.282 36.4665 146.056 36.3939 145.847 36.3132C145.814 36.297 145.782 36.289 145.75 36.2728C145.548 36.1921 145.362 36.1033 145.193 36.0065C145.161 35.9903 145.136 35.9742 145.104 35.95C144.935 35.845 144.781 35.7401 144.644 35.619C144.62 35.6029 144.596 35.5787 144.571 35.5545C144.434 35.4334 144.305 35.3042 144.192 35.167C144.176 35.1428 144.16 35.1267 144.144 35.1025C144.031 34.9572 143.926 34.8038 143.837 34.6424C143.829 34.6262 143.821 34.6101 143.813 34.594C143.724 34.4245 143.643 34.2469 143.571 34.0612C143.571 34.0612 143.571 34.0451 143.562 34.037C143.49 33.8433 143.433 33.6415 143.377 33.4397C143.377 33.4155 143.361 33.3913 143.361 33.3671C143.312 33.1653 143.272 32.9474 143.239 32.7295C143.239 32.6972 143.231 32.6649 143.223 32.6245C143.191 32.4066 143.167 32.1806 143.151 31.9385C143.151 31.8981 143.151 31.8578 143.143 31.8174C143.127 31.5833 143.11 31.3331 143.102 31.0829C143.102 31.0425 143.102 30.9941 143.102 30.9538C143.094 30.6955 143.086 30.4291 143.086 30.1547C143.086 30.1143 143.086 30.074 143.086 30.0336C143.086 29.7511 143.086 29.4525 143.086 29.1538C143.086 29.1296 143.086 29.0973 143.086 29.0651C143.086 28.7503 143.094 28.4274 143.102 28.0884C143.102 27.5557 143.102 27.023 143.078 26.4984C143.078 26.3289 143.054 26.1594 143.046 25.9979C143.022 25.6428 142.997 25.2796 142.965 24.9244C142.949 24.7307 142.925 24.537 142.901 24.3433C142.86 24.0124 142.82 23.6895 142.771 23.3586C142.739 23.1649 142.715 22.9712 142.683 22.7774C142.626 22.4465 142.562 22.1156 142.489 21.7847C142.449 21.6152 142.416 21.4376 142.376 21.2681C142.287 20.8645 142.182 20.461 142.069 20.0655C142.045 19.9767 142.021 19.8879 141.997 19.791C141.859 19.3068 141.706 18.8305 141.545 18.3624C141.496 18.2171 141.44 18.0718 141.383 17.9185C141.262 17.5956 141.149 17.2728 141.02 16.958C140.947 16.7804 140.875 16.6028 140.794 16.4253C140.673 16.1428 140.544 15.8603 140.414 15.5778C140.334 15.4002 140.245 15.2226 140.156 15.0451C140.019 14.7706 139.882 14.4962 139.737 14.2299C139.648 14.0604 139.559 13.8909 139.47 13.7294C139.301 13.4308 139.123 13.1321 138.946 12.8416C138.873 12.7124 138.792 12.5833 138.72 12.4622C138.461 12.0586 138.203 11.6632 137.929 11.2677C137.84 11.1466 137.751 11.0255 137.662 10.9044C137.468 10.63 137.267 10.3637 137.057 10.0973C136.936 9.94394 136.815 9.79866 136.694 9.6453C136.508 9.41931 136.322 9.19331 136.137 8.97538C136.008 8.82202 135.87 8.66867 135.733 8.52338C135.539 8.31353 135.346 8.10367 135.152 7.90188C135.015 7.7566 134.878 7.61131 134.732 7.4741C134.514 7.25617 134.296 7.05439 134.07 6.84453C133.941 6.72346 133.82 6.60239 133.691 6.48939C133.344 6.18268 132.997 5.87596 132.634 5.59347C132.537 5.51275 132.432 5.44011 132.335 5.3594C132.06 5.14954 131.786 4.93161 131.512 4.72983C131.358 4.61683 131.205 4.5119 131.052 4.40698C130.818 4.24555 130.583 4.08412 130.341 3.93076C130.172 3.82583 130.002 3.72091 129.833 3.61598C129.599 3.47069 129.357 3.33348 129.114 3.19627C128.945 3.09941 128.767 3.00255 128.598 2.9057C128.34 2.76848 128.081 2.63934 127.823 2.5102C127.662 2.42948 127.508 2.34877 127.347 2.27613C126.984 2.10663 126.612 1.9452 126.241 1.79184C126.152 1.75149 126.055 1.7192 125.967 1.67884C125.571 1.52549 125.168 1.37213 124.764 1.24299C124.602 1.18649 124.441 1.14614 124.28 1.08964C123.989 1.00085 123.707 0.912066 123.416 0.831352C123.238 0.782924 123.053 0.734491 122.875 0.694134C122.593 0.621491 122.318 0.556922 122.036 0.500422C121.85 0.460065 121.673 0.42778 121.487 0.387423C121.188 0.330923 120.898 0.290566 120.599 0.242138C120.43 0.217924 120.26 0.193713 120.091 0.169498C119.719 0.12107 119.34 0.0887806 118.961 0.0645664C118.864 0.0645664 118.775 0.0484246 118.678 0.0403532C118.202 0.0161391 117.726 0 117.241 0C117.169 0 117.096 0 117.015 0C116.612 0 116.2 0.0242122 115.796 0.0484264C115.708 0.0484264 115.619 0.056495 115.538 0.0645664C115.086 0.104923 114.626 0.153354 114.174 0.217925C114.085 0.234068 113.989 0.250213 113.9 0.258284C113.48 0.322855 113.052 0.395492 112.632 0.492349C112.576 0.508492 112.519 0.516564 112.463 0.524635C112.003 0.621492 111.543 0.742563 111.083 0.871705C110.978 0.903991 110.873 0.936277 110.768 0.960491C110.3 1.0977 109.832 1.25106 109.363 1.42056C109.307 1.44477 109.251 1.46092 109.186 1.47706C108.435 1.75149 107.685 2.00977 106.942 2.25191C106.611 2.35684 106.288 2.44563 105.965 2.54248C105.497 2.68777 105.029 2.83306 104.561 2.9622C104.198 3.06713 103.834 3.14784 103.471 3.23662C103.052 3.34155 102.624 3.46262 102.204 3.55948C101.833 3.64826 101.47 3.71284 101.106 3.79355C100.695 3.88233 100.283 3.97112 99.8714 4.05183C99.492 4.12448 99.1208 4.17291 98.7496 4.23748C98.3541 4.30205 97.9586 4.37469 97.5631 4.43119C97.1918 4.47962 96.8285 4.51997 96.4572 4.56033C96.0617 4.60876 95.6581 4.65719 95.2626 4.69755C94.9075 4.72983 94.5523 4.74597 94.1971 4.77019C93.7855 4.80247 93.3821 4.83476 92.9704 4.8509C92.6153 4.86704 92.2682 4.86704 91.913 4.87511C91.5175 4.88318 91.1221 4.89933 90.7346 4.89933C90.7185 4.89933 90.7023 4.89933 90.6862 4.89933C90.2907 4.89933 89.8871 4.88318 89.4916 4.87511C89.1284 4.86704 88.757 4.86704 88.3938 4.8509C87.9983 4.83476 87.6109 4.7944 87.2154 4.77019C86.8441 4.74597 86.4729 4.72983 86.0935 4.68947C85.7061 4.65719 85.3104 4.60069 84.923 4.56033C84.5436 4.51997 84.1644 4.47962 83.785 4.43119C83.3976 4.38276 83.0102 4.31012 82.6147 4.25362C82.2272 4.19712 81.8479 4.14062 81.4605 4.07605C81.0569 4.0034 80.6614 3.91462 80.2579 3.84198C79.8785 3.76933 79.5071 3.69669 79.1277 3.61598C78.7161 3.52719 78.2963 3.42226 77.8766 3.31733C77.5053 3.22855 77.1341 3.14784 76.7628 3.05098C76.2947 2.92991 75.8266 2.7927 75.3584 2.66355C75.0275 2.57477 74.7047 2.49405 74.3818 2.3972C73.7522 2.21155 73.1145 2.00977 72.4849 1.80799C72.3073 1.75149 72.1379 1.70306 71.9684 1.64656C71.4115 1.46899 70.8626 1.30756 70.3137 1.17035C70.2169 1.14613 70.1199 1.12192 70.0231 1.0977C69.4984 0.968561 68.9738 0.855561 68.4492 0.750633C68.3443 0.726419 68.2394 0.710276 68.1345 0.694134C67.6018 0.597277 67.077 0.516569 66.5523 0.460069C66.4958 0.460069 66.4474 0.451994 66.399 0.443923C65.8905 0.387423 65.3902 0.347065 64.8897 0.322851C64.809 0.322851 64.7363 0.314782 64.6556 0.30671C64.1713 0.282496 63.6789 0.282497 63.2027 0.282497C62.9929 0.282497 62.7911 0.290566 62.5893 0.298637C62.2503 0.306709 61.9032 0.330923 61.5642 0.355137C61.3624 0.37128 61.1525 0.387422 60.9507 0.411636C60.6037 0.443922 60.2647 0.492353 59.9256 0.540781C59.74 0.564996 59.5463 0.589209 59.3607 0.621494C58.9813 0.686065 58.602 0.758705 58.2308 0.839419C58.0935 0.871704 57.9482 0.895919 57.811 0.928205C57.2944 1.04928 56.7858 1.17842 56.2773 1.33177C56.237 1.34792 56.1967 1.36406 56.1483 1.37213C55.6882 1.50935 55.2443 1.6627 54.7923 1.82413C54.6389 1.88063 54.4936 1.93713 54.3483 1.99363C54.0093 2.12277 53.6703 2.25998 53.3394 2.40527C53.1699 2.47791 53.0084 2.55863 52.8469 2.63127C52.5322 2.77655 52.2255 2.92991 51.9188 3.08327C51.7574 3.16398 51.5959 3.25277 51.4344 3.34155C51.1277 3.51105 50.8211 3.68862 50.5144 3.86619C50.3691 3.95497 50.2318 4.03569 50.0866 4.12447C49.7314 4.3424 49.3924 4.57648 49.0453 4.81055C48.9646 4.86705 48.8758 4.92354 48.795 4.98004C48.3673 5.28676 47.9477 5.60154 47.536 5.93247C47.4795 5.97283 47.431 6.02125 47.3745 6.06968C47.0274 6.35218 46.6886 6.64275 46.3576 6.94139C46.2366 7.04632 46.1234 7.15932 46.0104 7.26425C45.7441 7.51446 45.4858 7.76467 45.2356 8.02295C45.1064 8.1521 44.9854 8.28124 44.8643 8.41845C44.6303 8.66866 44.3961 8.92695 44.162 9.19331C44.0409 9.33052 43.928 9.46773 43.8069 9.60495C43.5728 9.87937 43.347 10.1699 43.129 10.4524C43.0322 10.5816 42.9272 10.7107 42.8303 10.8399C42.5639 11.195 42.3057 11.5663 42.0555 11.9376C42.0151 12.0021 41.9666 12.0667 41.9262 12.1313C41.6356 12.5752 41.3533 13.0353 41.0869 13.4954C41.0304 13.5922 40.9738 13.6971 40.9253 13.794C40.7236 14.1572 40.5218 14.5204 40.3361 14.8917C40.2554 15.0531 40.183 15.2146 40.1022 15.376C39.9489 15.6988 39.7955 16.0217 39.6502 16.3526C39.5695 16.5302 39.4968 16.7158 39.4242 16.8934C39.295 17.2163 39.1659 17.5472 39.0448 17.8781C38.9803 18.0638 38.9076 18.2494 38.843 18.435C38.722 18.7821 38.6088 19.1373 38.5039 19.5005C38.4555 19.67 38.399 19.8395 38.3506 20.009C38.2214 20.4771 38.1004 20.9533 37.9874 21.4295C37.9713 21.4941 37.9551 21.5506 37.9389 21.6152C37.8179 22.156 37.713 22.7048 37.6242 23.2617C37.6 23.4232 37.5838 23.5846 37.5596 23.7379C37.5031 24.1334 37.4466 24.537 37.4063 24.9325C37.3821 25.1424 37.3659 25.3442 37.3497 25.554C37.3175 25.9172 37.2934 26.2804 37.2772 26.6517C37.2691 26.8777 37.2611 27.0956 37.253 27.3216C37.2449 27.6849 37.2449 28.0561 37.253 28.4194C37.253 28.6373 37.253 28.8633 37.2611 29.0812C37.2772 29.4767 37.3013 29.8803 37.3255 30.2838C37.3416 30.4776 37.3498 30.6632 37.3659 30.8569C37.4224 31.4542 37.487 32.0515 37.5758 32.6488C37.7695 33.9321 38.4879 35.1912 38.4718 36.4827C38.4718 36.8943 38.3748 37.3059 38.1811 37.7257C38.0923 37.9113 37.9956 38.0969 37.8583 38.2826C37.2691 38.0727 36.6476 37.8952 36.0099 37.7418C35.9615 37.7337 35.9131 37.7176 35.8647 37.7095C35.2674 37.5723 34.654 37.4512 34.0244 37.3544C33.9598 37.3463 33.8872 37.3382 33.8226 37.3221C33.193 37.2333 32.5553 37.1607 31.9015 37.1122C31.845 37.1122 31.7804 37.1042 31.7239 37.0961C31.0379 37.0477 30.3356 37.0234 29.6334 37.0234C29.6172 37.0234 29.5931 37.0234 29.577 37.0234C29.1492 37.0234 28.7294 37.0315 28.3016 37.0477C28.1886 37.0477 28.0757 37.0557 27.9546 37.0638C27.5995 37.0799 27.2443 37.1042 26.8891 37.1284C26.8003 37.1284 26.7115 37.1364 26.6308 37.1445C26.203 37.1768 25.7753 37.2252 25.3475 37.2737C25.2426 37.2898 25.1376 37.2979 25.0246 37.314C24.6775 37.3624 24.3385 37.4109 23.9914 37.4593C23.8784 37.4754 23.7735 37.4916 23.6605 37.5077C23.2408 37.5804 22.813 37.653 22.4013 37.7418C22.3206 37.7579 22.2318 37.7741 22.1511 37.7983C21.804 37.8709 21.4571 37.9517 21.11 38.0324C20.9889 38.0566 20.8758 38.0889 20.7547 38.1212C20.3431 38.2261 19.9316 38.331 19.52 38.4521C19.4877 38.4602 19.4553 38.4682 19.423 38.4844C19.0436 38.5974 18.6724 38.7104 18.3012 38.8314C18.1882 38.8718 18.075 38.9041 17.962 38.9444C17.6149 39.0655 17.2759 39.1866 16.945 39.3077C16.8885 39.3319 16.832 39.348 16.7675 39.3722C16.3881 39.5175 16.0169 39.6709 15.6456 39.8323C15.5488 39.8726 15.4437 39.9211 15.3469 39.9695C15.0482 40.1067 14.7578 40.2439 14.4672 40.3811C14.3865 40.4215 14.3057 40.4538 14.2331 40.4941C13.886 40.6717 13.547 40.8493 13.208 41.043C13.1273 41.0834 13.0546 41.1318 12.982 41.1802C12.7156 41.3336 12.4493 41.495 12.1991 41.6645C12.1184 41.7129 12.0376 41.7694 11.9569 41.8179C11.6502 42.0196 11.3434 42.2295 11.0609 42.4474C11.0124 42.4797 10.9721 42.5201 10.9237 42.5523C10.6816 42.738 10.4395 42.9317 10.2135 43.1254C10.1409 43.19 10.0682 43.2465 10.0036 43.3111C9.74536 43.5451 9.48693 43.7792 9.25286 44.0213C8.72821 44.5621 8.2198 45.119 7.72744 45.676C7.34001 46.1118 6.96861 46.5558 6.61347 47.0077C6.36325 47.3225 6.1131 47.6373 5.87096 47.9602C5.46738 48.501 5.08 49.0498 4.70871 49.5987C3.41727 51.5358 2.376 53.5375 1.63343 55.6038C1.20564 56.7822 0.87474 57.9848 0.65681 59.1955C0.60031 59.5023 0.551936 59.8009 0.511579 60.1076C0.382435 61.0278 0.317871 61.956 0.317871 62.8842C0.317871 63.199 0.317895 63.5057 0.342109 63.8204C0.382467 64.7567 0.495396 65.7092 0.672969 66.6616C0.729469 66.9764 0.802113 67.2992 0.874756 67.614C1.25412 69.2121 1.83521 70.8264 2.63428 72.4488C3.36879 73.9339 3.99844 75.4029 4.53116 76.8477C5.33024 79.0189 5.91134 81.1497 6.29877 83.2644C6.55706 84.6769 6.71858 86.0813 6.79929 87.4777C7.00108 90.9807 6.66195 94.4836 5.86288 98.0835C5.22523 100.965 4.28899 103.903 3.09441 106.954C3.09441 106.962 3.09441 106.97 3.08633 106.978C2.84419 107.592 2.62621 108.205 2.4325 108.81C2.36793 109.02 2.31952 109.222 2.25495 109.432C2.13388 109.835 2.00479 110.247 1.90793 110.643C1.84336 110.885 1.80304 111.127 1.74654 111.377C1.66582 111.732 1.57701 112.095 1.51243 112.451C1.46401 112.709 1.4316 112.967 1.39124 113.225C1.34282 113.564 1.27829 113.895 1.23793 114.226C1.20565 114.493 1.18944 114.751 1.1733 115.009C1.14908 115.332 1.10884 115.647 1.0927 115.97C1.07656 116.236 1.08461 116.494 1.07654 116.761C1.07654 117.067 1.06038 117.374 1.06038 117.681C1.06038 117.947 1.08463 118.205 1.0927 118.464C1.10884 118.762 1.11696 119.061 1.14118 119.352C1.16539 119.61 1.19757 119.868 1.22985 120.126C1.26214 120.409 1.29453 120.7 1.33489 120.982C1.37524 121.24 1.42361 121.491 1.47204 121.749C1.52047 122.023 1.56886 122.306 1.63343 122.58C1.68993 122.83 1.75448 123.081 1.81906 123.331C1.88363 123.597 1.95628 123.872 2.02892 124.13C2.10157 124.38 2.18231 124.622 2.26303 124.864C2.34374 125.123 2.43258 125.381 2.52137 125.639C2.61016 125.881 2.7069 126.115 2.80375 126.349C2.90061 126.6 2.99757 126.85 3.11057 127.1C3.2155 127.334 3.32035 127.56 3.43335 127.786C3.54635 128.028 3.6595 128.27 3.78057 128.513C3.89357 128.739 4.02267 128.957 4.14375 129.174C4.27289 129.409 4.40202 129.643 4.53116 129.869C4.6603 130.087 4.79752 130.296 4.93474 130.514C5.08002 130.74 5.21726 130.958 5.36255 131.176C5.50783 131.386 5.65315 131.588 5.79844 131.79C5.9518 131.999 6.10502 132.217 6.26645 132.419C6.41981 132.621 6.5813 132.815 6.73466 133.008C6.89609 133.21 7.06549 133.412 7.23499 133.606C7.39642 133.791 7.56601 133.977 7.73552 134.163C7.91309 134.356 8.09059 134.542 8.26816 134.728C8.44574 134.905 8.62343 135.083 8.80101 135.252C8.98665 135.43 9.17226 135.615 9.36597 135.785C9.55162 135.954 9.73721 136.116 9.92286 136.277C10.1166 136.447 10.3183 136.616 10.5121 136.778C10.7058 136.939 10.8995 137.084 11.1013 137.238C11.303 137.391 11.5129 137.553 11.7147 137.706C11.9165 137.851 12.1183 137.996 12.3281 138.134C12.538 138.279 12.756 138.424 12.9658 138.561C13.1757 138.699 13.3856 138.828 13.5954 138.949C13.8133 139.086 14.0394 139.215 14.2573 139.344C14.4672 139.465 14.685 139.587 14.9029 139.7C15.1289 139.821 15.355 139.942 15.5891 140.055C15.807 140.16 16.025 140.265 16.251 140.369C16.485 140.474 16.719 140.579 16.9531 140.684C17.1791 140.781 17.4052 140.87 17.6312 140.959C17.8652 141.056 18.1073 141.144 18.3494 141.233C18.5754 141.314 18.8096 141.395 19.0356 141.467C19.2777 141.548 19.5198 141.621 19.7619 141.693C19.996 141.766 20.2221 141.83 20.4562 141.887C20.6983 141.951 20.9485 142.016 21.1987 142.073C21.4328 142.129 21.6669 142.177 21.901 142.226C22.1512 142.274 22.4014 142.323 22.6516 142.363C22.8857 142.403 23.1277 142.444 23.3618 142.476C23.612 142.508 23.8624 142.541 24.1126 142.565C24.3467 142.589 24.5887 142.613 24.8228 142.629C25.073 142.646 25.3232 142.662 25.5815 142.678C25.8155 142.686 26.0578 142.694 26.2918 142.702C26.6873 142.702 27.0828 142.71 27.4783 142.702C27.4864 142.702 27.4945 142.702 27.5106 142.702C27.9546 142.686 28.3824 142.678 28.7941 142.678C28.8102 142.678 28.8262 142.678 28.8424 142.678C29.0038 142.678 29.1491 142.678 29.3025 142.686C29.5689 142.686 29.8433 142.694 30.1016 142.71C30.263 142.718 30.4164 142.734 30.5698 142.751C30.7958 142.767 31.0216 142.783 31.2396 142.815C31.3929 142.831 31.5383 142.864 31.6835 142.88C31.8773 142.912 32.079 142.944 32.2647 142.985C32.4019 143.017 32.5391 143.049 32.6682 143.081C32.8377 143.13 33.0154 143.17 33.1768 143.227C33.306 143.267 33.427 143.316 33.5481 143.364C33.7015 143.42 33.8468 143.485 33.9921 143.55C34.1051 143.606 34.218 143.663 34.3229 143.719C34.4521 143.792 34.5812 143.864 34.7023 143.945C34.7991 144.01 34.8961 144.082 34.9929 144.155C35.1059 144.244 35.2189 144.333 35.3238 144.429C35.4126 144.51 35.4933 144.591 35.5741 144.68C35.6709 144.785 35.7678 144.898 35.8566 145.011C35.9293 145.099 36.0019 145.196 36.0665 145.301C36.1472 145.422 36.2278 145.551 36.3004 145.689C36.3569 145.793 36.4215 145.898 36.478 146.011C36.5506 146.157 36.6073 146.302 36.6719 146.455C36.7203 146.576 36.7687 146.697 36.8171 146.819C36.8736 146.98 36.922 147.158 36.9704 147.327C37.0108 147.456 37.0431 147.585 37.0754 147.731C37.1158 147.916 37.1561 148.118 37.1883 148.32C37.2126 148.465 37.2449 148.602 37.2691 148.748C37.3014 148.966 37.3255 149.2 37.3497 149.434C37.3659 149.579 37.3821 149.724 37.3982 149.878C37.4224 150.144 37.4386 150.435 37.4467 150.717C37.4467 150.854 37.4629 150.983 37.4709 151.121C37.4871 151.556 37.495 152.008 37.495 152.477C37.495 153.058 37.5112 153.631 37.5515 154.204C37.5596 154.381 37.5758 154.551 37.5919 154.72C37.6242 155.124 37.6645 155.528 37.7129 155.923C37.7371 156.109 37.7614 156.286 37.7856 156.472C37.8502 156.9 37.9229 157.327 38.0036 157.755C38.0278 157.876 38.044 157.997 38.0682 158.118C38.1812 158.651 38.3103 159.184 38.4475 159.709C38.4798 159.838 38.5201 159.967 38.5605 160.088C38.6735 160.483 38.7945 160.879 38.9317 161.266C38.9882 161.436 39.0447 161.597 39.1093 161.767C39.2384 162.13 39.3837 162.485 39.529 162.84C39.5936 162.986 39.6501 163.139 39.7146 163.284C39.9245 163.768 40.1425 164.253 40.3846 164.721C40.4008 164.753 40.417 164.785 40.4331 164.81C40.6591 165.246 40.8931 165.681 41.1433 166.101C41.224 166.246 41.3129 166.384 41.4016 166.521C41.5954 166.836 41.7891 167.15 41.9989 167.457C42.0958 167.602 42.1846 167.74 42.2896 167.885C42.5237 168.224 42.7657 168.563 43.0159 168.886C43.0805 168.974 43.1451 169.063 43.2096 169.144C43.5244 169.548 43.8553 169.951 44.1943 170.339C44.2831 170.443 44.3801 170.54 44.4688 170.637C44.7271 170.928 44.9935 171.202 45.2598 171.485C45.3809 171.606 45.5019 171.727 45.623 171.848C45.8894 172.106 46.1557 172.364 46.4302 172.615C46.5432 172.72 46.6561 172.825 46.7691 172.921C47.1565 173.26 47.5441 173.591 47.9477 173.906C47.9961 173.946 48.0526 173.979 48.101 174.019C48.4562 174.294 48.8192 174.568 49.1905 174.826C49.3278 174.923 49.4569 175.012 49.5941 175.101C49.8928 175.302 50.1996 175.504 50.4982 175.69C50.6435 175.779 50.7807 175.867 50.926 175.956C51.2812 176.174 51.6445 176.376 52.0077 176.578C52.0965 176.626 52.177 176.675 52.2577 176.715C52.7097 176.949 53.1619 177.175 53.622 177.385C53.7511 177.441 53.8802 177.498 54.0094 177.554C54.3484 177.708 54.6953 177.853 55.0424 177.99C55.2038 178.055 55.3653 178.111 55.5187 178.176C55.8657 178.305 56.2128 178.426 56.568 178.547C56.7052 178.596 56.8424 178.644 56.9796 178.684C57.4639 178.838 57.9483 178.975 58.4406 179.096C58.5213 179.112 58.5938 179.128 58.6745 179.152C59.0942 179.257 59.514 179.346 59.9337 179.427C60.0952 179.459 60.2567 179.483 60.4181 179.516C60.7732 179.58 61.1284 179.629 61.4836 179.677C61.645 179.701 61.8063 179.718 61.9758 179.742C62.4036 179.79 62.8315 179.83 63.2593 179.855C63.34 179.855 63.4207 179.871 63.5015 179.871C64.0019 179.895 64.5103 179.903 65.0107 179.903C65.2125 179.903 65.4143 179.887 65.6242 179.887C65.9551 179.879 66.2941 179.863 66.625 179.839C66.8429 179.822 67.069 179.798 67.2869 179.782L67.2385 179.863ZM62.5327 154.664C61.7659 153.897 61.6692 153.211 61.6692 152.638C61.6773 148.699 61.7176 136.713 52.5888 127.552C46.632 121.579 38.6171 118.544 28.7698 118.544C28.0918 118.544 27.3815 118.561 26.6631 118.585C26.2757 118.488 25.5735 118.044 25.291 117.544C25.0892 117.18 25.5411 115.986 25.5976 115.849C33.0799 96.7598 32.862 79.9229 24.8874 62.981C25.0892 62.6905 25.3556 62.3272 25.7107 61.9075C26.5744 61.6089 28.0515 61.2618 29.577 61.2618C29.8999 61.2618 30.1257 61.278 30.2549 61.2941C32.749 62.1174 35.3077 62.5129 37.8341 62.5129C45.4617 62.5129 52.8308 58.905 57.48 52.464C61.0718 47.484 64.5749 39.2915 61.4351 28.153C61.4028 26.5306 61.9839 25.5782 62.3713 25.1262C62.904 24.5128 63.2996 24.5128 63.453 24.5128C63.6386 24.5128 63.9695 24.5451 64.4538 24.7065C73.6473 27.6929 82.2273 29.1458 90.7023 29.1458C99.589 29.1458 108.282 27.5638 117.265 24.3191C117.839 24.7227 118.904 25.8849 118.872 27.7171V27.7656C118.791 33.351 118.638 43.7469 127.137 52.3752C132.803 58.1301 140.382 61.0439 149.665 61.0439C150.617 61.0439 151.626 61.0116 152.659 60.9551C152.804 60.9551 152.942 60.939 153.071 60.939C154.257 60.939 154.685 61.2053 155.137 61.7703C155.863 62.6662 156.097 63.8527 156.049 64.3774C150.254 74.8863 145.411 91.9412 154.798 113.863C155.686 115.945 155.516 117.116 155.298 117.447C155 117.899 153.692 118.577 151.327 118.577H151.247H150.964C147.324 118.577 136.25 118.577 127.508 127.399C125.337 129.586 118.743 136.245 118.872 151.096C118.896 153.671 118.331 155.011 118.056 155.398C117.96 155.423 117.758 155.455 117.451 155.455C116.822 155.455 115.474 155.318 113.432 154.398C105.925 151.016 98.1038 149.305 90.1856 149.305C81.3877 149.305 72.7029 151.524 65.0754 155.713C64.9946 155.754 64.9461 155.778 64.8009 155.778C64.2197 155.778 63.2511 155.39 62.5166 154.664H62.5327Z" fill="white"/>
<mask id="mask0_3126_6321" style="mask-type:luminance" maskUnits="userSpaceOnUse" x="0" y="0" width="181" height="180">
<path d="M117.257 24.311C117.83 24.7146 118.896 25.8769 118.863 27.7091V27.7575C118.783 33.3429 118.629 43.7388 127.129 52.3671C132.795 58.122 140.374 61.0358 149.656 61.0358C150.609 61.0358 151.617 61.0035 152.651 60.947C152.796 60.947 152.933 60.9309 153.062 60.9309C154.249 60.9309 154.676 61.1972 155.128 61.7622C155.855 62.6582 156.089 63.8447 156.041 64.3693C150.245 74.8783 145.402 91.9331 154.79 113.855C155.677 115.937 155.508 117.108 155.29 117.439C154.991 117.891 153.684 118.569 151.319 118.569H151.238H150.956C147.315 118.569 136.241 118.569 127.5 127.391C125.329 129.578 118.734 136.237 118.863 151.088C118.888 153.663 118.323 155.003 118.048 155.39C117.951 155.415 117.749 155.447 117.443 155.447C116.813 155.447 115.465 155.31 113.423 154.389C105.917 151.008 98.0954 149.296 90.1773 149.296C81.3793 149.296 72.6945 151.516 65.067 155.705C64.9863 155.745 64.9378 155.77 64.7925 155.77C64.2113 155.77 63.2427 155.382 62.5082 154.656C61.7414 153.889 61.6447 153.203 61.6447 152.63C61.6528 148.691 61.6931 136.705 52.5643 127.544C46.6075 121.571 38.5925 118.536 28.7453 118.536C28.0673 118.536 27.3569 118.553 26.6386 118.577C26.2511 118.48 25.549 118.036 25.2665 117.536C25.0647 117.172 25.5168 115.978 25.5733 115.841C33.0555 96.7517 32.8375 79.9148 24.8629 62.973C25.0647 62.6824 25.331 62.3192 25.6862 61.8995C26.5498 61.6008 28.027 61.2538 29.5525 61.2538C29.8753 61.2538 30.1012 61.2699 30.2303 61.286C32.7244 62.1093 35.2832 62.5048 37.8096 62.5048C45.4371 62.5048 52.8065 58.8969 57.4556 52.4559C61.0474 47.4759 64.5504 39.2834 61.4106 28.1449C61.3783 26.5226 61.9594 25.5701 62.3468 25.1182C62.8795 24.5047 63.2751 24.5047 63.4284 24.5047C63.6141 24.5047 63.945 24.537 64.4293 24.6984C73.6227 27.6849 82.2027 29.1377 90.6778 29.1377C99.5645 29.1377 108.257 27.5557 117.241 24.311M117.322 0C114.69 0 112.003 0.460068 109.323 1.43671C102.841 3.80969 96.7637 4.92354 90.6939 4.92354C84.6242 4.92354 78.4495 3.78548 71.9277 1.67078C69.0382 0.734496 66.1889 0.290564 63.4446 0.290564C47.4954 0.290564 34.9441 15.0773 37.5512 32.6568C37.8257 34.5213 39.2382 36.3374 37.8257 38.2907C35.3881 37.4432 32.5309 37.0396 29.5605 37.0396C21.9007 37.0396 13.4499 39.687 9.21237 44.0617C1.32653 52.1896 -2.5318 62.1013 2.58552 72.5053C8.42927 84.4025 7.82396 94.7984 3.03757 107.01C-4.70298 126.745 11.0123 142.799 26.5661 142.799C26.8566 142.799 27.1551 142.799 27.4457 142.783C27.8977 142.767 28.3418 142.759 28.7534 142.759C35.5657 142.759 37.4625 145.212 37.4383 152.565C37.3899 168.458 50.8208 180 64.8006 180C68.8363 180 72.9205 179.04 76.7383 176.941C80.9355 174.633 85.52 173.527 90.1853 173.527C94.8507 173.527 99.1689 174.544 103.495 176.489C108.314 178.66 113.044 179.677 117.459 179.677C132.06 179.677 143.247 168.522 143.094 150.895C143.037 144.534 144.829 142.807 150.972 142.807C151.028 142.807 151.085 142.807 151.141 142.807C151.206 142.807 151.27 142.807 151.327 142.807C172.821 142.807 185.469 123.993 177.059 104.347C172.87 94.5724 172.175 85.1935 177.333 75.9437C185.873 60.6242 175.162 36.7329 153.07 36.7329C152.481 36.7329 151.884 36.749 151.279 36.7813C150.697 36.8136 150.165 36.8297 149.664 36.8297C142.933 36.8297 142.997 33.8433 143.086 28.0723C143.312 12.6317 131.156 0 117.33 0H117.322Z" fill="white"/>
</mask>
<g mask="url(#mask0_3126_6321)">
<path opacity="0.3" d="M90.7014 92.804V-44.3047" stroke="black" stroke-miterlimit="10"/>
<path opacity="0.3" d="M90.7025 92.804L78.7562 -43.7881" stroke="black" stroke-miterlimit="10"/>
<path opacity="0.3" d="M90.702 92.8045L66.8984 -42.2217" stroke="black" stroke-miterlimit="10"/>
<path opacity="0.3" d="M90.7019 92.8047L55.2197 -39.6387" stroke="black" stroke-miterlimit="10"/>
<path opacity="0.3" d="M90.7011 92.8045L43.8057 -36.0391" stroke="black" stroke-miterlimit="10"/>
<path opacity="0.3" d="M90.7019 92.8042L32.7567 -31.4629" stroke="black" stroke-miterlimit="10"/>
<path opacity="0.3" d="M90.7011 92.8038L22.1499 -25.9424" stroke="black" stroke-miterlimit="10"/>
<path opacity="0.3" d="M90.7016 92.8036L12.061 -19.5098" stroke="black" stroke-miterlimit="10"/>
<path opacity="0.3" d="M90.7013 92.8044L2.56885 -12.2285" stroke="black" stroke-miterlimit="10"/>
<path opacity="0.3" d="M90.7014 92.8041L-6.2533 -4.14941" stroke="black" stroke-miterlimit="10"/>
<path opacity="0.3" d="M90.7021 92.8033L-14.3322 4.67188" stroke="black" stroke-miterlimit="10"/>
<path opacity="0.3" d="M90.7015 92.8038L-21.6133 14.1562" stroke="black" stroke-miterlimit="10"/>
<path opacity="0.3" d="M90.7013 92.8035L-28.0383 24.2451" stroke="black" stroke-miterlimit="10"/>
<path opacity="0.3" d="M90.7011 92.8039L-33.5593 34.8594" stroke="black" stroke-miterlimit="10"/>
<path opacity="0.3" d="M90.7021 92.8039L-38.1431 45.9092" stroke="black" stroke-miterlimit="10"/>
<path opacity="0.3" d="M90.7018 92.8043L-41.7351 57.3145" stroke="black" stroke-miterlimit="10"/>
<path opacity="0.3" d="M90.7017 92.8047L-44.3262 68.9941" stroke="black" stroke-miterlimit="10"/>
<path opacity="0.3" d="M90.7019 92.8039L-45.8837 80.8496" stroke="black" stroke-miterlimit="10"/>
<path opacity="0.3" d="M90.7017 92.8037H-46.4087" stroke="black" stroke-miterlimit="10"/>
<path opacity="0.3" d="M90.7019 92.8037L-45.8837 104.758" stroke="black" stroke-miterlimit="10"/>
<path opacity="0.3" d="M90.7017 92.8037L-44.3262 116.614" stroke="black" stroke-miterlimit="10"/>
<path opacity="0.3" d="M90.7018 92.8037L-41.7351 128.294" stroke="black" stroke-miterlimit="10"/>
<path opacity="0.3" d="M90.7021 92.8037L-38.1431 139.698" stroke="black" stroke-miterlimit="10"/>
<path opacity="0.3" d="M90.7011 92.8037L-33.5593 150.748" stroke="black" stroke-miterlimit="10"/>
<path opacity="0.3" d="M90.7013 92.8037L-28.0383 161.362" stroke="black" stroke-miterlimit="10"/>
<path opacity="0.3" d="M90.7015 92.8037L-21.6133 171.451" stroke="black" stroke-miterlimit="10"/>
<path opacity="0.3" d="M90.7021 92.8037L-14.3322 180.935" stroke="black" stroke-miterlimit="10"/>
<path opacity="0.3" d="M90.7014 92.8037L-6.2533 189.757" stroke="black" stroke-miterlimit="10"/>
<path opacity="0.3" d="M90.7013 92.8037L2.56885 197.837" stroke="black" stroke-miterlimit="10"/>
<path opacity="0.3" d="M90.7016 92.8037L12.061 205.117" stroke="black" stroke-miterlimit="10"/>
<path opacity="0.3" d="M90.7011 92.8037L22.1499 211.55" stroke="black" stroke-miterlimit="10"/>
<path opacity="0.3" d="M90.7019 92.8037L32.7567 217.071" stroke="black" stroke-miterlimit="10"/>
<path opacity="0.3" d="M90.7011 92.8037L43.8057 221.647" stroke="black" stroke-miterlimit="10"/>
<path opacity="0.3" d="M90.7019 92.8037L55.2197 225.247" stroke="black" stroke-miterlimit="10"/>
<path opacity="0.3" d="M90.702 92.8037L66.8984 227.83" stroke="black" stroke-miterlimit="10"/>
<path opacity="0.3" d="M90.7025 92.8037L78.7562 229.396" stroke="black" stroke-miterlimit="10"/>
<path opacity="0.3" d="M90.7014 92.8037V229.912" stroke="black" stroke-miterlimit="10"/>
<path opacity="0.3" d="M90.7014 92.8037L102.656 229.396" stroke="black" stroke-miterlimit="10"/>
<path opacity="0.3" d="M90.7014 92.8037L114.513 227.83" stroke="black" stroke-miterlimit="10"/>
<path opacity="0.3" d="M90.7014 92.8037L126.192 225.247" stroke="black" stroke-miterlimit="10"/>
<path opacity="0.3" d="M90.7014 92.8037L137.597 221.647" stroke="black" stroke-miterlimit="10"/>
<path opacity="0.3" d="M90.7014 92.8037L148.655 217.071" stroke="black" stroke-miterlimit="10"/>
<path opacity="0.3" d="M90.7014 92.8037L159.261 211.55" stroke="black" stroke-miterlimit="10"/>
<path opacity="0.3" d="M90.7014 92.8037L169.35 205.117" stroke="black" stroke-miterlimit="10"/>
<path opacity="0.3" d="M90.7014 92.8037L178.842 197.837" stroke="black" stroke-miterlimit="10"/>
<path opacity="0.3" d="M90.7014 92.8037L187.656 189.757" stroke="black" stroke-miterlimit="10"/>
<path opacity="0.3" d="M90.7014 92.8037L195.744 180.935" stroke="black" stroke-miterlimit="10"/>
<path opacity="0.3" d="M90.7014 92.8037L203.024 171.451" stroke="black" stroke-miterlimit="10"/>
<path opacity="0.3" d="M90.7014 92.8037L209.449 161.362" stroke="black" stroke-miterlimit="10"/>
<path opacity="0.3" d="M90.7014 92.8037L214.97 150.748" stroke="black" stroke-miterlimit="10"/>
<path opacity="0.3" d="M90.7014 92.8037L219.546 139.698" stroke="black" stroke-miterlimit="10"/>
<path opacity="0.3" d="M90.7014 92.8037L223.146 128.294" stroke="black" stroke-miterlimit="10"/>
<path opacity="0.3" d="M90.7014 92.8037L225.737 116.614" stroke="black" stroke-miterlimit="10"/>
<path opacity="0.3" d="M90.7014 92.8037L227.295 104.758" stroke="black" stroke-miterlimit="10"/>
<path opacity="0.3" d="M90.7014 92.8037H227.82" stroke="black" stroke-miterlimit="10"/>
<path opacity="0.3" d="M90.7014 92.8039L227.295 80.8496" stroke="black" stroke-miterlimit="10"/>
<path opacity="0.3" d="M90.7014 92.8047L225.737 68.9941" stroke="black" stroke-miterlimit="10"/>
<path opacity="0.3" d="M90.7014 92.8043L223.146 57.3145" stroke="black" stroke-miterlimit="10"/>
<path opacity="0.3" d="M90.7014 92.8039L219.546 45.9092" stroke="black" stroke-miterlimit="10"/>
<path opacity="0.3" d="M90.7014 92.8039L214.97 34.8594" stroke="black" stroke-miterlimit="10"/>
<path opacity="0.3" d="M90.7014 92.8035L209.449 24.2451" stroke="black" stroke-miterlimit="10"/>
<path opacity="0.3" d="M90.7014 92.8038L203.024 14.1562" stroke="black" stroke-miterlimit="10"/>
<path opacity="0.3" d="M90.7014 92.8033L195.744 4.67188" stroke="black" stroke-miterlimit="10"/>
<path opacity="0.3" d="M90.7014 92.8041L187.656 -4.14941" stroke="black" stroke-miterlimit="10"/>
<path opacity="0.3" d="M90.7014 92.8044L178.842 -12.2285" stroke="black" stroke-miterlimit="10"/>
<path opacity="0.3" d="M90.7014 92.8036L169.35 -19.5098" stroke="black" stroke-miterlimit="10"/>
<path opacity="0.3" d="M90.7014 92.8038L159.261 -25.9424" stroke="black" stroke-miterlimit="10"/>
<path opacity="0.3" d="M90.7014 92.8042L148.655 -31.4629" stroke="black" stroke-miterlimit="10"/>
<path opacity="0.3" d="M90.7014 92.8045L137.597 -36.0391" stroke="black" stroke-miterlimit="10"/>
<path opacity="0.3" d="M90.7014 92.8047L126.192 -39.6387" stroke="black" stroke-miterlimit="10"/>
<path opacity="0.3" d="M90.7014 92.8045L114.513 -42.2217" stroke="black" stroke-miterlimit="10"/>
<path opacity="0.3" d="M90.7014 92.804L102.656 -43.7881" stroke="black" stroke-miterlimit="10"/>
</g>
</svg>
