<svg width="100%" height="100%" preserveAspectRatio="none" viewBox="0 0 180 180" fill="none" xmlns="http://www.w3.org/2000/svg">
<path fill-rule="evenodd" clip-rule="evenodd" d="M180 0H0V180H180V0ZM113.181 154.398C105.677 151.017 97.8587 149.306 89.9433 149.305C81.1482 149.306 72.4663 151.518 64.8411 155.713C64.7603 155.754 64.7118 155.778 64.5666 155.778C63.9854 155.778 63.0168 155.399 62.2823 154.664C61.5155 153.897 61.4188 153.211 61.4188 152.638C61.4349 148.699 61.4672 136.713 52.3383 127.552C46.3816 121.571 38.3666 118.545 28.5194 118.545C27.8414 118.545 27.131 118.561 26.4126 118.585C26.0252 118.488 25.323 118.044 25.0405 117.544C24.8388 117.181 25.2907 115.986 25.3472 115.849C32.8294 96.752 32.6116 79.9231 24.637 62.9813C24.8307 62.6907 25.0971 62.3356 25.4603 61.9078C26.3239 61.6091 27.801 61.2621 29.3265 61.2621C29.6494 61.2621 29.8753 61.2782 30.0044 61.2944C32.4985 62.1176 35.0573 62.5131 37.5837 62.5131C45.2112 62.5131 52.5803 58.9052 57.2295 52.4643C60.8213 47.4842 64.3325 39.2918 61.1847 28.1532C61.1524 26.5228 61.7334 25.5785 62.1209 25.1265C62.6536 24.5131 63.0492 24.513 63.2025 24.513C63.3882 24.513 63.7191 24.5453 64.2034 24.7068C73.3887 27.6932 81.5652 29.146 90.4519 29.146C99.3386 29.146 108.031 27.564 117.015 24.3193C117.588 24.7229 118.645 25.8852 118.621 27.7174V27.7658C118.532 33.3512 118.379 43.7472 126.886 52.3755C132.553 58.1304 140.132 61.0441 149.414 61.0441C150.366 61.0441 151.375 61.0119 152.409 60.9554C152.554 60.9392 152.691 60.9392 152.82 60.9392H152.82C154.007 60.9392 154.434 61.2056 154.886 61.7706C155.613 62.6665 155.847 63.853 155.799 64.3776C150.003 74.8946 145.16 91.9414 154.547 113.863C155.443 115.946 155.266 117.116 155.048 117.447C154.741 117.899 153.442 118.577 151.077 118.577H150.996H150.713C147.073 118.577 135.999 118.577 127.258 127.399C125.086 129.586 118.492 136.245 118.621 151.097C118.637 153.671 118.072 155.011 117.806 155.399C117.709 155.423 117.515 155.455 117.201 155.455C116.571 155.455 115.215 155.318 113.181 154.398Z" fill="white"/>
<path d="M66.9719 179.863C67.2866 179.83 67.6094 179.798 67.9242 179.758C68.1502 179.726 68.3763 179.693 68.6023 179.653C68.9171 179.604 69.2237 179.548 69.5385 179.483C69.7645 179.435 69.9906 179.387 70.2166 179.338C70.5314 179.266 70.8461 179.185 71.1528 179.096C71.3708 179.031 71.5887 178.975 71.8147 178.91C72.1376 178.814 72.4604 178.701 72.7752 178.588C72.9851 178.515 73.1869 178.45 73.3967 178.37C73.7438 178.232 74.0909 178.087 74.438 177.934C74.6075 177.861 74.785 177.788 74.9625 177.708C75.471 177.474 75.9716 177.223 76.472 176.949C76.472 176.949 76.4882 176.949 76.4962 176.941C76.5366 176.917 76.5688 176.901 76.6092 176.884C77.0934 176.626 77.5778 176.376 78.0701 176.142C78.2558 176.053 78.4495 175.98 78.6432 175.892C78.9903 175.738 79.3293 175.585 79.6764 175.448C79.8943 175.359 80.1204 175.286 80.3464 175.206C80.6692 175.085 80.992 174.963 81.3149 174.859C81.549 174.786 81.791 174.721 82.0332 174.649C82.348 174.56 82.6629 174.463 82.9777 174.382C83.2279 174.318 83.478 174.269 83.7283 174.213C84.035 174.14 84.3497 174.068 84.6564 174.011C84.9147 173.963 85.1731 173.93 85.4314 173.89C85.7381 173.842 86.0448 173.785 86.3596 173.745C86.6259 173.712 86.8842 173.688 87.1506 173.664C87.4573 173.632 87.7639 173.599 88.0706 173.583C88.337 173.567 88.6114 173.559 88.8778 173.551C89.1845 173.543 89.4913 173.527 89.798 173.527C89.8465 173.527 89.8948 173.527 89.9433 173.527C90.1935 173.527 90.4436 173.543 90.7019 173.551C90.9602 173.551 91.2268 173.559 91.485 173.575C91.7918 173.591 92.0984 173.624 92.4051 173.648C92.6634 173.672 92.9216 173.688 93.1799 173.712C93.4947 173.745 93.8016 173.793 94.1164 173.833C94.3746 173.866 94.6248 173.898 94.8831 173.938C95.1979 173.987 95.5207 174.059 95.8355 174.116C96.0857 174.164 96.3278 174.205 96.578 174.261C96.9089 174.334 97.2318 174.423 97.5546 174.503C97.7887 174.56 98.0309 174.616 98.265 174.681C98.604 174.778 98.943 174.883 99.282 174.988C99.5 175.052 99.7179 175.117 99.9359 175.189C100.307 175.311 100.678 175.456 101.05 175.593C101.235 175.658 101.413 175.722 101.598 175.795C102.147 176.013 102.696 176.239 103.245 176.489C103.875 176.771 104.496 177.03 105.118 177.272C105.328 177.353 105.537 177.425 105.747 177.498C106.159 177.651 106.571 177.805 106.982 177.942C107.232 178.023 107.475 178.095 107.725 178.168C108.096 178.281 108.467 178.394 108.831 178.499C109.089 178.571 109.347 178.628 109.614 178.692C109.961 178.781 110.316 178.87 110.663 178.943C110.929 178.999 111.196 179.048 111.462 179.096C111.801 179.161 112.14 179.225 112.479 179.274C112.745 179.314 113.012 179.354 113.278 179.387C113.609 179.427 113.94 179.467 114.271 179.5C114.537 179.524 114.795 179.548 115.062 179.564C115.385 179.588 115.716 179.605 116.038 179.621C116.297 179.629 116.555 179.637 116.813 179.645C117.185 179.645 117.548 179.645 117.919 179.645C118.073 179.645 118.226 179.645 118.379 179.637C118.912 179.613 119.436 179.58 119.953 179.532C120.009 179.532 120.058 179.516 120.115 179.516C120.583 179.467 121.043 179.403 121.503 179.33C121.664 179.306 121.817 179.274 121.979 179.249C122.342 179.185 122.705 179.112 123.069 179.031C123.222 178.999 123.375 178.967 123.529 178.926C123.973 178.822 124.408 178.7 124.836 178.571C124.885 178.555 124.941 178.547 124.99 178.531C125.474 178.386 125.942 178.216 126.41 178.047C126.539 177.998 126.669 177.942 126.798 177.893C127.145 177.756 127.484 177.619 127.815 177.466C127.96 177.401 128.097 177.336 128.242 177.272C128.598 177.102 128.945 176.925 129.292 176.739C129.389 176.691 129.477 176.642 129.574 176.594C130.01 176.352 130.43 176.102 130.849 175.835C130.946 175.779 131.035 175.714 131.124 175.65C131.447 175.44 131.762 175.222 132.076 174.988C132.197 174.899 132.327 174.802 132.448 174.713C132.746 174.487 133.037 174.253 133.319 174.019C133.424 173.938 133.521 173.85 133.626 173.769C134.006 173.446 134.369 173.107 134.724 172.76C134.772 172.72 134.813 172.671 134.853 172.623C135.16 172.316 135.466 171.993 135.757 171.67C135.862 171.557 135.959 171.444 136.056 171.323C136.298 171.041 136.532 170.758 136.766 170.468C136.863 170.347 136.952 170.234 137.04 170.113C137.339 169.725 137.622 169.33 137.896 168.918C137.904 168.902 137.92 168.886 137.936 168.87C138.227 168.442 138.493 167.998 138.76 167.546C138.832 167.417 138.905 167.288 138.978 167.158C139.171 166.819 139.349 166.48 139.526 166.133C139.599 165.988 139.68 165.835 139.752 165.689C139.938 165.302 140.124 164.898 140.293 164.495C140.334 164.398 140.382 164.309 140.422 164.212C140.632 163.712 140.826 163.203 141.003 162.679C141.052 162.55 141.092 162.412 141.133 162.283C141.27 161.88 141.391 161.476 141.512 161.065C141.561 160.895 141.609 160.717 141.657 160.54C141.77 160.128 141.867 159.709 141.964 159.289C141.996 159.135 142.037 158.99 142.069 158.837C142.19 158.272 142.295 157.691 142.392 157.11C142.408 157.005 142.416 156.9 142.432 156.795C142.505 156.302 142.569 155.81 142.618 155.31C142.642 155.116 142.658 154.922 142.674 154.728C142.715 154.285 142.747 153.841 142.771 153.389C142.779 153.203 142.795 153.009 142.803 152.824C142.828 152.194 142.844 151.556 142.836 150.903C142.836 150.499 142.836 150.12 142.844 149.757C142.844 149.644 142.86 149.547 142.86 149.434C142.868 149.192 142.884 148.941 142.9 148.715C142.908 148.578 142.933 148.457 142.949 148.32C142.973 148.134 142.989 147.949 143.013 147.779C143.037 147.642 143.062 147.513 143.094 147.384C143.126 147.238 143.15 147.077 143.183 146.94C143.215 146.81 143.255 146.706 143.288 146.584C143.328 146.455 143.36 146.318 143.409 146.189C143.449 146.076 143.498 145.979 143.546 145.874C143.595 145.761 143.643 145.64 143.699 145.527C143.748 145.43 143.812 145.341 143.869 145.245C143.925 145.148 143.982 145.043 144.055 144.946C144.119 144.857 144.192 144.785 144.256 144.704C144.329 144.615 144.394 144.526 144.474 144.446C144.547 144.373 144.636 144.308 144.716 144.236C144.797 144.163 144.878 144.09 144.975 144.018C145.063 143.953 145.16 143.905 145.249 143.848C145.346 143.792 145.443 143.727 145.548 143.671C145.645 143.622 145.758 143.574 145.863 143.525C145.976 143.477 146.08 143.429 146.201 143.38C146.314 143.34 146.444 143.307 146.557 143.267C146.686 143.227 146.807 143.186 146.936 143.154C147.065 143.122 147.202 143.098 147.332 143.073C147.477 143.041 147.614 143.017 147.759 142.993C147.897 142.968 148.05 142.952 148.203 142.936C148.365 142.92 148.518 142.896 148.679 142.88C148.833 142.864 149.002 142.855 149.164 142.847C149.341 142.839 149.511 142.823 149.688 142.815C149.858 142.815 150.043 142.815 150.229 142.807C150.391 142.807 150.544 142.799 150.713 142.799C150.77 142.799 150.826 142.799 150.883 142.799C151.262 142.799 151.626 142.783 151.997 142.775C152.32 142.767 152.651 142.767 152.974 142.751C153.313 142.734 153.635 142.702 153.966 142.67C154.281 142.646 154.604 142.621 154.911 142.589C155.242 142.557 155.564 142.5 155.887 142.46C156.186 142.42 156.493 142.379 156.791 142.331C157.114 142.274 157.437 142.21 157.752 142.145C158.042 142.089 158.333 142.04 158.615 141.976C158.938 141.903 159.245 141.814 159.56 141.734C159.834 141.661 160.109 141.596 160.375 141.516C160.69 141.427 160.997 141.314 161.303 141.217C161.562 141.136 161.82 141.056 162.07 140.967C162.385 140.854 162.683 140.725 162.99 140.604C163.224 140.507 163.475 140.418 163.701 140.321C164.007 140.192 164.306 140.039 164.604 139.901C164.822 139.796 165.048 139.7 165.266 139.595C165.565 139.441 165.864 139.272 166.154 139.11C166.356 138.997 166.566 138.892 166.768 138.779C167.066 138.61 167.349 138.416 167.631 138.239C167.817 138.118 168.011 138.005 168.188 137.884C168.479 137.69 168.753 137.48 169.028 137.278C169.197 137.157 169.375 137.036 169.536 136.907C169.819 136.689 170.085 136.463 170.351 136.237C170.505 136.108 170.666 135.987 170.811 135.858C171.078 135.624 171.336 135.373 171.595 135.123C171.732 134.994 171.869 134.873 172.006 134.736C172.264 134.477 172.515 134.203 172.757 133.937C172.878 133.807 172.999 133.686 173.12 133.549C173.37 133.267 173.604 132.976 173.838 132.686C173.943 132.556 174.056 132.435 174.153 132.298C174.387 131.991 174.605 131.685 174.823 131.37C174.912 131.241 175.009 131.12 175.097 130.991C175.315 130.668 175.517 130.337 175.719 130.006C175.8 129.877 175.88 129.748 175.961 129.618C176.155 129.279 176.34 128.932 176.518 128.585C176.591 128.456 176.663 128.327 176.728 128.19C176.905 127.835 177.067 127.471 177.22 127.116C177.277 126.979 177.349 126.85 177.406 126.713C177.559 126.341 177.697 125.97 177.834 125.591C177.882 125.454 177.939 125.324 177.987 125.187C178.116 124.8 178.237 124.412 178.35 124.017C178.391 123.88 178.439 123.751 178.471 123.621C178.576 123.226 178.673 122.822 178.762 122.427C178.794 122.29 178.835 122.152 178.859 122.015C178.94 121.62 179.004 121.208 179.069 120.804C179.093 120.659 179.125 120.514 179.141 120.369C179.198 119.965 179.238 119.561 179.27 119.15C179.287 118.996 179.311 118.843 179.319 118.682C179.351 118.278 179.359 117.866 179.375 117.455C179.375 117.293 179.391 117.132 179.4 116.971C179.4 116.559 179.391 116.139 179.375 115.728C179.375 115.558 179.375 115.397 179.367 115.227C179.343 114.815 179.303 114.396 179.27 113.976C179.254 113.807 179.246 113.637 179.23 113.459C179.182 113.04 179.117 112.612 179.053 112.192C179.028 112.015 179.012 111.845 178.98 111.676C178.907 111.264 178.818 110.844 178.721 110.425C178.681 110.239 178.649 110.053 178.609 109.86C178.504 109.424 178.383 108.988 178.262 108.552C178.213 108.383 178.173 108.213 178.124 108.036C177.987 107.567 177.818 107.091 177.656 106.615C177.608 106.478 177.567 106.341 177.519 106.195C177.293 105.582 177.051 104.968 176.792 104.355C175.743 101.909 174.92 99.4879 174.347 97.0907C174.08 95.9769 173.871 94.863 173.717 93.7492C173.701 93.6039 173.677 93.4667 173.661 93.3214C173.523 92.2156 173.443 91.1179 173.427 90.0202C173.427 89.996 173.427 89.9718 173.427 89.9475C173.37 85.2258 174.484 80.5686 177.067 75.9437C177.341 75.4594 177.592 74.967 177.818 74.4585C177.89 74.2971 177.955 74.1276 178.027 73.9662C178.173 73.6191 178.326 73.2801 178.463 72.9331C178.544 72.7313 178.6 72.5214 178.673 72.3116C178.778 71.9968 178.891 71.682 178.988 71.3672C179.052 71.1412 179.109 70.9152 179.165 70.6892C179.246 70.3825 179.335 70.0758 179.4 69.7691C179.456 69.535 179.488 69.2929 179.537 69.0507C179.593 68.7521 179.658 68.4454 179.706 68.1467C179.747 67.8965 179.771 67.6463 179.803 67.3961C179.843 67.0974 179.884 66.7988 179.908 66.5002C179.932 66.2419 179.94 65.9917 179.956 65.7334C179.973 65.4347 179.997 65.1361 179.997 64.8375C179.997 64.5792 179.997 64.3209 179.997 64.0626C179.997 63.764 179.997 63.4653 179.981 63.1747C179.973 62.9165 179.948 62.6501 179.932 62.3918C179.908 62.1013 179.892 61.8026 179.86 61.512C179.835 61.2457 179.795 60.9874 179.763 60.721C179.722 60.4305 179.69 60.1399 179.642 59.8493C179.601 59.583 179.545 59.3247 179.496 59.0583C179.44 58.7678 179.383 58.4772 179.319 58.1947C179.262 57.9283 179.19 57.6701 179.125 57.4118C179.052 57.1293 178.98 56.8387 178.899 56.5562C178.826 56.2979 178.738 56.0396 178.657 55.7814C178.568 55.4989 178.479 55.2244 178.383 54.9419C178.294 54.6836 178.189 54.4334 178.092 54.1751C177.987 53.9007 177.882 53.6263 177.761 53.3519C177.656 53.1016 177.543 52.8514 177.43 52.6012C177.309 52.3349 177.188 52.0685 177.051 51.8022C176.93 51.5519 176.8 51.3098 176.671 51.0677C176.534 50.8094 176.389 50.5511 176.244 50.2928C176.106 50.0507 175.961 49.8166 175.824 49.5825C175.671 49.3323 175.509 49.0821 175.348 48.8319C175.194 48.5978 175.041 48.3718 174.879 48.1458C174.71 47.9037 174.532 47.6615 174.355 47.4194C174.185 47.1934 174.016 46.9755 173.846 46.7575C173.661 46.5235 173.475 46.2975 173.281 46.0715C173.104 45.8616 172.918 45.6518 172.733 45.4419C172.531 45.224 172.329 45.006 172.119 44.7881C171.925 44.5863 171.724 44.3846 171.53 44.1908C171.312 43.981 171.094 43.7792 170.876 43.5774C170.666 43.3918 170.456 43.1981 170.246 43.0205C170.02 42.8268 169.778 42.6331 169.544 42.4474C169.326 42.2698 169.1 42.1004 168.874 41.9309C168.632 41.7533 168.382 41.5757 168.132 41.3981C167.898 41.2367 167.664 41.0753 167.421 40.9219C167.163 40.7524 166.897 40.5991 166.63 40.4376C166.38 40.2924 166.138 40.1471 165.88 40.0099C165.605 39.8565 165.331 39.7193 165.048 39.5821C164.79 39.4529 164.532 39.3238 164.266 39.2027C163.975 39.0736 163.684 38.9444 163.386 38.8234C163.119 38.7104 162.845 38.5974 162.57 38.4924C162.272 38.3794 161.957 38.2745 161.65 38.1696C161.368 38.0727 161.085 37.9759 160.803 37.8952C160.488 37.7983 160.165 37.7176 159.842 37.6369C159.552 37.5642 159.261 37.4835 158.963 37.4189C158.632 37.3463 158.293 37.2898 157.954 37.2252C157.647 37.1687 157.348 37.1122 157.042 37.0638C156.695 37.0154 156.347 36.975 155.992 36.9427C155.677 36.9104 155.371 36.8701 155.048 36.8459C154.685 36.8217 154.321 36.8055 153.95 36.7974C153.627 36.7813 153.313 36.7652 152.99 36.7652C152.344 36.7652 151.682 36.7652 151.012 36.8136C150.738 36.8297 150.471 36.8378 150.213 36.8459C150.132 36.8459 150.052 36.8459 149.971 36.8459C149.801 36.8459 149.632 36.8459 149.47 36.8459C149.446 36.8459 149.422 36.8459 149.398 36.8459C149.366 36.8459 149.341 36.8459 149.317 36.8459C148.938 36.8459 148.566 36.8378 148.227 36.8136C148.211 36.8136 148.195 36.8136 148.179 36.8136C147.84 36.7894 147.517 36.7571 147.218 36.7167C147.202 36.7167 147.186 36.7167 147.17 36.7167C146.88 36.6764 146.605 36.6199 146.347 36.5553C146.315 36.5553 146.282 36.5392 146.258 36.5311C146.016 36.4665 145.79 36.3939 145.58 36.3132C145.548 36.297 145.515 36.289 145.483 36.2728C145.281 36.1921 145.096 36.1033 144.926 36.0065C144.894 35.9903 144.87 35.9742 144.837 35.95C144.668 35.845 144.515 35.7401 144.377 35.619C144.353 35.6029 144.329 35.5787 144.305 35.5545C144.168 35.4334 144.038 35.3042 143.925 35.167C143.909 35.1428 143.893 35.1267 143.877 35.1025C143.764 34.9572 143.659 34.8038 143.57 34.6424C143.562 34.6262 143.554 34.6101 143.546 34.594C143.457 34.4245 143.377 34.2469 143.304 34.0612C143.304 34.0612 143.304 34.0451 143.296 34.037C143.223 33.8433 143.167 33.6415 143.11 33.4397C143.11 33.4155 143.094 33.3913 143.094 33.3671C143.046 33.1653 143.005 32.9474 142.973 32.7295C142.973 32.6972 142.965 32.6649 142.957 32.6245C142.924 32.4066 142.9 32.1806 142.884 31.9385C142.884 31.8981 142.884 31.8578 142.876 31.8174C142.86 31.5833 142.844 31.3331 142.836 31.0829C142.836 31.0425 142.836 30.9941 142.836 30.9538C142.828 30.6955 142.82 30.4291 142.82 30.1547C142.82 30.1143 142.82 30.074 142.82 30.0336C142.82 29.7511 142.82 29.4525 142.82 29.1538C142.82 29.1296 142.82 29.0973 142.82 29.0651C142.82 28.7503 142.828 28.4274 142.836 28.0884C142.836 27.5557 142.836 27.023 142.811 26.4984C142.811 26.3289 142.787 26.1594 142.779 25.9979C142.755 25.6428 142.731 25.2796 142.699 24.9244C142.682 24.7307 142.658 24.537 142.634 24.3433C142.594 24.0124 142.553 23.6895 142.505 23.3586C142.473 23.1649 142.448 22.9712 142.416 22.7774C142.359 22.4465 142.295 22.1156 142.222 21.7847C142.182 21.6152 142.15 21.4376 142.109 21.2681C142.021 20.8645 141.916 20.461 141.803 20.0655C141.778 19.9767 141.754 19.8879 141.73 19.791C141.593 19.3068 141.439 18.8305 141.278 18.3624C141.23 18.2171 141.173 18.0718 141.117 17.9185C140.996 17.5956 140.882 17.2728 140.753 16.958C140.681 16.7804 140.608 16.6028 140.527 16.4253C140.406 16.1428 140.277 15.8603 140.148 15.5778C140.067 15.4002 139.978 15.2226 139.89 15.0451C139.752 14.7706 139.615 14.4962 139.47 14.2299C139.381 14.0604 139.292 13.8909 139.204 13.7294C139.034 13.4308 138.857 13.1321 138.679 12.8416C138.606 12.7124 138.526 12.5833 138.453 12.4622C138.195 12.0586 137.936 11.6632 137.662 11.2677C137.573 11.1466 137.484 11.0255 137.396 10.9044C137.202 10.63 137 10.3637 136.79 10.0973C136.669 9.94394 136.548 9.79866 136.427 9.6453C136.241 9.41931 136.056 9.19331 135.87 8.97538C135.741 8.82202 135.604 8.66867 135.467 8.52338C135.273 8.31353 135.079 8.10367 134.885 7.90188C134.748 7.7566 134.611 7.61131 134.466 7.4741C134.248 7.25617 134.03 7.05439 133.804 6.84453C133.675 6.72346 133.554 6.60239 133.424 6.48939C133.077 6.18268 132.73 5.87596 132.367 5.59347C132.27 5.51275 132.165 5.44011 132.068 5.3594C131.794 5.14954 131.52 4.93161 131.245 4.72983C131.092 4.61683 130.938 4.5119 130.785 4.40698C130.551 4.24555 130.317 4.08412 130.075 3.93076C129.905 3.82583 129.736 3.72091 129.566 3.61598C129.332 3.47069 129.09 3.33348 128.848 3.19627C128.678 3.09941 128.501 3.00255 128.331 2.9057C128.073 2.76848 127.815 2.63934 127.556 2.5102C127.395 2.42948 127.242 2.34877 127.08 2.27613C126.717 2.10663 126.346 1.9452 125.974 1.79184C125.886 1.75149 125.789 1.7192 125.7 1.67884C125.304 1.52549 124.901 1.37213 124.497 1.24299C124.336 1.18649 124.174 1.14614 124.013 1.08964C123.722 1.00085 123.44 0.912066 123.149 0.831352C122.972 0.782924 122.786 0.734491 122.609 0.694134C122.326 0.621491 122.052 0.556922 121.769 0.500422C121.583 0.460065 121.406 0.42778 121.22 0.387423C120.922 0.330923 120.631 0.290566 120.333 0.242138C120.163 0.217924 119.993 0.193713 119.824 0.169498C119.453 0.12107 119.073 0.0887806 118.694 0.0645664C118.597 0.0645664 118.508 0.0484246 118.411 0.0403532C117.935 0.0161391 117.459 0 116.975 0C116.902 0 116.829 0 116.749 0C116.345 0 115.933 0.0242122 115.53 0.0484264C115.441 0.0484264 115.352 0.056495 115.272 0.0645664C114.82 0.104923 114.359 0.153354 113.907 0.217925C113.819 0.234068 113.722 0.250213 113.633 0.258284C113.213 0.322855 112.786 0.395492 112.366 0.492349C112.309 0.508492 112.253 0.516564 112.196 0.524635C111.736 0.621492 111.276 0.742563 110.816 0.871705C110.711 0.903991 110.606 0.936277 110.501 0.960491C110.033 1.0977 109.565 1.25106 109.097 1.42056C109.04 1.44477 108.984 1.46092 108.919 1.47706C108.169 1.75149 107.418 2.00977 106.675 2.25191C106.345 2.35684 106.022 2.44563 105.699 2.54248C105.231 2.68777 104.763 2.83306 104.294 2.9622C103.931 3.06713 103.568 3.14784 103.205 3.23662C102.785 3.34155 102.357 3.46262 101.938 3.55948C101.566 3.64826 101.203 3.71284 100.84 3.79355C100.428 3.88233 100.016 3.97112 99.6048 4.05183C99.2254 4.12448 98.8542 4.17291 98.483 4.23748C98.0875 4.30205 97.692 4.37469 97.2965 4.43119C96.9252 4.47962 96.5619 4.51997 96.1906 4.56033C95.7951 4.60876 95.3915 4.65719 94.996 4.69755C94.6409 4.72983 94.2857 4.74597 93.9305 4.77019C93.5189 4.80247 93.1155 4.83476 92.7038 4.8509C92.3487 4.86704 92.0016 4.86704 91.6464 4.87511C91.2509 4.88318 90.8555 4.89933 90.468 4.89933C90.4519 4.89933 90.4357 4.89933 90.4196 4.89933C90.024 4.89933 89.6205 4.88318 89.225 4.87511C88.8618 4.86704 88.4904 4.86704 88.1272 4.8509C87.7317 4.83476 87.3443 4.7944 86.9488 4.77019C86.5775 4.74597 86.2063 4.72983 85.8269 4.68947C85.4395 4.65719 85.0438 4.60069 84.6564 4.56033C84.277 4.51997 83.8978 4.47962 83.5184 4.43119C83.131 4.38276 82.7436 4.31012 82.3481 4.25362C81.9606 4.19712 81.5813 4.14062 81.1939 4.07605C80.7903 4.0034 80.3948 3.91462 79.9913 3.84198C79.6119 3.76933 79.2405 3.69669 78.8611 3.61598C78.4495 3.52719 78.0297 3.42226 77.61 3.31733C77.2387 3.22855 76.8675 3.14784 76.4962 3.05098C76.0281 2.92991 75.56 2.7927 75.0918 2.66355C74.7609 2.57477 74.4381 2.49405 74.1152 2.3972C73.4856 2.21155 72.8479 2.00977 72.2183 1.80799C72.0407 1.75149 71.8713 1.70306 71.7018 1.64656C71.1449 1.46899 70.596 1.30756 70.0471 1.17035C69.9503 1.14613 69.8533 1.12192 69.7565 1.0977C69.2318 0.968561 68.7072 0.855561 68.1826 0.750633C68.0777 0.726419 67.9728 0.710276 67.8679 0.694134C67.3352 0.597277 66.8103 0.516569 66.2857 0.460069C66.2292 0.460069 66.1808 0.451994 66.1324 0.443923C65.6239 0.387423 65.1236 0.347065 64.6231 0.322851C64.5424 0.322851 64.4697 0.314782 64.389 0.30671C63.9047 0.282496 63.4123 0.282497 62.9361 0.282497C62.7263 0.282497 62.5245 0.290566 62.3227 0.298637C61.9837 0.306709 61.6366 0.330923 61.2976 0.355137C61.0958 0.37128 60.8859 0.387422 60.6841 0.411636C60.3371 0.443922 59.998 0.492353 59.659 0.540781C59.4734 0.564996 59.2797 0.589209 59.0941 0.621494C58.7147 0.686065 58.3354 0.758705 57.9642 0.839419C57.8269 0.871704 57.6816 0.895919 57.5444 0.928205C57.0278 1.04928 56.5192 1.17842 56.0107 1.33177C55.9704 1.34792 55.9301 1.36406 55.8816 1.37213C55.4216 1.50935 54.9777 1.6627 54.5257 1.82413C54.3723 1.88063 54.227 1.93713 54.0817 1.99363C53.7427 2.12277 53.4037 2.25998 53.0728 2.40527C52.9033 2.47791 52.7418 2.55863 52.5803 2.63127C52.2656 2.77655 51.9589 2.92991 51.6522 3.08327C51.4908 3.16398 51.3293 3.25277 51.1678 3.34155C50.8611 3.51105 50.5545 3.68862 50.2478 3.86619C50.1025 3.95497 49.9652 4.03569 49.82 4.12447C49.4648 4.3424 49.1258 4.57648 48.7787 4.81055C48.698 4.86705 48.6092 4.92354 48.5284 4.98004C48.1007 5.28676 47.6811 5.60154 47.2694 5.93247C47.2129 5.97283 47.1644 6.02125 47.1079 6.06968C46.7608 6.35218 46.422 6.64275 46.091 6.94139C45.97 7.04632 45.8568 7.15932 45.7438 7.26425C45.4775 7.51446 45.2192 7.76467 44.969 8.02295C44.8398 8.1521 44.7188 8.28124 44.5977 8.41845C44.3637 8.66866 44.1295 8.92695 43.8954 9.19331C43.7743 9.33052 43.6614 9.46773 43.5403 9.60495C43.3062 9.87937 43.0804 10.1699 42.8624 10.4524C42.7656 10.5816 42.6606 10.7107 42.5637 10.8399C42.2973 11.195 42.0391 11.5663 41.7889 11.9376C41.7485 12.0021 41.7 12.0667 41.6596 12.1313C41.369 12.5752 41.0867 13.0353 40.8203 13.4954C40.7638 13.5922 40.7072 13.6971 40.6587 13.794C40.457 14.1572 40.2552 14.5204 40.0695 14.8917C39.9888 15.0531 39.9164 15.2146 39.8356 15.376C39.6823 15.6988 39.5289 16.0217 39.3836 16.3526C39.3029 16.5302 39.2302 16.7158 39.1576 16.8934C39.0284 17.2163 38.8993 17.5472 38.7782 17.8781C38.7137 18.0638 38.641 18.2494 38.5764 18.435C38.4554 18.7821 38.3422 19.1373 38.2373 19.5005C38.1889 19.67 38.1324 19.8395 38.084 20.009C37.9548 20.4771 37.8338 20.9533 37.7208 21.4295C37.7047 21.4941 37.6885 21.5506 37.6723 21.6152C37.5513 22.156 37.4464 22.7048 37.3576 23.2617C37.3334 23.4232 37.3172 23.5846 37.293 23.7379C37.2365 24.1334 37.18 24.537 37.1397 24.9325C37.1155 25.1424 37.0993 25.3442 37.0831 25.554C37.0508 25.9172 37.0268 26.2804 37.0106 26.6517C37.0025 26.8777 36.9945 27.0956 36.9864 27.3216C36.9783 27.6849 36.9783 28.0561 36.9864 28.4194C36.9864 28.6373 36.9864 28.8633 36.9945 29.0812C37.0106 29.4767 37.0347 29.8803 37.0589 30.2838C37.075 30.4776 37.0832 30.6632 37.0993 30.8569C37.1558 31.4542 37.2204 32.0515 37.3092 32.6488C37.5029 33.9321 38.2213 35.1912 38.2052 36.4827C38.2052 36.8943 38.1082 37.3059 37.9145 37.7257C37.8257 37.9113 37.729 38.0969 37.5917 38.2826C37.0025 38.0727 36.381 37.8952 35.7433 37.7418C35.6949 37.7337 35.6465 37.7176 35.5981 37.7095C35.0008 37.5723 34.3874 37.4512 33.7578 37.3544C33.6932 37.3463 33.6206 37.3382 33.556 37.3221C32.9264 37.2333 32.2887 37.1607 31.6349 37.1122C31.5784 37.1122 31.5138 37.1042 31.4573 37.0961C30.7713 37.0477 30.069 37.0234 29.3668 37.0234C29.3506 37.0234 29.3265 37.0234 29.3104 37.0234C28.8826 37.0234 28.4628 37.0315 28.035 37.0477C27.922 37.0477 27.8091 37.0557 27.688 37.0638C27.3329 37.0799 26.9777 37.1042 26.6225 37.1284C26.5337 37.1284 26.4449 37.1364 26.3642 37.1445C25.9364 37.1768 25.5087 37.2252 25.0809 37.2737C24.976 37.2898 24.871 37.2979 24.758 37.314C24.4109 37.3624 24.0719 37.4109 23.7248 37.4593C23.6118 37.4754 23.5069 37.4916 23.3939 37.5077C22.9742 37.5804 22.5464 37.653 22.1347 37.7418C22.054 37.7579 21.9652 37.7741 21.8845 37.7983C21.5374 37.8709 21.1905 37.9517 20.8434 38.0324C20.7223 38.0566 20.6092 38.0889 20.4881 38.1212C20.0765 38.2261 19.665 38.331 19.2534 38.4521C19.2211 38.4602 19.1887 38.4682 19.1564 38.4844C18.777 38.5974 18.4058 38.7104 18.0346 38.8314C17.9216 38.8718 17.8084 38.9041 17.6954 38.9444C17.3483 39.0655 17.0093 39.1866 16.6784 39.3077C16.6219 39.3319 16.5654 39.348 16.5009 39.3722C16.1215 39.5175 15.7503 39.6709 15.379 39.8323C15.2821 39.8726 15.1771 39.9211 15.0803 39.9695C14.7816 40.1067 14.4912 40.2439 14.2006 40.3811C14.1199 40.4215 14.0391 40.4538 13.9665 40.4941C13.6194 40.6717 13.2804 40.8493 12.9414 41.043C12.8607 41.0834 12.788 41.1318 12.7154 41.1802C12.449 41.3336 12.1827 41.495 11.9325 41.6645C11.8518 41.7129 11.771 41.7694 11.6903 41.8179C11.3836 42.0196 11.0768 42.2295 10.7943 42.4474C10.7458 42.4797 10.7055 42.5201 10.6571 42.5523C10.415 42.738 10.1729 42.9317 9.94691 43.1254C9.87427 43.19 9.80162 43.2465 9.73705 43.3111C9.47876 43.5451 9.22033 43.7792 8.98626 44.0213C8.46161 44.5621 7.9532 45.119 7.46083 45.676C7.0734 46.1118 6.70201 46.5558 6.34687 47.0077C6.09665 47.3225 5.8465 47.6373 5.60435 47.9602C5.20078 48.501 4.8134 49.0498 4.44211 49.5987C3.15067 51.5358 2.1094 53.5375 1.36683 55.6038C0.939038 56.7822 0.608139 57.9848 0.390209 59.1955C0.333708 59.5023 0.285335 59.8009 0.244977 60.1076C0.115834 61.0278 0.0512695 61.956 0.0512695 62.8842C0.0512695 63.199 0.0512932 63.5057 0.0755076 63.8204C0.115865 64.7567 0.228795 65.7092 0.406367 66.6616C0.462868 66.9764 0.535511 67.2992 0.608155 67.614C0.987514 69.2121 1.56861 70.8264 2.36768 72.4488C3.10219 73.9339 3.73184 75.4029 4.26456 76.8477C5.06364 79.0189 5.64474 81.1497 6.03217 83.2644C6.29045 84.6769 6.45198 86.0813 6.53269 87.4777C6.73448 90.9807 6.39535 94.4836 5.59628 98.0835C4.95863 100.965 4.02239 103.903 2.82781 106.954C2.82781 106.962 2.8278 106.97 2.81973 106.978C2.57759 107.592 2.35961 108.205 2.1659 108.81C2.10132 109.02 2.05292 109.222 1.98835 109.432C1.86727 109.835 1.73819 110.247 1.64133 110.643C1.57676 110.885 1.53644 111.127 1.47994 111.377C1.39922 111.732 1.3104 112.095 1.24583 112.451C1.1974 112.709 1.165 112.967 1.12464 113.225C1.07621 113.564 1.01169 113.895 0.971332 114.226C0.939046 114.493 0.92284 114.751 0.906697 115.009C0.882482 115.332 0.842243 115.647 0.8261 115.97C0.809957 116.236 0.818013 116.494 0.809942 116.761C0.809942 117.067 0.793783 117.374 0.793783 117.681C0.793783 117.947 0.818029 118.205 0.8261 118.464C0.842243 118.762 0.850362 119.061 0.874576 119.352C0.898791 119.61 0.930967 119.868 0.963252 120.126C0.995538 120.409 1.02793 120.7 1.06828 120.982C1.10864 121.24 1.15701 121.491 1.20544 121.749C1.25387 122.023 1.30225 122.306 1.36683 122.58C1.42333 122.83 1.48788 123.081 1.55245 123.331C1.61703 123.597 1.68968 123.872 1.76232 124.13C1.83496 124.38 1.91571 124.622 1.99643 124.864C2.07714 125.123 2.16598 125.381 2.25477 125.639C2.34355 125.881 2.44029 126.115 2.53715 126.349C2.63401 126.6 2.73097 126.85 2.84397 127.1C2.9489 127.334 3.05375 127.56 3.16675 127.786C3.27975 128.028 3.39289 128.27 3.51397 128.513C3.62697 128.739 3.75607 128.957 3.87714 129.174C4.00629 129.409 4.13542 129.643 4.26456 129.869C4.3937 130.087 4.53092 130.296 4.66813 130.514C4.81342 130.74 4.95066 130.958 5.09595 131.176C5.24123 131.386 5.38655 131.588 5.53184 131.79C5.6852 131.999 5.83842 132.217 5.99985 132.419C6.15321 132.621 6.3147 132.815 6.46806 133.008C6.62949 133.21 6.79889 133.412 6.96839 133.606C7.12982 133.791 7.29941 133.977 7.46891 134.163C7.64649 134.356 7.82399 134.542 8.00156 134.728C8.17913 134.905 8.35683 135.083 8.53441 135.252C8.72005 135.43 8.90565 135.615 9.09937 135.785C9.28501 135.954 9.47061 136.116 9.65625 136.277C9.84997 136.447 10.0517 136.616 10.2455 136.778C10.4392 136.939 10.6329 137.084 10.8347 137.238C11.0364 137.391 11.2463 137.553 11.4481 137.706C11.6499 137.851 11.8517 137.996 12.0615 138.134C12.2714 138.279 12.4894 138.424 12.6992 138.561C12.9091 138.699 13.119 138.828 13.3288 138.949C13.5467 139.086 13.7728 139.215 13.9907 139.344C14.2006 139.465 14.4184 139.587 14.6363 139.7C14.8623 139.821 15.0884 139.942 15.3225 140.055C15.5404 140.16 15.7584 140.265 15.9844 140.369C16.2184 140.474 16.4524 140.579 16.6865 140.684C16.9125 140.781 17.1386 140.87 17.3646 140.959C17.5986 141.056 17.8407 141.144 18.0828 141.233C18.3088 141.314 18.543 141.395 18.769 141.467C19.0111 141.548 19.2532 141.621 19.4953 141.693C19.7294 141.766 19.9555 141.83 20.1896 141.887C20.4317 141.951 20.6819 142.016 20.9321 142.073C21.1662 142.129 21.4003 142.177 21.6344 142.226C21.8846 142.274 22.1348 142.323 22.385 142.363C22.6191 142.403 22.8611 142.444 23.0952 142.476C23.3454 142.508 23.5958 142.541 23.846 142.565C24.0801 142.589 24.3221 142.613 24.5562 142.629C24.8064 142.646 25.0566 142.662 25.3149 142.678C25.5489 142.686 25.7912 142.694 26.0252 142.702C26.4207 142.702 26.8162 142.71 27.2117 142.702C27.2198 142.702 27.2279 142.702 27.244 142.702C27.688 142.686 28.1158 142.678 28.5275 142.678C28.5436 142.678 28.5596 142.678 28.5758 142.678C28.7372 142.678 28.8825 142.678 29.0359 142.686C29.3023 142.686 29.5767 142.694 29.835 142.71C29.9964 142.718 30.1498 142.734 30.3032 142.751C30.5292 142.767 30.755 142.783 30.973 142.815C31.1263 142.831 31.2717 142.864 31.4169 142.88C31.6107 142.912 31.8124 142.944 31.9981 142.985C32.1353 143.017 32.2725 143.049 32.4016 143.081C32.5711 143.13 32.7488 143.17 32.9102 143.227C33.0394 143.267 33.1604 143.316 33.2815 143.364C33.4349 143.42 33.5802 143.485 33.7255 143.55C33.8385 143.606 33.9514 143.663 34.0563 143.719C34.1855 143.792 34.3146 143.864 34.4357 143.945C34.5325 144.01 34.6295 144.082 34.7263 144.155C34.8393 144.244 34.9523 144.333 35.0572 144.429C35.146 144.51 35.2267 144.591 35.3074 144.68C35.4043 144.785 35.5012 144.898 35.59 145.011C35.6627 145.099 35.7353 145.196 35.7999 145.301C35.8806 145.422 35.9612 145.551 36.0338 145.689C36.0903 145.793 36.1549 145.898 36.2114 146.011C36.284 146.157 36.3407 146.302 36.4053 146.455C36.4537 146.576 36.5021 146.697 36.5505 146.819C36.607 146.98 36.6554 147.158 36.7038 147.327C36.7442 147.456 36.7765 147.585 36.8088 147.731C36.8492 147.916 36.8895 148.118 36.9217 148.32C36.946 148.465 36.9783 148.602 37.0025 148.748C37.0348 148.966 37.0589 149.2 37.0831 149.434C37.0993 149.579 37.1155 149.724 37.1316 149.878C37.1558 150.144 37.172 150.435 37.1801 150.717C37.1801 150.854 37.1963 150.983 37.2043 151.121C37.2205 151.556 37.2284 152.008 37.2284 152.477C37.2284 153.058 37.2446 153.631 37.2849 154.204C37.293 154.381 37.3092 154.551 37.3253 154.72C37.3576 155.124 37.3979 155.528 37.4463 155.923C37.4705 156.109 37.4948 156.286 37.519 156.472C37.5836 156.9 37.6563 157.327 37.737 157.755C37.7612 157.876 37.7774 157.997 37.8016 158.118C37.9146 158.651 38.0437 159.184 38.1809 159.709C38.2132 159.838 38.2535 159.967 38.2939 160.088C38.4069 160.483 38.5279 160.879 38.6651 161.266C38.7216 161.436 38.7781 161.597 38.8427 161.767C38.9718 162.13 39.1171 162.485 39.2624 162.84C39.327 162.986 39.3835 163.139 39.448 163.284C39.6579 163.768 39.8759 164.253 40.118 164.721C40.1342 164.753 40.1504 164.785 40.1665 164.81C40.3925 165.246 40.6265 165.681 40.8767 166.101C40.9574 166.246 41.0462 166.384 41.135 166.521C41.3288 166.836 41.5225 167.15 41.7323 167.457C41.8292 167.602 41.918 167.74 42.023 167.885C42.257 168.224 42.4991 168.563 42.7493 168.886C42.8139 168.974 42.8785 169.063 42.943 169.144C43.2578 169.548 43.5887 169.951 43.9277 170.339C44.0165 170.443 44.1135 170.54 44.2022 170.637C44.4605 170.928 44.7269 171.202 44.9932 171.485C45.1143 171.606 45.2353 171.727 45.3564 171.848C45.6228 172.106 45.8891 172.364 46.1636 172.615C46.2766 172.72 46.3895 172.825 46.5025 172.921C46.8899 173.26 47.2775 173.591 47.6811 173.906C47.7295 173.946 47.786 173.979 47.8344 174.019C48.1895 174.294 48.5526 174.568 48.9239 174.826C49.0612 174.923 49.1903 175.012 49.3275 175.101C49.6262 175.302 49.933 175.504 50.2316 175.69C50.3769 175.779 50.5141 175.867 50.6594 175.956C51.0146 176.174 51.3779 176.376 51.7411 176.578C51.8299 176.626 51.9104 176.675 51.9911 176.715C52.4431 176.949 52.8953 177.175 53.3554 177.385C53.4845 177.441 53.6136 177.498 53.7428 177.554C54.0818 177.708 54.4287 177.853 54.7758 177.99C54.9372 178.055 55.0987 178.111 55.252 178.176C55.5991 178.305 55.9462 178.426 56.3014 178.547C56.4386 178.596 56.5758 178.644 56.713 178.684C57.1973 178.838 57.6817 178.975 58.174 179.096C58.2547 179.112 58.3272 179.128 58.4079 179.152C58.8276 179.257 59.2474 179.346 59.6671 179.427C59.8286 179.459 59.9901 179.483 60.1515 179.516C60.5066 179.58 60.8618 179.629 61.217 179.677C61.3784 179.701 61.5397 179.718 61.7092 179.742C62.137 179.79 62.5649 179.83 62.9927 179.855C63.0734 179.855 63.1541 179.871 63.2349 179.871C63.7353 179.895 64.2437 179.903 64.7441 179.903C64.9459 179.903 65.1477 179.887 65.3576 179.887C65.6885 179.879 66.0275 179.863 66.3584 179.839C66.5763 179.822 66.8024 179.798 67.0203 179.782L66.9719 179.863ZM62.2661 154.664C61.4993 153.897 61.4026 153.211 61.4026 152.638C61.4107 148.699 61.451 136.713 52.3222 127.552C46.3654 121.579 38.3505 118.544 28.5032 118.544C27.8252 118.544 27.1149 118.561 26.3965 118.585C26.0091 118.488 25.3069 118.044 25.0244 117.544C24.8226 117.18 25.2745 115.986 25.331 115.849C32.8133 96.7598 32.5954 79.9229 24.6208 62.981C24.8226 62.6905 25.089 62.3272 25.4441 61.9075C26.3078 61.6089 27.7849 61.2618 29.3104 61.2618C29.6333 61.2618 29.8591 61.278 29.9883 61.2941C32.4824 62.1174 35.0411 62.5129 37.5675 62.5129C45.1951 62.5129 52.5642 58.905 57.2134 52.464C60.8052 47.484 64.3083 39.2915 61.1685 28.153C61.1362 26.5306 61.7173 25.5782 62.1047 25.1262C62.6374 24.5128 63.033 24.5128 63.1864 24.5128C63.372 24.5128 63.7029 24.5451 64.1872 24.7065C73.3807 27.6929 81.9607 29.1458 90.4357 29.1458C99.3224 29.1458 108.015 27.5638 116.999 24.3191C117.572 24.7227 118.637 25.8849 118.605 27.7171V27.7656C118.524 33.351 118.371 43.7469 126.87 52.3752C132.536 58.1301 140.116 61.0439 149.398 61.0439C150.35 61.0439 151.359 61.0116 152.392 60.9551C152.538 60.9551 152.675 60.939 152.804 60.939C153.991 60.939 154.418 61.2053 154.87 61.7703C155.597 62.6662 155.831 63.8527 155.782 64.3774C149.987 74.8863 145.144 91.9412 154.531 113.863C155.419 115.945 155.25 117.116 155.032 117.447C154.733 117.899 153.425 118.577 151.061 118.577H150.98H150.697C147.057 118.577 135.983 118.577 127.242 127.399C125.07 129.586 118.476 136.245 118.605 151.096C118.629 153.671 118.064 155.011 117.79 155.398C117.693 155.423 117.491 155.455 117.185 155.455C116.555 155.455 115.207 155.318 113.165 154.398C105.658 151.016 97.8372 149.305 89.919 149.305C81.1211 149.305 72.4363 151.524 64.8088 155.713C64.728 155.754 64.6795 155.778 64.5343 155.778C63.9531 155.778 62.9845 155.39 62.25 154.664H62.2661Z" fill="current"/>
<mask id="mask0_3125_6141" style="mask-type:luminance" maskUnits="userSpaceOnUse" x="0" y="0" width="180" height="180">
<path d="M116.991 24.311C117.564 24.7146 118.629 25.8769 118.597 27.7091V27.7575C118.516 33.3429 118.363 43.7388 126.862 52.3671C132.528 58.122 140.107 61.0358 149.39 61.0358C150.342 61.0358 151.351 61.0035 152.384 60.947C152.529 60.947 152.667 60.9309 152.796 60.9309C153.982 60.9309 154.41 61.1972 154.862 61.7622C155.588 62.6582 155.822 63.8447 155.774 64.3693C149.979 74.8783 145.136 91.9331 154.523 113.855C155.411 115.937 155.241 117.108 155.023 117.439C154.725 117.891 153.417 118.569 151.052 118.569H150.972H150.689C147.049 118.569 135.975 118.569 127.233 127.391C125.062 129.578 118.468 136.237 118.597 151.088C118.621 153.663 118.056 155.003 117.782 155.39C117.685 155.415 117.483 155.447 117.176 155.447C116.547 155.447 115.199 155.31 113.157 154.389C105.65 151.008 97.8288 149.296 89.9107 149.296C81.1127 149.296 72.4279 151.516 64.8004 155.705C64.7197 155.745 64.6712 155.77 64.5259 155.77C63.9447 155.77 62.9761 155.382 62.2416 154.656C61.4748 153.889 61.3781 153.203 61.3781 152.63C61.3862 148.691 61.4265 136.705 52.2977 127.544C46.3409 121.571 38.3259 118.536 28.4787 118.536C27.8007 118.536 27.0903 118.553 26.372 118.577C25.9845 118.48 25.2824 118.036 24.9999 117.536C24.7981 117.172 25.2502 115.978 25.3067 115.841C32.7889 96.7517 32.5709 79.9148 24.5963 62.973C24.7981 62.6824 25.0644 62.3192 25.4196 61.8995C26.2832 61.6008 27.7604 61.2538 29.2859 61.2538C29.6087 61.2538 29.8346 61.2699 29.9637 61.286C32.4578 62.1093 35.0166 62.5048 37.543 62.5048C45.1705 62.5048 52.5399 58.8969 57.189 52.4559C60.7808 47.4759 64.2838 39.2834 61.144 28.1449C61.1117 26.5226 61.6928 25.5701 62.0802 25.1182C62.6129 24.5047 63.0085 24.5047 63.1618 24.5047C63.3475 24.5047 63.6784 24.537 64.1627 24.6984C73.3561 27.6849 81.9361 29.1377 90.4112 29.1377C99.2979 29.1377 107.991 27.5557 116.974 24.311M117.055 0C114.424 0 111.736 0.460068 109.056 1.43671C102.575 3.80969 96.4971 4.92354 90.4273 4.92354C84.3576 4.92354 78.1829 3.78548 71.6611 1.67078C68.7716 0.734496 65.9223 0.290564 63.178 0.290564C47.2288 0.290564 34.6775 15.0773 37.2846 32.6568C37.5591 34.5213 38.9716 36.3374 37.5591 38.2907C35.1215 37.4432 32.2642 37.0396 29.2939 37.0396C21.6341 37.0396 13.1833 39.687 8.94577 44.0617C1.05993 52.1896 -2.7984 62.1013 2.31892 72.5053C8.16267 84.4025 7.55735 94.7984 2.77097 107.01C-4.96959 126.745 10.7457 142.799 26.2995 142.799C26.59 142.799 26.8885 142.799 27.1791 142.783C27.6311 142.767 28.0751 142.759 28.4868 142.759C35.2991 142.759 37.1959 145.212 37.1717 152.565C37.1233 168.458 50.5542 180 64.534 180C68.5697 180 72.6539 179.04 76.4717 176.941C80.6689 174.633 85.2534 173.527 89.9187 173.527C94.584 173.527 98.9023 174.544 103.229 176.489C108.047 178.66 112.777 179.677 117.192 179.677C131.794 179.677 142.981 168.522 142.827 150.895C142.771 144.534 144.563 142.807 150.705 142.807C150.762 142.807 150.818 142.807 150.875 142.807C150.939 142.807 151.004 142.807 151.06 142.807C172.555 142.807 185.203 123.993 176.792 104.347C172.603 94.5724 171.909 85.1935 177.067 75.9437C185.606 60.6242 174.895 36.7329 152.804 36.7329C152.215 36.7329 151.617 36.749 151.012 36.7813C150.431 36.8136 149.898 36.8297 149.398 36.8297C142.666 36.8297 142.73 33.8433 142.819 28.0723C143.045 12.6317 130.89 0 117.063 0H117.055Z" fill="current"/>
</mask>
<g mask="url(#mask0_3125_6141)">
<path opacity='1' d="M90.4348 92.804V-44.3047" stroke="white" stroke-miterlimit="10"/>
<path opacity='1' d="M90.4359 92.804L78.4896 -43.7881" stroke="white" stroke-miterlimit="10"/>
<path opacity='1' d="M90.4354 92.8045L66.6318 -42.2217" stroke="white" stroke-miterlimit="10"/>
<path opacity='1' d="M90.4353 92.8047L54.9531 -39.6387" stroke="white" stroke-miterlimit="10"/>
<path opacity='1' d="M90.4345 92.8045L43.5391 -36.0391" stroke="white" stroke-miterlimit="10"/>
<path opacity='1' d="M90.4353 92.8042L32.4901 -31.4629" stroke="white" stroke-miterlimit="10"/>
<path opacity='1' d="M90.4345 92.8038L21.8833 -25.9424" stroke="white" stroke-miterlimit="10"/>
<path opacity='1' d="M90.435 92.8036L11.7944 -19.5098" stroke="white" stroke-miterlimit="10"/>
<path opacity='1' d="M90.4347 92.8044L2.30225 -12.2285" stroke="white" stroke-miterlimit="10"/>
<path opacity='1' d="M90.4348 92.8041L-6.5199 -4.14941" stroke="white" stroke-miterlimit="10"/>
<path opacity='1' d="M90.4355 92.8033L-14.5988 4.67188" stroke="white" stroke-miterlimit="10"/>
<path opacity='1' d="M90.4349 92.8038L-21.8799 14.1562" stroke="white" stroke-miterlimit="10"/>
<path opacity='1' d="M90.4347 92.8035L-28.3049 24.2451" stroke="white" stroke-miterlimit="10"/>
<path opacity='1' d="M90.4345 92.8039L-33.8259 34.8594" stroke="white" stroke-miterlimit="10"/>
<path opacity='1' d="M90.4355 92.8039L-38.4097 45.9092" stroke="white" stroke-miterlimit="10"/>
<path opacity='1' d="M90.4352 92.8043L-42.0017 57.3145" stroke="white" stroke-miterlimit="10"/>
<path opacity='1' d="M90.4351 92.8047L-44.5928 68.9941" stroke="white" stroke-miterlimit="10"/>
<path opacity='1' d="M90.4353 92.8039L-46.1503 80.8496" stroke="white" stroke-miterlimit="10"/>
<path opacity='1' d="M90.4351 92.8037H-46.6753" stroke="white" stroke-miterlimit="10"/>
<path opacity='1' d="M90.4353 92.8037L-46.1503 104.758" stroke="white" stroke-miterlimit="10"/>
<path opacity='1' d="M90.4351 92.8037L-44.5928 116.614" stroke="white" stroke-miterlimit="10"/>
<path opacity='1' d="M90.4352 92.8037L-42.0017 128.294" stroke="white" stroke-miterlimit="10"/>
<path opacity='1' d="M90.4355 92.8037L-38.4097 139.698" stroke="white" stroke-miterlimit="10"/>
<path opacity='1' d="M90.4345 92.8037L-33.8259 150.748" stroke="white" stroke-miterlimit="10"/>
<path opacity='1' d="M90.4347 92.8037L-28.3049 161.362" stroke="white" stroke-miterlimit="10"/>
<path opacity='1' d="M90.4349 92.8037L-21.8799 171.451" stroke="white" stroke-miterlimit="10"/>
<path opacity='1' d="M90.4355 92.8037L-14.5988 180.935" stroke="white" stroke-miterlimit="10"/>
<path opacity='1' d="M90.4348 92.8037L-6.5199 189.757" stroke="white" stroke-miterlimit="10"/>
<path opacity='1' d="M90.4347 92.8037L2.30225 197.837" stroke="white" stroke-miterlimit="10"/>
<path opacity='1' d="M90.435 92.8037L11.7944 205.117" stroke="white" stroke-miterlimit="10"/>
<path opacity='1' d="M90.4345 92.8037L21.8833 211.55" stroke="white" stroke-miterlimit="10"/>
<path opacity='1' d="M90.4353 92.8037L32.4901 217.071" stroke="white" stroke-miterlimit="10"/>
<path opacity='1' d="M90.4345 92.8037L43.5391 221.647" stroke="white" stroke-miterlimit="10"/>
<path opacity='1' d="M90.4353 92.8037L54.9531 225.247" stroke="white" stroke-miterlimit="10"/>
<path opacity='1' d="M90.4354 92.8037L66.6318 227.83" stroke="white" stroke-miterlimit="10"/>
<path opacity='1' d="M90.4359 92.8037L78.4896 229.396" stroke="white" stroke-miterlimit="10"/>
<path opacity='1' d="M90.4348 92.8037V229.912" stroke="white" stroke-miterlimit="10"/>
<path opacity='1' d="M90.4348 92.8037L102.389 229.396" stroke="white" stroke-miterlimit="10"/>
<path opacity='1' d="M90.4348 92.8037L114.246 227.83" stroke="white" stroke-miterlimit="10"/>
<path opacity='1' d="M90.4348 92.8037L125.925 225.247" stroke="white" stroke-miterlimit="10"/>
<path opacity='1' d="M90.4348 92.8037L137.33 221.647" stroke="white" stroke-miterlimit="10"/>
<path opacity='1' d="M90.4348 92.8037L148.388 217.071" stroke="white" stroke-miterlimit="10"/>
<path opacity='1' d="M90.4348 92.8037L158.994 211.55" stroke="white" stroke-miterlimit="10"/>
<path opacity='1' d="M90.4348 92.8037L169.083 205.117" stroke="white" stroke-miterlimit="10"/>
<path opacity='1' d="M90.4348 92.8037L178.575 197.837" stroke="white" stroke-miterlimit="10"/>
<path opacity='1' d="M90.4348 92.8037L187.389 189.757" stroke="white" stroke-miterlimit="10"/>
<path opacity='1' d="M90.4348 92.8037L195.477 180.935" stroke="white" stroke-miterlimit="10"/>
<path opacity='1' d="M90.4348 92.8037L202.757 171.451" stroke="white" stroke-miterlimit="10"/>
<path opacity='1' d="M90.4348 92.8037L209.182 161.362" stroke="white" stroke-miterlimit="10"/>
<path opacity='1' d="M90.4348 92.8037L214.703 150.748" stroke="white" stroke-miterlimit="10"/>
<path opacity='1' d="M90.4348 92.8037L219.28 139.698" stroke="white" stroke-miterlimit="10"/>
<path opacity='1' d="M90.4348 92.8037L222.88 128.294" stroke="white" stroke-miterlimit="10"/>
<path opacity='1' d="M90.4348 92.8037L225.471 116.614" stroke="white" stroke-miterlimit="10"/>
<path opacity='1' d="M90.4348 92.8037L227.028 104.758" stroke="white" stroke-miterlimit="10"/>
<path opacity='1' d="M90.4348 92.8037H227.553" stroke="white" stroke-miterlimit="10"/>
<path opacity='1' d="M90.4348 92.8039L227.028 80.8496" stroke="white" stroke-miterlimit="10"/>
<path opacity='1' d="M90.4348 92.8047L225.471 68.9941" stroke="white" stroke-miterlimit="10"/>
<path opacity='1' d="M90.4348 92.8043L222.88 57.3145" stroke="white" stroke-miterlimit="10"/>
<path opacity='1' d="M90.4348 92.8039L219.28 45.9092" stroke="white" stroke-miterlimit="10"/>
<path opacity='1' d="M90.4348 92.8039L214.703 34.8594" stroke="white" stroke-miterlimit="10"/>
<path opacity='1' d="M90.4348 92.8035L209.182 24.2451" stroke="white" stroke-miterlimit="10"/>
<path opacity='1' d="M90.4348 92.8038L202.757 14.1562" stroke="white" stroke-miterlimit="10"/>
<path opacity='1' d="M90.4348 92.8033L195.477 4.67188" stroke="white" stroke-miterlimit="10"/>
<path opacity='1' d="M90.4348 92.8041L187.389 -4.14941" stroke="white" stroke-miterlimit="10"/>
<path opacity='1' d="M90.4348 92.8044L178.575 -12.2285" stroke="white" stroke-miterlimit="10"/>
<path opacity='1' d="M90.4348 92.8036L169.083 -19.5098" stroke="white" stroke-miterlimit="10"/>
<path opacity='1' d="M90.4348 92.8038L158.994 -25.9424" stroke="white" stroke-miterlimit="10"/>
<path opacity='1' d="M90.4348 92.8042L148.388 -31.4629" stroke="white" stroke-miterlimit="10"/>
<path opacity='1' d="M90.4348 92.8045L137.33 -36.0391" stroke="white" stroke-miterlimit="10"/>
<path opacity='1' d="M90.4348 92.8047L125.925 -39.6387" stroke="white" stroke-miterlimit="10"/>
<path opacity='1' d="M90.4348 92.8045L114.246 -42.2217" stroke="white" stroke-miterlimit="10"/>
<path opacity='1' d="M90.4348 92.804L102.389 -43.7881" stroke="white" stroke-miterlimit="10"/>
</g>
</svg>
