<svg xmlns="http://www.w3.org/2000/svg" fill="none" preserveAspectRatio="none" viewBox="0 0 180 180"><path fill="#fff" fill-rule="evenodd" d="M180 0H0v180h180V0Zm-66.819 154.398c-7.504-3.381-15.322-5.092-23.238-5.093-8.795.001-17.477 2.213-25.102 6.408a.486.486 0 0 1-.274.065c-.582 0-1.55-.379-2.285-1.114-.766-.767-.863-1.453-.863-2.026.016-3.939.048-15.925-9.08-25.086-5.957-5.981-13.972-9.007-23.82-9.007-.678 0-1.388.016-2.106.04-.388-.097-1.09-.541-1.372-1.041-.202-.363.25-1.558.306-1.695 7.482-19.097 7.265-35.926-.71-52.868.194-.29.46-.645.823-1.073.864-.299 2.341-.646 3.866-.646.323 0 .55.016.678.032a24.219 24.219 0 0 0 27.225-8.83c3.592-4.98 7.103-13.172 3.956-24.31-.033-1.631.548-2.576.936-3.027.533-.614.928-.614 1.081-.614.186 0 .517.032 1.001.194 9.186 2.986 17.362 4.439 26.249 4.439s17.579-1.582 26.563-4.827c.573.404 1.63 1.566 1.606 3.398v.049c-.089 5.585-.242 15.981 8.265 24.61 5.667 5.754 13.246 8.668 22.528 8.668.952 0 1.961-.032 2.995-.089.145-.016.282-.016.411-.016 1.187 0 1.614.267 2.066.832.727.895.961 2.082.913 2.607-5.796 10.517-10.639 27.563-1.252 49.485.896 2.083.719 3.253.501 3.584-.307.452-1.606 1.13-3.971 1.13h-.364c-3.64 0-14.714 0-23.455 8.822-2.172 2.187-8.766 8.846-8.637 23.698.016 2.574-.549 3.914-.815 4.302a2.617 2.617 0 0 1-.605.056c-.63 0-1.986-.137-4.02-1.057Z" clip-rule="evenodd"/><path fill="current" d="M66.972 179.863c.315-.033.637-.065.952-.105.226-.032.452-.065.678-.105.315-.049.622-.105.936-.17l.679-.145c.314-.072.63-.153.936-.242.218-.065.436-.121.662-.186.323-.096.645-.209.96-.322.21-.073.412-.138.622-.218.347-.138.694-.283 1.041-.436.17-.073.347-.146.525-.226.508-.234 1.009-.485 1.509-.759 0 0 .016 0 .024-.008a.855.855 0 0 1 .113-.057c.484-.258.969-.508 1.461-.742.186-.089.38-.162.573-.25.347-.154.686-.307 1.033-.444.218-.089.444-.162.67-.242.323-.121.646-.243.969-.347.234-.073.476-.138.718-.21.315-.089.63-.186.945-.267.25-.064.5-.113.75-.169.307-.073.622-.145.928-.202.259-.048.517-.081.775-.121.307-.048.614-.105.929-.145.266-.033.524-.057.79-.081.307-.032.614-.065.92-.081.267-.016.541-.024.808-.032.306-.008.613-.024.92-.024h.145c.25 0 .5.016.759.024.258 0 .525.008.783.024.307.016.613.049.92.073.258.024.517.04.775.064.315.033.622.081.936.121.259.033.509.065.767.105.315.049.638.121.953.178.25.048.492.089.742.145.33.073.654.162.977.242.234.057.476.113.71.178.339.097.678.202 1.017.307.218.064.436.129.654.201.371.122.742.267 1.114.404.185.065.363.129.548.202.549.218 1.098.444 1.647.694.63.282 1.251.541 1.873.783.21.081.419.153.629.226.412.153.824.307 1.235.444.25.081.493.153.743.226.371.113.742.226 1.106.331.258.072.516.129.783.193.347.089.702.178 1.049.251.266.056.533.105.799.153.339.065.678.129 1.017.178.266.04.533.08.799.113.331.04.662.08.993.113.266.024.524.048.791.064.323.024.654.041.976.057l.775.024h1.106c.154 0 .307 0 .46-.008a33.168 33.168 0 0 0 1.574-.105c.056 0 .105-.016.162-.016a26.31 26.31 0 0 0 1.388-.186c.161-.024.314-.056.476-.081.363-.064.726-.137 1.09-.218a21.595 21.595 0 0 0 1.767-.46c.049-.016.105-.024.154-.04.484-.145.952-.315 1.42-.484.129-.049.259-.105.388-.154.347-.137.686-.274 1.017-.427.145-.065.282-.13.427-.194.356-.17.703-.347 1.05-.533.097-.048.185-.097.282-.145.436-.242.856-.492 1.275-.759.097-.056.186-.121.275-.185.323-.21.638-.428.952-.662l.372-.275c.298-.226.589-.46.871-.694.105-.081.202-.169.307-.25.38-.323.743-.662 1.098-1.009.048-.04.089-.089.129-.137.307-.307.613-.63.904-.953a6.2 6.2 0 0 0 .299-.347c.242-.282.476-.565.71-.855a9.41 9.41 0 0 0 .274-.355c.299-.388.582-.783.856-1.195a.212.212 0 0 1 .04-.048c.291-.428.557-.872.824-1.324l.218-.388c.193-.339.371-.678.548-1.025.073-.145.154-.298.226-.444.186-.387.372-.791.541-1.194.041-.097.089-.186.129-.283.21-.5.404-1.009.581-1.533.049-.129.089-.267.13-.396.137-.403.258-.807.379-1.218.049-.17.097-.348.145-.525.113-.412.21-.831.307-1.251.032-.154.073-.299.105-.452.121-.565.226-1.146.323-1.727.016-.105.024-.21.04-.315.073-.493.137-.985.186-1.485.024-.194.04-.388.056-.582.041-.443.073-.887.097-1.339.008-.186.024-.38.032-.565.025-.63.041-1.268.033-1.921 0-.404 0-.783.008-1.146 0-.113.016-.21.016-.323.008-.242.024-.493.04-.719.008-.137.033-.258.049-.395.024-.186.04-.371.064-.541a5.74 5.74 0 0 1 .081-.395c.032-.146.056-.307.089-.444.032-.13.072-.234.105-.356.04-.129.072-.266.121-.395.04-.113.089-.21.137-.315.049-.113.097-.234.153-.347.049-.097.113-.186.17-.282.056-.097.113-.202.186-.299.064-.089.137-.161.201-.242.073-.089.138-.178.218-.258.073-.073.162-.138.242-.21.081-.073.162-.146.259-.218.088-.065.185-.113.274-.17.097-.056.194-.121.299-.177.097-.049.21-.097.315-.146.113-.048.217-.096.338-.145.113-.04.243-.073.356-.113.129-.04.25-.081.379-.113s.266-.056.396-.081c.145-.032.282-.056.427-.08.138-.025.291-.041.444-.057.162-.016.315-.04.476-.056a9.24 9.24 0 0 1 .485-.033c.177-.008.347-.024.524-.032.17 0 .355 0 .541-.008.162 0 .315-.008.484-.008h.17c.379 0 .743-.016 1.114-.024.323-.008.654-.008.977-.024.339-.017.661-.049.992-.081.315-.024.638-.049.945-.081.331-.032.653-.089.976-.129.299-.04.606-.081.904-.129.323-.057.646-.121.961-.186.29-.056.581-.105.863-.169.323-.073.63-.162.945-.242.274-.073.549-.138.815-.218.315-.089.622-.202.928-.299.259-.081.517-.161.767-.25.315-.113.613-.242.92-.363.234-.097.485-.186.711-.283.306-.129.605-.282.903-.42.218-.105.444-.201.662-.306.299-.154.598-.323.888-.485.202-.113.412-.218.614-.331.298-.169.581-.363.863-.54.186-.121.38-.234.557-.355.291-.194.565-.404.84-.606.169-.121.347-.242.508-.371.283-.218.549-.444.815-.67.154-.129.315-.25.46-.379.267-.234.525-.485.784-.735.137-.129.274-.25.411-.387.258-.259.509-.533.751-.799.121-.13.242-.251.363-.388.25-.282.484-.573.718-.863.105-.13.218-.251.315-.388.234-.307.452-.613.67-.928.089-.129.186-.25.274-.379.218-.323.42-.654.622-.985l.242-.388c.194-.339.379-.686.557-1.033.073-.129.145-.258.21-.395.177-.355.339-.719.492-1.074.057-.137.129-.266.186-.403.153-.372.291-.743.428-1.122.048-.137.105-.267.153-.404.129-.387.25-.775.363-1.17.041-.137.089-.266.121-.396.105-.395.202-.799.291-1.194.032-.137.073-.275.097-.412.081-.395.145-.807.21-1.211.024-.145.056-.29.072-.435.057-.404.097-.808.129-1.219.017-.154.041-.307.049-.468.032-.404.04-.816.056-1.227 0-.162.016-.323.025-.484 0-.412-.009-.832-.025-1.243 0-.17 0-.331-.008-.501-.024-.412-.064-.831-.097-1.251-.016-.169-.024-.339-.04-.517a34.733 34.733 0 0 0-.177-1.267c-.025-.177-.041-.347-.073-.516a24.64 24.64 0 0 0-.259-1.251c-.04-.186-.072-.372-.112-.565a39.474 39.474 0 0 0-.347-1.308c-.049-.169-.089-.339-.138-.516-.137-.469-.306-.945-.468-1.421-.048-.137-.089-.274-.137-.42a42.516 42.516 0 0 0-.727-1.84c-1.049-2.446-1.872-4.867-2.445-7.264a34.729 34.729 0 0 1-.63-3.342c-.016-.145-.04-.282-.056-.428a30.165 30.165 0 0 1-.234-3.3v-.073c-.057-4.722 1.057-9.38 3.64-14.004.274-.485.525-.977.751-1.486.072-.16.137-.33.209-.492.146-.347.299-.686.436-1.033.081-.202.137-.412.21-.621.105-.315.218-.63.315-.945.064-.226.121-.452.177-.678.081-.306.17-.613.235-.92.056-.234.088-.476.137-.718.056-.299.121-.606.169-.904.041-.25.065-.5.097-.75.04-.3.081-.598.105-.897.024-.258.032-.508.048-.767.017-.298.041-.597.041-.895v-.775c0-.299 0-.598-.016-.888-.008-.258-.033-.525-.049-.783-.024-.29-.04-.59-.072-.88-.025-.266-.065-.525-.097-.791-.041-.29-.073-.581-.121-.872-.041-.266-.097-.524-.146-.79-.056-.291-.113-.582-.177-.864-.057-.267-.129-.525-.194-.783-.073-.283-.145-.573-.226-.856-.073-.258-.161-.516-.242-.775a39.064 39.064 0 0 0-.274-.84c-.089-.257-.194-.508-.291-.766-.105-.274-.21-.549-.331-.823-.105-.25-.218-.5-.331-.75-.121-.267-.242-.533-.379-.8-.121-.25-.251-.492-.38-.734a37.242 37.242 0 0 0-.427-.775c-.138-.242-.283-.476-.42-.71-.153-.25-.315-.5-.476-.751-.154-.234-.307-.46-.469-.686-.169-.242-.347-.485-.524-.727-.17-.226-.339-.444-.509-.661-.185-.235-.371-.46-.565-.687-.177-.21-.363-.42-.548-.63-.202-.217-.404-.435-.614-.653a41.758 41.758 0 0 0-.589-.597c-.218-.21-.436-.412-.654-.614-.21-.185-.42-.379-.63-.556a24.322 24.322 0 0 0-.702-.574c-.218-.177-.444-.347-.67-.516a59.609 59.609 0 0 0-.742-.533 20.945 20.945 0 0 0-.711-.476c-.258-.17-.524-.323-.791-.484-.25-.146-.492-.29-.75-.428-.275-.154-.549-.29-.832-.428-.258-.13-.516-.258-.782-.38-.291-.128-.582-.258-.88-.379a24.806 24.806 0 0 0-.816-.33c-.298-.114-.613-.218-.92-.323a17.148 17.148 0 0 0-.847-.275c-.315-.097-.638-.177-.961-.258-.29-.073-.581-.154-.879-.218-.331-.073-.67-.13-1.009-.194-.307-.056-.606-.113-.912-.161a22.024 22.024 0 0 0-1.05-.121c-.315-.033-.621-.073-.944-.097-.363-.024-.727-.04-1.098-.049-.323-.016-.637-.032-.96-.032-.646 0-1.308 0-1.978.049-.274.016-.541.024-.799.032H149.317c-.379 0-.751-.008-1.09-.032h-.048a15.437 15.437 0 0 1-.961-.097h-.048a7.815 7.815 0 0 1-.823-.162c-.032 0-.065-.016-.089-.024a6.73 6.73 0 0 1-.678-.218c-.032-.016-.065-.024-.097-.04a4.487 4.487 0 0 1-.557-.267.596.596 0 0 1-.089-.056 3.438 3.438 0 0 1-.46-.331c-.024-.016-.048-.04-.072-.065a3.461 3.461 0 0 1-.38-.387c-.016-.024-.032-.04-.048-.065a3.534 3.534 0 0 1-.307-.46l-.024-.048a5.37 5.37 0 0 1-.242-.533s0-.016-.008-.024c-.073-.194-.129-.395-.186-.597 0-.024-.016-.049-.016-.073a7.5 7.5 0 0 1-.121-.637c0-.033-.008-.065-.016-.105a8.149 8.149 0 0 1-.073-.686c0-.04 0-.081-.008-.122a20.345 20.345 0 0 1-.04-.734v-.13a25.587 25.587 0 0 1-.016-.798V29.065c0-.315.008-.638.016-.977 0-.532 0-1.065-.025-1.59 0-.17-.024-.339-.032-.5-.024-.355-.048-.718-.08-1.074a41.447 41.447 0 0 0-.194-1.566c-.032-.193-.057-.387-.089-.58a21.72 21.72 0 0 0-.194-.993c-.04-.17-.072-.347-.113-.517a19.577 19.577 0 0 0-.306-1.203 8.82 8.82 0 0 1-.073-.274c-.137-.484-.291-.96-.452-1.429-.048-.145-.105-.29-.161-.443-.121-.323-.235-.646-.364-.961a13.41 13.41 0 0 0-.226-.533c-.121-.282-.25-.565-.379-.847-.081-.178-.17-.355-.258-.533-.138-.274-.275-.549-.42-.815a37.29 37.29 0 0 0-.266-.5c-.17-.3-.347-.598-.525-.888-.073-.13-.153-.259-.226-.38a38.413 38.413 0 0 0-.791-1.194l-.266-.364c-.194-.274-.396-.54-.606-.807-.121-.153-.242-.298-.363-.452-.186-.226-.371-.452-.557-.67a10.78 10.78 0 0 0-.403-.452c-.194-.21-.388-.42-.582-.621-.137-.145-.274-.29-.419-.428-.218-.218-.436-.42-.662-.63-.129-.12-.25-.242-.38-.355-.347-.306-.694-.613-1.057-.896-.097-.08-.202-.153-.299-.234-.274-.21-.548-.427-.823-.63-.153-.112-.307-.217-.46-.322-.234-.161-.468-.323-.71-.476l-.509-.315c-.234-.145-.476-.283-.718-.42-.17-.097-.347-.193-.517-.29a32.981 32.981 0 0 0-.775-.396c-.161-.08-.314-.161-.476-.234a26.42 26.42 0 0 0-1.106-.484c-.088-.04-.185-.073-.274-.113a21.416 21.416 0 0 0-1.203-.436c-.161-.057-.323-.097-.484-.153-.291-.09-.573-.178-.864-.259a13.23 13.23 0 0 0-.54-.137 15.75 15.75 0 0 0-.84-.194c-.186-.04-.363-.072-.549-.113-.298-.056-.589-.096-.887-.145l-.509-.073a17.28 17.28 0 0 0-1.13-.104c-.097 0-.186-.017-.283-.025-.476-.024-.952-.04-1.436-.04h-.226c-.404 0-.816.024-1.219.048-.089 0-.178.008-.258.017-.452.04-.913.088-1.365.153a17.435 17.435 0 0 0-1.541.274 1.26 1.26 0 0 1-.17.033c-.46.096-.92.218-1.38.347-.105.032-.21.064-.315.088-.468.138-.936.291-1.404.46-.057.025-.113.04-.178.057-.75.274-1.501.533-2.244.775-.33.105-.653.194-.976.29-.468.146-.936.291-1.405.42-.363.105-.726.186-1.089.275-.42.105-.848.226-1.267.322-.372.09-.735.154-1.098.235-.412.088-.824.177-1.235.258-.38.072-.75.12-1.122.185-.395.065-.791.138-1.187.194-.37.049-.734.089-1.105.13-.396.048-.8.096-1.195.137-.355.032-.71.048-1.066.072-.411.032-.815.065-1.226.08-.355.017-.702.017-1.058.025-.395.008-.79.024-1.178.024h-.048c-.396 0-.8-.016-1.195-.024-.363-.008-.735-.008-1.098-.024-.395-.016-.783-.057-1.178-.08-.371-.025-.743-.041-1.122-.082-.388-.032-.783-.088-1.17-.129-.38-.04-.76-.08-1.139-.129-.387-.048-.774-.12-1.17-.177a56.884 56.884 0 0 1-1.154-.178c-.404-.073-.8-.161-1.203-.234-.38-.073-.75-.145-1.13-.226a39.91 39.91 0 0 1-1.251-.299c-.371-.088-.742-.17-1.114-.266-.468-.121-.936-.258-1.404-.387-.331-.09-.654-.17-.977-.267a85.379 85.379 0 0 1-1.897-.589c-.177-.057-.347-.105-.516-.161a27.027 27.027 0 0 0-1.655-.477l-.29-.072A36.66 36.66 0 0 0 68.183.75a4.29 4.29 0 0 0-.315-.057A22.02 22.02 0 0 0 66.286.46c-.057 0-.105-.008-.154-.016a24.233 24.233 0 0 0-1.509-.121c-.08 0-.153-.008-.234-.016-.484-.025-.977-.025-1.453-.025-.21 0-.411.009-.613.017-.34.008-.686.032-1.025.056-.202.016-.412.032-.614.057-.347.032-.686.08-1.025.129-.186.024-.38.048-.565.08-.38.065-.759.138-1.13.218-.137.033-.282.057-.42.09-.516.12-1.025.25-1.533.403a.602.602 0 0 1-.13.04c-.46.137-.903.29-1.355.452-.154.057-.299.113-.444.17-.34.129-.678.266-1.01.411-.169.073-.33.154-.492.226-.314.146-.621.299-.928.452-.161.081-.323.17-.484.259-.307.169-.614.347-.92.524-.145.089-.283.17-.428.258-.355.218-.694.452-1.041.687-.081.056-.17.113-.25.169a28.69 28.69 0 0 0-1.26.952c-.056.04-.105.09-.161.138a26.31 26.31 0 0 0-1.017.871c-.121.105-.234.218-.347.323-.267.25-.525.5-.775.759-.13.13-.25.258-.371.395-.234.25-.468.509-.703.775-.12.138-.234.275-.355.412-.234.274-.46.565-.678.847-.096.13-.201.259-.298.388-.267.355-.525.726-.775 1.098-.04.064-.089.129-.13.193-.29.444-.572.904-.839 1.364a5.426 5.426 0 0 0-.161.299c-.202.363-.404.726-.59 1.098-.08.161-.153.323-.233.484-.154.323-.307.646-.452.977-.081.177-.154.363-.226.54-.13.323-.259.654-.38.985-.064.186-.137.371-.202.557a20.61 20.61 0 0 0-.339 1.066c-.048.169-.105.338-.153.508-.13.468-.25.944-.363 1.42-.016.065-.032.122-.049.186-.12.541-.226 1.09-.314 1.647-.025.161-.04.323-.065.476-.056.395-.113.799-.153 1.195-.025.21-.04.411-.057.621-.032.363-.056.726-.072 1.098l-.025.67a24.8 24.8 0 0 0 0 1.097c0 .218 0 .444.009.662.016.396.04.8.064 1.203.016.194.024.38.04.573.057.597.121 1.194.21 1.792.194 1.283.912 2.542.896 3.834 0 .411-.097.823-.29 1.243a3.3 3.3 0 0 1-.323.557c-.59-.21-1.211-.388-1.849-.541-.048-.008-.096-.024-.145-.032a25.58 25.58 0 0 0-1.84-.356c-.065-.008-.137-.016-.202-.032a29.168 29.168 0 0 0-1.921-.21c-.057 0-.121-.008-.178-.016a29.814 29.814 0 0 0-2.09-.073h-.057c-.427 0-.847.008-1.275.025-.113 0-.226.008-.347.016-.355.016-.71.04-1.066.064a2.6 2.6 0 0 0-.258.017c-.428.032-.855.08-1.283.129-.105.016-.21.024-.323.04l-1.033.145-.331.049c-.42.072-.848.145-1.26.234-.08.016-.169.032-.25.056-.347.073-.694.154-1.04.234-.122.025-.235.057-.356.09-.412.104-.823.209-1.235.33-.032.008-.064.016-.097.032-.379.113-.75.226-1.121.347-.113.04-.227.073-.34.113-.347.121-.686.243-1.017.364-.056.024-.113.04-.177.064-.38.145-.75.299-1.122.46-.097.04-.202.09-.299.137-.298.138-.589.275-.88.412-.08.04-.16.073-.233.113a25.02 25.02 0 0 0-1.026.549c-.08.04-.153.089-.226.137a12.72 12.72 0 0 0-.783.484c-.08.049-.161.105-.242.154-.306.202-.613.412-.896.63-.048.032-.088.072-.137.104-.242.186-.484.38-.71.573-.073.065-.145.121-.21.186-.258.234-.517.468-.75.71a48.641 48.641 0 0 0-1.526 1.655c-.388.436-.759.88-1.114 1.332-.25.314-.5.63-.743.952-.403.541-.79 1.09-1.162 1.639-1.291 1.937-2.333 3.939-3.075 6.005a21.927 21.927 0 0 0-1.122 4.504 19.983 19.983 0 0 0-.17 3.712 20.311 20.311 0 0 0 .533 3.794c.38 1.598.96 3.212 1.76 4.835a45.19 45.19 0 0 1 1.897 4.399c.799 2.17 1.38 4.302 1.767 6.416.258 1.413.42 2.817.5 4.214.202 3.503-.137 7.006-.936 10.606-.637 2.881-1.574 5.819-2.768 8.87 0 .008 0 .016-.008.024a29.62 29.62 0 0 0-.654 1.832c-.065.21-.113.412-.178.622-.12.403-.25.815-.347 1.211-.064.242-.105.484-.161.734-.08.355-.17.718-.234 1.074-.049.258-.081.516-.121.774-.049.339-.113.67-.154 1.001-.032.267-.048.525-.064.783-.025.323-.065.638-.08.961-.017.266-.009.524-.017.791 0 .306-.016.613-.016.92 0 .266.024.524.032.783.016.298.024.597.049.888.024.258.056.516.088.774.033.283.065.574.105.856.04.258.089.509.137.767.049.274.097.557.162.831.056.25.12.501.185.751.065.266.138.541.21.799.073.25.154.492.234.734.081.259.17.517.259.775.089.242.185.476.282.71a14.323 14.323 0 0 0 .63 1.437c.113.242.226.484.347.727.113.226.242.444.363.661.13.235.258.469.388.695.129.218.266.427.403.645.145.226.283.444.428.662.145.21.29.412.436.614.153.209.306.427.468.629.153.202.315.396.468.589.161.202.33.404.5.598.162.185.331.371.5.557.178.193.356.379.534.565.177.177.355.355.532.524.186.178.372.363.565.533.186.169.372.331.557.492.194.17.396.339.59.501.193.161.387.306.589.46l.613.468c.202.145.404.29.614.428.21.145.427.29.637.427.21.138.42.267.63.388.218.137.444.266.662.395.21.121.427.243.645.356.226.121.452.242.687.355.217.105.435.21.661.314l.702.315c.227.097.453.186.679.275.234.097.476.185.718.274.226.081.46.162.686.234.242.081.484.154.726.226.234.073.46.137.695.194.242.064.492.129.742.186.234.056.468.104.702.153.25.048.5.097.751.137.234.04.476.081.71.113.25.032.5.065.751.089.234.024.476.048.71.064l.759.049.71.024c.396 0 .791.008 1.187 0h.032c.444-.016.872-.024 1.284-.024h.048c.161 0 .306 0 .46.008.266 0 .54.008.799.024.161.008.315.024.468.041.226.016.452.032.67.064.153.016.299.049.444.065.194.032.395.064.581.105.137.032.274.064.404.096.17.049.347.089.508.146.13.04.25.089.372.137.153.056.298.121.444.186.113.056.225.113.33.169.13.073.259.145.38.226a5.83 5.83 0 0 1 .622.484 5.563 5.563 0 0 1 .533.582c.072.088.144.185.209.29.08.121.161.25.234.388.056.104.12.209.177.322.073.146.13.291.194.444l.145.364c.057.161.105.339.154.508.04.129.072.258.105.404.04.185.08.387.113.589.024.145.056.282.08.428.033.218.057.452.081.686l.049.444c.024.266.04.557.048.839 0 .137.016.266.024.404.017.435.024.887.024 1.356 0 .581.017 1.154.057 1.727.008.177.024.347.04.516.033.404.073.808.121 1.203l.073.549c.065.428.137.855.218 1.283.024.121.04.242.065.363.113.533.242 1.066.379 1.591.032.129.073.258.113.379.113.395.234.791.371 1.178a24.585 24.585 0 0 0 .597 1.574c.065.146.121.299.186.444.21.484.428.969.67 1.437a25.033 25.033 0 0 0 .759 1.38c.08.145.17.283.258.42.194.315.388.629.597.936.097.145.186.283.291.428.234.339.476.678.726 1.001.065.088.13.177.194.258.315.404.646.807.985 1.195.089.104.186.201.274.298.259.291.525.565.791.848l.363.363c.267.258.533.516.808.767.113.105.225.21.338.306.388.339.776.67 1.18.985.047.04.104.073.152.113a26.3 26.3 0 0 0 1.493 1.082c.3.201.606.403.905.589.145.089.282.177.427.266.356.218.719.42 1.082.622.089.048.17.097.25.137.452.234.904.46 1.364.67l.388.169c.339.154.686.299 1.033.436.161.065.323.121.476.186.347.129.694.25 1.05.371a22.642 22.642 0 0 0 1.873.549c.08.016.152.032.233.056.42.105.84.194 1.26.275.16.032.322.056.483.089.356.064.71.113 1.066.161.161.024.323.041.492.065.428.048.856.088 1.284.113.08 0 .161.016.242.016.5.024 1.009.032 1.51.032.2 0 .403-.016.613-.016.33-.008.67-.024 1-.048.218-.017.444-.041.662-.057l-.048.081Zm-4.706-25.199c-.767-.767-.863-1.453-.863-2.026.008-3.939.048-15.925-9.08-25.086-5.958-5.973-13.973-9.008-23.82-9.008-.678 0-1.388.017-2.107.041-.387-.097-1.09-.541-1.372-1.041-.201-.364.25-1.558.307-1.695 7.482-19.09 7.264-35.926-.71-52.868.202-.29.468-.654.823-1.074a12.6 12.6 0 0 1 3.866-.645c.323 0 .55.016.678.032a24.219 24.219 0 0 0 27.225-8.83c3.592-4.98 7.095-13.172 3.956-24.311-.033-1.622.548-2.575.936-3.027.532-.613.928-.613 1.081-.613.186 0 .517.032 1.001.193 9.194 2.987 17.774 4.44 26.249 4.44 8.886 0 17.579-1.582 26.563-4.827.573.404 1.638 1.566 1.606 3.398v.049c-.081 5.585-.234 15.98 8.265 24.61 5.666 5.754 13.246 8.668 22.528 8.668.952 0 1.961-.032 2.994-.089.146 0 .283-.016.412-.016 1.187 0 1.614.266 2.066.831.727.896.961 2.083.912 2.607-5.795 10.51-10.638 27.564-1.251 49.486.888 2.082.719 3.253.501 3.584-.299.452-1.607 1.13-3.971 1.13h-.364c-3.64 0-14.714 0-23.455 8.822-2.172 2.187-8.766 8.846-8.637 23.697.024 2.575-.541 3.915-.815 4.302a2.598 2.598 0 0 1-.605.057c-.63 0-1.978-.137-4.02-1.057-7.507-3.382-15.328-5.093-23.246-5.093-8.798 0-17.483 2.219-25.11 6.408a.486.486 0 0 1-.275.065c-.58 0-1.55-.388-2.284-1.114h.016Z"/><mask id="a" width="180" height="180" x="0" y="0" maskUnits="userSpaceOnUse" style="mask-type:luminance"><path fill="current" d="M116.991 24.311c.573.404 1.638 1.566 1.606 3.398v.049c-.081 5.585-.234 15.98 8.265 24.61 5.666 5.754 13.245 8.668 22.528 8.668.952 0 1.961-.032 2.994-.089.145 0 .283-.016.412-.016 1.186 0 1.614.266 2.066.831.726.896.96 2.083.912 2.607-5.795 10.51-10.638 27.564-1.251 49.486.888 2.082.718 3.253.5 3.584-.298.452-1.606 1.13-3.971 1.13h-.363c-3.64 0-14.714 0-23.456 8.822-2.171 2.187-8.765 8.846-8.636 23.697.024 2.575-.541 3.915-.815 4.302a2.601 2.601 0 0 1-.606.057c-.629 0-1.977-.137-4.019-1.058-7.507-3.381-15.328-5.093-23.246-5.093-8.798 0-17.483 2.22-25.11 6.409-.081.04-.13.065-.275.065-.581 0-1.55-.388-2.284-1.114-.767-.767-.864-1.453-.864-2.026.008-3.939.048-15.925-9.08-25.086-5.957-5.973-13.972-9.008-23.82-9.008-.677 0-1.388.017-2.106.041-.387-.097-1.09-.541-1.372-1.041-.202-.364.25-1.558.307-1.695 7.482-19.09 7.264-35.926-.71-52.868.201-.29.467-.654.823-1.073.863-.3 2.34-.646 3.866-.646.323 0 .549.016.678.032a24.219 24.219 0 0 0 27.225-8.83c3.592-4.98 7.095-13.173 3.955-24.311-.032-1.622.549-2.575.936-3.027.533-.613.928-.613 1.082-.613.185 0 .516.032 1 .193 9.194 2.987 17.774 4.44 26.25 4.44 8.886 0 17.579-1.582 26.562-4.827M117.055 0c-2.631 0-5.319.46-7.999 1.437-6.481 2.373-12.559 3.487-18.629 3.487-6.07 0-12.244-1.139-18.766-3.253C68.771.734 65.922.29 63.178.29c-15.95 0-28.5 14.786-25.893 32.366.274 1.864 1.687 3.68.274 5.634-2.438-.848-5.295-1.251-8.265-1.251-7.66 0-16.11 2.647-20.348 7.022C1.06 52.19-2.798 62.102 2.319 72.505c5.844 11.898 5.238 22.293.452 34.505-7.74 19.735 7.975 35.789 23.528 35.789.291 0 .59 0 .88-.016.452-.016.896-.024 1.308-.024 6.812 0 8.709 2.453 8.685 9.806C37.123 168.458 50.554 180 64.534 180c4.036 0 8.12-.96 11.938-3.059 4.197-2.308 8.781-3.414 13.447-3.414 4.665 0 8.983 1.017 13.31 2.962 4.818 2.171 9.548 3.188 13.963 3.188 14.602 0 25.789-11.155 25.635-28.782-.056-6.361 1.736-8.088 7.878-8.088h.355c21.495 0 34.143-18.814 25.732-38.46-4.189-9.775-4.883-19.153.275-28.403 8.539-15.32-2.172-39.211-24.263-39.211-.589 0-1.187.016-1.792.048-.581.033-1.114.049-1.614.049-6.732 0-6.668-2.987-6.579-8.758C143.045 12.632 130.89 0 117.063 0h-.008Z"/></mask><g stroke="#fff" stroke-miterlimit="10" mask="url(#a)"><path d="M90.435 92.804V-44.305M90.436 92.804 78.49-43.788M90.435 92.805 66.632-42.222M90.435 92.805 54.953-39.64M90.434 92.805 43.54-36.04M90.435 92.804 32.49-31.463M90.434 92.804 21.885-25.942M90.435 92.804 11.795-19.51M90.435 92.804 2.302-12.228M90.435 92.804-6.52-4.149M90.436 92.803-14.6 4.672M90.435 92.804-21.88 14.156M90.435 92.803l-118.74-68.558M90.434 92.804l-124.26-57.945M90.436 92.804-38.41 45.909M90.435 92.804l-132.437-35.49M90.435 92.805l-135.028-23.81M90.435 92.804-46.15 80.85M90.435 92.804h-137.11M90.435 92.804-46.15 104.758M90.435 92.804l-135.028 23.81M90.435 92.804l-132.437 35.49M90.436 92.804-38.41 139.698M90.434 92.804l-124.26 57.944M90.435 92.804l-118.74 68.558M90.435 92.804-21.88 171.45M90.436 92.804-14.6 180.935M90.435 92.804-6.52 189.757M90.435 92.804 2.302 197.837M90.435 92.804l-78.64 112.313M90.434 92.804 21.885 211.55M90.435 92.804 32.49 217.07M90.434 92.804 43.54 221.647M90.435 92.804 54.953 225.247M90.435 92.804 66.632 227.83M90.436 92.804 78.49 229.396M90.435 92.804v137.108M90.435 92.804l11.954 136.592M90.435 92.804l23.811 135.026M90.435 92.804l35.49 132.443M90.435 92.804l46.895 128.843M90.435 92.804l57.953 124.267M90.435 92.804l68.559 118.746M90.435 92.804l78.648 112.313M90.435 92.804l88.14 105.033M90.435 92.804l96.954 96.953M90.435 92.804l105.042 88.131M90.435 92.804l112.322 78.647M90.435 92.804l118.747 68.558M90.435 92.804l124.268 57.944M90.435 92.804l128.845 46.894M90.435 92.804l132.445 35.49M90.435 92.804l135.036 23.81M90.435 92.804l136.593 11.954M90.435 92.804h137.118M90.435 92.804 227.028 80.85M90.435 92.805l135.036-23.81M90.435 92.804l132.445-35.49M90.435 92.804 219.28 45.909M90.435 92.804l124.268-57.945M90.435 92.803l118.747-68.558M90.435 92.804l112.322-78.648M90.435 92.803 195.477 4.672M90.435 92.804l96.954-96.953M90.435 92.804l88.14-105.032M90.435 92.804 169.083-19.51M90.435 92.804l68.559-118.746M90.435 92.804l57.953-124.267M90.435 92.805 137.33-36.04M90.435 92.805l35.49-132.444M90.435 92.805l23.811-135.027M90.435 92.804l11.954-136.592" opacity=".5"/></g></svg>